  0
SECTION
  2
HEADER
  9
$ACADVER
  1
AC1006
  9
$INSBASE
  10
0.000000
  20
0.000000
  30
0.000000
  9
$EXTMIN
  10
0.000000
  20
0.000000
  9
$EXTMAX
  10
1000.000000
  20
1000.000000
  0
ENDSEC
  0
SECTION
  2
BLOCKS
  0
BLOCK
  8
0
  2
11_M
  70
64
  10
0
  20
0
  0
TEXT
  8
1
  10
192.148163
  20
1244.616211
  50
0.000000
  51
0.000000
  71
0.000000
  1
PIECE NAME: 11
  7
STANDARD
  0
TEXT
  8
1
  10
192.148163
  20
1239.616211
  50
0.000000
  51
0.000000
  71
0.000000
  1
SIZE: M
  7
STANDARD
  0
TEXT
  8
1
  10
192.148163
  20
1234.616211
  50
0.000000
  51
0.000000
  71
0.000000
  1
ANNOTATION: 
  7
STANDARD
  0
TEXT
  8
1
  10
192.148163
  20
1229.616211
  50
0.000000
  51
0.000000
  71
0.000000
  1
QUANTITY: 1
  7
STANDARD
  0
POLYLINE
  8
1
  66
1
  70
1
  250
2
  0
VERTEX
  8
1
  10
64.234970
  20
893.018738
  0
VERTEX
  8
1
  10
64.250870
  20
1462.437012
  0
VERTEX
  8
1
  10
70.367142
  20
1465.763062
  0
VERTEX
  8
1
  10
76.217041
  20
1469.226440
  0
VERTEX
  8
1
  10
81.807816
  20
1472.822266
  0
VERTEX
  8
1
  10
87.146645
  20
1476.545410
  0
VERTEX
  8
1
  10
92.240707
  20
1480.390869
  0
VERTEX
  8
1
  10
97.097191
  20
1484.353638
  0
VERTEX
  8
1
  10
101.723335
  20
1488.428467
  0
VERTEX
  8
1
  10
106.126297
  20
1492.610474
  0
VERTEX
  8
1
  10
110.313271
  20
1496.894531
  0
VERTEX
  8
1
  10
114.291489
  20
1501.275635
  0
VERTEX
  8
1
  10
118.068123
  20
1505.748657
  0
VERTEX
  8
1
  10
121.650360
  20
1510.308716
  0
VERTEX
  8
1
  10
125.045418
  20
1514.950439
  0
VERTEX
  8
1
  10
128.260498
  20
1519.668945
  0
VERTEX
  8
1
  10
131.302750
  20
1524.459351
  0
VERTEX
  8
1
  10
134.179413
  20
1529.316406
  0
VERTEX
  8
1
  10
136.897690
  20
1534.234985
  0
VERTEX
  8
1
  10
139.464737
  20
1539.210205
  0
VERTEX
  8
1
  10
141.887787
  20
1544.236816
  0
VERTEX
  8
1
  10
144.174011
  20
1549.309937
  0
VERTEX
  8
1
  10
146.330612
  20
1554.424561
  0
VERTEX
  8
1
  10
148.364792
  20
1559.575439
  0
VERTEX
  8
1
  10
150.283752
  20
1564.757568
  0
VERTEX
  8
1
  10
152.094666
  20
1569.966064
  0
VERTEX
  8
1
  10
153.804749
  20
1575.195679
  0
VERTEX
  8
1
  10
155.421204
  20
1580.441406
  0
VERTEX
  8
1
  10
156.951202
  20
1585.698120
  0
VERTEX
  8
1
  10
158.401962
  20
1590.960938
  0
VERTEX
  8
1
  10
159.780670
  20
1596.224609
  0
VERTEX
  8
1
  10
166.036346
  20
1594.065918
  0
VERTEX
  8
1
  10
172.234955
  20
1591.953491
  0
VERTEX
  8
1
  10
178.374878
  20
1589.883545
  0
VERTEX
  8
1
  10
184.454529
  20
1587.852783
  0
VERTEX
  8
1
  10
190.472336
  20
1585.857300
  0
VERTEX
  8
1
  10
196.426666
  20
1583.893677
  0
VERTEX
  8
1
  10
202.315964
  20
1581.958252
  0
VERTEX
  8
1
  10
208.138626
  20
1580.047241
  0
VERTEX
  8
1
  10
213.893051
  20
1578.157227
  0
VERTEX
  8
1
  10
219.577652
  20
1576.284424
  0
VERTEX
  8
1
  10
225.190842
  20
1574.425293
  0
VERTEX
  8
1
  10
230.731018
  20
1572.576294
  0
VERTEX
  8
1
  10
236.196594
  20
1570.733643
  0
VERTEX
  8
1
  10
241.585968
  20
1568.893799
  0
VERTEX
  8
1
  10
246.897552
  20
1567.053101
  0
VERTEX
  8
1
  10
252.129761
  20
1565.208008
  0
VERTEX
  8
1
  10
257.281006
  20
1563.354736
  0
VERTEX
  8
1
  10
262.349670
  20
1561.489746
  0
VERTEX
  8
1
  10
267.334167
  20
1559.609619
  0
VERTEX
  8
1
  10
272.232910
  20
1557.710449
  0
VERTEX
  8
1
  10
277.044342
  20
1555.788696
  0
VERTEX
  8
1
  10
281.766815
  20
1553.840698
  0
VERTEX
  8
1
  10
286.398743
  20
1551.862915
  0
VERTEX
  8
1
  10
290.938568
  20
1549.851685
  0
VERTEX
  8
1
  10
295.384674
  20
1547.803467
  0
VERTEX
  8
1
  10
299.735474
  20
1545.714478
  0
VERTEX
  8
1
  10
303.989349
  20
1543.581177
  0
VERTEX
  8
1
  10
308.144745
  20
1541.399902
  0
VERTEX
  8
1
  10
312.200073
  20
1539.167236
  0
VERTEX
  8
1
  10
311.246582
  20
1537.027344
  0
VERTEX
  8
1
  10
310.249146
  20
1534.729248
  0
VERTEX
  8
1
  10
309.211212
  20
1532.278809
  0
VERTEX
  8
1
  10
308.136200
  20
1529.681641
  0
VERTEX
  8
1
  10
307.027527
  20
1526.943970
  0
VERTEX
  8
1
  10
305.888763
  20
1524.071533
  0
VERTEX
  8
1
  10
304.723236
  20
1521.070190
  0
VERTEX
  8
1
  10
303.534485
  20
1517.945801
  0
VERTEX
  8
1
  10
302.325928
  20
1514.704346
  0
VERTEX
  8
1
  10
301.101013
  20
1511.351563
  0
VERTEX
  8
1
  10
299.863159
  20
1507.893433
  0
VERTEX
  8
1
  10
298.615906
  20
1504.335693
  0
VERTEX
  8
1
  10
297.362640
  20
1500.684326
  0
VERTEX
  8
1
  10
296.106781
  20
1496.945190
  0
VERTEX
  8
1
  10
294.851868
  20
1493.124146
  0
VERTEX
  8
1
  10
293.601318
  20
1489.227173
  0
VERTEX
  8
1
  10
292.358551
  20
1485.259888
  0
VERTEX
  8
1
  10
291.127045
  20
1481.228394
  0
VERTEX
  8
1
  10
289.910248
  20
1477.138550
  0
VERTEX
  8
1
  10
288.711609
  20
1472.996094
  0
VERTEX
  8
1
  10
287.534607
  20
1468.807007
  0
VERTEX
  8
1
  10
286.382629
  20
1464.577148
  0
VERTEX
  8
1
  10
285.259216
  20
1460.312378
  0
VERTEX
  8
1
  10
284.167725
  20
1456.018555
  0
VERTEX
  8
1
  10
283.111694
  20
1451.701538
  0
VERTEX
  8
1
  10
282.094482
  20
1447.367310
  0
VERTEX
  8
1
  10
281.119629
  20
1443.021606
  0
VERTEX
  8
1
  10
280.190552
  20
1438.670410
  0
VERTEX
  8
1
  10
279.310699
  20
1434.319580
  0
VERTEX
  8
1
  10
278.557617
  20
1429.668701
  0
VERTEX
  8
1
  10
277.930634
  20
1425.122070
  0
VERTEX
  8
1
  10
277.432800
  20
1420.679688
  0
VERTEX
  8
1
  10
277.067230
  20
1416.341797
  0
VERTEX
  8
1
  10
276.837067
  20
1412.108398
  0
VERTEX
  8
1
  10
276.745483
  20
1407.979858
  0
VERTEX
  8
1
  10
276.795563
  20
1403.956177
  0
VERTEX
  8
1
  10
276.990417
  20
1400.037354
  0
VERTEX
  8
1
  10
277.333191
  20
1396.223755
  0
VERTEX
  8
1
  10
277.826996
  20
1392.515381
  0
VERTEX
  8
1
  10
278.474945
  20
1388.912598
  0
VERTEX
  8
1
  10
279.280212
  20
1385.415283
  0
VERTEX
  8
1
  10
280.245880
  20
1382.023560
  0
VERTEX
  8
1
  10
281.375061
  20
1378.737793
  0
VERTEX
  8
1
  10
282.670929
  20
1375.557983
  0
VERTEX
  8
1
  10
284.136536
  20
1372.484375
  0
VERTEX
  8
1
  10
285.775085
  20
1369.516846
  0
VERTEX
  8
1
  10
287.589661
  20
1366.655884
  0
VERTEX
  8
1
  10
289.583374
  20
1363.901489
  0
VERTEX
  8
1
  10
291.759369
  20
1361.253662
  0
VERTEX
  8
1
  10
294.120789
  20
1358.712646
  0
VERTEX
  8
1
  10
296.670715
  20
1356.278687
  0
VERTEX
  8
1
  10
299.412292
  20
1353.951782
  0
VERTEX
  8
1
  10
302.348633
  20
1351.732178
  0
VERTEX
  8
1
  10
305.482910
  20
1349.619873
  0
VERTEX
  8
1
  10
308.818176
  20
1347.615234
  0
VERTEX
  8
1
  10
312.357574
  20
1345.718140
  0
VERTEX
  8
1
  10
316.104248
  20
1343.928833
  0
VERTEX
  8
1
  10
320.061340
  20
1342.247559
  0
VERTEX
  8
1
  10
319.666962
  20
1337.411743
  0
VERTEX
  8
1
  10
319.273499
  20
1332.219971
  0
VERTEX
  8
1
  10
318.881470
  20
1326.698853
  0
VERTEX
  8
1
  10
318.491516
  20
1320.875000
  0
VERTEX
  8
1
  10
318.104126
  20
1314.775024
  0
VERTEX
  8
1
  10
317.719971
  20
1308.425537
  0
VERTEX
  8
1
  10
317.339447
  20
1301.853027
  0
VERTEX
  8
1
  10
316.963196
  20
1295.084351
  0
VERTEX
  8
1
  10
316.591858
  20
1288.145874
  0
VERTEX
  8
1
  10
316.225830
  20
1281.064453
  0
VERTEX
  8
1
  10
315.865814
  20
1273.866455
  0
VERTEX
  8
1
  10
315.512299
  20
1266.578735
  0
VERTEX
  8
1
  10
315.165833
  20
1259.227783
  0
VERTEX
  8
1
  10
314.827026
  20
1251.840088
  0
VERTEX
  8
1
  10
314.496399
  20
1244.442505
  0
VERTEX
  8
1
  10
314.174561
  20
1237.061523
  0
VERTEX
  8
1
  10
313.862000
  20
1229.723755
  0
VERTEX
  8
1
  10
313.559326
  20
1222.455811
  0
VERTEX
  8
1
  10
313.267090
  20
1215.284424
  0
VERTEX
  8
1
  10
312.985809
  20
1208.235962
  0
VERTEX
  8
1
  10
312.716125
  20
1201.337280
  0
VERTEX
  8
1
  10
312.458527
  20
1194.614868
  0
VERTEX
  8
1
  10
312.213623
  20
1188.095337
  0
VERTEX
  8
1
  10
311.981934
  20
1181.805298
  0
VERTEX
  8
1
  10
311.764038
  20
1175.771484
  0
VERTEX
  8
1
  10
311.560486
  20
1170.020264
  0
VERTEX
  8
1
  10
311.371887
  20
1164.578491
  0
VERTEX
  8
1
  10
311.198700
  20
1159.472778
  0
VERTEX
  8
1
  10
311.041565
  20
1154.729492
  0
VERTEX
  8
1
  10
315.154175
  20
893.007751
  0
SEQEND
  0
POINT
  8
2
  10
64.234970
  20
893.018738
  0
POINT
  8
2
  10
64.250870
  20
1462.437012
  0
POINT
  8
2
  10
159.780670
  20
1596.224609
  0
POINT
  8
2
  10
312.200073
  20
1539.167236
  0
POINT
  8
2
  10
279.310699
  20
1434.319580
  0
POINT
  8
2
  10
320.061340
  20
1342.247559
  0
POINT
  8
2
  10
311.041565
  20
1154.729492
  0
POINT
  8
2
  10
315.154175
  20
893.007751
  0
POINT
  8
3
  10
70.367142
  20
1465.763062
  0
POINT
  8
3
  10
76.217041
  20
1469.226440
  0
POINT
  8
3
  10
81.807816
  20
1472.822266
  0
POINT
  8
3
  10
87.146645
  20
1476.545410
  0
POINT
  8
3
  10
92.240707
  20
1480.390869
  0
POINT
  8
3
  10
97.097191
  20
1484.353638
  0
POINT
  8
3
  10
101.723335
  20
1488.428467
  0
POINT
  8
3
  10
106.126297
  20
1492.610474
  0
POINT
  8
3
  10
110.313271
  20
1496.894531
  0
POINT
  8
3
  10
114.291489
  20
1501.275635
  0
POINT
  8
3
  10
118.068123
  20
1505.748657
  0
POINT
  8
3
  10
121.650360
  20
1510.308716
  0
POINT
  8
3
  10
125.045418
  20
1514.950439
  0
POINT
  8
3
  10
128.260498
  20
1519.668945
  0
POINT
  8
3
  10
131.302750
  20
1524.459351
  0
POINT
  8
3
  10
134.179413
  20
1529.316406
  0
POINT
  8
3
  10
136.897690
  20
1534.234985
  0
POINT
  8
3
  10
139.464737
  20
1539.210205
  0
POINT
  8
3
  10
141.887787
  20
1544.236816
  0
POINT
  8
3
  10
144.174011
  20
1549.309937
  0
POINT
  8
3
  10
146.330612
  20
1554.424561
  0
POINT
  8
3
  10
148.364792
  20
1559.575439
  0
POINT
  8
3
  10
150.283752
  20
1564.757568
  0
POINT
  8
3
  10
152.094666
  20
1569.966064
  0
POINT
  8
3
  10
153.804749
  20
1575.195679
  0
POINT
  8
3
  10
155.421204
  20
1580.441406
  0
POINT
  8
3
  10
156.951202
  20
1585.698120
  0
POINT
  8
3
  10
158.401962
  20
1590.960938
  0
POINT
  8
3
  10
166.036346
  20
1594.065918
  0
POINT
  8
3
  10
172.234955
  20
1591.953491
  0
POINT
  8
3
  10
178.374878
  20
1589.883545
  0
POINT
  8
3
  10
184.454529
  20
1587.852783
  0
POINT
  8
3
  10
190.472336
  20
1585.857300
  0
POINT
  8
3
  10
196.426666
  20
1583.893677
  0
POINT
  8
3
  10
202.315964
  20
1581.958252
  0
POINT
  8
3
  10
208.138626
  20
1580.047241
  0
POINT
  8
3
  10
213.893051
  20
1578.157227
  0
POINT
  8
3
  10
219.577652
  20
1576.284424
  0
POINT
  8
3
  10
225.190842
  20
1574.425293
  0
POINT
  8
3
  10
230.731018
  20
1572.576294
  0
POINT
  8
3
  10
236.196594
  20
1570.733643
  0
POINT
  8
3
  10
241.585968
  20
1568.893799
  0
POINT
  8
3
  10
246.897552
  20
1567.053101
  0
POINT
  8
3
  10
252.129761
  20
1565.208008
  0
POINT
  8
3
  10
257.281006
  20
1563.354736
  0
POINT
  8
3
  10
262.349670
  20
1561.489746
  0
POINT
  8
3
  10
267.334167
  20
1559.609619
  0
POINT
  8
3
  10
272.232910
  20
1557.710449
  0
POINT
  8
3
  10
277.044342
  20
1555.788696
  0
POINT
  8
3
  10
281.766815
  20
1553.840698
  0
POINT
  8
3
  10
286.398743
  20
1551.862915
  0
POINT
  8
3
  10
290.938568
  20
1549.851685
  0
POINT
  8
3
  10
295.384674
  20
1547.803467
  0
POINT
  8
3
  10
299.735474
  20
1545.714478
  0
POINT
  8
3
  10
303.989349
  20
1543.581177
  0
POINT
  8
3
  10
308.144745
  20
1541.399902
  0
POINT
  8
3
  10
311.246582
  20
1537.027344
  0
POINT
  8
3
  10
310.249146
  20
1534.729248
  0
POINT
  8
3
  10
309.211212
  20
1532.278809
  0
POINT
  8
3
  10
308.136200
  20
1529.681641
  0
POINT
  8
3
  10
307.027527
  20
1526.943970
  0
POINT
  8
3
  10
305.888763
  20
1524.071533
  0
POINT
  8
3
  10
304.723236
  20
1521.070190
  0
POINT
  8
3
  10
303.534485
  20
1517.945801
  0
POINT
  8
3
  10
302.325928
  20
1514.704346
  0
POINT
  8
3
  10
301.101013
  20
1511.351563
  0
POINT
  8
3
  10
299.863159
  20
1507.893433
  0
POINT
  8
3
  10
298.615906
  20
1504.335693
  0
POINT
  8
3
  10
297.362640
  20
1500.684326
  0
POINT
  8
3
  10
296.106781
  20
1496.945190
  0
POINT
  8
3
  10
294.851868
  20
1493.124146
  0
POINT
  8
3
  10
293.601318
  20
1489.227173
  0
POINT
  8
3
  10
292.358551
  20
1485.259888
  0
POINT
  8
3
  10
291.127045
  20
1481.228394
  0
POINT
  8
3
  10
289.910248
  20
1477.138550
  0
POINT
  8
3
  10
288.711609
  20
1472.996094
  0
POINT
  8
3
  10
287.534607
  20
1468.807007
  0
POINT
  8
3
  10
286.382629
  20
1464.577148
  0
POINT
  8
3
  10
285.259216
  20
1460.312378
  0
POINT
  8
3
  10
284.167725
  20
1456.018555
  0
POINT
  8
3
  10
283.111694
  20
1451.701538
  0
POINT
  8
3
  10
282.094482
  20
1447.367310
  0
POINT
  8
3
  10
281.119629
  20
1443.021606
  0
POINT
  8
3
  10
280.190552
  20
1438.670410
  0
POINT
  8
3
  10
278.557617
  20
1429.668701
  0
POINT
  8
3
  10
277.930634
  20
1425.122070
  0
POINT
  8
3
  10
277.432800
  20
1420.679688
  0
POINT
  8
3
  10
277.067230
  20
1416.341797
  0
POINT
  8
3
  10
276.837067
  20
1412.108398
  0
POINT
  8
3
  10
276.745483
  20
1407.979858
  0
POINT
  8
3
  10
276.795563
  20
1403.956177
  0
POINT
  8
3
  10
276.990417
  20
1400.037354
  0
POINT
  8
3
  10
277.333191
  20
1396.223755
  0
POINT
  8
3
  10
277.826996
  20
1392.515381
  0
POINT
  8
3
  10
278.474945
  20
1388.912598
  0
POINT
  8
3
  10
279.280212
  20
1385.415283
  0
POINT
  8
3
  10
280.245880
  20
1382.023560
  0
POINT
  8
3
  10
281.375061
  20
1378.737793
  0
POINT
  8
3
  10
282.670929
  20
1375.557983
  0
POINT
  8
3
  10
284.136536
  20
1372.484375
  0
POINT
  8
3
  10
285.775085
  20
1369.516846
  0
POINT
  8
3
  10
287.589661
  20
1366.655884
  0
POINT
  8
3
  10
289.583374
  20
1363.901489
  0
POINT
  8
3
  10
291.759369
  20
1361.253662
  0
POINT
  8
3
  10
294.120789
  20
1358.712646
  0
POINT
  8
3
  10
296.670715
  20
1356.278687
  0
POINT
  8
3
  10
299.412292
  20
1353.951782
  0
POINT
  8
3
  10
302.348633
  20
1351.732178
  0
POINT
  8
3
  10
305.482910
  20
1349.619873
  0
POINT
  8
3
  10
308.818176
  20
1347.615234
  0
POINT
  8
3
  10
312.357574
  20
1345.718140
  0
POINT
  8
3
  10
316.104248
  20
1343.928833
  0
POINT
  8
3
  10
319.666962
  20
1337.411743
  0
POINT
  8
3
  10
319.273499
  20
1332.219971
  0
POINT
  8
3
  10
318.881470
  20
1326.698853
  0
POINT
  8
3
  10
318.491516
  20
1320.875000
  0
POINT
  8
3
  10
318.104126
  20
1314.775024
  0
POINT
  8
3
  10
317.719971
  20
1308.425537
  0
POINT
  8
3
  10
317.339447
  20
1301.853027
  0
POINT
  8
3
  10
316.963196
  20
1295.084351
  0
POINT
  8
3
  10
316.591858
  20
1288.145874
  0
POINT
  8
3
  10
316.225830
  20
1281.064453
  0
POINT
  8
3
  10
315.865814
  20
1273.866455
  0
POINT
  8
3
  10
315.512299
  20
1266.578735
  0
POINT
  8
3
  10
315.165833
  20
1259.227783
  0
POINT
  8
3
  10
314.827026
  20
1251.840088
  0
POINT
  8
3
  10
314.496399
  20
1244.442505
  0
POINT
  8
3
  10
314.174561
  20
1237.061523
  0
POINT
  8
3
  10
313.862000
  20
1229.723755
  0
POINT
  8
3
  10
313.559326
  20
1222.455811
  0
POINT
  8
3
  10
313.267090
  20
1215.284424
  0
POINT
  8
3
  10
312.985809
  20
1208.235962
  0
POINT
  8
3
  10
312.716125
  20
1201.337280
  0
POINT
  8
3
  10
312.458527
  20
1194.614868
  0
POINT
  8
3
  10
312.213623
  20
1188.095337
  0
POINT
  8
3
  10
311.981934
  20
1181.805298
  0
POINT
  8
3
  10
311.764038
  20
1175.771484
  0
POINT
  8
3
  10
311.560486
  20
1170.020264
  0
POINT
  8
3
  10
311.371887
  20
1164.578491
  0
POINT
  8
3
  10
311.198700
  20
1159.472778
  0
POINT
  8
4
  10
279.310699
  20
1434.319580
  50
350.802490
  0
LINE
  8
7
  10
192.148163
  20
1154.616211
  11
192.148163
  21
1334.616211
  0
POLYLINE
  8
84
  66
1
  70
1
  250
2
  0
VERTEX
  8
84
  10
64.234970
  20
893.018738
  0
VERTEX
  8
84
  10
64.250870
  20
1462.437012
  0
VERTEX
  8
84
  10
124.685287
  20
1493.907471
  0
VERTEX
  8
84
  10
146.778259
  20
1545.353516
  0
VERTEX
  8
84
  10
159.780670
  20
1596.224609
  0
VERTEX
  8
84
  10
220.523010
  20
1575.121338
  0
VERTEX
  8
84
  10
273.487640
  20
1561.011475
  0
VERTEX
  8
84
  10
312.200073
  20
1539.167236
  0
VERTEX
  8
84
  10
303.206818
  20
1519.265869
  0
VERTEX
  8
84
  10
287.566956
  20
1476.357422
  0
VERTEX
  8
84
  10
279.310699
  20
1434.319580
  0
VERTEX
  8
84
  10
271.432007
  20
1388.858643
  0
VERTEX
  8
84
  10
280.782562
  20
1357.978027
  0
VERTEX
  8
84
  10
320.061340
  20
1342.247559
  0
VERTEX
  8
84
  10
316.246277
  20
1297.307861
  0
VERTEX
  8
84
  10
312.481201
  20
1198.742188
  0
VERTEX
  8
84
  10
311.041565
  20
1154.729492
  0
VERTEX
  8
84
  10
315.154175
  20
893.007751
  0
SEQEND
  0
POINT
  8
2
  10
64.234970
  20
893.018738
  0
POINT
  8
2
  10
64.250870
  20
1462.437012
  0
POINT
  8
2
  10
159.780670
  20
1596.224609
  0
POINT
  8
2
  10
312.200073
  20
1539.167236
  0
POINT
  8
2
  10
279.310699
  20
1434.319580
  0
POINT
  8
2
  10
320.061340
  20
1342.247559
  0
POINT
  8
2
  10
311.041565
  20
1154.729492
  0
POINT
  8
2
  10
315.154175
  20
893.007751
  0
POINT
  8
3
  10
124.685287
  20
1493.907471
  0
POINT
  8
3
  10
146.778259
  20
1545.353516
  0
POINT
  8
3
  10
220.523010
  20
1575.121338
  0
POINT
  8
3
  10
273.487640
  20
1561.011475
  0
POINT
  8
3
  10
303.206818
  20
1519.265869
  0
POINT
  8
3
  10
287.566956
  20
1476.357422
  0
POINT
  8
3
  10
271.432007
  20
1388.858643
  0
POINT
  8
3
  10
280.782562
  20
1357.978027
  0
POINT
  8
3
  10
316.246277
  20
1297.307861
  0
POINT
  8
3
  10
312.481201
  20
1198.742188
  0
POLYLINE
  8
8
  66
1
  70
0
  250
0
  0
VERTEX
  8
8
  10
64.243469
  20
1154.737793
  0
VERTEX
  8
8
  10
311.041565
  20
1154.729980
  0
SEQEND
  0
POINT
  8
2
  10
64.243469
  20
1154.737793
  0
POLYLINE
  8
8
  66
1
  70
0
  250
0
  0
VERTEX
  8
8
  10
64.245369
  20
1210.673096
  0
VERTEX
  8
8
  10
71.745369
  20
1208.663574
  0
VERTEX
  8
8
  10
77.235474
  20
1203.173096
  0
VERTEX
  8
8
  10
79.245369
  20
1195.673096
  0
VERTEX
  8
8
  10
77.235474
  20
1188.173096
  0
VERTEX
  8
8
  10
71.745369
  20
1182.682739
  0
VERTEX
  8
8
  10
64.245369
  20
1180.673096
  0
SEQEND
  0
POINT
  8
2
  10
64.245369
  20
1210.673096
  0
POINT
  8
3
  10
71.745369
  20
1208.663574
  0
POINT
  8
3
  10
77.235474
  20
1203.173096
  0
POINT
  8
3
  10
79.245369
  20
1195.673096
  0
POINT
  8
3
  10
77.235474
  20
1188.173096
  0
POINT
  8
3
  10
71.745369
  20
1182.682739
  0
POLYLINE
  8
8
  66
1
  70
0
  250
0
  0
VERTEX
  8
8
  10
64.377167
  20
1342.256104
  0
VERTEX
  8
8
  10
320.060791
  20
1342.246948
  0
SEQEND
  0
POINT
  8
2
  10
64.377167
  20
1342.256104
  0
POLYLINE
  8
8
  66
1
  70
0
  250
0
  0
VERTEX
  8
8
  10
64.236168
  20
918.018738
  0
VERTEX
  8
8
  10
315.155396
  20
918.007446
  0
SEQEND
  0
POINT
  8
2
  10
64.236168
  20
918.018738
  0
POLYLINE
  8
8
  66
1
  70
0
  250
0
  0
VERTEX
  8
8
  10
64.236168
  20
912.018677
  0
VERTEX
  8
8
  10
315.155396
  20
912.007324
  0
SEQEND
  0
POINT
  8
2
  10
64.236168
  20
912.018677
  0
POLYLINE
  8
8
  66
1
  70
0
  250
0
  0
VERTEX
  8
8
  10
64.245369
  20
1203.173096
  0
VERTEX
  8
8
  10
67.995369
  20
1202.168213
  0
VERTEX
  8
8
  10
70.740669
  20
1199.423096
  0
VERTEX
  8
8
  10
71.745369
  20
1195.673096
  0
VERTEX
  8
8
  10
70.740669
  20
1191.923096
  0
VERTEX
  8
8
  10
67.995369
  20
1189.178223
  0
VERTEX
  8
8
  10
64.245369
  20
1188.173096
  0
SEQEND
  0
POINT
  8
2
  10
64.245369
  20
1203.173096
  0
POINT
  8
3
  10
67.995369
  20
1202.168213
  0
POINT
  8
3
  10
70.740669
  20
1199.423096
  0
POINT
  8
3
  10
71.745369
  20
1195.673096
  0
POINT
  8
3
  10
70.740669
  20
1191.923096
  0
POINT
  8
3
  10
67.995369
  20
1189.178223
  0
ENDBLK
  0
BLOCK
  8
0
  2
Pattern2D_768516_M
  70
64
  10
0
  20
0
  0
TEXT
  8
1
  10
141.639771
  20
1684.000000
  50
0.000000
  51
0.000000
  71
0.000000
  1
PIECE NAME: Pattern2D_768516
  7
STANDARD
  0
TEXT
  8
1
  10
141.639771
  20
1679.000000
  50
0.000000
  51
0.000000
  71
0.000000
  1
SIZE: M
  7
STANDARD
  0
TEXT
  8
1
  10
141.639771
  20
1669.000000
  50
0.000000
  51
0.000000
  71
0.000000
  1
QUANTITY: 1
  7
STANDARD
  0
POLYLINE
  8
1
  66
1
  70
1
  250
2
  0
VERTEX
  8
1
  10
219.044586
  20
1691.999878
  0
VERTEX
  8
1
  10
74.493195
  20
1691.999878
  0
VERTEX
  8
1
  10
64.234955
  20
1676.000122
  0
VERTEX
  8
1
  10
219.044586
  20
1676.000366
  0
SEQEND
  0
POINT
  8
2
  10
219.044586
  20
1691.999878
  0
POINT
  8
2
  10
74.493195
  20
1691.999878
  0
POINT
  8
2
  10
64.234955
  20
1676.000122
  0
POINT
  8
2
  10
219.044586
  20
1676.000366
  0
POINT
  8
4
  10
219.044586
  20
1676.000366
  50
135.000046
  0
LINE
  8
7
  10
141.639771
  20
1594.000000
  11
141.639771
  21
1774.000000
  0
POLYLINE
  8
84
  66
1
  70
1
  250
2
  0
VERTEX
  8
84
  10
219.044586
  20
1691.999878
  0
VERTEX
  8
84
  10
74.493195
  20
1691.999878
  0
VERTEX
  8
84
  10
64.234955
  20
1676.000122
  0
VERTEX
  8
84
  10
219.044586
  20
1676.000366
  0
SEQEND
  0
POINT
  8
2
  10
219.044586
  20
1691.999878
  0
POINT
  8
2
  10
74.493195
  20
1691.999878
  0
POINT
  8
2
  10
64.234955
  20
1676.000122
  0
POINT
  8
2
  10
219.044586
  20
1676.000366
  0
POLYLINE
  8
8
  66
1
  70
0
  250
0
  0
VERTEX
  8
8
  10
219.044586
  20
1676.000366
  0
VERTEX
  8
8
  10
219.044586
  20
1692.000366
  0
SEQEND
  0
POINT
  8
2
  10
219.044586
  20
1676.000366
  0
ENDBLK
  0
BLOCK
  8
0
  2
7_M
  70
64
  10
0
  20
0
  0
TEXT
  8
1
  10
999.701538
  20
1257.523682
  50
0.000000
  51
0.000000
  71
0.000000
  1
PIECE NAME: 7
  7
STANDARD
  0
TEXT
  8
1
  10
999.701538
  20
1252.523682
  50
0.000000
  51
0.000000
  71
0.000000
  1
SIZE: M
  7
STANDARD
  0
TEXT
  8
1
  10
999.701538
  20
1247.523682
  50
0.000000
  51
0.000000
  71
0.000000
  1
ANNOTATION: 
  7
STANDARD
  0
TEXT
  8
1
  10
999.701538
  20
1242.523682
  50
0.000000
  51
0.000000
  71
0.000000
  1
QUANTITY: 1
  7
STANDARD
  0
POLYLINE
  8
1
  66
1
  70
1
  250
2
  0
VERTEX
  8
1
  10
876.991638
  20
893.016296
  0
VERTEX
  8
1
  10
881.120056
  20
1154.720703
  0
VERTEX
  8
1
  10
880.800537
  20
1165.163086
  0
VERTEX
  8
1
  10
880.461792
  20
1175.477539
  0
VERTEX
  8
1
  10
880.106018
  20
1185.646851
  0
VERTEX
  8
1
  10
879.735596
  20
1195.653687
  0
VERTEX
  8
1
  10
879.352539
  20
1205.480591
  0
VERTEX
  8
1
  10
878.959106
  20
1215.110352
  0
VERTEX
  8
1
  10
878.557617
  20
1224.525391
  0
VERTEX
  8
1
  10
878.150146
  20
1233.708496
  0
VERTEX
  8
1
  10
877.738953
  20
1242.642334
  0
VERTEX
  8
1
  10
877.326294
  20
1251.309570
  0
VERTEX
  8
1
  10
876.914368
  20
1259.692749
  0
VERTEX
  8
1
  10
876.505310
  20
1267.774658
  0
VERTEX
  8
1
  10
876.101379
  20
1275.537842
  0
VERTEX
  8
1
  10
875.704834
  20
1282.964844
  0
VERTEX
  8
1
  10
875.317871
  20
1290.038574
  0
VERTEX
  8
1
  10
874.942627
  20
1296.741455
  0
VERTEX
  8
1
  10
874.581360
  20
1303.056274
  0
VERTEX
  8
1
  10
874.236328
  20
1308.965576
  0
VERTEX
  8
1
  10
873.909668
  20
1314.452148
  0
VERTEX
  8
1
  10
873.603638
  20
1319.498535
  0
VERTEX
  8
1
  10
873.320374
  20
1324.087280
  0
VERTEX
  8
1
  10
873.062195
  20
1328.201294
  0
VERTEX
  8
1
  10
872.831238
  20
1331.822998
  0
VERTEX
  8
1
  10
872.629761
  20
1334.935059
  0
VERTEX
  8
1
  10
872.459961
  20
1337.520264
  0
VERTEX
  8
1
  10
872.324097
  20
1339.561279
  0
VERTEX
  8
1
  10
872.224243
  20
1341.040527
  0
VERTEX
  8
1
  10
872.162720
  20
1341.940796
  0
VERTEX
  8
1
  10
872.141724
  20
1342.244751
  0
VERTEX
  8
1
  10
876.230164
  20
1344.919434
  0
VERTEX
  8
1
  10
879.965637
  20
1347.860962
  0
VERTEX
  8
1
  10
883.363098
  20
1351.048340
  0
VERTEX
  8
1
  10
886.437317
  20
1354.460815
  0
VERTEX
  8
1
  10
889.203125
  20
1358.077271
  0
VERTEX
  8
1
  10
891.675415
  20
1361.877075
  0
VERTEX
  8
1
  10
893.869080
  20
1365.839111
  0
VERTEX
  8
1
  10
895.798889
  20
1369.942383
  0
VERTEX
  8
1
  10
897.479736
  20
1374.166260
  0
VERTEX
  8
1
  10
898.926514
  20
1378.489746
  0
VERTEX
  8
1
  10
900.153992
  20
1382.891846
  0
VERTEX
  8
1
  10
901.177063
  20
1387.351563
  0
VERTEX
  8
1
  10
902.010620
  20
1391.848267
  0
VERTEX
  8
1
  10
902.669495
  20
1396.360840
  0
VERTEX
  8
1
  10
903.168457
  20
1400.868408
  0
VERTEX
  8
1
  10
903.522461
  20
1405.350098
  0
VERTEX
  8
1
  10
903.746338
  20
1409.784912
  0
VERTEX
  8
1
  10
903.854919
  20
1414.152100
  0
VERTEX
  8
1
  10
903.863098
  20
1418.430664
  0
VERTEX
  8
1
  10
903.785645
  20
1422.599731
  0
VERTEX
  8
1
  10
903.637512
  20
1426.638306
  0
VERTEX
  8
1
  10
903.433472
  20
1430.525513
  0
VERTEX
  8
1
  10
903.188416
  20
1434.240479
  0
VERTEX
  8
1
  10
902.917175
  20
1437.762207
  0
VERTEX
  8
1
  10
902.634644
  20
1441.069946
  0
VERTEX
  8
1
  10
902.355591
  20
1444.142700
  0
VERTEX
  8
1
  10
902.094971
  20
1446.959473
  0
VERTEX
  8
1
  10
901.867615
  20
1449.499512
  0
VERTEX
  8
1
  10
901.688354
  20
1451.741943
  0
VERTEX
  8
1
  10
901.501221
  20
1453.915649
  0
VERTEX
  8
1
  10
901.233521
  20
1456.370850
  0
VERTEX
  8
1
  10
900.887390
  20
1459.091309
  0
VERTEX
  8
1
  10
900.464966
  20
1462.061279
  0
VERTEX
  8
1
  10
899.968445
  20
1465.264404
  0
VERTEX
  8
1
  10
899.399963
  20
1468.685059
  0
VERTEX
  8
1
  10
898.761841
  20
1472.307007
  0
VERTEX
  8
1
  10
898.056091
  20
1476.114258
  0
VERTEX
  8
1
  10
897.284912
  20
1480.091064
  0
VERTEX
  8
1
  10
896.450562
  20
1484.221069
  0
VERTEX
  8
1
  10
895.555237
  20
1488.488403
  0
VERTEX
  8
1
  10
894.601013
  20
1492.877197
  0
VERTEX
  8
1
  10
893.590088
  20
1497.371216
  0
VERTEX
  8
1
  10
892.524658
  20
1501.954590
  0
VERTEX
  8
1
  10
891.406921
  20
1506.611450
  0
VERTEX
  8
1
  10
890.239014
  20
1511.325562
  0
VERTEX
  8
1
  10
889.023193
  20
1516.081055
  0
VERTEX
  8
1
  10
887.761536
  20
1520.861816
  0
VERTEX
  8
1
  10
886.456238
  20
1525.652100
  0
VERTEX
  8
1
  10
885.109497
  20
1530.435547
  0
VERTEX
  8
1
  10
883.723511
  20
1535.196533
  0
VERTEX
  8
1
  10
882.300415
  20
1539.918701
  0
VERTEX
  8
1
  10
880.842407
  20
1544.586304
  0
VERTEX
  8
1
  10
879.351685
  20
1549.183228
  0
VERTEX
  8
1
  10
877.830383
  20
1553.693481
  0
VERTEX
  8
1
  10
876.280762
  20
1558.101074
  0
VERTEX
  8
1
  10
874.704834
  20
1562.390015
  0
VERTEX
  8
1
  10
873.104919
  20
1566.544312
  0
VERTEX
  8
1
  10
871.483154
  20
1570.547974
  0
VERTEX
  8
1
  10
875.786926
  20
1572.683594
  0
VERTEX
  8
1
  10
880.166138
  20
1574.760132
  0
VERTEX
  8
1
  10
884.620789
  20
1576.780884
  0
VERTEX
  8
1
  10
889.150696
  20
1578.749878
  0
VERTEX
  8
1
  10
893.755859
  20
1580.670654
  0
VERTEX
  8
1
  10
898.436218
  20
1582.547119
  0
VERTEX
  8
1
  10
903.191650
  20
1584.382813
  0
VERTEX
  8
1
  10
908.022095
  20
1586.181641
  0
VERTEX
  8
1
  10
912.927551
  20
1587.947266
  0
VERTEX
  8
1
  10
917.907837
  20
1589.683472
  0
VERTEX
  8
1
  10
922.963013
  20
1591.393799
  0
VERTEX
  8
1
  10
928.092896
  20
1593.082397
  0
VERTEX
  8
1
  10
933.297485
  20
1594.752563
  0
VERTEX
  8
1
  10
938.576721
  20
1596.408203
  0
VERTEX
  8
1
  10
943.930481
  20
1598.053101
  0
VERTEX
  8
1
  10
949.358704
  20
1599.690918
  0
VERTEX
  8
1
  10
954.861389
  20
1601.325439
  0
VERTEX
  8
1
  10
960.438354
  20
1602.960449
  0
VERTEX
  8
1
  10
966.089661
  20
1604.599487
  0
VERTEX
  8
1
  10
971.815125
  20
1606.246460
  0
VERTEX
  8
1
  10
977.614746
  20
1607.905029
  0
VERTEX
  8
1
  10
983.488403
  20
1609.578857
  0
VERTEX
  8
1
  10
989.436096
  20
1611.271973
  0
VERTEX
  8
1
  10
995.457703
  20
1612.987793
  0
VERTEX
  8
1
  10
1001.553223
  20
1614.730103
  0
VERTEX
  8
1
  10
1007.722473
  20
1616.502686
  0
VERTEX
  8
1
  10
1013.965454
  20
1618.309326
  0
VERTEX
  8
1
  10
1020.282104
  20
1620.153809
  0
VERTEX
  8
1
  10
1026.672363
  20
1622.039673
  0
VERTEX
  8
1
  10
1028.920654
  20
1618.602539
  0
VERTEX
  8
1
  10
1031.117920
  20
1615.361206
  0
VERTEX
  8
1
  10
1033.279907
  20
1612.309692
  0
VERTEX
  8
1
  10
1035.421997
  20
1609.442261
  0
VERTEX
  8
1
  10
1037.559570
  20
1606.753052
  0
VERTEX
  8
1
  10
1039.708374
  20
1604.236694
  0
VERTEX
  8
1
  10
1041.883911
  20
1601.887085
  0
VERTEX
  8
1
  10
1044.101685
  20
1599.698730
  0
VERTEX
  8
1
  10
1046.377075
  20
1597.665771
  0
VERTEX
  8
1
  10
1048.725830
  20
1595.782349
  0
VERTEX
  8
1
  10
1051.163330
  20
1594.042847
  0
VERTEX
  8
1
  10
1053.705078
  20
1592.441650
  0
VERTEX
  8
1
  10
1056.366821
  20
1590.972656
  0
VERTEX
  8
1
  10
1059.163818
  20
1589.630493
  0
VERTEX
  8
1
  10
1062.111694
  20
1588.409302
  0
VERTEX
  8
1
  10
1065.225952
  20
1587.303223
  0
VERTEX
  8
1
  10
1068.522217
  20
1586.306519
  0
VERTEX
  8
1
  10
1072.015991
  20
1585.413574
  0
VERTEX
  8
1
  10
1075.722656
  20
1584.618652
  0
VERTEX
  8
1
  10
1079.657959
  20
1583.915771
  0
VERTEX
  8
1
  10
1083.837158
  20
1583.299438
  0
VERTEX
  8
1
  10
1088.276001
  20
1582.763916
  0
VERTEX
  8
1
  10
1092.989990
  20
1582.303223
  0
VERTEX
  8
1
  10
1097.994507
  20
1581.911865
  0
VERTEX
  8
1
  10
1103.305176
  20
1581.583862
  0
VERTEX
  8
1
  10
1108.937500
  20
1581.313721
  0
VERTEX
  8
1
  10
1114.907104
  20
1581.095459
  0
VERTEX
  8
1
  10
1121.229370
  20
1580.923584
  0
VERTEX
  8
1
  10
1127.919922
  20
1580.792236
  0
VERTEX
  8
1
  10
1127.896118
  20
893.007690
  0
SEQEND
  0
POINT
  8
2
  10
876.991638
  20
893.016296
  0
POINT
  8
2
  10
881.120056
  20
1154.720703
  0
POINT
  8
2
  10
872.141724
  20
1342.244751
  0
POINT
  8
2
  10
901.688354
  20
1451.741943
  0
POINT
  8
2
  10
871.483154
  20
1570.547974
  0
POINT
  8
2
  10
1026.672363
  20
1622.039673
  0
POINT
  8
2
  10
1127.919922
  20
1580.792236
  0
POINT
  8
2
  10
1127.896118
  20
893.007690
  0
POINT
  8
3
  10
880.800537
  20
1165.163086
  0
POINT
  8
3
  10
880.461792
  20
1175.477539
  0
POINT
  8
3
  10
880.106018
  20
1185.646851
  0
POINT
  8
3
  10
879.735596
  20
1195.653687
  0
POINT
  8
3
  10
879.352539
  20
1205.480591
  0
POINT
  8
3
  10
878.959106
  20
1215.110352
  0
POINT
  8
3
  10
878.557617
  20
1224.525391
  0
POINT
  8
3
  10
878.150146
  20
1233.708496
  0
POINT
  8
3
  10
877.738953
  20
1242.642334
  0
POINT
  8
3
  10
877.326294
  20
1251.309570
  0
POINT
  8
3
  10
876.914368
  20
1259.692749
  0
POINT
  8
3
  10
876.505310
  20
1267.774658
  0
POINT
  8
3
  10
876.101379
  20
1275.537842
  0
POINT
  8
3
  10
875.704834
  20
1282.964844
  0
POINT
  8
3
  10
875.317871
  20
1290.038574
  0
POINT
  8
3
  10
874.942627
  20
1296.741455
  0
POINT
  8
3
  10
874.581360
  20
1303.056274
  0
POINT
  8
3
  10
874.236328
  20
1308.965576
  0
POINT
  8
3
  10
873.909668
  20
1314.452148
  0
POINT
  8
3
  10
873.603638
  20
1319.498535
  0
POINT
  8
3
  10
873.320374
  20
1324.087280
  0
POINT
  8
3
  10
873.062195
  20
1328.201294
  0
POINT
  8
3
  10
872.831238
  20
1331.822998
  0
POINT
  8
3
  10
872.629761
  20
1334.935059
  0
POINT
  8
3
  10
872.459961
  20
1337.520264
  0
POINT
  8
3
  10
872.324097
  20
1339.561279
  0
POINT
  8
3
  10
872.224243
  20
1341.040527
  0
POINT
  8
3
  10
872.162720
  20
1341.940796
  0
POINT
  8
3
  10
876.230164
  20
1344.919434
  0
POINT
  8
3
  10
879.965637
  20
1347.860962
  0
POINT
  8
3
  10
883.363098
  20
1351.048340
  0
POINT
  8
3
  10
886.437317
  20
1354.460815
  0
POINT
  8
3
  10
889.203125
  20
1358.077271
  0
POINT
  8
3
  10
891.675415
  20
1361.877075
  0
POINT
  8
3
  10
893.869080
  20
1365.839111
  0
POINT
  8
3
  10
895.798889
  20
1369.942383
  0
POINT
  8
3
  10
897.479736
  20
1374.166260
  0
POINT
  8
3
  10
898.926514
  20
1378.489746
  0
POINT
  8
3
  10
900.153992
  20
1382.891846
  0
POINT
  8
3
  10
901.177063
  20
1387.351563
  0
POINT
  8
3
  10
902.010620
  20
1391.848267
  0
POINT
  8
3
  10
902.669495
  20
1396.360840
  0
POINT
  8
3
  10
903.168457
  20
1400.868408
  0
POINT
  8
3
  10
903.522461
  20
1405.350098
  0
POINT
  8
3
  10
903.746338
  20
1409.784912
  0
POINT
  8
3
  10
903.854919
  20
1414.152100
  0
POINT
  8
3
  10
903.863098
  20
1418.430664
  0
POINT
  8
3
  10
903.785645
  20
1422.599731
  0
POINT
  8
3
  10
903.637512
  20
1426.638306
  0
POINT
  8
3
  10
903.433472
  20
1430.525513
  0
POINT
  8
3
  10
903.188416
  20
1434.240479
  0
POINT
  8
3
  10
902.917175
  20
1437.762207
  0
POINT
  8
3
  10
902.634644
  20
1441.069946
  0
POINT
  8
3
  10
902.355591
  20
1444.142700
  0
POINT
  8
3
  10
902.094971
  20
1446.959473
  0
POINT
  8
3
  10
901.867615
  20
1449.499512
  0
POINT
  8
3
  10
901.501221
  20
1453.915649
  0
POINT
  8
3
  10
901.233521
  20
1456.370850
  0
POINT
  8
3
  10
900.887390
  20
1459.091309
  0
POINT
  8
3
  10
900.464966
  20
1462.061279
  0
POINT
  8
3
  10
899.968445
  20
1465.264404
  0
POINT
  8
3
  10
899.399963
  20
1468.685059
  0
POINT
  8
3
  10
898.761841
  20
1472.307007
  0
POINT
  8
3
  10
898.056091
  20
1476.114258
  0
POINT
  8
3
  10
897.284912
  20
1480.091064
  0
POINT
  8
3
  10
896.450562
  20
1484.221069
  0
POINT
  8
3
  10
895.555237
  20
1488.488403
  0
POINT
  8
3
  10
894.601013
  20
1492.877197
  0
POINT
  8
3
  10
893.590088
  20
1497.371216
  0
POINT
  8
3
  10
892.524658
  20
1501.954590
  0
POINT
  8
3
  10
891.406921
  20
1506.611450
  0
POINT
  8
3
  10
890.239014
  20
1511.325562
  0
POINT
  8
3
  10
889.023193
  20
1516.081055
  0
POINT
  8
3
  10
887.761536
  20
1520.861816
  0
POINT
  8
3
  10
886.456238
  20
1525.652100
  0
POINT
  8
3
  10
885.109497
  20
1530.435547
  0
POINT
  8
3
  10
883.723511
  20
1535.196533
  0
POINT
  8
3
  10
882.300415
  20
1539.918701
  0
POINT
  8
3
  10
880.842407
  20
1544.586304
  0
POINT
  8
3
  10
879.351685
  20
1549.183228
  0
POINT
  8
3
  10
877.830383
  20
1553.693481
  0
POINT
  8
3
  10
876.280762
  20
1558.101074
  0
POINT
  8
3
  10
874.704834
  20
1562.390015
  0
POINT
  8
3
  10
873.104919
  20
1566.544312
  0
POINT
  8
3
  10
875.786926
  20
1572.683594
  0
POINT
  8
3
  10
880.166138
  20
1574.760132
  0
POINT
  8
3
  10
884.620789
  20
1576.780884
  0
POINT
  8
3
  10
889.150696
  20
1578.749878
  0
POINT
  8
3
  10
893.755859
  20
1580.670654
  0
POINT
  8
3
  10
898.436218
  20
1582.547119
  0
POINT
  8
3
  10
903.191650
  20
1584.382813
  0
POINT
  8
3
  10
908.022095
  20
1586.181641
  0
POINT
  8
3
  10
912.927551
  20
1587.947266
  0
POINT
  8
3
  10
917.907837
  20
1589.683472
  0
POINT
  8
3
  10
922.963013
  20
1591.393799
  0
POINT
  8
3
  10
928.092896
  20
1593.082397
  0
POINT
  8
3
  10
933.297485
  20
1594.752563
  0
POINT
  8
3
  10
938.576721
  20
1596.408203
  0
POINT
  8
3
  10
943.930481
  20
1598.053101
  0
POINT
  8
3
  10
949.358704
  20
1599.690918
  0
POINT
  8
3
  10
954.861389
  20
1601.325439
  0
POINT
  8
3
  10
960.438354
  20
1602.960449
  0
POINT
  8
3
  10
966.089661
  20
1604.599487
  0
POINT
  8
3
  10
971.815125
  20
1606.246460
  0
POINT
  8
3
  10
977.614746
  20
1607.905029
  0
POINT
  8
3
  10
983.488403
  20
1609.578857
  0
POINT
  8
3
  10
989.436096
  20
1611.271973
  0
POINT
  8
3
  10
995.457703
  20
1612.987793
  0
POINT
  8
3
  10
1001.553223
  20
1614.730103
  0
POINT
  8
3
  10
1007.722473
  20
1616.502686
  0
POINT
  8
3
  10
1013.965454
  20
1618.309326
  0
POINT
  8
3
  10
1020.282104
  20
1620.153809
  0
POINT
  8
3
  10
1028.920654
  20
1618.602539
  0
POINT
  8
3
  10
1031.117920
  20
1615.361206
  0
POINT
  8
3
  10
1033.279907
  20
1612.309692
  0
POINT
  8
3
  10
1035.421997
  20
1609.442261
  0
POINT
  8
3
  10
1037.559570
  20
1606.753052
  0
POINT
  8
3
  10
1039.708374
  20
1604.236694
  0
POINT
  8
3
  10
1041.883911
  20
1601.887085
  0
POINT
  8
3
  10
1044.101685
  20
1599.698730
  0
POINT
  8
3
  10
1046.377075
  20
1597.665771
  0
POINT
  8
3
  10
1048.725830
  20
1595.782349
  0
POINT
  8
3
  10
1051.163330
  20
1594.042847
  0
POINT
  8
3
  10
1053.705078
  20
1592.441650
  0
POINT
  8
3
  10
1056.366821
  20
1590.972656
  0
POINT
  8
3
  10
1059.163818
  20
1589.630493
  0
POINT
  8
3
  10
1062.111694
  20
1588.409302
  0
POINT
  8
3
  10
1065.225952
  20
1587.303223
  0
POINT
  8
3
  10
1068.522217
  20
1586.306519
  0
POINT
  8
3
  10
1072.015991
  20
1585.413574
  0
POINT
  8
3
  10
1075.722656
  20
1584.618652
  0
POINT
  8
3
  10
1079.657959
  20
1583.915771
  0
POINT
  8
3
  10
1083.837158
  20
1583.299438
  0
POINT
  8
3
  10
1088.276001
  20
1582.763916
  0
POINT
  8
3
  10
1092.989990
  20
1582.303223
  0
POINT
  8
3
  10
1097.994507
  20
1581.911865
  0
POINT
  8
3
  10
1103.305176
  20
1581.583862
  0
POINT
  8
3
  10
1108.937500
  20
1581.313721
  0
POINT
  8
3
  10
1114.907104
  20
1581.095459
  0
POINT
  8
3
  10
1121.229370
  20
1580.923584
  0
POINT
  8
4
  10
901.688354
  20
1451.741943
  50
184.745285
  0
POINT
  8
4
  10
900.519775
  20
1461.675781
  50
187.662811
  0
LINE
  8
7
  10
999.701538
  20
1167.523682
  11
999.701538
  21
1347.523682
  0
POLYLINE
  8
84
  66
1
  70
1
  250
2
  0
VERTEX
  8
84
  10
876.991638
  20
893.016296
  0
VERTEX
  8
84
  10
881.120056
  20
1154.720703
  0
VERTEX
  8
84
  10
878.131042
  20
1256.225342
  0
VERTEX
  8
84
  10
872.141724
  20
1342.244751
  0
VERTEX
  8
84
  10
872.141724
  20
1342.244751
  0
VERTEX
  8
84
  10
913.416931
  20
1366.742798
  0
VERTEX
  8
84
  10
903.141113
  20
1431.572510
  0
VERTEX
  8
84
  10
901.688354
  20
1451.741943
  0
VERTEX
  8
84
  10
900.276489
  20
1471.343750
  0
VERTEX
  8
84
  10
887.258911
  20
1532.625977
  0
VERTEX
  8
84
  10
871.483154
  20
1570.547974
  0
VERTEX
  8
84
  10
912.721619
  20
1591.492188
  0
VERTEX
  8
84
  10
964.544678
  20
1603.596802
  0
VERTEX
  8
84
  10
1026.672363
  20
1622.039673
  0
VERTEX
  8
84
  10
1048.702148
  20
1587.851074
  0
VERTEX
  8
84
  10
1061.414917
  20
1581.885254
  0
VERTEX
  8
84
  10
1127.919922
  20
1580.792236
  0
VERTEX
  8
84
  10
1127.896118
  20
893.007690
  0
SEQEND
  0
POINT
  8
2
  10
876.991638
  20
893.016296
  0
POINT
  8
2
  10
881.120056
  20
1154.720703
  0
POINT
  8
2
  10
872.141724
  20
1342.244751
  0
POINT
  8
2
  10
901.688354
  20
1451.741943
  0
POINT
  8
2
  10
871.483154
  20
1570.547974
  0
POINT
  8
2
  10
1026.672363
  20
1622.039673
  0
POINT
  8
2
  10
1127.919922
  20
1580.792236
  0
POINT
  8
2
  10
1127.896118
  20
893.007690
  0
POINT
  8
3
  10
878.131042
  20
1256.225342
  0
POINT
  8
3
  10
913.416931
  20
1366.742798
  0
POINT
  8
3
  10
903.141113
  20
1431.572510
  0
POINT
  8
3
  10
900.276489
  20
1471.343750
  0
POINT
  8
3
  10
887.258911
  20
1532.625977
  0
POINT
  8
3
  10
912.721619
  20
1591.492188
  0
POINT
  8
3
  10
964.544678
  20
1603.596802
  0
POINT
  8
3
  10
1048.702148
  20
1587.851074
  0
POINT
  8
3
  10
1061.414917
  20
1581.885254
  0
POLYLINE
  8
8
  66
1
  70
0
  250
0
  0
VERTEX
  8
8
  10
1127.907104
  20
1184.668457
  0
VERTEX
  8
8
  10
1120.407104
  20
1186.678101
  0
VERTEX
  8
8
  10
1114.916992
  20
1192.168457
  0
VERTEX
  8
8
  10
1112.907104
  20
1199.668457
  0
VERTEX
  8
8
  10
1114.916992
  20
1207.168457
  0
VERTEX
  8
8
  10
1120.407104
  20
1212.658936
  0
VERTEX
  8
8
  10
1127.907104
  20
1214.668457
  0
SEQEND
  0
POINT
  8
2
  10
1127.907104
  20
1184.668457
  0
POINT
  8
3
  10
1120.407104
  20
1186.678101
  0
POINT
  8
3
  10
1114.916992
  20
1192.168457
  0
POINT
  8
3
  10
1112.907104
  20
1199.668457
  0
POINT
  8
3
  10
1114.916992
  20
1207.168457
  0
POINT
  8
3
  10
1120.407104
  20
1212.658936
  0
POLYLINE
  8
8
  66
1
  70
0
  250
0
  0
VERTEX
  8
8
  10
1127.907104
  20
1192.168457
  0
VERTEX
  8
8
  10
1124.157104
  20
1193.173462
  0
VERTEX
  8
8
  10
1121.411743
  20
1195.918457
  0
VERTEX
  8
8
  10
1120.407104
  20
1199.668457
  0
VERTEX
  8
8
  10
1121.411743
  20
1203.418457
  0
VERTEX
  8
8
  10
1124.157104
  20
1206.163574
  0
VERTEX
  8
8
  10
1127.907104
  20
1207.168457
  0
SEQEND
  0
POINT
  8
2
  10
1127.907104
  20
1192.168457
  0
POINT
  8
3
  10
1124.157104
  20
1193.173462
  0
POINT
  8
3
  10
1121.411743
  20
1195.918457
  0
POINT
  8
3
  10
1120.407104
  20
1199.668457
  0
POINT
  8
3
  10
1121.411743
  20
1203.418457
  0
POINT
  8
3
  10
1124.157104
  20
1206.163574
  0
POLYLINE
  8
8
  66
1
  70
0
  250
0
  0
VERTEX
  8
8
  10
881.120605
  20
1154.720703
  0
VERTEX
  8
8
  10
1127.931519
  20
1154.712158
  0
SEQEND
  0
POINT
  8
2
  10
881.120605
  20
1154.720703
  0
POLYLINE
  8
8
  66
1
  70
0
  250
0
  0
VERTEX
  8
8
  10
872.141724
  20
1342.245361
  0
VERTEX
  8
8
  10
1127.817993
  20
1342.235718
  0
SEQEND
  0
POINT
  8
2
  10
872.141724
  20
1342.245361
  0
POLYLINE
  8
8
  66
1
  70
0
  250
0
  0
VERTEX
  8
8
  10
1127.897339
  20
918.007385
  0
VERTEX
  8
8
  10
876.992859
  20
918.016296
  0
SEQEND
  0
POINT
  8
2
  10
1127.897339
  20
918.007385
  0
POLYLINE
  8
8
  66
1
  70
0
  250
0
  0
VERTEX
  8
8
  10
1127.896729
  20
912.007385
  0
VERTEX
  8
8
  10
876.992249
  20
912.016174
  0
SEQEND
  0
POINT
  8
2
  10
1127.896729
  20
912.007385
  0
POLYLINE
  8
8
  66
1
  70
0
  250
0
  0
VERTEX
  8
8
  10
1033.905640
  20
1610.697266
  0
VERTEX
  8
8
  10
951.071167
  20
1586.521484
  0
VERTEX
  8
8
  10
934.521545
  20
1581.627686
  0
VERTEX
  8
8
  10
918.149414
  20
1576.171875
  0
VERTEX
  8
8
  10
902.016052
  20
1570.045410
  0
VERTEX
  8
8
  10
886.149963
  20
1563.259277
  0
VERTEX
  8
8
  10
875.057434
  20
1558.043457
  0
SEQEND
  0
POINT
  8
2
  10
1033.905640
  20
1610.697266
  0
POINT
  8
3
  10
951.071167
  20
1586.521484
  0
POINT
  8
3
  10
934.521545
  20
1581.627686
  0
POINT
  8
3
  10
918.149414
  20
1576.171875
  0
POINT
  8
3
  10
902.016052
  20
1570.045410
  0
POINT
  8
3
  10
886.149963
  20
1563.259277
  0
ENDBLK
  0
BLOCK
  8
0
  2
Pattern2D_768527_M
  70
64
  10
0
  20
0
  0
TEXT
  8
1
  10
1148.203857
  20
1683.999634
  50
0.000000
  51
0.000000
  71
0.000000
  1
PIECE NAME: Pattern2D_768527
  7
STANDARD
  0
TEXT
  8
1
  10
1148.203857
  20
1678.999634
  50
0.000000
  51
0.000000
  71
0.000000
  1
SIZE: M
  7
STANDARD
  0
TEXT
  8
1
  10
1148.203857
  20
1668.999634
  50
0.000000
  51
0.000000
  71
0.000000
  1
QUANTITY: 1
  7
STANDARD
  0
POLYLINE
  8
1
  66
1
  70
1
  250
2
  0
VERTEX
  8
1
  10
1055.054443
  20
1675.999390
  0
VERTEX
  8
1
  10
1148.203857
  20
1675.999390
  0
VERTEX
  8
1
  10
1241.353271
  20
1675.999878
  0
VERTEX
  8
1
  10
1241.353271
  20
1691.999390
  0
VERTEX
  8
1
  10
1148.203857
  20
1691.999390
  0
VERTEX
  8
1
  10
1055.054443
  20
1691.999878
  0
SEQEND
  0
POINT
  8
2
  10
1055.054443
  20
1675.999390
  0
POINT
  8
2
  10
1148.203857
  20
1675.999390
  0
POINT
  8
2
  10
1241.353271
  20
1675.999878
  0
POINT
  8
2
  10
1241.353271
  20
1691.999390
  0
POINT
  8
2
  10
1148.203857
  20
1691.999390
  0
POINT
  8
2
  10
1055.054443
  20
1691.999878
  0
POINT
  8
4
  10
1055.054443
  20
1675.999390
  50
45.000004
  0
POINT
  8
4
  10
1241.353271
  20
1675.999878
  50
135.000168
  0
LINE
  8
7
  10
1148.203857
  20
1593.999634
  11
1148.203857
  21
1773.999634
  0
POLYLINE
  8
84
  66
1
  70
1
  250
2
  0
VERTEX
  8
84
  10
1055.054443
  20
1675.999390
  0
VERTEX
  8
84
  10
1148.203857
  20
1675.999390
  0
VERTEX
  8
84
  10
1241.353271
  20
1675.999878
  0
VERTEX
  8
84
  10
1241.353271
  20
1691.999390
  0
VERTEX
  8
84
  10
1148.203857
  20
1691.999390
  0
VERTEX
  8
84
  10
1055.054443
  20
1691.999878
  0
SEQEND
  0
POINT
  8
2
  10
1055.054443
  20
1675.999390
  0
POINT
  8
2
  10
1148.203857
  20
1675.999390
  0
POINT
  8
2
  10
1241.353271
  20
1675.999878
  0
POINT
  8
2
  10
1241.353271
  20
1691.999390
  0
POINT
  8
2
  10
1148.203857
  20
1691.999390
  0
POINT
  8
2
  10
1055.054443
  20
1691.999878
  0
POLYLINE
  8
8
  66
1
  70
0
  250
0
  0
VERTEX
  8
8
  10
1148.203857
  20
1678.312012
  0
VERTEX
  8
8
  10
1145.703857
  20
1678.981812
  0
VERTEX
  8
8
  10
1143.874146
  20
1680.812012
  0
VERTEX
  8
8
  10
1143.203857
  20
1683.312012
  0
VERTEX
  8
8
  10
1143.874146
  20
1685.812012
  0
VERTEX
  8
8
  10
1145.703857
  20
1687.642090
  0
VERTEX
  8
8
  10
1148.203857
  20
1688.312012
  0
SEQEND
  0
POINT
  8
2
  10
1148.203857
  20
1678.312012
  0
POINT
  8
3
  10
1145.703857
  20
1678.981812
  0
POINT
  8
3
  10
1143.874146
  20
1680.812012
  0
POINT
  8
3
  10
1143.203857
  20
1683.312012
  0
POINT
  8
3
  10
1143.874146
  20
1685.812012
  0
POINT
  8
3
  10
1145.703857
  20
1687.642090
  0
POLYLINE
  8
8
  66
1
  70
0
  250
0
  0
VERTEX
  8
8
  10
1148.203857
  20
1680.812012
  0
VERTEX
  8
8
  10
1146.953857
  20
1681.147095
  0
VERTEX
  8
8
  10
1146.039063
  20
1682.062012
  0
VERTEX
  8
8
  10
1145.703857
  20
1683.312012
  0
VERTEX
  8
8
  10
1146.039063
  20
1684.562012
  0
VERTEX
  8
8
  10
1146.953857
  20
1685.476929
  0
VERTEX
  8
8
  10
1148.203857
  20
1685.812012
  0
SEQEND
  0
POINT
  8
2
  10
1148.203857
  20
1680.812012
  0
POINT
  8
3
  10
1146.953857
  20
1681.147095
  0
POINT
  8
3
  10
1146.039063
  20
1682.062012
  0
POINT
  8
3
  10
1145.703857
  20
1683.312012
  0
POINT
  8
3
  10
1146.039063
  20
1684.562012
  0
POINT
  8
3
  10
1146.953857
  20
1685.476929
  0
POLYLINE
  8
8
  66
1
  70
0
  250
0
  0
VERTEX
  8
8
  10
1148.203857
  20
1675.999878
  0
VERTEX
  8
8
  10
1148.203857
  20
1691.999878
  0
SEQEND
  0
POINT
  8
2
  10
1148.203857
  20
1675.999878
  0
POLYLINE
  8
8
  66
1
  70
0
  250
0
  0
VERTEX
  8
8
  10
1055.054443
  20
1675.999878
  0
VERTEX
  8
8
  10
1055.054443
  20
1691.999878
  0
SEQEND
  0
POINT
  8
2
  10
1055.054443
  20
1675.999878
  0
POLYLINE
  8
8
  66
1
  70
0
  250
0
  0
VERTEX
  8
8
  10
1241.353271
  20
1675.999878
  0
VERTEX
  8
8
  10
1241.353271
  20
1691.999878
  0
SEQEND
  0
POINT
  8
2
  10
1241.353271
  20
1675.999878
  0
ENDBLK
  0
BLOCK
  8
0
  2
36_M
  70
64
  10
0
  20
0
  0
TEXT
  8
1
  10
600.123413
  20
1351.513672
  50
0.000000
  51
0.000000
  71
0.000000
  1
PIECE NAME: 36
  7
STANDARD
  0
TEXT
  8
1
  10
600.123413
  20
1346.513672
  50
0.000000
  51
0.000000
  71
0.000000
  1
SIZE: M
  7
STANDARD
  0
TEXT
  8
1
  10
600.123413
  20
1341.513672
  50
0.000000
  51
0.000000
  71
0.000000
  1
ANNOTATION: 
  7
STANDARD
  0
TEXT
  8
1
  10
600.123413
  20
1336.513672
  50
0.000000
  51
0.000000
  71
0.000000
  1
QUANTITY: 1
  7
STANDARD
  0
POLYLINE
  8
1
  66
1
  70
1
  250
2
  0
VERTEX
  8
1
  10
421.055359
  20
1263.065552
  0
VERTEX
  8
1
  10
395.639160
  20
1340.786743
  0
VERTEX
  8
1
  10
399.398743
  20
1341.532349
  0
VERTEX
  8
1
  10
403.091675
  20
1342.320801
  0
VERTEX
  8
1
  10
406.722290
  20
1343.154663
  0
VERTEX
  8
1
  10
410.294800
  20
1344.036499
  0
VERTEX
  8
1
  10
413.813354
  20
1344.968628
  0
VERTEX
  8
1
  10
417.282166
  20
1345.953613
  0
VERTEX
  8
1
  10
420.705566
  20
1346.994141
  0
VERTEX
  8
1
  10
424.087677
  20
1348.092407
  0
VERTEX
  8
1
  10
427.432678
  20
1349.250977
  0
VERTEX
  8
1
  10
430.744873
  20
1350.472534
  0
VERTEX
  8
1
  10
434.028503
  20
1351.759399
  0
VERTEX
  8
1
  10
437.287659
  20
1353.114136
  0
VERTEX
  8
1
  10
440.526672
  20
1354.539185
  0
VERTEX
  8
1
  10
443.749695
  20
1356.037109
  0
VERTEX
  8
1
  10
446.960999
  20
1357.610352
  0
VERTEX
  8
1
  10
450.164734
  20
1359.261353
  0
VERTEX
  8
1
  10
453.365173
  20
1360.992798
  0
VERTEX
  8
1
  10
456.566528
  20
1362.807007
  0
VERTEX
  8
1
  10
459.773010
  20
1364.706421
  0
VERTEX
  8
1
  10
462.988831
  20
1366.693726
  0
VERTEX
  8
1
  10
466.218201
  20
1368.771362
  0
VERTEX
  8
1
  10
469.465363
  20
1370.941772
  0
VERTEX
  8
1
  10
472.734497
  20
1373.207520
  0
VERTEX
  8
1
  10
476.029846
  20
1375.570923
  0
VERTEX
  8
1
  10
479.355652
  20
1378.034790
  0
VERTEX
  8
1
  10
482.716095
  20
1380.601318
  0
VERTEX
  8
1
  10
486.115387
  20
1383.273071
  0
VERTEX
  8
1
  10
489.557800
  20
1386.052612
  0
VERTEX
  8
1
  10
493.047455
  20
1388.942383
  0
VERTEX
  8
1
  10
496.711365
  20
1391.893433
  0
VERTEX
  8
1
  10
500.283417
  20
1394.732666
  0
VERTEX
  8
1
  10
503.771362
  20
1397.461670
  0
VERTEX
  8
1
  10
507.182770
  20
1400.082275
  0
VERTEX
  8
1
  10
510.525269
  20
1402.596313
  0
VERTEX
  8
1
  10
513.806396
  20
1405.005493
  0
VERTEX
  8
1
  10
517.033936
  20
1407.311523
  0
VERTEX
  8
1
  10
520.215393
  20
1409.516113
  0
VERTEX
  8
1
  10
523.358398
  20
1411.621094
  0
VERTEX
  8
1
  10
526.470581
  20
1413.628052
  0
VERTEX
  8
1
  10
529.559631
  20
1415.538940
  0
VERTEX
  8
1
  10
532.633057
  20
1417.355225
  0
VERTEX
  8
1
  10
535.698486
  20
1419.078979
  0
VERTEX
  8
1
  10
538.763672
  20
1420.711670
  0
VERTEX
  8
1
  10
541.836060
  20
1422.255127
  0
VERTEX
  8
1
  10
544.923340
  20
1423.711060
  0
VERTEX
  8
1
  10
548.033203
  20
1425.081299
  0
VERTEX
  8
1
  10
551.173157
  20
1426.367554
  0
VERTEX
  8
1
  10
554.350891
  20
1427.571533
  0
VERTEX
  8
1
  10
557.574036
  20
1428.694946
  0
VERTEX
  8
1
  10
560.850159
  20
1429.739624
  0
VERTEX
  8
1
  10
564.186890
  20
1430.707153
  0
VERTEX
  8
1
  10
567.591919
  20
1431.599487
  0
VERTEX
  8
1
  10
571.072754
  20
1432.418213
  0
VERTEX
  8
1
  10
574.637085
  20
1433.165161
  0
VERTEX
  8
1
  10
578.292542
  20
1433.841919
  0
VERTEX
  8
1
  10
582.046692
  20
1434.450439
  0
VERTEX
  8
1
  10
585.907166
  20
1434.992310
  0
VERTEX
  8
1
  10
589.881653
  20
1435.469360
  0
VERTEX
  8
1
  10
595.111755
  20
1435.838501
  0
VERTEX
  8
1
  10
600.252686
  20
1436.021729
  0
VERTEX
  8
1
  10
605.303345
  20
1436.027588
  0
VERTEX
  8
1
  10
610.262817
  20
1435.864258
  0
VERTEX
  8
1
  10
615.129944
  20
1435.540161
  0
VERTEX
  8
1
  10
619.903809
  20
1435.063721
  0
VERTEX
  8
1
  10
624.583313
  20
1434.443237
  0
VERTEX
  8
1
  10
629.167480
  20
1433.687134
  0
VERTEX
  8
1
  10
633.655212
  20
1432.803833
  0
VERTEX
  8
1
  10
638.045532
  20
1431.801514
  0
VERTEX
  8
1
  10
642.337402
  20
1430.688721
  0
VERTEX
  8
1
  10
646.529785
  20
1429.473877
  0
VERTEX
  8
1
  10
650.621704
  20
1428.165039
  0
VERTEX
  8
1
  10
654.612000
  20
1426.770874
  0
VERTEX
  8
1
  10
658.499756
  20
1425.299683
  0
VERTEX
  8
1
  10
662.283936
  20
1423.759766
  0
VERTEX
  8
1
  10
665.963440
  20
1422.159424
  0
VERTEX
  8
1
  10
669.537354
  20
1420.507324
  0
VERTEX
  8
1
  10
673.004517
  20
1418.811523
  0
VERTEX
  8
1
  10
676.363953
  20
1417.080444
  0
VERTEX
  8
1
  10
679.614685
  20
1415.322632
  0
VERTEX
  8
1
  10
682.755615
  20
1413.546265
  0
VERTEX
  8
1
  10
685.785767
  20
1411.759888
  0
VERTEX
  8
1
  10
688.704102
  20
1409.971680
  0
VERTEX
  8
1
  10
691.509583
  20
1408.190186
  0
VERTEX
  8
1
  10
694.201111
  20
1406.423584
  0
VERTEX
  8
1
  10
696.777771
  20
1404.680420
  0
VERTEX
  8
1
  10
699.238464
  20
1402.968994
  0
VERTEX
  8
1
  10
701.582153
  20
1401.297607
  0
VERTEX
  8
1
  10
703.744995
  20
1399.726440
  0
VERTEX
  8
1
  10
706.028076
  20
1398.050903
  0
VERTEX
  8
1
  10
708.429016
  20
1396.278442
  0
VERTEX
  8
1
  10
710.945496
  20
1394.416626
  0
VERTEX
  8
1
  10
713.575256
  20
1392.472900
  0
VERTEX
  8
1
  10
716.315979
  20
1390.454956
  0
VERTEX
  8
1
  10
719.165222
  20
1388.369995
  0
VERTEX
  8
1
  10
722.120728
  20
1386.225830
  0
VERTEX
  8
1
  10
725.180237
  20
1384.029907
  0
VERTEX
  8
1
  10
728.341248
  20
1381.789551
  0
VERTEX
  8
1
  10
731.601563
  20
1379.512451
  0
VERTEX
  8
1
  10
734.958862
  20
1377.205933
  0
VERTEX
  8
1
  10
738.410767
  20
1374.877686
  0
VERTEX
  8
1
  10
741.954834
  20
1372.535156
  0
VERTEX
  8
1
  10
745.588989
  20
1370.185791
  0
VERTEX
  8
1
  10
749.310730
  20
1367.837280
  0
VERTEX
  8
1
  10
753.117798
  20
1365.496826
  0
VERTEX
  8
1
  10
757.007751
  20
1363.172241
  0
VERTEX
  8
1
  10
760.978394
  20
1360.870850
  0
VERTEX
  8
1
  10
765.027344
  20
1358.600220
  0
VERTEX
  8
1
  10
769.152283
  20
1356.367798
  0
VERTEX
  8
1
  10
773.350830
  20
1354.181152
  0
VERTEX
  8
1
  10
777.620789
  20
1352.047852
  0
VERTEX
  8
1
  10
781.959717
  20
1349.975220
  0
VERTEX
  8
1
  10
786.365295
  20
1347.970947
  0
VERTEX
  8
1
  10
790.835205
  20
1346.042480
  0
VERTEX
  8
1
  10
795.367126
  20
1344.197266
  0
VERTEX
  8
1
  10
799.958740
  20
1342.442871
  0
VERTEX
  8
1
  10
804.607666
  20
1340.786743
  0
VERTEX
  8
1
  10
779.188965
  20
1263.064575
  0
VERTEX
  8
1
  10
767.427979
  20
1263.474487
  0
VERTEX
  8
1
  10
755.619873
  20
1263.854248
  0
VERTEX
  8
1
  10
743.765259
  20
1264.203979
  0
VERTEX
  8
1
  10
731.864563
  20
1264.523682
  0
VERTEX
  8
1
  10
719.918457
  20
1264.813599
  0
VERTEX
  8
1
  10
707.927612
  20
1265.073730
  0
VERTEX
  8
1
  10
695.892334
  20
1265.304199
  0
VERTEX
  8
1
  10
683.813354
  20
1265.505127
  0
VERTEX
  8
1
  10
671.691223
  20
1265.676514
  0
VERTEX
  8
1
  10
659.526550
  20
1265.818604
  0
VERTEX
  8
1
  10
647.319763
  20
1265.931396
  0
VERTEX
  8
1
  10
635.071533
  20
1266.015015
  0
VERTEX
  8
1
  10
622.782410
  20
1266.069458
  0
VERTEX
  8
1
  10
610.452942
  20
1266.094971
  0
VERTEX
  8
1
  10
598.083740
  20
1266.091675
  0
VERTEX
  8
1
  10
585.675293
  20
1266.059448
  0
VERTEX
  8
1
  10
573.228210
  20
1265.998657
  0
VERTEX
  8
1
  10
560.743042
  20
1265.909180
  0
VERTEX
  8
1
  10
548.220398
  20
1265.791260
  0
VERTEX
  8
1
  10
535.660828
  20
1265.644897
  0
VERTEX
  8
1
  10
523.064819
  20
1265.470215
  0
VERTEX
  8
1
  10
510.433044
  20
1265.267334
  0
VERTEX
  8
1
  10
497.766022
  20
1265.036377
  0
VERTEX
  8
1
  10
485.064301
  20
1264.777344
  0
VERTEX
  8
1
  10
472.328491
  20
1264.490479
  0
VERTEX
  8
1
  10
459.559113
  20
1264.175659
  0
VERTEX
  8
1
  10
446.756744
  20
1263.833252
  0
VERTEX
  8
1
  10
433.921997
  20
1263.463135
  0
SEQEND
  0
POINT
  8
2
  10
421.055359
  20
1263.065552
  0
POINT
  8
2
  10
395.639160
  20
1340.786743
  0
POINT
  8
2
  10
493.047455
  20
1388.942383
  0
POINT
  8
2
  10
589.881653
  20
1435.469360
  0
POINT
  8
2
  10
701.582153
  20
1401.297607
  0
POINT
  8
2
  10
804.607666
  20
1340.786743
  0
POINT
  8
2
  10
779.188965
  20
1263.064575
  0
POINT
  8
3
  10
399.398743
  20
1341.532349
  0
POINT
  8
3
  10
403.091675
  20
1342.320801
  0
POINT
  8
3
  10
406.722290
  20
1343.154663
  0
POINT
  8
3
  10
410.294800
  20
1344.036499
  0
POINT
  8
3
  10
413.813354
  20
1344.968628
  0
POINT
  8
3
  10
417.282166
  20
1345.953613
  0
POINT
  8
3
  10
420.705566
  20
1346.994141
  0
POINT
  8
3
  10
424.087677
  20
1348.092407
  0
POINT
  8
3
  10
427.432678
  20
1349.250977
  0
POINT
  8
3
  10
430.744873
  20
1350.472534
  0
POINT
  8
3
  10
434.028503
  20
1351.759399
  0
POINT
  8
3
  10
437.287659
  20
1353.114136
  0
POINT
  8
3
  10
440.526672
  20
1354.539185
  0
POINT
  8
3
  10
443.749695
  20
1356.037109
  0
POINT
  8
3
  10
446.960999
  20
1357.610352
  0
POINT
  8
3
  10
450.164734
  20
1359.261353
  0
POINT
  8
3
  10
453.365173
  20
1360.992798
  0
POINT
  8
3
  10
456.566528
  20
1362.807007
  0
POINT
  8
3
  10
459.773010
  20
1364.706421
  0
POINT
  8
3
  10
462.988831
  20
1366.693726
  0
POINT
  8
3
  10
466.218201
  20
1368.771362
  0
POINT
  8
3
  10
469.465363
  20
1370.941772
  0
POINT
  8
3
  10
472.734497
  20
1373.207520
  0
POINT
  8
3
  10
476.029846
  20
1375.570923
  0
POINT
  8
3
  10
479.355652
  20
1378.034790
  0
POINT
  8
3
  10
482.716095
  20
1380.601318
  0
POINT
  8
3
  10
486.115387
  20
1383.273071
  0
POINT
  8
3
  10
489.557800
  20
1386.052612
  0
POINT
  8
3
  10
496.711365
  20
1391.893433
  0
POINT
  8
3
  10
500.283417
  20
1394.732666
  0
POINT
  8
3
  10
503.771362
  20
1397.461670
  0
POINT
  8
3
  10
507.182770
  20
1400.082275
  0
POINT
  8
3
  10
510.525269
  20
1402.596313
  0
POINT
  8
3
  10
513.806396
  20
1405.005493
  0
POINT
  8
3
  10
517.033936
  20
1407.311523
  0
POINT
  8
3
  10
520.215393
  20
1409.516113
  0
POINT
  8
3
  10
523.358398
  20
1411.621094
  0
POINT
  8
3
  10
526.470581
  20
1413.628052
  0
POINT
  8
3
  10
529.559631
  20
1415.538940
  0
POINT
  8
3
  10
532.633057
  20
1417.355225
  0
POINT
  8
3
  10
535.698486
  20
1419.078979
  0
POINT
  8
3
  10
538.763672
  20
1420.711670
  0
POINT
  8
3
  10
541.836060
  20
1422.255127
  0
POINT
  8
3
  10
544.923340
  20
1423.711060
  0
POINT
  8
3
  10
548.033203
  20
1425.081299
  0
POINT
  8
3
  10
551.173157
  20
1426.367554
  0
POINT
  8
3
  10
554.350891
  20
1427.571533
  0
POINT
  8
3
  10
557.574036
  20
1428.694946
  0
POINT
  8
3
  10
560.850159
  20
1429.739624
  0
POINT
  8
3
  10
564.186890
  20
1430.707153
  0
POINT
  8
3
  10
567.591919
  20
1431.599487
  0
POINT
  8
3
  10
571.072754
  20
1432.418213
  0
POINT
  8
3
  10
574.637085
  20
1433.165161
  0
POINT
  8
3
  10
578.292542
  20
1433.841919
  0
POINT
  8
3
  10
582.046692
  20
1434.450439
  0
POINT
  8
3
  10
585.907166
  20
1434.992310
  0
POINT
  8
3
  10
595.111755
  20
1435.838501
  0
POINT
  8
3
  10
600.252686
  20
1436.021729
  0
POINT
  8
3
  10
605.303345
  20
1436.027588
  0
POINT
  8
3
  10
610.262817
  20
1435.864258
  0
POINT
  8
3
  10
615.129944
  20
1435.540161
  0
POINT
  8
3
  10
619.903809
  20
1435.063721
  0
POINT
  8
3
  10
624.583313
  20
1434.443237
  0
POINT
  8
3
  10
629.167480
  20
1433.687134
  0
POINT
  8
3
  10
633.655212
  20
1432.803833
  0
POINT
  8
3
  10
638.045532
  20
1431.801514
  0
POINT
  8
3
  10
642.337402
  20
1430.688721
  0
POINT
  8
3
  10
646.529785
  20
1429.473877
  0
POINT
  8
3
  10
650.621704
  20
1428.165039
  0
POINT
  8
3
  10
654.612000
  20
1426.770874
  0
POINT
  8
3
  10
658.499756
  20
1425.299683
  0
POINT
  8
3
  10
662.283936
  20
1423.759766
  0
POINT
  8
3
  10
665.963440
  20
1422.159424
  0
POINT
  8
3
  10
669.537354
  20
1420.507324
  0
POINT
  8
3
  10
673.004517
  20
1418.811523
  0
POINT
  8
3
  10
676.363953
  20
1417.080444
  0
POINT
  8
3
  10
679.614685
  20
1415.322632
  0
POINT
  8
3
  10
682.755615
  20
1413.546265
  0
POINT
  8
3
  10
685.785767
  20
1411.759888
  0
POINT
  8
3
  10
688.704102
  20
1409.971680
  0
POINT
  8
3
  10
691.509583
  20
1408.190186
  0
POINT
  8
3
  10
694.201111
  20
1406.423584
  0
POINT
  8
3
  10
696.777771
  20
1404.680420
  0
POINT
  8
3
  10
699.238464
  20
1402.968994
  0
POINT
  8
3
  10
703.744995
  20
1399.726440
  0
POINT
  8
3
  10
706.028076
  20
1398.050903
  0
POINT
  8
3
  10
708.429016
  20
1396.278442
  0
POINT
  8
3
  10
710.945496
  20
1394.416626
  0
POINT
  8
3
  10
713.575256
  20
1392.472900
  0
POINT
  8
3
  10
716.315979
  20
1390.454956
  0
POINT
  8
3
  10
719.165222
  20
1388.369995
  0
POINT
  8
3
  10
722.120728
  20
1386.225830
  0
POINT
  8
3
  10
725.180237
  20
1384.029907
  0
POINT
  8
3
  10
728.341248
  20
1381.789551
  0
POINT
  8
3
  10
731.601563
  20
1379.512451
  0
POINT
  8
3
  10
734.958862
  20
1377.205933
  0
POINT
  8
3
  10
738.410767
  20
1374.877686
  0
POINT
  8
3
  10
741.954834
  20
1372.535156
  0
POINT
  8
3
  10
745.588989
  20
1370.185791
  0
POINT
  8
3
  10
749.310730
  20
1367.837280
  0
POINT
  8
3
  10
753.117798
  20
1365.496826
  0
POINT
  8
3
  10
757.007751
  20
1363.172241
  0
POINT
  8
3
  10
760.978394
  20
1360.870850
  0
POINT
  8
3
  10
765.027344
  20
1358.600220
  0
POINT
  8
3
  10
769.152283
  20
1356.367798
  0
POINT
  8
3
  10
773.350830
  20
1354.181152
  0
POINT
  8
3
  10
777.620789
  20
1352.047852
  0
POINT
  8
3
  10
781.959717
  20
1349.975220
  0
POINT
  8
3
  10
786.365295
  20
1347.970947
  0
POINT
  8
3
  10
790.835205
  20
1346.042480
  0
POINT
  8
3
  10
795.367126
  20
1344.197266
  0
POINT
  8
3
  10
799.958740
  20
1342.442871
  0
POINT
  8
3
  10
767.427979
  20
1263.474487
  0
POINT
  8
3
  10
755.619873
  20
1263.854248
  0
POINT
  8
3
  10
743.765259
  20
1264.203979
  0
POINT
  8
3
  10
731.864563
  20
1264.523682
  0
POINT
  8
3
  10
719.918457
  20
1264.813599
  0
POINT
  8
3
  10
707.927612
  20
1265.073730
  0
POINT
  8
3
  10
695.892334
  20
1265.304199
  0
POINT
  8
3
  10
683.813354
  20
1265.505127
  0
POINT
  8
3
  10
671.691223
  20
1265.676514
  0
POINT
  8
3
  10
659.526550
  20
1265.818604
  0
POINT
  8
3
  10
647.319763
  20
1265.931396
  0
POINT
  8
3
  10
635.071533
  20
1266.015015
  0
POINT
  8
3
  10
622.782410
  20
1266.069458
  0
POINT
  8
3
  10
610.452942
  20
1266.094971
  0
POINT
  8
3
  10
598.083740
  20
1266.091675
  0
POINT
  8
3
  10
585.675293
  20
1266.059448
  0
POINT
  8
3
  10
573.228210
  20
1265.998657
  0
POINT
  8
3
  10
560.743042
  20
1265.909180
  0
POINT
  8
3
  10
548.220398
  20
1265.791260
  0
POINT
  8
3
  10
535.660828
  20
1265.644897
  0
POINT
  8
3
  10
523.064819
  20
1265.470215
  0
POINT
  8
3
  10
510.433044
  20
1265.267334
  0
POINT
  8
3
  10
497.766022
  20
1265.036377
  0
POINT
  8
3
  10
485.064301
  20
1264.777344
  0
POINT
  8
3
  10
472.328491
  20
1264.490479
  0
POINT
  8
3
  10
459.559113
  20
1264.175659
  0
POINT
  8
3
  10
446.756744
  20
1263.833252
  0
POINT
  8
3
  10
433.921997
  20
1263.463135
  0
POINT
  8
4
  10
493.047455
  20
1388.942383
  50
128.849014
  0
POINT
  8
4
  10
589.881653
  20
1435.469360
  50
94.037079
  0
POINT
  8
4
  10
693.354309
  20
1406.979370
  50
57.239540
  0
POINT
  8
4
  10
701.582153
  20
1401.297607
  50
54.002960
  0
LINE
  8
7
  10
600.123413
  20
1261.513672
  11
600.123413
  21
1441.513672
  0
POLYLINE
  8
84
  66
1
  70
1
  250
2
  0
VERTEX
  8
84
  10
421.055359
  20
1263.065552
  0
VERTEX
  8
84
  10
395.639160
  20
1340.786743
  0
VERTEX
  8
84
  10
432.316925
  20
1347.794678
  0
VERTEX
  8
84
  10
459.071625
  20
1360.466553
  0
VERTEX
  8
84
  10
493.047455
  20
1388.942383
  0
VERTEX
  8
84
  10
528.933044
  20
1418.015015
  0
VERTEX
  8
84
  10
550.886475
  20
1431.166138
  0
VERTEX
  8
84
  10
589.881653
  20
1435.469360
  0
VERTEX
  8
84
  10
640.867126
  20
1439.962891
  0
VERTEX
  8
84
  10
679.494995
  20
1417.233154
  0
VERTEX
  8
84
  10
701.582153
  20
1401.297607
  0
VERTEX
  8
84
  10
721.900879
  20
1386.637939
  0
VERTEX
  8
84
  10
759.398071
  20
1356.296265
  0
VERTEX
  8
84
  10
804.607666
  20
1340.786743
  0
VERTEX
  8
84
  10
779.188965
  20
1263.064575
  0
VERTEX
  8
84
  10
665.729126
  20
1267.173218
  0
VERTEX
  8
84
  10
545.584839
  20
1267.041870
  0
SEQEND
  0
POINT
  8
2
  10
421.055359
  20
1263.065552
  0
POINT
  8
2
  10
395.639160
  20
1340.786743
  0
POINT
  8
2
  10
493.047455
  20
1388.942383
  0
POINT
  8
2
  10
589.881653
  20
1435.469360
  0
POINT
  8
2
  10
701.582153
  20
1401.297607
  0
POINT
  8
2
  10
804.607666
  20
1340.786743
  0
POINT
  8
2
  10
779.188965
  20
1263.064575
  0
POINT
  8
3
  10
432.316925
  20
1347.794678
  0
POINT
  8
3
  10
459.071625
  20
1360.466553
  0
POINT
  8
3
  10
528.933044
  20
1418.015015
  0
POINT
  8
3
  10
550.886475
  20
1431.166138
  0
POINT
  8
3
  10
640.867126
  20
1439.962891
  0
POINT
  8
3
  10
679.494995
  20
1417.233154
  0
POINT
  8
3
  10
721.900879
  20
1386.637939
  0
POINT
  8
3
  10
759.398071
  20
1356.296265
  0
POINT
  8
3
  10
665.729126
  20
1267.173218
  0
POINT
  8
3
  10
545.584839
  20
1267.041870
  0
POLYLINE
  8
8
  66
1
  70
0
  250
0
  0
VERTEX
  8
8
  10
804.643066
  20
1340.773071
  0
VERTEX
  8
8
  10
395.639160
  20
1340.787231
  0
SEQEND
  0
POINT
  8
2
  10
804.643066
  20
1340.773071
  0
POLYLINE
  8
8
  66
1
  70
0
  250
0
  0
VERTEX
  8
8
  10
600.145386
  20
1436.264648
  0
VERTEX
  8
8
  10
600.139282
  20
1266.264893
  0
SEQEND
  0
POINT
  8
2
  10
600.145386
  20
1436.264648
  0
ENDBLK
  0
BLOCK
  8
0
  2
37_M
  70
64
  10
0
  20
0
  0
TEXT
  8
1
  10
-114.880402
  20
1244.616211
  50
0.000000
  51
0.000000
  71
0.000000
  1
PIECE NAME: 37
  7
STANDARD
  0
TEXT
  8
1
  10
-114.880402
  20
1239.616211
  50
0.000000
  51
0.000000
  71
0.000000
  1
SIZE: M
  7
STANDARD
  0
TEXT
  8
1
  10
-114.880402
  20
1229.616211
  50
0.000000
  51
0.000000
  71
0.000000
  1
QUANTITY: 1
  7
STANDARD
  0
POLYLINE
  8
1
  66
1
  70
1
  250
2
  0
VERTEX
  8
1
  10
13.032791
  20
893.018738
  0
VERTEX
  8
1
  10
13.016891
  20
1462.437012
  0
VERTEX
  8
1
  10
6.900620
  20
1465.763062
  0
VERTEX
  8
1
  10
1.050720
  20
1469.226440
  0
VERTEX
  8
1
  10
-4.540054
  20
1472.822266
  0
VERTEX
  8
1
  10
-9.878883
  20
1476.545410
  0
VERTEX
  8
1
  10
-14.972946
  20
1480.390869
  0
VERTEX
  8
1
  10
-19.829430
  20
1484.353638
  0
VERTEX
  8
1
  10
-24.455574
  20
1488.428467
  0
VERTEX
  8
1
  10
-28.858536
  20
1492.610474
  0
VERTEX
  8
1
  10
-33.045509
  20
1496.894531
  0
VERTEX
  8
1
  10
-37.023727
  20
1501.275635
  0
VERTEX
  8
1
  10
-40.800362
  20
1505.748657
  0
VERTEX
  8
1
  10
-44.382599
  20
1510.308716
  0
VERTEX
  8
1
  10
-47.777657
  20
1514.950439
  0
VERTEX
  8
1
  10
-50.992733
  20
1519.668945
  0
VERTEX
  8
1
  10
-54.034988
  20
1524.459351
  0
VERTEX
  8
1
  10
-56.911659
  20
1529.316406
  0
VERTEX
  8
1
  10
-59.629925
  20
1534.234985
  0
VERTEX
  8
1
  10
-62.196980
  20
1539.210205
  0
VERTEX
  8
1
  10
-64.620026
  20
1544.236816
  0
VERTEX
  8
1
  10
-66.906250
  20
1549.309937
  0
VERTEX
  8
1
  10
-69.062851
  20
1554.424561
  0
VERTEX
  8
1
  10
-71.097031
  20
1559.575439
  0
VERTEX
  8
1
  10
-73.015991
  20
1564.757568
  0
VERTEX
  8
1
  10
-74.826912
  20
1569.966064
  0
VERTEX
  8
1
  10
-76.536995
  20
1575.195679
  0
VERTEX
  8
1
  10
-78.153442
  20
1580.441406
  0
VERTEX
  8
1
  10
-79.683449
  20
1585.698120
  0
VERTEX
  8
1
  10
-81.134201
  20
1590.960938
  0
VERTEX
  8
1
  10
-82.512909
  20
1596.224609
  0
VERTEX
  8
1
  10
-88.768593
  20
1594.065918
  0
VERTEX
  8
1
  10
-94.967186
  20
1591.953491
  0
VERTEX
  8
1
  10
-101.107117
  20
1589.883545
  0
VERTEX
  8
1
  10
-107.186768
  20
1587.852783
  0
VERTEX
  8
1
  10
-113.204567
  20
1585.857300
  0
VERTEX
  8
1
  10
-119.158913
  20
1583.893677
  0
VERTEX
  8
1
  10
-125.048210
  20
1581.958252
  0
VERTEX
  8
1
  10
-130.870865
  20
1580.047241
  0
VERTEX
  8
1
  10
-136.625290
  20
1578.157227
  0
VERTEX
  8
1
  10
-142.309891
  20
1576.284424
  0
VERTEX
  8
1
  10
-147.923080
  20
1574.425293
  0
VERTEX
  8
1
  10
-153.463257
  20
1572.576294
  0
VERTEX
  8
1
  10
-158.928833
  20
1570.733643
  0
VERTEX
  8
1
  10
-164.318207
  20
1568.893799
  0
VERTEX
  8
1
  10
-169.629791
  20
1567.053101
  0
VERTEX
  8
1
  10
-174.862000
  20
1565.208008
  0
VERTEX
  8
1
  10
-180.013245
  20
1563.354736
  0
VERTEX
  8
1
  10
-185.081909
  20
1561.489746
  0
VERTEX
  8
1
  10
-190.066422
  20
1559.609619
  0
VERTEX
  8
1
  10
-194.965164
  20
1557.710449
  0
VERTEX
  8
1
  10
-199.776581
  20
1555.788696
  0
VERTEX
  8
1
  10
-204.499054
  20
1553.840698
  0
VERTEX
  8
1
  10
-209.130997
  20
1551.862915
  0
VERTEX
  8
1
  10
-213.670807
  20
1549.851685
  0
VERTEX
  8
1
  10
-218.116913
  20
1547.803467
  0
VERTEX
  8
1
  10
-222.467712
  20
1545.714478
  0
VERTEX
  8
1
  10
-226.721588
  20
1543.581177
  0
VERTEX
  8
1
  10
-230.876984
  20
1541.399902
  0
VERTEX
  8
1
  10
-234.932297
  20
1539.167236
  0
VERTEX
  8
1
  10
-233.978806
  20
1537.027344
  0
VERTEX
  8
1
  10
-232.981384
  20
1534.729248
  0
VERTEX
  8
1
  10
-231.943451
  20
1532.278809
  0
VERTEX
  8
1
  10
-230.868439
  20
1529.681641
  0
VERTEX
  8
1
  10
-229.759766
  20
1526.943970
  0
VERTEX
  8
1
  10
-228.621002
  20
1524.071533
  0
VERTEX
  8
1
  10
-227.455475
  20
1521.070190
  0
VERTEX
  8
1
  10
-226.266724
  20
1517.945801
  0
VERTEX
  8
1
  10
-225.058167
  20
1514.704346
  0
VERTEX
  8
1
  10
-223.833252
  20
1511.351563
  0
VERTEX
  8
1
  10
-222.595413
  20
1507.893433
  0
VERTEX
  8
1
  10
-221.348145
  20
1504.335693
  0
VERTEX
  8
1
  10
-220.094879
  20
1500.684326
  0
VERTEX
  8
1
  10
-218.839020
  20
1496.945190
  0
VERTEX
  8
1
  10
-217.584122
  20
1493.124146
  0
VERTEX
  8
1
  10
-216.333557
  20
1489.227173
  0
VERTEX
  8
1
  10
-215.090790
  20
1485.259888
  0
VERTEX
  8
1
  10
-213.859283
  20
1481.228394
  0
VERTEX
  8
1
  10
-212.642487
  20
1477.138550
  0
VERTEX
  8
1
  10
-211.443848
  20
1472.996094
  0
VERTEX
  8
1
  10
-210.266846
  20
1468.807007
  0
VERTEX
  8
1
  10
-209.114883
  20
1464.577148
  0
VERTEX
  8
1
  10
-207.991455
  20
1460.312378
  0
VERTEX
  8
1
  10
-206.899979
  20
1456.018555
  0
VERTEX
  8
1
  10
-205.843933
  20
1451.701538
  0
VERTEX
  8
1
  10
-204.826736
  20
1447.367310
  0
VERTEX
  8
1
  10
-203.851883
  20
1443.021606
  0
VERTEX
  8
1
  10
-202.922791
  20
1438.670410
  0
VERTEX
  8
1
  10
-202.042938
  20
1434.319580
  0
VERTEX
  8
1
  10
-201.289856
  20
1429.668701
  0
VERTEX
  8
1
  10
-200.662872
  20
1425.122070
  0
VERTEX
  8
1
  10
-200.165024
  20
1420.679688
  0
VERTEX
  8
1
  10
-199.799469
  20
1416.341797
  0
VERTEX
  8
1
  10
-199.569305
  20
1412.108398
  0
VERTEX
  8
1
  10
-199.477737
  20
1407.979858
  0
VERTEX
  8
1
  10
-199.527802
  20
1403.956177
  0
VERTEX
  8
1
  10
-199.722641
  20
1400.037354
  0
VERTEX
  8
1
  10
-200.065430
  20
1396.223755
  0
VERTEX
  8
1
  10
-200.559235
  20
1392.515381
  0
VERTEX
  8
1
  10
-201.207184
  20
1388.912598
  0
VERTEX
  8
1
  10
-202.012466
  20
1385.415283
  0
VERTEX
  8
1
  10
-202.978119
  20
1382.023560
  0
VERTEX
  8
1
  10
-204.107300
  20
1378.737793
  0
VERTEX
  8
1
  10
-205.403168
  20
1375.557983
  0
VERTEX
  8
1
  10
-206.868790
  20
1372.484375
  0
VERTEX
  8
1
  10
-208.507339
  20
1369.516846
  0
VERTEX
  8
1
  10
-210.321899
  20
1366.655884
  0
VERTEX
  8
1
  10
-212.315613
  20
1363.901489
  0
VERTEX
  8
1
  10
-214.491608
  20
1361.253662
  0
VERTEX
  8
1
  10
-216.853027
  20
1358.712646
  0
VERTEX
  8
1
  10
-219.402954
  20
1356.278687
  0
VERTEX
  8
1
  10
-222.144531
  20
1353.951782
  0
VERTEX
  8
1
  10
-225.080872
  20
1351.732178
  0
VERTEX
  8
1
  10
-228.215134
  20
1349.619873
  0
VERTEX
  8
1
  10
-231.550400
  20
1347.615234
  0
VERTEX
  8
1
  10
-235.089813
  20
1345.718140
  0
VERTEX
  8
1
  10
-238.836502
  20
1343.928833
  0
VERTEX
  8
1
  10
-242.793594
  20
1342.247559
  0
VERTEX
  8
1
  10
-242.399200
  20
1337.411743
  0
VERTEX
  8
1
  10
-242.005737
  20
1332.219971
  0
VERTEX
  8
1
  10
-241.613724
  20
1326.698853
  0
VERTEX
  8
1
  10
-241.223755
  20
1320.875000
  0
VERTEX
  8
1
  10
-240.836380
  20
1314.775024
  0
VERTEX
  8
1
  10
-240.452194
  20
1308.425537
  0
VERTEX
  8
1
  10
-240.071686
  20
1301.853027
  0
VERTEX
  8
1
  10
-239.695450
  20
1295.084351
  0
VERTEX
  8
1
  10
-239.324081
  20
1288.145874
  0
VERTEX
  8
1
  10
-238.958084
  20
1281.064453
  0
VERTEX
  8
1
  10
-238.598053
  20
1273.866455
  0
VERTEX
  8
1
  10
-238.244537
  20
1266.578735
  0
VERTEX
  8
1
  10
-237.898087
  20
1259.227783
  0
VERTEX
  8
1
  10
-237.559250
  20
1251.840088
  0
VERTEX
  8
1
  10
-237.228653
  20
1244.442505
  0
VERTEX
  8
1
  10
-236.906784
  20
1237.061523
  0
VERTEX
  8
1
  10
-236.594238
  20
1229.723755
  0
VERTEX
  8
1
  10
-236.291565
  20
1222.455811
  0
VERTEX
  8
1
  10
-235.999313
  20
1215.284424
  0
VERTEX
  8
1
  10
-235.718048
  20
1208.235962
  0
VERTEX
  8
1
  10
-235.448349
  20
1201.337280
  0
VERTEX
  8
1
  10
-235.190765
  20
1194.614868
  0
VERTEX
  8
1
  10
-234.945862
  20
1188.095337
  0
VERTEX
  8
1
  10
-234.714172
  20
1181.805298
  0
VERTEX
  8
1
  10
-234.496277
  20
1175.771484
  0
VERTEX
  8
1
  10
-234.292740
  20
1170.020264
  0
VERTEX
  8
1
  10
-234.104111
  20
1164.578491
  0
VERTEX
  8
1
  10
-233.930939
  20
1159.472778
  0
VERTEX
  8
1
  10
-233.773819
  20
1154.729492
  0
VERTEX
  8
1
  10
-237.886398
  20
893.007751
  0
SEQEND
  0
POINT
  8
2
  10
13.032791
  20
893.018738
  0
POINT
  8
2
  10
13.016891
  20
1462.437012
  0
POINT
  8
2
  10
-82.512909
  20
1596.224609
  0
POINT
  8
2
  10
-234.932297
  20
1539.167236
  0
POINT
  8
2
  10
-202.042938
  20
1434.319580
  0
POINT
  8
2
  10
-242.793594
  20
1342.247559
  0
POINT
  8
2
  10
-233.773819
  20
1154.729492
  0
POINT
  8
2
  10
-237.886398
  20
893.007751
  0
POINT
  8
3
  10
6.900620
  20
1465.763062
  0
POINT
  8
3
  10
1.050720
  20
1469.226440
  0
POINT
  8
3
  10
-4.540054
  20
1472.822266
  0
POINT
  8
3
  10
-9.878883
  20
1476.545410
  0
POINT
  8
3
  10
-14.972946
  20
1480.390869
  0
POINT
  8
3
  10
-19.829430
  20
1484.353638
  0
POINT
  8
3
  10
-24.455574
  20
1488.428467
  0
POINT
  8
3
  10
-28.858536
  20
1492.610474
  0
POINT
  8
3
  10
-33.045509
  20
1496.894531
  0
POINT
  8
3
  10
-37.023727
  20
1501.275635
  0
POINT
  8
3
  10
-40.800362
  20
1505.748657
  0
POINT
  8
3
  10
-44.382599
  20
1510.308716
  0
POINT
  8
3
  10
-47.777657
  20
1514.950439
  0
POINT
  8
3
  10
-50.992733
  20
1519.668945
  0
POINT
  8
3
  10
-54.034988
  20
1524.459351
  0
POINT
  8
3
  10
-56.911659
  20
1529.316406
  0
POINT
  8
3
  10
-59.629925
  20
1534.234985
  0
POINT
  8
3
  10
-62.196980
  20
1539.210205
  0
POINT
  8
3
  10
-64.620026
  20
1544.236816
  0
POINT
  8
3
  10
-66.906250
  20
1549.309937
  0
POINT
  8
3
  10
-69.062851
  20
1554.424561
  0
POINT
  8
3
  10
-71.097031
  20
1559.575439
  0
POINT
  8
3
  10
-73.015991
  20
1564.757568
  0
POINT
  8
3
  10
-74.826912
  20
1569.966064
  0
POINT
  8
3
  10
-76.536995
  20
1575.195679
  0
POINT
  8
3
  10
-78.153442
  20
1580.441406
  0
POINT
  8
3
  10
-79.683449
  20
1585.698120
  0
POINT
  8
3
  10
-81.134201
  20
1590.960938
  0
POINT
  8
3
  10
-88.768593
  20
1594.065918
  0
POINT
  8
3
  10
-94.967186
  20
1591.953491
  0
POINT
  8
3
  10
-101.107117
  20
1589.883545
  0
POINT
  8
3
  10
-107.186768
  20
1587.852783
  0
POINT
  8
3
  10
-113.204567
  20
1585.857300
  0
POINT
  8
3
  10
-119.158913
  20
1583.893677
  0
POINT
  8
3
  10
-125.048210
  20
1581.958252
  0
POINT
  8
3
  10
-130.870865
  20
1580.047241
  0
POINT
  8
3
  10
-136.625290
  20
1578.157227
  0
POINT
  8
3
  10
-142.309891
  20
1576.284424
  0
POINT
  8
3
  10
-147.923080
  20
1574.425293
  0
POINT
  8
3
  10
-153.463257
  20
1572.576294
  0
POINT
  8
3
  10
-158.928833
  20
1570.733643
  0
POINT
  8
3
  10
-164.318207
  20
1568.893799
  0
POINT
  8
3
  10
-169.629791
  20
1567.053101
  0
POINT
  8
3
  10
-174.862000
  20
1565.208008
  0
POINT
  8
3
  10
-180.013245
  20
1563.354736
  0
POINT
  8
3
  10
-185.081909
  20
1561.489746
  0
POINT
  8
3
  10
-190.066422
  20
1559.609619
  0
POINT
  8
3
  10
-194.965164
  20
1557.710449
  0
POINT
  8
3
  10
-199.776581
  20
1555.788696
  0
POINT
  8
3
  10
-204.499054
  20
1553.840698
  0
POINT
  8
3
  10
-209.130997
  20
1551.862915
  0
POINT
  8
3
  10
-213.670807
  20
1549.851685
  0
POINT
  8
3
  10
-218.116913
  20
1547.803467
  0
POINT
  8
3
  10
-222.467712
  20
1545.714478
  0
POINT
  8
3
  10
-226.721588
  20
1543.581177
  0
POINT
  8
3
  10
-230.876984
  20
1541.399902
  0
POINT
  8
3
  10
-233.978806
  20
1537.027344
  0
POINT
  8
3
  10
-232.981384
  20
1534.729248
  0
POINT
  8
3
  10
-231.943451
  20
1532.278809
  0
POINT
  8
3
  10
-230.868439
  20
1529.681641
  0
POINT
  8
3
  10
-229.759766
  20
1526.943970
  0
POINT
  8
3
  10
-228.621002
  20
1524.071533
  0
POINT
  8
3
  10
-227.455475
  20
1521.070190
  0
POINT
  8
3
  10
-226.266724
  20
1517.945801
  0
POINT
  8
3
  10
-225.058167
  20
1514.704346
  0
POINT
  8
3
  10
-223.833252
  20
1511.351563
  0
POINT
  8
3
  10
-222.595413
  20
1507.893433
  0
POINT
  8
3
  10
-221.348145
  20
1504.335693
  0
POINT
  8
3
  10
-220.094879
  20
1500.684326
  0
POINT
  8
3
  10
-218.839020
  20
1496.945190
  0
POINT
  8
3
  10
-217.584122
  20
1493.124146
  0
POINT
  8
3
  10
-216.333557
  20
1489.227173
  0
POINT
  8
3
  10
-215.090790
  20
1485.259888
  0
POINT
  8
3
  10
-213.859283
  20
1481.228394
  0
POINT
  8
3
  10
-212.642487
  20
1477.138550
  0
POINT
  8
3
  10
-211.443848
  20
1472.996094
  0
POINT
  8
3
  10
-210.266846
  20
1468.807007
  0
POINT
  8
3
  10
-209.114883
  20
1464.577148
  0
POINT
  8
3
  10
-207.991455
  20
1460.312378
  0
POINT
  8
3
  10
-206.899979
  20
1456.018555
  0
POINT
  8
3
  10
-205.843933
  20
1451.701538
  0
POINT
  8
3
  10
-204.826736
  20
1447.367310
  0
POINT
  8
3
  10
-203.851883
  20
1443.021606
  0
POINT
  8
3
  10
-202.922791
  20
1438.670410
  0
POINT
  8
3
  10
-201.289856
  20
1429.668701
  0
POINT
  8
3
  10
-200.662872
  20
1425.122070
  0
POINT
  8
3
  10
-200.165024
  20
1420.679688
  0
POINT
  8
3
  10
-199.799469
  20
1416.341797
  0
POINT
  8
3
  10
-199.569305
  20
1412.108398
  0
POINT
  8
3
  10
-199.477737
  20
1407.979858
  0
POINT
  8
3
  10
-199.527802
  20
1403.956177
  0
POINT
  8
3
  10
-199.722641
  20
1400.037354
  0
POINT
  8
3
  10
-200.065430
  20
1396.223755
  0
POINT
  8
3
  10
-200.559235
  20
1392.515381
  0
POINT
  8
3
  10
-201.207184
  20
1388.912598
  0
POINT
  8
3
  10
-202.012466
  20
1385.415283
  0
POINT
  8
3
  10
-202.978119
  20
1382.023560
  0
POINT
  8
3
  10
-204.107300
  20
1378.737793
  0
POINT
  8
3
  10
-205.403168
  20
1375.557983
  0
POINT
  8
3
  10
-206.868790
  20
1372.484375
  0
POINT
  8
3
  10
-208.507339
  20
1369.516846
  0
POINT
  8
3
  10
-210.321899
  20
1366.655884
  0
POINT
  8
3
  10
-212.315613
  20
1363.901489
  0
POINT
  8
3
  10
-214.491608
  20
1361.253662
  0
POINT
  8
3
  10
-216.853027
  20
1358.712646
  0
POINT
  8
3
  10
-219.402954
  20
1356.278687
  0
POINT
  8
3
  10
-222.144531
  20
1353.951782
  0
POINT
  8
3
  10
-225.080872
  20
1351.732178
  0
POINT
  8
3
  10
-228.215134
  20
1349.619873
  0
POINT
  8
3
  10
-231.550400
  20
1347.615234
  0
POINT
  8
3
  10
-235.089813
  20
1345.718140
  0
POINT
  8
3
  10
-238.836502
  20
1343.928833
  0
POINT
  8
3
  10
-242.399200
  20
1337.411743
  0
POINT
  8
3
  10
-242.005737
  20
1332.219971
  0
POINT
  8
3
  10
-241.613724
  20
1326.698853
  0
POINT
  8
3
  10
-241.223755
  20
1320.875000
  0
POINT
  8
3
  10
-240.836380
  20
1314.775024
  0
POINT
  8
3
  10
-240.452194
  20
1308.425537
  0
POINT
  8
3
  10
-240.071686
  20
1301.853027
  0
POINT
  8
3
  10
-239.695450
  20
1295.084351
  0
POINT
  8
3
  10
-239.324081
  20
1288.145874
  0
POINT
  8
3
  10
-238.958084
  20
1281.064453
  0
POINT
  8
3
  10
-238.598053
  20
1273.866455
  0
POINT
  8
3
  10
-238.244537
  20
1266.578735
  0
POINT
  8
3
  10
-237.898087
  20
1259.227783
  0
POINT
  8
3
  10
-237.559250
  20
1251.840088
  0
POINT
  8
3
  10
-237.228653
  20
1244.442505
  0
POINT
  8
3
  10
-236.906784
  20
1237.061523
  0
POINT
  8
3
  10
-236.594238
  20
1229.723755
  0
POINT
  8
3
  10
-236.291565
  20
1222.455811
  0
POINT
  8
3
  10
-235.999313
  20
1215.284424
  0
POINT
  8
3
  10
-235.718048
  20
1208.235962
  0
POINT
  8
3
  10
-235.448349
  20
1201.337280
  0
POINT
  8
3
  10
-235.190765
  20
1194.614868
  0
POINT
  8
3
  10
-234.945862
  20
1188.095337
  0
POINT
  8
3
  10
-234.714172
  20
1181.805298
  0
POINT
  8
3
  10
-234.496277
  20
1175.771484
  0
POINT
  8
3
  10
-234.292740
  20
1170.020264
  0
POINT
  8
3
  10
-234.104111
  20
1164.578491
  0
POINT
  8
3
  10
-233.930939
  20
1159.472778
  0
POINT
  8
4
  10
-202.042938
  20
1434.319580
  50
350.802490
  0
LINE
  8
7
  10
-114.880402
  20
1154.616211
  11
-114.880402
  21
1334.616211
  0
POLYLINE
  8
84
  66
1
  70
1
  250
2
  0
VERTEX
  8
84
  10
13.032791
  20
893.018738
  0
VERTEX
  8
84
  10
13.016891
  20
1462.437012
  0
VERTEX
  8
84
  10
-47.417526
  20
1493.907471
  0
VERTEX
  8
84
  10
-69.510490
  20
1545.353516
  0
VERTEX
  8
84
  10
-82.512909
  20
1596.224609
  0
VERTEX
  8
84
  10
-143.255249
  20
1575.121338
  0
VERTEX
  8
84
  10
-196.219879
  20
1561.011475
  0
VERTEX
  8
84
  10
-234.932297
  20
1539.167236
  0
VERTEX
  8
84
  10
-225.939056
  20
1519.265869
  0
VERTEX
  8
84
  10
-210.299210
  20
1476.357422
  0
VERTEX
  8
84
  10
-202.042938
  20
1434.319580
  0
VERTEX
  8
84
  10
-194.164246
  20
1388.858643
  0
VERTEX
  8
84
  10
-203.514801
  20
1357.978027
  0
VERTEX
  8
84
  10
-242.793594
  20
1342.247559
  0
VERTEX
  8
84
  10
-238.978516
  20
1297.307861
  0
VERTEX
  8
84
  10
-235.213425
  20
1198.742188
  0
VERTEX
  8
84
  10
-233.773819
  20
1154.729492
  0
VERTEX
  8
84
  10
-237.886398
  20
893.007751
  0
SEQEND
  0
POINT
  8
2
  10
13.032791
  20
893.018738
  0
POINT
  8
2
  10
13.016891
  20
1462.437012
  0
POINT
  8
2
  10
-82.512909
  20
1596.224609
  0
POINT
  8
2
  10
-234.932297
  20
1539.167236
  0
POINT
  8
2
  10
-202.042938
  20
1434.319580
  0
POINT
  8
2
  10
-242.793594
  20
1342.247559
  0
POINT
  8
2
  10
-233.773819
  20
1154.729492
  0
POINT
  8
2
  10
-237.886398
  20
893.007751
  0
POINT
  8
3
  10
-47.417526
  20
1493.907471
  0
POINT
  8
3
  10
-69.510490
  20
1545.353516
  0
POINT
  8
3
  10
-143.255249
  20
1575.121338
  0
POINT
  8
3
  10
-196.219879
  20
1561.011475
  0
POINT
  8
3
  10
-225.939056
  20
1519.265869
  0
POINT
  8
3
  10
-210.299210
  20
1476.357422
  0
POINT
  8
3
  10
-194.164246
  20
1388.858643
  0
POINT
  8
3
  10
-203.514801
  20
1357.978027
  0
POINT
  8
3
  10
-238.978516
  20
1297.307861
  0
POINT
  8
3
  10
-235.213425
  20
1198.742188
  0
POLYLINE
  8
8
  66
1
  70
0
  250
0
  0
VERTEX
  8
8
  10
13.024292
  20
1154.737793
  0
VERTEX
  8
8
  10
-233.773819
  20
1154.729980
  0
SEQEND
  0
POINT
  8
2
  10
13.024292
  20
1154.737793
  0
POLYLINE
  8
8
  66
1
  70
0
  250
0
  0
VERTEX
  8
8
  10
13.022392
  20
1210.673096
  0
VERTEX
  8
8
  10
5.522392
  20
1208.663574
  0
VERTEX
  8
8
  10
0.032288
  20
1203.173096
  0
VERTEX
  8
8
  10
-1.977608
  20
1195.673096
  0
VERTEX
  8
8
  10
0.032288
  20
1188.173096
  0
VERTEX
  8
8
  10
5.522392
  20
1182.682739
  0
VERTEX
  8
8
  10
13.022392
  20
1180.673096
  0
SEQEND
  0
POINT
  8
2
  10
13.022392
  20
1210.673096
  0
POINT
  8
3
  10
5.522392
  20
1208.663574
  0
POINT
  8
3
  10
0.032288
  20
1203.173096
  0
POINT
  8
3
  10
-1.977608
  20
1195.673096
  0
POINT
  8
3
  10
0.032288
  20
1188.173096
  0
POINT
  8
3
  10
5.522392
  20
1182.682739
  0
POLYLINE
  8
8
  66
1
  70
0
  250
0
  0
VERTEX
  8
8
  10
12.890594
  20
1342.256104
  0
VERTEX
  8
8
  10
-242.793015
  20
1342.246948
  0
SEQEND
  0
POINT
  8
2
  10
12.890594
  20
1342.256104
  0
POLYLINE
  8
8
  66
1
  70
0
  250
0
  0
VERTEX
  8
8
  10
13.031593
  20
918.018738
  0
VERTEX
  8
8
  10
-237.887619
  20
918.007446
  0
SEQEND
  0
POINT
  8
2
  10
13.031593
  20
918.018738
  0
POLYLINE
  8
8
  66
1
  70
0
  250
0
  0
VERTEX
  8
8
  10
13.031593
  20
912.018677
  0
VERTEX
  8
8
  10
-237.887619
  20
912.007324
  0
SEQEND
  0
POINT
  8
2
  10
13.031593
  20
912.018677
  0
POLYLINE
  8
8
  66
1
  70
0
  250
0
  0
VERTEX
  8
8
  10
13.022392
  20
1203.173096
  0
VERTEX
  8
8
  10
9.272392
  20
1202.168213
  0
VERTEX
  8
8
  10
6.527092
  20
1199.423096
  0
VERTEX
  8
8
  10
5.522392
  20
1195.673096
  0
VERTEX
  8
8
  10
6.527092
  20
1191.923096
  0
VERTEX
  8
8
  10
9.272392
  20
1189.178223
  0
VERTEX
  8
8
  10
13.022392
  20
1188.173096
  0
SEQEND
  0
POINT
  8
2
  10
13.022392
  20
1203.173096
  0
POINT
  8
3
  10
9.272392
  20
1202.168213
  0
POINT
  8
3
  10
6.527092
  20
1199.423096
  0
POINT
  8
3
  10
5.522392
  20
1195.673096
  0
POINT
  8
3
  10
6.527092
  20
1191.923096
  0
POINT
  8
3
  10
9.272392
  20
1189.178223
  0
ENDBLK
  0
BLOCK
  8
0
  2
Pattern2D_768528_M
  70
64
  10
0
  20
0
  0
TEXT
  8
1
  10
-64.372009
  20
1684.000000
  50
0.000000
  51
0.000000
  71
0.000000
  1
PIECE NAME: Pattern2D_768528
  7
STANDARD
  0
TEXT
  8
1
  10
-64.372009
  20
1679.000000
  50
0.000000
  51
0.000000
  71
0.000000
  1
SIZE: M
  7
STANDARD
  0
TEXT
  8
1
  10
-64.372009
  20
1669.000000
  50
0.000000
  51
0.000000
  71
0.000000
  1
QUANTITY: 1
  7
STANDARD
  0
POLYLINE
  8
1
  66
1
  70
1
  250
2
  0
VERTEX
  8
1
  10
-141.776825
  20
1691.999878
  0
VERTEX
  8
1
  10
2.774567
  20
1691.999878
  0
VERTEX
  8
1
  10
13.032806
  20
1676.000122
  0
VERTEX
  8
1
  10
-141.776825
  20
1676.000366
  0
SEQEND
  0
POINT
  8
2
  10
-141.776825
  20
1691.999878
  0
POINT
  8
2
  10
2.774567
  20
1691.999878
  0
POINT
  8
2
  10
13.032806
  20
1676.000122
  0
POINT
  8
2
  10
-141.776825
  20
1676.000366
  0
POINT
  8
4
  10
-141.776825
  20
1676.000366
  50
135.000046
  0
LINE
  8
7
  10
-64.372009
  20
1594.000000
  11
-64.372009
  21
1774.000000
  0
POLYLINE
  8
84
  66
1
  70
1
  250
2
  0
VERTEX
  8
84
  10
-141.776825
  20
1691.999878
  0
VERTEX
  8
84
  10
2.774567
  20
1691.999878
  0
VERTEX
  8
84
  10
13.032806
  20
1676.000122
  0
VERTEX
  8
84
  10
-141.776825
  20
1676.000366
  0
SEQEND
  0
POINT
  8
2
  10
-141.776825
  20
1691.999878
  0
POINT
  8
2
  10
2.774567
  20
1691.999878
  0
POINT
  8
2
  10
13.032806
  20
1676.000122
  0
POINT
  8
2
  10
-141.776825
  20
1676.000366
  0
POLYLINE
  8
8
  66
1
  70
0
  250
0
  0
VERTEX
  8
8
  10
-141.776825
  20
1676.000366
  0
VERTEX
  8
8
  10
-141.776825
  20
1692.000366
  0
SEQEND
  0
POINT
  8
2
  10
-141.776825
  20
1676.000366
  0
ENDBLK
  0
BLOCK
  8
0
  2
38_M
  70
64
  10
0
  20
0
  0
TEXT
  8
1
  10
1305.325684
  20
1257.523682
  50
0.000000
  51
0.000000
  71
0.000000
  1
PIECE NAME: 38
  7
STANDARD
  0
TEXT
  8
1
  10
1305.325684
  20
1252.523682
  50
0.000000
  51
0.000000
  71
0.000000
  1
SIZE: M
  7
STANDARD
  0
TEXT
  8
1
  10
1305.325684
  20
1242.523682
  50
0.000000
  51
0.000000
  71
0.000000
  1
QUANTITY: 1
  7
STANDARD
  0
POLYLINE
  8
1
  66
1
  70
1
  250
2
  0
VERTEX
  8
1
  10
1428.035645
  20
893.016296
  0
VERTEX
  8
1
  10
1423.907227
  20
1154.720703
  0
VERTEX
  8
1
  10
1424.226685
  20
1165.163086
  0
VERTEX
  8
1
  10
1424.565430
  20
1175.477539
  0
VERTEX
  8
1
  10
1424.921143
  20
1185.646851
  0
VERTEX
  8
1
  10
1425.291626
  20
1195.653687
  0
VERTEX
  8
1
  10
1425.674683
  20
1205.480591
  0
VERTEX
  8
1
  10
1426.068115
  20
1215.110352
  0
VERTEX
  8
1
  10
1426.469604
  20
1224.525391
  0
VERTEX
  8
1
  10
1426.877075
  20
1233.708496
  0
VERTEX
  8
1
  10
1427.288208
  20
1242.642334
  0
VERTEX
  8
1
  10
1427.700928
  20
1251.309570
  0
VERTEX
  8
1
  10
1428.112915
  20
1259.692749
  0
VERTEX
  8
1
  10
1428.521973
  20
1267.774658
  0
VERTEX
  8
1
  10
1428.925781
  20
1275.537842
  0
VERTEX
  8
1
  10
1429.322388
  20
1282.964844
  0
VERTEX
  8
1
  10
1429.709351
  20
1290.038574
  0
VERTEX
  8
1
  10
1430.084595
  20
1296.741455
  0
VERTEX
  8
1
  10
1430.445923
  20
1303.056274
  0
VERTEX
  8
1
  10
1430.790894
  20
1308.965576
  0
VERTEX
  8
1
  10
1431.117554
  20
1314.452148
  0
VERTEX
  8
1
  10
1431.423584
  20
1319.498535
  0
VERTEX
  8
1
  10
1431.706787
  20
1324.087280
  0
VERTEX
  8
1
  10
1431.965088
  20
1328.201294
  0
VERTEX
  8
1
  10
1432.195923
  20
1331.822998
  0
VERTEX
  8
1
  10
1432.397461
  20
1334.935059
  0
VERTEX
  8
1
  10
1432.567261
  20
1337.520264
  0
VERTEX
  8
1
  10
1432.703125
  20
1339.561279
  0
VERTEX
  8
1
  10
1432.802979
  20
1341.040527
  0
VERTEX
  8
1
  10
1432.864502
  20
1341.940796
  0
VERTEX
  8
1
  10
1432.885498
  20
1342.244751
  0
VERTEX
  8
1
  10
1428.796997
  20
1344.919434
  0
VERTEX
  8
1
  10
1425.061523
  20
1347.860962
  0
VERTEX
  8
1
  10
1421.664185
  20
1351.048340
  0
VERTEX
  8
1
  10
1418.589966
  20
1354.460815
  0
VERTEX
  8
1
  10
1415.824097
  20
1358.077271
  0
VERTEX
  8
1
  10
1413.351807
  20
1361.877075
  0
VERTEX
  8
1
  10
1411.158203
  20
1365.839111
  0
VERTEX
  8
1
  10
1409.228271
  20
1369.942383
  0
VERTEX
  8
1
  10
1407.547485
  20
1374.166260
  0
VERTEX
  8
1
  10
1406.100708
  20
1378.489746
  0
VERTEX
  8
1
  10
1404.873169
  20
1382.891846
  0
VERTEX
  8
1
  10
1403.850098
  20
1387.351563
  0
VERTEX
  8
1
  10
1403.016602
  20
1391.848267
  0
VERTEX
  8
1
  10
1402.357788
  20
1396.360840
  0
VERTEX
  8
1
  10
1401.858765
  20
1400.868408
  0
VERTEX
  8
1
  10
1401.504761
  20
1405.350098
  0
VERTEX
  8
1
  10
1401.280884
  20
1409.784912
  0
VERTEX
  8
1
  10
1401.172241
  20
1414.152100
  0
VERTEX
  8
1
  10
1401.164185
  20
1418.430664
  0
VERTEX
  8
1
  10
1401.241577
  20
1422.599731
  0
VERTEX
  8
1
  10
1401.389771
  20
1426.638306
  0
VERTEX
  8
1
  10
1401.593750
  20
1430.525513
  0
VERTEX
  8
1
  10
1401.838867
  20
1434.240479
  0
VERTEX
  8
1
  10
1402.110107
  20
1437.762207
  0
VERTEX
  8
1
  10
1402.392578
  20
1441.069946
  0
VERTEX
  8
1
  10
1402.671631
  20
1444.142700
  0
VERTEX
  8
1
  10
1402.932251
  20
1446.959473
  0
VERTEX
  8
1
  10
1403.159546
  20
1449.499512
  0
VERTEX
  8
1
  10
1403.338867
  20
1451.741943
  0
VERTEX
  8
1
  10
1403.526001
  20
1453.915649
  0
VERTEX
  8
1
  10
1403.793701
  20
1456.370850
  0
VERTEX
  8
1
  10
1404.139893
  20
1459.091309
  0
VERTEX
  8
1
  10
1404.562256
  20
1462.061279
  0
VERTEX
  8
1
  10
1405.058838
  20
1465.264404
  0
VERTEX
  8
1
  10
1405.627197
  20
1468.685059
  0
VERTEX
  8
1
  10
1406.265381
  20
1472.307007
  0
VERTEX
  8
1
  10
1406.971191
  20
1476.114258
  0
VERTEX
  8
1
  10
1407.742310
  20
1480.091064
  0
VERTEX
  8
1
  10
1408.576660
  20
1484.221069
  0
VERTEX
  8
1
  10
1409.471924
  20
1488.488403
  0
VERTEX
  8
1
  10
1410.426270
  20
1492.877197
  0
VERTEX
  8
1
  10
1411.437134
  20
1497.371216
  0
VERTEX
  8
1
  10
1412.502563
  20
1501.954590
  0
VERTEX
  8
1
  10
1413.620239
  20
1506.611450
  0
VERTEX
  8
1
  10
1414.788208
  20
1511.325562
  0
VERTEX
  8
1
  10
1416.004028
  20
1516.081055
  0
VERTEX
  8
1
  10
1417.265747
  20
1520.861816
  0
VERTEX
  8
1
  10
1418.571045
  20
1525.652100
  0
VERTEX
  8
1
  10
1419.917725
  20
1530.435547
  0
VERTEX
  8
1
  10
1421.303711
  20
1535.196533
  0
VERTEX
  8
1
  10
1422.726807
  20
1539.918701
  0
VERTEX
  8
1
  10
1424.184814
  20
1544.586304
  0
VERTEX
  8
1
  10
1425.675537
  20
1549.183228
  0
VERTEX
  8
1
  10
1427.196777
  20
1553.693481
  0
VERTEX
  8
1
  10
1428.746460
  20
1558.101074
  0
VERTEX
  8
1
  10
1430.322388
  20
1562.390015
  0
VERTEX
  8
1
  10
1431.922363
  20
1566.544312
  0
VERTEX
  8
1
  10
1433.544067
  20
1570.547974
  0
VERTEX
  8
1
  10
1429.240234
  20
1572.683594
  0
VERTEX
  8
1
  10
1424.861084
  20
1574.760132
  0
VERTEX
  8
1
  10
1420.406494
  20
1576.780884
  0
VERTEX
  8
1
  10
1415.876465
  20
1578.749878
  0
VERTEX
  8
1
  10
1411.271362
  20
1580.670654
  0
VERTEX
  8
1
  10
1406.591064
  20
1582.547119
  0
VERTEX
  8
1
  10
1401.835571
  20
1584.382813
  0
VERTEX
  8
1
  10
1397.005127
  20
1586.181641
  0
VERTEX
  8
1
  10
1392.099731
  20
1587.947266
  0
VERTEX
  8
1
  10
1387.119385
  20
1589.683472
  0
VERTEX
  8
1
  10
1382.064209
  20
1591.393799
  0
VERTEX
  8
1
  10
1376.934326
  20
1593.082397
  0
VERTEX
  8
1
  10
1371.729736
  20
1594.752563
  0
VERTEX
  8
1
  10
1366.450439
  20
1596.408203
  0
VERTEX
  8
1
  10
1361.096802
  20
1598.053101
  0
VERTEX
  8
1
  10
1355.668457
  20
1599.690918
  0
VERTEX
  8
1
  10
1350.165894
  20
1601.325439
  0
VERTEX
  8
1
  10
1344.588867
  20
1602.960449
  0
VERTEX
  8
1
  10
1338.937622
  20
1604.599487
  0
VERTEX
  8
1
  10
1333.212036
  20
1606.246460
  0
VERTEX
  8
1
  10
1327.412476
  20
1607.905029
  0
VERTEX
  8
1
  10
1321.538818
  20
1609.578857
  0
VERTEX
  8
1
  10
1315.591064
  20
1611.271973
  0
VERTEX
  8
1
  10
1309.569458
  20
1612.987793
  0
VERTEX
  8
1
  10
1303.473999
  20
1614.730103
  0
VERTEX
  8
1
  10
1297.304810
  20
1616.502686
  0
VERTEX
  8
1
  10
1291.061768
  20
1618.309326
  0
VERTEX
  8
1
  10
1284.745117
  20
1620.153809
  0
VERTEX
  8
1
  10
1278.354858
  20
1622.039673
  0
VERTEX
  8
1
  10
1276.106567
  20
1618.602539
  0
VERTEX
  8
1
  10
1273.909302
  20
1615.361206
  0
VERTEX
  8
1
  10
1271.747314
  20
1612.309692
  0
VERTEX
  8
1
  10
1269.605225
  20
1609.442261
  0
VERTEX
  8
1
  10
1267.467651
  20
1606.753052
  0
VERTEX
  8
1
  10
1265.318848
  20
1604.236694
  0
VERTEX
  8
1
  10
1263.143311
  20
1601.887085
  0
VERTEX
  8
1
  10
1260.925537
  20
1599.698730
  0
VERTEX
  8
1
  10
1258.650146
  20
1597.665771
  0
VERTEX
  8
1
  10
1256.301392
  20
1595.782349
  0
VERTEX
  8
1
  10
1253.863892
  20
1594.042847
  0
VERTEX
  8
1
  10
1251.322144
  20
1592.441650
  0
VERTEX
  8
1
  10
1248.660400
  20
1590.972656
  0
VERTEX
  8
1
  10
1245.863403
  20
1589.630493
  0
VERTEX
  8
1
  10
1242.915527
  20
1588.409302
  0
VERTEX
  8
1
  10
1239.801270
  20
1587.303223
  0
VERTEX
  8
1
  10
1236.505005
  20
1586.306519
  0
VERTEX
  8
1
  10
1233.011230
  20
1585.413574
  0
VERTEX
  8
1
  10
1229.304565
  20
1584.618652
  0
VERTEX
  8
1
  10
1225.369385
  20
1583.915771
  0
VERTEX
  8
1
  10
1221.190063
  20
1583.299438
  0
VERTEX
  8
1
  10
1216.751221
  20
1582.763916
  0
VERTEX
  8
1
  10
1212.037231
  20
1582.303223
  0
VERTEX
  8
1
  10
1207.032715
  20
1581.911865
  0
VERTEX
  8
1
  10
1201.722046
  20
1581.583862
  0
VERTEX
  8
1
  10
1196.089722
  20
1581.313721
  0
VERTEX
  8
1
  10
1190.120117
  20
1581.095459
  0
VERTEX
  8
1
  10
1183.797852
  20
1580.923584
  0
VERTEX
  8
1
  10
1177.107300
  20
1580.792236
  0
VERTEX
  8
1
  10
1177.131104
  20
893.007690
  0
SEQEND
  0
POINT
  8
2
  10
1428.035645
  20
893.016296
  0
POINT
  8
2
  10
1423.907227
  20
1154.720703
  0
POINT
  8
2
  10
1432.885498
  20
1342.244751
  0
POINT
  8
2
  10
1403.338867
  20
1451.741943
  0
POINT
  8
2
  10
1433.544067
  20
1570.547974
  0
POINT
  8
2
  10
1278.354858
  20
1622.039673
  0
POINT
  8
2
  10
1177.107300
  20
1580.792236
  0
POINT
  8
2
  10
1177.131104
  20
893.007690
  0
POINT
  8
3
  10
1424.226685
  20
1165.163086
  0
POINT
  8
3
  10
1424.565430
  20
1175.477539
  0
POINT
  8
3
  10
1424.921143
  20
1185.646851
  0
POINT
  8
3
  10
1425.291626
  20
1195.653687
  0
POINT
  8
3
  10
1425.674683
  20
1205.480591
  0
POINT
  8
3
  10
1426.068115
  20
1215.110352
  0
POINT
  8
3
  10
1426.469604
  20
1224.525391
  0
POINT
  8
3
  10
1426.877075
  20
1233.708496
  0
POINT
  8
3
  10
1427.288208
  20
1242.642334
  0
POINT
  8
3
  10
1427.700928
  20
1251.309570
  0
POINT
  8
3
  10
1428.112915
  20
1259.692749
  0
POINT
  8
3
  10
1428.521973
  20
1267.774658
  0
POINT
  8
3
  10
1428.925781
  20
1275.537842
  0
POINT
  8
3
  10
1429.322388
  20
1282.964844
  0
POINT
  8
3
  10
1429.709351
  20
1290.038574
  0
POINT
  8
3
  10
1430.084595
  20
1296.741455
  0
POINT
  8
3
  10
1430.445923
  20
1303.056274
  0
POINT
  8
3
  10
1430.790894
  20
1308.965576
  0
POINT
  8
3
  10
1431.117554
  20
1314.452148
  0
POINT
  8
3
  10
1431.423584
  20
1319.498535
  0
POINT
  8
3
  10
1431.706787
  20
1324.087280
  0
POINT
  8
3
  10
1431.965088
  20
1328.201294
  0
POINT
  8
3
  10
1432.195923
  20
1331.822998
  0
POINT
  8
3
  10
1432.397461
  20
1334.935059
  0
POINT
  8
3
  10
1432.567261
  20
1337.520264
  0
POINT
  8
3
  10
1432.703125
  20
1339.561279
  0
POINT
  8
3
  10
1432.802979
  20
1341.040527
  0
POINT
  8
3
  10
1432.864502
  20
1341.940796
  0
POINT
  8
3
  10
1428.796997
  20
1344.919434
  0
POINT
  8
3
  10
1425.061523
  20
1347.860962
  0
POINT
  8
3
  10
1421.664185
  20
1351.048340
  0
POINT
  8
3
  10
1418.589966
  20
1354.460815
  0
POINT
  8
3
  10
1415.824097
  20
1358.077271
  0
POINT
  8
3
  10
1413.351807
  20
1361.877075
  0
POINT
  8
3
  10
1411.158203
  20
1365.839111
  0
POINT
  8
3
  10
1409.228271
  20
1369.942383
  0
POINT
  8
3
  10
1407.547485
  20
1374.166260
  0
POINT
  8
3
  10
1406.100708
  20
1378.489746
  0
POINT
  8
3
  10
1404.873169
  20
1382.891846
  0
POINT
  8
3
  10
1403.850098
  20
1387.351563
  0
POINT
  8
3
  10
1403.016602
  20
1391.848267
  0
POINT
  8
3
  10
1402.357788
  20
1396.360840
  0
POINT
  8
3
  10
1401.858765
  20
1400.868408
  0
POINT
  8
3
  10
1401.504761
  20
1405.350098
  0
POINT
  8
3
  10
1401.280884
  20
1409.784912
  0
POINT
  8
3
  10
1401.172241
  20
1414.152100
  0
POINT
  8
3
  10
1401.164185
  20
1418.430664
  0
POINT
  8
3
  10
1401.241577
  20
1422.599731
  0
POINT
  8
3
  10
1401.389771
  20
1426.638306
  0
POINT
  8
3
  10
1401.593750
  20
1430.525513
  0
POINT
  8
3
  10
1401.838867
  20
1434.240479
  0
POINT
  8
3
  10
1402.110107
  20
1437.762207
  0
POINT
  8
3
  10
1402.392578
  20
1441.069946
  0
POINT
  8
3
  10
1402.671631
  20
1444.142700
  0
POINT
  8
3
  10
1402.932251
  20
1446.959473
  0
POINT
  8
3
  10
1403.159546
  20
1449.499512
  0
POINT
  8
3
  10
1403.526001
  20
1453.915649
  0
POINT
  8
3
  10
1403.793701
  20
1456.370850
  0
POINT
  8
3
  10
1404.139893
  20
1459.091309
  0
POINT
  8
3
  10
1404.562256
  20
1462.061279
  0
POINT
  8
3
  10
1405.058838
  20
1465.264404
  0
POINT
  8
3
  10
1405.627197
  20
1468.685059
  0
POINT
  8
3
  10
1406.265381
  20
1472.307007
  0
POINT
  8
3
  10
1406.971191
  20
1476.114258
  0
POINT
  8
3
  10
1407.742310
  20
1480.091064
  0
POINT
  8
3
  10
1408.576660
  20
1484.221069
  0
POINT
  8
3
  10
1409.471924
  20
1488.488403
  0
POINT
  8
3
  10
1410.426270
  20
1492.877197
  0
POINT
  8
3
  10
1411.437134
  20
1497.371216
  0
POINT
  8
3
  10
1412.502563
  20
1501.954590
  0
POINT
  8
3
  10
1413.620239
  20
1506.611450
  0
POINT
  8
3
  10
1414.788208
  20
1511.325562
  0
POINT
  8
3
  10
1416.004028
  20
1516.081055
  0
POINT
  8
3
  10
1417.265747
  20
1520.861816
  0
POINT
  8
3
  10
1418.571045
  20
1525.652100
  0
POINT
  8
3
  10
1419.917725
  20
1530.435547
  0
POINT
  8
3
  10
1421.303711
  20
1535.196533
  0
POINT
  8
3
  10
1422.726807
  20
1539.918701
  0
POINT
  8
3
  10
1424.184814
  20
1544.586304
  0
POINT
  8
3
  10
1425.675537
  20
1549.183228
  0
POINT
  8
3
  10
1427.196777
  20
1553.693481
  0
POINT
  8
3
  10
1428.746460
  20
1558.101074
  0
POINT
  8
3
  10
1430.322388
  20
1562.390015
  0
POINT
  8
3
  10
1431.922363
  20
1566.544312
  0
POINT
  8
3
  10
1429.240234
  20
1572.683594
  0
POINT
  8
3
  10
1424.861084
  20
1574.760132
  0
POINT
  8
3
  10
1420.406494
  20
1576.780884
  0
POINT
  8
3
  10
1415.876465
  20
1578.749878
  0
POINT
  8
3
  10
1411.271362
  20
1580.670654
  0
POINT
  8
3
  10
1406.591064
  20
1582.547119
  0
POINT
  8
3
  10
1401.835571
  20
1584.382813
  0
POINT
  8
3
  10
1397.005127
  20
1586.181641
  0
POINT
  8
3
  10
1392.099731
  20
1587.947266
  0
POINT
  8
3
  10
1387.119385
  20
1589.683472
  0
POINT
  8
3
  10
1382.064209
  20
1591.393799
  0
POINT
  8
3
  10
1376.934326
  20
1593.082397
  0
POINT
  8
3
  10
1371.729736
  20
1594.752563
  0
POINT
  8
3
  10
1366.450439
  20
1596.408203
  0
POINT
  8
3
  10
1361.096802
  20
1598.053101
  0
POINT
  8
3
  10
1355.668457
  20
1599.690918
  0
POINT
  8
3
  10
1350.165894
  20
1601.325439
  0
POINT
  8
3
  10
1344.588867
  20
1602.960449
  0
POINT
  8
3
  10
1338.937622
  20
1604.599487
  0
POINT
  8
3
  10
1333.212036
  20
1606.246460
  0
POINT
  8
3
  10
1327.412476
  20
1607.905029
  0
POINT
  8
3
  10
1321.538818
  20
1609.578857
  0
POINT
  8
3
  10
1315.591064
  20
1611.271973
  0
POINT
  8
3
  10
1309.569458
  20
1612.987793
  0
POINT
  8
3
  10
1303.473999
  20
1614.730103
  0
POINT
  8
3
  10
1297.304810
  20
1616.502686
  0
POINT
  8
3
  10
1291.061768
  20
1618.309326
  0
POINT
  8
3
  10
1284.745117
  20
1620.153809
  0
POINT
  8
3
  10
1276.106567
  20
1618.602539
  0
POINT
  8
3
  10
1273.909302
  20
1615.361206
  0
POINT
  8
3
  10
1271.747314
  20
1612.309692
  0
POINT
  8
3
  10
1269.605225
  20
1609.442261
  0
POINT
  8
3
  10
1267.467651
  20
1606.753052
  0
POINT
  8
3
  10
1265.318848
  20
1604.236694
  0
POINT
  8
3
  10
1263.143311
  20
1601.887085
  0
POINT
  8
3
  10
1260.925537
  20
1599.698730
  0
POINT
  8
3
  10
1258.650146
  20
1597.665771
  0
POINT
  8
3
  10
1256.301392
  20
1595.782349
  0
POINT
  8
3
  10
1253.863892
  20
1594.042847
  0
POINT
  8
3
  10
1251.322144
  20
1592.441650
  0
POINT
  8
3
  10
1248.660400
  20
1590.972656
  0
POINT
  8
3
  10
1245.863403
  20
1589.630493
  0
POINT
  8
3
  10
1242.915527
  20
1588.409302
  0
POINT
  8
3
  10
1239.801270
  20
1587.303223
  0
POINT
  8
3
  10
1236.505005
  20
1586.306519
  0
POINT
  8
3
  10
1233.011230
  20
1585.413574
  0
POINT
  8
3
  10
1229.304565
  20
1584.618652
  0
POINT
  8
3
  10
1225.369385
  20
1583.915771
  0
POINT
  8
3
  10
1221.190063
  20
1583.299438
  0
POINT
  8
3
  10
1216.751221
  20
1582.763916
  0
POINT
  8
3
  10
1212.037231
  20
1582.303223
  0
POINT
  8
3
  10
1207.032715
  20
1581.911865
  0
POINT
  8
3
  10
1201.722046
  20
1581.583862
  0
POINT
  8
3
  10
1196.089722
  20
1581.313721
  0
POINT
  8
3
  10
1190.120117
  20
1581.095459
  0
POINT
  8
3
  10
1183.797852
  20
1580.923584
  0
POINT
  8
4
  10
1403.338867
  20
1451.741943
  50
184.745285
  0
POINT
  8
4
  10
1404.507446
  20
1461.675781
  50
187.662827
  0
LINE
  8
7
  10
1305.325684
  20
1167.523682
  11
1305.325684
  21
1347.523682
  0
POLYLINE
  8
84
  66
1
  70
1
  250
2
  0
VERTEX
  8
84
  10
1428.035645
  20
893.016296
  0
VERTEX
  8
84
  10
1423.907227
  20
1154.720703
  0
VERTEX
  8
84
  10
1426.896240
  20
1256.225342
  0
VERTEX
  8
84
  10
1432.885498
  20
1342.244751
  0
VERTEX
  8
84
  10
1432.885498
  20
1342.244751
  0
VERTEX
  8
84
  10
1391.610352
  20
1366.742798
  0
VERTEX
  8
84
  10
1401.886108
  20
1431.572510
  0
VERTEX
  8
84
  10
1403.338867
  20
1451.741943
  0
VERTEX
  8
84
  10
1404.750732
  20
1471.343750
  0
VERTEX
  8
84
  10
1417.768311
  20
1532.625977
  0
VERTEX
  8
84
  10
1433.544067
  20
1570.547974
  0
VERTEX
  8
84
  10
1392.305664
  20
1591.492188
  0
VERTEX
  8
84
  10
1340.482544
  20
1603.596802
  0
VERTEX
  8
84
  10
1278.354858
  20
1622.039673
  0
VERTEX
  8
84
  10
1256.325073
  20
1587.851074
  0
VERTEX
  8
84
  10
1243.612305
  20
1581.885254
  0
VERTEX
  8
84
  10
1177.107300
  20
1580.792236
  0
VERTEX
  8
84
  10
1177.131104
  20
893.007690
  0
SEQEND
  0
POINT
  8
2
  10
1428.035645
  20
893.016296
  0
POINT
  8
2
  10
1423.907227
  20
1154.720703
  0
POINT
  8
2
  10
1432.885498
  20
1342.244751
  0
POINT
  8
2
  10
1403.338867
  20
1451.741943
  0
POINT
  8
2
  10
1433.544067
  20
1570.547974
  0
POINT
  8
2
  10
1278.354858
  20
1622.039673
  0
POINT
  8
2
  10
1177.107300
  20
1580.792236
  0
POINT
  8
2
  10
1177.131104
  20
893.007690
  0
POINT
  8
3
  10
1426.896240
  20
1256.225342
  0
POINT
  8
3
  10
1391.610352
  20
1366.742798
  0
POINT
  8
3
  10
1401.886108
  20
1431.572510
  0
POINT
  8
3
  10
1404.750732
  20
1471.343750
  0
POINT
  8
3
  10
1417.768311
  20
1532.625977
  0
POINT
  8
3
  10
1392.305664
  20
1591.492188
  0
POINT
  8
3
  10
1340.482544
  20
1603.596802
  0
POINT
  8
3
  10
1256.325073
  20
1587.851074
  0
POINT
  8
3
  10
1243.612305
  20
1581.885254
  0
POLYLINE
  8
8
  66
1
  70
0
  250
0
  0
VERTEX
  8
8
  10
1177.120117
  20
1184.668457
  0
VERTEX
  8
8
  10
1184.620117
  20
1186.678101
  0
VERTEX
  8
8
  10
1190.110229
  20
1192.168457
  0
VERTEX
  8
8
  10
1192.120117
  20
1199.668457
  0
VERTEX
  8
8
  10
1190.110229
  20
1207.168457
  0
VERTEX
  8
8
  10
1184.620117
  20
1212.658936
  0
VERTEX
  8
8
  10
1177.120117
  20
1214.668457
  0
SEQEND
  0
POINT
  8
2
  10
1177.120117
  20
1184.668457
  0
POINT
  8
3
  10
1184.620117
  20
1186.678101
  0
POINT
  8
3
  10
1190.110229
  20
1192.168457
  0
POINT
  8
3
  10
1192.120117
  20
1199.668457
  0
POINT
  8
3
  10
1190.110229
  20
1207.168457
  0
POINT
  8
3
  10
1184.620117
  20
1212.658936
  0
POLYLINE
  8
8
  66
1
  70
0
  250
0
  0
VERTEX
  8
8
  10
1177.120117
  20
1192.168457
  0
VERTEX
  8
8
  10
1180.870117
  20
1193.173462
  0
VERTEX
  8
8
  10
1183.615479
  20
1195.918457
  0
VERTEX
  8
8
  10
1184.620117
  20
1199.668457
  0
VERTEX
  8
8
  10
1183.615479
  20
1203.418457
  0
VERTEX
  8
8
  10
1180.870117
  20
1206.163574
  0
VERTEX
  8
8
  10
1177.120117
  20
1207.168457
  0
SEQEND
  0
POINT
  8
2
  10
1177.120117
  20
1192.168457
  0
POINT
  8
3
  10
1180.870117
  20
1193.173462
  0
POINT
  8
3
  10
1183.615479
  20
1195.918457
  0
POINT
  8
3
  10
1184.620117
  20
1199.668457
  0
POINT
  8
3
  10
1183.615479
  20
1203.418457
  0
POINT
  8
3
  10
1180.870117
  20
1206.163574
  0
POLYLINE
  8
8
  66
1
  70
0
  250
0
  0
VERTEX
  8
8
  10
1423.906616
  20
1154.720703
  0
VERTEX
  8
8
  10
1177.095703
  20
1154.712158
  0
SEQEND
  0
POINT
  8
2
  10
1423.906616
  20
1154.720703
  0
POLYLINE
  8
8
  66
1
  70
0
  250
0
  0
VERTEX
  8
8
  10
1432.885498
  20
1342.245361
  0
VERTEX
  8
8
  10
1177.209229
  20
1342.235718
  0
SEQEND
  0
POINT
  8
2
  10
1432.885498
  20
1342.245361
  0
POLYLINE
  8
8
  66
1
  70
0
  250
0
  0
VERTEX
  8
8
  10
1177.129883
  20
918.007385
  0
VERTEX
  8
8
  10
1428.034424
  20
918.016296
  0
SEQEND
  0
POINT
  8
2
  10
1177.129883
  20
918.007385
  0
POLYLINE
  8
8
  66
1
  70
0
  250
0
  0
VERTEX
  8
8
  10
1177.130493
  20
912.007385
  0
VERTEX
  8
8
  10
1428.035034
  20
912.016174
  0
SEQEND
  0
POINT
  8
2
  10
1177.130493
  20
912.007385
  0
POLYLINE
  8
8
  66
1
  70
0
  250
0
  0
VERTEX
  8
8
  10
1271.121582
  20
1610.697266
  0
VERTEX
  8
8
  10
1353.956055
  20
1586.521484
  0
VERTEX
  8
8
  10
1370.505737
  20
1581.627686
  0
VERTEX
  8
8
  10
1386.877808
  20
1576.171875
  0
VERTEX
  8
8
  10
1403.011230
  20
1570.045410
  0
VERTEX
  8
8
  10
1418.877319
  20
1563.259277
  0
VERTEX
  8
8
  10
1429.969727
  20
1558.043457
  0
SEQEND
  0
POINT
  8
2
  10
1271.121582
  20
1610.697266
  0
POINT
  8
3
  10
1353.956055
  20
1586.521484
  0
POINT
  8
3
  10
1370.505737
  20
1581.627686
  0
POINT
  8
3
  10
1386.877808
  20
1576.171875
  0
POINT
  8
3
  10
1403.011230
  20
1570.045410
  0
POINT
  8
3
  10
1418.877319
  20
1563.259277
  0
ENDBLK
  0
BLOCK
  8
0
  2
39_M
  70
64
  10
0
  20
0
  0
TEXT
  8
1
  10
-522.855591
  20
1351.513672
  50
0.000000
  51
0.000000
  71
0.000000
  1
PIECE NAME: 39
  7
STANDARD
  0
TEXT
  8
1
  10
-522.855591
  20
1346.513672
  50
0.000000
  51
0.000000
  71
0.000000
  1
SIZE: M
  7
STANDARD
  0
TEXT
  8
1
  10
-522.855591
  20
1336.513672
  50
0.000000
  51
0.000000
  71
0.000000
  1
QUANTITY: 1
  7
STANDARD
  0
POLYLINE
  8
1
  66
1
  70
1
  250
2
  0
VERTEX
  8
1
  10
-343.787537
  20
1263.065552
  0
VERTEX
  8
1
  10
-318.371338
  20
1340.786743
  0
VERTEX
  8
1
  10
-322.130920
  20
1341.532349
  0
VERTEX
  8
1
  10
-325.823853
  20
1342.320801
  0
VERTEX
  8
1
  10
-329.454468
  20
1343.154663
  0
VERTEX
  8
1
  10
-333.026978
  20
1344.036499
  0
VERTEX
  8
1
  10
-336.545532
  20
1344.968628
  0
VERTEX
  8
1
  10
-340.014343
  20
1345.953613
  0
VERTEX
  8
1
  10
-343.437744
  20
1346.994141
  0
VERTEX
  8
1
  10
-346.819855
  20
1348.092407
  0
VERTEX
  8
1
  10
-350.164856
  20
1349.250977
  0
VERTEX
  8
1
  10
-353.477051
  20
1350.472534
  0
VERTEX
  8
1
  10
-356.760681
  20
1351.759399
  0
VERTEX
  8
1
  10
-360.019836
  20
1353.114136
  0
VERTEX
  8
1
  10
-363.258850
  20
1354.539185
  0
VERTEX
  8
1
  10
-366.481873
  20
1356.037109
  0
VERTEX
  8
1
  10
-369.693176
  20
1357.610352
  0
VERTEX
  8
1
  10
-372.896912
  20
1359.261353
  0
VERTEX
  8
1
  10
-376.097351
  20
1360.992798
  0
VERTEX
  8
1
  10
-379.298706
  20
1362.807007
  0
VERTEX
  8
1
  10
-382.505188
  20
1364.706421
  0
VERTEX
  8
1
  10
-385.721008
  20
1366.693726
  0
VERTEX
  8
1
  10
-388.950378
  20
1368.771362
  0
VERTEX
  8
1
  10
-392.197540
  20
1370.941772
  0
VERTEX
  8
1
  10
-395.466675
  20
1373.207520
  0
VERTEX
  8
1
  10
-398.762024
  20
1375.570923
  0
VERTEX
  8
1
  10
-402.087830
  20
1378.034790
  0
VERTEX
  8
1
  10
-405.448273
  20
1380.601318
  0
VERTEX
  8
1
  10
-408.847565
  20
1383.273071
  0
VERTEX
  8
1
  10
-412.289978
  20
1386.052612
  0
VERTEX
  8
1
  10
-415.779633
  20
1388.942383
  0
VERTEX
  8
1
  10
-419.443542
  20
1391.893433
  0
VERTEX
  8
1
  10
-423.015594
  20
1394.732666
  0
VERTEX
  8
1
  10
-426.503540
  20
1397.461670
  0
VERTEX
  8
1
  10
-429.914948
  20
1400.082275
  0
VERTEX
  8
1
  10
-433.257446
  20
1402.596313
  0
VERTEX
  8
1
  10
-436.538605
  20
1405.005493
  0
VERTEX
  8
1
  10
-439.766144
  20
1407.311523
  0
VERTEX
  8
1
  10
-442.947571
  20
1409.516113
  0
VERTEX
  8
1
  10
-446.090576
  20
1411.621094
  0
VERTEX
  8
1
  10
-449.202789
  20
1413.628052
  0
VERTEX
  8
1
  10
-452.291809
  20
1415.538940
  0
VERTEX
  8
1
  10
-455.365204
  20
1417.355225
  0
VERTEX
  8
1
  10
-458.430664
  20
1419.078979
  0
VERTEX
  8
1
  10
-461.495819
  20
1420.711670
  0
VERTEX
  8
1
  10
-464.568207
  20
1422.255127
  0
VERTEX
  8
1
  10
-467.655548
  20
1423.711060
  0
VERTEX
  8
1
  10
-470.765381
  20
1425.081299
  0
VERTEX
  8
1
  10
-473.905334
  20
1426.367554
  0
VERTEX
  8
1
  10
-477.083099
  20
1427.571533
  0
VERTEX
  8
1
  10
-480.306213
  20
1428.694946
  0
VERTEX
  8
1
  10
-483.582336
  20
1429.739624
  0
VERTEX
  8
1
  10
-486.919098
  20
1430.707153
  0
VERTEX
  8
1
  10
-490.324097
  20
1431.599487
  0
VERTEX
  8
1
  10
-493.804932
  20
1432.418213
  0
VERTEX
  8
1
  10
-497.369263
  20
1433.165161
  0
VERTEX
  8
1
  10
-501.024719
  20
1433.841919
  0
VERTEX
  8
1
  10
-504.778870
  20
1434.450439
  0
VERTEX
  8
1
  10
-508.639374
  20
1434.992310
  0
VERTEX
  8
1
  10
-512.613831
  20
1435.469360
  0
VERTEX
  8
1
  10
-517.843933
  20
1435.838501
  0
VERTEX
  8
1
  10
-522.984863
  20
1436.021729
  0
VERTEX
  8
1
  10
-528.035522
  20
1436.027588
  0
VERTEX
  8
1
  10
-532.994995
  20
1435.864258
  0
VERTEX
  8
1
  10
-537.862122
  20
1435.540161
  0
VERTEX
  8
1
  10
-542.635986
  20
1435.063721
  0
VERTEX
  8
1
  10
-547.315491
  20
1434.443237
  0
VERTEX
  8
1
  10
-551.899658
  20
1433.687134
  0
VERTEX
  8
1
  10
-556.387390
  20
1432.803833
  0
VERTEX
  8
1
  10
-560.777710
  20
1431.801514
  0
VERTEX
  8
1
  10
-565.069580
  20
1430.688721
  0
VERTEX
  8
1
  10
-569.261963
  20
1429.473877
  0
VERTEX
  8
1
  10
-573.353882
  20
1428.165039
  0
VERTEX
  8
1
  10
-577.344177
  20
1426.770874
  0
VERTEX
  8
1
  10
-581.231934
  20
1425.299683
  0
VERTEX
  8
1
  10
-585.016113
  20
1423.759766
  0
VERTEX
  8
1
  10
-588.695618
  20
1422.159424
  0
VERTEX
  8
1
  10
-592.269531
  20
1420.507324
  0
VERTEX
  8
1
  10
-595.736694
  20
1418.811523
  0
VERTEX
  8
1
  10
-599.096130
  20
1417.080444
  0
VERTEX
  8
1
  10
-602.346863
  20
1415.322632
  0
VERTEX
  8
1
  10
-605.487793
  20
1413.546265
  0
VERTEX
  8
1
  10
-608.517944
  20
1411.759888
  0
VERTEX
  8
1
  10
-611.436279
  20
1409.971680
  0
VERTEX
  8
1
  10
-614.241760
  20
1408.190186
  0
VERTEX
  8
1
  10
-616.933289
  20
1406.423584
  0
VERTEX
  8
1
  10
-619.509949
  20
1404.680420
  0
VERTEX
  8
1
  10
-621.970642
  20
1402.968994
  0
VERTEX
  8
1
  10
-624.314331
  20
1401.297607
  0
VERTEX
  8
1
  10
-626.477173
  20
1399.726440
  0
VERTEX
  8
1
  10
-628.760254
  20
1398.050903
  0
VERTEX
  8
1
  10
-631.161194
  20
1396.278442
  0
VERTEX
  8
1
  10
-633.677673
  20
1394.416626
  0
VERTEX
  8
1
  10
-636.307434
  20
1392.472900
  0
VERTEX
  8
1
  10
-639.048157
  20
1390.454956
  0
VERTEX
  8
1
  10
-641.897400
  20
1388.369995
  0
VERTEX
  8
1
  10
-644.852905
  20
1386.225830
  0
VERTEX
  8
1
  10
-647.912415
  20
1384.029907
  0
VERTEX
  8
1
  10
-651.073425
  20
1381.789551
  0
VERTEX
  8
1
  10
-654.333740
  20
1379.512451
  0
VERTEX
  8
1
  10
-657.691040
  20
1377.205933
  0
VERTEX
  8
1
  10
-661.142944
  20
1374.877686
  0
VERTEX
  8
1
  10
-664.687012
  20
1372.535156
  0
VERTEX
  8
1
  10
-668.321167
  20
1370.185791
  0
VERTEX
  8
1
  10
-672.042908
  20
1367.837280
  0
VERTEX
  8
1
  10
-675.849976
  20
1365.496826
  0
VERTEX
  8
1
  10
-679.739929
  20
1363.172241
  0
VERTEX
  8
1
  10
-683.710571
  20
1360.870850
  0
VERTEX
  8
1
  10
-687.759521
  20
1358.600220
  0
VERTEX
  8
1
  10
-691.884460
  20
1356.367798
  0
VERTEX
  8
1
  10
-696.083008
  20
1354.181152
  0
VERTEX
  8
1
  10
-700.352966
  20
1352.047852
  0
VERTEX
  8
1
  10
-704.691895
  20
1349.975220
  0
VERTEX
  8
1
  10
-709.097473
  20
1347.970947
  0
VERTEX
  8
1
  10
-713.567383
  20
1346.042480
  0
VERTEX
  8
1
  10
-718.099304
  20
1344.197266
  0
VERTEX
  8
1
  10
-722.690918
  20
1342.442871
  0
VERTEX
  8
1
  10
-727.339844
  20
1340.786743
  0
VERTEX
  8
1
  10
-701.921143
  20
1263.064575
  0
VERTEX
  8
1
  10
-690.160156
  20
1263.474487
  0
VERTEX
  8
1
  10
-678.352051
  20
1263.854248
  0
VERTEX
  8
1
  10
-666.497437
  20
1264.203979
  0
VERTEX
  8
1
  10
-654.596741
  20
1264.523682
  0
VERTEX
  8
1
  10
-642.650635
  20
1264.813599
  0
VERTEX
  8
1
  10
-630.659790
  20
1265.073730
  0
VERTEX
  8
1
  10
-618.624512
  20
1265.304199
  0
VERTEX
  8
1
  10
-606.545532
  20
1265.505127
  0
VERTEX
  8
1
  10
-594.423401
  20
1265.676514
  0
VERTEX
  8
1
  10
-582.258728
  20
1265.818604
  0
VERTEX
  8
1
  10
-570.051941
  20
1265.931396
  0
VERTEX
  8
1
  10
-557.803711
  20
1266.015015
  0
VERTEX
  8
1
  10
-545.514587
  20
1266.069458
  0
VERTEX
  8
1
  10
-533.185120
  20
1266.094971
  0
VERTEX
  8
1
  10
-520.815918
  20
1266.091675
  0
VERTEX
  8
1
  10
-508.407471
  20
1266.059448
  0
VERTEX
  8
1
  10
-495.960388
  20
1265.998657
  0
VERTEX
  8
1
  10
-483.475250
  20
1265.909180
  0
VERTEX
  8
1
  10
-470.952576
  20
1265.791260
  0
VERTEX
  8
1
  10
-458.393005
  20
1265.644897
  0
VERTEX
  8
1
  10
-445.797028
  20
1265.470215
  0
VERTEX
  8
1
  10
-433.165222
  20
1265.267334
  0
VERTEX
  8
1
  10
-420.498199
  20
1265.036377
  0
VERTEX
  8
1
  10
-407.796478
  20
1264.777344
  0
VERTEX
  8
1
  10
-395.060669
  20
1264.490479
  0
VERTEX
  8
1
  10
-382.291290
  20
1264.175659
  0
VERTEX
  8
1
  10
-369.488922
  20
1263.833252
  0
VERTEX
  8
1
  10
-356.654175
  20
1263.463135
  0
SEQEND
  0
POINT
  8
2
  10
-343.787537
  20
1263.065552
  0
POINT
  8
2
  10
-318.371338
  20
1340.786743
  0
POINT
  8
2
  10
-415.779633
  20
1388.942383
  0
POINT
  8
2
  10
-512.613831
  20
1435.469360
  0
POINT
  8
2
  10
-624.314331
  20
1401.297607
  0
POINT
  8
2
  10
-727.339844
  20
1340.786743
  0
POINT
  8
2
  10
-701.921143
  20
1263.064575
  0
POINT
  8
3
  10
-322.130920
  20
1341.532349
  0
POINT
  8
3
  10
-325.823853
  20
1342.320801
  0
POINT
  8
3
  10
-329.454468
  20
1343.154663
  0
POINT
  8
3
  10
-333.026978
  20
1344.036499
  0
POINT
  8
3
  10
-336.545532
  20
1344.968628
  0
POINT
  8
3
  10
-340.014343
  20
1345.953613
  0
POINT
  8
3
  10
-343.437744
  20
1346.994141
  0
POINT
  8
3
  10
-346.819855
  20
1348.092407
  0
POINT
  8
3
  10
-350.164856
  20
1349.250977
  0
POINT
  8
3
  10
-353.477051
  20
1350.472534
  0
POINT
  8
3
  10
-356.760681
  20
1351.759399
  0
POINT
  8
3
  10
-360.019836
  20
1353.114136
  0
POINT
  8
3
  10
-363.258850
  20
1354.539185
  0
POINT
  8
3
  10
-366.481873
  20
1356.037109
  0
POINT
  8
3
  10
-369.693176
  20
1357.610352
  0
POINT
  8
3
  10
-372.896912
  20
1359.261353
  0
POINT
  8
3
  10
-376.097351
  20
1360.992798
  0
POINT
  8
3
  10
-379.298706
  20
1362.807007
  0
POINT
  8
3
  10
-382.505188
  20
1364.706421
  0
POINT
  8
3
  10
-385.721008
  20
1366.693726
  0
POINT
  8
3
  10
-388.950378
  20
1368.771362
  0
POINT
  8
3
  10
-392.197540
  20
1370.941772
  0
POINT
  8
3
  10
-395.466675
  20
1373.207520
  0
POINT
  8
3
  10
-398.762024
  20
1375.570923
  0
POINT
  8
3
  10
-402.087830
  20
1378.034790
  0
POINT
  8
3
  10
-405.448273
  20
1380.601318
  0
POINT
  8
3
  10
-408.847565
  20
1383.273071
  0
POINT
  8
3
  10
-412.289978
  20
1386.052612
  0
POINT
  8
3
  10
-419.443542
  20
1391.893433
  0
POINT
  8
3
  10
-423.015594
  20
1394.732666
  0
POINT
  8
3
  10
-426.503540
  20
1397.461670
  0
POINT
  8
3
  10
-429.914948
  20
1400.082275
  0
POINT
  8
3
  10
-433.257446
  20
1402.596313
  0
POINT
  8
3
  10
-436.538605
  20
1405.005493
  0
POINT
  8
3
  10
-439.766144
  20
1407.311523
  0
POINT
  8
3
  10
-442.947571
  20
1409.516113
  0
POINT
  8
3
  10
-446.090576
  20
1411.621094
  0
POINT
  8
3
  10
-449.202789
  20
1413.628052
  0
POINT
  8
3
  10
-452.291809
  20
1415.538940
  0
POINT
  8
3
  10
-455.365204
  20
1417.355225
  0
POINT
  8
3
  10
-458.430664
  20
1419.078979
  0
POINT
  8
3
  10
-461.495819
  20
1420.711670
  0
POINT
  8
3
  10
-464.568207
  20
1422.255127
  0
POINT
  8
3
  10
-467.655548
  20
1423.711060
  0
POINT
  8
3
  10
-470.765381
  20
1425.081299
  0
POINT
  8
3
  10
-473.905334
  20
1426.367554
  0
POINT
  8
3
  10
-477.083099
  20
1427.571533
  0
POINT
  8
3
  10
-480.306213
  20
1428.694946
  0
POINT
  8
3
  10
-483.582336
  20
1429.739624
  0
POINT
  8
3
  10
-486.919098
  20
1430.707153
  0
POINT
  8
3
  10
-490.324097
  20
1431.599487
  0
POINT
  8
3
  10
-493.804932
  20
1432.418213
  0
POINT
  8
3
  10
-497.369263
  20
1433.165161
  0
POINT
  8
3
  10
-501.024719
  20
1433.841919
  0
POINT
  8
3
  10
-504.778870
  20
1434.450439
  0
POINT
  8
3
  10
-508.639374
  20
1434.992310
  0
POINT
  8
3
  10
-517.843933
  20
1435.838501
  0
POINT
  8
3
  10
-522.984863
  20
1436.021729
  0
POINT
  8
3
  10
-528.035522
  20
1436.027588
  0
POINT
  8
3
  10
-532.994995
  20
1435.864258
  0
POINT
  8
3
  10
-537.862122
  20
1435.540161
  0
POINT
  8
3
  10
-542.635986
  20
1435.063721
  0
POINT
  8
3
  10
-547.315491
  20
1434.443237
  0
POINT
  8
3
  10
-551.899658
  20
1433.687134
  0
POINT
  8
3
  10
-556.387390
  20
1432.803833
  0
POINT
  8
3
  10
-560.777710
  20
1431.801514
  0
POINT
  8
3
  10
-565.069580
  20
1430.688721
  0
POINT
  8
3
  10
-569.261963
  20
1429.473877
  0
POINT
  8
3
  10
-573.353882
  20
1428.165039
  0
POINT
  8
3
  10
-577.344177
  20
1426.770874
  0
POINT
  8
3
  10
-581.231934
  20
1425.299683
  0
POINT
  8
3
  10
-585.016113
  20
1423.759766
  0
POINT
  8
3
  10
-588.695618
  20
1422.159424
  0
POINT
  8
3
  10
-592.269531
  20
1420.507324
  0
POINT
  8
3
  10
-595.736694
  20
1418.811523
  0
POINT
  8
3
  10
-599.096130
  20
1417.080444
  0
POINT
  8
3
  10
-602.346863
  20
1415.322632
  0
POINT
  8
3
  10
-605.487793
  20
1413.546265
  0
POINT
  8
3
  10
-608.517944
  20
1411.759888
  0
POINT
  8
3
  10
-611.436279
  20
1409.971680
  0
POINT
  8
3
  10
-614.241760
  20
1408.190186
  0
POINT
  8
3
  10
-616.933289
  20
1406.423584
  0
POINT
  8
3
  10
-619.509949
  20
1404.680420
  0
POINT
  8
3
  10
-621.970642
  20
1402.968994
  0
POINT
  8
3
  10
-626.477173
  20
1399.726440
  0
POINT
  8
3
  10
-628.760254
  20
1398.050903
  0
POINT
  8
3
  10
-631.161194
  20
1396.278442
  0
POINT
  8
3
  10
-633.677673
  20
1394.416626
  0
POINT
  8
3
  10
-636.307434
  20
1392.472900
  0
POINT
  8
3
  10
-639.048157
  20
1390.454956
  0
POINT
  8
3
  10
-641.897400
  20
1388.369995
  0
POINT
  8
3
  10
-644.852905
  20
1386.225830
  0
POINT
  8
3
  10
-647.912415
  20
1384.029907
  0
POINT
  8
3
  10
-651.073425
  20
1381.789551
  0
POINT
  8
3
  10
-654.333740
  20
1379.512451
  0
POINT
  8
3
  10
-657.691040
  20
1377.205933
  0
POINT
  8
3
  10
-661.142944
  20
1374.877686
  0
POINT
  8
3
  10
-664.687012
  20
1372.535156
  0
POINT
  8
3
  10
-668.321167
  20
1370.185791
  0
POINT
  8
3
  10
-672.042908
  20
1367.837280
  0
POINT
  8
3
  10
-675.849976
  20
1365.496826
  0
POINT
  8
3
  10
-679.739929
  20
1363.172241
  0
POINT
  8
3
  10
-683.710571
  20
1360.870850
  0
POINT
  8
3
  10
-687.759521
  20
1358.600220
  0
POINT
  8
3
  10
-691.884460
  20
1356.367798
  0
POINT
  8
3
  10
-696.083008
  20
1354.181152
  0
POINT
  8
3
  10
-700.352966
  20
1352.047852
  0
POINT
  8
3
  10
-704.691895
  20
1349.975220
  0
POINT
  8
3
  10
-709.097473
  20
1347.970947
  0
POINT
  8
3
  10
-713.567383
  20
1346.042480
  0
POINT
  8
3
  10
-718.099304
  20
1344.197266
  0
POINT
  8
3
  10
-722.690918
  20
1342.442871
  0
POINT
  8
3
  10
-690.160156
  20
1263.474487
  0
POINT
  8
3
  10
-678.352051
  20
1263.854248
  0
POINT
  8
3
  10
-666.497437
  20
1264.203979
  0
POINT
  8
3
  10
-654.596741
  20
1264.523682
  0
POINT
  8
3
  10
-642.650635
  20
1264.813599
  0
POINT
  8
3
  10
-630.659790
  20
1265.073730
  0
POINT
  8
3
  10
-618.624512
  20
1265.304199
  0
POINT
  8
3
  10
-606.545532
  20
1265.505127
  0
POINT
  8
3
  10
-594.423401
  20
1265.676514
  0
POINT
  8
3
  10
-582.258728
  20
1265.818604
  0
POINT
  8
3
  10
-570.051941
  20
1265.931396
  0
POINT
  8
3
  10
-557.803711
  20
1266.015015
  0
POINT
  8
3
  10
-545.514587
  20
1266.069458
  0
POINT
  8
3
  10
-533.185120
  20
1266.094971
  0
POINT
  8
3
  10
-520.815918
  20
1266.091675
  0
POINT
  8
3
  10
-508.407471
  20
1266.059448
  0
POINT
  8
3
  10
-495.960388
  20
1265.998657
  0
POINT
  8
3
  10
-483.475250
  20
1265.909180
  0
POINT
  8
3
  10
-470.952576
  20
1265.791260
  0
POINT
  8
3
  10
-458.393005
  20
1265.644897
  0
POINT
  8
3
  10
-445.797028
  20
1265.470215
  0
POINT
  8
3
  10
-433.165222
  20
1265.267334
  0
POINT
  8
3
  10
-420.498199
  20
1265.036377
  0
POINT
  8
3
  10
-407.796478
  20
1264.777344
  0
POINT
  8
3
  10
-395.060669
  20
1264.490479
  0
POINT
  8
3
  10
-382.291290
  20
1264.175659
  0
POINT
  8
3
  10
-369.488922
  20
1263.833252
  0
POINT
  8
3
  10
-356.654175
  20
1263.463135
  0
POINT
  8
4
  10
-415.779633
  20
1388.942383
  50
128.849014
  0
POINT
  8
4
  10
-512.613831
  20
1435.469360
  50
94.037079
  0
POINT
  8
4
  10
-616.086487
  20
1406.979370
  50
57.239540
  0
POINT
  8
4
  10
-624.314331
  20
1401.297607
  50
54.002960
  0
LINE
  8
7
  10
-522.855591
  20
1261.513672
  11
-522.855591
  21
1441.513672
  0
POLYLINE
  8
84
  66
1
  70
1
  250
2
  0
VERTEX
  8
84
  10
-343.787537
  20
1263.065552
  0
VERTEX
  8
84
  10
-318.371338
  20
1340.786743
  0
VERTEX
  8
84
  10
-355.049103
  20
1347.794678
  0
VERTEX
  8
84
  10
-381.803802
  20
1360.466553
  0
VERTEX
  8
84
  10
-415.779633
  20
1388.942383
  0
VERTEX
  8
84
  10
-451.665192
  20
1418.015015
  0
VERTEX
  8
84
  10
-473.618652
  20
1431.166138
  0
VERTEX
  8
84
  10
-512.613831
  20
1435.469360
  0
VERTEX
  8
84
  10
-563.599304
  20
1439.962891
  0
VERTEX
  8
84
  10
-602.227173
  20
1417.233154
  0
VERTEX
  8
84
  10
-624.314331
  20
1401.297607
  0
VERTEX
  8
84
  10
-644.633057
  20
1386.637939
  0
VERTEX
  8
84
  10
-682.130249
  20
1356.296265
  0
VERTEX
  8
84
  10
-727.339844
  20
1340.786743
  0
VERTEX
  8
84
  10
-701.921143
  20
1263.064575
  0
VERTEX
  8
84
  10
-588.461304
  20
1267.173218
  0
VERTEX
  8
84
  10
-468.317017
  20
1267.041870
  0
SEQEND
  0
POINT
  8
2
  10
-343.787537
  20
1263.065552
  0
POINT
  8
2
  10
-318.371338
  20
1340.786743
  0
POINT
  8
2
  10
-415.779633
  20
1388.942383
  0
POINT
  8
2
  10
-512.613831
  20
1435.469360
  0
POINT
  8
2
  10
-624.314331
  20
1401.297607
  0
POINT
  8
2
  10
-727.339844
  20
1340.786743
  0
POINT
  8
2
  10
-701.921143
  20
1263.064575
  0
POINT
  8
3
  10
-355.049103
  20
1347.794678
  0
POINT
  8
3
  10
-381.803802
  20
1360.466553
  0
POINT
  8
3
  10
-451.665192
  20
1418.015015
  0
POINT
  8
3
  10
-473.618652
  20
1431.166138
  0
POINT
  8
3
  10
-563.599304
  20
1439.962891
  0
POINT
  8
3
  10
-602.227173
  20
1417.233154
  0
POINT
  8
3
  10
-644.633057
  20
1386.637939
  0
POINT
  8
3
  10
-682.130249
  20
1356.296265
  0
POINT
  8
3
  10
-588.461304
  20
1267.173218
  0
POINT
  8
3
  10
-468.317017
  20
1267.041870
  0
POLYLINE
  8
8
  66
1
  70
0
  250
0
  0
VERTEX
  8
8
  10
-727.375244
  20
1340.773071
  0
VERTEX
  8
8
  10
-318.371338
  20
1340.787231
  0
SEQEND
  0
POINT
  8
2
  10
-727.375244
  20
1340.773071
  0
POLYLINE
  8
8
  66
1
  70
0
  250
0
  0
VERTEX
  8
8
  10
-522.877563
  20
1436.264648
  0
VERTEX
  8
8
  10
-522.871460
  20
1266.264893
  0
SEQEND
  0
POINT
  8
2
  10
-522.877563
  20
1436.264648
  0
ENDBLK
  0
ENDSEC
  0
SECTION
  2
ENTITIES
  0
INSERT
  8
1
  2
11_M
  10
0.000000
  20
0.000000
  0
INSERT
  8
1
  2
Pattern2D_768516_M
  10
0.000000
  20
0.000000
  0
INSERT
  8
1
  2
7_M
  10
0.000000
  20
0.000000
  0
INSERT
  8
1
  2
Pattern2D_768527_M
  10
0.000000
  20
0.000000
  0
INSERT
  8
1
  2
36_M
  10
0.000000
  20
0.000000
  0
INSERT
  8
1
  2
37_M
  10
0.000000
  20
0.000000
  0
INSERT
  8
1
  2
Pattern2D_768528_M
  10
0.000000
  20
0.000000
  0
INSERT
  8
1
  2
38_M
  10
0.000000
  20
0.000000
  0
INSERT
  8
1
  2
39_M
  10
0.000000
  20
0.000000
  0
TEXT
  8
1
  10
0.000000
  20
0.000000
  40
0.250000
  50
0.000000
  1
STYLE NAME: clo-pattern
  7
STANDARD
  0
TEXT
  8
1
  10
0.000000
  20
0.000000
  40
0.250000
  50
0.000000
  1
CREATION DATE: 05-03-2018
  7
STANDARD
  0
TEXT
  8
1
  10
0.000000
  20
0.000000
  40
0.250000
  50
0.000000
  1
CREATION TIME: 08:29
  7
STANDARD
  0
TEXT
  8
1
  10
0.000000
  20
0.000000
  40
0.250000
  50
0.000000
  1
AUTHOR: CLO Virtual Fashion Inc.
  7
STANDARD
  0
TEXT
  8
1
  10
0.000000
  20
0.000000
  40
0.250000
  50
0.000000
  1
PRODUCT: CLO Standalone OnlineAuth 4.0.129
  7
STANDARD
  0
TEXT
  8
1
  10
0.000000
  20
0.000000
  40
0.250000
  50
0.000000
  1
VERSION: 3
  7
STANDARD
  0
TEXT
  8
1
  10
0.000000
  20
0.000000
  40
0.250000
  50
0.000000
  1
SAMPLE SIZE: M
  7
STANDARD
  0
TEXT
  8
1
  10
0.000000
  20
0.000000
  40
0.250000
  50
0.000000
  1
UNITS: METRIC
  7
STANDARD
  0
ENDSEC
  0
EOF
