  0
SECTION
  2
HEADER
  9
$ACADVER
  1
AC1009
  0
ENDSEC
  0
SECTION
  2
BLOCKS
  0
BLOCK
  8
1
  2
AMX1CO-COF22_selffabri_A36
  70
64
  10
0
  20
0
  0
POLYLINE
  8
1
  66
1
  70
1
  250
2
  0
VERTEX
  8
1
  10
-201.009308
  20
1581.072388
  0
VERTEX
  8
1
  10
201.005203
  20
1581.072876
  0
VERTEX
  8
1
  10
201.009888
  20
1541.074097
  0
VERTEX
  8
1
  10
-201.004623
  20
1541.073486
  0
SEQEND
  0
TEXT
  8
1
  10
-201.009308
  20
1581.072388
  40
0.250000
  50
0.000000
  1
# 136
  7
STANDARD
  0
TEXT
  8
1
  10
201.005203
  20
1581.072876
  40
0.250000
  50
0.000000
  1
# 137
  7
STANDARD
  0
TEXT
  8
1
  10
201.009888
  20
1541.074097
  40
0.250000
  50
0.000000
  1
# 138
  7
STANDARD
  0
TEXT
  8
1
  10
-201.004623
  20
1541.073486
  40
0.250000
  50
0.000000
  1
# 135
  7
STANDARD
  0
POLYLINE
  8
84
  66
1
  70
1
  250
2
  0
VERTEX
  8
84
  10
-201.009308
  20
1581.072388
  0
VERTEX
  8
84
  10
201.005203
  20
1581.072876
  0
VERTEX
  8
84
  10
201.005203
  20
1581.072876
  0
VERTEX
  8
84
  10
201.009888
  20
1541.074097
  0
VERTEX
  8
84
  10
201.009888
  20
1541.074097
  0
VERTEX
  8
84
  10
-201.004623
  20
1541.073486
  0
VERTEX
  8
84
  10
-201.004623
  20
1541.073486
  0
VERTEX
  8
84
  10
-201.009308
  20
1581.072388
  0
SEQEND
  0
POINT
  8
2
  10
-201.009308
  20
1581.072388
  0
POINT
  8
2
  10
201.005203
  20
1581.072876
  0
POINT
  8
2
  10
201.009888
  20
1541.074097
  0
POINT
  8
2
  10
-201.004623
  20
1541.073486
  0
LINE
  8
7
  10
0.000306
  20
1471.073242
  11
0.000274
  21
1651.073242
  0
POLYLINE
  8
8
  66
1
  70
0
  250
1
  0
VERTEX
  8
8
  10
-201.006989
  20
1561.072388
  0
VERTEX
  8
8
  10
201.007584
  20
1561.072876
  0
SEQEND
  0
TEXT
  8
8
  10
-201.006989
  20
1561.072388
  40
0.250000
  50
0.000000
  1
# 133
  7
STANDARD
  0
TEXT
  8
8
  10
201.007584
  20
1561.072876
  40
0.250000
  50
0.000000
  1
# 134
  7
STANDARD
  0
POLYLINE
  8
85
  66
1
  70
0
  250
1
  0
VERTEX
  8
85
  10
-201.006989
  20
1561.072388
  0
VERTEX
  8
85
  10
201.007584
  20
1561.072876
  0
SEQEND
  0
POINT
  8
2
  10
-201.006989
  20
1561.072388
  0
POINT
  8
2
  10
201.007584
  20
1561.072876
  0
POLYLINE
  8
8
  66
1
  70
0
  250
1
  0
VERTEX
  8
8
  10
200.601013
  20
1561.762817
  0
VERTEX
  8
8
  10
200.388626
  20
1562.399902
  0
SEQEND
  0
TEXT
  8
8
  10
200.601013
  20
1561.762817
  40
0.250000
  50
0.000000
  1
# 131
  7
STANDARD
  0
TEXT
  8
8
  10
200.388626
  20
1562.399902
  40
0.250000
  50
0.000000
  1
# 132
  7
STANDARD
  0
POLYLINE
  8
85
  66
1
  70
0
  250
1
  0
VERTEX
  8
85
  10
200.601013
  20
1561.762817
  0
VERTEX
  8
85
  10
200.388626
  20
1562.399902
  0
SEQEND
  0
POINT
  8
2
  10
200.601013
  20
1561.762817
  0
POINT
  8
2
  10
200.388626
  20
1562.399902
  0
TEXT
  8
1
  10
0.000290
  20
1561.073242
  50
0.000000
  51
0.000000
  71
0.000000
  1
PIECE NAME: AMX1CO-COF22_selffabri
  7
STANDARD
  0
TEXT
  8
1
  10
0.000290
  20
1556.073242
  50
0.000000
  51
0.000000
  71
0.000000
  1
SIZE: A36
  7
STANDARD
  0
TEXT
  8
1
  10
0.000290
  20
1551.073242
  50
0.000000
  51
0.000000
  71
0.000000
  1
ANNOTATION:  1X FABRIC
  7
STANDARD
  0
TEXT
  8
1
  10
0.000290
  20
1546.073242
  50
0.000000
  51
0.000000
  71
0.000000
  1
QUANTITY: 1
  7
STANDARD
  0
ENDBLK
  0
BLOCK
  8
1
  2
L-AMX1408F22-SL_selffabric_3_A36
  70
64
  10
0
  20
0
  0
POLYLINE
  8
1
  66
1
  70
1
  250
2
  0
VERTEX
  8
1
  10
840.640259
  20
799.908203
  0
VERTEX
  8
1
  10
868.861145
  20
964.562073
  0
VERTEX
  8
1
  10
880.640137
  20
1030.018188
  0
VERTEX
  8
1
  10
902.715149
  20
1142.008911
  0
VERTEX
  8
1
  10
905.503540
  20
1154.986328
  0
VERTEX
  8
1
  10
906.712341
  20
1160.612427
  0
VERTEX
  8
1
  10
907.374023
  20
1163.568604
  0
VERTEX
  8
1
  10
911.194214
  20
1180.902344
  0
VERTEX
  8
1
  10
931.097229
  20
1262.288086
  0
VERTEX
  8
1
  10
938.131226
  20
1288.130493
  0
VERTEX
  8
1
  10
944.443359
  20
1307.948853
  0
VERTEX
  8
1
  10
939.367432
  20
1309.167236
  0
VERTEX
  8
1
  10
935.085327
  20
1310.329712
  0
VERTEX
  8
1
  10
924.414001
  20
1313.807739
  0
VERTEX
  8
1
  10
919.509216
  20
1315.682129
  0
VERTEX
  8
1
  10
914.705078
  20
1317.714478
  0
VERTEX
  8
1
  10
905.243530
  20
1322.238892
  0
VERTEX
  8
1
  10
898.275146
  20
1326.267090
  0
VERTEX
  8
1
  10
885.498474
  20
1336.003906
  0
VERTEX
  8
1
  10
879.739441
  20
1341.696411
  0
VERTEX
  8
1
  10
877.270081
  20
1344.600464
  0
VERTEX
  8
1
  10
865.824524
  20
1360.061768
  0
VERTEX
  8
1
  10
864.278931
  20
1362.475098
  0
VERTEX
  8
1
  10
863.716553
  20
1363.353271
  0
VERTEX
  8
1
  10
861.714600
  20
1366.629883
  0
VERTEX
  8
1
  10
856.918823
  20
1374.800659
  0
VERTEX
  8
1
  10
852.873657
  20
1381.821533
  0
VERTEX
  8
1
  10
838.801453
  20
1407.304932
  0
VERTEX
  8
1
  10
834.275391
  20
1415.876587
  0
VERTEX
  8
1
  10
831.007935
  20
1422.220337
  0
VERTEX
  8
1
  10
829.954651
  20
1424.265625
  0
VERTEX
  8
1
  10
825.716125
  20
1432.660278
  0
VERTEX
  8
1
  10
808.352661
  20
1466.096313
  0
VERTEX
  8
1
  10
790.952454
  20
1499.214844
  0
VERTEX
  8
1
  10
787.059875
  20
1506.542969
  0
VERTEX
  8
1
  10
779.782227
  20
1520.162720
  0
VERTEX
  8
1
  10
767.716858
  20
1542.369385
  0
VERTEX
  8
1
  10
764.679871
  20
1547.898193
  0
VERTEX
  8
1
  10
759.669922
  20
1556.810547
  0
VERTEX
  8
1
  10
754.616455
  20
1566.187988
  0
VERTEX
  8
1
  10
747.931824
  20
1579.132446
  0
VERTEX
  8
1
  10
741.385742
  20
1592.238281
  0
VERTEX
  8
1
  10
736.938232
  20
1587.763306
  0
VERTEX
  8
1
  10
733.779602
  20
1584.583618
  0
VERTEX
  8
1
  10
731.751526
  20
1582.846680
  0
VERTEX
  8
1
  10
729.885315
  20
1581.459106
  0
VERTEX
  8
1
  10
727.782715
  20
1580.152222
  0
VERTEX
  8
1
  10
725.076355
  20
1578.693726
  0
VERTEX
  8
1
  10
720.372803
  20
1576.620728
  0
VERTEX
  8
1
  10
718.856934
  20
1576.022583
  0
VERTEX
  8
1
  10
717.257690
  20
1575.497437
  0
VERTEX
  8
1
  10
715.658447
  20
1574.972290
  0
VERTEX
  8
1
  10
711.251221
  20
1573.788208
  0
VERTEX
  8
1
  10
708.116272
  20
1572.999023
  0
VERTEX
  8
1
  10
698.779114
  20
1570.656372
  0
VERTEX
  8
1
  10
693.481262
  20
1569.294556
  0
VERTEX
  8
1
  10
688.155273
  20
1568.645508
  0
VERTEX
  8
1
  10
683.678467
  20
1568.096680
  0
VERTEX
  8
1
  10
672.691589
  20
1566.749756
  0
VERTEX
  8
1
  10
653.296631
  20
1566.326172
  0
VERTEX
  8
1
  10
649.105957
  20
1566.668701
  0
VERTEX
  8
1
  10
644.971680
  20
1567.233154
  0
VERTEX
  8
1
  10
640.914429
  20
1567.919556
  0
VERTEX
  8
1
  10
636.882385
  20
1568.834717
  0
VERTEX
  8
1
  10
620.764343
  20
1536.318604
  0
VERTEX
  8
1
  10
615.443115
  20
1525.916016
  0
VERTEX
  8
1
  10
611.240784
  20
1517.700439
  0
VERTEX
  8
1
  10
599.194275
  20
1493.287109
  0
VERTEX
  8
1
  10
587.761353
  20
1468.281250
  0
VERTEX
  8
1
  10
582.002869
  20
1454.838379
  0
VERTEX
  8
1
  10
576.599304
  20
1441.721191
  0
VERTEX
  8
1
  10
571.906494
  20
1429.828125
  0
VERTEX
  8
1
  10
570.333984
  20
1425.733154
  0
VERTEX
  8
1
  10
568.909424
  20
1422.002441
  0
VERTEX
  8
1
  10
566.979004
  20
1415.176270
  0
VERTEX
  8
1
  10
563.784119
  20
1404.450073
  0
VERTEX
  8
1
  10
560.462891
  20
1393.936523
  0
VERTEX
  8
1
  10
558.165466
  20
1387.034790
  0
VERTEX
  8
1
  10
555.780090
  20
1380.138184
  0
VERTEX
  8
1
  10
553.869507
  20
1374.809814
  0
VERTEX
  8
1
  10
553.310608
  20
1373.250854
  0
VERTEX
  8
1
  10
548.083496
  20
1359.836182
  0
VERTEX
  8
1
  10
546.627319
  20
1356.582397
  0
VERTEX
  8
1
  10
545.410522
  20
1354.037354
  0
VERTEX
  8
1
  10
540.038208
  20
1343.998413
  0
VERTEX
  8
1
  10
538.222412
  20
1340.982056
  0
VERTEX
  8
1
  10
536.519409
  20
1338.305786
  0
VERTEX
  8
1
  10
534.580444
  20
1335.622559
  0
VERTEX
  8
1
  10
533.593445
  20
1334.407593
  0
VERTEX
  8
1
  10
531.436401
  20
1331.900635
  0
VERTEX
  8
1
  10
530.389221
  20
1330.752930
  0
VERTEX
  8
1
  10
520.296387
  20
1322.454712
  0
VERTEX
  8
1
  10
512.291748
  20
1317.773193
  0
VERTEX
  8
1
  10
500.013763
  20
1312.146729
  0
VERTEX
  8
1
  10
491.279816
  20
1309.167603
  0
VERTEX
  8
1
  10
486.836975
  20
1307.948853
  0
VERTEX
  8
1
  10
488.948364
  20
1301.633423
  0
VERTEX
  8
1
  10
493.146423
  20
1288.151978
  0
VERTEX
  8
1
  10
493.876465
  20
1285.493164
  0
VERTEX
  8
1
  10
495.817017
  20
1278.262573
  0
VERTEX
  8
1
  10
498.724976
  20
1267.011108
  0
VERTEX
  8
1
  10
503.839478
  20
1247.081665
  0
VERTEX
  8
1
  10
509.585266
  20
1224.057007
  0
VERTEX
  8
1
  10
527.992126
  20
1144.356812
  0
VERTEX
  8
1
  10
538.172607
  20
1095.675781
  0
VERTEX
  8
1
  10
547.660645
  20
1046.410522
  0
VERTEX
  8
1
  10
550.557495
  20
1030.356323
  0
VERTEX
  8
1
  10
558.423584
  20
986.918945
  0
VERTEX
  8
1
  10
566.017700
  20
943.794312
  0
VERTEX
  8
1
  10
578.449646
  20
871.694580
  0
VERTEX
  8
1
  10
590.640137
  20
799.908203
  0
VERTEX
  8
1
  10
586.394714
  20
774.908203
  0
VERTEX
  8
1
  10
590.640137
  20
774.908203
  0
VERTEX
  8
1
  10
840.640259
  20
774.908081
  0
VERTEX
  8
1
  10
844.878784
  20
774.908142
  0
SEQEND
  0
TEXT
  8
1
  10
840.640259
  20
799.908203
  40
0.250000
  50
0.000000
  1
# 128
  7
STANDARD
  0
TEXT
  8
1
  10
944.443359
  20
1307.948853
  40
0.250000
  50
0.000000
  1
# 129
  7
STANDARD
  0
TEXT
  8
1
  10
741.385742
  20
1592.238281
  40
0.250000
  50
0.000000
  1
# 130
  7
STANDARD
  0
TEXT
  8
1
  10
636.882385
  20
1568.834717
  40
0.250000
  50
0.000000
  1
# 123
  7
STANDARD
  0
TEXT
  8
1
  10
486.836975
  20
1307.948853
  40
0.250000
  50
0.000000
  1
# 124
  7
STANDARD
  0
TEXT
  8
1
  10
590.640137
  20
799.908203
  40
0.250000
  50
0.000000
  1
# 125
  7
STANDARD
  0
TEXT
  8
1
  10
586.394714
  20
774.908203
  40
0.250000
  50
0.000000
  1
# 126
  7
STANDARD
  0
TEXT
  8
1
  10
844.878784
  20
774.908142
  40
0.250000
  50
0.000000
  1
# 127
  7
STANDARD
  0
POLYLINE
  8
84
  66
1
  70
1
  250
2
  0
VERTEX
  8
84
  10
840.640259
  20
799.908203
  0
VERTEX
  8
84
  10
854.602417
  20
882.261414
  0
VERTEX
  8
84
  10
868.861145
  20
964.562073
  0
VERTEX
  8
84
  10
871.761658
  20
980.936829
  0
VERTEX
  8
84
  10
874.688293
  20
997.300903
  0
VERTEX
  8
84
  10
877.646057
  20
1013.659546
  0
VERTEX
  8
84
  10
880.640137
  20
1030.018188
  0
VERTEX
  8
84
  10
881.936890
  20
1037.036743
  0
VERTEX
  8
84
  10
883.241211
  20
1044.052734
  0
VERTEX
  8
84
  10
884.553894
  20
1051.066284
  0
VERTEX
  8
84
  10
885.875732
  20
1058.077271
  0
VERTEX
  8
84
  10
887.207275
  20
1065.085693
  0
VERTEX
  8
84
  10
888.549500
  20
1072.091675
  0
VERTEX
  8
84
  10
889.903015
  20
1079.095093
  0
VERTEX
  8
84
  10
891.268555
  20
1086.095825
  0
VERTEX
  8
84
  10
892.646912
  20
1093.094116
  0
VERTEX
  8
84
  10
894.038757
  20
1100.089722
  0
VERTEX
  8
84
  10
895.444824
  20
1107.082764
  0
VERTEX
  8
84
  10
896.865967
  20
1114.073242
  0
VERTEX
  8
84
  10
898.302795
  20
1121.061157
  0
VERTEX
  8
84
  10
899.756104
  20
1128.046387
  0
VERTEX
  8
84
  10
901.226685
  20
1135.028931
  0
VERTEX
  8
84
  10
902.715149
  20
1142.008911
  0
VERTEX
  8
84
  10
905.503540
  20
1154.986328
  0
VERTEX
  8
84
  10
906.712341
  20
1160.612427
  0
VERTEX
  8
84
  10
907.374023
  20
1163.568604
  0
VERTEX
  8
84
  10
911.194214
  20
1180.902344
  0
VERTEX
  8
84
  10
912.502441
  20
1186.744263
  0
VERTEX
  8
84
  10
913.833984
  20
1192.579590
  0
VERTEX
  8
84
  10
915.187500
  20
1198.408936
  0
VERTEX
  8
84
  10
916.561401
  20
1204.232788
  0
VERTEX
  8
84
  10
917.954224
  20
1210.051758
  0
VERTEX
  8
84
  10
919.364502
  20
1215.866211
  0
VERTEX
  8
84
  10
920.790833
  20
1221.676880
  0
VERTEX
  8
84
  10
922.231567
  20
1227.484253
  0
VERTEX
  8
84
  10
923.685364
  20
1233.288696
  0
VERTEX
  8
84
  10
925.150635
  20
1239.090942
  0
VERTEX
  8
84
  10
926.625916
  20
1244.891479
  0
VERTEX
  8
84
  10
928.109802
  20
1250.690918
  0
VERTEX
  8
84
  10
929.600708
  20
1256.489502
  0
VERTEX
  8
84
  10
931.097229
  20
1262.288086
  0
VERTEX
  8
84
  10
932.780579
  20
1268.771851
  0
VERTEX
  8
84
  10
934.495361
  20
1275.244141
  0
VERTEX
  8
84
  10
936.269531
  20
1281.698975
  0
VERTEX
  8
84
  10
938.131226
  20
1288.130493
  0
VERTEX
  8
84
  10
940.167480
  20
1294.757446
  0
VERTEX
  8
84
  10
942.284729
  20
1301.358154
  0
VERTEX
  8
84
  10
944.443359
  20
1307.948853
  0
VERTEX
  8
84
  10
944.443359
  20
1307.948853
  0
VERTEX
  8
84
  10
939.367432
  20
1309.167236
  0
VERTEX
  8
84
  10
935.085327
  20
1310.329712
  0
VERTEX
  8
84
  10
929.720154
  20
1311.977783
  0
VERTEX
  8
84
  10
924.414001
  20
1313.807739
  0
VERTEX
  8
84
  10
919.509216
  20
1315.682129
  0
VERTEX
  8
84
  10
914.705078
  20
1317.714478
  0
VERTEX
  8
84
  10
909.934082
  20
1319.893433
  0
VERTEX
  8
84
  10
905.243530
  20
1322.238892
  0
VERTEX
  8
84
  10
901.718445
  20
1324.182251
  0
VERTEX
  8
84
  10
898.275146
  20
1326.267090
  0
VERTEX
  8
84
  10
895.593445
  20
1328.040039
  0
VERTEX
  8
84
  10
892.975098
  20
1329.905518
  0
VERTEX
  8
84
  10
890.419922
  20
1331.858032
  0
VERTEX
  8
84
  10
887.927734
  20
1333.892578
  0
VERTEX
  8
84
  10
885.498474
  20
1336.003906
  0
VERTEX
  8
84
  10
882.538696
  20
1338.772705
  0
VERTEX
  8
84
  10
879.739441
  20
1341.696411
  0
VERTEX
  8
84
  10
877.270081
  20
1344.600464
  0
VERTEX
  8
84
  10
874.849243
  20
1347.595581
  0
VERTEX
  8
84
  10
872.484741
  20
1350.634277
  0
VERTEX
  8
84
  10
870.186096
  20
1353.721436
  0
VERTEX
  8
84
  10
867.962891
  20
1356.862183
  0
VERTEX
  8
84
  10
865.824524
  20
1360.061768
  0
VERTEX
  8
84
  10
864.278931
  20
1362.475098
  0
VERTEX
  8
84
  10
863.716553
  20
1363.353271
  0
VERTEX
  8
84
  10
861.714600
  20
1366.629883
  0
VERTEX
  8
84
  10
856.918823
  20
1374.800659
  0
VERTEX
  8
84
  10
852.873657
  20
1381.821533
  0
VERTEX
  8
84
  10
849.287476
  20
1388.156006
  0
VERTEX
  8
84
  10
845.749512
  20
1394.514526
  0
VERTEX
  8
84
  10
842.255493
  20
1400.897461
  0
VERTEX
  8
84
  10
838.801453
  20
1407.304932
  0
VERTEX
  8
84
  10
834.275391
  20
1415.876587
  0
VERTEX
  8
84
  10
831.007935
  20
1422.220337
  0
VERTEX
  8
84
  10
829.954651
  20
1424.265625
  0
VERTEX
  8
84
  10
825.716125
  20
1432.660278
  0
VERTEX
  8
84
  10
821.438843
  20
1441.053711
  0
VERTEX
  8
84
  10
817.104370
  20
1449.414185
  0
VERTEX
  8
84
  10
812.734924
  20
1457.756592
  0
VERTEX
  8
84
  10
808.352661
  20
1466.096313
  0
VERTEX
  8
84
  10
790.952454
  20
1499.214844
  0
VERTEX
  8
84
  10
787.059875
  20
1506.542969
  0
VERTEX
  8
84
  10
779.782227
  20
1520.162720
  0
VERTEX
  8
84
  10
767.716858
  20
1542.369385
  0
VERTEX
  8
84
  10
764.679871
  20
1547.898193
  0
VERTEX
  8
84
  10
759.669922
  20
1556.810547
  0
VERTEX
  8
84
  10
754.616455
  20
1566.187988
  0
VERTEX
  8
84
  10
747.931824
  20
1579.132446
  0
VERTEX
  8
84
  10
741.385742
  20
1592.238281
  0
VERTEX
  8
84
  10
741.385742
  20
1592.238281
  0
VERTEX
  8
84
  10
736.938232
  20
1587.763306
  0
VERTEX
  8
84
  10
733.779602
  20
1584.583618
  0
VERTEX
  8
84
  10
731.751526
  20
1582.846680
  0
VERTEX
  8
84
  10
729.885315
  20
1581.459106
  0
VERTEX
  8
84
  10
727.782715
  20
1580.152222
  0
VERTEX
  8
84
  10
725.076355
  20
1578.693726
  0
VERTEX
  8
84
  10
720.372803
  20
1576.620728
  0
VERTEX
  8
84
  10
718.856934
  20
1576.022583
  0
VERTEX
  8
84
  10
717.257690
  20
1575.497437
  0
VERTEX
  8
84
  10
715.658447
  20
1574.972290
  0
VERTEX
  8
84
  10
711.251221
  20
1573.788208
  0
VERTEX
  8
84
  10
708.116272
  20
1572.999023
  0
VERTEX
  8
84
  10
698.779114
  20
1570.656372
  0
VERTEX
  8
84
  10
693.481262
  20
1569.294556
  0
VERTEX
  8
84
  10
688.155273
  20
1568.645508
  0
VERTEX
  8
84
  10
683.678467
  20
1568.096680
  0
VERTEX
  8
84
  10
672.691589
  20
1566.749756
  0
VERTEX
  8
84
  10
669.466553
  20
1566.475220
  0
VERTEX
  8
84
  10
666.235779
  20
1566.278809
  0
VERTEX
  8
84
  10
663.001282
  20
1566.163208
  0
VERTEX
  8
84
  10
659.765198
  20
1566.130859
  0
VERTEX
  8
84
  10
656.529602
  20
1566.184326
  0
VERTEX
  8
84
  10
653.296631
  20
1566.326172
  0
VERTEX
  8
84
  10
649.105957
  20
1566.668701
  0
VERTEX
  8
84
  10
644.971680
  20
1567.233154
  0
VERTEX
  8
84
  10
640.914429
  20
1567.919556
  0
VERTEX
  8
84
  10
636.882385
  20
1568.834717
  0
VERTEX
  8
84
  10
636.882385
  20
1568.834717
  0
VERTEX
  8
84
  10
631.555359
  20
1557.971558
  0
VERTEX
  8
84
  10
626.195435
  20
1547.129395
  0
VERTEX
  8
84
  10
620.764343
  20
1536.318604
  0
VERTEX
  8
84
  10
615.443115
  20
1525.916016
  0
VERTEX
  8
84
  10
611.240784
  20
1517.700439
  0
VERTEX
  8
84
  10
607.156616
  20
1509.595581
  0
VERTEX
  8
84
  10
603.138794
  20
1501.460938
  0
VERTEX
  8
84
  10
599.194275
  20
1493.287109
  0
VERTEX
  8
84
  10
596.261108
  20
1487.068848
  0
VERTEX
  8
84
  10
593.378052
  20
1480.829834
  0
VERTEX
  8
84
  10
590.544861
  20
1474.567993
  0
VERTEX
  8
84
  10
587.761353
  20
1468.281250
  0
VERTEX
  8
84
  10
582.002869
  20
1454.838379
  0
VERTEX
  8
84
  10
576.599304
  20
1441.721191
  0
VERTEX
  8
84
  10
571.906494
  20
1429.828125
  0
VERTEX
  8
84
  10
570.333984
  20
1425.733154
  0
VERTEX
  8
84
  10
568.909424
  20
1422.002441
  0
VERTEX
  8
84
  10
566.979004
  20
1415.176270
  0
VERTEX
  8
84
  10
565.437134
  20
1409.795654
  0
VERTEX
  8
84
  10
563.784119
  20
1404.450073
  0
VERTEX
  8
84
  10
560.462891
  20
1393.936523
  0
VERTEX
  8
84
  10
558.165466
  20
1387.034790
  0
VERTEX
  8
84
  10
555.780090
  20
1380.138184
  0
VERTEX
  8
84
  10
553.869507
  20
1374.809814
  0
VERTEX
  8
84
  10
553.310608
  20
1373.250854
  0
VERTEX
  8
84
  10
551.656616
  20
1368.744263
  0
VERTEX
  8
84
  10
549.924316
  20
1364.268799
  0
VERTEX
  8
84
  10
548.083496
  20
1359.836182
  0
VERTEX
  8
84
  10
546.627319
  20
1356.582397
  0
VERTEX
  8
84
  10
545.410522
  20
1354.037354
  0
VERTEX
  8
84
  10
542.818359
  20
1348.967285
  0
VERTEX
  8
84
  10
540.038208
  20
1343.998413
  0
VERTEX
  8
84
  10
538.222412
  20
1340.982056
  0
VERTEX
  8
84
  10
536.519409
  20
1338.305786
  0
VERTEX
  8
84
  10
534.580444
  20
1335.622559
  0
VERTEX
  8
84
  10
533.593445
  20
1334.407593
  0
VERTEX
  8
84
  10
531.436401
  20
1331.900635
  0
VERTEX
  8
84
  10
530.389221
  20
1330.752930
  0
VERTEX
  8
84
  10
528.543823
  20
1328.901123
  0
VERTEX
  8
84
  10
526.598083
  20
1327.151611
  0
VERTEX
  8
84
  10
524.565796
  20
1325.498169
  0
VERTEX
  8
84
  10
522.460632
  20
1323.934692
  0
VERTEX
  8
84
  10
520.296387
  20
1322.454712
  0
VERTEX
  8
84
  10
516.349121
  20
1320.015625
  0
VERTEX
  8
84
  10
512.291748
  20
1317.773193
  0
VERTEX
  8
84
  10
509.282410
  20
1316.238770
  0
VERTEX
  8
84
  10
506.232666
  20
1314.786987
  0
VERTEX
  8
84
  10
503.142975
  20
1313.421753
  0
VERTEX
  8
84
  10
500.013763
  20
1312.146729
  0
VERTEX
  8
84
  10
495.678986
  20
1310.560303
  0
VERTEX
  8
84
  10
491.279816
  20
1309.167603
  0
VERTEX
  8
84
  10
486.836975
  20
1307.948853
  0
VERTEX
  8
84
  10
486.836975
  20
1307.948853
  0
VERTEX
  8
84
  10
488.948364
  20
1301.633423
  0
VERTEX
  8
84
  10
491.126648
  20
1294.916626
  0
VERTEX
  8
84
  10
493.146423
  20
1288.151978
  0
VERTEX
  8
84
  10
493.876465
  20
1285.493164
  0
VERTEX
  8
84
  10
495.817017
  20
1278.262573
  0
VERTEX
  8
84
  10
498.724976
  20
1267.011108
  0
VERTEX
  8
84
  10
503.839478
  20
1247.081665
  0
VERTEX
  8
84
  10
506.737885
  20
1235.575806
  0
VERTEX
  8
84
  10
509.585266
  20
1224.057007
  0
VERTEX
  8
84
  10
511.200775
  20
1217.432007
  0
VERTEX
  8
84
  10
512.801086
  20
1210.804565
  0
VERTEX
  8
84
  10
514.386353
  20
1204.174805
  0
VERTEX
  8
84
  10
515.956665
  20
1197.542114
  0
VERTEX
  8
84
  10
517.512085
  20
1190.906616
  0
VERTEX
  8
84
  10
519.052734
  20
1184.267944
  0
VERTEX
  8
84
  10
520.578735
  20
1177.625854
  0
VERTEX
  8
84
  10
522.090149
  20
1170.980103
  0
VERTEX
  8
84
  10
523.587097
  20
1164.330566
  0
VERTEX
  8
84
  10
525.069702
  20
1157.677002
  0
VERTEX
  8
84
  10
526.537964
  20
1151.019165
  0
VERTEX
  8
84
  10
527.992126
  20
1144.356812
  0
VERTEX
  8
84
  10
530.087891
  20
1134.630737
  0
VERTEX
  8
84
  10
532.152771
  20
1124.901733
  0
VERTEX
  8
84
  10
534.187805
  20
1115.167603
  0
VERTEX
  8
84
  10
536.194031
  20
1105.426392
  0
VERTEX
  8
84
  10
538.172607
  20
1095.675781
  0
VERTEX
  8
84
  10
539.813965
  20
1087.474243
  0
VERTEX
  8
84
  10
541.433350
  20
1079.270996
  0
VERTEX
  8
84
  10
543.029297
  20
1071.064697
  0
VERTEX
  8
84
  10
544.600098
  20
1062.853516
  0
VERTEX
  8
84
  10
546.144409
  20
1054.635986
  0
VERTEX
  8
84
  10
547.660645
  20
1046.410522
  0
VERTEX
  8
84
  10
550.557495
  20
1030.356323
  0
VERTEX
  8
84
  10
558.423584
  20
986.918945
  0
VERTEX
  8
84
  10
562.248657
  20
965.361633
  0
VERTEX
  8
84
  10
566.017700
  20
943.794312
  0
VERTEX
  8
84
  10
578.449646
  20
871.694580
  0
VERTEX
  8
84
  10
590.640137
  20
799.908203
  0
VERTEX
  8
84
  10
590.640137
  20
799.908203
  0
VERTEX
  8
84
  10
586.394714
  20
774.908203
  0
VERTEX
  8
84
  10
586.394714
  20
774.908203
  0
VERTEX
  8
84
  10
590.640137
  20
774.908203
  0
VERTEX
  8
84
  10
653.151611
  20
774.908020
  0
VERTEX
  8
84
  10
715.640198
  20
774.907715
  0
VERTEX
  8
84
  10
778.128784
  20
774.907593
  0
VERTEX
  8
84
  10
840.640259
  20
774.908081
  0
VERTEX
  8
84
  10
844.878784
  20
774.908142
  0
VERTEX
  8
84
  10
844.878784
  20
774.908142
  0
VERTEX
  8
84
  10
840.640259
  20
799.908203
  0
SEQEND
  0
POINT
  8
2
  10
840.640259
  20
799.908203
  0
POINT
  8
2
  10
944.443359
  20
1307.948853
  0
POINT
  8
2
  10
741.385742
  20
1592.238281
  0
POINT
  8
2
  10
636.882385
  20
1568.834717
  0
POINT
  8
2
  10
486.836975
  20
1307.948853
  0
POINT
  8
2
  10
590.640137
  20
799.908203
  0
POINT
  8
2
  10
586.394714
  20
774.908203
  0
POINT
  8
2
  10
844.878784
  20
774.908142
  0
POINT
  8
3
  10
868.861145
  20
964.562073
  0
POINT
  8
3
  10
880.640137
  20
1030.018188
  0
POINT
  8
3
  10
902.715149
  20
1142.008911
  0
POINT
  8
3
  10
905.503540
  20
1154.986328
  0
POINT
  8
3
  10
906.712341
  20
1160.612427
  0
POINT
  8
3
  10
907.374023
  20
1163.568604
  0
POINT
  8
3
  10
911.194214
  20
1180.902344
  0
POINT
  8
3
  10
931.097229
  20
1262.288086
  0
POINT
  8
3
  10
938.131226
  20
1288.130493
  0
POINT
  8
3
  10
939.367432
  20
1309.167236
  0
POINT
  8
3
  10
935.085327
  20
1310.329712
  0
POINT
  8
3
  10
924.414001
  20
1313.807739
  0
POINT
  8
3
  10
919.509216
  20
1315.682129
  0
POINT
  8
3
  10
914.705078
  20
1317.714478
  0
POINT
  8
3
  10
905.243530
  20
1322.238892
  0
POINT
  8
3
  10
898.275146
  20
1326.267090
  0
POINT
  8
3
  10
885.498474
  20
1336.003906
  0
POINT
  8
3
  10
879.739441
  20
1341.696411
  0
POINT
  8
3
  10
877.270081
  20
1344.600464
  0
POINT
  8
3
  10
865.824524
  20
1360.061768
  0
POINT
  8
3
  10
864.278931
  20
1362.475098
  0
POINT
  8
3
  10
863.716553
  20
1363.353271
  0
POINT
  8
3
  10
861.714600
  20
1366.629883
  0
POINT
  8
3
  10
856.918823
  20
1374.800659
  0
POINT
  8
3
  10
852.873657
  20
1381.821533
  0
POINT
  8
3
  10
838.801453
  20
1407.304932
  0
POINT
  8
3
  10
834.275391
  20
1415.876587
  0
POINT
  8
3
  10
831.007935
  20
1422.220337
  0
POINT
  8
3
  10
829.954651
  20
1424.265625
  0
POINT
  8
3
  10
825.716125
  20
1432.660278
  0
POINT
  8
3
  10
808.352661
  20
1466.096313
  0
POINT
  8
3
  10
790.952454
  20
1499.214844
  0
POINT
  8
3
  10
787.059875
  20
1506.542969
  0
POINT
  8
3
  10
779.782227
  20
1520.162720
  0
POINT
  8
3
  10
767.716858
  20
1542.369385
  0
POINT
  8
3
  10
764.679871
  20
1547.898193
  0
POINT
  8
3
  10
759.669922
  20
1556.810547
  0
POINT
  8
3
  10
754.616455
  20
1566.187988
  0
POINT
  8
3
  10
747.931824
  20
1579.132446
  0
POINT
  8
3
  10
736.938232
  20
1587.763306
  0
POINT
  8
3
  10
733.779602
  20
1584.583618
  0
POINT
  8
3
  10
731.751526
  20
1582.846680
  0
POINT
  8
3
  10
729.885315
  20
1581.459106
  0
POINT
  8
3
  10
727.782715
  20
1580.152222
  0
POINT
  8
3
  10
725.076355
  20
1578.693726
  0
POINT
  8
3
  10
720.372803
  20
1576.620728
  0
POINT
  8
3
  10
718.856934
  20
1576.022583
  0
POINT
  8
3
  10
717.257690
  20
1575.497437
  0
POINT
  8
3
  10
715.658447
  20
1574.972290
  0
POINT
  8
3
  10
711.251221
  20
1573.788208
  0
POINT
  8
3
  10
708.116272
  20
1572.999023
  0
POINT
  8
3
  10
698.779114
  20
1570.656372
  0
POINT
  8
3
  10
693.481262
  20
1569.294556
  0
POINT
  8
3
  10
688.155273
  20
1568.645508
  0
POINT
  8
3
  10
683.678467
  20
1568.096680
  0
POINT
  8
3
  10
672.691589
  20
1566.749756
  0
POINT
  8
3
  10
653.296631
  20
1566.326172
  0
POINT
  8
3
  10
649.105957
  20
1566.668701
  0
POINT
  8
3
  10
644.971680
  20
1567.233154
  0
POINT
  8
3
  10
640.914429
  20
1567.919556
  0
POINT
  8
3
  10
620.764343
  20
1536.318604
  0
POINT
  8
3
  10
615.443115
  20
1525.916016
  0
POINT
  8
3
  10
611.240784
  20
1517.700439
  0
POINT
  8
3
  10
599.194275
  20
1493.287109
  0
POINT
  8
3
  10
587.761353
  20
1468.281250
  0
POINT
  8
3
  10
582.002869
  20
1454.838379
  0
POINT
  8
3
  10
576.599304
  20
1441.721191
  0
POINT
  8
3
  10
571.906494
  20
1429.828125
  0
POINT
  8
3
  10
570.333984
  20
1425.733154
  0
POINT
  8
3
  10
568.909424
  20
1422.002441
  0
POINT
  8
3
  10
566.979004
  20
1415.176270
  0
POINT
  8
3
  10
563.784119
  20
1404.450073
  0
POINT
  8
3
  10
560.462891
  20
1393.936523
  0
POINT
  8
3
  10
558.165466
  20
1387.034790
  0
POINT
  8
3
  10
555.780090
  20
1380.138184
  0
POINT
  8
3
  10
553.869507
  20
1374.809814
  0
POINT
  8
3
  10
553.310608
  20
1373.250854
  0
POINT
  8
3
  10
548.083496
  20
1359.836182
  0
POINT
  8
3
  10
546.627319
  20
1356.582397
  0
POINT
  8
3
  10
545.410522
  20
1354.037354
  0
POINT
  8
3
  10
540.038208
  20
1343.998413
  0
POINT
  8
3
  10
538.222412
  20
1340.982056
  0
POINT
  8
3
  10
536.519409
  20
1338.305786
  0
POINT
  8
3
  10
534.580444
  20
1335.622559
  0
POINT
  8
3
  10
533.593445
  20
1334.407593
  0
POINT
  8
3
  10
531.436401
  20
1331.900635
  0
POINT
  8
3
  10
530.389221
  20
1330.752930
  0
POINT
  8
3
  10
520.296387
  20
1322.454712
  0
POINT
  8
3
  10
512.291748
  20
1317.773193
  0
POINT
  8
3
  10
500.013763
  20
1312.146729
  0
POINT
  8
3
  10
491.279816
  20
1309.167603
  0
POINT
  8
3
  10
488.948364
  20
1301.633423
  0
POINT
  8
3
  10
493.146423
  20
1288.151978
  0
POINT
  8
3
  10
493.876465
  20
1285.493164
  0
POINT
  8
3
  10
495.817017
  20
1278.262573
  0
POINT
  8
3
  10
498.724976
  20
1267.011108
  0
POINT
  8
3
  10
503.839478
  20
1247.081665
  0
POINT
  8
3
  10
509.585266
  20
1224.057007
  0
POINT
  8
3
  10
527.992126
  20
1144.356812
  0
POINT
  8
3
  10
538.172607
  20
1095.675781
  0
POINT
  8
3
  10
547.660645
  20
1046.410522
  0
POINT
  8
3
  10
550.557495
  20
1030.356323
  0
POINT
  8
3
  10
558.423584
  20
986.918945
  0
POINT
  8
3
  10
566.017700
  20
943.794312
  0
POINT
  8
3
  10
578.449646
  20
871.694580
  0
POINT
  8
3
  10
590.640137
  20
774.908203
  0
POINT
  8
3
  10
840.640259
  20
774.908081
  0
POINT
  8
4
  10
864.279419
  20
1362.474365
  30
7.000000
  39
0.000000
  50
213.278809
  0
POINT
  8
4
  10
731.751526
  20
1582.846680
  30
7.000000
  39
0.000000
  50
310.579285
  0
POINT
  8
4
  10
720.372803
  20
1576.620728
  30
7.000000
  39
0.000000
  50
293.783569
  0
POINT
  8
4
  10
715.658447
  20
1574.972290
  30
7.000000
  39
0.000000
  50
288.180603
  0
POINT
  8
4
  10
553.869507
  20
1374.809814
  30
7.000000
  39
0.000000
  50
340.274445
  0
LINE
  8
7
  10
715.640137
  20
1093.572998
  11
715.640137
  21
1273.572998
  0
POLYLINE
  8
8
  66
1
  70
0
  250
1
  0
VERTEX
  8
8
  10
586.394714
  20
824.908203
  0
VERTEX
  8
8
  10
844.878784
  20
824.908203
  0
SEQEND
  0
TEXT
  8
8
  10
586.394714
  20
824.908203
  40
0.250000
  50
0.000000
  1
# 121
  7
STANDARD
  0
TEXT
  8
8
  10
844.878784
  20
824.908203
  40
0.250000
  50
0.000000
  1
# 122
  7
STANDARD
  0
POLYLINE
  8
85
  66
1
  70
0
  250
1
  0
VERTEX
  8
85
  10
586.394714
  20
824.908203
  0
VERTEX
  8
85
  10
844.878784
  20
824.908203
  0
SEQEND
  0
POINT
  8
2
  10
586.394714
  20
824.908203
  0
POINT
  8
2
  10
844.878784
  20
824.908203
  0
POLYLINE
  8
8
  66
1
  70
0
  250
1
  0
VERTEX
  8
8
  10
586.360901
  20
799.908203
  0
VERTEX
  8
8
  10
845.164368
  20
799.908203
  0
SEQEND
  0
TEXT
  8
8
  10
586.360901
  20
799.908203
  40
0.250000
  50
0.000000
  1
# 119
  7
STANDARD
  0
TEXT
  8
8
  10
845.164368
  20
799.908203
  40
0.250000
  50
0.000000
  1
# 120
  7
STANDARD
  0
POLYLINE
  8
85
  66
1
  70
0
  250
1
  0
VERTEX
  8
85
  10
586.360901
  20
799.908203
  0
VERTEX
  8
85
  10
845.164368
  20
799.908203
  0
SEQEND
  0
POINT
  8
2
  10
586.360901
  20
799.908203
  0
POINT
  8
2
  10
845.164368
  20
799.908203
  0
POLYLINE
  8
8
  66
1
  70
0
  250
1
  0
VERTEX
  8
8
  10
587.340332
  20
824.897583
  0
VERTEX
  8
8
  10
588.494263
  20
818.818848
  0
SEQEND
  0
TEXT
  8
8
  10
587.340332
  20
824.897583
  40
0.250000
  50
0.000000
  1
# 117
  7
STANDARD
  0
TEXT
  8
8
  10
588.494263
  20
818.818848
  40
0.250000
  50
0.000000
  1
# 118
  7
STANDARD
  0
POLYLINE
  8
85
  66
1
  70
0
  250
1
  0
VERTEX
  8
85
  10
587.340332
  20
824.897583
  0
VERTEX
  8
85
  10
588.494263
  20
818.818848
  0
SEQEND
  0
POINT
  8
2
  10
587.340332
  20
824.897583
  0
POINT
  8
2
  10
588.494263
  20
818.818848
  0
POLYLINE
  8
8
  66
1
  70
0
  250
1
  0
VERTEX
  8
8
  10
588.678284
  20
781.277283
  0
VERTEX
  8
8
  10
587.340332
  20
774.908203
  0
SEQEND
  0
TEXT
  8
8
  10
588.678284
  20
781.277283
  40
0.250000
  50
0.000000
  1
# 115
  7
STANDARD
  0
TEXT
  8
8
  10
587.340332
  20
774.908203
  40
0.250000
  50
0.000000
  1
# 116
  7
STANDARD
  0
POLYLINE
  8
85
  66
1
  70
0
  250
1
  0
VERTEX
  8
85
  10
588.678284
  20
781.277283
  0
VERTEX
  8
85
  10
587.340332
  20
774.908203
  0
SEQEND
  0
POINT
  8
2
  10
588.678284
  20
781.277283
  0
POINT
  8
2
  10
587.340332
  20
774.908203
  0
POLYLINE
  8
8
  66
1
  70
0
  250
1
  0
VERTEX
  8
8
  10
839.596863
  20
802.263733
  0
VERTEX
  8
8
  10
838.952576
  20
800.727417
  0
SEQEND
  0
TEXT
  8
8
  10
839.596863
  20
802.263733
  40
0.250000
  50
0.000000
  1
# 113
  7
STANDARD
  0
TEXT
  8
8
  10
838.952576
  20
800.727417
  40
0.250000
  50
0.000000
  1
# 114
  7
STANDARD
  0
POLYLINE
  8
85
  66
1
  70
0
  250
1
  0
VERTEX
  8
85
  10
839.596863
  20
802.263733
  0
VERTEX
  8
85
  10
838.952576
  20
800.727417
  0
SEQEND
  0
POINT
  8
2
  10
839.596863
  20
802.263733
  0
POINT
  8
2
  10
838.952576
  20
800.727417
  0
POLYLINE
  8
8
  66
1
  70
0
  250
1
  0
VERTEX
  8
8
  10
748.478516
  20
1585.188965
  0
VERTEX
  8
8
  10
741.400024
  20
1578.024536
  0
VERTEX
  8
8
  10
733.450684
  20
1571.878174
  0
VERTEX
  8
8
  10
724.405762
  20
1567.470093
  0
SEQEND
  0
TEXT
  8
8
  10
748.478516
  20
1585.188965
  40
0.250000
  50
0.000000
  1
# 111
  7
STANDARD
  0
TEXT
  8
8
  10
724.405762
  20
1567.470093
  40
0.250000
  50
0.000000
  1
# 112
  7
STANDARD
  0
POLYLINE
  8
85
  66
1
  70
0
  250
1
  0
VERTEX
  8
85
  10
748.478516
  20
1585.188965
  0
VERTEX
  8
85
  10
745.001099
  20
1581.550049
  0
VERTEX
  8
85
  10
741.400024
  20
1578.024536
  0
VERTEX
  8
85
  10
739.520020
  20
1576.344971
  0
VERTEX
  8
85
  10
737.573059
  20
1574.745605
  0
VERTEX
  8
85
  10
735.552246
  20
1573.249146
  0
VERTEX
  8
85
  10
733.450684
  20
1571.878174
  0
VERTEX
  8
85
  10
730.520691
  20
1570.260742
  0
VERTEX
  8
85
  10
727.489258
  20
1568.821411
  0
VERTEX
  8
85
  10
724.405762
  20
1567.470093
  0
SEQEND
  0
POINT
  8
2
  10
748.478516
  20
1585.188965
  0
POINT
  8
2
  10
724.405762
  20
1567.470093
  0
POINT
  8
3
  10
741.400024
  20
1578.024536
  0
POINT
  8
3
  10
733.450684
  20
1571.878174
  0
POLYLINE
  8
8
  66
1
  70
0
  250
1
  0
VERTEX
  8
8
  10
741.678101
  20
1591.502197
  0
VERTEX
  8
8
  10
735.244751
  20
1586.109985
  0
VERTEX
  8
8
  10
728.155090
  20
1581.489136
  0
VERTEX
  8
8
  10
720.009766
  20
1578.521851
  0
SEQEND
  0
TEXT
  8
8
  10
741.678101
  20
1591.502197
  40
0.250000
  50
0.000000
  1
# 109
  7
STANDARD
  0
TEXT
  8
8
  10
720.009766
  20
1578.521851
  40
0.250000
  50
0.000000
  1
# 110
  7
STANDARD
  0
POLYLINE
  8
85
  66
1
  70
0
  250
1
  0
VERTEX
  8
85
  10
741.678101
  20
1591.502197
  0
VERTEX
  8
85
  10
735.244751
  20
1586.109985
  0
VERTEX
  8
85
  10
732.975464
  20
1584.412354
  0
VERTEX
  8
85
  10
730.618835
  20
1582.850586
  0
VERTEX
  8
85
  10
728.155090
  20
1581.489136
  0
VERTEX
  8
85
  10
725.512390
  20
1580.344360
  0
VERTEX
  8
85
  10
722.783264
  20
1579.386719
  0
VERTEX
  8
85
  10
720.009766
  20
1578.521851
  0
SEQEND
  0
POINT
  8
2
  10
741.678101
  20
1591.502197
  0
POINT
  8
2
  10
720.009766
  20
1578.521851
  0
POINT
  8
3
  10
735.244751
  20
1586.109985
  0
POINT
  8
3
  10
728.155090
  20
1581.489136
  0
POLYLINE
  8
8
  66
1
  70
0
  250
0
  0
VERTEX
  8
8
  10
938.136597
  20
1288.151978
  0
VERTEX
  8
8
  10
715.642761
  20
1287.900635
  0
SEQEND
  0
TEXT
  8
8
  10
938.136597
  20
1288.151978
  40
0.250000
  50
0.000000
  1
# 107
  7
STANDARD
  0
TEXT
  8
8
  10
715.642761
  20
1287.900635
  40
0.250000
  50
0.000000
  1
# 108
  7
STANDARD
  0
POLYLINE
  8
85
  66
1
  70
0
  250
1
  0
VERTEX
  8
85
  10
938.136597
  20
1288.151978
  0
VERTEX
  8
85
  10
715.642761
  20
1287.900635
  0
SEQEND
  0
POINT
  8
2
  10
938.136597
  20
1288.151978
  0
POINT
  8
2
  10
715.642761
  20
1287.900635
  0
POLYLINE
  8
8
  66
1
  70
0
  250
0
  0
VERTEX
  8
8
  10
493.146423
  20
1288.151978
  0
VERTEX
  8
8
  10
715.642761
  20
1287.900635
  0
SEQEND
  0
TEXT
  8
8
  10
493.146423
  20
1288.151978
  40
0.250000
  50
0.000000
  1
# 105
  7
STANDARD
  0
TEXT
  8
8
  10
715.642761
  20
1287.900635
  40
0.250000
  50
0.000000
  1
# 106
  7
STANDARD
  0
POLYLINE
  8
85
  66
1
  70
0
  250
1
  0
VERTEX
  8
85
  10
493.146423
  20
1288.151978
  0
VERTEX
  8
85
  10
715.642761
  20
1287.900635
  0
SEQEND
  0
POINT
  8
2
  10
493.146423
  20
1288.151978
  0
POINT
  8
2
  10
715.642761
  20
1287.900635
  0
POLYLINE
  8
8
  66
1
  70
0
  250
0
  0
VERTEX
  8
8
  10
550.640137
  20
1030.028198
  0
VERTEX
  8
8
  10
880.640076
  20
1030.028198
  0
SEQEND
  0
TEXT
  8
8
  10
550.640137
  20
1030.028198
  40
0.250000
  50
0.000000
  1
# 103
  7
STANDARD
  0
TEXT
  8
8
  10
880.640076
  20
1030.028198
  40
0.250000
  50
0.000000
  1
# 104
  7
STANDARD
  0
POLYLINE
  8
85
  66
1
  70
0
  250
1
  0
VERTEX
  8
85
  10
550.640137
  20
1030.028198
  0
VERTEX
  8
85
  10
880.640076
  20
1030.028198
  0
SEQEND
  0
POINT
  8
2
  10
550.640137
  20
1030.028198
  0
POINT
  8
2
  10
880.640076
  20
1030.028198
  0
POLYLINE
  8
8
  66
1
  70
0
  250
0
  0
VERTEX
  8
8
  10
715.643372
  20
799.958252
  0
VERTEX
  8
8
  10
715.643372
  20
1574.968262
  0
SEQEND
  0
TEXT
  8
8
  10
715.643372
  20
799.958252
  40
0.250000
  50
0.000000
  1
# 101
  7
STANDARD
  0
TEXT
  8
8
  10
715.643372
  20
1574.968262
  40
0.250000
  50
0.000000
  1
# 102
  7
STANDARD
  0
POLYLINE
  8
85
  66
1
  70
0
  250
1
  0
VERTEX
  8
85
  10
715.643372
  20
799.958252
  0
VERTEX
  8
85
  10
715.643372
  20
1574.968262
  0
SEQEND
  0
POINT
  8
2
  10
715.643372
  20
799.958252
  0
POINT
  8
2
  10
715.643372
  20
1574.968262
  0
POLYLINE
  8
8
  66
1
  70
0
  250
0
  0
VERTEX
  8
8
  10
590.640137
  20
799.908203
  0
VERTEX
  8
8
  10
840.640259
  20
799.908203
  0
SEQEND
  0
TEXT
  8
8
  10
590.640137
  20
799.908203
  40
0.250000
  50
0.000000
  1
# 99
  7
STANDARD
  0
TEXT
  8
8
  10
840.640259
  20
799.908203
  40
0.250000
  50
0.000000
  1
# 100
  7
STANDARD
  0
POLYLINE
  8
85
  66
1
  70
0
  250
1
  0
VERTEX
  8
85
  10
590.640137
  20
799.908203
  0
VERTEX
  8
85
  10
840.640259
  20
799.908203
  0
SEQEND
  0
POINT
  8
2
  10
590.640137
  20
799.908203
  0
POINT
  8
2
  10
840.640259
  20
799.908203
  0
TEXT
  8
1
  10
715.640137
  20
1183.572998
  50
0.000000
  51
0.000000
  71
0.000000
  1
PIECE NAME: L-AMX1408F22-SL_selffabric_3
  7
STANDARD
  0
TEXT
  8
1
  10
715.640137
  20
1178.572998
  50
0.000000
  51
0.000000
  71
0.000000
  1
SIZE: A36
  7
STANDARD
  0
TEXT
  8
1
  10
715.640137
  20
1173.572998
  50
0.000000
  51
0.000000
  71
0.000000
  1
ANNOTATION:  2X FABRIC
  7
STANDARD
  0
TEXT
  8
1
  10
715.640137
  20
1168.572998
  50
0.000000
  51
0.000000
  71
0.000000
  1
QUANTITY: 1
  7
STANDARD
  0
ENDBLK
  0
BLOCK
  8
1
  2
L-AMX1408F22-SL_selffabric_1_A36
  70
64
  10
0
  20
0
  0
POLYLINE
  8
1
  66
1
  70
1
  250
2
  0
VERTEX
  8
1
  10
-805.119263
  20
799.958252
  0
VERTEX
  8
1
  10
-833.340149
  20
964.612122
  0
VERTEX
  8
1
  10
-845.119141
  20
1030.068237
  0
VERTEX
  8
1
  10
-867.194153
  20
1142.058960
  0
VERTEX
  8
1
  10
-869.982544
  20
1155.036377
  0
VERTEX
  8
1
  10
-871.191345
  20
1160.662476
  0
VERTEX
  8
1
  10
-871.853027
  20
1163.618652
  0
VERTEX
  8
1
  10
-875.673218
  20
1180.952393
  0
VERTEX
  8
1
  10
-895.576233
  20
1262.338135
  0
VERTEX
  8
1
  10
-902.610229
  20
1288.180542
  0
VERTEX
  8
1
  10
-908.922363
  20
1307.998901
  0
VERTEX
  8
1
  10
-903.846436
  20
1309.217285
  0
VERTEX
  8
1
  10
-899.564331
  20
1310.379761
  0
VERTEX
  8
1
  10
-888.893005
  20
1313.857788
  0
VERTEX
  8
1
  10
-883.988220
  20
1315.732178
  0
VERTEX
  8
1
  10
-879.184082
  20
1317.764526
  0
VERTEX
  8
1
  10
-869.722534
  20
1322.288940
  0
VERTEX
  8
1
  10
-862.754150
  20
1326.317139
  0
VERTEX
  8
1
  10
-849.977478
  20
1336.053955
  0
VERTEX
  8
1
  10
-844.218445
  20
1341.746460
  0
VERTEX
  8
1
  10
-841.749084
  20
1344.650513
  0
VERTEX
  8
1
  10
-830.303528
  20
1360.111816
  0
VERTEX
  8
1
  10
-828.757935
  20
1362.525146
  0
VERTEX
  8
1
  10
-828.195557
  20
1363.403320
  0
VERTEX
  8
1
  10
-826.193604
  20
1366.679932
  0
VERTEX
  8
1
  10
-821.397827
  20
1374.850708
  0
VERTEX
  8
1
  10
-817.352661
  20
1381.871582
  0
VERTEX
  8
1
  10
-803.280457
  20
1407.354980
  0
VERTEX
  8
1
  10
-798.754395
  20
1415.926636
  0
VERTEX
  8
1
  10
-795.486938
  20
1422.270386
  0
VERTEX
  8
1
  10
-794.433655
  20
1424.315674
  0
VERTEX
  8
1
  10
-790.195129
  20
1432.710327
  0
VERTEX
  8
1
  10
-772.831665
  20
1466.146362
  0
VERTEX
  8
1
  10
-755.431458
  20
1499.264893
  0
VERTEX
  8
1
  10
-751.538879
  20
1506.593018
  0
VERTEX
  8
1
  10
-744.261230
  20
1520.212769
  0
VERTEX
  8
1
  10
-732.195862
  20
1542.419434
  0
VERTEX
  8
1
  10
-729.158875
  20
1547.948242
  0
VERTEX
  8
1
  10
-724.148926
  20
1556.860596
  0
VERTEX
  8
1
  10
-719.095459
  20
1566.238037
  0
VERTEX
  8
1
  10
-712.410828
  20
1579.182495
  0
VERTEX
  8
1
  10
-705.864746
  20
1592.288330
  0
VERTEX
  8
1
  10
-701.417236
  20
1587.813354
  0
VERTEX
  8
1
  10
-698.258606
  20
1584.633667
  0
VERTEX
  8
1
  10
-696.230530
  20
1582.896729
  0
VERTEX
  8
1
  10
-694.364319
  20
1581.509155
  0
VERTEX
  8
1
  10
-692.261719
  20
1580.202271
  0
VERTEX
  8
1
  10
-689.555359
  20
1578.743774
  0
VERTEX
  8
1
  10
-684.851807
  20
1576.670776
  0
VERTEX
  8
1
  10
-683.335938
  20
1576.072632
  0
VERTEX
  8
1
  10
-681.736694
  20
1575.547485
  0
VERTEX
  8
1
  10
-680.137451
  20
1575.022339
  0
VERTEX
  8
1
  10
-675.730225
  20
1573.838257
  0
VERTEX
  8
1
  10
-672.595276
  20
1573.049072
  0
VERTEX
  8
1
  10
-663.258118
  20
1570.706421
  0
VERTEX
  8
1
  10
-657.960266
  20
1569.344604
  0
VERTEX
  8
1
  10
-652.634277
  20
1568.695557
  0
VERTEX
  8
1
  10
-648.157471
  20
1568.146729
  0
VERTEX
  8
1
  10
-637.170593
  20
1566.799805
  0
VERTEX
  8
1
  10
-617.775635
  20
1566.376221
  0
VERTEX
  8
1
  10
-613.584961
  20
1566.718750
  0
VERTEX
  8
1
  10
-609.450684
  20
1567.283203
  0
VERTEX
  8
1
  10
-605.393433
  20
1567.969604
  0
VERTEX
  8
1
  10
-601.361389
  20
1568.884766
  0
VERTEX
  8
1
  10
-585.243347
  20
1536.368652
  0
VERTEX
  8
1
  10
-579.922119
  20
1525.966064
  0
VERTEX
  8
1
  10
-575.719788
  20
1517.750488
  0
VERTEX
  8
1
  10
-563.673279
  20
1493.337158
  0
VERTEX
  8
1
  10
-552.240356
  20
1468.331299
  0
VERTEX
  8
1
  10
-546.481873
  20
1454.888428
  0
VERTEX
  8
1
  10
-541.078308
  20
1441.771240
  0
VERTEX
  8
1
  10
-536.385498
  20
1429.878174
  0
VERTEX
  8
1
  10
-534.812988
  20
1425.783203
  0
VERTEX
  8
1
  10
-533.388428
  20
1422.052490
  0
VERTEX
  8
1
  10
-531.458008
  20
1415.226318
  0
VERTEX
  8
1
  10
-528.263123
  20
1404.500122
  0
VERTEX
  8
1
  10
-524.941895
  20
1393.986572
  0
VERTEX
  8
1
  10
-522.644470
  20
1387.084839
  0
VERTEX
  8
1
  10
-520.259094
  20
1380.188232
  0
VERTEX
  8
1
  10
-518.348511
  20
1374.859863
  0
VERTEX
  8
1
  10
-517.789612
  20
1373.300903
  0
VERTEX
  8
1
  10
-512.562500
  20
1359.886230
  0
VERTEX
  8
1
  10
-511.106323
  20
1356.632446
  0
VERTEX
  8
1
  10
-509.889526
  20
1354.087402
  0
VERTEX
  8
1
  10
-504.517212
  20
1344.048462
  0
VERTEX
  8
1
  10
-502.701416
  20
1341.032104
  0
VERTEX
  8
1
  10
-500.998444
  20
1338.355835
  0
VERTEX
  8
1
  10
-499.059418
  20
1335.672607
  0
VERTEX
  8
1
  10
-498.072449
  20
1334.457642
  0
VERTEX
  8
1
  10
-495.915405
  20
1331.950684
  0
VERTEX
  8
1
  10
-494.868225
  20
1330.802979
  0
VERTEX
  8
1
  10
-484.775391
  20
1322.504761
  0
VERTEX
  8
1
  10
-476.770721
  20
1317.823242
  0
VERTEX
  8
1
  10
-464.492767
  20
1312.196777
  0
VERTEX
  8
1
  10
-455.758820
  20
1309.217651
  0
VERTEX
  8
1
  10
-451.315979
  20
1307.998901
  0
VERTEX
  8
1
  10
-453.427368
  20
1301.683472
  0
VERTEX
  8
1
  10
-457.625427
  20
1288.202026
  0
VERTEX
  8
1
  10
-458.355469
  20
1285.543213
  0
VERTEX
  8
1
  10
-460.296021
  20
1278.312622
  0
VERTEX
  8
1
  10
-463.203979
  20
1267.061157
  0
VERTEX
  8
1
  10
-468.318481
  20
1247.131714
  0
VERTEX
  8
1
  10
-474.064270
  20
1224.107056
  0
VERTEX
  8
1
  10
-492.471130
  20
1144.406860
  0
VERTEX
  8
1
  10
-502.651581
  20
1095.725830
  0
VERTEX
  8
1
  10
-512.139648
  20
1046.460571
  0
VERTEX
  8
1
  10
-515.036499
  20
1030.406372
  0
VERTEX
  8
1
  10
-522.902588
  20
986.968994
  0
VERTEX
  8
1
  10
-530.496704
  20
943.844360
  0
VERTEX
  8
1
  10
-542.928650
  20
871.744629
  0
VERTEX
  8
1
  10
-555.119141
  20
799.958252
  0
VERTEX
  8
1
  10
-550.873718
  20
774.958252
  0
VERTEX
  8
1
  10
-555.119141
  20
774.958252
  0
VERTEX
  8
1
  10
-805.119263
  20
774.958130
  0
VERTEX
  8
1
  10
-809.357788
  20
774.958191
  0
SEQEND
  0
TEXT
  8
1
  10
-805.119263
  20
799.958252
  40
0.250000
  50
0.000000
  1
# 96
  7
STANDARD
  0
TEXT
  8
1
  10
-908.922363
  20
1307.998901
  40
0.250000
  50
0.000000
  1
# 97
  7
STANDARD
  0
TEXT
  8
1
  10
-705.864746
  20
1592.288330
  40
0.250000
  50
0.000000
  1
# 98
  7
STANDARD
  0
TEXT
  8
1
  10
-601.361389
  20
1568.884766
  40
0.250000
  50
0.000000
  1
# 91
  7
STANDARD
  0
TEXT
  8
1
  10
-451.315979
  20
1307.998901
  40
0.250000
  50
0.000000
  1
# 92
  7
STANDARD
  0
TEXT
  8
1
  10
-555.119141
  20
799.958252
  40
0.250000
  50
0.000000
  1
# 93
  7
STANDARD
  0
TEXT
  8
1
  10
-550.873718
  20
774.958252
  40
0.250000
  50
0.000000
  1
# 94
  7
STANDARD
  0
TEXT
  8
1
  10
-809.357788
  20
774.958191
  40
0.250000
  50
0.000000
  1
# 95
  7
STANDARD
  0
POLYLINE
  8
84
  66
1
  70
1
  250
2
  0
VERTEX
  8
84
  10
-805.119263
  20
799.958252
  0
VERTEX
  8
84
  10
-819.081421
  20
882.311462
  0
VERTEX
  8
84
  10
-833.340149
  20
964.612122
  0
VERTEX
  8
84
  10
-836.240662
  20
980.986877
  0
VERTEX
  8
84
  10
-839.167297
  20
997.350952
  0
VERTEX
  8
84
  10
-842.125061
  20
1013.709595
  0
VERTEX
  8
84
  10
-845.119141
  20
1030.068237
  0
VERTEX
  8
84
  10
-846.415894
  20
1037.086792
  0
VERTEX
  8
84
  10
-847.720215
  20
1044.102783
  0
VERTEX
  8
84
  10
-849.032898
  20
1051.116333
  0
VERTEX
  8
84
  10
-850.354736
  20
1058.127319
  0
VERTEX
  8
84
  10
-851.686279
  20
1065.135742
  0
VERTEX
  8
84
  10
-853.028503
  20
1072.141724
  0
VERTEX
  8
84
  10
-854.382019
  20
1079.145142
  0
VERTEX
  8
84
  10
-855.747559
  20
1086.145874
  0
VERTEX
  8
84
  10
-857.125916
  20
1093.144165
  0
VERTEX
  8
84
  10
-858.517761
  20
1100.139771
  0
VERTEX
  8
84
  10
-859.923828
  20
1107.132812
  0
VERTEX
  8
84
  10
-861.344971
  20
1114.123291
  0
VERTEX
  8
84
  10
-862.781799
  20
1121.111206
  0
VERTEX
  8
84
  10
-864.235107
  20
1128.096436
  0
VERTEX
  8
84
  10
-865.705688
  20
1135.078979
  0
VERTEX
  8
84
  10
-867.194153
  20
1142.058960
  0
VERTEX
  8
84
  10
-869.982544
  20
1155.036377
  0
VERTEX
  8
84
  10
-871.191345
  20
1160.662476
  0
VERTEX
  8
84
  10
-871.853027
  20
1163.618652
  0
VERTEX
  8
84
  10
-875.673218
  20
1180.952393
  0
VERTEX
  8
84
  10
-876.981445
  20
1186.794312
  0
VERTEX
  8
84
  10
-878.312988
  20
1192.629639
  0
VERTEX
  8
84
  10
-879.666504
  20
1198.458984
  0
VERTEX
  8
84
  10
-881.040405
  20
1204.282837
  0
VERTEX
  8
84
  10
-882.433228
  20
1210.101807
  0
VERTEX
  8
84
  10
-883.843506
  20
1215.916260
  0
VERTEX
  8
84
  10
-885.269836
  20
1221.726929
  0
VERTEX
  8
84
  10
-886.710571
  20
1227.534302
  0
VERTEX
  8
84
  10
-888.164368
  20
1233.338745
  0
VERTEX
  8
84
  10
-889.629639
  20
1239.140991
  0
VERTEX
  8
84
  10
-891.104919
  20
1244.941528
  0
VERTEX
  8
84
  10
-892.588806
  20
1250.740967
  0
VERTEX
  8
84
  10
-894.079712
  20
1256.539551
  0
VERTEX
  8
84
  10
-895.576233
  20
1262.338135
  0
VERTEX
  8
84
  10
-897.259583
  20
1268.821899
  0
VERTEX
  8
84
  10
-898.974365
  20
1275.294189
  0
VERTEX
  8
84
  10
-900.748535
  20
1281.749023
  0
VERTEX
  8
84
  10
-902.610229
  20
1288.180542
  0
VERTEX
  8
84
  10
-904.646484
  20
1294.807495
  0
VERTEX
  8
84
  10
-906.763733
  20
1301.408203
  0
VERTEX
  8
84
  10
-908.922363
  20
1307.998901
  0
VERTEX
  8
84
  10
-908.922363
  20
1307.998901
  0
VERTEX
  8
84
  10
-903.846436
  20
1309.217285
  0
VERTEX
  8
84
  10
-899.564331
  20
1310.379761
  0
VERTEX
  8
84
  10
-894.199158
  20
1312.027832
  0
VERTEX
  8
84
  10
-888.893005
  20
1313.857788
  0
VERTEX
  8
84
  10
-883.988220
  20
1315.732178
  0
VERTEX
  8
84
  10
-879.184082
  20
1317.764526
  0
VERTEX
  8
84
  10
-874.413086
  20
1319.943481
  0
VERTEX
  8
84
  10
-869.722534
  20
1322.288940
  0
VERTEX
  8
84
  10
-866.197449
  20
1324.232300
  0
VERTEX
  8
84
  10
-862.754150
  20
1326.317139
  0
VERTEX
  8
84
  10
-860.072449
  20
1328.090088
  0
VERTEX
  8
84
  10
-857.454102
  20
1329.955566
  0
VERTEX
  8
84
  10
-854.898926
  20
1331.908081
  0
VERTEX
  8
84
  10
-852.406738
  20
1333.942627
  0
VERTEX
  8
84
  10
-849.977478
  20
1336.053955
  0
VERTEX
  8
84
  10
-847.017700
  20
1338.822754
  0
VERTEX
  8
84
  10
-844.218445
  20
1341.746460
  0
VERTEX
  8
84
  10
-841.749084
  20
1344.650513
  0
VERTEX
  8
84
  10
-839.328247
  20
1347.645630
  0
VERTEX
  8
84
  10
-836.963745
  20
1350.684326
  0
VERTEX
  8
84
  10
-834.665100
  20
1353.771484
  0
VERTEX
  8
84
  10
-832.441895
  20
1356.912231
  0
VERTEX
  8
84
  10
-830.303528
  20
1360.111816
  0
VERTEX
  8
84
  10
-828.757935
  20
1362.525146
  0
VERTEX
  8
84
  10
-828.195557
  20
1363.403320
  0
VERTEX
  8
84
  10
-826.193604
  20
1366.679932
  0
VERTEX
  8
84
  10
-821.397827
  20
1374.850708
  0
VERTEX
  8
84
  10
-817.352661
  20
1381.871582
  0
VERTEX
  8
84
  10
-813.766479
  20
1388.206055
  0
VERTEX
  8
84
  10
-810.228516
  20
1394.564575
  0
VERTEX
  8
84
  10
-806.734497
  20
1400.947510
  0
VERTEX
  8
84
  10
-803.280457
  20
1407.354980
  0
VERTEX
  8
84
  10
-798.754395
  20
1415.926636
  0
VERTEX
  8
84
  10
-795.486938
  20
1422.270386
  0
VERTEX
  8
84
  10
-794.433655
  20
1424.315674
  0
VERTEX
  8
84
  10
-790.195129
  20
1432.710327
  0
VERTEX
  8
84
  10
-785.917847
  20
1441.103760
  0
VERTEX
  8
84
  10
-781.583374
  20
1449.464233
  0
VERTEX
  8
84
  10
-777.213928
  20
1457.806641
  0
VERTEX
  8
84
  10
-772.831665
  20
1466.146362
  0
VERTEX
  8
84
  10
-755.431458
  20
1499.264893
  0
VERTEX
  8
84
  10
-751.538879
  20
1506.593018
  0
VERTEX
  8
84
  10
-744.261230
  20
1520.212769
  0
VERTEX
  8
84
  10
-732.195862
  20
1542.419434
  0
VERTEX
  8
84
  10
-729.158875
  20
1547.948242
  0
VERTEX
  8
84
  10
-724.148926
  20
1556.860596
  0
VERTEX
  8
84
  10
-719.095459
  20
1566.238037
  0
VERTEX
  8
84
  10
-712.410828
  20
1579.182495
  0
VERTEX
  8
84
  10
-705.864746
  20
1592.288330
  0
VERTEX
  8
84
  10
-705.864746
  20
1592.288330
  0
VERTEX
  8
84
  10
-701.417236
  20
1587.813354
  0
VERTEX
  8
84
  10
-698.258606
  20
1584.633667
  0
VERTEX
  8
84
  10
-696.230530
  20
1582.896729
  0
VERTEX
  8
84
  10
-694.364319
  20
1581.509155
  0
VERTEX
  8
84
  10
-692.261719
  20
1580.202271
  0
VERTEX
  8
84
  10
-689.555359
  20
1578.743774
  0
VERTEX
  8
84
  10
-684.851807
  20
1576.670776
  0
VERTEX
  8
84
  10
-683.335938
  20
1576.072632
  0
VERTEX
  8
84
  10
-681.736694
  20
1575.547485
  0
VERTEX
  8
84
  10
-680.137451
  20
1575.022339
  0
VERTEX
  8
84
  10
-675.730225
  20
1573.838257
  0
VERTEX
  8
84
  10
-672.595276
  20
1573.049072
  0
VERTEX
  8
84
  10
-663.258118
  20
1570.706421
  0
VERTEX
  8
84
  10
-657.960266
  20
1569.344604
  0
VERTEX
  8
84
  10
-652.634277
  20
1568.695557
  0
VERTEX
  8
84
  10
-648.157471
  20
1568.146729
  0
VERTEX
  8
84
  10
-637.170593
  20
1566.799805
  0
VERTEX
  8
84
  10
-633.945557
  20
1566.525269
  0
VERTEX
  8
84
  10
-630.714783
  20
1566.328857
  0
VERTEX
  8
84
  10
-627.480286
  20
1566.213257
  0
VERTEX
  8
84
  10
-624.244202
  20
1566.180908
  0
VERTEX
  8
84
  10
-621.008606
  20
1566.234375
  0
VERTEX
  8
84
  10
-617.775635
  20
1566.376221
  0
VERTEX
  8
84
  10
-613.584961
  20
1566.718750
  0
VERTEX
  8
84
  10
-609.450684
  20
1567.283203
  0
VERTEX
  8
84
  10
-605.393433
  20
1567.969604
  0
VERTEX
  8
84
  10
-601.361389
  20
1568.884766
  0
VERTEX
  8
84
  10
-601.361389
  20
1568.884766
  0
VERTEX
  8
84
  10
-596.034363
  20
1558.021606
  0
VERTEX
  8
84
  10
-590.674438
  20
1547.179443
  0
VERTEX
  8
84
  10
-585.243347
  20
1536.368652
  0
VERTEX
  8
84
  10
-579.922119
  20
1525.966064
  0
VERTEX
  8
84
  10
-575.719788
  20
1517.750488
  0
VERTEX
  8
84
  10
-571.635620
  20
1509.645630
  0
VERTEX
  8
84
  10
-567.617798
  20
1501.510986
  0
VERTEX
  8
84
  10
-563.673279
  20
1493.337158
  0
VERTEX
  8
84
  10
-560.740112
  20
1487.118896
  0
VERTEX
  8
84
  10
-557.857056
  20
1480.879883
  0
VERTEX
  8
84
  10
-555.023865
  20
1474.618042
  0
VERTEX
  8
84
  10
-552.240356
  20
1468.331299
  0
VERTEX
  8
84
  10
-546.481873
  20
1454.888428
  0
VERTEX
  8
84
  10
-541.078308
  20
1441.771240
  0
VERTEX
  8
84
  10
-536.385498
  20
1429.878174
  0
VERTEX
  8
84
  10
-534.812988
  20
1425.783203
  0
VERTEX
  8
84
  10
-533.388428
  20
1422.052490
  0
VERTEX
  8
84
  10
-531.458008
  20
1415.226318
  0
VERTEX
  8
84
  10
-529.916138
  20
1409.845703
  0
VERTEX
  8
84
  10
-528.263123
  20
1404.500122
  0
VERTEX
  8
84
  10
-524.941895
  20
1393.986572
  0
VERTEX
  8
84
  10
-522.644470
  20
1387.084839
  0
VERTEX
  8
84
  10
-520.259094
  20
1380.188232
  0
VERTEX
  8
84
  10
-518.348511
  20
1374.859863
  0
VERTEX
  8
84
  10
-517.789612
  20
1373.300903
  0
VERTEX
  8
84
  10
-516.135620
  20
1368.794312
  0
VERTEX
  8
84
  10
-514.403320
  20
1364.318848
  0
VERTEX
  8
84
  10
-512.562500
  20
1359.886230
  0
VERTEX
  8
84
  10
-511.106323
  20
1356.632446
  0
VERTEX
  8
84
  10
-509.889526
  20
1354.087402
  0
VERTEX
  8
84
  10
-507.297363
  20
1349.017334
  0
VERTEX
  8
84
  10
-504.517212
  20
1344.048462
  0
VERTEX
  8
84
  10
-502.701416
  20
1341.032104
  0
VERTEX
  8
84
  10
-500.998444
  20
1338.355835
  0
VERTEX
  8
84
  10
-499.059418
  20
1335.672607
  0
VERTEX
  8
84
  10
-498.072449
  20
1334.457642
  0
VERTEX
  8
84
  10
-495.915405
  20
1331.950684
  0
VERTEX
  8
84
  10
-494.868225
  20
1330.802979
  0
VERTEX
  8
84
  10
-493.022827
  20
1328.951172
  0
VERTEX
  8
84
  10
-491.077087
  20
1327.201660
  0
VERTEX
  8
84
  10
-489.044800
  20
1325.548218
  0
VERTEX
  8
84
  10
-486.939636
  20
1323.984741
  0
VERTEX
  8
84
  10
-484.775391
  20
1322.504761
  0
VERTEX
  8
84
  10
-480.828125
  20
1320.065674
  0
VERTEX
  8
84
  10
-476.770721
  20
1317.823242
  0
VERTEX
  8
84
  10
-473.761414
  20
1316.288818
  0
VERTEX
  8
84
  10
-470.711670
  20
1314.837036
  0
VERTEX
  8
84
  10
-467.621979
  20
1313.471802
  0
VERTEX
  8
84
  10
-464.492767
  20
1312.196777
  0
VERTEX
  8
84
  10
-460.157990
  20
1310.610352
  0
VERTEX
  8
84
  10
-455.758820
  20
1309.217651
  0
VERTEX
  8
84
  10
-451.315979
  20
1307.998901
  0
VERTEX
  8
84
  10
-451.315979
  20
1307.998901
  0
VERTEX
  8
84
  10
-453.427368
  20
1301.683472
  0
VERTEX
  8
84
  10
-455.605652
  20
1294.966675
  0
VERTEX
  8
84
  10
-457.625427
  20
1288.202026
  0
VERTEX
  8
84
  10
-458.355469
  20
1285.543213
  0
VERTEX
  8
84
  10
-460.296021
  20
1278.312622
  0
VERTEX
  8
84
  10
-463.203979
  20
1267.061157
  0
VERTEX
  8
84
  10
-468.318481
  20
1247.131714
  0
VERTEX
  8
84
  10
-471.216888
  20
1235.625854
  0
VERTEX
  8
84
  10
-474.064270
  20
1224.107056
  0
VERTEX
  8
84
  10
-475.679779
  20
1217.482056
  0
VERTEX
  8
84
  10
-477.280090
  20
1210.854614
  0
VERTEX
  8
84
  10
-478.865356
  20
1204.224854
  0
VERTEX
  8
84
  10
-480.435669
  20
1197.592163
  0
VERTEX
  8
84
  10
-481.991089
  20
1190.956665
  0
VERTEX
  8
84
  10
-483.531738
  20
1184.317993
  0
VERTEX
  8
84
  10
-485.057739
  20
1177.675903
  0
VERTEX
  8
84
  10
-486.569153
  20
1171.030151
  0
VERTEX
  8
84
  10
-488.066101
  20
1164.380615
  0
VERTEX
  8
84
  10
-489.548706
  20
1157.727051
  0
VERTEX
  8
84
  10
-491.016998
  20
1151.069214
  0
VERTEX
  8
84
  10
-492.471130
  20
1144.406860
  0
VERTEX
  8
84
  10
-494.566925
  20
1134.680786
  0
VERTEX
  8
84
  10
-496.631775
  20
1124.951782
  0
VERTEX
  8
84
  10
-498.666809
  20
1115.217651
  0
VERTEX
  8
84
  10
-500.673035
  20
1105.476440
  0
VERTEX
  8
84
  10
-502.651581
  20
1095.725830
  0
VERTEX
  8
84
  10
-504.292969
  20
1087.524292
  0
VERTEX
  8
84
  10
-505.912354
  20
1079.321045
  0
VERTEX
  8
84
  10
-507.508270
  20
1071.114746
  0
VERTEX
  8
84
  10
-509.079102
  20
1062.903564
  0
VERTEX
  8
84
  10
-510.623413
  20
1054.686035
  0
VERTEX
  8
84
  10
-512.139648
  20
1046.460571
  0
VERTEX
  8
84
  10
-515.036499
  20
1030.406372
  0
VERTEX
  8
84
  10
-522.902588
  20
986.968994
  0
VERTEX
  8
84
  10
-526.727661
  20
965.411682
  0
VERTEX
  8
84
  10
-530.496704
  20
943.844360
  0
VERTEX
  8
84
  10
-542.928650
  20
871.744629
  0
VERTEX
  8
84
  10
-555.119141
  20
799.958252
  0
VERTEX
  8
84
  10
-555.119141
  20
799.958252
  0
VERTEX
  8
84
  10
-550.873718
  20
774.958252
  0
VERTEX
  8
84
  10
-550.873718
  20
774.958252
  0
VERTEX
  8
84
  10
-555.119141
  20
774.958252
  0
VERTEX
  8
84
  10
-617.630615
  20
774.958069
  0
VERTEX
  8
84
  10
-680.119202
  20
774.957764
  0
VERTEX
  8
84
  10
-742.607788
  20
774.957642
  0
VERTEX
  8
84
  10
-805.119263
  20
774.958130
  0
VERTEX
  8
84
  10
-809.357788
  20
774.958191
  0
VERTEX
  8
84
  10
-809.357788
  20
774.958191
  0
VERTEX
  8
84
  10
-805.119263
  20
799.958252
  0
SEQEND
  0
POINT
  8
2
  10
-805.119263
  20
799.958252
  0
POINT
  8
2
  10
-908.922363
  20
1307.998901
  0
POINT
  8
2
  10
-705.864746
  20
1592.288330
  0
POINT
  8
2
  10
-601.361389
  20
1568.884766
  0
POINT
  8
2
  10
-451.315979
  20
1307.998901
  0
POINT
  8
2
  10
-555.119141
  20
799.958252
  0
POINT
  8
2
  10
-550.873718
  20
774.958252
  0
POINT
  8
2
  10
-809.357788
  20
774.958191
  0
POINT
  8
3
  10
-833.340149
  20
964.612122
  0
POINT
  8
3
  10
-845.119141
  20
1030.068237
  0
POINT
  8
3
  10
-867.194153
  20
1142.058960
  0
POINT
  8
3
  10
-869.982544
  20
1155.036377
  0
POINT
  8
3
  10
-871.191345
  20
1160.662476
  0
POINT
  8
3
  10
-871.853027
  20
1163.618652
  0
POINT
  8
3
  10
-875.673218
  20
1180.952393
  0
POINT
  8
3
  10
-895.576233
  20
1262.338135
  0
POINT
  8
3
  10
-902.610229
  20
1288.180542
  0
POINT
  8
3
  10
-903.846436
  20
1309.217285
  0
POINT
  8
3
  10
-899.564331
  20
1310.379761
  0
POINT
  8
3
  10
-888.893005
  20
1313.857788
  0
POINT
  8
3
  10
-883.988220
  20
1315.732178
  0
POINT
  8
3
  10
-879.184082
  20
1317.764526
  0
POINT
  8
3
  10
-869.722534
  20
1322.288940
  0
POINT
  8
3
  10
-862.754150
  20
1326.317139
  0
POINT
  8
3
  10
-849.977478
  20
1336.053955
  0
POINT
  8
3
  10
-844.218445
  20
1341.746460
  0
POINT
  8
3
  10
-841.749084
  20
1344.650513
  0
POINT
  8
3
  10
-830.303528
  20
1360.111816
  0
POINT
  8
3
  10
-828.757935
  20
1362.525146
  0
POINT
  8
3
  10
-828.195557
  20
1363.403320
  0
POINT
  8
3
  10
-826.193604
  20
1366.679932
  0
POINT
  8
3
  10
-821.397827
  20
1374.850708
  0
POINT
  8
3
  10
-817.352661
  20
1381.871582
  0
POINT
  8
3
  10
-803.280457
  20
1407.354980
  0
POINT
  8
3
  10
-798.754395
  20
1415.926636
  0
POINT
  8
3
  10
-795.486938
  20
1422.270386
  0
POINT
  8
3
  10
-794.433655
  20
1424.315674
  0
POINT
  8
3
  10
-790.195129
  20
1432.710327
  0
POINT
  8
3
  10
-772.831665
  20
1466.146362
  0
POINT
  8
3
  10
-755.431458
  20
1499.264893
  0
POINT
  8
3
  10
-751.538879
  20
1506.593018
  0
POINT
  8
3
  10
-744.261230
  20
1520.212769
  0
POINT
  8
3
  10
-732.195862
  20
1542.419434
  0
POINT
  8
3
  10
-729.158875
  20
1547.948242
  0
POINT
  8
3
  10
-724.148926
  20
1556.860596
  0
POINT
  8
3
  10
-719.095459
  20
1566.238037
  0
POINT
  8
3
  10
-712.410828
  20
1579.182495
  0
POINT
  8
3
  10
-701.417236
  20
1587.813354
  0
POINT
  8
3
  10
-698.258606
  20
1584.633667
  0
POINT
  8
3
  10
-696.230530
  20
1582.896729
  0
POINT
  8
3
  10
-694.364319
  20
1581.509155
  0
POINT
  8
3
  10
-692.261719
  20
1580.202271
  0
POINT
  8
3
  10
-689.555359
  20
1578.743774
  0
POINT
  8
3
  10
-684.851807
  20
1576.670776
  0
POINT
  8
3
  10
-683.335938
  20
1576.072632
  0
POINT
  8
3
  10
-681.736694
  20
1575.547485
  0
POINT
  8
3
  10
-680.137451
  20
1575.022339
  0
POINT
  8
3
  10
-675.730225
  20
1573.838257
  0
POINT
  8
3
  10
-672.595276
  20
1573.049072
  0
POINT
  8
3
  10
-663.258118
  20
1570.706421
  0
POINT
  8
3
  10
-657.960266
  20
1569.344604
  0
POINT
  8
3
  10
-652.634277
  20
1568.695557
  0
POINT
  8
3
  10
-648.157471
  20
1568.146729
  0
POINT
  8
3
  10
-637.170593
  20
1566.799805
  0
POINT
  8
3
  10
-617.775635
  20
1566.376221
  0
POINT
  8
3
  10
-613.584961
  20
1566.718750
  0
POINT
  8
3
  10
-609.450684
  20
1567.283203
  0
POINT
  8
3
  10
-605.393433
  20
1567.969604
  0
POINT
  8
3
  10
-585.243347
  20
1536.368652
  0
POINT
  8
3
  10
-579.922119
  20
1525.966064
  0
POINT
  8
3
  10
-575.719788
  20
1517.750488
  0
POINT
  8
3
  10
-563.673279
  20
1493.337158
  0
POINT
  8
3
  10
-552.240356
  20
1468.331299
  0
POINT
  8
3
  10
-546.481873
  20
1454.888428
  0
POINT
  8
3
  10
-541.078308
  20
1441.771240
  0
POINT
  8
3
  10
-536.385498
  20
1429.878174
  0
POINT
  8
3
  10
-534.812988
  20
1425.783203
  0
POINT
  8
3
  10
-533.388428
  20
1422.052490
  0
POINT
  8
3
  10
-531.458008
  20
1415.226318
  0
POINT
  8
3
  10
-528.263123
  20
1404.500122
  0
POINT
  8
3
  10
-524.941895
  20
1393.986572
  0
POINT
  8
3
  10
-522.644470
  20
1387.084839
  0
POINT
  8
3
  10
-520.259094
  20
1380.188232
  0
POINT
  8
3
  10
-518.348511
  20
1374.859863
  0
POINT
  8
3
  10
-517.789612
  20
1373.300903
  0
POINT
  8
3
  10
-512.562500
  20
1359.886230
  0
POINT
  8
3
  10
-511.106323
  20
1356.632446
  0
POINT
  8
3
  10
-509.889526
  20
1354.087402
  0
POINT
  8
3
  10
-504.517212
  20
1344.048462
  0
POINT
  8
3
  10
-502.701416
  20
1341.032104
  0
POINT
  8
3
  10
-500.998444
  20
1338.355835
  0
POINT
  8
3
  10
-499.059418
  20
1335.672607
  0
POINT
  8
3
  10
-498.072449
  20
1334.457642
  0
POINT
  8
3
  10
-495.915405
  20
1331.950684
  0
POINT
  8
3
  10
-494.868225
  20
1330.802979
  0
POINT
  8
3
  10
-484.775391
  20
1322.504761
  0
POINT
  8
3
  10
-476.770721
  20
1317.823242
  0
POINT
  8
3
  10
-464.492767
  20
1312.196777
  0
POINT
  8
3
  10
-455.758820
  20
1309.217651
  0
POINT
  8
3
  10
-453.427368
  20
1301.683472
  0
POINT
  8
3
  10
-457.625427
  20
1288.202026
  0
POINT
  8
3
  10
-458.355469
  20
1285.543213
  0
POINT
  8
3
  10
-460.296021
  20
1278.312622
  0
POINT
  8
3
  10
-463.203979
  20
1267.061157
  0
POINT
  8
3
  10
-468.318481
  20
1247.131714
  0
POINT
  8
3
  10
-474.064270
  20
1224.107056
  0
POINT
  8
3
  10
-492.471130
  20
1144.406860
  0
POINT
  8
3
  10
-502.651581
  20
1095.725830
  0
POINT
  8
3
  10
-512.139648
  20
1046.460571
  0
POINT
  8
3
  10
-515.036499
  20
1030.406372
  0
POINT
  8
3
  10
-522.902588
  20
986.968994
  0
POINT
  8
3
  10
-530.496704
  20
943.844360
  0
POINT
  8
3
  10
-542.928650
  20
871.744629
  0
POINT
  8
3
  10
-555.119141
  20
774.958252
  0
POINT
  8
3
  10
-805.119263
  20
774.958130
  0
POINT
  8
4
  10
-828.758423
  20
1362.524414
  30
7.000000
  39
0.000000
  50
326.721191
  0
POINT
  8
4
  10
-696.230530
  20
1582.896729
  30
7.000000
  39
0.000000
  50
229.420700
  0
POINT
  8
4
  10
-684.851807
  20
1576.670776
  30
7.000000
  39
0.000000
  50
246.216446
  0
POINT
  8
4
  10
-680.137451
  20
1575.022339
  30
7.000000
  39
0.000000
  50
251.819397
  0
POINT
  8
4
  10
-518.348511
  20
1374.859863
  30
7.000000
  39
0.000000
  50
199.725555
  0
LINE
  8
7
  10
-680.119141
  20
1093.623047
  11
-680.119141
  21
1273.623047
  0
POLYLINE
  8
8
  66
1
  70
0
  250
1
  0
VERTEX
  8
8
  10
-550.873718
  20
824.958252
  0
VERTEX
  8
8
  10
-809.357788
  20
824.958252
  0
SEQEND
  0
TEXT
  8
8
  10
-550.873718
  20
824.958252
  40
0.250000
  50
0.000000
  1
# 89
  7
STANDARD
  0
TEXT
  8
8
  10
-809.357788
  20
824.958252
  40
0.250000
  50
0.000000
  1
# 90
  7
STANDARD
  0
POLYLINE
  8
85
  66
1
  70
0
  250
1
  0
VERTEX
  8
85
  10
-550.873718
  20
824.958252
  0
VERTEX
  8
85
  10
-809.357788
  20
824.958252
  0
SEQEND
  0
POINT
  8
2
  10
-550.873718
  20
824.958252
  0
POINT
  8
2
  10
-809.357788
  20
824.958252
  0
POLYLINE
  8
8
  66
1
  70
0
  250
1
  0
VERTEX
  8
8
  10
-550.839905
  20
799.958252
  0
VERTEX
  8
8
  10
-809.643372
  20
799.958252
  0
SEQEND
  0
TEXT
  8
8
  10
-550.839905
  20
799.958252
  40
0.250000
  50
0.000000
  1
# 87
  7
STANDARD
  0
TEXT
  8
8
  10
-809.643372
  20
799.958252
  40
0.250000
  50
0.000000
  1
# 88
  7
STANDARD
  0
POLYLINE
  8
85
  66
1
  70
0
  250
1
  0
VERTEX
  8
85
  10
-550.839905
  20
799.958252
  0
VERTEX
  8
85
  10
-809.643372
  20
799.958252
  0
SEQEND
  0
POINT
  8
2
  10
-550.839905
  20
799.958252
  0
POINT
  8
2
  10
-809.643372
  20
799.958252
  0
POLYLINE
  8
8
  66
1
  70
0
  250
1
  0
VERTEX
  8
8
  10
-551.819336
  20
824.947632
  0
VERTEX
  8
8
  10
-552.973267
  20
818.868896
  0
SEQEND
  0
TEXT
  8
8
  10
-551.819336
  20
824.947632
  40
0.250000
  50
0.000000
  1
# 85
  7
STANDARD
  0
TEXT
  8
8
  10
-552.973267
  20
818.868896
  40
0.250000
  50
0.000000
  1
# 86
  7
STANDARD
  0
POLYLINE
  8
85
  66
1
  70
0
  250
1
  0
VERTEX
  8
85
  10
-551.819336
  20
824.947632
  0
VERTEX
  8
85
  10
-552.973267
  20
818.868896
  0
SEQEND
  0
POINT
  8
2
  10
-551.819336
  20
824.947632
  0
POINT
  8
2
  10
-552.973267
  20
818.868896
  0
POLYLINE
  8
8
  66
1
  70
0
  250
1
  0
VERTEX
  8
8
  10
-553.157288
  20
781.327332
  0
VERTEX
  8
8
  10
-551.819336
  20
774.958252
  0
SEQEND
  0
TEXT
  8
8
  10
-553.157288
  20
781.327332
  40
0.250000
  50
0.000000
  1
# 83
  7
STANDARD
  0
TEXT
  8
8
  10
-551.819336
  20
774.958252
  40
0.250000
  50
0.000000
  1
# 84
  7
STANDARD
  0
POLYLINE
  8
85
  66
1
  70
0
  250
1
  0
VERTEX
  8
85
  10
-553.157288
  20
781.327332
  0
VERTEX
  8
85
  10
-551.819336
  20
774.958252
  0
SEQEND
  0
POINT
  8
2
  10
-553.157288
  20
781.327332
  0
POINT
  8
2
  10
-551.819336
  20
774.958252
  0
POLYLINE
  8
8
  66
1
  70
0
  250
1
  0
VERTEX
  8
8
  10
-804.075867
  20
802.313782
  0
VERTEX
  8
8
  10
-803.431580
  20
800.777466
  0
SEQEND
  0
TEXT
  8
8
  10
-804.075867
  20
802.313782
  40
0.250000
  50
0.000000
  1
# 81
  7
STANDARD
  0
TEXT
  8
8
  10
-803.431580
  20
800.777466
  40
0.250000
  50
0.000000
  1
# 82
  7
STANDARD
  0
POLYLINE
  8
85
  66
1
  70
0
  250
1
  0
VERTEX
  8
85
  10
-804.075867
  20
802.313782
  0
VERTEX
  8
85
  10
-803.431580
  20
800.777466
  0
SEQEND
  0
POINT
  8
2
  10
-804.075867
  20
802.313782
  0
POINT
  8
2
  10
-803.431580
  20
800.777466
  0
POLYLINE
  8
8
  66
1
  70
0
  250
1
  0
VERTEX
  8
8
  10
-712.957520
  20
1585.239014
  0
VERTEX
  8
8
  10
-705.879028
  20
1578.074585
  0
VERTEX
  8
8
  10
-697.929688
  20
1571.928223
  0
VERTEX
  8
8
  10
-688.884766
  20
1567.520142
  0
SEQEND
  0
TEXT
  8
8
  10
-712.957520
  20
1585.239014
  40
0.250000
  50
0.000000
  1
# 79
  7
STANDARD
  0
TEXT
  8
8
  10
-688.884766
  20
1567.520142
  40
0.250000
  50
0.000000
  1
# 80
  7
STANDARD
  0
POLYLINE
  8
85
  66
1
  70
0
  250
1
  0
VERTEX
  8
85
  10
-712.957520
  20
1585.239014
  0
VERTEX
  8
85
  10
-709.480103
  20
1581.600098
  0
VERTEX
  8
85
  10
-705.879028
  20
1578.074585
  0
VERTEX
  8
85
  10
-703.999023
  20
1576.395020
  0
VERTEX
  8
85
  10
-702.052063
  20
1574.795654
  0
VERTEX
  8
85
  10
-700.031250
  20
1573.299194
  0
VERTEX
  8
85
  10
-697.929688
  20
1571.928223
  0
VERTEX
  8
85
  10
-694.999695
  20
1570.310791
  0
VERTEX
  8
85
  10
-691.968262
  20
1568.871460
  0
VERTEX
  8
85
  10
-688.884766
  20
1567.520142
  0
SEQEND
  0
POINT
  8
2
  10
-712.957520
  20
1585.239014
  0
POINT
  8
2
  10
-688.884766
  20
1567.520142
  0
POINT
  8
3
  10
-705.879028
  20
1578.074585
  0
POINT
  8
3
  10
-697.929688
  20
1571.928223
  0
POLYLINE
  8
8
  66
1
  70
0
  250
1
  0
VERTEX
  8
8
  10
-706.157104
  20
1591.552246
  0
VERTEX
  8
8
  10
-699.723755
  20
1586.160034
  0
VERTEX
  8
8
  10
-692.634094
  20
1581.539185
  0
VERTEX
  8
8
  10
-684.488770
  20
1578.571899
  0
SEQEND
  0
TEXT
  8
8
  10
-706.157104
  20
1591.552246
  40
0.250000
  50
0.000000
  1
# 77
  7
STANDARD
  0
TEXT
  8
8
  10
-684.488770
  20
1578.571899
  40
0.250000
  50
0.000000
  1
# 78
  7
STANDARD
  0
POLYLINE
  8
85
  66
1
  70
0
  250
1
  0
VERTEX
  8
85
  10
-706.157104
  20
1591.552246
  0
VERTEX
  8
85
  10
-699.723755
  20
1586.160034
  0
VERTEX
  8
85
  10
-697.454468
  20
1584.462402
  0
VERTEX
  8
85
  10
-695.097839
  20
1582.900635
  0
VERTEX
  8
85
  10
-692.634094
  20
1581.539185
  0
VERTEX
  8
85
  10
-689.991394
  20
1580.394409
  0
VERTEX
  8
85
  10
-687.262268
  20
1579.436768
  0
VERTEX
  8
85
  10
-684.488770
  20
1578.571899
  0
SEQEND
  0
POINT
  8
2
  10
-706.157104
  20
1591.552246
  0
POINT
  8
2
  10
-684.488770
  20
1578.571899
  0
POINT
  8
3
  10
-699.723755
  20
1586.160034
  0
POINT
  8
3
  10
-692.634094
  20
1581.539185
  0
POLYLINE
  8
8
  66
1
  70
0
  250
0
  0
VERTEX
  8
8
  10
-902.615601
  20
1288.202026
  0
VERTEX
  8
8
  10
-680.121765
  20
1287.950684
  0
SEQEND
  0
TEXT
  8
8
  10
-902.615601
  20
1288.202026
  40
0.250000
  50
0.000000
  1
# 75
  7
STANDARD
  0
TEXT
  8
8
  10
-680.121765
  20
1287.950684
  40
0.250000
  50
0.000000
  1
# 76
  7
STANDARD
  0
POLYLINE
  8
85
  66
1
  70
0
  250
1
  0
VERTEX
  8
85
  10
-902.615601
  20
1288.202026
  0
VERTEX
  8
85
  10
-680.121765
  20
1287.950684
  0
SEQEND
  0
POINT
  8
2
  10
-902.615601
  20
1288.202026
  0
POINT
  8
2
  10
-680.121765
  20
1287.950684
  0
POLYLINE
  8
8
  66
1
  70
0
  250
0
  0
VERTEX
  8
8
  10
-457.625427
  20
1288.202026
  0
VERTEX
  8
8
  10
-680.121765
  20
1287.950684
  0
SEQEND
  0
TEXT
  8
8
  10
-457.625427
  20
1288.202026
  40
0.250000
  50
0.000000
  1
# 73
  7
STANDARD
  0
TEXT
  8
8
  10
-680.121765
  20
1287.950684
  40
0.250000
  50
0.000000
  1
# 74
  7
STANDARD
  0
POLYLINE
  8
85
  66
1
  70
0
  250
1
  0
VERTEX
  8
85
  10
-457.625427
  20
1288.202026
  0
VERTEX
  8
85
  10
-680.121765
  20
1287.950684
  0
SEQEND
  0
POINT
  8
2
  10
-457.625427
  20
1288.202026
  0
POINT
  8
2
  10
-680.121765
  20
1287.950684
  0
POLYLINE
  8
8
  66
1
  70
0
  250
0
  0
VERTEX
  8
8
  10
-515.119141
  20
1030.078247
  0
VERTEX
  8
8
  10
-845.119080
  20
1030.078247
  0
SEQEND
  0
TEXT
  8
8
  10
-515.119141
  20
1030.078247
  40
0.250000
  50
0.000000
  1
# 71
  7
STANDARD
  0
TEXT
  8
8
  10
-845.119080
  20
1030.078247
  40
0.250000
  50
0.000000
  1
# 72
  7
STANDARD
  0
POLYLINE
  8
85
  66
1
  70
0
  250
1
  0
VERTEX
  8
85
  10
-515.119141
  20
1030.078247
  0
VERTEX
  8
85
  10
-845.119080
  20
1030.078247
  0
SEQEND
  0
POINT
  8
2
  10
-515.119141
  20
1030.078247
  0
POINT
  8
2
  10
-845.119080
  20
1030.078247
  0
POLYLINE
  8
8
  66
1
  70
0
  250
0
  0
VERTEX
  8
8
  10
-680.122375
  20
800.008301
  0
VERTEX
  8
8
  10
-680.122375
  20
1575.018311
  0
SEQEND
  0
TEXT
  8
8
  10
-680.122375
  20
800.008301
  40
0.250000
  50
0.000000
  1
# 69
  7
STANDARD
  0
TEXT
  8
8
  10
-680.122375
  20
1575.018311
  40
0.250000
  50
0.000000
  1
# 70
  7
STANDARD
  0
POLYLINE
  8
85
  66
1
  70
0
  250
1
  0
VERTEX
  8
85
  10
-680.122375
  20
800.008301
  0
VERTEX
  8
85
  10
-680.122375
  20
1575.018311
  0
SEQEND
  0
POINT
  8
2
  10
-680.122375
  20
800.008301
  0
POINT
  8
2
  10
-680.122375
  20
1575.018311
  0
POLYLINE
  8
8
  66
1
  70
0
  250
0
  0
VERTEX
  8
8
  10
-555.119141
  20
799.958252
  0
VERTEX
  8
8
  10
-805.119263
  20
799.958252
  0
SEQEND
  0
TEXT
  8
8
  10
-555.119141
  20
799.958252
  40
0.250000
  50
0.000000
  1
# 67
  7
STANDARD
  0
TEXT
  8
8
  10
-805.119263
  20
799.958252
  40
0.250000
  50
0.000000
  1
# 68
  7
STANDARD
  0
POLYLINE
  8
85
  66
1
  70
0
  250
1
  0
VERTEX
  8
85
  10
-555.119141
  20
799.958252
  0
VERTEX
  8
85
  10
-805.119263
  20
799.958252
  0
SEQEND
  0
POINT
  8
2
  10
-555.119141
  20
799.958252
  0
POINT
  8
2
  10
-805.119263
  20
799.958252
  0
TEXT
  8
1
  10
-680.119141
  20
1183.623047
  50
0.000000
  51
0.000000
  71
0.000000
  1
PIECE NAME: L-AMX1408F22-SL_selffabric_1
  7
STANDARD
  0
TEXT
  8
1
  10
-680.119141
  20
1178.623047
  50
0.000000
  51
0.000000
  71
0.000000
  1
SIZE: A36
  7
STANDARD
  0
TEXT
  8
1
  10
-680.119141
  20
1173.623047
  50
0.000000
  51
0.000000
  71
0.000000
  1
ANNOTATION:  2X FABRIC
  7
STANDARD
  0
TEXT
  8
1
  10
-680.119141
  20
1168.623047
  50
0.000000
  51
0.000000
  71
0.000000
  1
QUANTITY: 1
  7
STANDARD
  0
ENDBLK
  0
BLOCK
  8
1
  2
Pattern2D_150997_A36
  70
64
  10
0
  20
0
  0
POLYLINE
  8
1
  66
1
  70
1
  250
2
  0
VERTEX
  8
1
  10
1535.669312
  20
1555.968262
  0
VERTEX
  8
1
  10
1349.675415
  20
1555.968262
  0
VERTEX
  8
1
  10
1349.675415
  20
1565.968262
  0
VERTEX
  8
1
  10
1535.669312
  20
1565.968262
  0
SEQEND
  0
TEXT
  8
1
  10
1535.669312
  20
1555.968262
  40
0.250000
  50
0.000000
  1
# 139
  7
STANDARD
  0
TEXT
  8
1
  10
1349.675415
  20
1555.968262
  40
0.250000
  50
0.000000
  1
# 140
  7
STANDARD
  0
TEXT
  8
1
  10
1349.675415
  20
1565.968262
  40
0.250000
  50
0.000000
  1
# 141
  7
STANDARD
  0
TEXT
  8
1
  10
1535.669312
  20
1565.968262
  40
0.250000
  50
0.000000
  1
# 142
  7
STANDARD
  0
POLYLINE
  8
84
  66
1
  70
1
  250
2
  0
VERTEX
  8
84
  10
1535.669312
  20
1555.968262
  0
VERTEX
  8
84
  10
1349.675415
  20
1555.968262
  0
VERTEX
  8
84
  10
1349.675415
  20
1555.968262
  0
VERTEX
  8
84
  10
1349.675415
  20
1565.968262
  0
VERTEX
  8
84
  10
1349.675415
  20
1565.968262
  0
VERTEX
  8
84
  10
1535.669312
  20
1565.968262
  0
VERTEX
  8
84
  10
1535.669312
  20
1565.968262
  0
VERTEX
  8
84
  10
1535.669312
  20
1555.968262
  0
SEQEND
  0
POINT
  8
2
  10
1535.669312
  20
1555.968262
  0
POINT
  8
2
  10
1349.675415
  20
1555.968262
  0
POINT
  8
2
  10
1349.675415
  20
1565.968262
  0
POINT
  8
2
  10
1535.669312
  20
1565.968262
  0
LINE
  8
7
  10
1442.672363
  20
1470.968262
  11
1442.672363
  21
1650.968262
  0
TEXT
  8
1
  10
1442.672363
  20
1560.968262
  50
0.000000
  51
0.000000
  71
0.000000
  1
PIECE NAME: Pattern2D_150997
  7
STANDARD
  0
TEXT
  8
1
  10
1442.672363
  20
1555.968262
  50
0.000000
  51
0.000000
  71
0.000000
  1
SIZE: A36
  7
STANDARD
  0
TEXT
  8
1
  10
1442.672363
  20
1545.968262
  50
0.000000
  51
0.000000
  71
0.000000
  1
QUANTITY: 1
  7
STANDARD
  0
ENDBLK
  0
BLOCK
  8
1
  2
L-AMX1408F22-FR_selffabric_1_A36
  70
64
  10
0
  20
0
  0
POLYLINE
  8
1
  66
1
  70
1
  250
2
  0
VERTEX
  8
1
  10
-73.029831
  20
1503.306519
  0
VERTEX
  8
1
  10
-91.528732
  20
1485.816650
  0
VERTEX
  8
1
  10
-98.047173
  20
1479.553833
  0
VERTEX
  8
1
  10
-110.022316
  20
1468.321655
  0
VERTEX
  8
1
  10
-115.752441
  20
1463.178833
  0
VERTEX
  8
1
  10
-121.306389
  20
1458.022949
  0
VERTEX
  8
1
  10
-127.366714
  20
1452.203369
  0
VERTEX
  8
1
  10
-138.218704
  20
1441.137451
  0
VERTEX
  8
1
  10
-156.677200
  20
1420.399902
  0
VERTEX
  8
1
  10
-178.947891
  20
1389.761475
  0
VERTEX
  8
1
  10
-182.384399
  20
1384.236206
  0
VERTEX
  8
1
  10
-192.132706
  20
1367.608398
  0
VERTEX
  8
1
  10
-201.897797
  20
1350.941650
  0
VERTEX
  8
1
  10
-203.259598
  20
1348.279175
  0
VERTEX
  8
1
  10
-207.199371
  20
1341.476807
  0
VERTEX
  8
1
  10
-216.970306
  20
1328.489868
  0
VERTEX
  8
1
  10
-227.780502
  20
1317.955688
  0
VERTEX
  8
1
  10
-229.959381
  20
1316.176636
  0
VERTEX
  8
1
  10
-231.770142
  20
1314.796143
  0
VERTEX
  8
1
  10
-233.620102
  20
1313.483521
  0
VERTEX
  8
1
  10
-241.455261
  20
1308.873901
  0
VERTEX
  8
1
  10
-249.844376
  20
1305.409058
  0
VERTEX
  8
1
  10
-258.687408
  20
1303.126953
  0
VERTEX
  8
1
  10
-263.199982
  20
1302.458496
  0
VERTEX
  8
1
  10
-266.721832
  20
1301.987427
  0
VERTEX
  8
1
  10
-271.408386
  20
1301.545166
  0
VERTEX
  8
1
  10
-283.616608
  20
1301.228760
  0
VERTEX
  8
1
  10
-287.870972
  20
1301.256226
  0
VERTEX
  8
1
  10
-292.526764
  20
1301.368774
  0
VERTEX
  8
1
  10
-292.482544
  20
827.446655
  0
VERTEX
  8
1
  10
-219.360428
  20
827.446655
  0
VERTEX
  8
1
  10
-146.249130
  20
827.446655
  0
VERTEX
  8
1
  10
-73.137817
  20
827.446655
  0
VERTEX
  8
1
  10
0.000278
  20
827.446655
  0
VERTEX
  8
1
  10
73.138405
  20
827.446655
  0
VERTEX
  8
1
  10
146.249741
  20
827.446655
  0
VERTEX
  8
1
  10
219.361084
  20
827.446655
  0
VERTEX
  8
1
  10
292.483093
  20
827.446655
  0
VERTEX
  8
1
  10
292.526703
  20
1301.368774
  0
VERTEX
  8
1
  10
287.871521
  20
1301.256226
  0
VERTEX
  8
1
  10
283.617157
  20
1301.228638
  0
VERTEX
  8
1
  10
271.408936
  20
1301.545166
  0
VERTEX
  8
1
  10
266.722382
  20
1301.987427
  0
VERTEX
  8
1
  10
263.199921
  20
1302.458496
  0
VERTEX
  8
1
  10
258.687958
  20
1303.126953
  0
VERTEX
  8
1
  10
249.845047
  20
1305.409058
  0
VERTEX
  8
1
  10
241.455933
  20
1308.873901
  0
VERTEX
  8
1
  10
233.620712
  20
1313.483521
  0
VERTEX
  8
1
  10
231.770782
  20
1314.796021
  0
VERTEX
  8
1
  10
229.960022
  20
1316.176636
  0
VERTEX
  8
1
  10
227.781143
  20
1317.955688
  0
VERTEX
  8
1
  10
216.970917
  20
1328.489868
  0
VERTEX
  8
1
  10
207.200012
  20
1341.476807
  0
VERTEX
  8
1
  10
203.260239
  20
1348.279053
  0
VERTEX
  8
1
  10
201.898438
  20
1350.941528
  0
VERTEX
  8
1
  10
192.133347
  20
1367.608398
  0
VERTEX
  8
1
  10
182.385010
  20
1384.236206
  0
VERTEX
  8
1
  10
178.948532
  20
1389.761475
  0
VERTEX
  8
1
  10
156.677795
  20
1420.399902
  0
VERTEX
  8
1
  10
138.219406
  20
1441.137451
  0
VERTEX
  8
1
  10
127.367355
  20
1452.203369
  0
VERTEX
  8
1
  10
121.307030
  20
1458.022949
  0
VERTEX
  8
1
  10
115.753082
  20
1463.178833
  0
VERTEX
  8
1
  10
110.022774
  20
1468.321655
  0
VERTEX
  8
1
  10
98.047844
  20
1479.553833
  0
VERTEX
  8
1
  10
91.529404
  20
1485.816650
  0
VERTEX
  8
1
  10
73.030441
  20
1503.306519
  0
VERTEX
  8
1
  10
71.840012
  20
1501.668335
  0
VERTEX
  8
1
  10
68.371857
  20
1496.992798
  0
VERTEX
  8
1
  10
67.261826
  20
1495.504150
  0
VERTEX
  8
1
  10
65.657974
  20
1493.462646
  0
VERTEX
  8
1
  10
64.242477
  20
1491.799316
  0
VERTEX
  8
1
  10
54.576672
  20
1482.726685
  0
VERTEX
  8
1
  10
53.705952
  20
1482.077393
  0
VERTEX
  8
1
  10
50.998276
  20
1480.148926
  0
VERTEX
  8
1
  10
49.211834
  20
1478.986816
  0
VERTEX
  8
1
  10
47.287197
  20
1477.816895
  0
VERTEX
  8
1
  10
45.357903
  20
1476.736816
  0
VERTEX
  8
1
  10
43.513027
  20
1475.775879
  0
VERTEX
  8
1
  10
41.421196
  20
1474.761597
  0
VERTEX
  8
1
  10
38.979313
  20
1473.684204
  0
VERTEX
  8
1
  10
34.715069
  20
1471.966309
  0
VERTEX
  8
1
  10
18.605471
  20
1467.374023
  0
VERTEX
  8
1
  10
10.692091
  20
1466.141968
  0
VERTEX
  8
1
  10
8.541784
  20
1465.921753
  0
VERTEX
  8
1
  10
5.305407
  20
1465.676147
  0
VERTEX
  8
1
  10
0.569945
  20
1465.475708
  0
VERTEX
  8
1
  10
0.000318
  20
1465.475708
  0
VERTEX
  8
1
  10
-0.569281
  20
1465.475708
  0
VERTEX
  8
1
  10
-5.304767
  20
1465.676147
  0
VERTEX
  8
1
  10
-8.541121
  20
1465.921753
  0
VERTEX
  8
1
  10
-10.691427
  20
1466.141968
  0
VERTEX
  8
1
  10
-18.604807
  20
1467.374023
  0
VERTEX
  8
1
  10
-34.714405
  20
1471.966309
  0
VERTEX
  8
1
  10
-38.978695
  20
1473.684204
  0
VERTEX
  8
1
  10
-41.420532
  20
1474.761597
  0
VERTEX
  8
1
  10
-43.512363
  20
1475.775879
  0
VERTEX
  8
1
  10
-45.357239
  20
1476.736816
  0
VERTEX
  8
1
  10
-47.286533
  20
1477.816895
  0
VERTEX
  8
1
  10
-49.211170
  20
1478.986816
  0
VERTEX
  8
1
  10
-50.997612
  20
1480.148926
  0
VERTEX
  8
1
  10
-53.705288
  20
1482.077393
  0
VERTEX
  8
1
  10
-54.576069
  20
1482.726685
  0
VERTEX
  8
1
  10
-64.241806
  20
1491.799316
  0
VERTEX
  8
1
  10
-65.657303
  20
1493.462646
  0
VERTEX
  8
1
  10
-67.261154
  20
1495.504150
  0
VERTEX
  8
1
  10
-68.371185
  20
1496.992798
  0
VERTEX
  8
1
  10
-71.839340
  20
1501.668335
  0
SEQEND
  0
TEXT
  8
1
  10
-73.029831
  20
1503.306519
  40
0.250000
  50
0.000000
  1
# 61
  7
STANDARD
  0
TEXT
  8
1
  10
-292.526764
  20
1301.368774
  40
0.250000
  50
0.000000
  1
# 62
  7
STANDARD
  0
TEXT
  8
1
  10
-292.482544
  20
827.446655
  40
0.250000
  50
0.000000
  1
# 63
  7
STANDARD
  0
TEXT
  8
1
  10
292.483093
  20
827.446655
  40
0.250000
  50
0.000000
  1
# 64
  7
STANDARD
  0
TEXT
  8
1
  10
292.526703
  20
1301.368774
  40
0.250000
  50
0.000000
  1
# 65
  7
STANDARD
  0
TEXT
  8
1
  10
73.030441
  20
1503.306519
  40
0.250000
  50
0.000000
  1
# 66
  7
STANDARD
  0
POLYLINE
  8
84
  66
1
  70
1
  250
2
  0
VERTEX
  8
84
  10
-73.029831
  20
1503.306519
  0
VERTEX
  8
84
  10
-82.300865
  20
1494.584106
  0
VERTEX
  8
84
  10
-91.528732
  20
1485.816650
  0
VERTEX
  8
84
  10
-98.047173
  20
1479.553833
  0
VERTEX
  8
84
  10
-103.992615
  20
1473.892334
  0
VERTEX
  8
84
  10
-110.022316
  20
1468.321655
  0
VERTEX
  8
84
  10
-115.752441
  20
1463.178833
  0
VERTEX
  8
84
  10
-121.306389
  20
1458.022949
  0
VERTEX
  8
84
  10
-127.366714
  20
1452.203369
  0
VERTEX
  8
84
  10
-132.842926
  20
1446.720337
  0
VERTEX
  8
84
  10
-138.218704
  20
1441.137451
  0
VERTEX
  8
84
  10
-141.389297
  20
1437.764404
  0
VERTEX
  8
84
  10
-144.527069
  20
1434.362793
  0
VERTEX
  8
84
  10
-147.628342
  20
1430.928955
  0
VERTEX
  8
84
  10
-150.689529
  20
1427.459717
  0
VERTEX
  8
84
  10
-153.707016
  20
1423.951050
  0
VERTEX
  8
84
  10
-156.677200
  20
1420.399902
  0
VERTEX
  8
84
  10
-158.673950
  20
1417.952026
  0
VERTEX
  8
84
  10
-160.645630
  20
1415.484253
  0
VERTEX
  8
84
  10
-162.592163
  20
1412.996826
  0
VERTEX
  8
84
  10
-164.513321
  20
1410.489868
  0
VERTEX
  8
84
  10
-166.408920
  20
1407.963745
  0
VERTEX
  8
84
  10
-168.278793
  20
1405.418701
  0
VERTEX
  8
84
  10
-170.122757
  20
1402.854736
  0
VERTEX
  8
84
  10
-171.940643
  20
1400.272339
  0
VERTEX
  8
84
  10
-173.732285
  20
1397.671631
  0
VERTEX
  8
84
  10
-175.497482
  20
1395.052734
  0
VERTEX
  8
84
  10
-177.236069
  20
1392.415894
  0
VERTEX
  8
84
  10
-178.947891
  20
1389.761475
  0
VERTEX
  8
84
  10
-182.384399
  20
1384.236206
  0
VERTEX
  8
84
  10
-187.266983
  20
1375.929321
  0
VERTEX
  8
84
  10
-192.132706
  20
1367.608398
  0
VERTEX
  8
84
  10
-194.640762
  20
1363.476562
  0
VERTEX
  8
84
  10
-197.149582
  20
1359.347778
  0
VERTEX
  8
84
  10
-199.591232
  20
1355.182617
  0
VERTEX
  8
84
  10
-201.897797
  20
1350.941650
  0
VERTEX
  8
84
  10
-203.259598
  20
1348.279175
  0
VERTEX
  8
84
  10
-205.155792
  20
1344.836304
  0
VERTEX
  8
84
  10
-207.199371
  20
1341.476807
  0
VERTEX
  8
84
  10
-208.987640
  20
1338.758545
  0
VERTEX
  8
84
  10
-210.859863
  20
1336.098145
  0
VERTEX
  8
84
  10
-212.815048
  20
1333.498169
  0
VERTEX
  8
84
  10
-214.852203
  20
1330.961182
  0
VERTEX
  8
84
  10
-216.970306
  20
1328.489868
  0
VERTEX
  8
84
  10
-219.007736
  20
1326.256836
  0
VERTEX
  8
84
  10
-221.109634
  20
1324.085938
  0
VERTEX
  8
84
  10
-223.273849
  20
1321.978149
  0
VERTEX
  8
84
  10
-225.498184
  20
1319.934448
  0
VERTEX
  8
84
  10
-227.780502
  20
1317.955688
  0
VERTEX
  8
84
  10
-229.959381
  20
1316.176636
  0
VERTEX
  8
84
  10
-231.770142
  20
1314.796143
  0
VERTEX
  8
84
  10
-233.620102
  20
1313.483521
  0
VERTEX
  8
84
  10
-236.160080
  20
1311.827515
  0
VERTEX
  8
84
  10
-238.772812
  20
1310.288818
  0
VERTEX
  8
84
  10
-241.455261
  20
1308.873901
  0
VERTEX
  8
84
  10
-244.197128
  20
1307.590942
  0
VERTEX
  8
84
  10
-246.995193
  20
1306.437134
  0
VERTEX
  8
84
  10
-249.844376
  20
1305.409058
  0
VERTEX
  8
84
  10
-252.755234
  20
1304.502197
  0
VERTEX
  8
84
  10
-255.703995
  20
1303.736450
  0
VERTEX
  8
84
  10
-258.687408
  20
1303.126953
  0
VERTEX
  8
84
  10
-263.199982
  20
1302.458496
  0
VERTEX
  8
84
  10
-266.721832
  20
1301.987427
  0
VERTEX
  8
84
  10
-271.408386
  20
1301.545166
  0
VERTEX
  8
84
  10
-277.508606
  20
1301.280762
  0
VERTEX
  8
84
  10
-283.616608
  20
1301.228760
  0
VERTEX
  8
84
  10
-287.870972
  20
1301.256226
  0
VERTEX
  8
84
  10
-292.526764
  20
1301.368774
  0
VERTEX
  8
84
  10
-292.526764
  20
1301.368774
  0
VERTEX
  8
84
  10
-292.482544
  20
827.446655
  0
VERTEX
  8
84
  10
-292.482544
  20
827.446655
  0
VERTEX
  8
84
  10
-219.360428
  20
827.446655
  0
VERTEX
  8
84
  10
-146.249130
  20
827.446655
  0
VERTEX
  8
84
  10
-73.137817
  20
827.446655
  0
VERTEX
  8
84
  10
0.000276
  20
827.446655
  0
VERTEX
  8
84
  10
73.138405
  20
827.446655
  0
VERTEX
  8
84
  10
146.249741
  20
827.446655
  0
VERTEX
  8
84
  10
219.361084
  20
827.446655
  0
VERTEX
  8
84
  10
292.483093
  20
827.446655
  0
VERTEX
  8
84
  10
292.483093
  20
827.446655
  0
VERTEX
  8
84
  10
292.526703
  20
1301.368774
  0
VERTEX
  8
84
  10
292.526703
  20
1301.368774
  0
VERTEX
  8
84
  10
287.871521
  20
1301.256226
  0
VERTEX
  8
84
  10
283.617157
  20
1301.228638
  0
VERTEX
  8
84
  10
277.509155
  20
1301.280640
  0
VERTEX
  8
84
  10
271.408936
  20
1301.545166
  0
VERTEX
  8
84
  10
266.722382
  20
1301.987427
  0
VERTEX
  8
84
  10
263.199921
  20
1302.458496
  0
VERTEX
  8
84
  10
258.687958
  20
1303.126953
  0
VERTEX
  8
84
  10
255.704620
  20
1303.736450
  0
VERTEX
  8
84
  10
252.755890
  20
1304.502197
  0
VERTEX
  8
84
  10
249.845047
  20
1305.409058
  0
VERTEX
  8
84
  10
246.995865
  20
1306.437134
  0
VERTEX
  8
84
  10
244.197800
  20
1307.590942
  0
VERTEX
  8
84
  10
241.455933
  20
1308.873901
  0
VERTEX
  8
84
  10
238.773483
  20
1310.288818
  0
VERTEX
  8
84
  10
236.160751
  20
1311.827515
  0
VERTEX
  8
84
  10
233.620712
  20
1313.483521
  0
VERTEX
  8
84
  10
231.770782
  20
1314.796021
  0
VERTEX
  8
84
  10
229.960022
  20
1316.176636
  0
VERTEX
  8
84
  10
227.781143
  20
1317.955688
  0
VERTEX
  8
84
  10
225.498795
  20
1319.934326
  0
VERTEX
  8
84
  10
223.274445
  20
1321.978027
  0
VERTEX
  8
84
  10
221.110245
  20
1324.085815
  0
VERTEX
  8
84
  10
219.008347
  20
1326.256714
  0
VERTEX
  8
84
  10
216.970917
  20
1328.489868
  0
VERTEX
  8
84
  10
214.852829
  20
1330.961182
  0
VERTEX
  8
84
  10
212.815674
  20
1333.498047
  0
VERTEX
  8
84
  10
210.860519
  20
1336.098145
  0
VERTEX
  8
84
  10
208.988281
  20
1338.758545
  0
VERTEX
  8
84
  10
207.200012
  20
1341.476807
  0
VERTEX
  8
84
  10
205.156433
  20
1344.836182
  0
VERTEX
  8
84
  10
203.260239
  20
1348.279053
  0
VERTEX
  8
84
  10
201.898438
  20
1350.941528
  0
VERTEX
  8
84
  10
199.591873
  20
1355.182495
  0
VERTEX
  8
84
  10
197.150223
  20
1359.347778
  0
VERTEX
  8
84
  10
194.641403
  20
1363.476562
  0
VERTEX
  8
84
  10
192.133347
  20
1367.608398
  0
VERTEX
  8
84
  10
187.267578
  20
1375.929321
  0
VERTEX
  8
84
  10
182.385010
  20
1384.236206
  0
VERTEX
  8
84
  10
178.948532
  20
1389.761475
  0
VERTEX
  8
84
  10
177.236725
  20
1392.415894
  0
VERTEX
  8
84
  10
175.498138
  20
1395.052734
  0
VERTEX
  8
84
  10
173.732956
  20
1397.671631
  0
VERTEX
  8
84
  10
171.941284
  20
1400.272339
  0
VERTEX
  8
84
  10
170.123398
  20
1402.854736
  0
VERTEX
  8
84
  10
168.279419
  20
1405.418701
  0
VERTEX
  8
84
  10
166.409531
  20
1407.963745
  0
VERTEX
  8
84
  10
164.513931
  20
1410.489868
  0
VERTEX
  8
84
  10
162.592758
  20
1412.996704
  0
VERTEX
  8
84
  10
160.646255
  20
1415.484253
  0
VERTEX
  8
84
  10
158.674545
  20
1417.952026
  0
VERTEX
  8
84
  10
156.677795
  20
1420.399902
  0
VERTEX
  8
84
  10
153.707657
  20
1423.951050
  0
VERTEX
  8
84
  10
150.690186
  20
1427.459595
  0
VERTEX
  8
84
  10
147.628998
  20
1430.928955
  0
VERTEX
  8
84
  10
144.527740
  20
1434.362793
  0
VERTEX
  8
84
  10
141.389999
  20
1437.764404
  0
VERTEX
  8
84
  10
138.219406
  20
1441.137451
  0
VERTEX
  8
84
  10
132.843582
  20
1446.720459
  0
VERTEX
  8
84
  10
127.367355
  20
1452.203369
  0
VERTEX
  8
84
  10
121.307030
  20
1458.022949
  0
VERTEX
  8
84
  10
115.753082
  20
1463.178833
  0
VERTEX
  8
84
  10
110.022774
  20
1468.321655
  0
VERTEX
  8
84
  10
103.993156
  20
1473.892334
  0
VERTEX
  8
84
  10
98.047844
  20
1479.553833
  0
VERTEX
  8
84
  10
91.529404
  20
1485.816650
  0
VERTEX
  8
84
  10
82.301491
  20
1494.583984
  0
VERTEX
  8
84
  10
73.030441
  20
1503.306519
  0
VERTEX
  8
84
  10
73.030441
  20
1503.306519
  0
VERTEX
  8
84
  10
71.840012
  20
1501.668335
  0
VERTEX
  8
84
  10
68.371857
  20
1496.992798
  0
VERTEX
  8
84
  10
67.261826
  20
1495.504150
  0
VERTEX
  8
84
  10
65.657974
  20
1493.462646
  0
VERTEX
  8
84
  10
64.242477
  20
1491.799316
  0
VERTEX
  8
84
  10
62.453915
  20
1489.836426
  0
VERTEX
  8
84
  10
60.593380
  20
1487.939331
  0
VERTEX
  8
84
  10
58.660538
  20
1486.116577
  0
VERTEX
  8
84
  10
56.655075
  20
1484.376221
  0
VERTEX
  8
84
  10
54.576672
  20
1482.726685
  0
VERTEX
  8
84
  10
53.705952
  20
1482.077393
  0
VERTEX
  8
84
  10
50.998276
  20
1480.148926
  0
VERTEX
  8
84
  10
49.211834
  20
1478.986816
  0
VERTEX
  8
84
  10
47.287197
  20
1477.816895
  0
VERTEX
  8
84
  10
45.357903
  20
1476.736816
  0
VERTEX
  8
84
  10
43.513027
  20
1475.775879
  0
VERTEX
  8
84
  10
41.421196
  20
1474.761597
  0
VERTEX
  8
84
  10
38.979313
  20
1473.684204
  0
VERTEX
  8
84
  10
34.715069
  20
1471.966309
  0
VERTEX
  8
84
  10
32.088051
  20
1471.014282
  0
VERTEX
  8
84
  10
29.434753
  20
1470.136719
  0
VERTEX
  8
84
  10
26.757507
  20
1469.333618
  0
VERTEX
  8
84
  10
24.058653
  20
1468.605347
  0
VERTEX
  8
84
  10
21.340530
  20
1467.952148
  0
VERTEX
  8
84
  10
18.605471
  20
1467.374023
  0
VERTEX
  8
84
  10
14.660474
  20
1466.677734
  0
VERTEX
  8
84
  10
10.692091
  20
1466.141968
  0
VERTEX
  8
84
  10
8.541784
  20
1465.921753
  0
VERTEX
  8
84
  10
5.305407
  20
1465.676147
  0
VERTEX
  8
84
  10
0.569945
  20
1465.475708
  0
VERTEX
  8
84
  10
0.000318
  20
1465.475708
  0
VERTEX
  8
84
  10
-0.569281
  20
1465.475708
  0
VERTEX
  8
84
  10
-5.304767
  20
1465.676147
  0
VERTEX
  8
84
  10
-8.541121
  20
1465.921753
  0
VERTEX
  8
84
  10
-10.691427
  20
1466.141968
  0
VERTEX
  8
84
  10
-14.659811
  20
1466.677734
  0
VERTEX
  8
84
  10
-18.604807
  20
1467.374023
  0
VERTEX
  8
84
  10
-21.339867
  20
1467.952148
  0
VERTEX
  8
84
  10
-24.057987
  20
1468.605347
  0
VERTEX
  8
84
  10
-26.756840
  20
1469.333618
  0
VERTEX
  8
84
  10
-29.434080
  20
1470.136719
  0
VERTEX
  8
84
  10
-32.087379
  20
1471.014282
  0
VERTEX
  8
84
  10
-34.714405
  20
1471.966309
  0
VERTEX
  8
84
  10
-38.978695
  20
1473.684204
  0
VERTEX
  8
84
  10
-41.420532
  20
1474.761597
  0
VERTEX
  8
84
  10
-43.512363
  20
1475.775879
  0
VERTEX
  8
84
  10
-45.357239
  20
1476.736816
  0
VERTEX
  8
84
  10
-47.286533
  20
1477.816895
  0
VERTEX
  8
84
  10
-49.211170
  20
1478.986816
  0
VERTEX
  8
84
  10
-50.997612
  20
1480.148926
  0
VERTEX
  8
84
  10
-53.705288
  20
1482.077393
  0
VERTEX
  8
84
  10
-54.576069
  20
1482.726685
  0
VERTEX
  8
84
  10
-56.654503
  20
1484.376221
  0
VERTEX
  8
84
  10
-58.659950
  20
1486.116455
  0
VERTEX
  8
84
  10
-60.592762
  20
1487.939331
  0
VERTEX
  8
84
  10
-62.453266
  20
1489.836426
  0
VERTEX
  8
84
  10
-64.241806
  20
1491.799316
  0
VERTEX
  8
84
  10
-65.657303
  20
1493.462646
  0
VERTEX
  8
84
  10
-67.261154
  20
1495.504150
  0
VERTEX
  8
84
  10
-68.371185
  20
1496.992798
  0
VERTEX
  8
84
  10
-71.839340
  20
1501.668335
  0
VERTEX
  8
84
  10
-73.029831
  20
1503.306519
  0
SEQEND
  0
POINT
  8
2
  10
-73.029831
  20
1503.306519
  0
POINT
  8
2
  10
-292.526764
  20
1301.368774
  0
POINT
  8
2
  10
-292.482544
  20
827.446655
  0
POINT
  8
2
  10
292.483093
  20
827.446655
  0
POINT
  8
2
  10
292.526703
  20
1301.368774
  0
POINT
  8
2
  10
73.030441
  20
1503.306519
  0
POINT
  8
3
  10
-91.528732
  20
1485.816650
  0
POINT
  8
3
  10
-98.047173
  20
1479.553833
  0
POINT
  8
3
  10
-110.022316
  20
1468.321655
  0
POINT
  8
3
  10
-115.752441
  20
1463.178833
  0
POINT
  8
3
  10
-121.306389
  20
1458.022949
  0
POINT
  8
3
  10
-127.366714
  20
1452.203369
  0
POINT
  8
3
  10
-138.218704
  20
1441.137451
  0
POINT
  8
3
  10
-156.677200
  20
1420.399902
  0
POINT
  8
3
  10
-178.947891
  20
1389.761475
  0
POINT
  8
3
  10
-182.384399
  20
1384.236206
  0
POINT
  8
3
  10
-192.132706
  20
1367.608398
  0
POINT
  8
3
  10
-201.897797
  20
1350.941650
  0
POINT
  8
3
  10
-203.259598
  20
1348.279175
  0
POINT
  8
3
  10
-207.199371
  20
1341.476807
  0
POINT
  8
3
  10
-216.970306
  20
1328.489868
  0
POINT
  8
3
  10
-227.780502
  20
1317.955688
  0
POINT
  8
3
  10
-229.959381
  20
1316.176636
  0
POINT
  8
3
  10
-231.770142
  20
1314.796143
  0
POINT
  8
3
  10
-233.620102
  20
1313.483521
  0
POINT
  8
3
  10
-241.455261
  20
1308.873901
  0
POINT
  8
3
  10
-249.844376
  20
1305.409058
  0
POINT
  8
3
  10
-258.687408
  20
1303.126953
  0
POINT
  8
3
  10
-263.199982
  20
1302.458496
  0
POINT
  8
3
  10
-266.721832
  20
1301.987427
  0
POINT
  8
3
  10
-271.408386
  20
1301.545166
  0
POINT
  8
3
  10
-283.616608
  20
1301.228760
  0
POINT
  8
3
  10
-287.870972
  20
1301.256226
  0
POINT
  8
3
  10
-219.360428
  20
827.446655
  0
POINT
  8
3
  10
-146.249130
  20
827.446655
  0
POINT
  8
3
  10
-73.137817
  20
827.446655
  0
POINT
  8
3
  10
0.000278
  20
827.446655
  0
POINT
  8
3
  10
73.138405
  20
827.446655
  0
POINT
  8
3
  10
146.249741
  20
827.446655
  0
POINT
  8
3
  10
219.361084
  20
827.446655
  0
POINT
  8
3
  10
287.871521
  20
1301.256226
  0
POINT
  8
3
  10
283.617157
  20
1301.228638
  0
POINT
  8
3
  10
271.408936
  20
1301.545166
  0
POINT
  8
3
  10
266.722382
  20
1301.987427
  0
POINT
  8
3
  10
263.199921
  20
1302.458496
  0
POINT
  8
3
  10
258.687958
  20
1303.126953
  0
POINT
  8
3
  10
249.845047
  20
1305.409058
  0
POINT
  8
3
  10
241.455933
  20
1308.873901
  0
POINT
  8
3
  10
233.620712
  20
1313.483521
  0
POINT
  8
3
  10
231.770782
  20
1314.796021
  0
POINT
  8
3
  10
229.960022
  20
1316.176636
  0
POINT
  8
3
  10
227.781143
  20
1317.955688
  0
POINT
  8
3
  10
216.970917
  20
1328.489868
  0
POINT
  8
3
  10
207.200012
  20
1341.476807
  0
POINT
  8
3
  10
203.260239
  20
1348.279053
  0
POINT
  8
3
  10
201.898438
  20
1350.941528
  0
POINT
  8
3
  10
192.133347
  20
1367.608398
  0
POINT
  8
3
  10
182.385010
  20
1384.236206
  0
POINT
  8
3
  10
178.948532
  20
1389.761475
  0
POINT
  8
3
  10
156.677795
  20
1420.399902
  0
POINT
  8
3
  10
138.219406
  20
1441.137451
  0
POINT
  8
3
  10
127.367355
  20
1452.203369
  0
POINT
  8
3
  10
121.307030
  20
1458.022949
  0
POINT
  8
3
  10
115.753082
  20
1463.178833
  0
POINT
  8
3
  10
110.022774
  20
1468.321655
  0
POINT
  8
3
  10
98.047844
  20
1479.553833
  0
POINT
  8
3
  10
91.529404
  20
1485.816650
  0
POINT
  8
3
  10
71.840012
  20
1501.668335
  0
POINT
  8
3
  10
68.371857
  20
1496.992798
  0
POINT
  8
3
  10
67.261826
  20
1495.504150
  0
POINT
  8
3
  10
65.657974
  20
1493.462646
  0
POINT
  8
3
  10
64.242477
  20
1491.799316
  0
POINT
  8
3
  10
54.576672
  20
1482.726685
  0
POINT
  8
3
  10
53.705952
  20
1482.077393
  0
POINT
  8
3
  10
50.998276
  20
1480.148926
  0
POINT
  8
3
  10
49.211834
  20
1478.986816
  0
POINT
  8
3
  10
47.287197
  20
1477.816895
  0
POINT
  8
3
  10
45.357903
  20
1476.736816
  0
POINT
  8
3
  10
43.513027
  20
1475.775879
  0
POINT
  8
3
  10
41.421196
  20
1474.761597
  0
POINT
  8
3
  10
38.979313
  20
1473.684204
  0
POINT
  8
3
  10
34.715069
  20
1471.966309
  0
POINT
  8
3
  10
18.605471
  20
1467.374023
  0
POINT
  8
3
  10
10.692091
  20
1466.141968
  0
POINT
  8
3
  10
8.541784
  20
1465.921753
  0
POINT
  8
3
  10
5.305407
  20
1465.676147
  0
POINT
  8
3
  10
0.569945
  20
1465.475708
  0
POINT
  8
3
  10
0.000318
  20
1465.475708
  0
POINT
  8
3
  10
-0.569281
  20
1465.475708
  0
POINT
  8
3
  10
-5.304767
  20
1465.676147
  0
POINT
  8
3
  10
-8.541121
  20
1465.921753
  0
POINT
  8
3
  10
-10.691427
  20
1466.141968
  0
POINT
  8
3
  10
-18.604807
  20
1467.374023
  0
POINT
  8
3
  10
-34.714405
  20
1471.966309
  0
POINT
  8
3
  10
-38.978695
  20
1473.684204
  0
POINT
  8
3
  10
-41.420532
  20
1474.761597
  0
POINT
  8
3
  10
-43.512363
  20
1475.775879
  0
POINT
  8
3
  10
-45.357239
  20
1476.736816
  0
POINT
  8
3
  10
-47.286533
  20
1477.816895
  0
POINT
  8
3
  10
-49.211170
  20
1478.986816
  0
POINT
  8
3
  10
-50.997612
  20
1480.148926
  0
POINT
  8
3
  10
-53.705288
  20
1482.077393
  0
POINT
  8
3
  10
-54.576069
  20
1482.726685
  0
POINT
  8
3
  10
-64.241806
  20
1491.799316
  0
POINT
  8
3
  10
-65.657303
  20
1493.462646
  0
POINT
  8
3
  10
-67.261154
  20
1495.504150
  0
POINT
  8
3
  10
-68.371185
  20
1496.992798
  0
POINT
  8
3
  10
-71.839340
  20
1501.668335
  0
TEXT
  8
1
  10
-292.498596
  20
1281.061523
  50
270.000000
  51
0.000000
  71
0.000000
  1
N
  7
STANDARD
  0
TEXT
  8
1
  10
-101.498100
  20
1370.863159
  50
270.000000
  51
0.000000
  71
0.000000
  1
D
  7
STANDARD
  0
TEXT
  8
1
  10
292.499146
  20
1281.061401
  50
270.000000
  51
0.000000
  71
0.000000
  1
N
  7
STANDARD
  0
TEXT
  8
1
  10
101.498604
  20
1370.863159
  50
270.000000
  51
0.000000
  71
0.000000
  1
D
  7
STANDARD
  0
LINE
  8
7
  10
-0.000015
  20
1075.376587
  11
-0.000046
  21
1255.376587
  0
POLYLINE
  8
8
  66
1
  70
0
  250
1
  0
VERTEX
  8
8
  10
-292.482544
  20
877.446655
  0
VERTEX
  8
8
  10
-219.360428
  20
877.446655
  0
VERTEX
  8
8
  10
-146.249130
  20
877.446655
  0
VERTEX
  8
8
  10
-73.137817
  20
877.446655
  0
VERTEX
  8
8
  10
0.000278
  20
877.446655
  0
VERTEX
  8
8
  10
73.138405
  20
877.446655
  0
VERTEX
  8
8
  10
146.249741
  20
877.446655
  0
VERTEX
  8
8
  10
219.361084
  20
877.446655
  0
VERTEX
  8
8
  10
292.483093
  20
877.446655
  0
SEQEND
  0
TEXT
  8
8
  10
-292.482544
  20
877.446655
  40
0.250000
  50
0.000000
  1
# 59
  7
STANDARD
  0
TEXT
  8
8
  10
292.483093
  20
877.446655
  40
0.250000
  50
0.000000
  1
# 60
  7
STANDARD
  0
POLYLINE
  8
85
  66
1
  70
0
  250
1
  0
VERTEX
  8
85
  10
-292.482544
  20
877.446655
  0
VERTEX
  8
85
  10
-219.360428
  20
877.446655
  0
VERTEX
  8
85
  10
-146.249130
  20
877.446655
  0
VERTEX
  8
85
  10
-73.137817
  20
877.446655
  0
VERTEX
  8
85
  10
0.000275
  20
877.446655
  0
VERTEX
  8
85
  10
73.138405
  20
877.446655
  0
VERTEX
  8
85
  10
146.249741
  20
877.446655
  0
VERTEX
  8
85
  10
219.361084
  20
877.446655
  0
VERTEX
  8
85
  10
292.483093
  20
877.446655
  0
SEQEND
  0
POINT
  8
2
  10
-292.482544
  20
877.446655
  0
POINT
  8
2
  10
292.483093
  20
877.446655
  0
POINT
  8
3
  10
-219.360428
  20
877.446655
  0
POINT
  8
3
  10
-146.249130
  20
877.446655
  0
POINT
  8
3
  10
-73.137817
  20
877.446655
  0
POINT
  8
3
  10
0.000278
  20
877.446655
  0
POINT
  8
3
  10
73.138405
  20
877.446655
  0
POINT
  8
3
  10
146.249741
  20
877.446655
  0
POINT
  8
3
  10
219.361084
  20
877.446655
  0
POLYLINE
  8
8
  66
1
  70
0
  250
1
  0
VERTEX
  8
8
  10
-292.498535
  20
852.446655
  0
VERTEX
  8
8
  10
0.000292
  20
852.446655
  0
VERTEX
  8
8
  10
292.499176
  20
852.446655
  0
SEQEND
  0
TEXT
  8
8
  10
-292.498535
  20
852.446655
  40
0.250000
  50
0.000000
  1
# 57
  7
STANDARD
  0
TEXT
  8
8
  10
292.499176
  20
852.446655
  40
0.250000
  50
0.000000
  1
# 58
  7
STANDARD
  0
POLYLINE
  8
85
  66
1
  70
0
  250
1
  0
VERTEX
  8
85
  10
-292.498535
  20
852.446655
  0
VERTEX
  8
85
  10
-219.360428
  20
852.446655
  0
VERTEX
  8
85
  10
-146.249130
  20
852.446655
  0
VERTEX
  8
85
  10
-73.137817
  20
852.446655
  0
VERTEX
  8
85
  10
0.000278
  20
852.446655
  0
VERTEX
  8
85
  10
73.138405
  20
852.446655
  0
VERTEX
  8
85
  10
146.249741
  20
852.446655
  0
VERTEX
  8
85
  10
219.361084
  20
852.446655
  0
VERTEX
  8
85
  10
292.499176
  20
852.446655
  0
SEQEND
  0
POINT
  8
2
  10
-292.498535
  20
852.446655
  0
POINT
  8
2
  10
292.499176
  20
852.446655
  0
POINT
  8
3
  10
0.000292
  20
852.446655
  0
POLYLINE
  8
8
  66
1
  70
0
  250
1
  0
VERTEX
  8
8
  10
291.492615
  20
877.552795
  0
VERTEX
  8
8
  10
291.492615
  20
871.208435
  0
SEQEND
  0
TEXT
  8
8
  10
291.492615
  20
877.552795
  40
0.250000
  50
0.000000
  1
# 55
  7
STANDARD
  0
TEXT
  8
8
  10
291.492615
  20
871.208435
  40
0.250000
  50
0.000000
  1
# 56
  7
STANDARD
  0
POLYLINE
  8
85
  66
1
  70
0
  250
1
  0
VERTEX
  8
85
  10
291.492615
  20
877.552795
  0
VERTEX
  8
85
  10
291.492615
  20
871.208435
  0
SEQEND
  0
POINT
  8
2
  10
291.492615
  20
877.552795
  0
POINT
  8
2
  10
291.492615
  20
871.208435
  0
POLYLINE
  8
8
  66
1
  70
0
  250
1
  0
VERTEX
  8
8
  10
291.492615
  20
827.552917
  0
VERTEX
  8
8
  10
291.492615
  20
833.897278
  0
SEQEND
  0
TEXT
  8
8
  10
291.492615
  20
827.552917
  40
0.250000
  50
0.000000
  1
# 53
  7
STANDARD
  0
TEXT
  8
8
  10
291.492615
  20
833.897278
  40
0.250000
  50
0.000000
  1
# 54
  7
STANDARD
  0
POLYLINE
  8
85
  66
1
  70
0
  250
1
  0
VERTEX
  8
85
  10
291.492615
  20
827.552917
  0
VERTEX
  8
85
  10
291.492615
  20
833.897278
  0
SEQEND
  0
POINT
  8
2
  10
291.492615
  20
827.552917
  0
POINT
  8
2
  10
291.492615
  20
833.897278
  0
POLYLINE
  8
8
  66
1
  70
0
  250
1
  0
VERTEX
  8
8
  10
291.740387
  20
854.093689
  0
VERTEX
  8
8
  10
292.131104
  20
853.102539
  0
SEQEND
  0
TEXT
  8
8
  10
291.740387
  20
854.093689
  40
0.250000
  50
0.000000
  1
# 51
  7
STANDARD
  0
TEXT
  8
8
  10
292.131104
  20
853.102539
  40
0.250000
  50
0.000000
  1
# 52
  7
STANDARD
  0
POLYLINE
  8
85
  66
1
  70
0
  250
1
  0
VERTEX
  8
85
  10
291.740387
  20
854.093689
  0
VERTEX
  8
85
  10
292.131104
  20
853.102539
  0
SEQEND
  0
POINT
  8
2
  10
291.740387
  20
854.093689
  0
POINT
  8
2
  10
292.131104
  20
853.102539
  0
POLYLINE
  8
8
  66
1
  70
1
  250
0
  0
VERTEX
  8
8
  10
80.009964
  20
1346.456909
  0
VERTEX
  8
8
  10
120.009979
  20
1346.456909
  0
VERTEX
  8
8
  10
120.009979
  20
1385.456909
  0
VERTEX
  8
8
  10
80.009964
  20
1385.456909
  0
SEQEND
  0
POLYLINE
  8
85
  66
1
  70
1
  250
1
  0
VERTEX
  8
85
  10
80.009964
  20
1346.456909
  0
VERTEX
  8
85
  10
120.009979
  20
1346.456909
  0
VERTEX
  8
85
  10
120.009979
  20
1346.456909
  0
VERTEX
  8
85
  10
120.009979
  20
1385.456909
  0
VERTEX
  8
85
  10
120.009979
  20
1385.456909
  0
VERTEX
  8
85
  10
80.009964
  20
1385.456909
  0
VERTEX
  8
85
  10
80.009964
  20
1385.456909
  0
VERTEX
  8
85
  10
80.009964
  20
1346.456909
  0
SEQEND
  0
POINT
  8
2
  10
80.009964
  20
1346.456909
  0
POINT
  8
2
  10
120.009979
  20
1346.456909
  0
POINT
  8
2
  10
120.009979
  20
1385.456909
  0
POINT
  8
2
  10
80.009964
  20
1385.456909
  0
POLYLINE
  8
8
  66
1
  70
0
  250
0
  0
VERTEX
  8
8
  10
-292.498871
  20
1281.061401
  0
VERTEX
  8
8
  10
0.002865
  20
1281.061401
  0
SEQEND
  0
TEXT
  8
8
  10
-292.498871
  20
1281.061401
  40
0.250000
  50
0.000000
  1
# 49
  7
STANDARD
  0
TEXT
  8
8
  10
0.002865
  20
1281.061401
  40
0.250000
  50
0.000000
  1
# 50
  7
STANDARD
  0
POLYLINE
  8
85
  66
1
  70
0
  250
1
  0
VERTEX
  8
85
  10
-292.498871
  20
1281.061401
  0
VERTEX
  8
85
  10
0.002865
  20
1281.061401
  0
SEQEND
  0
POINT
  8
2
  10
-292.498871
  20
1281.061401
  0
POINT
  8
2
  10
0.002865
  20
1281.061401
  0
POLYLINE
  8
8
  66
1
  70
0
  250
0
  0
VERTEX
  8
8
  10
0.000292
  20
852.446655
  0
VERTEX
  8
8
  10
0.000318
  20
1465.475708
  0
SEQEND
  0
TEXT
  8
8
  10
0.000292
  20
852.446655
  40
0.250000
  50
0.000000
  1
# 47
  7
STANDARD
  0
TEXT
  8
8
  10
0.000318
  20
1465.475708
  40
0.250000
  50
0.000000
  1
# 48
  7
STANDARD
  0
POLYLINE
  8
85
  66
1
  70
0
  250
1
  0
VERTEX
  8
85
  10
0.000292
  20
852.446655
  0
VERTEX
  8
85
  10
0.000318
  20
1465.475708
  0
SEQEND
  0
POINT
  8
2
  10
0.000292
  20
852.446655
  0
POINT
  8
2
  10
0.000318
  20
1465.475708
  0
POLYLINE
  8
8
  66
1
  70
0
  250
0
  0
VERTEX
  8
8
  10
292.498871
  20
1281.061401
  0
VERTEX
  8
8
  10
-0.002238
  20
1281.061401
  0
SEQEND
  0
TEXT
  8
8
  10
292.498871
  20
1281.061401
  40
0.250000
  50
0.000000
  1
# 45
  7
STANDARD
  0
TEXT
  8
8
  10
-0.002238
  20
1281.061401
  40
0.250000
  50
0.000000
  1
# 46
  7
STANDARD
  0
POLYLINE
  8
85
  66
1
  70
0
  250
1
  0
VERTEX
  8
85
  10
292.498871
  20
1281.061401
  0
VERTEX
  8
85
  10
-0.002238
  20
1281.061401
  0
SEQEND
  0
POINT
  8
2
  10
292.498871
  20
1281.061401
  0
POINT
  8
2
  10
-0.002238
  20
1281.061401
  0
POLYLINE
  8
8
  66
1
  70
0
  250
0
  0
VERTEX
  8
8
  10
0.000268
  20
852.446655
  0
VERTEX
  8
8
  10
0.000341
  20
1465.475708
  0
SEQEND
  0
TEXT
  8
8
  10
0.000268
  20
852.446655
  40
0.250000
  50
0.000000
  1
# 43
  7
STANDARD
  0
TEXT
  8
8
  10
0.000341
  20
1465.475708
  40
0.250000
  50
0.000000
  1
# 44
  7
STANDARD
  0
POLYLINE
  8
85
  66
1
  70
0
  250
1
  0
VERTEX
  8
85
  10
0.000268
  20
852.446655
  0
VERTEX
  8
85
  10
0.000341
  20
1465.475708
  0
SEQEND
  0
POINT
  8
2
  10
0.000268
  20
852.446655
  0
POINT
  8
2
  10
0.000341
  20
1465.475708
  0
POLYLINE
  8
8
  66
1
  70
1
  250
0
  0
VERTEX
  8
8
  10
120.010010
  20
1385.456665
  0
VERTEX
  8
8
  10
80.010017
  20
1385.456665
  0
VERTEX
  8
8
  10
80.010017
  20
1346.456665
  0
VERTEX
  8
8
  10
120.010017
  20
1346.456665
  0
SEQEND
  0
TEXT
  8
8
  10
120.010010
  20
1385.456665
  40
0.250000
  50
0.000000
  1
# 39
  7
STANDARD
  0
TEXT
  8
8
  10
80.010017
  20
1385.456665
  40
0.250000
  50
0.000000
  1
# 40
  7
STANDARD
  0
TEXT
  8
8
  10
80.010017
  20
1346.456665
  40
0.250000
  50
0.000000
  1
# 41
  7
STANDARD
  0
TEXT
  8
8
  10
120.010017
  20
1346.456665
  40
0.250000
  50
0.000000
  1
# 42
  7
STANDARD
  0
POLYLINE
  8
85
  66
1
  70
1
  250
1
  0
VERTEX
  8
85
  10
120.010010
  20
1385.456665
  0
VERTEX
  8
85
  10
80.010017
  20
1385.456665
  0
VERTEX
  8
85
  10
80.010017
  20
1385.456665
  0
VERTEX
  8
85
  10
80.010017
  20
1346.456665
  0
VERTEX
  8
85
  10
80.010017
  20
1346.456665
  0
VERTEX
  8
85
  10
120.010017
  20
1346.456665
  0
VERTEX
  8
85
  10
120.010017
  20
1346.456665
  0
VERTEX
  8
85
  10
120.010010
  20
1385.456665
  0
SEQEND
  0
POINT
  8
2
  10
120.010010
  20
1385.456665
  0
POINT
  8
2
  10
80.010017
  20
1385.456665
  0
POINT
  8
2
  10
80.010017
  20
1346.456665
  0
POINT
  8
2
  10
120.010017
  20
1346.456665
  0
POLYLINE
  8
8
  66
1
  70
0
  250
0
  0
VERTEX
  8
8
  10
-292.498535
  20
852.446655
  0
VERTEX
  8
8
  10
0.000292
  20
852.446655
  0
VERTEX
  8
8
  10
292.499176
  20
852.446655
  0
SEQEND
  0
TEXT
  8
8
  10
-292.498535
  20
852.446655
  40
0.250000
  50
0.000000
  1
# 37
  7
STANDARD
  0
TEXT
  8
8
  10
292.499176
  20
852.446655
  40
0.250000
  50
0.000000
  1
# 38
  7
STANDARD
  0
POLYLINE
  8
85
  66
1
  70
0
  250
1
  0
VERTEX
  8
85
  10
-292.498535
  20
852.446655
  0
VERTEX
  8
85
  10
-219.360443
  20
852.446655
  0
VERTEX
  8
85
  10
-146.249130
  20
852.446655
  0
VERTEX
  8
85
  10
-73.137794
  20
852.446655
  0
VERTEX
  8
85
  10
0.000305
  20
852.446655
  0
VERTEX
  8
85
  10
73.138412
  20
852.446655
  0
VERTEX
  8
85
  10
146.249725
  20
852.446655
  0
VERTEX
  8
85
  10
219.361053
  20
852.446655
  0
VERTEX
  8
85
  10
292.499176
  20
852.446655
  0
SEQEND
  0
POINT
  8
2
  10
-292.498535
  20
852.446655
  0
POINT
  8
2
  10
292.499176
  20
852.446655
  0
POINT
  8
3
  10
0.000292
  20
852.446655
  0
TEXT
  8
1
  10
-0.000031
  20
1165.376587
  50
0.000000
  51
0.000000
  71
0.000000
  1
PIECE NAME: L-AMX1408F22-FR_selffabric_1
  7
STANDARD
  0
TEXT
  8
1
  10
-0.000031
  20
1160.376587
  50
0.000000
  51
0.000000
  71
0.000000
  1
SIZE: A36
  7
STANDARD
  0
TEXT
  8
1
  10
-0.000031
  20
1155.376587
  50
0.000000
  51
0.000000
  71
0.000000
  1
ANNOTATION:  1X FABRIC
  7
STANDARD
  0
TEXT
  8
1
  10
-0.000031
  20
1150.376587
  50
0.000000
  51
0.000000
  71
0.000000
  1
QUANTITY: 1
  7
STANDARD
  0
ENDBLK
  0
BLOCK
  8
1
  2
L-AMX1408F22-BK_selffabric_1_A36
  70
64
  10
0
  20
0
  0
POLYLINE
  8
1
  66
1
  70
1
  250
2
  0
VERTEX
  8
1
  10
1442.672363
  20
1523.677246
  0
VERTEX
  8
1
  10
1435.876343
  20
1523.677246
  0
VERTEX
  8
1
  10
1422.800171
  20
1524.308228
  0
VERTEX
  8
1
  10
1417.400391
  20
1524.754883
  0
VERTEX
  8
1
  10
1412.017090
  20
1525.295288
  0
VERTEX
  8
1
  10
1408.714966
  20
1525.494263
  0
VERTEX
  8
1
  10
1405.471802
  20
1525.773315
  0
VERTEX
  8
1
  10
1402.216797
  20
1526.135986
  0
VERTEX
  8
1
  10
1397.168213
  20
1526.852173
  0
VERTEX
  8
1
  10
1392.082520
  20
1527.795898
  0
VERTEX
  8
1
  10
1389.032959
  20
1528.452637
  0
VERTEX
  8
1
  10
1385.364746
  20
1529.310913
  0
VERTEX
  8
1
  10
1382.012817
  20
1530.294678
  0
VERTEX
  8
1
  10
1381.412598
  20
1530.470825
  0
VERTEX
  8
1
  10
1380.810547
  20
1530.671143
  0
VERTEX
  8
1
  10
1376.599365
  20
1532.071899
  0
VERTEX
  8
1
  10
1355.530029
  20
1511.830566
  0
VERTEX
  8
1
  10
1348.524048
  20
1504.832397
  0
VERTEX
  8
1
  10
1343.589355
  20
1499.819824
  0
VERTEX
  8
1
  10
1338.845703
  20
1494.986816
  0
VERTEX
  8
1
  10
1333.609863
  20
1489.625977
  0
VERTEX
  8
1
  10
1329.322021
  20
1485.239014
  0
VERTEX
  8
1
  10
1325.188477
  20
1480.835815
  0
VERTEX
  8
1
  10
1314.108887
  20
1468.182617
  0
VERTEX
  8
1
  10
1291.665894
  20
1438.295776
  0
VERTEX
  8
1
  10
1281.763428
  20
1423.702515
  0
VERTEX
  8
1
  10
1272.218994
  20
1408.844727
  0
VERTEX
  8
1
  10
1263.061401
  20
1393.758423
  0
VERTEX
  8
1
  10
1254.154175
  20
1376.527588
  0
VERTEX
  8
1
  10
1245.578735
  20
1359.514282
  0
VERTEX
  8
1
  10
1243.872803
  20
1356.061157
  0
VERTEX
  8
1
  10
1240.445679
  20
1349.064331
  0
VERTEX
  8
1
  10
1236.035645
  20
1340.143677
  0
VERTEX
  8
1
  10
1232.089233
  20
1332.357422
  0
VERTEX
  8
1
  10
1230.645508
  20
1329.430908
  0
VERTEX
  8
1
  10
1229.250122
  20
1326.472778
  0
VERTEX
  8
1
  10
1227.940918
  20
1323.540039
  0
VERTEX
  8
1
  10
1225.914185
  20
1318.779053
  0
VERTEX
  8
1
  10
1222.649780
  20
1312.143188
  0
VERTEX
  8
1
  10
1221.270630
  20
1309.734863
  0
VERTEX
  8
1
  10
1211.011841
  20
1296.024292
  0
VERTEX
  8
1
  10
1199.377930
  20
1285.695557
  0
VERTEX
  8
1
  10
1193.477417
  20
1281.926270
  0
VERTEX
  8
1
  10
1191.344482
  20
1280.767212
  0
VERTEX
  8
1
  10
1176.105225
  20
1275.026978
  0
VERTEX
  8
1
  10
1173.757446
  20
1274.492798
  0
VERTEX
  8
1
  10
1171.548828
  20
1274.081543
  0
VERTEX
  8
1
  10
1169.183105
  20
1273.708008
  0
VERTEX
  8
1
  10
1166.782593
  20
1273.336548
  0
VERTEX
  8
1
  10
1164.432983
  20
1273.128784
  0
VERTEX
  8
1
  10
1161.602661
  20
1272.924805
  0
VERTEX
  8
1
  10
1157.269043
  20
1272.790039
  0
VERTEX
  8
1
  10
1150.145508
  20
1272.605713
  0
VERTEX
  8
1
  10
1150.185791
  20
798.681091
  0
VERTEX
  8
1
  10
1442.672607
  20
798.681030
  0
VERTEX
  8
1
  10
1735.159912
  20
798.681458
  0
VERTEX
  8
1
  10
1735.199463
  20
1272.605957
  0
VERTEX
  8
1
  10
1728.076050
  20
1272.790405
  0
VERTEX
  8
1
  10
1723.742432
  20
1272.925049
  0
VERTEX
  8
1
  10
1720.912109
  20
1273.129150
  0
VERTEX
  8
1
  10
1718.562500
  20
1273.336914
  0
VERTEX
  8
1
  10
1716.162109
  20
1273.708252
  0
VERTEX
  8
1
  10
1713.796265
  20
1274.081909
  0
VERTEX
  8
1
  10
1711.587646
  20
1274.493042
  0
VERTEX
  8
1
  10
1709.239868
  20
1275.027344
  0
VERTEX
  8
1
  10
1694.000732
  20
1280.767456
  0
VERTEX
  8
1
  10
1691.867676
  20
1281.926514
  0
VERTEX
  8
1
  10
1685.967163
  20
1285.695923
  0
VERTEX
  8
1
  10
1674.333130
  20
1296.024536
  0
VERTEX
  8
1
  10
1664.074341
  20
1309.735107
  0
VERTEX
  8
1
  10
1662.695312
  20
1312.143555
  0
VERTEX
  8
1
  10
1659.430786
  20
1318.779297
  0
VERTEX
  8
1
  10
1657.404053
  20
1323.540405
  0
VERTEX
  8
1
  10
1656.094971
  20
1326.473145
  0
VERTEX
  8
1
  10
1654.699585
  20
1329.431152
  0
VERTEX
  8
1
  10
1653.255737
  20
1332.357788
  0
VERTEX
  8
1
  10
1649.309326
  20
1340.143921
  0
VERTEX
  8
1
  10
1644.899414
  20
1349.064575
  0
VERTEX
  8
1
  10
1641.472168
  20
1356.061401
  0
VERTEX
  8
1
  10
1639.766235
  20
1359.514526
  0
VERTEX
  8
1
  10
1631.190796
  20
1376.527832
  0
VERTEX
  8
1
  10
1622.283569
  20
1393.758667
  0
VERTEX
  8
1
  10
1613.125854
  20
1408.844971
  0
VERTEX
  8
1
  10
1603.581421
  20
1423.702759
  0
VERTEX
  8
1
  10
1593.678955
  20
1438.295898
  0
VERTEX
  8
1
  10
1571.235840
  20
1468.182861
  0
VERTEX
  8
1
  10
1560.156372
  20
1480.835938
  0
VERTEX
  8
1
  10
1556.022827
  20
1485.239136
  0
VERTEX
  8
1
  10
1551.734863
  20
1489.626221
  0
VERTEX
  8
1
  10
1546.499146
  20
1494.986938
  0
VERTEX
  8
1
  10
1541.755371
  20
1499.820068
  0
VERTEX
  8
1
  10
1536.820801
  20
1504.832520
  0
VERTEX
  8
1
  10
1529.814697
  20
1511.830811
  0
VERTEX
  8
1
  10
1508.745361
  20
1532.071899
  0
VERTEX
  8
1
  10
1504.534302
  20
1530.671143
  0
VERTEX
  8
1
  10
1503.932129
  20
1530.470947
  0
VERTEX
  8
1
  10
1503.331909
  20
1530.294678
  0
VERTEX
  8
1
  10
1499.979980
  20
1529.310913
  0
VERTEX
  8
1
  10
1496.311890
  20
1528.452759
  0
VERTEX
  8
1
  10
1493.262329
  20
1527.795898
  0
VERTEX
  8
1
  10
1488.176514
  20
1526.852173
  0
VERTEX
  8
1
  10
1483.128052
  20
1526.135986
  0
VERTEX
  8
1
  10
1479.872925
  20
1525.773438
  0
VERTEX
  8
1
  10
1476.629883
  20
1525.494385
  0
VERTEX
  8
1
  10
1473.327637
  20
1525.295288
  0
VERTEX
  8
1
  10
1467.944336
  20
1524.754883
  0
VERTEX
  8
1
  10
1462.544556
  20
1524.308228
  0
VERTEX
  8
1
  10
1449.468384
  20
1523.677246
  0
SEQEND
  0
TEXT
  8
1
  10
1442.672363
  20
1523.677246
  40
0.250000
  50
0.000000
  1
# 29
  7
STANDARD
  0
TEXT
  8
1
  10
1376.599365
  20
1532.071899
  40
0.250000
  50
0.000000
  1
# 30
  7
STANDARD
  0
TEXT
  8
1
  10
1150.145508
  20
1272.605713
  40
0.250000
  50
0.000000
  1
# 31
  7
STANDARD
  0
TEXT
  8
1
  10
1150.185791
  20
798.681091
  40
0.250000
  50
0.000000
  1
# 32
  7
STANDARD
  0
TEXT
  8
1
  10
1442.672607
  20
798.681030
  40
0.250000
  50
0.000000
  1
# 33
  7
STANDARD
  0
TEXT
  8
1
  10
1735.159912
  20
798.681458
  40
0.250000
  50
0.000000
  1
# 34
  7
STANDARD
  0
TEXT
  8
1
  10
1735.199463
  20
1272.605957
  40
0.250000
  50
0.000000
  1
# 35
  7
STANDARD
  0
TEXT
  8
1
  10
1508.745361
  20
1532.071899
  40
0.250000
  50
0.000000
  1
# 36
  7
STANDARD
  0
POLYLINE
  8
84
  66
1
  70
1
  250
2
  0
VERTEX
  8
84
  10
1442.672363
  20
1523.677246
  0
VERTEX
  8
84
  10
1435.876343
  20
1523.677246
  0
VERTEX
  8
84
  10
1429.334839
  20
1523.901611
  0
VERTEX
  8
84
  10
1422.800171
  20
1524.308228
  0
VERTEX
  8
84
  10
1417.400391
  20
1524.754883
  0
VERTEX
  8
84
  10
1412.017090
  20
1525.295288
  0
VERTEX
  8
84
  10
1408.714966
  20
1525.494263
  0
VERTEX
  8
84
  10
1405.471802
  20
1525.773315
  0
VERTEX
  8
84
  10
1402.216797
  20
1526.135986
  0
VERTEX
  8
84
  10
1397.168213
  20
1526.852173
  0
VERTEX
  8
84
  10
1392.082520
  20
1527.795898
  0
VERTEX
  8
84
  10
1389.032959
  20
1528.452637
  0
VERTEX
  8
84
  10
1385.364746
  20
1529.310913
  0
VERTEX
  8
84
  10
1382.012817
  20
1530.294678
  0
VERTEX
  8
84
  10
1381.412598
  20
1530.470825
  0
VERTEX
  8
84
  10
1380.810547
  20
1530.671143
  0
VERTEX
  8
84
  10
1376.599365
  20
1532.071899
  0
VERTEX
  8
84
  10
1376.599365
  20
1532.071899
  0
VERTEX
  8
84
  10
1369.535767
  20
1525.364746
  0
VERTEX
  8
84
  10
1362.504150
  20
1518.629395
  0
VERTEX
  8
84
  10
1355.530029
  20
1511.830566
  0
VERTEX
  8
84
  10
1348.524048
  20
1504.832397
  0
VERTEX
  8
84
  10
1343.589355
  20
1499.819824
  0
VERTEX
  8
84
  10
1338.845703
  20
1494.986816
  0
VERTEX
  8
84
  10
1333.609863
  20
1489.625977
  0
VERTEX
  8
84
  10
1329.322021
  20
1485.239014
  0
VERTEX
  8
84
  10
1325.188477
  20
1480.835815
  0
VERTEX
  8
84
  10
1321.424316
  20
1476.679443
  0
VERTEX
  8
84
  10
1317.729980
  20
1472.463501
  0
VERTEX
  8
84
  10
1314.108887
  20
1468.182617
  0
VERTEX
  8
84
  10
1311.476807
  20
1464.968872
  0
VERTEX
  8
84
  10
1308.886597
  20
1461.722412
  0
VERTEX
  8
84
  10
1306.335327
  20
1458.445801
  0
VERTEX
  8
84
  10
1303.819702
  20
1455.141602
  0
VERTEX
  8
84
  10
1301.336670
  20
1451.812256
  0
VERTEX
  8
84
  10
1298.882812
  20
1448.460449
  0
VERTEX
  8
84
  10
1296.455200
  20
1445.088745
  0
VERTEX
  8
84
  10
1294.050659
  20
1441.699707
  0
VERTEX
  8
84
  10
1291.665894
  20
1438.295776
  0
VERTEX
  8
84
  10
1286.666138
  20
1431.030518
  0
VERTEX
  8
84
  10
1281.763428
  20
1423.702515
  0
VERTEX
  8
84
  10
1276.958252
  20
1416.296509
  0
VERTEX
  8
84
  10
1272.218994
  20
1408.844727
  0
VERTEX
  8
84
  10
1269.085083
  20
1403.862305
  0
VERTEX
  8
84
  10
1266.014648
  20
1398.844604
  0
VERTEX
  8
84
  10
1263.061401
  20
1393.758423
  0
VERTEX
  8
84
  10
1259.991577
  20
1388.069824
  0
VERTEX
  8
84
  10
1257.050537
  20
1382.312012
  0
VERTEX
  8
84
  10
1254.154175
  20
1376.527588
  0
VERTEX
  8
84
  10
1245.578735
  20
1359.514282
  0
VERTEX
  8
84
  10
1243.872803
  20
1356.061157
  0
VERTEX
  8
84
  10
1240.445679
  20
1349.064331
  0
VERTEX
  8
84
  10
1236.035645
  20
1340.143677
  0
VERTEX
  8
84
  10
1232.089233
  20
1332.357422
  0
VERTEX
  8
84
  10
1230.645508
  20
1329.430908
  0
VERTEX
  8
84
  10
1229.250122
  20
1326.472778
  0
VERTEX
  8
84
  10
1227.940918
  20
1323.540039
  0
VERTEX
  8
84
  10
1225.914185
  20
1318.779053
  0
VERTEX
  8
84
  10
1224.354980
  20
1315.424927
  0
VERTEX
  8
84
  10
1222.649780
  20
1312.143188
  0
VERTEX
  8
84
  10
1221.270630
  20
1309.734863
  0
VERTEX
  8
84
  10
1219.985352
  20
1307.651367
  0
VERTEX
  8
84
  10
1218.637451
  20
1305.607056
  0
VERTEX
  8
84
  10
1217.228271
  20
1303.603394
  0
VERTEX
  8
84
  10
1215.759644
  20
1301.641846
  0
VERTEX
  8
84
  10
1214.232910
  20
1299.723877
  0
VERTEX
  8
84
  10
1212.649902
  20
1297.850830
  0
VERTEX
  8
84
  10
1211.011841
  20
1296.024292
  0
VERTEX
  8
84
  10
1209.218018
  20
1294.141602
  0
VERTEX
  8
84
  10
1207.366089
  20
1292.318237
  0
VERTEX
  8
84
  10
1205.455933
  20
1290.557983
  0
VERTEX
  8
84
  10
1203.487793
  20
1288.864868
  0
VERTEX
  8
84
  10
1201.461792
  20
1287.242798
  0
VERTEX
  8
84
  10
1199.377930
  20
1285.695557
  0
VERTEX
  8
84
  10
1196.476074
  20
1283.733887
  0
VERTEX
  8
84
  10
1193.477417
  20
1281.926270
  0
VERTEX
  8
84
  10
1191.344482
  20
1280.767212
  0
VERTEX
  8
84
  10
1189.259155
  20
1279.728394
  0
VERTEX
  8
84
  10
1187.137817
  20
1278.761230
  0
VERTEX
  8
84
  10
1184.983521
  20
1277.866333
  0
VERTEX
  8
84
  10
1182.799805
  20
1277.044678
  0
VERTEX
  8
84
  10
1180.589844
  20
1276.296997
  0
VERTEX
  8
84
  10
1178.357178
  20
1275.624146
  0
VERTEX
  8
84
  10
1176.105225
  20
1275.026978
  0
VERTEX
  8
84
  10
1173.757446
  20
1274.492798
  0
VERTEX
  8
84
  10
1171.548828
  20
1274.081543
  0
VERTEX
  8
84
  10
1169.183105
  20
1273.708008
  0
VERTEX
  8
84
  10
1166.782593
  20
1273.336548
  0
VERTEX
  8
84
  10
1164.432983
  20
1273.128784
  0
VERTEX
  8
84
  10
1161.602661
  20
1272.924805
  0
VERTEX
  8
84
  10
1157.269043
  20
1272.790039
  0
VERTEX
  8
84
  10
1150.145508
  20
1272.605713
  0
VERTEX
  8
84
  10
1150.145508
  20
1272.605713
  0
VERTEX
  8
84
  10
1150.185791
  20
798.681091
  0
VERTEX
  8
84
  10
1150.185791
  20
798.681091
  0
VERTEX
  8
84
  10
1442.672607
  20
798.681030
  0
VERTEX
  8
84
  10
1442.672607
  20
798.681030
  0
VERTEX
  8
84
  10
1735.159912
  20
798.681458
  0
VERTEX
  8
84
  10
1735.159912
  20
798.681458
  0
VERTEX
  8
84
  10
1735.199463
  20
1272.605957
  0
VERTEX
  8
84
  10
1735.199463
  20
1272.605957
  0
VERTEX
  8
84
  10
1728.076050
  20
1272.790405
  0
VERTEX
  8
84
  10
1723.742432
  20
1272.925049
  0
VERTEX
  8
84
  10
1720.912109
  20
1273.129150
  0
VERTEX
  8
84
  10
1718.562500
  20
1273.336914
  0
VERTEX
  8
84
  10
1716.162109
  20
1273.708252
  0
VERTEX
  8
84
  10
1713.796265
  20
1274.081909
  0
VERTEX
  8
84
  10
1711.587646
  20
1274.493042
  0
VERTEX
  8
84
  10
1709.239868
  20
1275.027344
  0
VERTEX
  8
84
  10
1706.987793
  20
1275.624512
  0
VERTEX
  8
84
  10
1704.755127
  20
1276.297363
  0
VERTEX
  8
84
  10
1702.545288
  20
1277.044922
  0
VERTEX
  8
84
  10
1700.361572
  20
1277.866699
  0
VERTEX
  8
84
  10
1698.207275
  20
1278.761475
  0
VERTEX
  8
84
  10
1696.085938
  20
1279.728760
  0
VERTEX
  8
84
  10
1694.000732
  20
1280.767456
  0
VERTEX
  8
84
  10
1691.867676
  20
1281.926514
  0
VERTEX
  8
84
  10
1688.869019
  20
1283.734131
  0
VERTEX
  8
84
  10
1685.967163
  20
1285.695923
  0
VERTEX
  8
84
  10
1683.883301
  20
1287.243042
  0
VERTEX
  8
84
  10
1681.857178
  20
1288.865234
  0
VERTEX
  8
84
  10
1679.889160
  20
1290.558350
  0
VERTEX
  8
84
  10
1677.979004
  20
1292.318481
  0
VERTEX
  8
84
  10
1676.126953
  20
1294.141846
  0
VERTEX
  8
84
  10
1674.333130
  20
1296.024536
  0
VERTEX
  8
84
  10
1672.695190
  20
1297.851196
  0
VERTEX
  8
84
  10
1671.112061
  20
1299.724121
  0
VERTEX
  8
84
  10
1669.585449
  20
1301.642090
  0
VERTEX
  8
84
  10
1668.116699
  20
1303.603638
  0
VERTEX
  8
84
  10
1666.707642
  20
1305.607300
  0
VERTEX
  8
84
  10
1665.359619
  20
1307.651611
  0
VERTEX
  8
84
  10
1664.074341
  20
1309.735107
  0
VERTEX
  8
84
  10
1662.695312
  20
1312.143555
  0
VERTEX
  8
84
  10
1660.989990
  20
1315.425293
  0
VERTEX
  8
84
  10
1659.430786
  20
1318.779297
  0
VERTEX
  8
84
  10
1657.404053
  20
1323.540405
  0
VERTEX
  8
84
  10
1656.094971
  20
1326.473145
  0
VERTEX
  8
84
  10
1654.699585
  20
1329.431152
  0
VERTEX
  8
84
  10
1653.255737
  20
1332.357788
  0
VERTEX
  8
84
  10
1649.309326
  20
1340.143921
  0
VERTEX
  8
84
  10
1644.899414
  20
1349.064575
  0
VERTEX
  8
84
  10
1641.472168
  20
1356.061401
  0
VERTEX
  8
84
  10
1639.766235
  20
1359.514526
  0
VERTEX
  8
84
  10
1631.190796
  20
1376.527832
  0
VERTEX
  8
84
  10
1628.294434
  20
1382.312256
  0
VERTEX
  8
84
  10
1625.353271
  20
1388.070068
  0
VERTEX
  8
84
  10
1622.283569
  20
1393.758667
  0
VERTEX
  8
84
  10
1619.330200
  20
1398.844849
  0
VERTEX
  8
84
  10
1616.259888
  20
1403.862549
  0
VERTEX
  8
84
  10
1613.125854
  20
1408.844971
  0
VERTEX
  8
84
  10
1608.386719
  20
1416.296753
  0
VERTEX
  8
84
  10
1603.581421
  20
1423.702759
  0
VERTEX
  8
84
  10
1598.678711
  20
1431.030762
  0
VERTEX
  8
84
  10
1593.678955
  20
1438.295898
  0
VERTEX
  8
84
  10
1591.294189
  20
1441.699829
  0
VERTEX
  8
84
  10
1588.889648
  20
1445.088867
  0
VERTEX
  8
84
  10
1586.462036
  20
1448.460571
  0
VERTEX
  8
84
  10
1584.008301
  20
1451.812378
  0
VERTEX
  8
84
  10
1581.525146
  20
1455.141724
  0
VERTEX
  8
84
  10
1579.009521
  20
1458.446045
  0
VERTEX
  8
84
  10
1576.458252
  20
1461.722656
  0
VERTEX
  8
84
  10
1573.868042
  20
1464.969116
  0
VERTEX
  8
84
  10
1571.235840
  20
1468.182861
  0
VERTEX
  8
84
  10
1567.614868
  20
1472.463623
  0
VERTEX
  8
84
  10
1563.920410
  20
1476.679565
  0
VERTEX
  8
84
  10
1560.156372
  20
1480.835938
  0
VERTEX
  8
84
  10
1556.022827
  20
1485.239136
  0
VERTEX
  8
84
  10
1551.734863
  20
1489.626221
  0
VERTEX
  8
84
  10
1546.499146
  20
1494.986938
  0
VERTEX
  8
84
  10
1541.755371
  20
1499.820068
  0
VERTEX
  8
84
  10
1536.820801
  20
1504.832520
  0
VERTEX
  8
84
  10
1529.814697
  20
1511.830811
  0
VERTEX
  8
84
  10
1522.840576
  20
1518.629517
  0
VERTEX
  8
84
  10
1515.808960
  20
1525.364990
  0
VERTEX
  8
84
  10
1508.745361
  20
1532.071899
  0
VERTEX
  8
84
  10
1508.745361
  20
1532.071899
  0
VERTEX
  8
84
  10
1504.534302
  20
1530.671143
  0
VERTEX
  8
84
  10
1503.932129
  20
1530.470947
  0
VERTEX
  8
84
  10
1503.331909
  20
1530.294678
  0
VERTEX
  8
84
  10
1499.979980
  20
1529.310913
  0
VERTEX
  8
84
  10
1496.311890
  20
1528.452759
  0
VERTEX
  8
84
  10
1493.262329
  20
1527.795898
  0
VERTEX
  8
84
  10
1488.176514
  20
1526.852173
  0
VERTEX
  8
84
  10
1483.128052
  20
1526.135986
  0
VERTEX
  8
84
  10
1479.872925
  20
1525.773438
  0
VERTEX
  8
84
  10
1476.629883
  20
1525.494385
  0
VERTEX
  8
84
  10
1473.327637
  20
1525.295288
  0
VERTEX
  8
84
  10
1467.944336
  20
1524.754883
  0
VERTEX
  8
84
  10
1462.544556
  20
1524.308228
  0
VERTEX
  8
84
  10
1456.009888
  20
1523.901611
  0
VERTEX
  8
84
  10
1449.468384
  20
1523.677246
  0
VERTEX
  8
84
  10
1442.672363
  20
1523.677246
  0
SEQEND
  0
POINT
  8
2
  10
1442.672363
  20
1523.677246
  0
POINT
  8
2
  10
1376.599365
  20
1532.071899
  0
POINT
  8
2
  10
1150.145508
  20
1272.605713
  0
POINT
  8
2
  10
1150.185791
  20
798.681091
  0
POINT
  8
2
  10
1442.672607
  20
798.681030
  0
POINT
  8
2
  10
1735.159912
  20
798.681458
  0
POINT
  8
2
  10
1735.199463
  20
1272.605957
  0
POINT
  8
2
  10
1508.745361
  20
1532.071899
  0
POINT
  8
3
  10
1435.876343
  20
1523.677246
  0
POINT
  8
3
  10
1422.800171
  20
1524.308228
  0
POINT
  8
3
  10
1417.400391
  20
1524.754883
  0
POINT
  8
3
  10
1412.017090
  20
1525.295288
  0
POINT
  8
3
  10
1408.714966
  20
1525.494263
  0
POINT
  8
3
  10
1405.471802
  20
1525.773315
  0
POINT
  8
3
  10
1402.216797
  20
1526.135986
  0
POINT
  8
3
  10
1397.168213
  20
1526.852173
  0
POINT
  8
3
  10
1392.082520
  20
1527.795898
  0
POINT
  8
3
  10
1389.032959
  20
1528.452637
  0
POINT
  8
3
  10
1385.364746
  20
1529.310913
  0
POINT
  8
3
  10
1382.012817
  20
1530.294678
  0
POINT
  8
3
  10
1381.412598
  20
1530.470825
  0
POINT
  8
3
  10
1380.810547
  20
1530.671143
  0
POINT
  8
3
  10
1355.530029
  20
1511.830566
  0
POINT
  8
3
  10
1348.524048
  20
1504.832397
  0
POINT
  8
3
  10
1343.589355
  20
1499.819824
  0
POINT
  8
3
  10
1338.845703
  20
1494.986816
  0
POINT
  8
3
  10
1333.609863
  20
1489.625977
  0
POINT
  8
3
  10
1329.322021
  20
1485.239014
  0
POINT
  8
3
  10
1325.188477
  20
1480.835815
  0
POINT
  8
3
  10
1314.108887
  20
1468.182617
  0
POINT
  8
3
  10
1291.665894
  20
1438.295776
  0
POINT
  8
3
  10
1281.763428
  20
1423.702515
  0
POINT
  8
3
  10
1272.218994
  20
1408.844727
  0
POINT
  8
3
  10
1263.061401
  20
1393.758423
  0
POINT
  8
3
  10
1254.154175
  20
1376.527588
  0
POINT
  8
3
  10
1245.578735
  20
1359.514282
  0
POINT
  8
3
  10
1243.872803
  20
1356.061157
  0
POINT
  8
3
  10
1240.445679
  20
1349.064331
  0
POINT
  8
3
  10
1236.035645
  20
1340.143677
  0
POINT
  8
3
  10
1232.089233
  20
1332.357422
  0
POINT
  8
3
  10
1230.645508
  20
1329.430908
  0
POINT
  8
3
  10
1229.250122
  20
1326.472778
  0
POINT
  8
3
  10
1227.940918
  20
1323.540039
  0
POINT
  8
3
  10
1225.914185
  20
1318.779053
  0
POINT
  8
3
  10
1222.649780
  20
1312.143188
  0
POINT
  8
3
  10
1221.270630
  20
1309.734863
  0
POINT
  8
3
  10
1211.011841
  20
1296.024292
  0
POINT
  8
3
  10
1199.377930
  20
1285.695557
  0
POINT
  8
3
  10
1193.477417
  20
1281.926270
  0
POINT
  8
3
  10
1191.344482
  20
1280.767212
  0
POINT
  8
3
  10
1176.105225
  20
1275.026978
  0
POINT
  8
3
  10
1173.757446
  20
1274.492798
  0
POINT
  8
3
  10
1171.548828
  20
1274.081543
  0
POINT
  8
3
  10
1169.183105
  20
1273.708008
  0
POINT
  8
3
  10
1166.782593
  20
1273.336548
  0
POINT
  8
3
  10
1164.432983
  20
1273.128784
  0
POINT
  8
3
  10
1161.602661
  20
1272.924805
  0
POINT
  8
3
  10
1157.269043
  20
1272.790039
  0
POINT
  8
3
  10
1728.076050
  20
1272.790405
  0
POINT
  8
3
  10
1723.742432
  20
1272.925049
  0
POINT
  8
3
  10
1720.912109
  20
1273.129150
  0
POINT
  8
3
  10
1718.562500
  20
1273.336914
  0
POINT
  8
3
  10
1716.162109
  20
1273.708252
  0
POINT
  8
3
  10
1713.796265
  20
1274.081909
  0
POINT
  8
3
  10
1711.587646
  20
1274.493042
  0
POINT
  8
3
  10
1709.239868
  20
1275.027344
  0
POINT
  8
3
  10
1694.000732
  20
1280.767456
  0
POINT
  8
3
  10
1691.867676
  20
1281.926514
  0
POINT
  8
3
  10
1685.967163
  20
1285.695923
  0
POINT
  8
3
  10
1674.333130
  20
1296.024536
  0
POINT
  8
3
  10
1664.074341
  20
1309.735107
  0
POINT
  8
3
  10
1662.695312
  20
1312.143555
  0
POINT
  8
3
  10
1659.430786
  20
1318.779297
  0
POINT
  8
3
  10
1657.404053
  20
1323.540405
  0
POINT
  8
3
  10
1656.094971
  20
1326.473145
  0
POINT
  8
3
  10
1654.699585
  20
1329.431152
  0
POINT
  8
3
  10
1653.255737
  20
1332.357788
  0
POINT
  8
3
  10
1649.309326
  20
1340.143921
  0
POINT
  8
3
  10
1644.899414
  20
1349.064575
  0
POINT
  8
3
  10
1641.472168
  20
1356.061401
  0
POINT
  8
3
  10
1639.766235
  20
1359.514526
  0
POINT
  8
3
  10
1631.190796
  20
1376.527832
  0
POINT
  8
3
  10
1622.283569
  20
1393.758667
  0
POINT
  8
3
  10
1613.125854
  20
1408.844971
  0
POINT
  8
3
  10
1603.581421
  20
1423.702759
  0
POINT
  8
3
  10
1593.678955
  20
1438.295898
  0
POINT
  8
3
  10
1571.235840
  20
1468.182861
  0
POINT
  8
3
  10
1560.156372
  20
1480.835938
  0
POINT
  8
3
  10
1556.022827
  20
1485.239136
  0
POINT
  8
3
  10
1551.734863
  20
1489.626221
  0
POINT
  8
3
  10
1546.499146
  20
1494.986938
  0
POINT
  8
3
  10
1541.755371
  20
1499.820068
  0
POINT
  8
3
  10
1536.820801
  20
1504.832520
  0
POINT
  8
3
  10
1529.814697
  20
1511.830811
  0
POINT
  8
3
  10
1504.534302
  20
1530.671143
  0
POINT
  8
3
  10
1503.932129
  20
1530.470947
  0
POINT
  8
3
  10
1503.331909
  20
1530.294678
  0
POINT
  8
3
  10
1499.979980
  20
1529.310913
  0
POINT
  8
3
  10
1496.311890
  20
1528.452759
  0
POINT
  8
3
  10
1493.262329
  20
1527.795898
  0
POINT
  8
3
  10
1488.176514
  20
1526.852173
  0
POINT
  8
3
  10
1483.128052
  20
1526.135986
  0
POINT
  8
3
  10
1479.872925
  20
1525.773438
  0
POINT
  8
3
  10
1476.629883
  20
1525.494385
  0
POINT
  8
3
  10
1473.327637
  20
1525.295288
  0
POINT
  8
3
  10
1467.944336
  20
1524.754883
  0
POINT
  8
3
  10
1462.544556
  20
1524.308228
  0
POINT
  8
3
  10
1449.468384
  20
1523.677246
  0
POINT
  8
4
  10
1389.032715
  20
1528.452637
  30
7.000000
  39
0.000000
  50
257.850525
  0
POINT
  8
4
  10
1227.941040
  20
1323.540161
  30
7.000000
  39
0.000000
  50
335.340149
  0
POINT
  8
4
  10
1657.404053
  20
1323.540405
  30
7.000000
  39
0.000000
  50
203.062668
  0
POINT
  8
4
  10
1496.311890
  20
1528.452759
  30
7.000000
  39
0.000000
  50
283.166046
  0
TEXT
  8
1
  10
1150.171265
  20
1252.295044
  50
270.000000
  51
0.000000
  71
0.000000
  1
N
  7
STANDARD
  0
TEXT
  8
1
  10
1735.174316
  20
1252.296021
  50
270.000000
  51
0.000000
  71
0.000000
  1
N
  7
STANDARD
  0
LINE
  8
7
  10
1442.672485
  20
1075.376465
  11
1442.672485
  21
1255.376465
  0
POLYLINE
  8
8
  66
1
  70
0
  250
1
  0
VERTEX
  8
8
  10
1150.185791
  20
848.681152
  0
VERTEX
  8
8
  10
1442.672607
  20
848.681152
  0
SEQEND
  0
TEXT
  8
8
  10
1150.185791
  20
848.681152
  40
0.250000
  50
0.000000
  1
# 27
  7
STANDARD
  0
TEXT
  8
8
  10
1442.672607
  20
848.681152
  40
0.250000
  50
0.000000
  1
# 28
  7
STANDARD
  0
POLYLINE
  8
85
  66
1
  70
0
  250
1
  0
VERTEX
  8
85
  10
1150.185791
  20
848.681152
  0
VERTEX
  8
85
  10
1442.672607
  20
848.681152
  0
SEQEND
  0
POINT
  8
2
  10
1150.185791
  20
848.681152
  0
POINT
  8
2
  10
1442.672607
  20
848.681152
  0
POLYLINE
  8
8
  66
1
  70
0
  250
1
  0
VERTEX
  8
8
  10
1735.159790
  20
848.681519
  0
VERTEX
  8
8
  10
1442.672974
  20
848.681152
  0
SEQEND
  0
TEXT
  8
8
  10
1735.159790
  20
848.681519
  40
0.250000
  50
0.000000
  1
# 25
  7
STANDARD
  0
TEXT
  8
8
  10
1442.672974
  20
848.681152
  40
0.250000
  50
0.000000
  1
# 26
  7
STANDARD
  0
POLYLINE
  8
85
  66
1
  70
0
  250
1
  0
VERTEX
  8
85
  10
1735.159790
  20
848.681519
  0
VERTEX
  8
85
  10
1442.672974
  20
848.681152
  0
SEQEND
  0
POINT
  8
2
  10
1735.159790
  20
848.681519
  0
POINT
  8
2
  10
1442.672974
  20
848.681152
  0
POLYLINE
  8
8
  66
1
  70
0
  250
1
  0
VERTEX
  8
8
  10
1150.171143
  20
823.681152
  0
VERTEX
  8
8
  10
1442.672607
  20
823.681152
  0
SEQEND
  0
TEXT
  8
8
  10
1150.171143
  20
823.681152
  40
0.250000
  50
0.000000
  1
# 23
  7
STANDARD
  0
TEXT
  8
8
  10
1442.672607
  20
823.681152
  40
0.250000
  50
0.000000
  1
# 24
  7
STANDARD
  0
POLYLINE
  8
85
  66
1
  70
0
  250
1
  0
VERTEX
  8
85
  10
1150.171143
  20
823.681152
  0
VERTEX
  8
85
  10
1442.672607
  20
823.681152
  0
SEQEND
  0
POINT
  8
2
  10
1150.171143
  20
823.681152
  0
POINT
  8
2
  10
1442.672607
  20
823.681152
  0
POLYLINE
  8
8
  66
1
  70
0
  250
1
  0
VERTEX
  8
8
  10
1735.174561
  20
823.681519
  0
VERTEX
  8
8
  10
1442.673096
  20
823.681152
  0
SEQEND
  0
TEXT
  8
8
  10
1735.174561
  20
823.681519
  40
0.250000
  50
0.000000
  1
# 21
  7
STANDARD
  0
TEXT
  8
8
  10
1442.673096
  20
823.681152
  40
0.250000
  50
0.000000
  1
# 22
  7
STANDARD
  0
POLYLINE
  8
85
  66
1
  70
0
  250
1
  0
VERTEX
  8
85
  10
1735.174561
  20
823.681519
  0
VERTEX
  8
85
  10
1442.673096
  20
823.681152
  0
SEQEND
  0
POINT
  8
2
  10
1735.174561
  20
823.681519
  0
POINT
  8
2
  10
1442.673096
  20
823.681152
  0
POLYLINE
  8
8
  66
1
  70
0
  250
1
  0
VERTEX
  8
8
  10
1442.236694
  20
824.086609
  0
VERTEX
  8
8
  10
1443.108521
  20
823.275757
  0
SEQEND
  0
TEXT
  8
8
  10
1442.236694
  20
824.086609
  40
0.250000
  50
0.000000
  1
# 19
  7
STANDARD
  0
TEXT
  8
8
  10
1443.108521
  20
823.275757
  40
0.250000
  50
0.000000
  1
# 20
  7
STANDARD
  0
POLYLINE
  8
85
  66
1
  70
0
  250
1
  0
VERTEX
  8
85
  10
1442.236694
  20
824.086609
  0
VERTEX
  8
85
  10
1443.108521
  20
823.275757
  0
SEQEND
  0
POINT
  8
2
  10
1442.236694
  20
824.086609
  0
POINT
  8
2
  10
1443.108521
  20
823.275757
  0
POLYLINE
  8
8
  66
1
  70
0
  250
1
  0
VERTEX
  8
8
  10
1443.109009
  20
824.086609
  0
VERTEX
  8
8
  10
1442.237183
  20
823.275757
  0
SEQEND
  0
TEXT
  8
8
  10
1443.109009
  20
824.086609
  40
0.250000
  50
0.000000
  1
# 17
  7
STANDARD
  0
TEXT
  8
8
  10
1442.237183
  20
823.275757
  40
0.250000
  50
0.000000
  1
# 18
  7
STANDARD
  0
POLYLINE
  8
85
  66
1
  70
0
  250
1
  0
VERTEX
  8
85
  10
1443.109009
  20
824.086609
  0
VERTEX
  8
85
  10
1442.237183
  20
823.275757
  0
SEQEND
  0
POINT
  8
2
  10
1443.109009
  20
824.086609
  0
POINT
  8
2
  10
1442.237183
  20
823.275757
  0
POLYLINE
  8
8
  66
1
  70
0
  250
1
  0
VERTEX
  8
8
  10
1442.672363
  20
1513.438232
  0
VERTEX
  8
8
  10
1428.852417
  20
1513.912231
  0
VERTEX
  8
8
  10
1420.362793
  20
1514.458984
  0
VERTEX
  8
8
  10
1411.895020
  20
1515.271240
  0
VERTEX
  8
8
  10
1403.414551
  20
1515.932861
  0
VERTEX
  8
8
  10
1394.985352
  20
1517.075073
  0
VERTEX
  8
8
  10
1386.643311
  20
1518.738525
  0
VERTEX
  8
8
  10
1378.425781
  20
1520.925659
  0
VERTEX
  8
8
  10
1377.653809
  20
1521.182373
  0
VERTEX
  8
8
  10
1368.387329
  20
1524.264771
  0
SEQEND
  0
TEXT
  8
8
  10
1442.672363
  20
1513.438232
  40
0.250000
  50
0.000000
  1
# 15
  7
STANDARD
  0
TEXT
  8
8
  10
1368.387329
  20
1524.264771
  40
0.250000
  50
0.000000
  1
# 16
  7
STANDARD
  0
POLYLINE
  8
85
  66
1
  70
0
  250
1
  0
VERTEX
  8
85
  10
1442.672363
  20
1513.438232
  0
VERTEX
  8
85
  10
1428.852417
  20
1513.912231
  0
VERTEX
  8
85
  10
1420.362793
  20
1514.458984
  0
VERTEX
  8
85
  10
1411.895020
  20
1515.271240
  0
VERTEX
  8
85
  10
1403.414551
  20
1515.932861
  0
VERTEX
  8
85
  10
1399.189819
  20
1516.426758
  0
VERTEX
  8
85
  10
1394.985352
  20
1517.075073
  0
VERTEX
  8
85
  10
1386.643311
  20
1518.738525
  0
VERTEX
  8
85
  10
1382.506958
  20
1519.734863
  0
VERTEX
  8
85
  10
1378.425781
  20
1520.925659
  0
VERTEX
  8
85
  10
1377.653809
  20
1521.182373
  0
VERTEX
  8
85
  10
1368.387329
  20
1524.264771
  0
SEQEND
  0
POINT
  8
2
  10
1442.672363
  20
1513.438232
  0
POINT
  8
2
  10
1368.387329
  20
1524.264771
  0
POINT
  8
3
  10
1428.852417
  20
1513.912231
  0
POINT
  8
3
  10
1420.362793
  20
1514.458984
  0
POINT
  8
3
  10
1411.895020
  20
1515.271240
  0
POINT
  8
3
  10
1403.414551
  20
1515.932861
  0
POINT
  8
3
  10
1394.985352
  20
1517.075073
  0
POINT
  8
3
  10
1386.643311
  20
1518.738525
  0
POINT
  8
3
  10
1378.425781
  20
1520.925659
  0
POINT
  8
3
  10
1377.653809
  20
1521.182373
  0
POLYLINE
  8
8
  66
1
  70
0
  250
1
  0
VERTEX
  8
8
  10
1442.672485
  20
1513.438232
  0
VERTEX
  8
8
  10
1456.492432
  20
1513.912231
  0
VERTEX
  8
8
  10
1464.982056
  20
1514.458984
  0
VERTEX
  8
8
  10
1473.449707
  20
1515.271240
  0
VERTEX
  8
8
  10
1481.930176
  20
1515.932861
  0
VERTEX
  8
8
  10
1490.359375
  20
1517.075195
  0
VERTEX
  8
8
  10
1498.701416
  20
1518.738525
  0
VERTEX
  8
8
  10
1506.918945
  20
1520.925781
  0
VERTEX
  8
8
  10
1507.690918
  20
1521.182495
  0
VERTEX
  8
8
  10
1516.957397
  20
1524.264893
  0
SEQEND
  0
TEXT
  8
8
  10
1442.672485
  20
1513.438232
  40
0.250000
  50
0.000000
  1
# 13
  7
STANDARD
  0
TEXT
  8
8
  10
1516.957397
  20
1524.264893
  40
0.250000
  50
0.000000
  1
# 14
  7
STANDARD
  0
POLYLINE
  8
85
  66
1
  70
0
  250
1
  0
VERTEX
  8
85
  10
1442.672485
  20
1513.438232
  0
VERTEX
  8
85
  10
1456.492432
  20
1513.912231
  0
VERTEX
  8
85
  10
1464.982056
  20
1514.458984
  0
VERTEX
  8
85
  10
1473.449707
  20
1515.271240
  0
VERTEX
  8
85
  10
1481.930176
  20
1515.932861
  0
VERTEX
  8
85
  10
1486.154907
  20
1516.426758
  0
VERTEX
  8
85
  10
1490.359375
  20
1517.075195
  0
VERTEX
  8
85
  10
1498.701416
  20
1518.738525
  0
VERTEX
  8
85
  10
1502.837769
  20
1519.734863
  0
VERTEX
  8
85
  10
1506.918945
  20
1520.925781
  0
VERTEX
  8
85
  10
1507.690918
  20
1521.182495
  0
VERTEX
  8
85
  10
1516.957397
  20
1524.264893
  0
SEQEND
  0
POINT
  8
2
  10
1442.672485
  20
1513.438232
  0
POINT
  8
2
  10
1516.957397
  20
1524.264893
  0
POINT
  8
3
  10
1456.492432
  20
1513.912231
  0
POINT
  8
3
  10
1464.982056
  20
1514.458984
  0
POINT
  8
3
  10
1473.449707
  20
1515.271240
  0
POINT
  8
3
  10
1481.930176
  20
1515.932861
  0
POINT
  8
3
  10
1490.359375
  20
1517.075195
  0
POINT
  8
3
  10
1498.701416
  20
1518.738525
  0
POINT
  8
3
  10
1506.918945
  20
1520.925781
  0
POINT
  8
3
  10
1507.690918
  20
1521.182495
  0
POLYLINE
  8
8
  66
1
  70
0
  250
0
  0
VERTEX
  8
8
  10
1150.171143
  20
1252.295898
  0
VERTEX
  8
8
  10
1442.672607
  20
1252.296021
  0
SEQEND
  0
TEXT
  8
8
  10
1150.171143
  20
1252.295898
  40
0.250000
  50
0.000000
  1
# 11
  7
STANDARD
  0
TEXT
  8
8
  10
1442.672607
  20
1252.296021
  40
0.250000
  50
0.000000
  1
# 12
  7
STANDARD
  0
POLYLINE
  8
85
  66
1
  70
0
  250
1
  0
VERTEX
  8
85
  10
1150.171143
  20
1252.295898
  0
VERTEX
  8
85
  10
1442.672607
  20
1252.296021
  0
SEQEND
  0
POINT
  8
2
  10
1150.171143
  20
1252.295898
  0
POINT
  8
2
  10
1442.672607
  20
1252.296021
  0
POLYLINE
  8
8
  66
1
  70
0
  250
0
  0
VERTEX
  8
8
  10
1442.672607
  20
823.681152
  0
VERTEX
  8
8
  10
1442.672363
  20
1523.677246
  0
SEQEND
  0
TEXT
  8
8
  10
1442.672607
  20
823.681152
  40
0.250000
  50
0.000000
  1
# 9
  7
STANDARD
  0
TEXT
  8
8
  10
1442.672363
  20
1523.677246
  40
0.250000
  50
0.000000
  1
# 10
  7
STANDARD
  0
POLYLINE
  8
85
  66
1
  70
0
  250
1
  0
VERTEX
  8
85
  10
1442.672607
  20
823.681152
  0
VERTEX
  8
85
  10
1442.672363
  20
1523.677246
  0
SEQEND
  0
POINT
  8
2
  10
1442.672607
  20
823.681152
  0
POINT
  8
2
  10
1442.672363
  20
1523.677246
  0
POLYLINE
  8
8
  66
1
  70
0
  250
0
  0
VERTEX
  8
8
  10
1735.173584
  20
1252.295898
  0
VERTEX
  8
8
  10
1442.672119
  20
1252.296021
  0
SEQEND
  0
TEXT
  8
8
  10
1735.173584
  20
1252.295898
  40
0.250000
  50
0.000000
  1
# 7
  7
STANDARD
  0
TEXT
  8
8
  10
1442.672119
  20
1252.296021
  40
0.250000
  50
0.000000
  1
# 8
  7
STANDARD
  0
POLYLINE
  8
85
  66
1
  70
0
  250
1
  0
VERTEX
  8
85
  10
1735.173584
  20
1252.295898
  0
VERTEX
  8
85
  10
1442.672119
  20
1252.296021
  0
SEQEND
  0
POINT
  8
2
  10
1735.173584
  20
1252.295898
  0
POINT
  8
2
  10
1442.672119
  20
1252.296021
  0
POLYLINE
  8
8
  66
1
  70
0
  250
0
  0
VERTEX
  8
8
  10
1442.672119
  20
823.681152
  0
VERTEX
  8
8
  10
1442.672363
  20
1523.677246
  0
SEQEND
  0
TEXT
  8
8
  10
1442.672119
  20
823.681152
  40
0.250000
  50
0.000000
  1
# 5
  7
STANDARD
  0
TEXT
  8
8
  10
1442.672363
  20
1523.677246
  40
0.250000
  50
0.000000
  1
# 6
  7
STANDARD
  0
POLYLINE
  8
85
  66
1
  70
0
  250
1
  0
VERTEX
  8
85
  10
1442.672119
  20
823.681152
  0
VERTEX
  8
85
  10
1442.672363
  20
1523.677246
  0
SEQEND
  0
POINT
  8
2
  10
1442.672119
  20
823.681152
  0
POINT
  8
2
  10
1442.672363
  20
1523.677246
  0
POLYLINE
  8
8
  66
1
  70
0
  250
0
  0
VERTEX
  8
8
  10
1150.171143
  20
823.681152
  0
VERTEX
  8
8
  10
1442.672607
  20
823.681152
  0
SEQEND
  0
TEXT
  8
8
  10
1150.171143
  20
823.681152
  40
0.250000
  50
0.000000
  1
# 3
  7
STANDARD
  0
TEXT
  8
8
  10
1442.672607
  20
823.681152
  40
0.250000
  50
0.000000
  1
# 4
  7
STANDARD
  0
POLYLINE
  8
85
  66
1
  70
0
  250
1
  0
VERTEX
  8
85
  10
1150.171143
  20
823.681152
  0
VERTEX
  8
85
  10
1442.672607
  20
823.681152
  0
SEQEND
  0
POINT
  8
2
  10
1150.171143
  20
823.681152
  0
POINT
  8
2
  10
1442.672607
  20
823.681152
  0
POLYLINE
  8
8
  66
1
  70
0
  250
0
  0
VERTEX
  8
8
  10
1735.174561
  20
823.681519
  0
VERTEX
  8
8
  10
1442.673096
  20
823.681152
  0
SEQEND
  0
TEXT
  8
8
  10
1735.174561
  20
823.681519
  40
0.250000
  50
0.000000
  1
# 1
  7
STANDARD
  0
TEXT
  8
8
  10
1442.673096
  20
823.681152
  40
0.250000
  50
0.000000
  1
# 2
  7
STANDARD
  0
POLYLINE
  8
85
  66
1
  70
0
  250
1
  0
VERTEX
  8
85
  10
1735.174561
  20
823.681519
  0
VERTEX
  8
85
  10
1442.673096
  20
823.681152
  0
SEQEND
  0
POINT
  8
2
  10
1735.174561
  20
823.681519
  0
POINT
  8
2
  10
1442.673096
  20
823.681152
  0
TEXT
  8
1
  10
1442.672485
  20
1165.376465
  50
0.000000
  51
0.000000
  71
0.000000
  1
PIECE NAME: L-AMX1408F22-BK_selffabric_1
  7
STANDARD
  0
TEXT
  8
1
  10
1442.672485
  20
1160.376465
  50
0.000000
  51
0.000000
  71
0.000000
  1
SIZE: A36
  7
STANDARD
  0
TEXT
  8
1
  10
1442.672485
  20
1155.376465
  50
0.000000
  51
0.000000
  71
0.000000
  1
ANNOTATION:  1X FABRIC
  7
STANDARD
  0
TEXT
  8
1
  10
1442.672485
  20
1150.376465
  50
0.000000
  51
0.000000
  71
0.000000
  1
QUANTITY: 1
  7
STANDARD
  0
ENDBLK
  0
ENDSEC
  0
SECTION
  2
ENTITIES
  0
INSERT
  8
1
  2
AMX1CO-COF22_selffabri_A36
  10
0.000000
  20
0.000000
  0
INSERT
  8
1
  2
L-AMX1408F22-SL_selffabric_3_A36
  10
0.000000
  20
0.000000
  0
INSERT
  8
1
  2
L-AMX1408F22-SL_selffabric_1_A36
  10
0.000000
  20
0.000000
  0
INSERT
  8
1
  2
Pattern2D_150997_A36
  10
0.000000
  20
0.000000
  0
INSERT
  8
1
  2
L-AMX1408F22-FR_selffabric_1_A36
  10
0.000000
  20
0.000000
  0
INSERT
  8
1
  2
L-AMX1408F22-BK_selffabric_1_A36
  10
0.000000
  20
0.000000
  0
TEXT
  8
1
  10
0.000000
  20
0.000000
  40
0.250000
  50
0.000000
  1
STYLE NAME: A232F4ORU001
  7
STANDARD
  0
TEXT
  8
1
  10
0.000000
  20
0.000000
  40
0.250000
  50
0.000000
  1
CREATION DATE: 03-01-2026
  7
STANDARD
  0
TEXT
  8
1
  10
0.000000
  20
0.000000
  40
0.250000
  50
0.000000
  1
CREATION TIME: 09:54
  7
STANDARD
  0
TEXT
  8
1
  10
0.000000
  20
0.000000
  40
0.250000
  50
0.000000
  1
AUTHOR: CLO Virtual Fashion Inc.
  7
STANDARD
  0
TEXT
  8
1
  10
0.000000
  20
0.000000
  40
0.250000
  50
0.000000
  1
PRODUCT: CLO Standalone OnlineAuth 2025.0.356
  7
STANDARD
  0
TEXT
  8
1
  10
0.000000
  20
0.000000
  40
0.250000
  50
0.000000
  1
VERSION: 3
  7
STANDARD
  0
TEXT
  8
1
  10
0.000000
  20
0.000000
  40
0.250000
  50
0.000000
  1
SAMPLE SIZE: A36
  7
STANDARD
  0
TEXT
  8
1
  10
0.000000
  20
0.000000
  40
0.250000
  50
0.000000
  1
Grade Rule Table: EV_1
  7
STANDARD
  0
TEXT
  8
1
  10
0.000000
  20
0.000000
  40
0.250000
  50
0.000000
  1
UNITS: METRIC
  7
STANDARD
  0
ENDSEC
  0
EOF
