  0
SECTION
  2
HEADER
  9
$ACADVER
  1
AC1006
  9
$INSBASE
  10
0.000000
  20
0.000000
  30
0.000000
  9
$EXTMIN
  10
0.000000
  20
0.000000
  9
$EXTMAX
  10
1000.000000
  20
1000.000000
  0
ENDSEC
  0
SECTION
  2
BLOCKS
  0
BLOCK
  8
0
  2
Pattern2D_4937_M
  70
64
  10
0
  20
0
  0
TEXT
  8
1
  10
58.995380
  20
39.467518
  50
0.000000
  51
0.000000
  71
0.000000
  1
PIECE NAME: Pattern2D_4937
  7
STANDARD
  0
TEXT
  8
1
  10
58.995380
  20
34.467518
  50
0.000000
  51
0.000000
  71
0.000000
  1
SIZE: M
  7
STANDARD
  0
TEXT
  8
1
  10
58.995380
  20
24.467518
  50
0.000000
  51
0.000000
  71
0.000000
  1
QUANTITY: 1
  7
STANDARD
  0
POLYLINE
  8
1
  66
1
  70
1
  250
2
  0
VERTEX
  8
1
  10
-0.107964
  20
0.143950
  0
VERTEX
  8
1
  10
-0.010946
  20
78.883690
  0
VERTEX
  8
1
  10
118.098724
  20
78.791443
  0
VERTEX
  8
1
  10
118.002213
  20
0.051346
  0
SEQEND
  0
POINT
  8
2
  10
-0.107964
  20
0.143950
  0
POINT
  8
2
  10
-0.010946
  20
78.883690
  0
POINT
  8
2
  10
118.098724
  20
78.791443
  0
POINT
  8
2
  10
118.002213
  20
0.051346
  0
LINE
  8
7
  10
58.995380
  20
35.924213
  11
58.995380
  21
43.010826
  0
POLYLINE
  8
84
  66
1
  70
1
  250
2
  0
VERTEX
  8
84
  10
-0.107964
  20
0.143950
  0
VERTEX
  8
84
  10
-0.010946
  20
78.883690
  0
VERTEX
  8
84
  10
118.098724
  20
78.791443
  0
VERTEX
  8
84
  10
118.002213
  20
0.051346
  0
SEQEND
  0
POINT
  8
2
  10
-0.107964
  20
0.143950
  0
POINT
  8
2
  10
-0.010946
  20
78.883690
  0
POINT
  8
2
  10
118.098724
  20
78.791443
  0
POINT
  8
2
  10
118.002213
  20
0.051346
  0
ENDBLK
  0
ENDSEC
  0
SECTION
  2
ENTITIES
  0
INSERT
  8
1
  2
Pattern2D_4937_M
  10
0.000000
  20
0.000000
  0
TEXT
  8
1
  10
0.000000
  20
0.000000
  40
0.250000
  50
0.000000
  1
STYLE NAME: clo-box
  7
STANDARD
  0
TEXT
  8
1
  10
0.000000
  20
0.000000
  40
0.250000
  50
0.000000
  1
CREATION DATE: 23-04-2018
  7
STANDARD
  0
TEXT
  8
1
  10
0.000000
  20
0.000000
  40
0.250000
  50
0.000000
  1
CREATION TIME: 07:52
  7
STANDARD
  0
TEXT
  8
1
  10
0.000000
  20
0.000000
  40
0.250000
  50
0.000000
  1
AUTHOR: CLO Virtual Fashion Inc.
  7
STANDARD
  0
TEXT
  8
1
  10
0.000000
  20
0.000000
  40
0.250000
  50
0.000000
  1
PRODUCT: CLO Standalone OnlineAuth 4.0.129
  7
STANDARD
  0
TEXT
  8
1
  10
0.000000
  20
0.000000
  40
0.250000
  50
0.000000
  1
VERSION: 3
  7
STANDARD
  0
TEXT
  8
1
  10
0.000000
  20
0.000000
  40
0.250000
  50
0.000000
  1
SAMPLE SIZE: M
  7
STANDARD
  0
TEXT
  8
1
  10
0.000000
  20
0.000000
  40
0.250000
  50
0.000000
  1
UNITS: ENGLISH
  7
STANDARD
  0
ENDSEC
  0
EOF
