  0
SECTION
  2
HEADER
  9
$ACADVER
  1
AC1006
  9
$INSBASE
  10
0.000000
  20
0.000000
  30
0.000000
  9
$EXTMIN
  10
0.000000
  20
0.000000
  9
$EXTMAX
  10
1000.000000
  20
1000.000000
  0
ENDSEC
  0
SECTION
  2
BLOCKS
  0
BLOCK
  8
0
  2
11_M
  70
64
  10
0
  20
0
  0
TEXT
  8
1
  10
19.214817
  20
124.461624
  50
0.000000
  51
0.000000
  71
0.000000
  1
PIECE NAME: 11
  7
STANDARD
  0
TEXT
  8
1
  10
19.214817
  20
119.461624
  50
0.000000
  51
0.000000
  71
0.000000
  1
SIZE: M
  7
STANDARD
  0
TEXT
  8
1
  10
19.214817
  20
114.461624
  50
0.000000
  51
0.000000
  71
0.000000
  1
ANNOTATION: 
  7
STANDARD
  0
TEXT
  8
1
  10
19.214817
  20
109.461624
  50
0.000000
  51
0.000000
  71
0.000000
  1
QUANTITY: 1
  7
STANDARD
  0
POLYLINE
  8
1
  66
1
  70
1
  250
2
  0
VERTEX
  8
1
  10
6.423497
  20
89.301880
  0
VERTEX
  8
1
  10
6.425088
  20
146.243713
  0
VERTEX
  8
1
  10
7.036715
  20
146.576309
  0
VERTEX
  8
1
  10
7.621705
  20
146.922653
  0
VERTEX
  8
1
  10
8.180782
  20
147.282227
  0
VERTEX
  8
1
  10
8.714665
  20
147.654541
  0
VERTEX
  8
1
  10
9.224072
  20
148.039093
  0
VERTEX
  8
1
  10
9.709720
  20
148.435364
  0
VERTEX
  8
1
  10
10.172334
  20
148.842850
  0
VERTEX
  8
1
  10
10.612630
  20
149.261047
  0
VERTEX
  8
1
  10
11.031327
  20
149.689468
  0
VERTEX
  8
1
  10
11.429150
  20
150.127563
  0
VERTEX
  8
1
  10
11.806812
  20
150.574875
  0
VERTEX
  8
1
  10
12.165037
  20
151.030869
  0
VERTEX
  8
1
  10
12.504542
  20
151.495056
  0
VERTEX
  8
1
  10
12.826050
  20
151.966904
  0
VERTEX
  8
1
  10
13.130276
  20
152.445938
  0
VERTEX
  8
1
  10
13.417942
  20
152.931641
  0
VERTEX
  8
1
  10
13.689770
  20
153.423492
  0
VERTEX
  8
1
  10
13.946474
  20
153.921021
  0
VERTEX
  8
1
  10
14.188779
  20
154.423691
  0
VERTEX
  8
1
  10
14.417402
  20
154.931000
  0
VERTEX
  8
1
  10
14.633062
  20
155.442459
  0
VERTEX
  8
1
  10
14.836480
  20
155.957550
  0
VERTEX
  8
1
  10
15.028376
  20
156.475769
  0
VERTEX
  8
1
  10
15.209468
  20
156.996613
  0
VERTEX
  8
1
  10
15.380476
  20
157.519562
  0
VERTEX
  8
1
  10
15.542121
  20
158.044144
  0
VERTEX
  8
1
  10
15.695122
  20
158.569824
  0
VERTEX
  8
1
  10
15.840198
  20
159.096100
  0
VERTEX
  8
1
  10
15.978067
  20
159.622467
  0
VERTEX
  8
1
  10
16.603636
  20
159.406586
  0
VERTEX
  8
1
  10
17.223495
  20
159.195343
  0
VERTEX
  8
1
  10
17.837488
  20
158.988358
  0
VERTEX
  8
1
  10
18.445454
  20
158.785278
  0
VERTEX
  8
1
  10
19.047234
  20
158.585724
  0
VERTEX
  8
1
  10
19.642668
  20
158.389374
  0
VERTEX
  8
1
  10
20.231598
  20
158.195831
  0
VERTEX
  8
1
  10
20.813864
  20
158.004730
  0
VERTEX
  8
1
  10
21.389307
  20
157.815720
  0
VERTEX
  8
1
  10
21.957767
  20
157.628448
  0
VERTEX
  8
1
  10
22.519085
  20
157.442535
  0
VERTEX
  8
1
  10
23.073103
  20
157.257629
  0
VERTEX
  8
1
  10
23.619661
  20
157.073364
  0
VERTEX
  8
1
  10
24.158598
  20
156.889374
  0
VERTEX
  8
1
  10
24.689756
  20
156.705322
  0
VERTEX
  8
1
  10
25.212978
  20
156.520798
  0
VERTEX
  8
1
  10
25.728102
  20
156.335480
  0
VERTEX
  8
1
  10
26.234968
  20
156.148987
  0
VERTEX
  8
1
  10
26.733419
  20
155.960968
  0
VERTEX
  8
1
  10
27.223293
  20
155.771042
  0
VERTEX
  8
1
  10
27.704435
  20
155.578873
  0
VERTEX
  8
1
  10
28.176682
  20
155.384079
  0
VERTEX
  8
1
  10
28.639877
  20
155.186295
  0
VERTEX
  8
1
  10
29.093859
  20
154.985168
  0
VERTEX
  8
1
  10
29.538469
  20
154.780350
  0
VERTEX
  8
1
  10
29.973549
  20
154.571442
  0
VERTEX
  8
1
  10
30.398937
  20
154.358124
  0
VERTEX
  8
1
  10
30.814476
  20
154.139999
  0
VERTEX
  8
1
  10
31.220007
  20
153.916718
  0
VERTEX
  8
1
  10
31.124657
  20
153.702728
  0
VERTEX
  8
1
  10
31.024918
  20
153.472931
  0
VERTEX
  8
1
  10
30.921122
  20
153.227875
  0
VERTEX
  8
1
  10
30.813622
  20
152.968170
  0
VERTEX
  8
1
  10
30.702755
  20
152.694397
  0
VERTEX
  8
1
  10
30.588879
  20
152.407166
  0
VERTEX
  8
1
  10
30.472324
  20
152.107025
  0
VERTEX
  8
1
  10
30.353449
  20
151.794586
  0
VERTEX
  8
1
  10
30.232594
  20
151.470444
  0
VERTEX
  8
1
  10
30.110102
  20
151.135162
  0
VERTEX
  8
1
  10
29.986319
  20
150.789337
  0
VERTEX
  8
1
  10
29.861591
  20
150.433578
  0
VERTEX
  8
1
  10
29.736263
  20
150.068436
  0
VERTEX
  8
1
  10
29.610680
  20
149.694519
  0
VERTEX
  8
1
  10
29.485189
  20
149.312424
  0
VERTEX
  8
1
  10
29.360134
  20
148.922714
  0
VERTEX
  8
1
  10
29.235855
  20
148.526001
  0
VERTEX
  8
1
  10
29.112705
  20
148.122849
  0
VERTEX
  8
1
  10
28.991028
  20
147.713852
  0
VERTEX
  8
1
  10
28.871162
  20
147.299606
  0
VERTEX
  8
1
  10
28.753462
  20
146.880707
  0
VERTEX
  8
1
  10
28.638266
  20
146.457718
  0
VERTEX
  8
1
  10
28.525921
  20
146.031235
  0
VERTEX
  8
1
  10
28.416775
  20
145.601852
  0
VERTEX
  8
1
  10
28.311169
  20
145.170166
  0
VERTEX
  8
1
  10
28.209450
  20
144.736740
  0
VERTEX
  8
1
  10
28.111965
  20
144.302170
  0
VERTEX
  8
1
  10
28.019056
  20
143.867050
  0
VERTEX
  8
1
  10
27.931070
  20
143.431961
  0
VERTEX
  8
1
  10
27.855762
  20
142.966873
  0
VERTEX
  8
1
  10
27.793064
  20
142.512207
  0
VERTEX
  8
1
  10
27.743279
  20
142.067978
  0
VERTEX
  8
1
  10
27.706724
  20
141.634186
  0
VERTEX
  8
1
  10
27.683708
  20
141.210846
  0
VERTEX
  8
1
  10
27.674551
  20
140.797989
  0
VERTEX
  8
1
  10
27.679558
  20
140.395615
  0
VERTEX
  8
1
  10
27.699041
  20
140.003738
  0
VERTEX
  8
1
  10
27.733320
  20
139.622375
  0
VERTEX
  8
1
  10
27.782700
  20
139.251541
  0
VERTEX
  8
1
  10
27.847496
  20
138.891266
  0
VERTEX
  8
1
  10
27.928024
  20
138.541534
  0
VERTEX
  8
1
  10
28.024590
  20
138.202362
  0
VERTEX
  8
1
  10
28.137508
  20
137.873779
  0
VERTEX
  8
1
  10
28.267094
  20
137.555801
  0
VERTEX
  8
1
  10
28.413656
  20
137.248428
  0
VERTEX
  8
1
  10
28.577511
  20
136.951691
  0
VERTEX
  8
1
  10
28.758968
  20
136.665588
  0
VERTEX
  8
1
  10
28.958340
  20
136.390152
  0
VERTEX
  8
1
  10
29.175938
  20
136.125366
  0
VERTEX
  8
1
  10
29.412079
  20
135.871277
  0
VERTEX
  8
1
  10
29.667072
  20
135.627869
  0
VERTEX
  8
1
  10
29.941231
  20
135.395187
  0
VERTEX
  8
1
  10
30.234865
  20
135.173218
  0
VERTEX
  8
1
  10
30.548290
  20
134.961990
  0
VERTEX
  8
1
  10
30.881817
  20
134.761520
  0
VERTEX
  8
1
  10
31.235760
  20
134.571808
  0
VERTEX
  8
1
  10
31.610428
  20
134.392883
  0
VERTEX
  8
1
  10
32.006138
  20
134.224762
  0
VERTEX
  8
1
  10
31.966698
  20
133.741180
  0
VERTEX
  8
1
  10
31.927351
  20
133.222000
  0
VERTEX
  8
1
  10
31.888149
  20
132.669891
  0
VERTEX
  8
1
  10
31.849154
  20
132.087509
  0
VERTEX
  8
1
  10
31.810415
  20
131.477509
  0
VERTEX
  8
1
  10
31.771996
  20
130.842545
  0
VERTEX
  8
1
  10
31.733944
  20
130.185303
  0
VERTEX
  8
1
  10
31.696323
  20
129.508438
  0
VERTEX
  8
1
  10
31.659185
  20
128.814590
  0
VERTEX
  8
1
  10
31.622585
  20
128.106445
  0
VERTEX
  8
1
  10
31.586582
  20
127.386650
  0
VERTEX
  8
1
  10
31.551231
  20
126.657875
  0
VERTEX
  8
1
  10
31.516586
  20
125.922775
  0
VERTEX
  8
1
  10
31.482702
  20
125.184021
  0
VERTEX
  8
1
  10
31.449642
  20
124.444260
  0
VERTEX
  8
1
  10
31.417456
  20
123.706161
  0
VERTEX
  8
1
  10
31.386200
  20
122.972382
  0
VERTEX
  8
1
  10
31.355934
  20
122.245590
  0
VERTEX
  8
1
  10
31.326710
  20
121.528442
  0
VERTEX
  8
1
  10
31.298582
  20
120.823601
  0
VERTEX
  8
1
  10
31.271612
  20
120.133728
  0
VERTEX
  8
1
  10
31.245853
  20
119.461487
  0
VERTEX
  8
1
  10
31.221363
  20
118.809532
  0
VERTEX
  8
1
  10
31.198195
  20
118.180534
  0
VERTEX
  8
1
  10
31.176405
  20
117.577148
  0
VERTEX
  8
1
  10
31.156052
  20
117.002037
  0
VERTEX
  8
1
  10
31.137188
  20
116.457855
  0
VERTEX
  8
1
  10
31.119871
  20
115.947281
  0
VERTEX
  8
1
  10
31.104160
  20
115.472961
  0
VERTEX
  8
1
  10
31.515417
  20
89.300781
  0
SEQEND
  0
POINT
  8
2
  10
6.423497
  20
89.301880
  0
POINT
  8
2
  10
6.425088
  20
146.243713
  0
POINT
  8
2
  10
15.978067
  20
159.622467
  0
POINT
  8
2
  10
31.220007
  20
153.916718
  0
POINT
  8
2
  10
27.931070
  20
143.431961
  0
POINT
  8
2
  10
32.006138
  20
134.224762
  0
POINT
  8
2
  10
31.104160
  20
115.472961
  0
POINT
  8
2
  10
31.515417
  20
89.300781
  0
POINT
  8
3
  10
7.036715
  20
146.576309
  0
POINT
  8
3
  10
7.621705
  20
146.922653
  0
POINT
  8
3
  10
8.180782
  20
147.282227
  0
POINT
  8
3
  10
8.714665
  20
147.654541
  0
POINT
  8
3
  10
9.224072
  20
148.039093
  0
POINT
  8
3
  10
9.709720
  20
148.435364
  0
POINT
  8
3
  10
10.172334
  20
148.842850
  0
POINT
  8
3
  10
10.612630
  20
149.261047
  0
POINT
  8
3
  10
11.031327
  20
149.689468
  0
POINT
  8
3
  10
11.429150
  20
150.127563
  0
POINT
  8
3
  10
11.806812
  20
150.574875
  0
POINT
  8
3
  10
12.165037
  20
151.030869
  0
POINT
  8
3
  10
12.504542
  20
151.495056
  0
POINT
  8
3
  10
12.826050
  20
151.966904
  0
POINT
  8
3
  10
13.130276
  20
152.445938
  0
POINT
  8
3
  10
13.417942
  20
152.931641
  0
POINT
  8
3
  10
13.689770
  20
153.423492
  0
POINT
  8
3
  10
13.946474
  20
153.921021
  0
POINT
  8
3
  10
14.188779
  20
154.423691
  0
POINT
  8
3
  10
14.417402
  20
154.931000
  0
POINT
  8
3
  10
14.633062
  20
155.442459
  0
POINT
  8
3
  10
14.836480
  20
155.957550
  0
POINT
  8
3
  10
15.028376
  20
156.475769
  0
POINT
  8
3
  10
15.209468
  20
156.996613
  0
POINT
  8
3
  10
15.380476
  20
157.519562
  0
POINT
  8
3
  10
15.542121
  20
158.044144
  0
POINT
  8
3
  10
15.695122
  20
158.569824
  0
POINT
  8
3
  10
15.840198
  20
159.096100
  0
POINT
  8
3
  10
16.603636
  20
159.406586
  0
POINT
  8
3
  10
17.223495
  20
159.195343
  0
POINT
  8
3
  10
17.837488
  20
158.988358
  0
POINT
  8
3
  10
18.445454
  20
158.785278
  0
POINT
  8
3
  10
19.047234
  20
158.585724
  0
POINT
  8
3
  10
19.642668
  20
158.389374
  0
POINT
  8
3
  10
20.231598
  20
158.195831
  0
POINT
  8
3
  10
20.813864
  20
158.004730
  0
POINT
  8
3
  10
21.389307
  20
157.815720
  0
POINT
  8
3
  10
21.957767
  20
157.628448
  0
POINT
  8
3
  10
22.519085
  20
157.442535
  0
POINT
  8
3
  10
23.073103
  20
157.257629
  0
POINT
  8
3
  10
23.619661
  20
157.073364
  0
POINT
  8
3
  10
24.158598
  20
156.889374
  0
POINT
  8
3
  10
24.689756
  20
156.705322
  0
POINT
  8
3
  10
25.212978
  20
156.520798
  0
POINT
  8
3
  10
25.728102
  20
156.335480
  0
POINT
  8
3
  10
26.234968
  20
156.148987
  0
POINT
  8
3
  10
26.733419
  20
155.960968
  0
POINT
  8
3
  10
27.223293
  20
155.771042
  0
POINT
  8
3
  10
27.704435
  20
155.578873
  0
POINT
  8
3
  10
28.176682
  20
155.384079
  0
POINT
  8
3
  10
28.639877
  20
155.186295
  0
POINT
  8
3
  10
29.093859
  20
154.985168
  0
POINT
  8
3
  10
29.538469
  20
154.780350
  0
POINT
  8
3
  10
29.973549
  20
154.571442
  0
POINT
  8
3
  10
30.398937
  20
154.358124
  0
POINT
  8
3
  10
30.814476
  20
154.139999
  0
POINT
  8
3
  10
31.124657
  20
153.702728
  0
POINT
  8
3
  10
31.024918
  20
153.472931
  0
POINT
  8
3
  10
30.921122
  20
153.227875
  0
POINT
  8
3
  10
30.813622
  20
152.968170
  0
POINT
  8
3
  10
30.702755
  20
152.694397
  0
POINT
  8
3
  10
30.588879
  20
152.407166
  0
POINT
  8
3
  10
30.472324
  20
152.107025
  0
POINT
  8
3
  10
30.353449
  20
151.794586
  0
POINT
  8
3
  10
30.232594
  20
151.470444
  0
POINT
  8
3
  10
30.110102
  20
151.135162
  0
POINT
  8
3
  10
29.986319
  20
150.789337
  0
POINT
  8
3
  10
29.861591
  20
150.433578
  0
POINT
  8
3
  10
29.736263
  20
150.068436
  0
POINT
  8
3
  10
29.610680
  20
149.694519
  0
POINT
  8
3
  10
29.485189
  20
149.312424
  0
POINT
  8
3
  10
29.360134
  20
148.922714
  0
POINT
  8
3
  10
29.235855
  20
148.526001
  0
POINT
  8
3
  10
29.112705
  20
148.122849
  0
POINT
  8
3
  10
28.991028
  20
147.713852
  0
POINT
  8
3
  10
28.871162
  20
147.299606
  0
POINT
  8
3
  10
28.753462
  20
146.880707
  0
POINT
  8
3
  10
28.638266
  20
146.457718
  0
POINT
  8
3
  10
28.525921
  20
146.031235
  0
POINT
  8
3
  10
28.416775
  20
145.601852
  0
POINT
  8
3
  10
28.311169
  20
145.170166
  0
POINT
  8
3
  10
28.209450
  20
144.736740
  0
POINT
  8
3
  10
28.111965
  20
144.302170
  0
POINT
  8
3
  10
28.019056
  20
143.867050
  0
POINT
  8
3
  10
27.855762
  20
142.966873
  0
POINT
  8
3
  10
27.793064
  20
142.512207
  0
POINT
  8
3
  10
27.743279
  20
142.067978
  0
POINT
  8
3
  10
27.706724
  20
141.634186
  0
POINT
  8
3
  10
27.683708
  20
141.210846
  0
POINT
  8
3
  10
27.674551
  20
140.797989
  0
POINT
  8
3
  10
27.679558
  20
140.395615
  0
POINT
  8
3
  10
27.699041
  20
140.003738
  0
POINT
  8
3
  10
27.733320
  20
139.622375
  0
POINT
  8
3
  10
27.782700
  20
139.251541
  0
POINT
  8
3
  10
27.847496
  20
138.891266
  0
POINT
  8
3
  10
27.928024
  20
138.541534
  0
POINT
  8
3
  10
28.024590
  20
138.202362
  0
POINT
  8
3
  10
28.137508
  20
137.873779
  0
POINT
  8
3
  10
28.267094
  20
137.555801
  0
POINT
  8
3
  10
28.413656
  20
137.248428
  0
POINT
  8
3
  10
28.577511
  20
136.951691
  0
POINT
  8
3
  10
28.758968
  20
136.665588
  0
POINT
  8
3
  10
28.958340
  20
136.390152
  0
POINT
  8
3
  10
29.175938
  20
136.125366
  0
POINT
  8
3
  10
29.412079
  20
135.871277
  0
POINT
  8
3
  10
29.667072
  20
135.627869
  0
POINT
  8
3
  10
29.941231
  20
135.395187
  0
POINT
  8
3
  10
30.234865
  20
135.173218
  0
POINT
  8
3
  10
30.548290
  20
134.961990
  0
POINT
  8
3
  10
30.881817
  20
134.761520
  0
POINT
  8
3
  10
31.235760
  20
134.571808
  0
POINT
  8
3
  10
31.610428
  20
134.392883
  0
POINT
  8
3
  10
31.966698
  20
133.741180
  0
POINT
  8
3
  10
31.927351
  20
133.222000
  0
POINT
  8
3
  10
31.888149
  20
132.669891
  0
POINT
  8
3
  10
31.849154
  20
132.087509
  0
POINT
  8
3
  10
31.810415
  20
131.477509
  0
POINT
  8
3
  10
31.771996
  20
130.842545
  0
POINT
  8
3
  10
31.733944
  20
130.185303
  0
POINT
  8
3
  10
31.696323
  20
129.508438
  0
POINT
  8
3
  10
31.659185
  20
128.814590
  0
POINT
  8
3
  10
31.622585
  20
128.106445
  0
POINT
  8
3
  10
31.586582
  20
127.386650
  0
POINT
  8
3
  10
31.551231
  20
126.657875
  0
POINT
  8
3
  10
31.516586
  20
125.922775
  0
POINT
  8
3
  10
31.482702
  20
125.184021
  0
POINT
  8
3
  10
31.449642
  20
124.444260
  0
POINT
  8
3
  10
31.417456
  20
123.706161
  0
POINT
  8
3
  10
31.386200
  20
122.972382
  0
POINT
  8
3
  10
31.355934
  20
122.245590
  0
POINT
  8
3
  10
31.326710
  20
121.528442
  0
POINT
  8
3
  10
31.298582
  20
120.823601
  0
POINT
  8
3
  10
31.271612
  20
120.133728
  0
POINT
  8
3
  10
31.245853
  20
119.461487
  0
POINT
  8
3
  10
31.221363
  20
118.809532
  0
POINT
  8
3
  10
31.198195
  20
118.180534
  0
POINT
  8
3
  10
31.176405
  20
117.577148
  0
POINT
  8
3
  10
31.156052
  20
117.002037
  0
POINT
  8
3
  10
31.137188
  20
116.457855
  0
POINT
  8
3
  10
31.119871
  20
115.947281
  0
POINT
  8
4
  10
27.931070
  20
143.431961
  50
350.802490
  0
LINE
  8
7
  10
19.214817
  20
115.461624
  11
19.214817
  21
133.461624
  0
POLYLINE
  8
84
  66
1
  70
1
  250
2
  0
VERTEX
  8
84
  10
6.423497
  20
89.301880
  0
VERTEX
  8
84
  10
6.425088
  20
146.243713
  0
VERTEX
  8
84
  10
12.468529
  20
149.390747
  0
VERTEX
  8
84
  10
14.677826
  20
154.535355
  0
VERTEX
  8
84
  10
15.978067
  20
159.622467
  0
VERTEX
  8
84
  10
22.052303
  20
157.512131
  0
VERTEX
  8
84
  10
27.348766
  20
156.101151
  0
VERTEX
  8
84
  10
31.220007
  20
153.916718
  0
VERTEX
  8
84
  10
30.320683
  20
151.926590
  0
VERTEX
  8
84
  10
28.756699
  20
147.635742
  0
VERTEX
  8
84
  10
27.931070
  20
143.431961
  0
VERTEX
  8
84
  10
27.143202
  20
138.885864
  0
VERTEX
  8
84
  10
28.078259
  20
135.797806
  0
VERTEX
  8
84
  10
32.006138
  20
134.224762
  0
VERTEX
  8
84
  10
31.624630
  20
129.730789
  0
VERTEX
  8
84
  10
31.248119
  20
119.874229
  0
VERTEX
  8
84
  10
31.104160
  20
115.472961
  0
VERTEX
  8
84
  10
31.515417
  20
89.300781
  0
SEQEND
  0
POINT
  8
2
  10
6.423497
  20
89.301880
  0
POINT
  8
2
  10
6.425088
  20
146.243713
  0
POINT
  8
2
  10
15.978067
  20
159.622467
  0
POINT
  8
2
  10
31.220007
  20
153.916718
  0
POINT
  8
2
  10
27.931070
  20
143.431961
  0
POINT
  8
2
  10
32.006138
  20
134.224762
  0
POINT
  8
2
  10
31.104160
  20
115.472961
  0
POINT
  8
2
  10
31.515417
  20
89.300781
  0
POINT
  8
3
  10
12.468529
  20
149.390747
  0
POINT
  8
3
  10
14.677826
  20
154.535355
  0
POINT
  8
3
  10
22.052303
  20
157.512131
  0
POINT
  8
3
  10
27.348766
  20
156.101151
  0
POINT
  8
3
  10
30.320683
  20
151.926590
  0
POINT
  8
3
  10
28.756699
  20
147.635742
  0
POINT
  8
3
  10
27.143202
  20
138.885864
  0
POINT
  8
3
  10
28.078259
  20
135.797806
  0
POINT
  8
3
  10
31.624630
  20
129.730789
  0
POINT
  8
3
  10
31.248119
  20
119.874229
  0
POLYLINE
  8
8
  66
1
  70
0
  250
0
  0
VERTEX
  8
8
  10
6.424348
  20
115.473785
  0
VERTEX
  8
8
  10
31.104160
  20
115.473007
  0
SEQEND
  0
POINT
  8
2
  10
6.424348
  20
115.473785
  0
POLYLINE
  8
8
  66
1
  70
0
  250
0
  0
VERTEX
  8
8
  10
6.424538
  20
121.067322
  0
VERTEX
  8
8
  10
7.174538
  20
120.866356
  0
VERTEX
  8
8
  10
7.723548
  20
120.317322
  0
VERTEX
  8
8
  10
7.924538
  20
119.567322
  0
VERTEX
  8
8
  10
7.723548
  20
118.817322
  0
VERTEX
  8
8
  10
7.174538
  20
118.268280
  0
VERTEX
  8
8
  10
6.424538
  20
118.067322
  0
SEQEND
  0
POINT
  8
2
  10
6.424538
  20
121.067322
  0
POINT
  8
3
  10
7.174538
  20
120.866356
  0
POINT
  8
3
  10
7.723548
  20
120.317322
  0
POINT
  8
3
  10
7.924538
  20
119.567322
  0
POINT
  8
3
  10
7.723548
  20
118.817322
  0
POINT
  8
3
  10
7.174538
  20
118.268280
  0
POLYLINE
  8
8
  66
1
  70
0
  250
0
  0
VERTEX
  8
8
  10
6.437717
  20
134.225616
  0
VERTEX
  8
8
  10
32.006081
  20
134.224701
  0
SEQEND
  0
POINT
  8
2
  10
6.437717
  20
134.225616
  0
POLYLINE
  8
8
  66
1
  70
0
  250
0
  0
VERTEX
  8
8
  10
6.423617
  20
91.801880
  0
VERTEX
  8
8
  10
31.515539
  20
91.800751
  0
SEQEND
  0
POINT
  8
2
  10
6.423617
  20
91.801880
  0
POLYLINE
  8
8
  66
1
  70
0
  250
0
  0
VERTEX
  8
8
  10
6.423617
  20
91.201866
  0
VERTEX
  8
8
  10
31.515539
  20
91.200737
  0
SEQEND
  0
POINT
  8
2
  10
6.423617
  20
91.201866
  0
POLYLINE
  8
8
  66
1
  70
0
  250
0
  0
VERTEX
  8
8
  10
6.424538
  20
120.317322
  0
VERTEX
  8
8
  10
6.799538
  20
120.216827
  0
VERTEX
  8
8
  10
7.074067
  20
119.942322
  0
VERTEX
  8
8
  10
7.174538
  20
119.567322
  0
VERTEX
  8
8
  10
7.074067
  20
119.192322
  0
VERTEX
  8
8
  10
6.799538
  20
118.917816
  0
VERTEX
  8
8
  10
6.424538
  20
118.817322
  0
SEQEND
  0
POINT
  8
2
  10
6.424538
  20
120.317322
  0
POINT
  8
3
  10
6.799538
  20
120.216827
  0
POINT
  8
3
  10
7.074067
  20
119.942322
  0
POINT
  8
3
  10
7.174538
  20
119.567322
  0
POINT
  8
3
  10
7.074067
  20
119.192322
  0
POINT
  8
3
  10
6.799538
  20
118.917816
  0
ENDBLK
  0
BLOCK
  8
0
  2
Pattern2D_768516_M
  70
64
  10
0
  20
0
  0
TEXT
  8
1
  10
14.163978
  20
168.400009
  50
0.000000
  51
0.000000
  71
0.000000
  1
PIECE NAME: Pattern2D_768516
  7
STANDARD
  0
TEXT
  8
1
  10
14.163978
  20
163.400009
  50
0.000000
  51
0.000000
  71
0.000000
  1
SIZE: M
  7
STANDARD
  0
TEXT
  8
1
  10
14.163978
  20
153.400009
  50
0.000000
  51
0.000000
  71
0.000000
  1
QUANTITY: 1
  7
STANDARD
  0
POLYLINE
  8
1
  66
1
  70
1
  250
2
  0
VERTEX
  8
1
  10
21.904459
  20
169.199997
  0
VERTEX
  8
1
  10
7.449320
  20
169.199997
  0
VERTEX
  8
1
  10
6.423496
  20
167.600021
  0
VERTEX
  8
1
  10
21.904459
  20
167.600037
  0
SEQEND
  0
POINT
  8
2
  10
21.904459
  20
169.199997
  0
POINT
  8
2
  10
7.449320
  20
169.199997
  0
POINT
  8
2
  10
6.423496
  20
167.600021
  0
POINT
  8
2
  10
21.904459
  20
167.600037
  0
POINT
  8
4
  10
21.904459
  20
167.600037
  50
135.000046
  0
LINE
  8
7
  10
14.163978
  20
159.400009
  11
14.163978
  21
177.400009
  0
POLYLINE
  8
84
  66
1
  70
1
  250
2
  0
VERTEX
  8
84
  10
21.904459
  20
169.199997
  0
VERTEX
  8
84
  10
7.449320
  20
169.199997
  0
VERTEX
  8
84
  10
6.423496
  20
167.600021
  0
VERTEX
  8
84
  10
21.904459
  20
167.600037
  0
SEQEND
  0
POINT
  8
2
  10
21.904459
  20
169.199997
  0
POINT
  8
2
  10
7.449320
  20
169.199997
  0
POINT
  8
2
  10
6.423496
  20
167.600021
  0
POINT
  8
2
  10
21.904459
  20
167.600037
  0
POLYLINE
  8
8
  66
1
  70
0
  250
0
  0
VERTEX
  8
8
  10
21.904459
  20
167.600037
  0
VERTEX
  8
8
  10
21.904459
  20
169.200043
  0
SEQEND
  0
POINT
  8
2
  10
21.904459
  20
167.600037
  0
ENDBLK
  0
BLOCK
  8
0
  2
7_M
  70
64
  10
0
  20
0
  0
TEXT
  8
1
  10
99.970154
  20
125.752373
  50
0.000000
  51
0.000000
  71
0.000000
  1
PIECE NAME: 7
  7
STANDARD
  0
TEXT
  8
1
  10
99.970154
  20
120.752373
  50
0.000000
  51
0.000000
  71
0.000000
  1
SIZE: M
  7
STANDARD
  0
TEXT
  8
1
  10
99.970154
  20
115.752373
  50
0.000000
  51
0.000000
  71
0.000000
  1
ANNOTATION: 
  7
STANDARD
  0
TEXT
  8
1
  10
99.970154
  20
110.752373
  50
0.000000
  51
0.000000
  71
0.000000
  1
QUANTITY: 1
  7
STANDARD
  0
POLYLINE
  8
1
  66
1
  70
1
  250
2
  0
VERTEX
  8
1
  10
87.699165
  20
89.301636
  0
VERTEX
  8
1
  10
88.112007
  20
115.472076
  0
VERTEX
  8
1
  10
88.080048
  20
116.516312
  0
VERTEX
  8
1
  10
88.046173
  20
117.547760
  0
VERTEX
  8
1
  10
88.010605
  20
118.564697
  0
VERTEX
  8
1
  10
87.973557
  20
119.565376
  0
VERTEX
  8
1
  10
87.935257
  20
120.548065
  0
VERTEX
  8
1
  10
87.895912
  20
121.511032
  0
VERTEX
  8
1
  10
87.855759
  20
122.452545
  0
VERTEX
  8
1
  10
87.815018
  20
123.370857
  0
VERTEX
  8
1
  10
87.773895
  20
124.264244
  0
VERTEX
  8
1
  10
87.732628
  20
125.130966
  0
VERTEX
  8
1
  10
87.691437
  20
125.969284
  0
VERTEX
  8
1
  10
87.650528
  20
126.777466
  0
VERTEX
  8
1
  10
87.610138
  20
127.553787
  0
VERTEX
  8
1
  10
87.570488
  20
128.296494
  0
VERTEX
  8
1
  10
87.531784
  20
129.003860
  0
VERTEX
  8
1
  10
87.494263
  20
129.674149
  0
VERTEX
  8
1
  10
87.458138
  20
130.305634
  0
VERTEX
  8
1
  10
87.423630
  20
130.896561
  0
VERTEX
  8
1
  10
87.390961
  20
131.445221
  0
VERTEX
  8
1
  10
87.360359
  20
131.949860
  0
VERTEX
  8
1
  10
87.332039
  20
132.408737
  0
VERTEX
  8
1
  10
87.306221
  20
132.820129
  0
VERTEX
  8
1
  10
87.283127
  20
133.182297
  0
VERTEX
  8
1
  10
87.262978
  20
133.493515
  0
VERTEX
  8
1
  10
87.246002
  20
133.752045
  0
VERTEX
  8
1
  10
87.232407
  20
133.956131
  0
VERTEX
  8
1
  10
87.222427
  20
134.104065
  0
VERTEX
  8
1
  10
87.216278
  20
134.194092
  0
VERTEX
  8
1
  10
87.214172
  20
134.224487
  0
VERTEX
  8
1
  10
87.623016
  20
134.491943
  0
VERTEX
  8
1
  10
87.996567
  20
134.786102
  0
VERTEX
  8
1
  10
88.336311
  20
135.104843
  0
VERTEX
  8
1
  10
88.643730
  20
135.446075
  0
VERTEX
  8
1
  10
88.920311
  20
135.807739
  0
VERTEX
  8
1
  10
89.167542
  20
136.187714
  0
VERTEX
  8
1
  10
89.386909
  20
136.583908
  0
VERTEX
  8
1
  10
89.579887
  20
136.994247
  0
VERTEX
  8
1
  10
89.747971
  20
137.416641
  0
VERTEX
  8
1
  10
89.892647
  20
137.848984
  0
VERTEX
  8
1
  10
90.015396
  20
138.289185
  0
VERTEX
  8
1
  10
90.117706
  20
138.735168
  0
VERTEX
  8
1
  10
90.201065
  20
139.184830
  0
VERTEX
  8
1
  10
90.266945
  20
139.636078
  0
VERTEX
  8
1
  10
90.316849
  20
140.086853
  0
VERTEX
  8
1
  10
90.352249
  20
140.535019
  0
VERTEX
  8
1
  10
90.374634
  20
140.978500
  0
VERTEX
  8
1
  10
90.385490
  20
141.415222
  0
VERTEX
  8
1
  10
90.386307
  20
141.843079
  0
VERTEX
  8
1
  10
90.378563
  20
142.259979
  0
VERTEX
  8
1
  10
90.363747
  20
142.663834
  0
VERTEX
  8
1
  10
90.343346
  20
143.052551
  0
VERTEX
  8
1
  10
90.318840
  20
143.424042
  0
VERTEX
  8
1
  10
90.291718
  20
143.776230
  0
VERTEX
  8
1
  10
90.263466
  20
144.106995
  0
VERTEX
  8
1
  10
90.235565
  20
144.414276
  0
VERTEX
  8
1
  10
90.209503
  20
144.695953
  0
VERTEX
  8
1
  10
90.186760
  20
144.949966
  0
VERTEX
  8
1
  10
90.168831
  20
145.174194
  0
VERTEX
  8
1
  10
90.150124
  20
145.391571
  0
VERTEX
  8
1
  10
90.123352
  20
145.637085
  0
VERTEX
  8
1
  10
90.088737
  20
145.909149
  0
VERTEX
  8
1
  10
90.046494
  20
146.206131
  0
VERTEX
  8
1
  10
89.996841
  20
146.526443
  0
VERTEX
  8
1
  10
89.939995
  20
146.868515
  0
VERTEX
  8
1
  10
89.876183
  20
147.230713
  0
VERTEX
  8
1
  10
89.805611
  20
147.611435
  0
VERTEX
  8
1
  10
89.728493
  20
148.009109
  0
VERTEX
  8
1
  10
89.645058
  20
148.422104
  0
VERTEX
  8
1
  10
89.555527
  20
148.848846
  0
VERTEX
  8
1
  10
89.460098
  20
149.287720
  0
VERTEX
  8
1
  10
89.359009
  20
149.737122
  0
VERTEX
  8
1
  10
89.252472
  20
150.195465
  0
VERTEX
  8
1
  10
89.140694
  20
150.661148
  0
VERTEX
  8
1
  10
89.023903
  20
151.132568
  0
VERTEX
  8
1
  10
88.902321
  20
151.608109
  0
VERTEX
  8
1
  10
88.776154
  20
152.086197
  0
VERTEX
  8
1
  10
88.645622
  20
152.565216
  0
VERTEX
  8
1
  10
88.510948
  20
153.043564
  0
VERTEX
  8
1
  10
88.372353
  20
153.519653
  0
VERTEX
  8
1
  10
88.230042
  20
153.991882
  0
VERTEX
  8
1
  10
88.084244
  20
154.458633
  0
VERTEX
  8
1
  10
87.935173
  20
154.918335
  0
VERTEX
  8
1
  10
87.783043
  20
155.369354
  0
VERTEX
  8
1
  10
87.628075
  20
155.810120
  0
VERTEX
  8
1
  10
87.470482
  20
156.239014
  0
VERTEX
  8
1
  10
87.310493
  20
156.654434
  0
VERTEX
  8
1
  10
87.148315
  20
157.054810
  0
VERTEX
  8
1
  10
87.578697
  20
157.268372
  0
VERTEX
  8
1
  10
88.016617
  20
157.476013
  0
VERTEX
  8
1
  10
88.462082
  20
157.678101
  0
VERTEX
  8
1
  10
88.915070
  20
157.874985
  0
VERTEX
  8
1
  10
89.375587
  20
158.067062
  0
VERTEX
  8
1
  10
89.843620
  20
158.254715
  0
VERTEX
  8
1
  10
90.319168
  20
158.438278
  0
VERTEX
  8
1
  10
90.802216
  20
158.618164
  0
VERTEX
  8
1
  10
91.292755
  20
158.794739
  0
VERTEX
  8
1
  10
91.790787
  20
158.968353
  0
VERTEX
  8
1
  10
92.296303
  20
159.139389
  0
VERTEX
  8
1
  10
92.809288
  20
159.308243
  0
VERTEX
  8
1
  10
93.329750
  20
159.475266
  0
VERTEX
  8
1
  10
93.857674
  20
159.640823
  0
VERTEX
  8
1
  10
94.393051
  20
159.805313
  0
VERTEX
  8
1
  10
94.935875
  20
159.969101
  0
VERTEX
  8
1
  10
95.486137
  20
160.132553
  0
VERTEX
  8
1
  10
96.043839
  20
160.296051
  0
VERTEX
  8
1
  10
96.608963
  20
160.459961
  0
VERTEX
  8
1
  10
97.181511
  20
160.624649
  0
VERTEX
  8
1
  10
97.761475
  20
160.790497
  0
VERTEX
  8
1
  10
98.348846
  20
160.957901
  0
VERTEX
  8
1
  10
98.943611
  20
161.127197
  0
VERTEX
  8
1
  10
99.545776
  20
161.298782
  0
VERTEX
  8
1
  10
100.155319
  20
161.473022
  0
VERTEX
  8
1
  10
100.772247
  20
161.650269
  0
VERTEX
  8
1
  10
101.396545
  20
161.830933
  0
VERTEX
  8
1
  10
102.028214
  20
162.015381
  0
VERTEX
  8
1
  10
102.667236
  20
162.203979
  0
VERTEX
  8
1
  10
102.892059
  20
161.860260
  0
VERTEX
  8
1
  10
103.111801
  20
161.536133
  0
VERTEX
  8
1
  10
103.327988
  20
161.230972
  0
VERTEX
  8
1
  10
103.542191
  20
160.944229
  0
VERTEX
  8
1
  10
103.755959
  20
160.675308
  0
VERTEX
  8
1
  10
103.970840
  20
160.423676
  0
VERTEX
  8
1
  10
104.188393
  20
160.188721
  0
VERTEX
  8
1
  10
104.410164
  20
159.969879
  0
VERTEX
  8
1
  10
104.637711
  20
159.766571
  0
VERTEX
  8
1
  10
104.872581
  20
159.578247
  0
VERTEX
  8
1
  10
105.116333
  20
159.404297
  0
VERTEX
  8
1
  10
105.370514
  20
159.244171
  0
VERTEX
  8
1
  10
105.636673
  20
159.097275
  0
VERTEX
  8
1
  10
105.916374
  20
158.963058
  0
VERTEX
  8
1
  10
106.211166
  20
158.840927
  0
VERTEX
  8
1
  10
106.522598
  20
158.730316
  0
VERTEX
  8
1
  10
106.852226
  20
158.630661
  0
VERTEX
  8
1
  10
107.201599
  20
158.541351
  0
VERTEX
  8
1
  10
107.572266
  20
158.461868
  0
VERTEX
  8
1
  10
107.965790
  20
158.391586
  0
VERTEX
  8
1
  10
108.383713
  20
158.329956
  0
VERTEX
  8
1
  10
108.827599
  20
158.276398
  0
VERTEX
  8
1
  10
109.298996
  20
158.230331
  0
VERTEX
  8
1
  10
109.799446
  20
158.191193
  0
VERTEX
  8
1
  10
110.330521
  20
158.158386
  0
VERTEX
  8
1
  10
110.893753
  20
158.131378
  0
VERTEX
  8
1
  10
111.490707
  20
158.109558
  0
VERTEX
  8
1
  10
112.122940
  20
158.092361
  0
VERTEX
  8
1
  10
112.791992
  20
158.079224
  0
VERTEX
  8
1
  10
112.789612
  20
89.300774
  0
SEQEND
  0
POINT
  8
2
  10
87.699165
  20
89.301636
  0
POINT
  8
2
  10
88.112007
  20
115.472076
  0
POINT
  8
2
  10
87.214172
  20
134.224487
  0
POINT
  8
2
  10
90.168831
  20
145.174194
  0
POINT
  8
2
  10
87.148315
  20
157.054810
  0
POINT
  8
2
  10
102.667236
  20
162.203979
  0
POINT
  8
2
  10
112.791992
  20
158.079224
  0
POINT
  8
2
  10
112.789612
  20
89.300774
  0
POINT
  8
3
  10
88.080048
  20
116.516312
  0
POINT
  8
3
  10
88.046173
  20
117.547760
  0
POINT
  8
3
  10
88.010605
  20
118.564697
  0
POINT
  8
3
  10
87.973557
  20
119.565376
  0
POINT
  8
3
  10
87.935257
  20
120.548065
  0
POINT
  8
3
  10
87.895912
  20
121.511032
  0
POINT
  8
3
  10
87.855759
  20
122.452545
  0
POINT
  8
3
  10
87.815018
  20
123.370857
  0
POINT
  8
3
  10
87.773895
  20
124.264244
  0
POINT
  8
3
  10
87.732628
  20
125.130966
  0
POINT
  8
3
  10
87.691437
  20
125.969284
  0
POINT
  8
3
  10
87.650528
  20
126.777466
  0
POINT
  8
3
  10
87.610138
  20
127.553787
  0
POINT
  8
3
  10
87.570488
  20
128.296494
  0
POINT
  8
3
  10
87.531784
  20
129.003860
  0
POINT
  8
3
  10
87.494263
  20
129.674149
  0
POINT
  8
3
  10
87.458138
  20
130.305634
  0
POINT
  8
3
  10
87.423630
  20
130.896561
  0
POINT
  8
3
  10
87.390961
  20
131.445221
  0
POINT
  8
3
  10
87.360359
  20
131.949860
  0
POINT
  8
3
  10
87.332039
  20
132.408737
  0
POINT
  8
3
  10
87.306221
  20
132.820129
  0
POINT
  8
3
  10
87.283127
  20
133.182297
  0
POINT
  8
3
  10
87.262978
  20
133.493515
  0
POINT
  8
3
  10
87.246002
  20
133.752045
  0
POINT
  8
3
  10
87.232407
  20
133.956131
  0
POINT
  8
3
  10
87.222427
  20
134.104065
  0
POINT
  8
3
  10
87.216278
  20
134.194092
  0
POINT
  8
3
  10
87.623016
  20
134.491943
  0
POINT
  8
3
  10
87.996567
  20
134.786102
  0
POINT
  8
3
  10
88.336311
  20
135.104843
  0
POINT
  8
3
  10
88.643730
  20
135.446075
  0
POINT
  8
3
  10
88.920311
  20
135.807739
  0
POINT
  8
3
  10
89.167542
  20
136.187714
  0
POINT
  8
3
  10
89.386909
  20
136.583908
  0
POINT
  8
3
  10
89.579887
  20
136.994247
  0
POINT
  8
3
  10
89.747971
  20
137.416641
  0
POINT
  8
3
  10
89.892647
  20
137.848984
  0
POINT
  8
3
  10
90.015396
  20
138.289185
  0
POINT
  8
3
  10
90.117706
  20
138.735168
  0
POINT
  8
3
  10
90.201065
  20
139.184830
  0
POINT
  8
3
  10
90.266945
  20
139.636078
  0
POINT
  8
3
  10
90.316849
  20
140.086853
  0
POINT
  8
3
  10
90.352249
  20
140.535019
  0
POINT
  8
3
  10
90.374634
  20
140.978500
  0
POINT
  8
3
  10
90.385490
  20
141.415222
  0
POINT
  8
3
  10
90.386307
  20
141.843079
  0
POINT
  8
3
  10
90.378563
  20
142.259979
  0
POINT
  8
3
  10
90.363747
  20
142.663834
  0
POINT
  8
3
  10
90.343346
  20
143.052551
  0
POINT
  8
3
  10
90.318840
  20
143.424042
  0
POINT
  8
3
  10
90.291718
  20
143.776230
  0
POINT
  8
3
  10
90.263466
  20
144.106995
  0
POINT
  8
3
  10
90.235565
  20
144.414276
  0
POINT
  8
3
  10
90.209503
  20
144.695953
  0
POINT
  8
3
  10
90.186760
  20
144.949966
  0
POINT
  8
3
  10
90.150124
  20
145.391571
  0
POINT
  8
3
  10
90.123352
  20
145.637085
  0
POINT
  8
3
  10
90.088737
  20
145.909149
  0
POINT
  8
3
  10
90.046494
  20
146.206131
  0
POINT
  8
3
  10
89.996841
  20
146.526443
  0
POINT
  8
3
  10
89.939995
  20
146.868515
  0
POINT
  8
3
  10
89.876183
  20
147.230713
  0
POINT
  8
3
  10
89.805611
  20
147.611435
  0
POINT
  8
3
  10
89.728493
  20
148.009109
  0
POINT
  8
3
  10
89.645058
  20
148.422104
  0
POINT
  8
3
  10
89.555527
  20
148.848846
  0
POINT
  8
3
  10
89.460098
  20
149.287720
  0
POINT
  8
3
  10
89.359009
  20
149.737122
  0
POINT
  8
3
  10
89.252472
  20
150.195465
  0
POINT
  8
3
  10
89.140694
  20
150.661148
  0
POINT
  8
3
  10
89.023903
  20
151.132568
  0
POINT
  8
3
  10
88.902321
  20
151.608109
  0
POINT
  8
3
  10
88.776154
  20
152.086197
  0
POINT
  8
3
  10
88.645622
  20
152.565216
  0
POINT
  8
3
  10
88.510948
  20
153.043564
  0
POINT
  8
3
  10
88.372353
  20
153.519653
  0
POINT
  8
3
  10
88.230042
  20
153.991882
  0
POINT
  8
3
  10
88.084244
  20
154.458633
  0
POINT
  8
3
  10
87.935173
  20
154.918335
  0
POINT
  8
3
  10
87.783043
  20
155.369354
  0
POINT
  8
3
  10
87.628075
  20
155.810120
  0
POINT
  8
3
  10
87.470482
  20
156.239014
  0
POINT
  8
3
  10
87.310493
  20
156.654434
  0
POINT
  8
3
  10
87.578697
  20
157.268372
  0
POINT
  8
3
  10
88.016617
  20
157.476013
  0
POINT
  8
3
  10
88.462082
  20
157.678101
  0
POINT
  8
3
  10
88.915070
  20
157.874985
  0
POINT
  8
3
  10
89.375587
  20
158.067062
  0
POINT
  8
3
  10
89.843620
  20
158.254715
  0
POINT
  8
3
  10
90.319168
  20
158.438278
  0
POINT
  8
3
  10
90.802216
  20
158.618164
  0
POINT
  8
3
  10
91.292755
  20
158.794739
  0
POINT
  8
3
  10
91.790787
  20
158.968353
  0
POINT
  8
3
  10
92.296303
  20
159.139389
  0
POINT
  8
3
  10
92.809288
  20
159.308243
  0
POINT
  8
3
  10
93.329750
  20
159.475266
  0
POINT
  8
3
  10
93.857674
  20
159.640823
  0
POINT
  8
3
  10
94.393051
  20
159.805313
  0
POINT
  8
3
  10
94.935875
  20
159.969101
  0
POINT
  8
3
  10
95.486137
  20
160.132553
  0
POINT
  8
3
  10
96.043839
  20
160.296051
  0
POINT
  8
3
  10
96.608963
  20
160.459961
  0
POINT
  8
3
  10
97.181511
  20
160.624649
  0
POINT
  8
3
  10
97.761475
  20
160.790497
  0
POINT
  8
3
  10
98.348846
  20
160.957901
  0
POINT
  8
3
  10
98.943611
  20
161.127197
  0
POINT
  8
3
  10
99.545776
  20
161.298782
  0
POINT
  8
3
  10
100.155319
  20
161.473022
  0
POINT
  8
3
  10
100.772247
  20
161.650269
  0
POINT
  8
3
  10
101.396545
  20
161.830933
  0
POINT
  8
3
  10
102.028214
  20
162.015381
  0
POINT
  8
3
  10
102.892059
  20
161.860260
  0
POINT
  8
3
  10
103.111801
  20
161.536133
  0
POINT
  8
3
  10
103.327988
  20
161.230972
  0
POINT
  8
3
  10
103.542191
  20
160.944229
  0
POINT
  8
3
  10
103.755959
  20
160.675308
  0
POINT
  8
3
  10
103.970840
  20
160.423676
  0
POINT
  8
3
  10
104.188393
  20
160.188721
  0
POINT
  8
3
  10
104.410164
  20
159.969879
  0
POINT
  8
3
  10
104.637711
  20
159.766571
  0
POINT
  8
3
  10
104.872581
  20
159.578247
  0
POINT
  8
3
  10
105.116333
  20
159.404297
  0
POINT
  8
3
  10
105.370514
  20
159.244171
  0
POINT
  8
3
  10
105.636673
  20
159.097275
  0
POINT
  8
3
  10
105.916374
  20
158.963058
  0
POINT
  8
3
  10
106.211166
  20
158.840927
  0
POINT
  8
3
  10
106.522598
  20
158.730316
  0
POINT
  8
3
  10
106.852226
  20
158.630661
  0
POINT
  8
3
  10
107.201599
  20
158.541351
  0
POINT
  8
3
  10
107.572266
  20
158.461868
  0
POINT
  8
3
  10
107.965790
  20
158.391586
  0
POINT
  8
3
  10
108.383713
  20
158.329956
  0
POINT
  8
3
  10
108.827599
  20
158.276398
  0
POINT
  8
3
  10
109.298996
  20
158.230331
  0
POINT
  8
3
  10
109.799446
  20
158.191193
  0
POINT
  8
3
  10
110.330521
  20
158.158386
  0
POINT
  8
3
  10
110.893753
  20
158.131378
  0
POINT
  8
3
  10
111.490707
  20
158.109558
  0
POINT
  8
3
  10
112.122940
  20
158.092361
  0
POINT
  8
4
  10
90.168831
  20
145.174194
  50
184.745285
  0
POINT
  8
4
  10
90.051979
  20
146.167572
  50
187.662811
  0
LINE
  8
7
  10
99.970154
  20
116.752373
  11
99.970154
  21
134.752365
  0
POLYLINE
  8
84
  66
1
  70
1
  250
2
  0
VERTEX
  8
84
  10
87.699165
  20
89.301636
  0
VERTEX
  8
84
  10
88.112007
  20
115.472076
  0
VERTEX
  8
84
  10
87.813103
  20
125.622536
  0
VERTEX
  8
84
  10
87.214172
  20
134.224487
  0
VERTEX
  8
84
  10
87.214172
  20
134.224487
  0
VERTEX
  8
84
  10
91.341690
  20
136.674286
  0
VERTEX
  8
84
  10
90.314110
  20
143.157257
  0
VERTEX
  8
84
  10
90.168831
  20
145.174194
  0
VERTEX
  8
84
  10
90.027649
  20
147.134384
  0
VERTEX
  8
84
  10
88.725891
  20
153.262604
  0
VERTEX
  8
84
  10
87.148315
  20
157.054810
  0
VERTEX
  8
84
  10
91.272163
  20
159.149216
  0
VERTEX
  8
84
  10
96.454468
  20
160.359680
  0
VERTEX
  8
84
  10
102.667236
  20
162.203979
  0
VERTEX
  8
84
  10
104.870209
  20
158.785110
  0
VERTEX
  8
84
  10
106.141487
  20
158.188538
  0
VERTEX
  8
84
  10
112.791992
  20
158.079224
  0
VERTEX
  8
84
  10
112.789612
  20
89.300774
  0
SEQEND
  0
POINT
  8
2
  10
87.699165
  20
89.301636
  0
POINT
  8
2
  10
88.112007
  20
115.472076
  0
POINT
  8
2
  10
87.214172
  20
134.224487
  0
POINT
  8
2
  10
90.168831
  20
145.174194
  0
POINT
  8
2
  10
87.148315
  20
157.054810
  0
POINT
  8
2
  10
102.667236
  20
162.203979
  0
POINT
  8
2
  10
112.791992
  20
158.079224
  0
POINT
  8
2
  10
112.789612
  20
89.300774
  0
POINT
  8
3
  10
87.813103
  20
125.622536
  0
POINT
  8
3
  10
91.341690
  20
136.674286
  0
POINT
  8
3
  10
90.314110
  20
143.157257
  0
POINT
  8
3
  10
90.027649
  20
147.134384
  0
POINT
  8
3
  10
88.725891
  20
153.262604
  0
POINT
  8
3
  10
91.272163
  20
159.149216
  0
POINT
  8
3
  10
96.454468
  20
160.359680
  0
POINT
  8
3
  10
104.870209
  20
158.785110
  0
POINT
  8
3
  10
106.141487
  20
158.188538
  0
POLYLINE
  8
8
  66
1
  70
0
  250
0
  0
VERTEX
  8
8
  10
112.790718
  20
118.466850
  0
VERTEX
  8
8
  10
112.040718
  20
118.667816
  0
VERTEX
  8
8
  10
111.491707
  20
119.216850
  0
VERTEX
  8
8
  10
111.290718
  20
119.966850
  0
VERTEX
  8
8
  10
111.491707
  20
120.716850
  0
VERTEX
  8
8
  10
112.040718
  20
121.265892
  0
VERTEX
  8
8
  10
112.790718
  20
121.466850
  0
SEQEND
  0
POINT
  8
2
  10
112.790718
  20
118.466850
  0
POINT
  8
3
  10
112.040718
  20
118.667816
  0
POINT
  8
3
  10
111.491707
  20
119.216850
  0
POINT
  8
3
  10
111.290718
  20
119.966850
  0
POINT
  8
3
  10
111.491707
  20
120.716850
  0
POINT
  8
3
  10
112.040718
  20
121.265892
  0
POLYLINE
  8
8
  66
1
  70
0
  250
0
  0
VERTEX
  8
8
  10
112.790718
  20
119.216850
  0
VERTEX
  8
8
  10
112.415718
  20
119.317352
  0
VERTEX
  8
8
  10
112.141174
  20
119.591850
  0
VERTEX
  8
8
  10
112.040718
  20
119.966850
  0
VERTEX
  8
8
  10
112.141174
  20
120.341850
  0
VERTEX
  8
8
  10
112.415718
  20
120.616364
  0
VERTEX
  8
8
  10
112.790718
  20
120.716850
  0
SEQEND
  0
POINT
  8
2
  10
112.790718
  20
119.216850
  0
POINT
  8
3
  10
112.415718
  20
119.317352
  0
POINT
  8
3
  10
112.141174
  20
119.591850
  0
POINT
  8
3
  10
112.040718
  20
119.966850
  0
POINT
  8
3
  10
112.141174
  20
120.341850
  0
POINT
  8
3
  10
112.415718
  20
120.616364
  0
POLYLINE
  8
8
  66
1
  70
0
  250
0
  0
VERTEX
  8
8
  10
88.112061
  20
115.472076
  0
VERTEX
  8
8
  10
112.793152
  20
115.471222
  0
SEQEND
  0
POINT
  8
2
  10
88.112061
  20
115.472076
  0
POLYLINE
  8
8
  66
1
  70
0
  250
0
  0
VERTEX
  8
8
  10
87.214172
  20
134.224533
  0
VERTEX
  8
8
  10
112.781807
  20
134.223572
  0
SEQEND
  0
POINT
  8
2
  10
87.214172
  20
134.224533
  0
POLYLINE
  8
8
  66
1
  70
0
  250
0
  0
VERTEX
  8
8
  10
112.789734
  20
91.800743
  0
VERTEX
  8
8
  10
87.699287
  20
91.801636
  0
SEQEND
  0
POINT
  8
2
  10
112.789734
  20
91.800743
  0
POLYLINE
  8
8
  66
1
  70
0
  250
0
  0
VERTEX
  8
8
  10
112.789673
  20
91.200745
  0
VERTEX
  8
8
  10
87.699226
  20
91.201622
  0
SEQEND
  0
POINT
  8
2
  10
112.789673
  20
91.200745
  0
POLYLINE
  8
8
  66
1
  70
0
  250
0
  0
VERTEX
  8
8
  10
103.390564
  20
161.069733
  0
VERTEX
  8
8
  10
95.107117
  20
158.652161
  0
VERTEX
  8
8
  10
93.452156
  20
158.162781
  0
VERTEX
  8
8
  10
91.814941
  20
157.617188
  0
VERTEX
  8
8
  10
90.201607
  20
157.004547
  0
VERTEX
  8
8
  10
88.614990
  20
156.325928
  0
VERTEX
  8
8
  10
87.505745
  20
155.804352
  0
SEQEND
  0
POINT
  8
2
  10
103.390564
  20
161.069733
  0
POINT
  8
3
  10
95.107117
  20
158.652161
  0
POINT
  8
3
  10
93.452156
  20
158.162781
  0
POINT
  8
3
  10
91.814941
  20
157.617188
  0
POINT
  8
3
  10
90.201607
  20
157.004547
  0
POINT
  8
3
  10
88.614990
  20
156.325928
  0
ENDBLK
  0
BLOCK
  8
0
  2
Pattern2D_768527_M
  70
64
  10
0
  20
0
  0
TEXT
  8
1
  10
114.820389
  20
168.399963
  50
0.000000
  51
0.000000
  71
0.000000
  1
PIECE NAME: Pattern2D_768527
  7
STANDARD
  0
TEXT
  8
1
  10
114.820389
  20
163.399963
  50
0.000000
  51
0.000000
  71
0.000000
  1
SIZE: M
  7
STANDARD
  0
TEXT
  8
1
  10
114.820389
  20
153.399963
  50
0.000000
  51
0.000000
  71
0.000000
  1
QUANTITY: 1
  7
STANDARD
  0
POLYLINE
  8
1
  66
1
  70
1
  250
2
  0
VERTEX
  8
1
  10
105.505455
  20
167.599945
  0
VERTEX
  8
1
  10
114.820396
  20
167.599945
  0
VERTEX
  8
1
  10
124.135330
  20
167.599991
  0
VERTEX
  8
1
  10
124.135330
  20
169.199951
  0
VERTEX
  8
1
  10
114.820396
  20
169.199951
  0
VERTEX
  8
1
  10
105.505455
  20
169.199997
  0
SEQEND
  0
POINT
  8
2
  10
105.505455
  20
167.599945
  0
POINT
  8
2
  10
114.820396
  20
167.599945
  0
POINT
  8
2
  10
124.135330
  20
167.599991
  0
POINT
  8
2
  10
124.135330
  20
169.199951
  0
POINT
  8
2
  10
114.820396
  20
169.199951
  0
POINT
  8
2
  10
105.505455
  20
169.199997
  0
POINT
  8
4
  10
105.505455
  20
167.599945
  50
45.000004
  0
POINT
  8
4
  10
124.135330
  20
167.599991
  50
135.000168
  0
LINE
  8
7
  10
114.820389
  20
159.399963
  11
114.820389
  21
177.399963
  0
POLYLINE
  8
84
  66
1
  70
1
  250
2
  0
VERTEX
  8
84
  10
105.505455
  20
167.599945
  0
VERTEX
  8
84
  10
114.820396
  20
167.599945
  0
VERTEX
  8
84
  10
124.135330
  20
167.599991
  0
VERTEX
  8
84
  10
124.135330
  20
169.199951
  0
VERTEX
  8
84
  10
114.820396
  20
169.199951
  0
VERTEX
  8
84
  10
105.505455
  20
169.199997
  0
SEQEND
  0
POINT
  8
2
  10
105.505455
  20
167.599945
  0
POINT
  8
2
  10
114.820396
  20
167.599945
  0
POINT
  8
2
  10
124.135330
  20
167.599991
  0
POINT
  8
2
  10
124.135330
  20
169.199951
  0
POINT
  8
2
  10
114.820396
  20
169.199951
  0
POINT
  8
2
  10
105.505455
  20
169.199997
  0
POLYLINE
  8
8
  66
1
  70
0
  250
0
  0
VERTEX
  8
8
  10
114.820396
  20
167.831207
  0
VERTEX
  8
8
  10
114.570396
  20
167.898193
  0
VERTEX
  8
8
  10
114.387413
  20
168.081207
  0
VERTEX
  8
8
  10
114.320396
  20
168.331207
  0
VERTEX
  8
8
  10
114.387413
  20
168.581207
  0
VERTEX
  8
8
  10
114.570396
  20
168.764221
  0
VERTEX
  8
8
  10
114.820396
  20
168.831207
  0
SEQEND
  0
POINT
  8
2
  10
114.820396
  20
167.831207
  0
POINT
  8
3
  10
114.570396
  20
167.898193
  0
POINT
  8
3
  10
114.387413
  20
168.081207
  0
POINT
  8
3
  10
114.320396
  20
168.331207
  0
POINT
  8
3
  10
114.387413
  20
168.581207
  0
POINT
  8
3
  10
114.570396
  20
168.764221
  0
POLYLINE
  8
8
  66
1
  70
0
  250
0
  0
VERTEX
  8
8
  10
114.820396
  20
168.081207
  0
VERTEX
  8
8
  10
114.695396
  20
168.114716
  0
VERTEX
  8
8
  10
114.603905
  20
168.206207
  0
VERTEX
  8
8
  10
114.570396
  20
168.331207
  0
VERTEX
  8
8
  10
114.603905
  20
168.456207
  0
VERTEX
  8
8
  10
114.695396
  20
168.547699
  0
VERTEX
  8
8
  10
114.820396
  20
168.581207
  0
SEQEND
  0
POINT
  8
2
  10
114.820396
  20
168.081207
  0
POINT
  8
3
  10
114.695396
  20
168.114716
  0
POINT
  8
3
  10
114.603905
  20
168.206207
  0
POINT
  8
3
  10
114.570396
  20
168.331207
  0
POINT
  8
3
  10
114.603905
  20
168.456207
  0
POINT
  8
3
  10
114.695396
  20
168.547699
  0
POLYLINE
  8
8
  66
1
  70
0
  250
0
  0
VERTEX
  8
8
  10
114.820396
  20
167.599991
  0
VERTEX
  8
8
  10
114.820396
  20
169.199997
  0
SEQEND
  0
POINT
  8
2
  10
114.820396
  20
167.599991
  0
POLYLINE
  8
8
  66
1
  70
0
  250
0
  0
VERTEX
  8
8
  10
105.505455
  20
167.599991
  0
VERTEX
  8
8
  10
105.505455
  20
169.199997
  0
SEQEND
  0
POINT
  8
2
  10
105.505455
  20
167.599991
  0
POLYLINE
  8
8
  66
1
  70
0
  250
0
  0
VERTEX
  8
8
  10
124.135338
  20
167.599991
  0
VERTEX
  8
8
  10
124.135338
  20
169.199997
  0
SEQEND
  0
POINT
  8
2
  10
124.135338
  20
167.599991
  0
ENDBLK
  0
BLOCK
  8
0
  2
36_M
  70
64
  10
0
  20
0
  0
TEXT
  8
1
  10
60.012341
  20
135.151367
  50
0.000000
  51
0.000000
  71
0.000000
  1
PIECE NAME: 36
  7
STANDARD
  0
TEXT
  8
1
  10
60.012341
  20
130.151367
  50
0.000000
  51
0.000000
  71
0.000000
  1
SIZE: M
  7
STANDARD
  0
TEXT
  8
1
  10
60.012341
  20
125.151367
  50
0.000000
  51
0.000000
  71
0.000000
  1
ANNOTATION: 
  7
STANDARD
  0
TEXT
  8
1
  10
60.012341
  20
120.151367
  50
0.000000
  51
0.000000
  71
0.000000
  1
QUANTITY: 1
  7
STANDARD
  0
POLYLINE
  8
1
  66
1
  70
1
  250
2
  0
VERTEX
  8
1
  10
42.105537
  20
126.306557
  0
VERTEX
  8
1
  10
39.563915
  20
134.078674
  0
VERTEX
  8
1
  10
39.939873
  20
134.153229
  0
VERTEX
  8
1
  10
40.309166
  20
134.232086
  0
VERTEX
  8
1
  10
40.672230
  20
134.315475
  0
VERTEX
  8
1
  10
41.029480
  20
134.403656
  0
VERTEX
  8
1
  10
41.381336
  20
134.496872
  0
VERTEX
  8
1
  10
41.728218
  20
134.595367
  0
VERTEX
  8
1
  10
42.070557
  20
134.699417
  0
VERTEX
  8
1
  10
42.408768
  20
134.809235
  0
VERTEX
  8
1
  10
42.743271
  20
134.925110
  0
VERTEX
  8
1
  10
43.074486
  20
135.047256
  0
VERTEX
  8
1
  10
43.402847
  20
135.175949
  0
VERTEX
  8
1
  10
43.728764
  20
135.311417
  0
VERTEX
  8
1
  10
44.052666
  20
135.453918
  0
VERTEX
  8
1
  10
44.374969
  20
135.603714
  0
VERTEX
  8
1
  10
44.696098
  20
135.761032
  0
VERTEX
  8
1
  10
45.016472
  20
135.926147
  0
VERTEX
  8
1
  10
45.336517
  20
136.099274
  0
VERTEX
  8
1
  10
45.656651
  20
136.280701
  0
VERTEX
  8
1
  10
45.977299
  20
136.470657
  0
VERTEX
  8
1
  10
46.298882
  20
136.669388
  0
VERTEX
  8
1
  10
46.621819
  20
136.877136
  0
VERTEX
  8
1
  10
46.946533
  20
137.094177
  0
VERTEX
  8
1
  10
47.273449
  20
137.320755
  0
VERTEX
  8
1
  10
47.602985
  20
137.557098
  0
VERTEX
  8
1
  10
47.935562
  20
137.803482
  0
VERTEX
  8
1
  10
48.271606
  20
138.060135
  0
VERTEX
  8
1
  10
48.611538
  20
138.327316
  0
VERTEX
  8
1
  10
48.955776
  20
138.605270
  0
VERTEX
  8
1
  10
49.304745
  20
138.894241
  0
VERTEX
  8
1
  10
49.671135
  20
139.189346
  0
VERTEX
  8
1
  10
50.028343
  20
139.473267
  0
VERTEX
  8
1
  10
50.377136
  20
139.746170
  0
VERTEX
  8
1
  10
50.718277
  20
140.008240
  0
VERTEX
  8
1
  10
51.052525
  20
140.259644
  0
VERTEX
  8
1
  10
51.380642
  20
140.500565
  0
VERTEX
  8
1
  10
51.703396
  20
140.731155
  0
VERTEX
  8
1
  10
52.021542
  20
140.951614
  0
VERTEX
  8
1
  10
52.335842
  20
141.162109
  0
VERTEX
  8
1
  10
52.647060
  20
141.362808
  0
VERTEX
  8
1
  10
52.955959
  20
141.553894
  0
VERTEX
  8
1
  10
53.263302
  20
141.735535
  0
VERTEX
  8
1
  10
53.569851
  20
141.907898
  0
VERTEX
  8
1
  10
53.876362
  20
142.071167
  0
VERTEX
  8
1
  10
54.183601
  20
142.225510
  0
VERTEX
  8
1
  10
54.492336
  20
142.371109
  0
VERTEX
  8
1
  10
54.803318
  20
142.508133
  0
VERTEX
  8
1
  10
55.117317
  20
142.636765
  0
VERTEX
  8
1
  10
55.435089
  20
142.757156
  0
VERTEX
  8
1
  10
55.757404
  20
142.869492
  0
VERTEX
  8
1
  10
56.085014
  20
142.973969
  0
VERTEX
  8
1
  10
56.418690
  20
143.070724
  0
VERTEX
  8
1
  10
56.759190
  20
143.159958
  0
VERTEX
  8
1
  10
57.107277
  20
143.241821
  0
VERTEX
  8
1
  10
57.463707
  20
143.316513
  0
VERTEX
  8
1
  10
57.829254
  20
143.384201
  0
VERTEX
  8
1
  10
58.204670
  20
143.445053
  0
VERTEX
  8
1
  10
58.590717
  20
143.499237
  0
VERTEX
  8
1
  10
58.988163
  20
143.546936
  0
VERTEX
  8
1
  10
59.511177
  20
143.583847
  0
VERTEX
  8
1
  10
60.025265
  20
143.602173
  0
VERTEX
  8
1
  10
60.530334
  20
143.602753
  0
VERTEX
  8
1
  10
61.026279
  20
143.586426
  0
VERTEX
  8
1
  10
61.512997
  20
143.554016
  0
VERTEX
  8
1
  10
61.990379
  20
143.506378
  0
VERTEX
  8
1
  10
62.458332
  20
143.444336
  0
VERTEX
  8
1
  10
62.916748
  20
143.368713
  0
VERTEX
  8
1
  10
63.365520
  20
143.280380
  0
VERTEX
  8
1
  10
63.804554
  20
143.180161
  0
VERTEX
  8
1
  10
64.233742
  20
143.068878
  0
VERTEX
  8
1
  10
64.652977
  20
142.947388
  0
VERTEX
  8
1
  10
65.062164
  20
142.816513
  0
VERTEX
  8
1
  10
65.461197
  20
142.677094
  0
VERTEX
  8
1
  10
65.849976
  20
142.529968
  0
VERTEX
  8
1
  10
66.228394
  20
142.375977
  0
VERTEX
  8
1
  10
66.596344
  20
142.215958
  0
VERTEX
  8
1
  10
66.953735
  20
142.050735
  0
VERTEX
  8
1
  10
67.300453
  20
141.881149
  0
VERTEX
  8
1
  10
67.636398
  20
141.708054
  0
VERTEX
  8
1
  10
67.961472
  20
141.532272
  0
VERTEX
  8
1
  10
68.275566
  20
141.354630
  0
VERTEX
  8
1
  10
68.578583
  20
141.175995
  0
VERTEX
  8
1
  10
68.870407
  20
140.997177
  0
VERTEX
  8
1
  10
69.150955
  20
140.819016
  0
VERTEX
  8
1
  10
69.420113
  20
140.642365
  0
VERTEX
  8
1
  10
69.677773
  20
140.468048
  0
VERTEX
  8
1
  10
69.923843
  20
140.296906
  0
VERTEX
  8
1
  10
70.158218
  20
140.129761
  0
VERTEX
  8
1
  10
70.374496
  20
139.972641
  0
VERTEX
  8
1
  10
70.602806
  20
139.805084
  0
VERTEX
  8
1
  10
70.842903
  20
139.627838
  0
VERTEX
  8
1
  10
71.094551
  20
139.441666
  0
VERTEX
  8
1
  10
71.357529
  20
139.247299
  0
VERTEX
  8
1
  10
71.631599
  20
139.045502
  0
VERTEX
  8
1
  10
71.916519
  20
138.837006
  0
VERTEX
  8
1
  10
72.212074
  20
138.622589
  0
VERTEX
  8
1
  10
72.518021
  20
138.402985
  0
VERTEX
  8
1
  10
72.834122
  20
138.178955
  0
VERTEX
  8
1
  10
73.160156
  20
137.951248
  0
VERTEX
  8
1
  10
73.495888
  20
137.720596
  0
VERTEX
  8
1
  10
73.841072
  20
137.487778
  0
VERTEX
  8
1
  10
74.195488
  20
137.253525
  0
VERTEX
  8
1
  10
74.558899
  20
137.018585
  0
VERTEX
  8
1
  10
74.931076
  20
136.783722
  0
VERTEX
  8
1
  10
75.311775
  20
136.549683
  0
VERTEX
  8
1
  10
75.700775
  20
136.317230
  0
VERTEX
  8
1
  10
76.097839
  20
136.087082
  0
VERTEX
  8
1
  10
76.502731
  20
135.860016
  0
VERTEX
  8
1
  10
76.915230
  20
135.636780
  0
VERTEX
  8
1
  10
77.335083
  20
135.418121
  0
VERTEX
  8
1
  10
77.762077
  20
135.204788
  0
VERTEX
  8
1
  10
78.195969
  20
134.997528
  0
VERTEX
  8
1
  10
78.636528
  20
134.797104
  0
VERTEX
  8
1
  10
79.083519
  20
134.604248
  0
VERTEX
  8
1
  10
79.536713
  20
134.419724
  0
VERTEX
  8
1
  10
79.995872
  20
134.244293
  0
VERTEX
  8
1
  10
80.460770
  20
134.078674
  0
VERTEX
  8
1
  10
77.918900
  20
126.306458
  0
VERTEX
  8
1
  10
76.742798
  20
126.347450
  0
VERTEX
  8
1
  10
75.561989
  20
126.385429
  0
VERTEX
  8
1
  10
74.376526
  20
126.420403
  0
VERTEX
  8
1
  10
73.186455
  20
126.452377
  0
VERTEX
  8
1
  10
71.991852
  20
126.481369
  0
VERTEX
  8
1
  10
70.792755
  20
126.507378
  0
VERTEX
  8
1
  10
69.589233
  20
126.530426
  0
VERTEX
  8
1
  10
68.381332
  20
126.550522
  0
VERTEX
  8
1
  10
67.169121
  20
126.567657
  0
VERTEX
  8
1
  10
65.952652
  20
126.581863
  0
VERTEX
  8
1
  10
64.731979
  20
126.593140
  0
VERTEX
  8
1
  10
63.507153
  20
126.601501
  0
VERTEX
  8
1
  10
62.278240
  20
126.606949
  0
VERTEX
  8
1
  10
61.045296
  20
126.609505
  0
VERTEX
  8
1
  10
59.808372
  20
126.609169
  0
VERTEX
  8
1
  10
58.567528
  20
126.605949
  0
VERTEX
  8
1
  10
57.322819
  20
126.599869
  0
VERTEX
  8
1
  10
56.074306
  20
126.590919
  0
VERTEX
  8
1
  10
54.822041
  20
126.579124
  0
VERTEX
  8
1
  10
53.566082
  20
126.564491
  0
VERTEX
  8
1
  10
52.306484
  20
126.547020
  0
VERTEX
  8
1
  10
51.043304
  20
126.526733
  0
VERTEX
  8
1
  10
49.776600
  20
126.503639
  0
VERTEX
  8
1
  10
48.506428
  20
126.477737
  0
VERTEX
  8
1
  10
47.232849
  20
126.449043
  0
VERTEX
  8
1
  10
45.955910
  20
126.417572
  0
VERTEX
  8
1
  10
44.675674
  20
126.383324
  0
VERTEX
  8
1
  10
43.392197
  20
126.346321
  0
SEQEND
  0
POINT
  8
2
  10
42.105537
  20
126.306557
  0
POINT
  8
2
  10
39.563915
  20
134.078674
  0
POINT
  8
2
  10
49.304745
  20
138.894241
  0
POINT
  8
2
  10
58.988163
  20
143.546936
  0
POINT
  8
2
  10
70.158218
  20
140.129761
  0
POINT
  8
2
  10
80.460770
  20
134.078674
  0
POINT
  8
2
  10
77.918900
  20
126.306458
  0
POINT
  8
3
  10
39.939873
  20
134.153229
  0
POINT
  8
3
  10
40.309166
  20
134.232086
  0
POINT
  8
3
  10
40.672230
  20
134.315475
  0
POINT
  8
3
  10
41.029480
  20
134.403656
  0
POINT
  8
3
  10
41.381336
  20
134.496872
  0
POINT
  8
3
  10
41.728218
  20
134.595367
  0
POINT
  8
3
  10
42.070557
  20
134.699417
  0
POINT
  8
3
  10
42.408768
  20
134.809235
  0
POINT
  8
3
  10
42.743271
  20
134.925110
  0
POINT
  8
3
  10
43.074486
  20
135.047256
  0
POINT
  8
3
  10
43.402847
  20
135.175949
  0
POINT
  8
3
  10
43.728764
  20
135.311417
  0
POINT
  8
3
  10
44.052666
  20
135.453918
  0
POINT
  8
3
  10
44.374969
  20
135.603714
  0
POINT
  8
3
  10
44.696098
  20
135.761032
  0
POINT
  8
3
  10
45.016472
  20
135.926147
  0
POINT
  8
3
  10
45.336517
  20
136.099274
  0
POINT
  8
3
  10
45.656651
  20
136.280701
  0
POINT
  8
3
  10
45.977299
  20
136.470657
  0
POINT
  8
3
  10
46.298882
  20
136.669388
  0
POINT
  8
3
  10
46.621819
  20
136.877136
  0
POINT
  8
3
  10
46.946533
  20
137.094177
  0
POINT
  8
3
  10
47.273449
  20
137.320755
  0
POINT
  8
3
  10
47.602985
  20
137.557098
  0
POINT
  8
3
  10
47.935562
  20
137.803482
  0
POINT
  8
3
  10
48.271606
  20
138.060135
  0
POINT
  8
3
  10
48.611538
  20
138.327316
  0
POINT
  8
3
  10
48.955776
  20
138.605270
  0
POINT
  8
3
  10
49.671135
  20
139.189346
  0
POINT
  8
3
  10
50.028343
  20
139.473267
  0
POINT
  8
3
  10
50.377136
  20
139.746170
  0
POINT
  8
3
  10
50.718277
  20
140.008240
  0
POINT
  8
3
  10
51.052525
  20
140.259644
  0
POINT
  8
3
  10
51.380642
  20
140.500565
  0
POINT
  8
3
  10
51.703396
  20
140.731155
  0
POINT
  8
3
  10
52.021542
  20
140.951614
  0
POINT
  8
3
  10
52.335842
  20
141.162109
  0
POINT
  8
3
  10
52.647060
  20
141.362808
  0
POINT
  8
3
  10
52.955959
  20
141.553894
  0
POINT
  8
3
  10
53.263302
  20
141.735535
  0
POINT
  8
3
  10
53.569851
  20
141.907898
  0
POINT
  8
3
  10
53.876362
  20
142.071167
  0
POINT
  8
3
  10
54.183601
  20
142.225510
  0
POINT
  8
3
  10
54.492336
  20
142.371109
  0
POINT
  8
3
  10
54.803318
  20
142.508133
  0
POINT
  8
3
  10
55.117317
  20
142.636765
  0
POINT
  8
3
  10
55.435089
  20
142.757156
  0
POINT
  8
3
  10
55.757404
  20
142.869492
  0
POINT
  8
3
  10
56.085014
  20
142.973969
  0
POINT
  8
3
  10
56.418690
  20
143.070724
  0
POINT
  8
3
  10
56.759190
  20
143.159958
  0
POINT
  8
3
  10
57.107277
  20
143.241821
  0
POINT
  8
3
  10
57.463707
  20
143.316513
  0
POINT
  8
3
  10
57.829254
  20
143.384201
  0
POINT
  8
3
  10
58.204670
  20
143.445053
  0
POINT
  8
3
  10
58.590717
  20
143.499237
  0
POINT
  8
3
  10
59.511177
  20
143.583847
  0
POINT
  8
3
  10
60.025265
  20
143.602173
  0
POINT
  8
3
  10
60.530334
  20
143.602753
  0
POINT
  8
3
  10
61.026279
  20
143.586426
  0
POINT
  8
3
  10
61.512997
  20
143.554016
  0
POINT
  8
3
  10
61.990379
  20
143.506378
  0
POINT
  8
3
  10
62.458332
  20
143.444336
  0
POINT
  8
3
  10
62.916748
  20
143.368713
  0
POINT
  8
3
  10
63.365520
  20
143.280380
  0
POINT
  8
3
  10
63.804554
  20
143.180161
  0
POINT
  8
3
  10
64.233742
  20
143.068878
  0
POINT
  8
3
  10
64.652977
  20
142.947388
  0
POINT
  8
3
  10
65.062164
  20
142.816513
  0
POINT
  8
3
  10
65.461197
  20
142.677094
  0
POINT
  8
3
  10
65.849976
  20
142.529968
  0
POINT
  8
3
  10
66.228394
  20
142.375977
  0
POINT
  8
3
  10
66.596344
  20
142.215958
  0
POINT
  8
3
  10
66.953735
  20
142.050735
  0
POINT
  8
3
  10
67.300453
  20
141.881149
  0
POINT
  8
3
  10
67.636398
  20
141.708054
  0
POINT
  8
3
  10
67.961472
  20
141.532272
  0
POINT
  8
3
  10
68.275566
  20
141.354630
  0
POINT
  8
3
  10
68.578583
  20
141.175995
  0
POINT
  8
3
  10
68.870407
  20
140.997177
  0
POINT
  8
3
  10
69.150955
  20
140.819016
  0
POINT
  8
3
  10
69.420113
  20
140.642365
  0
POINT
  8
3
  10
69.677773
  20
140.468048
  0
POINT
  8
3
  10
69.923843
  20
140.296906
  0
POINT
  8
3
  10
70.374496
  20
139.972641
  0
POINT
  8
3
  10
70.602806
  20
139.805084
  0
POINT
  8
3
  10
70.842903
  20
139.627838
  0
POINT
  8
3
  10
71.094551
  20
139.441666
  0
POINT
  8
3
  10
71.357529
  20
139.247299
  0
POINT
  8
3
  10
71.631599
  20
139.045502
  0
POINT
  8
3
  10
71.916519
  20
138.837006
  0
POINT
  8
3
  10
72.212074
  20
138.622589
  0
POINT
  8
3
  10
72.518021
  20
138.402985
  0
POINT
  8
3
  10
72.834122
  20
138.178955
  0
POINT
  8
3
  10
73.160156
  20
137.951248
  0
POINT
  8
3
  10
73.495888
  20
137.720596
  0
POINT
  8
3
  10
73.841072
  20
137.487778
  0
POINT
  8
3
  10
74.195488
  20
137.253525
  0
POINT
  8
3
  10
74.558899
  20
137.018585
  0
POINT
  8
3
  10
74.931076
  20
136.783722
  0
POINT
  8
3
  10
75.311775
  20
136.549683
  0
POINT
  8
3
  10
75.700775
  20
136.317230
  0
POINT
  8
3
  10
76.097839
  20
136.087082
  0
POINT
  8
3
  10
76.502731
  20
135.860016
  0
POINT
  8
3
  10
76.915230
  20
135.636780
  0
POINT
  8
3
  10
77.335083
  20
135.418121
  0
POINT
  8
3
  10
77.762077
  20
135.204788
  0
POINT
  8
3
  10
78.195969
  20
134.997528
  0
POINT
  8
3
  10
78.636528
  20
134.797104
  0
POINT
  8
3
  10
79.083519
  20
134.604248
  0
POINT
  8
3
  10
79.536713
  20
134.419724
  0
POINT
  8
3
  10
79.995872
  20
134.244293
  0
POINT
  8
3
  10
76.742798
  20
126.347450
  0
POINT
  8
3
  10
75.561989
  20
126.385429
  0
POINT
  8
3
  10
74.376526
  20
126.420403
  0
POINT
  8
3
  10
73.186455
  20
126.452377
  0
POINT
  8
3
  10
71.991852
  20
126.481369
  0
POINT
  8
3
  10
70.792755
  20
126.507378
  0
POINT
  8
3
  10
69.589233
  20
126.530426
  0
POINT
  8
3
  10
68.381332
  20
126.550522
  0
POINT
  8
3
  10
67.169121
  20
126.567657
  0
POINT
  8
3
  10
65.952652
  20
126.581863
  0
POINT
  8
3
  10
64.731979
  20
126.593140
  0
POINT
  8
3
  10
63.507153
  20
126.601501
  0
POINT
  8
3
  10
62.278240
  20
126.606949
  0
POINT
  8
3
  10
61.045296
  20
126.609505
  0
POINT
  8
3
  10
59.808372
  20
126.609169
  0
POINT
  8
3
  10
58.567528
  20
126.605949
  0
POINT
  8
3
  10
57.322819
  20
126.599869
  0
POINT
  8
3
  10
56.074306
  20
126.590919
  0
POINT
  8
3
  10
54.822041
  20
126.579124
  0
POINT
  8
3
  10
53.566082
  20
126.564491
  0
POINT
  8
3
  10
52.306484
  20
126.547020
  0
POINT
  8
3
  10
51.043304
  20
126.526733
  0
POINT
  8
3
  10
49.776600
  20
126.503639
  0
POINT
  8
3
  10
48.506428
  20
126.477737
  0
POINT
  8
3
  10
47.232849
  20
126.449043
  0
POINT
  8
3
  10
45.955910
  20
126.417572
  0
POINT
  8
3
  10
44.675674
  20
126.383324
  0
POINT
  8
3
  10
43.392197
  20
126.346321
  0
POINT
  8
4
  10
49.304745
  20
138.894241
  50
128.849014
  0
POINT
  8
4
  10
58.988163
  20
143.546936
  50
94.037079
  0
POINT
  8
4
  10
69.335434
  20
140.697937
  50
57.239540
  0
POINT
  8
4
  10
70.158218
  20
140.129761
  50
54.002960
  0
LINE
  8
7
  10
60.012341
  20
126.151367
  11
60.012341
  21
144.151367
  0
POLYLINE
  8
84
  66
1
  70
1
  250
2
  0
VERTEX
  8
84
  10
42.105537
  20
126.306557
  0
VERTEX
  8
84
  10
39.563915
  20
134.078674
  0
VERTEX
  8
84
  10
43.231689
  20
134.779480
  0
VERTEX
  8
84
  10
45.907162
  20
136.046661
  0
VERTEX
  8
84
  10
49.304745
  20
138.894241
  0
VERTEX
  8
84
  10
52.893303
  20
141.801514
  0
VERTEX
  8
84
  10
55.088646
  20
143.116608
  0
VERTEX
  8
84
  10
58.988163
  20
143.546936
  0
VERTEX
  8
84
  10
64.086716
  20
143.996292
  0
VERTEX
  8
84
  10
67.949501
  20
141.723328
  0
VERTEX
  8
84
  10
70.158218
  20
140.129761
  0
VERTEX
  8
84
  10
72.190086
  20
138.663803
  0
VERTEX
  8
84
  10
75.939804
  20
135.629623
  0
VERTEX
  8
84
  10
80.460770
  20
134.078674
  0
VERTEX
  8
84
  10
77.918900
  20
126.306458
  0
VERTEX
  8
84
  10
66.572914
  20
126.717331
  0
VERTEX
  8
84
  10
54.558483
  20
126.704185
  0
SEQEND
  0
POINT
  8
2
  10
42.105537
  20
126.306557
  0
POINT
  8
2
  10
39.563915
  20
134.078674
  0
POINT
  8
2
  10
49.304745
  20
138.894241
  0
POINT
  8
2
  10
58.988163
  20
143.546936
  0
POINT
  8
2
  10
70.158218
  20
140.129761
  0
POINT
  8
2
  10
80.460770
  20
134.078674
  0
POINT
  8
2
  10
77.918900
  20
126.306458
  0
POINT
  8
3
  10
43.231689
  20
134.779480
  0
POINT
  8
3
  10
45.907162
  20
136.046661
  0
POINT
  8
3
  10
52.893303
  20
141.801514
  0
POINT
  8
3
  10
55.088646
  20
143.116608
  0
POINT
  8
3
  10
64.086716
  20
143.996292
  0
POINT
  8
3
  10
67.949501
  20
141.723328
  0
POINT
  8
3
  10
72.190086
  20
138.663803
  0
POINT
  8
3
  10
75.939804
  20
135.629623
  0
POINT
  8
3
  10
66.572914
  20
126.717331
  0
POINT
  8
3
  10
54.558483
  20
126.704185
  0
POLYLINE
  8
8
  66
1
  70
0
  250
0
  0
VERTEX
  8
8
  10
80.464310
  20
134.077301
  0
VERTEX
  8
8
  10
39.563915
  20
134.078720
  0
SEQEND
  0
POINT
  8
2
  10
80.464310
  20
134.077301
  0
POLYLINE
  8
8
  66
1
  70
0
  250
0
  0
VERTEX
  8
8
  10
60.014534
  20
143.626465
  0
VERTEX
  8
8
  10
60.013927
  20
126.626495
  0
SEQEND
  0
POINT
  8
2
  10
60.014534
  20
143.626465
  0
ENDBLK
  0
BLOCK
  8
0
  2
37_M
  70
64
  10
0
  20
0
  0
TEXT
  8
1
  10
-11.488040
  20
124.461624
  50
0.000000
  51
0.000000
  71
0.000000
  1
PIECE NAME: 37
  7
STANDARD
  0
TEXT
  8
1
  10
-11.488040
  20
119.461624
  50
0.000000
  51
0.000000
  71
0.000000
  1
SIZE: M
  7
STANDARD
  0
TEXT
  8
1
  10
-11.488040
  20
109.461624
  50
0.000000
  51
0.000000
  71
0.000000
  1
QUANTITY: 1
  7
STANDARD
  0
POLYLINE
  8
1
  66
1
  70
1
  250
2
  0
VERTEX
  8
1
  10
1.303280
  20
89.301880
  0
VERTEX
  8
1
  10
1.301689
  20
146.243713
  0
VERTEX
  8
1
  10
0.690063
  20
146.576309
  0
VERTEX
  8
1
  10
0.105072
  20
146.922653
  0
VERTEX
  8
1
  10
-0.454005
  20
147.282227
  0
VERTEX
  8
1
  10
-0.987888
  20
147.654541
  0
VERTEX
  8
1
  10
-1.497294
  20
148.039093
  0
VERTEX
  8
1
  10
-1.982943
  20
148.435364
  0
VERTEX
  8
1
  10
-2.445557
  20
148.842850
  0
VERTEX
  8
1
  10
-2.885853
  20
149.261047
  0
VERTEX
  8
1
  10
-3.304550
  20
149.689468
  0
VERTEX
  8
1
  10
-3.702373
  20
150.127563
  0
VERTEX
  8
1
  10
-4.080036
  20
150.574875
  0
VERTEX
  8
1
  10
-4.438260
  20
151.030869
  0
VERTEX
  8
1
  10
-4.777765
  20
151.495056
  0
VERTEX
  8
1
  10
-5.099273
  20
151.966904
  0
VERTEX
  8
1
  10
-5.403499
  20
152.445938
  0
VERTEX
  8
1
  10
-5.691165
  20
152.931641
  0
VERTEX
  8
1
  10
-5.962992
  20
153.423492
  0
VERTEX
  8
1
  10
-6.219697
  20
153.921021
  0
VERTEX
  8
1
  10
-6.462002
  20
154.423691
  0
VERTEX
  8
1
  10
-6.690625
  20
154.931000
  0
VERTEX
  8
1
  10
-6.906285
  20
155.442459
  0
VERTEX
  8
1
  10
-7.109703
  20
155.957550
  0
VERTEX
  8
1
  10
-7.301599
  20
156.475769
  0
VERTEX
  8
1
  10
-7.482691
  20
156.996613
  0
VERTEX
  8
1
  10
-7.653699
  20
157.519562
  0
VERTEX
  8
1
  10
-7.815344
  20
158.044144
  0
VERTEX
  8
1
  10
-7.968345
  20
158.569824
  0
VERTEX
  8
1
  10
-8.113420
  20
159.096100
  0
VERTEX
  8
1
  10
-8.251290
  20
159.622467
  0
VERTEX
  8
1
  10
-8.876859
  20
159.406586
  0
VERTEX
  8
1
  10
-9.496718
  20
159.195343
  0
VERTEX
  8
1
  10
-10.110711
  20
158.988358
  0
VERTEX
  8
1
  10
-10.718677
  20
158.785278
  0
VERTEX
  8
1
  10
-11.320457
  20
158.585724
  0
VERTEX
  8
1
  10
-11.915891
  20
158.389374
  0
VERTEX
  8
1
  10
-12.504821
  20
158.195831
  0
VERTEX
  8
1
  10
-13.087087
  20
158.004730
  0
VERTEX
  8
1
  10
-13.662529
  20
157.815720
  0
VERTEX
  8
1
  10
-14.230989
  20
157.628448
  0
VERTEX
  8
1
  10
-14.792308
  20
157.442535
  0
VERTEX
  8
1
  10
-15.346327
  20
157.257629
  0
VERTEX
  8
1
  10
-15.892883
  20
157.073364
  0
VERTEX
  8
1
  10
-16.431820
  20
156.889374
  0
VERTEX
  8
1
  10
-16.962980
  20
156.705322
  0
VERTEX
  8
1
  10
-17.486200
  20
156.520798
  0
VERTEX
  8
1
  10
-18.001324
  20
156.335480
  0
VERTEX
  8
1
  10
-18.508190
  20
156.148987
  0
VERTEX
  8
1
  10
-19.006641
  20
155.960968
  0
VERTEX
  8
1
  10
-19.496517
  20
155.771042
  0
VERTEX
  8
1
  10
-19.977657
  20
155.578873
  0
VERTEX
  8
1
  10
-20.449905
  20
155.384079
  0
VERTEX
  8
1
  10
-20.913099
  20
155.186295
  0
VERTEX
  8
1
  10
-21.367081
  20
154.985168
  0
VERTEX
  8
1
  10
-21.811691
  20
154.780350
  0
VERTEX
  8
1
  10
-22.246771
  20
154.571442
  0
VERTEX
  8
1
  10
-22.672159
  20
154.358124
  0
VERTEX
  8
1
  10
-23.087698
  20
154.139999
  0
VERTEX
  8
1
  10
-23.493229
  20
153.916718
  0
VERTEX
  8
1
  10
-23.397881
  20
153.702728
  0
VERTEX
  8
1
  10
-23.298140
  20
153.472931
  0
VERTEX
  8
1
  10
-23.194344
  20
153.227875
  0
VERTEX
  8
1
  10
-23.086843
  20
152.968170
  0
VERTEX
  8
1
  10
-22.975977
  20
152.694397
  0
VERTEX
  8
1
  10
-22.862101
  20
152.407166
  0
VERTEX
  8
1
  10
-22.745548
  20
152.107025
  0
VERTEX
  8
1
  10
-22.626671
  20
151.794586
  0
VERTEX
  8
1
  10
-22.505816
  20
151.470444
  0
VERTEX
  8
1
  10
-22.383324
  20
151.135162
  0
VERTEX
  8
1
  10
-22.259541
  20
150.789337
  0
VERTEX
  8
1
  10
-22.134815
  20
150.433578
  0
VERTEX
  8
1
  10
-22.009487
  20
150.068436
  0
VERTEX
  8
1
  10
-21.883904
  20
149.694519
  0
VERTEX
  8
1
  10
-21.758411
  20
149.312424
  0
VERTEX
  8
1
  10
-21.633356
  20
148.922714
  0
VERTEX
  8
1
  10
-21.509079
  20
148.526001
  0
VERTEX
  8
1
  10
-21.385929
  20
148.122849
  0
VERTEX
  8
1
  10
-21.264250
  20
147.713852
  0
VERTEX
  8
1
  10
-21.144386
  20
147.299606
  0
VERTEX
  8
1
  10
-21.026684
  20
146.880707
  0
VERTEX
  8
1
  10
-20.911488
  20
146.457718
  0
VERTEX
  8
1
  10
-20.799145
  20
146.031235
  0
VERTEX
  8
1
  10
-20.689999
  20
145.601852
  0
VERTEX
  8
1
  10
-20.584393
  20
145.170166
  0
VERTEX
  8
1
  10
-20.482674
  20
144.736740
  0
VERTEX
  8
1
  10
-20.385189
  20
144.302170
  0
VERTEX
  8
1
  10
-20.292278
  20
143.867050
  0
VERTEX
  8
1
  10
-20.204292
  20
143.431961
  0
VERTEX
  8
1
  10
-20.128986
  20
142.966873
  0
VERTEX
  8
1
  10
-20.066288
  20
142.512207
  0
VERTEX
  8
1
  10
-20.016502
  20
142.067978
  0
VERTEX
  8
1
  10
-19.979946
  20
141.634186
  0
VERTEX
  8
1
  10
-19.956932
  20
141.210846
  0
VERTEX
  8
1
  10
-19.947773
  20
140.797989
  0
VERTEX
  8
1
  10
-19.952780
  20
140.395615
  0
VERTEX
  8
1
  10
-19.972263
  20
140.003738
  0
VERTEX
  8
1
  10
-20.006542
  20
139.622375
  0
VERTEX
  8
1
  10
-20.055923
  20
139.251541
  0
VERTEX
  8
1
  10
-20.120720
  20
138.891266
  0
VERTEX
  8
1
  10
-20.201246
  20
138.541534
  0
VERTEX
  8
1
  10
-20.297812
  20
138.202362
  0
VERTEX
  8
1
  10
-20.410730
  20
137.873779
  0
VERTEX
  8
1
  10
-20.540316
  20
137.555801
  0
VERTEX
  8
1
  10
-20.686878
  20
137.248428
  0
VERTEX
  8
1
  10
-20.850735
  20
136.951691
  0
VERTEX
  8
1
  10
-21.032190
  20
136.665588
  0
VERTEX
  8
1
  10
-21.231562
  20
136.390152
  0
VERTEX
  8
1
  10
-21.449162
  20
136.125366
  0
VERTEX
  8
1
  10
-21.685303
  20
135.871277
  0
VERTEX
  8
1
  10
-21.940294
  20
135.627869
  0
VERTEX
  8
1
  10
-22.214453
  20
135.395187
  0
VERTEX
  8
1
  10
-22.508087
  20
135.173218
  0
VERTEX
  8
1
  10
-22.821514
  20
134.961990
  0
VERTEX
  8
1
  10
-23.155041
  20
134.761520
  0
VERTEX
  8
1
  10
-23.508982
  20
134.571808
  0
VERTEX
  8
1
  10
-23.883650
  20
134.392883
  0
VERTEX
  8
1
  10
-24.279360
  20
134.224762
  0
VERTEX
  8
1
  10
-24.239920
  20
133.741180
  0
VERTEX
  8
1
  10
-24.200573
  20
133.222000
  0
VERTEX
  8
1
  10
-24.161373
  20
132.669891
  0
VERTEX
  8
1
  10
-24.122375
  20
132.087509
  0
VERTEX
  8
1
  10
-24.083637
  20
131.477509
  0
VERTEX
  8
1
  10
-24.045219
  20
130.842545
  0
VERTEX
  8
1
  10
-24.007168
  20
130.185303
  0
VERTEX
  8
1
  10
-23.969545
  20
129.508438
  0
VERTEX
  8
1
  10
-23.932407
  20
128.814590
  0
VERTEX
  8
1
  10
-23.895809
  20
128.106445
  0
VERTEX
  8
1
  10
-23.859804
  20
127.386650
  0
VERTEX
  8
1
  10
-23.824455
  20
126.657875
  0
VERTEX
  8
1
  10
-23.789808
  20
125.922775
  0
VERTEX
  8
1
  10
-23.755924
  20
125.184021
  0
VERTEX
  8
1
  10
-23.722866
  20
124.444260
  0
VERTEX
  8
1
  10
-23.690678
  20
123.706161
  0
VERTEX
  8
1
  10
-23.659424
  20
122.972382
  0
VERTEX
  8
1
  10
-23.629156
  20
122.245590
  0
VERTEX
  8
1
  10
-23.599932
  20
121.528442
  0
VERTEX
  8
1
  10
-23.571804
  20
120.823601
  0
VERTEX
  8
1
  10
-23.544834
  20
120.133728
  0
VERTEX
  8
1
  10
-23.519077
  20
119.461487
  0
VERTEX
  8
1
  10
-23.494587
  20
118.809532
  0
VERTEX
  8
1
  10
-23.471416
  20
118.180534
  0
VERTEX
  8
1
  10
-23.449627
  20
117.577148
  0
VERTEX
  8
1
  10
-23.429274
  20
117.002037
  0
VERTEX
  8
1
  10
-23.410412
  20
116.457855
  0
VERTEX
  8
1
  10
-23.393093
  20
115.947281
  0
VERTEX
  8
1
  10
-23.377382
  20
115.472961
  0
VERTEX
  8
1
  10
-23.788639
  20
89.300781
  0
SEQEND
  0
POINT
  8
2
  10
1.303280
  20
89.301880
  0
POINT
  8
2
  10
1.301689
  20
146.243713
  0
POINT
  8
2
  10
-8.251290
  20
159.622467
  0
POINT
  8
2
  10
-23.493229
  20
153.916718
  0
POINT
  8
2
  10
-20.204292
  20
143.431961
  0
POINT
  8
2
  10
-24.279360
  20
134.224762
  0
POINT
  8
2
  10
-23.377382
  20
115.472961
  0
POINT
  8
2
  10
-23.788639
  20
89.300781
  0
POINT
  8
3
  10
0.690063
  20
146.576309
  0
POINT
  8
3
  10
0.105072
  20
146.922653
  0
POINT
  8
3
  10
-0.454005
  20
147.282227
  0
POINT
  8
3
  10
-0.987888
  20
147.654541
  0
POINT
  8
3
  10
-1.497294
  20
148.039093
  0
POINT
  8
3
  10
-1.982943
  20
148.435364
  0
POINT
  8
3
  10
-2.445557
  20
148.842850
  0
POINT
  8
3
  10
-2.885853
  20
149.261047
  0
POINT
  8
3
  10
-3.304550
  20
149.689468
  0
POINT
  8
3
  10
-3.702373
  20
150.127563
  0
POINT
  8
3
  10
-4.080036
  20
150.574875
  0
POINT
  8
3
  10
-4.438260
  20
151.030869
  0
POINT
  8
3
  10
-4.777765
  20
151.495056
  0
POINT
  8
3
  10
-5.099273
  20
151.966904
  0
POINT
  8
3
  10
-5.403499
  20
152.445938
  0
POINT
  8
3
  10
-5.691165
  20
152.931641
  0
POINT
  8
3
  10
-5.962992
  20
153.423492
  0
POINT
  8
3
  10
-6.219697
  20
153.921021
  0
POINT
  8
3
  10
-6.462002
  20
154.423691
  0
POINT
  8
3
  10
-6.690625
  20
154.931000
  0
POINT
  8
3
  10
-6.906285
  20
155.442459
  0
POINT
  8
3
  10
-7.109703
  20
155.957550
  0
POINT
  8
3
  10
-7.301599
  20
156.475769
  0
POINT
  8
3
  10
-7.482691
  20
156.996613
  0
POINT
  8
3
  10
-7.653699
  20
157.519562
  0
POINT
  8
3
  10
-7.815344
  20
158.044144
  0
POINT
  8
3
  10
-7.968345
  20
158.569824
  0
POINT
  8
3
  10
-8.113420
  20
159.096100
  0
POINT
  8
3
  10
-8.876859
  20
159.406586
  0
POINT
  8
3
  10
-9.496718
  20
159.195343
  0
POINT
  8
3
  10
-10.110711
  20
158.988358
  0
POINT
  8
3
  10
-10.718677
  20
158.785278
  0
POINT
  8
3
  10
-11.320457
  20
158.585724
  0
POINT
  8
3
  10
-11.915891
  20
158.389374
  0
POINT
  8
3
  10
-12.504821
  20
158.195831
  0
POINT
  8
3
  10
-13.087087
  20
158.004730
  0
POINT
  8
3
  10
-13.662529
  20
157.815720
  0
POINT
  8
3
  10
-14.230989
  20
157.628448
  0
POINT
  8
3
  10
-14.792308
  20
157.442535
  0
POINT
  8
3
  10
-15.346327
  20
157.257629
  0
POINT
  8
3
  10
-15.892883
  20
157.073364
  0
POINT
  8
3
  10
-16.431820
  20
156.889374
  0
POINT
  8
3
  10
-16.962980
  20
156.705322
  0
POINT
  8
3
  10
-17.486200
  20
156.520798
  0
POINT
  8
3
  10
-18.001324
  20
156.335480
  0
POINT
  8
3
  10
-18.508190
  20
156.148987
  0
POINT
  8
3
  10
-19.006641
  20
155.960968
  0
POINT
  8
3
  10
-19.496517
  20
155.771042
  0
POINT
  8
3
  10
-19.977657
  20
155.578873
  0
POINT
  8
3
  10
-20.449905
  20
155.384079
  0
POINT
  8
3
  10
-20.913099
  20
155.186295
  0
POINT
  8
3
  10
-21.367081
  20
154.985168
  0
POINT
  8
3
  10
-21.811691
  20
154.780350
  0
POINT
  8
3
  10
-22.246771
  20
154.571442
  0
POINT
  8
3
  10
-22.672159
  20
154.358124
  0
POINT
  8
3
  10
-23.087698
  20
154.139999
  0
POINT
  8
3
  10
-23.397881
  20
153.702728
  0
POINT
  8
3
  10
-23.298140
  20
153.472931
  0
POINT
  8
3
  10
-23.194344
  20
153.227875
  0
POINT
  8
3
  10
-23.086843
  20
152.968170
  0
POINT
  8
3
  10
-22.975977
  20
152.694397
  0
POINT
  8
3
  10
-22.862101
  20
152.407166
  0
POINT
  8
3
  10
-22.745548
  20
152.107025
  0
POINT
  8
3
  10
-22.626671
  20
151.794586
  0
POINT
  8
3
  10
-22.505816
  20
151.470444
  0
POINT
  8
3
  10
-22.383324
  20
151.135162
  0
POINT
  8
3
  10
-22.259541
  20
150.789337
  0
POINT
  8
3
  10
-22.134815
  20
150.433578
  0
POINT
  8
3
  10
-22.009487
  20
150.068436
  0
POINT
  8
3
  10
-21.883904
  20
149.694519
  0
POINT
  8
3
  10
-21.758411
  20
149.312424
  0
POINT
  8
3
  10
-21.633356
  20
148.922714
  0
POINT
  8
3
  10
-21.509079
  20
148.526001
  0
POINT
  8
3
  10
-21.385929
  20
148.122849
  0
POINT
  8
3
  10
-21.264250
  20
147.713852
  0
POINT
  8
3
  10
-21.144386
  20
147.299606
  0
POINT
  8
3
  10
-21.026684
  20
146.880707
  0
POINT
  8
3
  10
-20.911488
  20
146.457718
  0
POINT
  8
3
  10
-20.799145
  20
146.031235
  0
POINT
  8
3
  10
-20.689999
  20
145.601852
  0
POINT
  8
3
  10
-20.584393
  20
145.170166
  0
POINT
  8
3
  10
-20.482674
  20
144.736740
  0
POINT
  8
3
  10
-20.385189
  20
144.302170
  0
POINT
  8
3
  10
-20.292278
  20
143.867050
  0
POINT
  8
3
  10
-20.128986
  20
142.966873
  0
POINT
  8
3
  10
-20.066288
  20
142.512207
  0
POINT
  8
3
  10
-20.016502
  20
142.067978
  0
POINT
  8
3
  10
-19.979946
  20
141.634186
  0
POINT
  8
3
  10
-19.956932
  20
141.210846
  0
POINT
  8
3
  10
-19.947773
  20
140.797989
  0
POINT
  8
3
  10
-19.952780
  20
140.395615
  0
POINT
  8
3
  10
-19.972263
  20
140.003738
  0
POINT
  8
3
  10
-20.006542
  20
139.622375
  0
POINT
  8
3
  10
-20.055923
  20
139.251541
  0
POINT
  8
3
  10
-20.120720
  20
138.891266
  0
POINT
  8
3
  10
-20.201246
  20
138.541534
  0
POINT
  8
3
  10
-20.297812
  20
138.202362
  0
POINT
  8
3
  10
-20.410730
  20
137.873779
  0
POINT
  8
3
  10
-20.540316
  20
137.555801
  0
POINT
  8
3
  10
-20.686878
  20
137.248428
  0
POINT
  8
3
  10
-20.850735
  20
136.951691
  0
POINT
  8
3
  10
-21.032190
  20
136.665588
  0
POINT
  8
3
  10
-21.231562
  20
136.390152
  0
POINT
  8
3
  10
-21.449162
  20
136.125366
  0
POINT
  8
3
  10
-21.685303
  20
135.871277
  0
POINT
  8
3
  10
-21.940294
  20
135.627869
  0
POINT
  8
3
  10
-22.214453
  20
135.395187
  0
POINT
  8
3
  10
-22.508087
  20
135.173218
  0
POINT
  8
3
  10
-22.821514
  20
134.961990
  0
POINT
  8
3
  10
-23.155041
  20
134.761520
  0
POINT
  8
3
  10
-23.508982
  20
134.571808
  0
POINT
  8
3
  10
-23.883650
  20
134.392883
  0
POINT
  8
3
  10
-24.239920
  20
133.741180
  0
POINT
  8
3
  10
-24.200573
  20
133.222000
  0
POINT
  8
3
  10
-24.161373
  20
132.669891
  0
POINT
  8
3
  10
-24.122375
  20
132.087509
  0
POINT
  8
3
  10
-24.083637
  20
131.477509
  0
POINT
  8
3
  10
-24.045219
  20
130.842545
  0
POINT
  8
3
  10
-24.007168
  20
130.185303
  0
POINT
  8
3
  10
-23.969545
  20
129.508438
  0
POINT
  8
3
  10
-23.932407
  20
128.814590
  0
POINT
  8
3
  10
-23.895809
  20
128.106445
  0
POINT
  8
3
  10
-23.859804
  20
127.386650
  0
POINT
  8
3
  10
-23.824455
  20
126.657875
  0
POINT
  8
3
  10
-23.789808
  20
125.922775
  0
POINT
  8
3
  10
-23.755924
  20
125.184021
  0
POINT
  8
3
  10
-23.722866
  20
124.444260
  0
POINT
  8
3
  10
-23.690678
  20
123.706161
  0
POINT
  8
3
  10
-23.659424
  20
122.972382
  0
POINT
  8
3
  10
-23.629156
  20
122.245590
  0
POINT
  8
3
  10
-23.599932
  20
121.528442
  0
POINT
  8
3
  10
-23.571804
  20
120.823601
  0
POINT
  8
3
  10
-23.544834
  20
120.133728
  0
POINT
  8
3
  10
-23.519077
  20
119.461487
  0
POINT
  8
3
  10
-23.494587
  20
118.809532
  0
POINT
  8
3
  10
-23.471416
  20
118.180534
  0
POINT
  8
3
  10
-23.449627
  20
117.577148
  0
POINT
  8
3
  10
-23.429274
  20
117.002037
  0
POINT
  8
3
  10
-23.410412
  20
116.457855
  0
POINT
  8
3
  10
-23.393093
  20
115.947281
  0
POINT
  8
4
  10
-20.204292
  20
143.431961
  50
350.802490
  0
LINE
  8
7
  10
-11.488040
  20
115.461624
  11
-11.488040
  21
133.461624
  0
POLYLINE
  8
84
  66
1
  70
1
  250
2
  0
VERTEX
  8
84
  10
1.303280
  20
89.301880
  0
VERTEX
  8
84
  10
1.301689
  20
146.243713
  0
VERTEX
  8
84
  10
-4.741752
  20
149.390747
  0
VERTEX
  8
84
  10
-6.951049
  20
154.535355
  0
VERTEX
  8
84
  10
-8.251290
  20
159.622467
  0
VERTEX
  8
84
  10
-14.325525
  20
157.512131
  0
VERTEX
  8
84
  10
-19.621988
  20
156.101151
  0
VERTEX
  8
84
  10
-23.493229
  20
153.916718
  0
VERTEX
  8
84
  10
-22.593906
  20
151.926590
  0
VERTEX
  8
84
  10
-21.029921
  20
147.635742
  0
VERTEX
  8
84
  10
-20.204292
  20
143.431961
  0
VERTEX
  8
84
  10
-19.416424
  20
138.885864
  0
VERTEX
  8
84
  10
-20.351480
  20
135.797806
  0
VERTEX
  8
84
  10
-24.279360
  20
134.224762
  0
VERTEX
  8
84
  10
-23.897852
  20
129.730789
  0
VERTEX
  8
84
  10
-23.521343
  20
119.874229
  0
VERTEX
  8
84
  10
-23.377382
  20
115.472961
  0
VERTEX
  8
84
  10
-23.788639
  20
89.300781
  0
SEQEND
  0
POINT
  8
2
  10
1.303280
  20
89.301880
  0
POINT
  8
2
  10
1.301689
  20
146.243713
  0
POINT
  8
2
  10
-8.251290
  20
159.622467
  0
POINT
  8
2
  10
-23.493229
  20
153.916718
  0
POINT
  8
2
  10
-20.204292
  20
143.431961
  0
POINT
  8
2
  10
-24.279360
  20
134.224762
  0
POINT
  8
2
  10
-23.377382
  20
115.472961
  0
POINT
  8
2
  10
-23.788639
  20
89.300781
  0
POINT
  8
3
  10
-4.741752
  20
149.390747
  0
POINT
  8
3
  10
-6.951049
  20
154.535355
  0
POINT
  8
3
  10
-14.325525
  20
157.512131
  0
POINT
  8
3
  10
-19.621988
  20
156.101151
  0
POINT
  8
3
  10
-22.593906
  20
151.926590
  0
POINT
  8
3
  10
-21.029921
  20
147.635742
  0
POINT
  8
3
  10
-19.416424
  20
138.885864
  0
POINT
  8
3
  10
-20.351480
  20
135.797806
  0
POINT
  8
3
  10
-23.897852
  20
129.730789
  0
POINT
  8
3
  10
-23.521343
  20
119.874229
  0
POLYLINE
  8
8
  66
1
  70
0
  250
0
  0
VERTEX
  8
8
  10
1.302429
  20
115.473785
  0
VERTEX
  8
8
  10
-23.377382
  20
115.473007
  0
SEQEND
  0
POINT
  8
2
  10
1.302429
  20
115.473785
  0
POLYLINE
  8
8
  66
1
  70
0
  250
0
  0
VERTEX
  8
8
  10
1.302239
  20
121.067322
  0
VERTEX
  8
8
  10
0.552239
  20
120.866356
  0
VERTEX
  8
8
  10
0.003229
  20
120.317322
  0
VERTEX
  8
8
  10
-0.197761
  20
119.567322
  0
VERTEX
  8
8
  10
0.003229
  20
118.817322
  0
VERTEX
  8
8
  10
0.552239
  20
118.268280
  0
VERTEX
  8
8
  10
1.302239
  20
118.067322
  0
SEQEND
  0
POINT
  8
2
  10
1.302239
  20
121.067322
  0
POINT
  8
3
  10
0.552239
  20
120.866356
  0
POINT
  8
3
  10
0.003229
  20
120.317322
  0
POINT
  8
3
  10
-0.197761
  20
119.567322
  0
POINT
  8
3
  10
0.003229
  20
118.817322
  0
POINT
  8
3
  10
0.552239
  20
118.268280
  0
POLYLINE
  8
8
  66
1
  70
0
  250
0
  0
VERTEX
  8
8
  10
1.289060
  20
134.225616
  0
VERTEX
  8
8
  10
-24.279301
  20
134.224701
  0
SEQEND
  0
POINT
  8
2
  10
1.289060
  20
134.225616
  0
POLYLINE
  8
8
  66
1
  70
0
  250
0
  0
VERTEX
  8
8
  10
1.303160
  20
91.801880
  0
VERTEX
  8
8
  10
-23.788761
  20
91.800751
  0
SEQEND
  0
POINT
  8
2
  10
1.303160
  20
91.801880
  0
POLYLINE
  8
8
  66
1
  70
0
  250
0
  0
VERTEX
  8
8
  10
1.303160
  20
91.201866
  0
VERTEX
  8
8
  10
-23.788761
  20
91.200737
  0
SEQEND
  0
POINT
  8
2
  10
1.303160
  20
91.201866
  0
POLYLINE
  8
8
  66
1
  70
0
  250
0
  0
VERTEX
  8
8
  10
1.302239
  20
120.317322
  0
VERTEX
  8
8
  10
0.927239
  20
120.216827
  0
VERTEX
  8
8
  10
0.652710
  20
119.942322
  0
VERTEX
  8
8
  10
0.552239
  20
119.567322
  0
VERTEX
  8
8
  10
0.652710
  20
119.192322
  0
VERTEX
  8
8
  10
0.927239
  20
118.917816
  0
VERTEX
  8
8
  10
1.302239
  20
118.817322
  0
SEQEND
  0
POINT
  8
2
  10
1.302239
  20
120.317322
  0
POINT
  8
3
  10
0.927239
  20
120.216827
  0
POINT
  8
3
  10
0.652710
  20
119.942322
  0
POINT
  8
3
  10
0.552239
  20
119.567322
  0
POINT
  8
3
  10
0.652710
  20
119.192322
  0
POINT
  8
3
  10
0.927239
  20
118.917816
  0
ENDBLK
  0
BLOCK
  8
0
  2
Pattern2D_768528_M
  70
64
  10
0
  20
0
  0
TEXT
  8
1
  10
-6.437201
  20
168.400009
  50
0.000000
  51
0.000000
  71
0.000000
  1
PIECE NAME: Pattern2D_768528
  7
STANDARD
  0
TEXT
  8
1
  10
-6.437201
  20
163.400009
  50
0.000000
  51
0.000000
  71
0.000000
  1
SIZE: M
  7
STANDARD
  0
TEXT
  8
1
  10
-6.437201
  20
153.400009
  50
0.000000
  51
0.000000
  71
0.000000
  1
QUANTITY: 1
  7
STANDARD
  0
POLYLINE
  8
1
  66
1
  70
1
  250
2
  0
VERTEX
  8
1
  10
-14.177683
  20
169.199997
  0
VERTEX
  8
1
  10
0.277456
  20
169.199997
  0
VERTEX
  8
1
  10
1.303280
  20
167.600021
  0
VERTEX
  8
1
  10
-14.177683
  20
167.600037
  0
SEQEND
  0
POINT
  8
2
  10
-14.177683
  20
169.199997
  0
POINT
  8
2
  10
0.277456
  20
169.199997
  0
POINT
  8
2
  10
1.303280
  20
167.600021
  0
POINT
  8
2
  10
-14.177683
  20
167.600037
  0
POINT
  8
4
  10
-14.177683
  20
167.600037
  50
135.000046
  0
LINE
  8
7
  10
-6.437201
  20
159.400009
  11
-6.437201
  21
177.400009
  0
POLYLINE
  8
84
  66
1
  70
1
  250
2
  0
VERTEX
  8
84
  10
-14.177683
  20
169.199997
  0
VERTEX
  8
84
  10
0.277456
  20
169.199997
  0
VERTEX
  8
84
  10
1.303280
  20
167.600021
  0
VERTEX
  8
84
  10
-14.177683
  20
167.600037
  0
SEQEND
  0
POINT
  8
2
  10
-14.177683
  20
169.199997
  0
POINT
  8
2
  10
0.277456
  20
169.199997
  0
POINT
  8
2
  10
1.303280
  20
167.600021
  0
POINT
  8
2
  10
-14.177683
  20
167.600037
  0
POLYLINE
  8
8
  66
1
  70
0
  250
0
  0
VERTEX
  8
8
  10
-14.177683
  20
167.600037
  0
VERTEX
  8
8
  10
-14.177683
  20
169.200043
  0
SEQEND
  0
POINT
  8
2
  10
-14.177683
  20
167.600037
  0
ENDBLK
  0
BLOCK
  8
0
  2
38_M
  70
64
  10
0
  20
0
  0
TEXT
  8
1
  10
130.532578
  20
125.752373
  50
0.000000
  51
0.000000
  71
0.000000
  1
PIECE NAME: 38
  7
STANDARD
  0
TEXT
  8
1
  10
130.532578
  20
120.752373
  50
0.000000
  51
0.000000
  71
0.000000
  1
SIZE: M
  7
STANDARD
  0
TEXT
  8
1
  10
130.532578
  20
110.752373
  50
0.000000
  51
0.000000
  71
0.000000
  1
QUANTITY: 1
  7
STANDARD
  0
POLYLINE
  8
1
  66
1
  70
1
  250
2
  0
VERTEX
  8
1
  10
142.803574
  20
89.301636
  0
VERTEX
  8
1
  10
142.390732
  20
115.472076
  0
VERTEX
  8
1
  10
142.422684
  20
116.516312
  0
VERTEX
  8
1
  10
142.456558
  20
117.547760
  0
VERTEX
  8
1
  10
142.492126
  20
118.564697
  0
VERTEX
  8
1
  10
142.529175
  20
119.565376
  0
VERTEX
  8
1
  10
142.567474
  20
120.548065
  0
VERTEX
  8
1
  10
142.606827
  20
121.511032
  0
VERTEX
  8
1
  10
142.646973
  20
122.452545
  0
VERTEX
  8
1
  10
142.687714
  20
123.370857
  0
VERTEX
  8
1
  10
142.728836
  20
124.264244
  0
VERTEX
  8
1
  10
142.770096
  20
125.130966
  0
VERTEX
  8
1
  10
142.811295
  20
125.969284
  0
VERTEX
  8
1
  10
142.852203
  20
126.777466
  0
VERTEX
  8
1
  10
142.892593
  20
127.553787
  0
VERTEX
  8
1
  10
142.932251
  20
128.296494
  0
VERTEX
  8
1
  10
142.970947
  20
129.003860
  0
VERTEX
  8
1
  10
143.008469
  20
129.674149
  0
VERTEX
  8
1
  10
143.044601
  20
130.305634
  0
VERTEX
  8
1
  10
143.079102
  20
130.896561
  0
VERTEX
  8
1
  10
143.111771
  20
131.445221
  0
VERTEX
  8
1
  10
143.142365
  20
131.949860
  0
VERTEX
  8
1
  10
143.170700
  20
132.408737
  0
VERTEX
  8
1
  10
143.196518
  20
132.820129
  0
VERTEX
  8
1
  10
143.219604
  20
133.182297
  0
VERTEX
  8
1
  10
143.239746
  20
133.493515
  0
VERTEX
  8
1
  10
143.256729
  20
133.752045
  0
VERTEX
  8
1
  10
143.270325
  20
133.956131
  0
VERTEX
  8
1
  10
143.280304
  20
134.104065
  0
VERTEX
  8
1
  10
143.286453
  20
134.194092
  0
VERTEX
  8
1
  10
143.288559
  20
134.224487
  0
VERTEX
  8
1
  10
142.879715
  20
134.491943
  0
VERTEX
  8
1
  10
142.506165
  20
134.786102
  0
VERTEX
  8
1
  10
142.166428
  20
135.104843
  0
VERTEX
  8
1
  10
141.859009
  20
135.446075
  0
VERTEX
  8
1
  10
141.582413
  20
135.807739
  0
VERTEX
  8
1
  10
141.335190
  20
136.187714
  0
VERTEX
  8
1
  10
141.115829
  20
136.583908
  0
VERTEX
  8
1
  10
140.922836
  20
136.994247
  0
VERTEX
  8
1
  10
140.754761
  20
137.416641
  0
VERTEX
  8
1
  10
140.610077
  20
137.848984
  0
VERTEX
  8
1
  10
140.487335
  20
138.289185
  0
VERTEX
  8
1
  10
140.385025
  20
138.735168
  0
VERTEX
  8
1
  10
140.301666
  20
139.184830
  0
VERTEX
  8
1
  10
140.235779
  20
139.636078
  0
VERTEX
  8
1
  10
140.185883
  20
140.086853
  0
VERTEX
  8
1
  10
140.150482
  20
140.535019
  0
VERTEX
  8
1
  10
140.128098
  20
140.978500
  0
VERTEX
  8
1
  10
140.117233
  20
141.415222
  0
VERTEX
  8
1
  10
140.116425
  20
141.843079
  0
VERTEX
  8
1
  10
140.124161
  20
142.259979
  0
VERTEX
  8
1
  10
140.138977
  20
142.663834
  0
VERTEX
  8
1
  10
140.159393
  20
143.052551
  0
VERTEX
  8
1
  10
140.183899
  20
143.424042
  0
VERTEX
  8
1
  10
140.211014
  20
143.776230
  0
VERTEX
  8
1
  10
140.239273
  20
144.106995
  0
VERTEX
  8
1
  10
140.267166
  20
144.414276
  0
VERTEX
  8
1
  10
140.293228
  20
144.695953
  0
VERTEX
  8
1
  10
140.315964
  20
144.949966
  0
VERTEX
  8
1
  10
140.333893
  20
145.174194
  0
VERTEX
  8
1
  10
140.352600
  20
145.391571
  0
VERTEX
  8
1
  10
140.379379
  20
145.637085
  0
VERTEX
  8
1
  10
140.414001
  20
145.909149
  0
VERTEX
  8
1
  10
140.456238
  20
146.206131
  0
VERTEX
  8
1
  10
140.505890
  20
146.526443
  0
VERTEX
  8
1
  10
140.562729
  20
146.868515
  0
VERTEX
  8
1
  10
140.626556
  20
147.230713
  0
VERTEX
  8
1
  10
140.697128
  20
147.611435
  0
VERTEX
  8
1
  10
140.774231
  20
148.009109
  0
VERTEX
  8
1
  10
140.857666
  20
148.422104
  0
VERTEX
  8
1
  10
140.947205
  20
148.848846
  0
VERTEX
  8
1
  10
141.042633
  20
149.287720
  0
VERTEX
  8
1
  10
141.143723
  20
149.737122
  0
VERTEX
  8
1
  10
141.250259
  20
150.195465
  0
VERTEX
  8
1
  10
141.362030
  20
150.661148
  0
VERTEX
  8
1
  10
141.478821
  20
151.132568
  0
VERTEX
  8
1
  10
141.600418
  20
151.608109
  0
VERTEX
  8
1
  10
141.726578
  20
152.086197
  0
VERTEX
  8
1
  10
141.857101
  20
152.565216
  0
VERTEX
  8
1
  10
141.991776
  20
153.043564
  0
VERTEX
  8
1
  10
142.130371
  20
153.519653
  0
VERTEX
  8
1
  10
142.272690
  20
153.991882
  0
VERTEX
  8
1
  10
142.418488
  20
154.458633
  0
VERTEX
  8
1
  10
142.567566
  20
154.918335
  0
VERTEX
  8
1
  10
142.719696
  20
155.369354
  0
VERTEX
  8
1
  10
142.874664
  20
155.810120
  0
VERTEX
  8
1
  10
143.032242
  20
156.239014
  0
VERTEX
  8
1
  10
143.192245
  20
156.654434
  0
VERTEX
  8
1
  10
143.354416
  20
157.054810
  0
VERTEX
  8
1
  10
142.924042
  20
157.268372
  0
VERTEX
  8
1
  10
142.486115
  20
157.476013
  0
VERTEX
  8
1
  10
142.040649
  20
157.678101
  0
VERTEX
  8
1
  10
141.587662
  20
157.874985
  0
VERTEX
  8
1
  10
141.127136
  20
158.067062
  0
VERTEX
  8
1
  10
140.659119
  20
158.254715
  0
VERTEX
  8
1
  10
140.183563
  20
158.438278
  0
VERTEX
  8
1
  10
139.700516
  20
158.618164
  0
VERTEX
  8
1
  10
139.209976
  20
158.794739
  0
VERTEX
  8
1
  10
138.711945
  20
158.968353
  0
VERTEX
  8
1
  10
138.206436
  20
159.139389
  0
VERTEX
  8
1
  10
137.693436
  20
159.308243
  0
VERTEX
  8
1
  10
137.172974
  20
159.475266
  0
VERTEX
  8
1
  10
136.645065
  20
159.640823
  0
VERTEX
  8
1
  10
136.109680
  20
159.805313
  0
VERTEX
  8
1
  10
135.566864
  20
159.969101
  0
VERTEX
  8
1
  10
135.016586
  20
160.132553
  0
VERTEX
  8
1
  10
134.458893
  20
160.296051
  0
VERTEX
  8
1
  10
133.893768
  20
160.459961
  0
VERTEX
  8
1
  10
133.321213
  20
160.624649
  0
VERTEX
  8
1
  10
132.741257
  20
160.790497
  0
VERTEX
  8
1
  10
132.153885
  20
160.957901
  0
VERTEX
  8
1
  10
131.559113
  20
161.127197
  0
VERTEX
  8
1
  10
130.956955
  20
161.298782
  0
VERTEX
  8
1
  10
130.347412
  20
161.473022
  0
VERTEX
  8
1
  10
129.730484
  20
161.650269
  0
VERTEX
  8
1
  10
129.106186
  20
161.830933
  0
VERTEX
  8
1
  10
128.474518
  20
162.015381
  0
VERTEX
  8
1
  10
127.835495
  20
162.203979
  0
VERTEX
  8
1
  10
127.610672
  20
161.860260
  0
VERTEX
  8
1
  10
127.390930
  20
161.536133
  0
VERTEX
  8
1
  10
127.174744
  20
161.230972
  0
VERTEX
  8
1
  10
126.960541
  20
160.944229
  0
VERTEX
  8
1
  10
126.746773
  20
160.675308
  0
VERTEX
  8
1
  10
126.531891
  20
160.423676
  0
VERTEX
  8
1
  10
126.314339
  20
160.188721
  0
VERTEX
  8
1
  10
126.092567
  20
159.969879
  0
VERTEX
  8
1
  10
125.865021
  20
159.766571
  0
VERTEX
  8
1
  10
125.630150
  20
159.578247
  0
VERTEX
  8
1
  10
125.386398
  20
159.404297
  0
VERTEX
  8
1
  10
125.132217
  20
159.244171
  0
VERTEX
  8
1
  10
124.866058
  20
159.097275
  0
VERTEX
  8
1
  10
124.586357
  20
158.963058
  0
VERTEX
  8
1
  10
124.291565
  20
158.840927
  0
VERTEX
  8
1
  10
123.980133
  20
158.730316
  0
VERTEX
  8
1
  10
123.650505
  20
158.630661
  0
VERTEX
  8
1
  10
123.301132
  20
158.541351
  0
VERTEX
  8
1
  10
122.930466
  20
158.461868
  0
VERTEX
  8
1
  10
122.536942
  20
158.391586
  0
VERTEX
  8
1
  10
122.119019
  20
158.329956
  0
VERTEX
  8
1
  10
121.675133
  20
158.276398
  0
VERTEX
  8
1
  10
121.203735
  20
158.230331
  0
VERTEX
  8
1
  10
120.703285
  20
158.191193
  0
VERTEX
  8
1
  10
120.172211
  20
158.158386
  0
VERTEX
  8
1
  10
119.608978
  20
158.131378
  0
VERTEX
  8
1
  10
119.012024
  20
158.109558
  0
VERTEX
  8
1
  10
118.379791
  20
158.092361
  0
VERTEX
  8
1
  10
117.710739
  20
158.079224
  0
VERTEX
  8
1
  10
117.713120
  20
89.300774
  0
SEQEND
  0
POINT
  8
2
  10
142.803574
  20
89.301636
  0
POINT
  8
2
  10
142.390732
  20
115.472076
  0
POINT
  8
2
  10
143.288559
  20
134.224487
  0
POINT
  8
2
  10
140.333893
  20
145.174194
  0
POINT
  8
2
  10
143.354416
  20
157.054810
  0
POINT
  8
2
  10
127.835495
  20
162.203979
  0
POINT
  8
2
  10
117.710739
  20
158.079224
  0
POINT
  8
2
  10
117.713120
  20
89.300774
  0
POINT
  8
3
  10
142.422684
  20
116.516312
  0
POINT
  8
3
  10
142.456558
  20
117.547760
  0
POINT
  8
3
  10
142.492126
  20
118.564697
  0
POINT
  8
3
  10
142.529175
  20
119.565376
  0
POINT
  8
3
  10
142.567474
  20
120.548065
  0
POINT
  8
3
  10
142.606827
  20
121.511032
  0
POINT
  8
3
  10
142.646973
  20
122.452545
  0
POINT
  8
3
  10
142.687714
  20
123.370857
  0
POINT
  8
3
  10
142.728836
  20
124.264244
  0
POINT
  8
3
  10
142.770096
  20
125.130966
  0
POINT
  8
3
  10
142.811295
  20
125.969284
  0
POINT
  8
3
  10
142.852203
  20
126.777466
  0
POINT
  8
3
  10
142.892593
  20
127.553787
  0
POINT
  8
3
  10
142.932251
  20
128.296494
  0
POINT
  8
3
  10
142.970947
  20
129.003860
  0
POINT
  8
3
  10
143.008469
  20
129.674149
  0
POINT
  8
3
  10
143.044601
  20
130.305634
  0
POINT
  8
3
  10
143.079102
  20
130.896561
  0
POINT
  8
3
  10
143.111771
  20
131.445221
  0
POINT
  8
3
  10
143.142365
  20
131.949860
  0
POINT
  8
3
  10
143.170700
  20
132.408737
  0
POINT
  8
3
  10
143.196518
  20
132.820129
  0
POINT
  8
3
  10
143.219604
  20
133.182297
  0
POINT
  8
3
  10
143.239746
  20
133.493515
  0
POINT
  8
3
  10
143.256729
  20
133.752045
  0
POINT
  8
3
  10
143.270325
  20
133.956131
  0
POINT
  8
3
  10
143.280304
  20
134.104065
  0
POINT
  8
3
  10
143.286453
  20
134.194092
  0
POINT
  8
3
  10
142.879715
  20
134.491943
  0
POINT
  8
3
  10
142.506165
  20
134.786102
  0
POINT
  8
3
  10
142.166428
  20
135.104843
  0
POINT
  8
3
  10
141.859009
  20
135.446075
  0
POINT
  8
3
  10
141.582413
  20
135.807739
  0
POINT
  8
3
  10
141.335190
  20
136.187714
  0
POINT
  8
3
  10
141.115829
  20
136.583908
  0
POINT
  8
3
  10
140.922836
  20
136.994247
  0
POINT
  8
3
  10
140.754761
  20
137.416641
  0
POINT
  8
3
  10
140.610077
  20
137.848984
  0
POINT
  8
3
  10
140.487335
  20
138.289185
  0
POINT
  8
3
  10
140.385025
  20
138.735168
  0
POINT
  8
3
  10
140.301666
  20
139.184830
  0
POINT
  8
3
  10
140.235779
  20
139.636078
  0
POINT
  8
3
  10
140.185883
  20
140.086853
  0
POINT
  8
3
  10
140.150482
  20
140.535019
  0
POINT
  8
3
  10
140.128098
  20
140.978500
  0
POINT
  8
3
  10
140.117233
  20
141.415222
  0
POINT
  8
3
  10
140.116425
  20
141.843079
  0
POINT
  8
3
  10
140.124161
  20
142.259979
  0
POINT
  8
3
  10
140.138977
  20
142.663834
  0
POINT
  8
3
  10
140.159393
  20
143.052551
  0
POINT
  8
3
  10
140.183899
  20
143.424042
  0
POINT
  8
3
  10
140.211014
  20
143.776230
  0
POINT
  8
3
  10
140.239273
  20
144.106995
  0
POINT
  8
3
  10
140.267166
  20
144.414276
  0
POINT
  8
3
  10
140.293228
  20
144.695953
  0
POINT
  8
3
  10
140.315964
  20
144.949966
  0
POINT
  8
3
  10
140.352600
  20
145.391571
  0
POINT
  8
3
  10
140.379379
  20
145.637085
  0
POINT
  8
3
  10
140.414001
  20
145.909149
  0
POINT
  8
3
  10
140.456238
  20
146.206131
  0
POINT
  8
3
  10
140.505890
  20
146.526443
  0
POINT
  8
3
  10
140.562729
  20
146.868515
  0
POINT
  8
3
  10
140.626556
  20
147.230713
  0
POINT
  8
3
  10
140.697128
  20
147.611435
  0
POINT
  8
3
  10
140.774231
  20
148.009109
  0
POINT
  8
3
  10
140.857666
  20
148.422104
  0
POINT
  8
3
  10
140.947205
  20
148.848846
  0
POINT
  8
3
  10
141.042633
  20
149.287720
  0
POINT
  8
3
  10
141.143723
  20
149.737122
  0
POINT
  8
3
  10
141.250259
  20
150.195465
  0
POINT
  8
3
  10
141.362030
  20
150.661148
  0
POINT
  8
3
  10
141.478821
  20
151.132568
  0
POINT
  8
3
  10
141.600418
  20
151.608109
  0
POINT
  8
3
  10
141.726578
  20
152.086197
  0
POINT
  8
3
  10
141.857101
  20
152.565216
  0
POINT
  8
3
  10
141.991776
  20
153.043564
  0
POINT
  8
3
  10
142.130371
  20
153.519653
  0
POINT
  8
3
  10
142.272690
  20
153.991882
  0
POINT
  8
3
  10
142.418488
  20
154.458633
  0
POINT
  8
3
  10
142.567566
  20
154.918335
  0
POINT
  8
3
  10
142.719696
  20
155.369354
  0
POINT
  8
3
  10
142.874664
  20
155.810120
  0
POINT
  8
3
  10
143.032242
  20
156.239014
  0
POINT
  8
3
  10
143.192245
  20
156.654434
  0
POINT
  8
3
  10
142.924042
  20
157.268372
  0
POINT
  8
3
  10
142.486115
  20
157.476013
  0
POINT
  8
3
  10
142.040649
  20
157.678101
  0
POINT
  8
3
  10
141.587662
  20
157.874985
  0
POINT
  8
3
  10
141.127136
  20
158.067062
  0
POINT
  8
3
  10
140.659119
  20
158.254715
  0
POINT
  8
3
  10
140.183563
  20
158.438278
  0
POINT
  8
3
  10
139.700516
  20
158.618164
  0
POINT
  8
3
  10
139.209976
  20
158.794739
  0
POINT
  8
3
  10
138.711945
  20
158.968353
  0
POINT
  8
3
  10
138.206436
  20
159.139389
  0
POINT
  8
3
  10
137.693436
  20
159.308243
  0
POINT
  8
3
  10
137.172974
  20
159.475266
  0
POINT
  8
3
  10
136.645065
  20
159.640823
  0
POINT
  8
3
  10
136.109680
  20
159.805313
  0
POINT
  8
3
  10
135.566864
  20
159.969101
  0
POINT
  8
3
  10
135.016586
  20
160.132553
  0
POINT
  8
3
  10
134.458893
  20
160.296051
  0
POINT
  8
3
  10
133.893768
  20
160.459961
  0
POINT
  8
3
  10
133.321213
  20
160.624649
  0
POINT
  8
3
  10
132.741257
  20
160.790497
  0
POINT
  8
3
  10
132.153885
  20
160.957901
  0
POINT
  8
3
  10
131.559113
  20
161.127197
  0
POINT
  8
3
  10
130.956955
  20
161.298782
  0
POINT
  8
3
  10
130.347412
  20
161.473022
  0
POINT
  8
3
  10
129.730484
  20
161.650269
  0
POINT
  8
3
  10
129.106186
  20
161.830933
  0
POINT
  8
3
  10
128.474518
  20
162.015381
  0
POINT
  8
3
  10
127.610672
  20
161.860260
  0
POINT
  8
3
  10
127.390930
  20
161.536133
  0
POINT
  8
3
  10
127.174744
  20
161.230972
  0
POINT
  8
3
  10
126.960541
  20
160.944229
  0
POINT
  8
3
  10
126.746773
  20
160.675308
  0
POINT
  8
3
  10
126.531891
  20
160.423676
  0
POINT
  8
3
  10
126.314339
  20
160.188721
  0
POINT
  8
3
  10
126.092567
  20
159.969879
  0
POINT
  8
3
  10
125.865021
  20
159.766571
  0
POINT
  8
3
  10
125.630150
  20
159.578247
  0
POINT
  8
3
  10
125.386398
  20
159.404297
  0
POINT
  8
3
  10
125.132217
  20
159.244171
  0
POINT
  8
3
  10
124.866058
  20
159.097275
  0
POINT
  8
3
  10
124.586357
  20
158.963058
  0
POINT
  8
3
  10
124.291565
  20
158.840927
  0
POINT
  8
3
  10
123.980133
  20
158.730316
  0
POINT
  8
3
  10
123.650505
  20
158.630661
  0
POINT
  8
3
  10
123.301132
  20
158.541351
  0
POINT
  8
3
  10
122.930466
  20
158.461868
  0
POINT
  8
3
  10
122.536942
  20
158.391586
  0
POINT
  8
3
  10
122.119019
  20
158.329956
  0
POINT
  8
3
  10
121.675133
  20
158.276398
  0
POINT
  8
3
  10
121.203735
  20
158.230331
  0
POINT
  8
3
  10
120.703285
  20
158.191193
  0
POINT
  8
3
  10
120.172211
  20
158.158386
  0
POINT
  8
3
  10
119.608978
  20
158.131378
  0
POINT
  8
3
  10
119.012024
  20
158.109558
  0
POINT
  8
3
  10
118.379791
  20
158.092361
  0
POINT
  8
4
  10
140.333893
  20
145.174194
  50
184.745285
  0
POINT
  8
4
  10
140.450760
  20
146.167572
  50
187.662827
  0
LINE
  8
7
  10
130.532578
  20
116.752373
  11
130.532578
  21
134.752365
  0
POLYLINE
  8
84
  66
1
  70
1
  250
2
  0
VERTEX
  8
84
  10
142.803574
  20
89.301636
  0
VERTEX
  8
84
  10
142.390732
  20
115.472076
  0
VERTEX
  8
84
  10
142.689636
  20
125.622536
  0
VERTEX
  8
84
  10
143.288559
  20
134.224487
  0
VERTEX
  8
84
  10
143.288559
  20
134.224487
  0
VERTEX
  8
84
  10
139.161041
  20
136.674286
  0
VERTEX
  8
84
  10
140.188629
  20
143.157257
  0
VERTEX
  8
84
  10
140.333893
  20
145.174194
  0
VERTEX
  8
84
  10
140.475082
  20
147.134384
  0
VERTEX
  8
84
  10
141.776840
  20
153.262604
  0
VERTEX
  8
84
  10
143.354416
  20
157.054810
  0
VERTEX
  8
84
  10
139.230576
  20
159.149216
  0
VERTEX
  8
84
  10
134.048264
  20
160.359680
  0
VERTEX
  8
84
  10
127.835495
  20
162.203979
  0
VERTEX
  8
84
  10
125.632523
  20
158.785110
  0
VERTEX
  8
84
  10
124.361244
  20
158.188538
  0
VERTEX
  8
84
  10
117.710739
  20
158.079224
  0
VERTEX
  8
84
  10
117.713120
  20
89.300774
  0
SEQEND
  0
POINT
  8
2
  10
142.803574
  20
89.301636
  0
POINT
  8
2
  10
142.390732
  20
115.472076
  0
POINT
  8
2
  10
143.288559
  20
134.224487
  0
POINT
  8
2
  10
140.333893
  20
145.174194
  0
POINT
  8
2
  10
143.354416
  20
157.054810
  0
POINT
  8
2
  10
127.835495
  20
162.203979
  0
POINT
  8
2
  10
117.710739
  20
158.079224
  0
POINT
  8
2
  10
117.713120
  20
89.300774
  0
POINT
  8
3
  10
142.689636
  20
125.622536
  0
POINT
  8
3
  10
139.161041
  20
136.674286
  0
POINT
  8
3
  10
140.188629
  20
143.157257
  0
POINT
  8
3
  10
140.475082
  20
147.134384
  0
POINT
  8
3
  10
141.776840
  20
153.262604
  0
POINT
  8
3
  10
139.230576
  20
159.149216
  0
POINT
  8
3
  10
134.048264
  20
160.359680
  0
POINT
  8
3
  10
125.632523
  20
158.785110
  0
POINT
  8
3
  10
124.361244
  20
158.188538
  0
POLYLINE
  8
8
  66
1
  70
0
  250
0
  0
VERTEX
  8
8
  10
117.712013
  20
118.466850
  0
VERTEX
  8
8
  10
118.462013
  20
118.667816
  0
VERTEX
  8
8
  10
119.011024
  20
119.216850
  0
VERTEX
  8
8
  10
119.212013
  20
119.966850
  0
VERTEX
  8
8
  10
119.011024
  20
120.716850
  0
VERTEX
  8
8
  10
118.462013
  20
121.265892
  0
VERTEX
  8
8
  10
117.712013
  20
121.466850
  0
SEQEND
  0
POINT
  8
2
  10
117.712013
  20
118.466850
  0
POINT
  8
3
  10
118.462013
  20
118.667816
  0
POINT
  8
3
  10
119.011024
  20
119.216850
  0
POINT
  8
3
  10
119.212013
  20
119.966850
  0
POINT
  8
3
  10
119.011024
  20
120.716850
  0
POINT
  8
3
  10
118.462013
  20
121.265892
  0
POLYLINE
  8
8
  66
1
  70
0
  250
0
  0
VERTEX
  8
8
  10
117.712013
  20
119.216850
  0
VERTEX
  8
8
  10
118.087013
  20
119.317352
  0
VERTEX
  8
8
  10
118.361557
  20
119.591850
  0
VERTEX
  8
8
  10
118.462013
  20
119.966850
  0
VERTEX
  8
8
  10
118.361557
  20
120.341850
  0
VERTEX
  8
8
  10
118.087013
  20
120.616364
  0
VERTEX
  8
8
  10
117.712013
  20
120.716850
  0
SEQEND
  0
POINT
  8
2
  10
117.712013
  20
119.216850
  0
POINT
  8
3
  10
118.087013
  20
119.317352
  0
POINT
  8
3
  10
118.361557
  20
119.591850
  0
POINT
  8
3
  10
118.462013
  20
119.966850
  0
POINT
  8
3
  10
118.361557
  20
120.341850
  0
POINT
  8
3
  10
118.087013
  20
120.616364
  0
POLYLINE
  8
8
  66
1
  70
0
  250
0
  0
VERTEX
  8
8
  10
142.390671
  20
115.472076
  0
VERTEX
  8
8
  10
117.709579
  20
115.471222
  0
SEQEND
  0
POINT
  8
2
  10
142.390671
  20
115.472076
  0
POLYLINE
  8
8
  66
1
  70
0
  250
0
  0
VERTEX
  8
8
  10
143.288559
  20
134.224533
  0
VERTEX
  8
8
  10
117.720924
  20
134.223572
  0
SEQEND
  0
POINT
  8
2
  10
143.288559
  20
134.224533
  0
POLYLINE
  8
8
  66
1
  70
0
  250
0
  0
VERTEX
  8
8
  10
117.712997
  20
91.800743
  0
VERTEX
  8
8
  10
142.803452
  20
91.801636
  0
SEQEND
  0
POINT
  8
2
  10
117.712997
  20
91.800743
  0
POLYLINE
  8
8
  66
1
  70
0
  250
0
  0
VERTEX
  8
8
  10
117.713058
  20
91.200745
  0
VERTEX
  8
8
  10
142.803513
  20
91.201622
  0
SEQEND
  0
POINT
  8
2
  10
117.713058
  20
91.200745
  0
POLYLINE
  8
8
  66
1
  70
0
  250
0
  0
VERTEX
  8
8
  10
127.112167
  20
161.069733
  0
VERTEX
  8
8
  10
135.395615
  20
158.652161
  0
VERTEX
  8
8
  10
137.050583
  20
158.162781
  0
VERTEX
  8
8
  10
138.687790
  20
157.617188
  0
VERTEX
  8
8
  10
140.301132
  20
157.004547
  0
VERTEX
  8
8
  10
141.887741
  20
156.325928
  0
VERTEX
  8
8
  10
142.996994
  20
155.804352
  0
SEQEND
  0
POINT
  8
2
  10
127.112167
  20
161.069733
  0
POINT
  8
3
  10
135.395615
  20
158.652161
  0
POINT
  8
3
  10
137.050583
  20
158.162781
  0
POINT
  8
3
  10
138.687790
  20
157.617188
  0
POINT
  8
3
  10
140.301132
  20
157.004547
  0
POINT
  8
3
  10
141.887741
  20
156.325928
  0
ENDBLK
  0
BLOCK
  8
0
  2
39_M
  70
64
  10
0
  20
0
  0
TEXT
  8
1
  10
-52.285561
  20
135.151367
  50
0.000000
  51
0.000000
  71
0.000000
  1
PIECE NAME: 39
  7
STANDARD
  0
TEXT
  8
1
  10
-52.285561
  20
130.151367
  50
0.000000
  51
0.000000
  71
0.000000
  1
SIZE: M
  7
STANDARD
  0
TEXT
  8
1
  10
-52.285561
  20
120.151367
  50
0.000000
  51
0.000000
  71
0.000000
  1
QUANTITY: 1
  7
STANDARD
  0
POLYLINE
  8
1
  66
1
  70
1
  250
2
  0
VERTEX
  8
1
  10
-34.378754
  20
126.306557
  0
VERTEX
  8
1
  10
-31.837135
  20
134.078674
  0
VERTEX
  8
1
  10
-32.213089
  20
134.153229
  0
VERTEX
  8
1
  10
-32.582390
  20
134.232086
  0
VERTEX
  8
1
  10
-32.945450
  20
134.315475
  0
VERTEX
  8
1
  10
-33.302696
  20
134.403656
  0
VERTEX
  8
1
  10
-33.654556
  20
134.496872
  0
VERTEX
  8
1
  10
-34.001434
  20
134.595367
  0
VERTEX
  8
1
  10
-34.343777
  20
134.699417
  0
VERTEX
  8
1
  10
-34.681984
  20
134.809235
  0
VERTEX
  8
1
  10
-35.016487
  20
134.925110
  0
VERTEX
  8
1
  10
-35.347710
  20
135.047256
  0
VERTEX
  8
1
  10
-35.676067
  20
135.175949
  0
VERTEX
  8
1
  10
-36.001984
  20
135.311417
  0
VERTEX
  8
1
  10
-36.325886
  20
135.453918
  0
VERTEX
  8
1
  10
-36.648190
  20
135.603714
  0
VERTEX
  8
1
  10
-36.969318
  20
135.761032
  0
VERTEX
  8
1
  10
-37.289692
  20
135.926147
  0
VERTEX
  8
1
  10
-37.609737
  20
136.099274
  0
VERTEX
  8
1
  10
-37.929871
  20
136.280701
  0
VERTEX
  8
1
  10
-38.250519
  20
136.470657
  0
VERTEX
  8
1
  10
-38.572102
  20
136.669388
  0
VERTEX
  8
1
  10
-38.895039
  20
136.877136
  0
VERTEX
  8
1
  10
-39.219757
  20
137.094177
  0
VERTEX
  8
1
  10
-39.546669
  20
137.320755
  0
VERTEX
  8
1
  10
-39.876205
  20
137.557098
  0
VERTEX
  8
1
  10
-40.208782
  20
137.803482
  0
VERTEX
  8
1
  10
-40.544827
  20
138.060135
  0
VERTEX
  8
1
  10
-40.884758
  20
138.327316
  0
VERTEX
  8
1
  10
-41.228996
  20
138.605270
  0
VERTEX
  8
1
  10
-41.577965
  20
138.894241
  0
VERTEX
  8
1
  10
-41.944355
  20
139.189346
  0
VERTEX
  8
1
  10
-42.301559
  20
139.473267
  0
VERTEX
  8
1
  10
-42.650352
  20
139.746170
  0
VERTEX
  8
1
  10
-42.991493
  20
140.008240
  0
VERTEX
  8
1
  10
-43.325745
  20
140.259644
  0
VERTEX
  8
1
  10
-43.653862
  20
140.500565
  0
VERTEX
  8
1
  10
-43.976616
  20
140.731155
  0
VERTEX
  8
1
  10
-44.294762
  20
140.951614
  0
VERTEX
  8
1
  10
-44.609062
  20
141.162109
  0
VERTEX
  8
1
  10
-44.920280
  20
141.362808
  0
VERTEX
  8
1
  10
-45.229179
  20
141.553894
  0
VERTEX
  8
1
  10
-45.536522
  20
141.735535
  0
VERTEX
  8
1
  10
-45.843071
  20
141.907898
  0
VERTEX
  8
1
  10
-46.149582
  20
142.071167
  0
VERTEX
  8
1
  10
-46.456825
  20
142.225510
  0
VERTEX
  8
1
  10
-46.765556
  20
142.371109
  0
VERTEX
  8
1
  10
-47.076538
  20
142.508133
  0
VERTEX
  8
1
  10
-47.390537
  20
142.636765
  0
VERTEX
  8
1
  10
-47.708309
  20
142.757156
  0
VERTEX
  8
1
  10
-48.030624
  20
142.869492
  0
VERTEX
  8
1
  10
-48.358234
  20
142.973969
  0
VERTEX
  8
1
  10
-48.691910
  20
143.070724
  0
VERTEX
  8
1
  10
-49.032410
  20
143.159958
  0
VERTEX
  8
1
  10
-49.380493
  20
143.241821
  0
VERTEX
  8
1
  10
-49.736927
  20
143.316513
  0
VERTEX
  8
1
  10
-50.102470
  20
143.384201
  0
VERTEX
  8
1
  10
-50.477890
  20
143.445053
  0
VERTEX
  8
1
  10
-50.863937
  20
143.499237
  0
VERTEX
  8
1
  10
-51.261383
  20
143.546936
  0
VERTEX
  8
1
  10
-51.784397
  20
143.583847
  0
VERTEX
  8
1
  10
-52.298485
  20
143.602173
  0
VERTEX
  8
1
  10
-52.803555
  20
143.602753
  0
VERTEX
  8
1
  10
-53.299500
  20
143.586426
  0
VERTEX
  8
1
  10
-53.786217
  20
143.554016
  0
VERTEX
  8
1
  10
-54.263599
  20
143.506378
  0
VERTEX
  8
1
  10
-54.731552
  20
143.444336
  0
VERTEX
  8
1
  10
-55.189968
  20
143.368713
  0
VERTEX
  8
1
  10
-55.638741
  20
143.280380
  0
VERTEX
  8
1
  10
-56.077774
  20
143.180161
  0
VERTEX
  8
1
  10
-56.506962
  20
143.068878
  0
VERTEX
  8
1
  10
-56.926201
  20
142.947388
  0
VERTEX
  8
1
  10
-57.335388
  20
142.816513
  0
VERTEX
  8
1
  10
-57.734421
  20
142.677094
  0
VERTEX
  8
1
  10
-58.123196
  20
142.529968
  0
VERTEX
  8
1
  10
-58.501610
  20
142.375977
  0
VERTEX
  8
1
  10
-58.869564
  20
142.215958
  0
VERTEX
  8
1
  10
-59.226952
  20
142.050735
  0
VERTEX
  8
1
  10
-59.573669
  20
141.881149
  0
VERTEX
  8
1
  10
-59.909618
  20
141.708054
  0
VERTEX
  8
1
  10
-60.234688
  20
141.532272
  0
VERTEX
  8
1
  10
-60.548782
  20
141.354630
  0
VERTEX
  8
1
  10
-60.851799
  20
141.175995
  0
VERTEX
  8
1
  10
-61.143631
  20
140.997177
  0
VERTEX
  8
1
  10
-61.424175
  20
140.819016
  0
VERTEX
  8
1
  10
-61.693333
  20
140.642365
  0
VERTEX
  8
1
  10
-61.950996
  20
140.468048
  0
VERTEX
  8
1
  10
-62.197063
  20
140.296906
  0
VERTEX
  8
1
  10
-62.431435
  20
140.129761
  0
VERTEX
  8
1
  10
-62.647717
  20
139.972641
  0
VERTEX
  8
1
  10
-62.876026
  20
139.805084
  0
VERTEX
  8
1
  10
-63.116119
  20
139.627838
  0
VERTEX
  8
1
  10
-63.367771
  20
139.441666
  0
VERTEX
  8
1
  10
-63.630745
  20
139.247299
  0
VERTEX
  8
1
  10
-63.904819
  20
139.045502
  0
VERTEX
  8
1
  10
-64.189743
  20
138.837006
  0
VERTEX
  8
1
  10
-64.485291
  20
138.622589
  0
VERTEX
  8
1
  10
-64.791245
  20
138.402985
  0
VERTEX
  8
1
  10
-65.107346
  20
138.178955
  0
VERTEX
  8
1
  10
-65.433380
  20
137.951248
  0
VERTEX
  8
1
  10
-65.769104
  20
137.720596
  0
VERTEX
  8
1
  10
-66.114296
  20
137.487778
  0
VERTEX
  8
1
  10
-66.468704
  20
137.253525
  0
VERTEX
  8
1
  10
-66.832115
  20
137.018585
  0
VERTEX
  8
1
  10
-67.204292
  20
136.783722
  0
VERTEX
  8
1
  10
-67.584999
  20
136.549683
  0
VERTEX
  8
1
  10
-67.973991
  20
136.317230
  0
VERTEX
  8
1
  10
-68.371063
  20
136.087082
  0
VERTEX
  8
1
  10
-68.775955
  20
135.860016
  0
VERTEX
  8
1
  10
-69.188446
  20
135.636780
  0
VERTEX
  8
1
  10
-69.608307
  20
135.418121
  0
VERTEX
  8
1
  10
-70.035301
  20
135.204788
  0
VERTEX
  8
1
  10
-70.469193
  20
134.997528
  0
VERTEX
  8
1
  10
-70.909744
  20
134.797104
  0
VERTEX
  8
1
  10
-71.356735
  20
134.604248
  0
VERTEX
  8
1
  10
-71.809929
  20
134.419724
  0
VERTEX
  8
1
  10
-72.269089
  20
134.244293
  0
VERTEX
  8
1
  10
-72.733986
  20
134.078674
  0
VERTEX
  8
1
  10
-70.192116
  20
126.306458
  0
VERTEX
  8
1
  10
-69.016022
  20
126.347450
  0
VERTEX
  8
1
  10
-67.835205
  20
126.385429
  0
VERTEX
  8
1
  10
-66.649742
  20
126.420403
  0
VERTEX
  8
1
  10
-65.459679
  20
126.452377
  0
VERTEX
  8
1
  10
-64.265068
  20
126.481369
  0
VERTEX
  8
1
  10
-63.065979
  20
126.507378
  0
VERTEX
  8
1
  10
-61.862453
  20
126.530426
  0
VERTEX
  8
1
  10
-60.654556
  20
126.550522
  0
VERTEX
  8
1
  10
-59.442345
  20
126.567657
  0
VERTEX
  8
1
  10
-58.225872
  20
126.581863
  0
VERTEX
  8
1
  10
-57.005196
  20
126.593140
  0
VERTEX
  8
1
  10
-55.780373
  20
126.601501
  0
VERTEX
  8
1
  10
-54.551460
  20
126.606949
  0
VERTEX
  8
1
  10
-53.318516
  20
126.609505
  0
VERTEX
  8
1
  10
-52.081593
  20
126.609169
  0
VERTEX
  8
1
  10
-50.840748
  20
126.605949
  0
VERTEX
  8
1
  10
-49.596039
  20
126.599869
  0
VERTEX
  8
1
  10
-48.347527
  20
126.590919
  0
VERTEX
  8
1
  10
-47.095261
  20
126.579124
  0
VERTEX
  8
1
  10
-45.839302
  20
126.564491
  0
VERTEX
  8
1
  10
-44.579704
  20
126.547020
  0
VERTEX
  8
1
  10
-43.316525
  20
126.526733
  0
VERTEX
  8
1
  10
-42.049820
  20
126.503639
  0
VERTEX
  8
1
  10
-40.779648
  20
126.477737
  0
VERTEX
  8
1
  10
-39.506065
  20
126.449043
  0
VERTEX
  8
1
  10
-38.229130
  20
126.417572
  0
VERTEX
  8
1
  10
-36.948895
  20
126.383324
  0
VERTEX
  8
1
  10
-35.665421
  20
126.346321
  0
SEQEND
  0
POINT
  8
2
  10
-34.378754
  20
126.306557
  0
POINT
  8
2
  10
-31.837135
  20
134.078674
  0
POINT
  8
2
  10
-41.577965
  20
138.894241
  0
POINT
  8
2
  10
-51.261383
  20
143.546936
  0
POINT
  8
2
  10
-62.431435
  20
140.129761
  0
POINT
  8
2
  10
-72.733986
  20
134.078674
  0
POINT
  8
2
  10
-70.192116
  20
126.306458
  0
POINT
  8
3
  10
-32.213089
  20
134.153229
  0
POINT
  8
3
  10
-32.582390
  20
134.232086
  0
POINT
  8
3
  10
-32.945450
  20
134.315475
  0
POINT
  8
3
  10
-33.302696
  20
134.403656
  0
POINT
  8
3
  10
-33.654556
  20
134.496872
  0
POINT
  8
3
  10
-34.001434
  20
134.595367
  0
POINT
  8
3
  10
-34.343777
  20
134.699417
  0
POINT
  8
3
  10
-34.681984
  20
134.809235
  0
POINT
  8
3
  10
-35.016487
  20
134.925110
  0
POINT
  8
3
  10
-35.347710
  20
135.047256
  0
POINT
  8
3
  10
-35.676067
  20
135.175949
  0
POINT
  8
3
  10
-36.001984
  20
135.311417
  0
POINT
  8
3
  10
-36.325886
  20
135.453918
  0
POINT
  8
3
  10
-36.648190
  20
135.603714
  0
POINT
  8
3
  10
-36.969318
  20
135.761032
  0
POINT
  8
3
  10
-37.289692
  20
135.926147
  0
POINT
  8
3
  10
-37.609737
  20
136.099274
  0
POINT
  8
3
  10
-37.929871
  20
136.280701
  0
POINT
  8
3
  10
-38.250519
  20
136.470657
  0
POINT
  8
3
  10
-38.572102
  20
136.669388
  0
POINT
  8
3
  10
-38.895039
  20
136.877136
  0
POINT
  8
3
  10
-39.219757
  20
137.094177
  0
POINT
  8
3
  10
-39.546669
  20
137.320755
  0
POINT
  8
3
  10
-39.876205
  20
137.557098
  0
POINT
  8
3
  10
-40.208782
  20
137.803482
  0
POINT
  8
3
  10
-40.544827
  20
138.060135
  0
POINT
  8
3
  10
-40.884758
  20
138.327316
  0
POINT
  8
3
  10
-41.228996
  20
138.605270
  0
POINT
  8
3
  10
-41.944355
  20
139.189346
  0
POINT
  8
3
  10
-42.301559
  20
139.473267
  0
POINT
  8
3
  10
-42.650352
  20
139.746170
  0
POINT
  8
3
  10
-42.991493
  20
140.008240
  0
POINT
  8
3
  10
-43.325745
  20
140.259644
  0
POINT
  8
3
  10
-43.653862
  20
140.500565
  0
POINT
  8
3
  10
-43.976616
  20
140.731155
  0
POINT
  8
3
  10
-44.294762
  20
140.951614
  0
POINT
  8
3
  10
-44.609062
  20
141.162109
  0
POINT
  8
3
  10
-44.920280
  20
141.362808
  0
POINT
  8
3
  10
-45.229179
  20
141.553894
  0
POINT
  8
3
  10
-45.536522
  20
141.735535
  0
POINT
  8
3
  10
-45.843071
  20
141.907898
  0
POINT
  8
3
  10
-46.149582
  20
142.071167
  0
POINT
  8
3
  10
-46.456825
  20
142.225510
  0
POINT
  8
3
  10
-46.765556
  20
142.371109
  0
POINT
  8
3
  10
-47.076538
  20
142.508133
  0
POINT
  8
3
  10
-47.390537
  20
142.636765
  0
POINT
  8
3
  10
-47.708309
  20
142.757156
  0
POINT
  8
3
  10
-48.030624
  20
142.869492
  0
POINT
  8
3
  10
-48.358234
  20
142.973969
  0
POINT
  8
3
  10
-48.691910
  20
143.070724
  0
POINT
  8
3
  10
-49.032410
  20
143.159958
  0
POINT
  8
3
  10
-49.380493
  20
143.241821
  0
POINT
  8
3
  10
-49.736927
  20
143.316513
  0
POINT
  8
3
  10
-50.102470
  20
143.384201
  0
POINT
  8
3
  10
-50.477890
  20
143.445053
  0
POINT
  8
3
  10
-50.863937
  20
143.499237
  0
POINT
  8
3
  10
-51.784397
  20
143.583847
  0
POINT
  8
3
  10
-52.298485
  20
143.602173
  0
POINT
  8
3
  10
-52.803555
  20
143.602753
  0
POINT
  8
3
  10
-53.299500
  20
143.586426
  0
POINT
  8
3
  10
-53.786217
  20
143.554016
  0
POINT
  8
3
  10
-54.263599
  20
143.506378
  0
POINT
  8
3
  10
-54.731552
  20
143.444336
  0
POINT
  8
3
  10
-55.189968
  20
143.368713
  0
POINT
  8
3
  10
-55.638741
  20
143.280380
  0
POINT
  8
3
  10
-56.077774
  20
143.180161
  0
POINT
  8
3
  10
-56.506962
  20
143.068878
  0
POINT
  8
3
  10
-56.926201
  20
142.947388
  0
POINT
  8
3
  10
-57.335388
  20
142.816513
  0
POINT
  8
3
  10
-57.734421
  20
142.677094
  0
POINT
  8
3
  10
-58.123196
  20
142.529968
  0
POINT
  8
3
  10
-58.501610
  20
142.375977
  0
POINT
  8
3
  10
-58.869564
  20
142.215958
  0
POINT
  8
3
  10
-59.226952
  20
142.050735
  0
POINT
  8
3
  10
-59.573669
  20
141.881149
  0
POINT
  8
3
  10
-59.909618
  20
141.708054
  0
POINT
  8
3
  10
-60.234688
  20
141.532272
  0
POINT
  8
3
  10
-60.548782
  20
141.354630
  0
POINT
  8
3
  10
-60.851799
  20
141.175995
  0
POINT
  8
3
  10
-61.143631
  20
140.997177
  0
POINT
  8
3
  10
-61.424175
  20
140.819016
  0
POINT
  8
3
  10
-61.693333
  20
140.642365
  0
POINT
  8
3
  10
-61.950996
  20
140.468048
  0
POINT
  8
3
  10
-62.197063
  20
140.296906
  0
POINT
  8
3
  10
-62.647717
  20
139.972641
  0
POINT
  8
3
  10
-62.876026
  20
139.805084
  0
POINT
  8
3
  10
-63.116119
  20
139.627838
  0
POINT
  8
3
  10
-63.367771
  20
139.441666
  0
POINT
  8
3
  10
-63.630745
  20
139.247299
  0
POINT
  8
3
  10
-63.904819
  20
139.045502
  0
POINT
  8
3
  10
-64.189743
  20
138.837006
  0
POINT
  8
3
  10
-64.485291
  20
138.622589
  0
POINT
  8
3
  10
-64.791245
  20
138.402985
  0
POINT
  8
3
  10
-65.107346
  20
138.178955
  0
POINT
  8
3
  10
-65.433380
  20
137.951248
  0
POINT
  8
3
  10
-65.769104
  20
137.720596
  0
POINT
  8
3
  10
-66.114296
  20
137.487778
  0
POINT
  8
3
  10
-66.468704
  20
137.253525
  0
POINT
  8
3
  10
-66.832115
  20
137.018585
  0
POINT
  8
3
  10
-67.204292
  20
136.783722
  0
POINT
  8
3
  10
-67.584999
  20
136.549683
  0
POINT
  8
3
  10
-67.973991
  20
136.317230
  0
POINT
  8
3
  10
-68.371063
  20
136.087082
  0
POINT
  8
3
  10
-68.775955
  20
135.860016
  0
POINT
  8
3
  10
-69.188446
  20
135.636780
  0
POINT
  8
3
  10
-69.608307
  20
135.418121
  0
POINT
  8
3
  10
-70.035301
  20
135.204788
  0
POINT
  8
3
  10
-70.469193
  20
134.997528
  0
POINT
  8
3
  10
-70.909744
  20
134.797104
  0
POINT
  8
3
  10
-71.356735
  20
134.604248
  0
POINT
  8
3
  10
-71.809929
  20
134.419724
  0
POINT
  8
3
  10
-72.269089
  20
134.244293
  0
POINT
  8
3
  10
-69.016022
  20
126.347450
  0
POINT
  8
3
  10
-67.835205
  20
126.385429
  0
POINT
  8
3
  10
-66.649742
  20
126.420403
  0
POINT
  8
3
  10
-65.459679
  20
126.452377
  0
POINT
  8
3
  10
-64.265068
  20
126.481369
  0
POINT
  8
3
  10
-63.065979
  20
126.507378
  0
POINT
  8
3
  10
-61.862453
  20
126.530426
  0
POINT
  8
3
  10
-60.654556
  20
126.550522
  0
POINT
  8
3
  10
-59.442345
  20
126.567657
  0
POINT
  8
3
  10
-58.225872
  20
126.581863
  0
POINT
  8
3
  10
-57.005196
  20
126.593140
  0
POINT
  8
3
  10
-55.780373
  20
126.601501
  0
POINT
  8
3
  10
-54.551460
  20
126.606949
  0
POINT
  8
3
  10
-53.318516
  20
126.609505
  0
POINT
  8
3
  10
-52.081593
  20
126.609169
  0
POINT
  8
3
  10
-50.840748
  20
126.605949
  0
POINT
  8
3
  10
-49.596039
  20
126.599869
  0
POINT
  8
3
  10
-48.347527
  20
126.590919
  0
POINT
  8
3
  10
-47.095261
  20
126.579124
  0
POINT
  8
3
  10
-45.839302
  20
126.564491
  0
POINT
  8
3
  10
-44.579704
  20
126.547020
  0
POINT
  8
3
  10
-43.316525
  20
126.526733
  0
POINT
  8
3
  10
-42.049820
  20
126.503639
  0
POINT
  8
3
  10
-40.779648
  20
126.477737
  0
POINT
  8
3
  10
-39.506065
  20
126.449043
  0
POINT
  8
3
  10
-38.229130
  20
126.417572
  0
POINT
  8
3
  10
-36.948895
  20
126.383324
  0
POINT
  8
3
  10
-35.665421
  20
126.346321
  0
POINT
  8
4
  10
-41.577965
  20
138.894241
  50
128.849014
  0
POINT
  8
4
  10
-51.261383
  20
143.546936
  50
94.037079
  0
POINT
  8
4
  10
-61.608650
  20
140.697937
  50
57.239540
  0
POINT
  8
4
  10
-62.431435
  20
140.129761
  50
54.002960
  0
LINE
  8
7
  10
-52.285561
  20
126.151367
  11
-52.285561
  21
144.151367
  0
POLYLINE
  8
84
  66
1
  70
1
  250
2
  0
VERTEX
  8
84
  10
-34.378754
  20
126.306557
  0
VERTEX
  8
84
  10
-31.837135
  20
134.078674
  0
VERTEX
  8
84
  10
-35.504913
  20
134.779480
  0
VERTEX
  8
84
  10
-38.180382
  20
136.046661
  0
VERTEX
  8
84
  10
-41.577965
  20
138.894241
  0
VERTEX
  8
84
  10
-45.166523
  20
141.801514
  0
VERTEX
  8
84
  10
-47.361866
  20
143.116608
  0
VERTEX
  8
84
  10
-51.261383
  20
143.546936
  0
VERTEX
  8
84
  10
-56.359932
  20
143.996292
  0
VERTEX
  8
84
  10
-60.222717
  20
141.723328
  0
VERTEX
  8
84
  10
-62.431435
  20
140.129761
  0
VERTEX
  8
84
  10
-64.463310
  20
138.663803
  0
VERTEX
  8
84
  10
-68.213028
  20
135.629623
  0
VERTEX
  8
84
  10
-72.733986
  20
134.078674
  0
VERTEX
  8
84
  10
-70.192116
  20
126.306458
  0
VERTEX
  8
84
  10
-58.846130
  20
126.717331
  0
VERTEX
  8
84
  10
-46.831703
  20
126.704185
  0
SEQEND
  0
POINT
  8
2
  10
-34.378754
  20
126.306557
  0
POINT
  8
2
  10
-31.837135
  20
134.078674
  0
POINT
  8
2
  10
-41.577965
  20
138.894241
  0
POINT
  8
2
  10
-51.261383
  20
143.546936
  0
POINT
  8
2
  10
-62.431435
  20
140.129761
  0
POINT
  8
2
  10
-72.733986
  20
134.078674
  0
POINT
  8
2
  10
-70.192116
  20
126.306458
  0
POINT
  8
3
  10
-35.504913
  20
134.779480
  0
POINT
  8
3
  10
-38.180382
  20
136.046661
  0
POINT
  8
3
  10
-45.166523
  20
141.801514
  0
POINT
  8
3
  10
-47.361866
  20
143.116608
  0
POINT
  8
3
  10
-56.359932
  20
143.996292
  0
POINT
  8
3
  10
-60.222717
  20
141.723328
  0
POINT
  8
3
  10
-64.463310
  20
138.663803
  0
POINT
  8
3
  10
-68.213028
  20
135.629623
  0
POINT
  8
3
  10
-58.846130
  20
126.717331
  0
POINT
  8
3
  10
-46.831703
  20
126.704185
  0
POLYLINE
  8
8
  66
1
  70
0
  250
0
  0
VERTEX
  8
8
  10
-72.737526
  20
134.077301
  0
VERTEX
  8
8
  10
-31.837135
  20
134.078720
  0
SEQEND
  0
POINT
  8
2
  10
-72.737526
  20
134.077301
  0
POLYLINE
  8
8
  66
1
  70
0
  250
0
  0
VERTEX
  8
8
  10
-52.287754
  20
143.626465
  0
VERTEX
  8
8
  10
-52.287148
  20
126.626495
  0
SEQEND
  0
POINT
  8
2
  10
-52.287754
  20
143.626465
  0
ENDBLK
  0
ENDSEC
  0
SECTION
  2
ENTITIES
  0
INSERT
  8
1
  2
11_M
  10
0.000000
  20
0.000000
  0
INSERT
  8
1
  2
Pattern2D_768516_M
  10
0.000000
  20
0.000000
  0
INSERT
  8
1
  2
7_M
  10
0.000000
  20
0.000000
  0
INSERT
  8
1
  2
Pattern2D_768527_M
  10
0.000000
  20
0.000000
  0
INSERT
  8
1
  2
36_M
  10
0.000000
  20
0.000000
  0
INSERT
  8
1
  2
37_M
  10
0.000000
  20
0.000000
  0
INSERT
  8
1
  2
Pattern2D_768528_M
  10
0.000000
  20
0.000000
  0
INSERT
  8
1
  2
38_M
  10
0.000000
  20
0.000000
  0
INSERT
  8
1
  2
39_M
  10
0.000000
  20
0.000000
  0
TEXT
  8
1
  10
0.000000
  20
0.000000
  40
0.250000
  50
0.000000
  1
STYLE NAME: clo2-pattern
  7
STANDARD
  0
TEXT
  8
1
  10
0.000000
  20
0.000000
  40
0.250000
  50
0.000000
  1
CREATION DATE: 09-03-2018
  7
STANDARD
  0
TEXT
  8
1
  10
0.000000
  20
0.000000
  40
0.250000
  50
0.000000
  1
CREATION TIME: 08:40
  7
STANDARD
  0
TEXT
  8
1
  10
0.000000
  20
0.000000
  40
0.250000
  50
0.000000
  1
AUTHOR: CLO Virtual Fashion Inc.
  7
STANDARD
  0
TEXT
  8
1
  10
0.000000
  20
0.000000
  40
0.250000
  50
0.000000
  1
PRODUCT: CLO Standalone OnlineAuth 4.0.129
  7
STANDARD
  0
TEXT
  8
1
  10
0.000000
  20
0.000000
  40
0.250000
  50
0.000000
  1
VERSION: 3
  7
STANDARD
  0
TEXT
  8
1
  10
0.000000
  20
0.000000
  40
0.250000
  50
0.000000
  1
SAMPLE SIZE: M
  7
STANDARD
  0
TEXT
  8
1
  10
0.000000
  20
0.000000
  40
0.250000
  50
0.000000
  1
UNITS: METRIC
  7
STANDARD
  0
ENDSEC
  0
EOF
