  0
SECTION
  2
HEADER
  0
ENDSEC
  0
SECTION
  2
BLOCKS
  0
BLOCK
  8
0
  2
DEEP ARMHOLE RACE FR_26
 70
64
 10
0.0000
 20
0.0000
  0
TEXT
  8
1
 10
13.5624
 20
21.9708
 40
0.250
 50
0.0000
  1
Piece Name: DEEP ARMHOLE RACE FR
  7
STANDARD
  0
TEXT
  8
1
 10
13.5624
 20
22.1108
 40
0.250
 50
0.0000
  1
SIZE: 26
  7
STANDARD
  0
POLYLINE
  8
1
 66
1
 70
0
  0
VERTEX
  8
1
 10
0.3226
 20
17.7132
  0
VERTEX
  8
1
 10
0.3431
 20
19.4633
  0
VERTEX
  8
1
 10
0.4356
 20
20.7686
  0
VERTEX
  8
1
 10
0.6047
 20
21.9476
  0
VERTEX
  8
1
 10
0.8504
 20
23.0006
  0
VERTEX
  8
1
 10
1.1727
 20
23.9278
  0
VERTEX
  8
1
 10
1.5716
 20
24.7299
  0
VERTEX
  8
1
 10
2.0469
 20
25.4073
  0
VERTEX
  8
1
 10
2.8742
 20
26.2284
  0
SEQEND
  8
1
  0
POLYLINE
  8
1
 66
1
 70
0
  0
VERTEX
  8
1
 10
2.8742
 20
26.2284
  0
VERTEX
  8
1
 10
6.7694
 20
26.1672
  0
VERTEX
  8
1
 10
12.8422
 20
26.0595
  0
VERTEX
  8
1
 10
15.5110
 20
25.9580
  0
SEQEND
  8
1
  0
POLYLINE
  8
1
 66
1
 70
0
  0
VERTEX
  8
1
 10
15.5110
 20
25.9580
  0
VERTEX
  8
1
 10
15.6495
 20
25.2849
  0
VERTEX
  8
1
 10
16.4712
 20
24.4264
  0
VERTEX
  8
1
 10
17.9488
 20
23.6997
  0
VERTEX
  8
1
 10
19.5707
 20
23.2986
  0
VERTEX
  8
1
 10
19.6443
 20
23.2856
  0
VERTEX
  8
1
 10
22.3562
 20
23.0412
  0
VERTEX
  8
1
 10
24.8421
 20
23.1454
  0
VERTEX
  8
1
 10
26.4178
 20
23.4284
  0
SEQEND
  8
1
  0
POLYLINE
  8
1
 66
1
 70
0
  0
VERTEX
  8
1
 10
26.4178
 20
23.4284
  0
VERTEX
  8
1
 10
26.8022
 20
22.4777
  0
SEQEND
  8
1
  0
POLYLINE
  8
1
 66
1
 70
0
  0
VERTEX
  8
1
 10
26.8022
 20
22.4777
  0
VERTEX
  8
1
 10
25.8160
 20
22.1665
  0
VERTEX
  8
1
 10
24.1912
 20
21.2920
  0
VERTEX
  8
1
 10
22.9384
 20
20.1768
  0
VERTEX
  8
1
 10
22.0872
 20
18.4273
  0
VERTEX
  8
1
 10
22.0508
 20
17.7137
  0
SEQEND
  8
1
  0
POLYLINE
  8
1
 66
1
 70
0
  0
VERTEX
  8
1
 10
22.0508
 20
17.7137
  0
VERTEX
  8
1
 10
0.3226
 20
17.7132
  0
SEQEND
  8
1
  0
LINE
  8
7
 10
7.6437
 20
22.4384
 11
19.9825
 21
22.4384
  0
LINE
  8
5
 10
7.6437
 20
22.4384
 11
19.9825
 21
22.4384
  0
LINE
  8
8
 10
4.6692
 20
27.4589
 11
4.6692
 21
17.7133
  0
LINE
  8
8
 10
11.6645
 20
26.5246
 11
11.6645
 21
17.7135
  0
LINE
  8
8
 10
14.8141
 20
26.0794
 11
14.8141
 21
17.7135
  0
POLYLINE
  8
8
 66
1
 70
0
  0
VERTEX
  8
8
 10
9.9620
 20
20.8572
  0
VERTEX
  8
8
 10
8.6921
 20
20.8572
  0
VERTEX
  8
8
 10
8.6921
 20
21.8510
  0
SEQEND
  8
8
  0
LINE
  8
8
 10
19.8787
 20
17.7137
 11
19.9074
 21
23.2447
  0
LINE
  8
8
 10
17.0818
 20
17.7136
 11
17.0831
 21
24.0706
  0
LINE
  8
8
 10
15.5883
 20
25.9654
 11
15.5683
 21
17.7136
  0
LINE
  8
6
 10
22.0508
 20
17.7137
 11
0.3226
 21
17.7132
  0
ENDBLK
  0
BLOCK
  8
0
  2
DEEP ARMHOLE RACE FR_28
 70
64
 10
0.0000
 20
0.0000
  0
TEXT
  8
1
 10
13.5624
 20
22.0989
 40
0.250
 50
0.0000
  1
Piece Name: DEEP ARMHOLE RACE FR
  7
STANDARD
  0
TEXT
  8
1
 10
13.5624
 20
22.2389
 40
0.250
 50
0.0000
  1
SIZE: 28
  7
STANDARD
  0
POLYLINE
  8
1
 66
1
 70
0
  0
VERTEX
  8
1
 10
0.3226
 20
17.7132
  0
VERTEX
  8
1
 10
0.3684
 20
19.5231
  0
VERTEX
  8
1
 10
0.4826
 20
20.8718
  0
VERTEX
  8
1
 10
0.6740
 20
22.0889
  0
VERTEX
  8
1
 10
0.9429
 20
23.1746
  0
VERTEX
  8
1
 10
1.2892
 20
24.1291
  0
VERTEX
  8
1
 10
1.7129
 20
24.9530
  0
VERTEX
  8
1
 10
2.2142
 20
25.6470
  0
VERTEX
  8
1
 10
3.0814
 20
26.4846
  0
SEQEND
  8
1
  0
POLYLINE
  8
1
 66
1
 70
0
  0
VERTEX
  8
1
 10
3.0814
 20
26.4846
  0
VERTEX
  8
1
 10
6.9133
 20
26.3441
  0
VERTEX
  8
1
 10
12.8867
 20
26.1129
  0
VERTEX
  8
1
 10
15.5110
 20
25.9580
  0
SEQEND
  8
1
  0
POLYLINE
  8
1
 66
1
 70
0
  0
VERTEX
  8
1
 10
15.5110
 20
25.9580
  0
VERTEX
  8
1
 10
15.6551
 20
25.2771
  0
VERTEX
  8
1
 10
16.4924
 20
24.4123
  0
VERTEX
  8
1
 10
17.9930
 20
23.6847
  0
VERTEX
  8
1
 10
19.6380
 20
23.2878
  0
VERTEX
  8
1
 10
19.7125
 20
23.2751
  0
VERTEX
  8
1
 10
22.4607
 20
23.0431
  0
VERTEX
  8
1
 10
24.9779
 20
23.1629
  0
VERTEX
  8
1
 10
26.4193
 20
23.4251
  0
SEQEND
  8
1
  0
POLYLINE
  8
1
 66
1
 70
0
  0
VERTEX
  8
1
 10
26.4193
 20
23.4251
  0
VERTEX
  8
1
 10
26.8022
 20
22.4778
  0
SEQEND
  8
1
  0
POLYLINE
  8
1
 66
1
 70
0
  0
VERTEX
  8
1
 10
26.8022
 20
22.4778
  0
VERTEX
  8
1
 10
25.8160
 20
22.1666
  0
VERTEX
  8
1
 10
24.1912
 20
21.2921
  0
VERTEX
  8
1
 10
22.9384
 20
20.1769
  0
VERTEX
  8
1
 10
22.0872
 20
18.4274
  0
VERTEX
  8
1
 10
22.0508
 20
17.7137
  0
SEQEND
  8
1
  0
POLYLINE
  8
1
 66
1
 70
0
  0
VERTEX
  8
1
 10
22.0508
 20
17.7137
  0
VERTEX
  8
1
 10
0.3226
 20
17.7132
  0
SEQEND
  8
1
  0
LINE
  8
7
 10
7.6437
 20
22.4384
 11
19.9825
 21
22.4384
  0
LINE
  8
5
 10
7.6437
 20
22.4384
 11
19.9825
 21
22.4384
  0
LINE
  8
8
 10
4.6692
 20
27.4589
 11
4.6692
 21
17.7133
  0
LINE
  8
8
 10
11.6645
 20
26.5246
 11
11.6645
 21
17.7135
  0
LINE
  8
8
 10
14.8141
 20
26.0794
 11
14.8141
 21
17.7135
  0
POLYLINE
  8
8
 66
1
 70
0
  0
VERTEX
  8
8
 10
9.9620
 20
20.8572
  0
VERTEX
  8
8
 10
8.6921
 20
20.8572
  0
VERTEX
  8
8
 10
8.6921
 20
21.8510
  0
SEQEND
  8
8
  0
LINE
  8
8
 10
19.8787
 20
17.7137
 11
19.9074
 21
23.2447
  0
LINE
  8
8
 10
17.0818
 20
17.7136
 11
17.0831
 21
24.0706
  0
LINE
  8
8
 10
15.5883
 20
25.9654
 11
15.5683
 21
17.7136
  0
LINE
  8
6
 10
22.0508
 20
17.7137
 11
0.3226
 21
17.7132
  0
ENDBLK
  0
BLOCK
  8
0
  2
DEEP ARMHOLE RACE FR_30
 70
64
 10
0.0000
 20
0.0000
  0
TEXT
  8
1
 10
13.5624
 20
22.2271
 40
0.250
 50
0.0000
  1
Piece Name: DEEP ARMHOLE RACE FR
  7
STANDARD
  0
TEXT
  8
1
 10
13.5624
 20
22.3671
 40
0.250
 50
0.0000
  1
SIZE: 30
  7
STANDARD
  0
POLYLINE
  8
1
 66
1
 70
0
  0
VERTEX
  8
1
 10
0.3226
 20
17.7132
  0
VERTEX
  8
1
 10
0.4017
 20
19.5851
  0
VERTEX
  8
1
 10
0.5434
 20
20.9787
  0
VERTEX
  8
1
 10
0.7630
 20
22.2348
  0
VERTEX
  8
1
 10
1.0602
 20
23.3535
  0
VERTEX
  8
1
 10
1.4355
 20
24.3350
  0
VERTEX
  8
1
 10
1.8882
 20
25.1802
  0
VERTEX
  8
1
 10
2.4190
 20
25.8895
  0
VERTEX
  8
1
 10
3.3311
 20
26.7410
  0
SEQEND
  8
1
  0
POLYLINE
  8
1
 66
1
 70
0
  0
VERTEX
  8
1
 10
3.3311
 20
26.7410
  0
VERTEX
  8
1
 10
7.0864
 20
26.5211
  0
VERTEX
  8
1
 10
12.9404
 20
26.1662
  0
VERTEX
  8
1
 10
15.5110
 20
25.9580
  0
SEQEND
  8
1
  0
POLYLINE
  8
1
 66
1
 70
0
  0
VERTEX
  8
1
 10
15.5110
 20
25.9580
  0
VERTEX
  8
1
 10
15.6607
 20
25.2693
  0
VERTEX
  8
1
 10
16.5134
 20
24.3981
  0
VERTEX
  8
1
 10
18.0373
 20
23.6697
  0
VERTEX
  8
1
 10
19.7052
 20
23.2770
  0
VERTEX
  8
1
 10
19.7810
 20
23.2645
  0
VERTEX
  8
1
 10
22.5652
 20
23.0450
  0
VERTEX
  8
1
 10
25.1137
 20
23.1804
  0
VERTEX
  8
1
 10
26.4217
 20
23.4201
  0
SEQEND
  8
1
  0
POLYLINE
  8
1
 66
1
 70
0
  0
VERTEX
  8
1
 10
26.4217
 20
23.4201
  0
VERTEX
  8
1
 10
26.8022
 20
22.4777
  0
SEQEND
  8
1
  0
POLYLINE
  8
1
 66
1
 70
0
  0
VERTEX
  8
1
 10
26.8022
 20
22.4777
  0
VERTEX
  8
1
 10
25.8160
 20
22.1665
  0
VERTEX
  8
1
 10
24.1912
 20
21.2920
  0
VERTEX
  8
1
 10
22.9384
 20
20.1768
  0
VERTEX
  8
1
 10
22.0872
 20
18.4273
  0
VERTEX
  8
1
 10
22.0508
 20
17.7137
  0
SEQEND
  8
1
  0
POLYLINE
  8
1
 66
1
 70
0
  0
VERTEX
  8
1
 10
22.0508
 20
17.7137
  0
VERTEX
  8
1
 10
0.3226
 20
17.7132
  0
SEQEND
  8
1
  0
LINE
  8
7
 10
7.6437
 20
22.4384
 11
19.9825
 21
22.4384
  0
LINE
  8
5
 10
7.6437
 20
22.4384
 11
19.9825
 21
22.4384
  0
LINE
  8
8
 10
4.6692
 20
27.4589
 11
4.6692
 21
17.7133
  0
LINE
  8
8
 10
11.6645
 20
26.5246
 11
11.6645
 21
17.7135
  0
LINE
  8
8
 10
14.8141
 20
26.0794
 11
14.8141
 21
17.7135
  0
POLYLINE
  8
8
 66
1
 70
0
  0
VERTEX
  8
8
 10
9.9620
 20
20.8572
  0
VERTEX
  8
8
 10
8.6921
 20
20.8572
  0
VERTEX
  8
8
 10
8.6921
 20
21.8510
  0
SEQEND
  8
8
  0
LINE
  8
8
 10
19.8787
 20
17.7137
 11
19.9074
 21
23.2447
  0
LINE
  8
8
 10
17.0818
 20
17.7136
 11
17.0831
 21
24.0706
  0
LINE
  8
8
 10
15.5883
 20
25.9654
 11
15.5683
 21
17.7136
  0
LINE
  8
6
 10
22.0508
 20
17.7137
 11
0.3226
 21
17.7132
  0
ENDBLK
  0
BLOCK
  8
0
  2
DEEP ARMHOLE RACE FR_32
 70
64
 10
0.0000
 20
0.0000
  0
TEXT
  8
1
 10
13.5624
 20
22.3560
 40
0.250
 50
0.0000
  1
Piece Name: DEEP ARMHOLE RACE FR
  7
STANDARD
  0
TEXT
  8
1
 10
13.5624
 20
22.4960
 40
0.250
 50
0.0000
  1
SIZE: 32
  7
STANDARD
  0
POLYLINE
  8
1
 66
1
 70
0
  0
VERTEX
  8
1
 10
0.3226
 20
17.7132
  0
VERTEX
  8
1
 10
0.4397
 20
19.6488
  0
VERTEX
  8
1
 10
0.6123
 20
21.0883
  0
VERTEX
  8
1
 10
0.8631
 20
22.3839
  0
VERTEX
  8
1
 10
1.1916
 20
23.5360
  0
VERTEX
  8
1
 10
1.5983
 20
24.5447
  0
VERTEX
  8
1
 10
2.0828
 20
25.4108
  0
VERTEX
  8
1
 10
2.6453
 20
26.1349
  0
VERTEX
  8
1
 10
3.6051
 20
26.9989
  0
SEQEND
  8
1
  0
POLYLINE
  8
1
 66
1
 70
0
  0
VERTEX
  8
1
 10
3.6051
 20
26.9989
  0
VERTEX
  8
1
 10
7.2764
 20
26.6990
  0
VERTEX
  8
1
 10
12.9993
 20
26.2197
  0
VERTEX
  8
1
 10
15.5110
 20
25.9580
  0
SEQEND
  8
1
  0
POLYLINE
  8
1
 66
1
 70
0
  0
VERTEX
  8
1
 10
15.5110
 20
25.9580
  0
VERTEX
  8
1
 10
15.6664
 20
25.2614
  0
VERTEX
  8
1
 10
16.5345
 20
24.3840
  0
VERTEX
  8
1
 10
18.0815
 20
23.6548
  0
VERTEX
  8
1
 10
19.7727
 20
23.2662
  0
VERTEX
  8
1
 10
19.8494
 20
23.2540
  0
VERTEX
  8
1
 10
22.6697
 20
23.0470
  0
VERTEX
  8
1
 10
25.2496
 20
23.1980
  0
VERTEX
  8
1
 10
26.4250
 20
23.4131
  0
SEQEND
  8
1
  0
POLYLINE
  8
1
 66
1
 70
0
  0
VERTEX
  8
1
 10
26.4250
 20
23.4131
  0
VERTEX
  8
1
 10
26.8022
 20
22.4776
  0
SEQEND
  8
1
  0
POLYLINE
  8
1
 66
1
 70
0
  0
VERTEX
  8
1
 10
26.8022
 20
22.4776
  0
VERTEX
  8
1
 10
25.8160
 20
22.1664
  0
VERTEX
  8
1
 10
24.1912
 20
21.2919
  0
VERTEX
  8
1
 10
22.9384
 20
20.1767
  0
VERTEX
  8
1
 10
22.0872
 20
18.4272
  0
VERTEX
  8
1
 10
22.0508
 20
17.7137
  0
SEQEND
  8
1
  0
POLYLINE
  8
1
 66
1
 70
0
  0
VERTEX
  8
1
 10
22.0508
 20
17.7137
  0
VERTEX
  8
1
 10
0.3226
 20
17.7132
  0
SEQEND
  8
1
  0
LINE
  8
7
 10
7.6437
 20
22.4384
 11
19.9825
 21
22.4384
  0
LINE
  8
5
 10
7.6437
 20
22.4384
 11
19.9825
 21
22.4384
  0
LINE
  8
8
 10
4.6692
 20
27.4589
 11
4.6692
 21
17.7133
  0
LINE
  8
8
 10
11.6645
 20
26.5246
 11
11.6645
 21
17.7135
  0
LINE
  8
8
 10
14.8141
 20
26.0794
 11
14.8141
 21
17.7135
  0
POLYLINE
  8
8
 66
1
 70
0
  0
VERTEX
  8
8
 10
9.9620
 20
20.8572
  0
VERTEX
  8
8
 10
8.6921
 20
20.8572
  0
VERTEX
  8
8
 10
8.6921
 20
21.8510
  0
SEQEND
  8
8
  0
LINE
  8
8
 10
19.8787
 20
17.7137
 11
19.9074
 21
23.2447
  0
LINE
  8
8
 10
17.0818
 20
17.7136
 11
17.0831
 21
24.0706
  0
LINE
  8
8
 10
15.5883
 20
25.9654
 11
15.5683
 21
17.7136
  0
LINE
  8
6
 10
22.0508
 20
17.7137
 11
0.3226
 21
17.7132
  0
ENDBLK
  0
BLOCK
  8
0
  2
DEEP ARMHOLE RACE FR_34
 70
64
 10
0.0000
 20
0.0000
  0
TEXT
  8
1
 10
13.5624
 20
22.4860
 40
0.250
 50
0.0000
  1
Piece Name: DEEP ARMHOLE RACE FR
  7
STANDARD
  0
TEXT
  8
1
 10
13.5624
 20
22.6260
 40
0.250
 50
0.0000
  1
SIZE: 34
  7
STANDARD
  0
POLYLINE
  8
1
 66
1
 70
0
  0
VERTEX
  8
1
 10
0.3226
 20
17.7132
  0
VERTEX
  8
1
 10
0.4806
 20
19.7139
  0
VERTEX
  8
1
 10
0.6869
 20
21.2001
  0
VERTEX
  8
1
 10
0.9711
 20
22.5359
  0
VERTEX
  8
1
 10
1.3332
 20
23.7218
  0
VERTEX
  8
1
 10
1.7733
 20
24.7578
  0
VERTEX
  8
1
 10
2.2912
 20
25.6447
  0
VERTEX
  8
1
 10
2.8871
 20
26.3832
  0
VERTEX
  8
1
 10
3.8966
 20
27.2589
  0
SEQEND
  8
1
  0
POLYLINE
  8
1
 66
1
 70
0
  0
VERTEX
  8
1
 10
3.8966
 20
27.2589
  0
VERTEX
  8
1
 10
7.4785
 20
26.8783
  0
VERTEX
  8
1
 10
13.0618
 20
26.2736
  0
VERTEX
  8
1
 10
15.5110
 20
25.9580
  0
SEQEND
  8
1
  0
POLYLINE
  8
1
 66
1
 70
0
  0
VERTEX
  8
1
 10
15.5110
 20
25.9580
  0
VERTEX
  8
1
 10
15.6721
 20
25.2536
  0
VERTEX
  8
1
 10
16.5557
 20
24.3699
  0
VERTEX
  8
1
 10
18.1257
 20
23.6398
  0
VERTEX
  8
1
 10
19.8400
 20
23.2555
  0
VERTEX
  8
1
 10
19.9176
 20
23.2435
  0
VERTEX
  8
1
 10
22.7742
 20
23.0489
  0
VERTEX
  8
1
 10
25.3853
 20
23.2155
  0
VERTEX
  8
1
 10
26.4276
 20
23.4077
  0
SEQEND
  8
1
  0
POLYLINE
  8
1
 66
1
 70
0
  0
VERTEX
  8
1
 10
26.4276
 20
23.4077
  0
VERTEX
  8
1
 10
26.8022
 20
22.4776
  0
SEQEND
  8
1
  0
POLYLINE
  8
1
 66
1
 70
0
  0
VERTEX
  8
1
 10
26.8022
 20
22.4776
  0
VERTEX
  8
1
 10
25.8160
 20
22.1664
  0
VERTEX
  8
1
 10
24.1912
 20
21.2919
  0
VERTEX
  8
1
 10
22.9384
 20
20.1767
  0
VERTEX
  8
1
 10
22.0872
 20
18.4272
  0
VERTEX
  8
1
 10
22.0508
 20
17.7137
  0
SEQEND
  8
1
  0
POLYLINE
  8
1
 66
1
 70
0
  0
VERTEX
  8
1
 10
22.0508
 20
17.7137
  0
VERTEX
  8
1
 10
0.3226
 20
17.7132
  0
SEQEND
  8
1
  0
LINE
  8
7
 10
7.6437
 20
22.4384
 11
19.9825
 21
22.4384
  0
LINE
  8
5
 10
7.6437
 20
22.4384
 11
19.9825
 21
22.4384
  0
LINE
  8
8
 10
4.6692
 20
27.4589
 11
4.6692
 21
17.7133
  0
LINE
  8
8
 10
11.6645
 20
26.5246
 11
11.6645
 21
17.7135
  0
LINE
  8
8
 10
14.8141
 20
26.0794
 11
14.8141
 21
17.7135
  0
POLYLINE
  8
8
 66
1
 70
0
  0
VERTEX
  8
8
 10
9.9620
 20
20.8572
  0
VERTEX
  8
8
 10
8.6921
 20
20.8572
  0
VERTEX
  8
8
 10
8.6921
 20
21.8510
  0
SEQEND
  8
8
  0
LINE
  8
8
 10
19.8787
 20
17.7137
 11
19.9074
 21
23.2447
  0
LINE
  8
8
 10
17.0818
 20
17.7136
 11
17.0831
 21
24.0706
  0
LINE
  8
8
 10
15.5883
 20
25.9654
 11
15.5683
 21
17.7136
  0
LINE
  8
6
 10
22.0508
 20
17.7137
 11
0.3226
 21
17.7132
  0
ENDBLK
  0
BLOCK
  8
0
  2
DEEP ARMHOLE RACE FR_36
 70
64
 10
0.0000
 20
0.0000
  0
TEXT
  8
1
 10
13.5624
 20
22.5860
 40
0.250
 50
0.0000
  1
Piece Name: DEEP ARMHOLE RACE FR
  7
STANDARD
  0
TEXT
  8
1
 10
13.5624
 20
22.7260
 40
0.250
 50
0.0000
  1
Quantity: 1
  7
STANDARD
  0
TEXT
  8
1
 10
13.5624
 20
22.8660
 40
0.250
 50
0.0000
  1
ANNOTATION: 1XFABRIC
  7
STANDARD
  0
TEXT
  8
1
 10
13.5624
 20
23.0060
 40
0.250
 50
0.0000
  1
CATEGORY: FRONT
  7
STANDARD
  0
TEXT
  8
1
 10
13.5624
 20
23.1460
 40
0.250
 50
0.0000
  1
Fabric: 1
  7
STANDARD
  0
TEXT
  8
1
 10
13.5624
 20
23.2860
 40
0.250
 50
0.0000
  1
SIZE: 36
  7
STANDARD
  0
POLYLINE
  8
1
 66
1
 70
0
  0
VERTEX
  8
1
 10
0.3226
 20
17.6817
  0
VERTEX
  8
1
 10
0.5226
 20
19.7483
  0
VERTEX
  8
1
 10
0.7630
 20
21.2818
  0
VERTEX
  8
1
 10
1.0812
 20
22.6584
  0
VERTEX
  8
1
 10
1.4772
 20
23.8784
  0
VERTEX
  8
1
 10
1.9513
 20
24.9420
  0
VERTEX
  8
1
 10
2.5031
 20
25.8500
  0
VERTEX
  8
1
 10
3.1330
 20
26.6030
  0
VERTEX
  8
1
 10
4.1930
 20
27.4904
  0
SEQEND
  8
1
  0
POINT
  8
4
 10
0.3226
 20
17.6817
 30
0.1574
 39
0.0000
  0
POINT
  8
2
 10
0.3226
 20
17.6817
  0
TEXT
  8
2
 10
0.3226
 20
17.6817
 40
0.250
 50
0.0000
  1
# 1
  7
STANDARD
  0
POINT
  8
3
 10
0.5226
 20
19.7483
  0
POINT
  8
3
 10
0.7630
 20
21.2818
  0
POINT
  8
3
 10
1.0812
 20
22.6584
  0
POINT
  8
3
 10
1.4772
 20
23.8784
  0
POINT
  8
3
 10
1.9513
 20
24.9420
  0
POINT
  8
3
 10
2.5031
 20
25.8500
  0
POINT
  8
3
 10
3.1330
 20
26.6030
  0
POINT
  8
2
 10
4.1930
 20
27.4904
  0
TEXT
  8
2
 10
4.1930
 20
27.4904
 40
0.250
 50
0.0000
  1
# 2
  7
STANDARD
  0
POLYLINE
  8
1
 66
1
 70
0
  0
VERTEX
  8
1
 10
4.1930
 20
27.4904
  0
VERTEX
  8
1
 10
7.6842
 20
27.0283
  0
VERTEX
  8
1
 10
13.1253
 20
26.2967
  0
VERTEX
  8
1
 10
15.5110
 20
25.9265
  0
SEQEND
  8
1
  0
POINT
  8
2
 10
4.1930
 20
27.4904
  0
TEXT
  8
2
 10
4.1930
 20
27.4904
 40
0.250
 50
0.0000
  1
# 2
  7
STANDARD
  0
POINT
  8
3
 10
7.6842
 20
27.0283
  0
POINT
  8
3
 10
13.1253
 20
26.2967
  0
POINT
  8
2
 10
15.5110
 20
25.9265
  0
TEXT
  8
2
 10
15.5110
 20
25.9265
 40
0.250
 50
0.0000
  1
# 1
  7
STANDARD
  0
POLYLINE
  8
1
 66
1
 70
0
  0
VERTEX
  8
1
 10
15.5110
 20
25.9265
  0
VERTEX
  8
1
 10
15.6778
 20
25.2143
  0
VERTEX
  8
1
 10
16.5769
 20
24.3243
  0
VERTEX
  8
1
 10
18.1701
 20
23.5934
  0
VERTEX
  8
1
 10
19.9074
 20
23.2132
  0
VERTEX
  8
1
 10
19.9861
 20
23.2015
  0
VERTEX
  8
1
 10
22.8789
 20
23.0193
  0
VERTEX
  8
1
 10
25.5212
 20
23.2015
  0
VERTEX
  8
1
 10
26.4283
 20
23.3748
  0
SEQEND
  8
1
  0
POINT
  8
2
 10
15.5110
 20
25.9265
  0
TEXT
  8
2
 10
15.5110
 20
25.9265
 40
0.250
 50
0.0000
  1
# 1
  7
STANDARD
  0
POINT
  8
3
 10
15.6778
 20
25.2143
  0
POINT
  8
3
 10
16.5769
 20
24.3243
  0
POINT
  8
3
 10
18.1701
 20
23.5934
  0
POINT
  8
3
 10
19.9074
 20
23.2132
  0
POINT
  8
3
 10
19.9861
 20
23.2015
  0
POINT
  8
3
 10
22.8789
 20
23.0193
  0
POINT
  8
2
 10
25.5212
 20
23.2015
  0
TEXT
  8
2
 10
25.5212
 20
23.2015
 40
0.250
 50
0.0000
  1
# 3
  7
STANDARD
  0
POINT
  8
2
 10
26.4283
 20
23.3748
  0
TEXT
  8
2
 10
26.4283
 20
23.3748
 40
0.250
 50
0.0000
  1
# 4
  7
STANDARD
  0
POLYLINE
  8
1
 66
1
 70
0
  0
VERTEX
  8
1
 10
26.4283
 20
23.3748
  0
VERTEX
  8
1
 10
26.8022
 20
22.4460
  0
SEQEND
  8
1
  0
POINT
  8
2
 10
26.4283
 20
23.3748
  0
TEXT
  8
2
 10
26.4283
 20
23.3748
 40
0.250
 50
0.0000
  1
# 4
  7
STANDARD
  0
POINT
  8
2
 10
26.8022
 20
22.4460
  0
TEXT
  8
2
 10
26.8022
 20
22.4460
 40
0.250
 50
0.0000
  1
# 5
  7
STANDARD
  0
POLYLINE
  8
1
 66
1
 70
0
  0
VERTEX
  8
1
 10
26.8022
 20
22.4460
  0
VERTEX
  8
1
 10
25.8160
 20
22.1348
  0
VERTEX
  8
1
 10
24.1912
 20
21.2603
  0
VERTEX
  8
1
 10
22.9384
 20
20.1451
  0
VERTEX
  8
1
 10
22.0872
 20
18.3956
  0
VERTEX
  8
1
 10
22.0508
 20
17.6822
  0
SEQEND
  8
1
  0
POINT
  8
2
 10
26.8022
 20
22.4460
  0
TEXT
  8
2
 10
26.8022
 20
22.4460
 40
0.250
 50
0.0000
  1
# 5
  7
STANDARD
  0
POINT
  8
3
 10
25.8160
 20
22.1348
  0
POINT
  8
3
 10
24.1912
 20
21.2603
  0
POINT
  8
3
 10
22.9384
 20
20.1451
  0
POINT
  8
3
 10
22.0872
 20
18.3956
  0
POINT
  8
4
 10
22.0508
 20
17.6822
 30
0.1574
 39
0.0000
  0
POINT
  8
2
 10
22.0508
 20
17.6822
  0
TEXT
  8
2
 10
22.0508
 20
17.6822
 40
0.250
 50
0.0000
  1
# 1
  7
STANDARD
  0
POLYLINE
  8
1
 66
1
 70
0
  0
VERTEX
  8
1
 10
22.0508
 20
17.6822
  0
VERTEX
  8
1
 10
0.3226
 20
17.6817
  0
SEQEND
  8
1
  0
POINT
  8
4
 10
22.0508
 20
17.6822
 30
0.1574
 39
0.0000
  0
POINT
  8
2
 10
22.0508
 20
17.6822
  0
TEXT
  8
2
 10
22.0508
 20
17.6822
 40
0.250
 50
0.0000
  1
# 1
  7
STANDARD
  0
LINE
  8
7
 10
7.6437
 20
22.4069
 11
19.9825
 21
22.4069
  0
LINE
  8
5
 10
7.6437
 20
22.4069
 11
19.9825
 21
22.4069
  0
POINT
  8
2
 10
7.6437
 20
22.4069
  0
POINT
  8
2
 10
19.9825
 20
22.4069
  0
LINE
  8
8
 10
4.6692
 20
27.4274
 11
4.6692
 21
17.6818
  0
TEXT
  8
8
 10
4.6692
 20
27.4274
 40
0.250
 50
0.0000
  1
NM
  7
STANDARD
  0
POINT
  8
2
 10
4.6692
 20
27.4274
  0
POINT
  8
2
 10
4.6692
 20
17.6818
  0
LINE
  8
8
 10
11.6645
 20
26.4931
 11
11.6645
 21
17.6820
  0
TEXT
  8
8
 10
11.6645
 20
26.4931
 40
0.250
 50
0.0000
  1
NM
  7
STANDARD
  0
POINT
  8
2
 10
11.6645
 20
26.4931
  0
POINT
  8
2
 10
11.6645
 20
17.6820
  0
LINE
  8
8
 10
14.8141
 20
26.0479
 11
14.8141
 21
17.6820
  0
TEXT
  8
8
 10
14.8141
 20
26.0479
 40
0.250
 50
0.0000
  1
NM
  7
STANDARD
  0
POINT
  8
2
 10
14.8141
 20
26.0479
  0
POINT
  8
2
 10
14.8141
 20
17.6820
  0
POLYLINE
  8
8
 66
1
 70
0
  0
VERTEX
  8
8
 10
9.9620
 20
20.8257
  0
VERTEX
  8
8
 10
8.6921
 20
20.8257
  0
VERTEX
  8
8
 10
8.6921
 20
21.8195
  0
SEQEND
  8
8
  0
TEXT
  8
8
 10
9.9620
 20
20.8257
 40
0.250
 50
0.0000
  1
B
  7
STANDARD
  0
POINT
  8
2
 10
9.9620
 20
20.8257
  0
POINT
  8
2
 10
8.6921
 20
20.8257
  0
POINT
  8
2
 10
8.6921
 20
21.8195
  0
LINE
  8
8
 10
19.8787
 20
17.6822
 11
19.9074
 21
23.2132
  0
TEXT
  8
8
 10
19.8787
 20
17.6822
 40
0.250
 50
0.0000
  1
NM
  7
STANDARD
  0
POINT
  8
2
 10
19.8787
 20
17.6822
  0
POINT
  8
2
 10
19.9074
 20
23.2132
  0
LINE
  8
8
 10
17.0818
 20
17.6821
 11
17.0831
 21
24.0391
  0
TEXT
  8
8
 10
17.0818
 20
17.6821
 40
0.250
 50
0.0000
  1
NM
  7
STANDARD
  0
POINT
  8
2
 10
17.0818
 20
17.6821
  0
POINT
  8
2
 10
17.0831
 20
24.0391
  0
LINE
  8
8
 10
15.5883
 20
25.9339
 11
15.5683
 21
17.6821
  0
TEXT
  8
8
 10
15.5883
 20
25.9339
 40
0.250
 50
0.0000
  1
NM
  7
STANDARD
  0
POINT
  8
2
 10
15.5883
 20
25.9339
  0
POINT
  8
2
 10
15.5683
 20
17.6821
  0
LINE
  8
6
 10
22.0508
 20
17.6822
 11
0.3226
 21
17.6817
  0
ENDBLK
  0
BLOCK
  8
0
  2
DEEP ARMHOLE RACE FR_38
 70
64
 10
0.0000
 20
0.0000
  0
TEXT
  8
1
 10
13.5624
 20
22.5860
 40
0.250
 50
0.0000
  1
Piece Name: DEEP ARMHOLE RACE FR
  7
STANDARD
  0
TEXT
  8
1
 10
13.5624
 20
22.7260
 40
0.250
 50
0.0000
  1
SIZE: 38
  7
STANDARD
  0
POLYLINE
  8
1
 66
1
 70
0
  0
VERTEX
  8
1
 10
0.3226
 20
17.5487
  0
VERTEX
  8
1
 10
0.5648
 20
19.6818
  0
VERTEX
  8
1
 10
0.8396
 20
21.2632
  0
VERTEX
  8
1
 10
1.1924
 20
22.6810
  0
VERTEX
  8
1
 10
1.6228
 20
23.9355
  0
VERTEX
  8
1
 10
2.1312
 20
25.0270
  0
VERTEX
  8
1
 10
2.7172
 20
25.9563
  0
VERTEX
  8
1
 10
3.3815
 20
26.7240
  0
VERTEX
  8
1
 10
4.4928
 20
27.6233
  0
SEQEND
  8
1
  0
POLYLINE
  8
1
 66
1
 70
0
  0
VERTEX
  8
1
 10
4.4928
 20
27.6233
  0
VERTEX
  8
1
 10
7.8919
 20
27.0787
  0
VERTEX
  8
1
 10
13.1895
 20
26.2188
  0
VERTEX
  8
1
 10
15.5110
 20
25.7935
  0
SEQEND
  8
1
  0
POLYLINE
  8
1
 66
1
 70
0
  0
VERTEX
  8
1
 10
15.5110
 20
25.7935
  0
VERTEX
  8
1
 10
15.6834
 20
25.0734
  0
VERTEX
  8
1
 10
16.5979
 20
24.1771
  0
VERTEX
  8
1
 10
18.2142
 20
23.4454
  0
VERTEX
  8
1
 10
19.9746
 20
23.0694
  0
VERTEX
  8
1
 10
20.0544
 20
23.0580
  0
VERTEX
  8
1
 10
22.9834
 20
22.8882
  0
VERTEX
  8
1
 10
25.6570
 20
23.0861
  0
VERTEX
  8
1
 10
26.4291
 20
23.2400
  0
SEQEND
  8
1
  0
POLYLINE
  8
1
 66
1
 70
0
  0
VERTEX
  8
1
 10
26.4291
 20
23.2400
  0
VERTEX
  8
1
 10
26.8022
 20
22.3131
  0
SEQEND
  8
1
  0
POLYLINE
  8
1
 66
1
 70
0
  0
VERTEX
  8
1
 10
26.8022
 20
22.3131
  0
VERTEX
  8
1
 10
25.8160
 20
22.0019
  0
VERTEX
  8
1
 10
24.1912
 20
21.1274
  0
VERTEX
  8
1
 10
22.9384
 20
20.0122
  0
VERTEX
  8
1
 10
22.0872
 20
18.2627
  0
VERTEX
  8
1
 10
22.0508
 20
17.5492
  0
SEQEND
  8
1
  0
POLYLINE
  8
1
 66
1
 70
0
  0
VERTEX
  8
1
 10
22.0508
 20
17.5492
  0
VERTEX
  8
1
 10
0.3226
 20
17.5487
  0
SEQEND
  8
1
  0
LINE
  8
7
 10
7.6437
 20
22.2739
 11
19.9825
 21
22.2739
  0
LINE
  8
5
 10
7.6437
 20
22.2739
 11
19.9825
 21
22.2739
  0
LINE
  8
8
 10
4.6692
 20
27.2944
 11
4.6692
 21
17.5488
  0
LINE
  8
8
 10
11.6645
 20
26.3601
 11
11.6645
 21
17.5490
  0
LINE
  8
8
 10
14.8141
 20
25.9149
 11
14.8141
 21
17.5490
  0
POLYLINE
  8
8
 66
1
 70
0
  0
VERTEX
  8
8
 10
9.9620
 20
20.6927
  0
VERTEX
  8
8
 10
8.6921
 20
20.6927
  0
VERTEX
  8
8
 10
8.6921
 20
21.6865
  0
SEQEND
  8
8
  0
LINE
  8
8
 10
19.8787
 20
17.5492
 11
19.9074
 21
23.0802
  0
LINE
  8
8
 10
17.0818
 20
17.5491
 11
17.0831
 21
23.9061
  0
LINE
  8
8
 10
15.5883
 20
25.8009
 11
15.5683
 21
17.5491
  0
LINE
  8
6
 10
22.0508
 20
17.5492
 11
0.3226
 21
17.5487
  0
ENDBLK
  0
BLOCK
  8
0
  2
DEEP ARMHOLE RACE FR_40
 70
64
 10
0.0000
 20
0.0000
  0
TEXT
  8
1
 10
13.5624
 20
22.5860
 40
0.250
 50
0.0000
  1
Piece Name: DEEP ARMHOLE RACE FR
  7
STANDARD
  0
TEXT
  8
1
 10
13.5624
 20
22.7260
 40
0.250
 50
0.0000
  1
SIZE: 40
  7
STANDARD
  0
POLYLINE
  8
1
 66
1
 70
0
  0
VERTEX
  8
1
 10
0.3226
 20
17.4144
  0
VERTEX
  8
1
 10
0.6076
 20
19.6149
  0
VERTEX
  8
1
 10
0.9172
 20
21.2445
  0
VERTEX
  8
1
 10
1.3047
 20
22.7039
  0
VERTEX
  8
1
 10
1.7699
 20
23.9934
  0
VERTEX
  8
1
 10
2.3131
 20
25.1131
  0
VERTEX
  8
1
 10
2.9338
 20
26.0639
  0
VERTEX
  8
1
 10
3.6326
 20
26.8464
  0
VERTEX
  8
1
 10
4.7956
 20
27.7577
  0
SEQEND
  8
1
  0
POLYLINE
  8
1
 66
1
 70
0
  0
VERTEX
  8
1
 10
4.7956
 20
27.7577
  0
VERTEX
  8
1
 10
8.1020
 20
27.1297
  0
VERTEX
  8
1
 10
13.2544
 20
26.1402
  0
VERTEX
  8
1
 10
15.5110
 20
25.6592
  0
SEQEND
  8
1
  0
POLYLINE
  8
1
 66
1
 70
0
  0
VERTEX
  8
1
 10
15.5110
 20
25.6592
  0
VERTEX
  8
1
 10
15.6889
 20
24.9313
  0
VERTEX
  8
1
 10
16.6191
 20
24.0287
  0
VERTEX
  8
1
 10
18.2584
 20
23.2962
  0
VERTEX
  8
1
 10
20.0420
 20
22.9243
  0
VERTEX
  8
1
 10
20.1227
 20
22.9131
  0
VERTEX
  8
1
 10
23.0879
 20
22.7558
  0
VERTEX
  8
1
 10
25.7928
 20
22.9693
  0
VERTEX
  8
1
 10
26.4301
 20
23.1036
  0
SEQEND
  8
1
  0
POLYLINE
  8
1
 66
1
 70
0
  0
VERTEX
  8
1
 10
26.4301
 20
23.1036
  0
VERTEX
  8
1
 10
26.8022
 20
22.1787
  0
SEQEND
  8
1
  0
POLYLINE
  8
1
 66
1
 70
0
  0
VERTEX
  8
1
 10
26.8022
 20
22.1787
  0
VERTEX
  8
1
 10
25.8160
 20
21.8675
  0
VERTEX
  8
1
 10
24.1912
 20
20.9930
  0
VERTEX
  8
1
 10
22.9384
 20
19.8778
  0
VERTEX
  8
1
 10
22.0872
 20
18.1283
  0
VERTEX
  8
1
 10
22.0508
 20
17.4149
  0
SEQEND
  8
1
  0
POLYLINE
  8
1
 66
1
 70
0
  0
VERTEX
  8
1
 10
22.0508
 20
17.4149
  0
VERTEX
  8
1
 10
0.3226
 20
17.4144
  0
SEQEND
  8
1
  0
LINE
  8
7
 10
7.6437
 20
22.1396
 11
19.9825
 21
22.1396
  0
LINE
  8
5
 10
7.6437
 20
22.1396
 11
19.9825
 21
22.1396
  0
LINE
  8
8
 10
4.6692
 20
27.1601
 11
4.6692
 21
17.4145
  0
LINE
  8
8
 10
11.6645
 20
26.2258
 11
11.6645
 21
17.4147
  0
LINE
  8
8
 10
14.8141
 20
25.7806
 11
14.8141
 21
17.4147
  0
POLYLINE
  8
8
 66
1
 70
0
  0
VERTEX
  8
8
 10
9.9620
 20
20.5584
  0
VERTEX
  8
8
 10
8.6921
 20
20.5584
  0
VERTEX
  8
8
 10
8.6921
 20
21.5522
  0
SEQEND
  8
8
  0
LINE
  8
8
 10
19.8787
 20
17.4149
 11
19.9074
 21
22.9459
  0
LINE
  8
8
 10
17.0818
 20
17.4148
 11
17.0831
 21
23.7718
  0
LINE
  8
8
 10
15.5883
 20
25.6666
 11
15.5683
 21
17.4148
  0
LINE
  8
6
 10
22.0508
 20
17.4149
 11
0.3226
 21
17.4144
  0
ENDBLK
  0
BLOCK
  8
0
  2
DEEP ARMHOLE RACE FR_42
 70
64
 10
0.0000
 20
0.0000
  0
TEXT
  8
1
 10
13.5624
 20
22.5860
 40
0.250
 50
0.0000
  1
Piece Name: DEEP ARMHOLE RACE FR
  7
STANDARD
  0
TEXT
  8
1
 10
13.5624
 20
22.7260
 40
0.250
 50
0.0000
  1
SIZE: 42
  7
STANDARD
  0
POLYLINE
  8
1
 66
1
 70
0
  0
VERTEX
  8
1
 10
0.3226
 20
17.2604
  0
VERTEX
  8
1
 10
0.6565
 20
19.5380
  0
VERTEX
  8
1
 10
1.0062
 20
21.2231
  0
VERTEX
  8
1
 10
1.4335
 20
22.7302
  0
VERTEX
  8
1
 10
1.9386
 20
24.0596
  0
VERTEX
  8
1
 10
2.5215
 20
25.2117
  0
VERTEX
  8
1
 10
3.1820
 20
26.1871
  0
VERTEX
  8
1
 10
3.9205
 20
26.9867
  0
VERTEX
  8
1
 10
5.1428
 20
27.9117
  0
SEQEND
  8
1
  0
POLYLINE
  8
1
 66
1
 70
0
  0
VERTEX
  8
1
 10
5.1428
 20
27.9117
  0
VERTEX
  8
1
 10
8.3426
 20
27.1882
  0
VERTEX
  8
1
 10
13.3289
 20
26.0500
  0
VERTEX
  8
1
 10
15.5110
 20
25.5052
  0
SEQEND
  8
1
  0
POLYLINE
  8
1
 66
1
 70
0
  0
VERTEX
  8
1
 10
15.5110
 20
25.5052
  0
VERTEX
  8
1
 10
15.6946
 20
24.7694
  0
VERTEX
  8
1
 10
16.6401
 20
23.8606
  0
VERTEX
  8
1
 10
18.3027
 20
23.1272
  0
VERTEX
  8
1
 10
20.1093
 20
22.7595
  0
VERTEX
  8
1
 10
20.1911
 20
22.7486
  0
VERTEX
  8
1
 10
23.1924
 20
22.6037
  0
VERTEX
  8
1
 10
25.9286
 20
22.8328
  0
VERTEX
  8
1
 10
26.4313
 20
22.9471
  0
SEQEND
  8
1
  0
POLYLINE
  8
1
 66
1
 70
0
  0
VERTEX
  8
1
 10
26.4313
 20
22.9471
  0
VERTEX
  8
1
 10
26.8022
 20
22.0247
  0
SEQEND
  8
1
  0
POLYLINE
  8
1
 66
1
 70
0
  0
VERTEX
  8
1
 10
26.8022
 20
22.0247
  0
VERTEX
  8
1
 10
25.8160
 20
21.7135
  0
VERTEX
  8
1
 10
24.1912
 20
20.8390
  0
VERTEX
  8
1
 10
22.9384
 20
19.7238
  0
VERTEX
  8
1
 10
22.0872
 20
17.9743
  0
VERTEX
  8
1
 10
22.0508
 20
17.2609
  0
SEQEND
  8
1
  0
POLYLINE
  8
1
 66
1
 70
0
  0
VERTEX
  8
1
 10
22.0508
 20
17.2609
  0
VERTEX
  8
1
 10
0.3226
 20
17.2604
  0
SEQEND
  8
1
  0
LINE
  8
7
 10
7.6437
 20
21.9856
 11
19.9825
 21
21.9856
  0
LINE
  8
5
 10
7.6437
 20
21.9856
 11
19.9825
 21
21.9856
  0
LINE
  8
8
 10
4.6692
 20
27.0061
 11
4.6692
 21
17.2605
  0
LINE
  8
8
 10
11.6645
 20
26.0718
 11
11.6645
 21
17.2607
  0
LINE
  8
8
 10
14.8141
 20
25.6266
 11
14.8141
 21
17.2607
  0
POLYLINE
  8
8
 66
1
 70
0
  0
VERTEX
  8
8
 10
9.9620
 20
20.4044
  0
VERTEX
  8
8
 10
8.6921
 20
20.4044
  0
VERTEX
  8
8
 10
8.6921
 20
21.3982
  0
SEQEND
  8
8
  0
LINE
  8
8
 10
19.8787
 20
17.2609
 11
19.9074
 21
22.7919
  0
LINE
  8
8
 10
17.0818
 20
17.2608
 11
17.0831
 21
23.6178
  0
LINE
  8
8
 10
15.5883
 20
25.5126
 11
15.5683
 21
17.2608
  0
LINE
  8
6
 10
22.0508
 20
17.2609
 11
0.3226
 21
17.2604
  0
ENDBLK
  0
BLOCK
  8
0
  2
DEEP ARMHOLE RACE FR_44
 70
64
 10
0.0000
 20
0.0000
  0
TEXT
  8
1
 10
13.5624
 20
22.5860
 40
0.250
 50
0.0000
  1
Piece Name: DEEP ARMHOLE RACE FR
  7
STANDARD
  0
TEXT
  8
1
 10
13.5624
 20
22.7260
 40
0.250
 50
0.0000
  1
SIZE: 44
  7
STANDARD
  0
POLYLINE
  8
1
 66
1
 70
0
  0
VERTEX
  8
1
 10
0.3226
 20
17.1128
  0
VERTEX
  8
1
 10
0.7035
 20
19.4643
  0
VERTEX
  8
1
 10
1.0914
 20
21.2025
  0
VERTEX
  8
1
 10
1.5571
 20
22.7554
  0
VERTEX
  8
1
 10
2.1003
 20
24.1232
  0
VERTEX
  8
1
 10
2.7212
 20
25.3061
  0
VERTEX
  8
1
 10
3.4198
 20
26.3052
  0
VERTEX
  8
1
 10
4.1964
 20
27.1211
  0
VERTEX
  8
1
 10
5.4755
 20
28.0593
  0
SEQEND
  8
1
  0
POLYLINE
  8
1
 66
1
 70
0
  0
VERTEX
  8
1
 10
5.4755
 20
28.0593
  0
VERTEX
  8
1
 10
8.5734
 20
27.2442
  0
VERTEX
  8
1
 10
13.4003
 20
25.9636
  0
VERTEX
  8
1
 10
15.5110
 20
25.3576
  0
SEQEND
  8
1
  0
POLYLINE
  8
1
 66
1
 70
0
  0
VERTEX
  8
1
 10
15.5110
 20
25.3576
  0
VERTEX
  8
1
 10
15.7002
 20
24.6140
  0
VERTEX
  8
1
 10
16.6612
 20
23.6989
  0
VERTEX
  8
1
 10
18.3469
 20
22.9647
  0
VERTEX
  8
1
 10
20.1766
 20
22.6012
  0
VERTEX
  8
1
 10
20.2595
 20
22.5905
  0
VERTEX
  8
1
 10
23.2969
 20
22.4582
  0
VERTEX
  8
1
 10
26.0644
 20
22.7029
  0
VERTEX
  8
1
 10
26.4326
 20
22.7968
  0
SEQEND
  8
1
  0
POLYLINE
  8
1
 66
1
 70
0
  0
VERTEX
  8
1
 10
26.4326
 20
22.7968
  0
VERTEX
  8
1
 10
26.8022
 20
21.8770
  0
SEQEND
  8
1
  0
POLYLINE
  8
1
 66
1
 70
0
  0
VERTEX
  8
1
 10
26.8022
 20
21.8770
  0
VERTEX
  8
1
 10
25.8160
 20
21.5658
  0
VERTEX
  8
1
 10
24.1912
 20
20.6913
  0
VERTEX
  8
1
 10
22.9384
 20
19.5761
  0
VERTEX
  8
1
 10
22.0872
 20
17.8266
  0
VERTEX
  8
1
 10
22.0508
 20
17.1133
  0
SEQEND
  8
1
  0
POLYLINE
  8
1
 66
1
 70
0
  0
VERTEX
  8
1
 10
22.0508
 20
17.1133
  0
VERTEX
  8
1
 10
0.3226
 20
17.1128
  0
SEQEND
  8
1
  0
LINE
  8
7
 10
7.6437
 20
21.8380
 11
19.9825
 21
21.8380
  0
LINE
  8
5
 10
7.6437
 20
21.8380
 11
19.9825
 21
21.8380
  0
LINE
  8
8
 10
4.6692
 20
26.8585
 11
4.6692
 21
17.1129
  0
LINE
  8
8
 10
11.6645
 20
25.9242
 11
11.6645
 21
17.1131
  0
LINE
  8
8
 10
14.8141
 20
25.4790
 11
14.8141
 21
17.1131
  0
POLYLINE
  8
8
 66
1
 70
0
  0
VERTEX
  8
8
 10
9.9620
 20
20.2568
  0
VERTEX
  8
8
 10
8.6921
 20
20.2568
  0
VERTEX
  8
8
 10
8.6921
 20
21.2506
  0
SEQEND
  8
8
  0
LINE
  8
8
 10
19.8787
 20
17.1133
 11
19.9074
 21
22.6443
  0
LINE
  8
8
 10
17.0818
 20
17.1132
 11
17.0831
 21
23.4702
  0
LINE
  8
8
 10
15.5883
 20
25.3650
 11
15.5683
 21
17.1132
  0
LINE
  8
6
 10
22.0508
 20
17.1133
 11
0.3226
 21
17.1128
  0
ENDBLK
  0
BLOCK
  8
0
  2
DEEP ARMHOLE RACE FR_46
 70
64
 10
0.0000
 20
0.0000
  0
TEXT
  8
1
 10
13.5624
 20
22.5860
 40
0.250
 50
0.0000
  1
Piece Name: DEEP ARMHOLE RACE FR
  7
STANDARD
  0
TEXT
  8
1
 10
13.5624
 20
22.7260
 40
0.250
 50
0.0000
  1
SIZE: 46
  7
STANDARD
  0
POLYLINE
  8
1
 66
1
 70
0
  0
VERTEX
  8
1
 10
0.3226
 20
16.9500
  0
VERTEX
  8
1
 10
0.7553
 20
19.3831
  0
VERTEX
  8
1
 10
1.1855
 20
21.1799
  0
VERTEX
  8
1
 10
1.6932
 20
22.7831
  0
VERTEX
  8
1
 10
2.2785
 20
24.1932
  0
VERTEX
  8
1
 10
2.9415
 20
25.4104
  0
VERTEX
  8
1
 10
3.6821
 20
26.4355
  0
VERTEX
  8
1
 10
4.5007
 20
27.2694
  0
VERTEX
  8
1
 10
5.8426
 20
28.2221
  0
SEQEND
  8
1
  0
POLYLINE
  8
1
 66
1
 70
0
  0
VERTEX
  8
1
 10
5.8426
 20
28.2221
  0
VERTEX
  8
1
 10
8.8277
 20
27.3060
  0
VERTEX
  8
1
 10
13.4789
 20
25.8683
  0
VERTEX
  8
1
 10
15.5110
 20
25.1948
  0
SEQEND
  8
1
  0
POLYLINE
  8
1
 66
1
 70
0
  0
VERTEX
  8
1
 10
15.5110
 20
25.1948
  0
VERTEX
  8
1
 10
15.7086
 20
24.4397
  0
VERTEX
  8
1
 10
16.6923
 20
23.5154
  0
VERTEX
  8
1
 10
18.4117
 20
22.7800
  0
VERTEX
  8
1
 10
20.2754
 20
22.4226
  0
VERTEX
  8
1
 10
20.3597
 20
22.4123
  0
VERTEX
  8
1
 10
23.4501
 20
22.2982
  0
VERTEX
  8
1
 10
26.2635
 20
22.5658
  0
VERTEX
  8
1
 10
26.4322
 20
22.6349
  0
SEQEND
  8
1
  0
POLYLINE
  8
1
 66
1
 70
0
  0
VERTEX
  8
1
 10
26.4322
 20
22.6349
  0
VERTEX
  8
1
 10
26.8022
 20
21.7143
  0
SEQEND
  8
1
  0
POLYLINE
  8
1
 66
1
 70
0
  0
VERTEX
  8
1
 10
26.8022
 20
21.7143
  0
VERTEX
  8
1
 10
25.8160
 20
21.4031
  0
VERTEX
  8
1
 10
24.1912
 20
20.5286
  0
VERTEX
  8
1
 10
22.9384
 20
19.4134
  0
VERTEX
  8
1
 10
22.0872
 20
17.6639
  0
VERTEX
  8
1
 10
22.0508
 20
16.9505
  0
SEQEND
  8
1
  0
POLYLINE
  8
1
 66
1
 70
0
  0
VERTEX
  8
1
 10
22.0508
 20
16.9505
  0
VERTEX
  8
1
 10
0.3226
 20
16.9500
  0
SEQEND
  8
1
  0
LINE
  8
7
 10
7.6437
 20
21.6752
 11
19.9825
 21
21.6752
  0
LINE
  8
5
 10
7.6437
 20
21.6752
 11
19.9825
 21
21.6752
  0
LINE
  8
8
 10
4.6692
 20
26.6957
 11
4.6692
 21
16.9501
  0
LINE
  8
8
 10
11.6645
 20
25.7614
 11
11.6645
 21
16.9503
  0
LINE
  8
8
 10
14.8141
 20
25.3162
 11
14.8141
 21
16.9503
  0
POLYLINE
  8
8
 66
1
 70
0
  0
VERTEX
  8
8
 10
9.9620
 20
20.0940
  0
VERTEX
  8
8
 10
8.6921
 20
20.0940
  0
VERTEX
  8
8
 10
8.6921
 20
21.0878
  0
SEQEND
  8
8
  0
LINE
  8
8
 10
19.8787
 20
16.9505
 11
19.9074
 21
22.4815
  0
LINE
  8
8
 10
17.0818
 20
16.9504
 11
17.0831
 21
23.3074
  0
LINE
  8
8
 10
15.5883
 20
25.2022
 11
15.5683
 21
16.9504
  0
LINE
  8
6
 10
22.0508
 20
16.9505
 11
0.3226
 21
16.9500
  0
ENDBLK
  0
BLOCK
  8
0
  2
DEEP ARMHOLE RACE FR_48
 70
64
 10
0.0000
 20
0.0000
  0
TEXT
  8
1
 10
13.5624
 20
22.5860
 40
0.250
 50
0.0000
  1
Piece Name: DEEP ARMHOLE RACE FR
  7
STANDARD
  0
TEXT
  8
1
 10
13.5624
 20
22.7260
 40
0.250
 50
0.0000
  1
SIZE: 48
  7
STANDARD
  0
POLYLINE
  8
1
 66
1
 70
0
  0
VERTEX
  8
1
 10
0.3226
 20
16.7886
  0
VERTEX
  8
1
 10
0.8066
 20
19.3025
  0
VERTEX
  8
1
 10
1.2786
 20
21.1574
  0
VERTEX
  8
1
 10
1.8282
 20
22.8106
  0
VERTEX
  8
1
 10
2.4553
 20
24.2627
  0
VERTEX
  8
1
 10
3.1599
 20
25.5136
  0
VERTEX
  8
1
 10
3.9423
 20
26.5647
  0
VERTEX
  8
1
 10
4.8024
 20
27.4164
  0
VERTEX
  8
1
 10
6.2064
 20
28.3835
  0
SEQEND
  8
1
  0
POLYLINE
  8
1
 66
1
 70
0
  0
VERTEX
  8
1
 10
6.2064
 20
28.3835
  0
VERTEX
  8
1
 10
9.0801
 20
27.3673
  0
VERTEX
  8
1
 10
13.5570
 20
25.7738
  0
VERTEX
  8
1
 10
15.5110
 20
25.0334
  0
SEQEND
  8
1
  0
POLYLINE
  8
1
 66
1
 70
0
  0
VERTEX
  8
1
 10
15.5110
 20
25.0334
  0
VERTEX
  8
1
 10
15.7142
 20
24.2705
  0
VERTEX
  8
1
 10
16.7133
 20
23.3399
  0
VERTEX
  8
1
 10
18.4561
 20
22.6036
  0
VERTEX
  8
1
 10
20.3427
 20
22.2504
  0
VERTEX
  8
1
 10
20.4281
 20
22.2404
  0
VERTEX
  8
1
 10
23.5547
 20
22.1387
  0
VERTEX
  8
1
 10
26.3994
 20
22.4220
  0
VERTEX
  8
1
 10
26.4342
 20
22.4694
  0
SEQEND
  8
1
  0
POLYLINE
  8
1
 66
1
 70
0
  0
VERTEX
  8
1
 10
26.4342
 20
22.4694
  0
VERTEX
  8
1
 10
26.8022
 20
21.5529
  0
SEQEND
  8
1
  0
POLYLINE
  8
1
 66
1
 70
0
  0
VERTEX
  8
1
 10
26.8022
 20
21.5529
  0
VERTEX
  8
1
 10
25.8160
 20
21.2417
  0
VERTEX
  8
1
 10
24.1912
 20
20.3672
  0
VERTEX
  8
1
 10
22.9384
 20
19.2520
  0
VERTEX
  8
1
 10
22.0872
 20
17.5025
  0
VERTEX
  8
1
 10
22.0508
 20
16.7891
  0
SEQEND
  8
1
  0
POLYLINE
  8
1
 66
1
 70
0
  0
VERTEX
  8
1
 10
22.0508
 20
16.7891
  0
VERTEX
  8
1
 10
0.3226
 20
16.7886
  0
SEQEND
  8
1
  0
LINE
  8
7
 10
7.6437
 20
21.5138
 11
19.9825
 21
21.5138
  0
LINE
  8
5
 10
7.6437
 20
21.5138
 11
19.9825
 21
21.5138
  0
LINE
  8
8
 10
4.6692
 20
26.5343
 11
4.6692
 21
16.7887
  0
LINE
  8
8
 10
11.6645
 20
25.6000
 11
11.6645
 21
16.7889
  0
LINE
  8
8
 10
14.8141
 20
25.1548
 11
14.8141
 21
16.7889
  0
POLYLINE
  8
8
 66
1
 70
0
  0
VERTEX
  8
8
 10
9.9620
 20
19.9326
  0
VERTEX
  8
8
 10
8.6921
 20
19.9326
  0
VERTEX
  8
8
 10
8.6921
 20
20.9264
  0
SEQEND
  8
8
  0
LINE
  8
8
 10
19.8787
 20
16.7891
 11
19.9074
 21
22.3201
  0
LINE
  8
8
 10
17.0818
 20
16.7890
 11
17.0831
 21
23.1460
  0
LINE
  8
8
 10
15.5883
 20
25.0408
 11
15.5683
 21
16.7890
  0
LINE
  8
6
 10
22.0508
 20
16.7891
 11
0.3226
 21
16.7886
  0
ENDBLK
  0
BLOCK
  8
0
  2
DEEP ARMHOLE RACE FR_50
 70
64
 10
0.0000
 20
0.0000
  0
TEXT
  8
1
 10
13.5624
 20
22.5860
 40
0.250
 50
0.0000
  1
Piece Name: DEEP ARMHOLE RACE FR
  7
STANDARD
  0
TEXT
  8
1
 10
13.5624
 20
22.7260
 40
0.250
 50
0.0000
  1
SIZE: 50
  7
STANDARD
  0
POLYLINE
  8
1
 66
1
 70
0
  0
VERTEX
  8
1
 10
0.3226
 20
16.6090
  0
VERTEX
  8
1
 10
0.8636
 20
19.2129
  0
VERTEX
  8
1
 10
1.3824
 20
21.1324
  0
VERTEX
  8
1
 10
1.9784
 20
22.8413
  0
VERTEX
  8
1
 10
2.6521
 20
24.3398
  0
VERTEX
  8
1
 10
3.4031
 20
25.6285
  0
VERTEX
  8
1
 10
4.2317
 20
26.7084
  0
VERTEX
  8
1
 10
5.1382
 20
27.5799
  0
VERTEX
  8
1
 10
6.6112
 20
28.5631
  0
SEQEND
  8
1
  0
POLYLINE
  8
1
 66
1
 70
0
  0
VERTEX
  8
1
 10
6.6112
 20
28.5631
  0
VERTEX
  8
1
 10
9.3607
 20
27.4354
  0
VERTEX
  8
1
 10
13.6437
 20
25.6687
  0
VERTEX
  8
1
 10
15.5110
 20
24.8538
  0
SEQEND
  8
1
  0
POLYLINE
  8
1
 66
1
 70
0
  0
VERTEX
  8
1
 10
15.5110
 20
24.8538
  0
VERTEX
  8
1
 10
15.7202
 20
24.0826
  0
VERTEX
  8
1
 10
16.7356
 20
23.1453
  0
VERTEX
  8
1
 10
18.5028
 20
22.4082
  0
VERTEX
  8
1
 10
20.4140
 20
22.0593
  0
VERTEX
  8
1
 10
20.5003
 20
22.0496
  0
VERTEX
  8
1
 10
23.6654
 20
21.9611
  0
VERTEX
  8
1
 10
26.5431
 20
22.2609
  0
VERTEX
  8
1
 10
26.4365
 20
22.2850
  0
SEQEND
  8
1
  0
POLYLINE
  8
1
 66
1
 70
0
  0
VERTEX
  8
1
 10
26.4365
 20
22.2850
  0
VERTEX
  8
1
 10
26.8022
 20
21.3732
  0
SEQEND
  8
1
  0
POLYLINE
  8
1
 66
1
 70
0
  0
VERTEX
  8
1
 10
26.8022
 20
21.3732
  0
VERTEX
  8
1
 10
25.8160
 20
21.0620
  0
VERTEX
  8
1
 10
24.1912
 20
20.1875
  0
VERTEX
  8
1
 10
22.9384
 20
19.0723
  0
VERTEX
  8
1
 10
22.0872
 20
17.3228
  0
VERTEX
  8
1
 10
22.0508
 20
16.6095
  0
SEQEND
  8
1
  0
POLYLINE
  8
1
 66
1
 70
0
  0
VERTEX
  8
1
 10
22.0508
 20
16.6095
  0
VERTEX
  8
1
 10
0.3226
 20
16.6090
  0
SEQEND
  8
1
  0
LINE
  8
7
 10
7.6437
 20
21.3342
 11
19.9825
 21
21.3342
  0
LINE
  8
5
 10
7.6437
 20
21.3342
 11
19.9825
 21
21.3342
  0
LINE
  8
8
 10
4.6692
 20
26.3547
 11
4.6692
 21
16.6091
  0
LINE
  8
8
 10
11.6645
 20
25.4204
 11
11.6645
 21
16.6093
  0
LINE
  8
8
 10
14.8141
 20
24.9752
 11
14.8141
 21
16.6093
  0
POLYLINE
  8
8
 66
1
 70
0
  0
VERTEX
  8
8
 10
9.9620
 20
19.7530
  0
VERTEX
  8
8
 10
8.6921
 20
19.7530
  0
VERTEX
  8
8
 10
8.6921
 20
20.7468
  0
SEQEND
  8
8
  0
LINE
  8
8
 10
19.8787
 20
16.6095
 11
19.9074
 21
22.1405
  0
LINE
  8
8
 10
17.0818
 20
16.6094
 11
17.0831
 21
22.9664
  0
LINE
  8
8
 10
15.5883
 20
24.8612
 11
15.5683
 21
16.6094
  0
LINE
  8
6
 10
22.0508
 20
16.6095
 11
0.3226
 21
16.6090
  0
ENDBLK
  0
BLOCK
  8
0
  2
DEEP ARMHOLE RACE FR_52
 70
64
 10
0.0000
 20
0.0000
  0
TEXT
  8
1
 10
13.5624
 20
22.5860
 40
0.250
 50
0.0000
  1
Piece Name: DEEP ARMHOLE RACE FR
  7
STANDARD
  0
TEXT
  8
1
 10
13.5624
 20
22.7260
 40
0.250
 50
0.0000
  1
SIZE: 52
  7
STANDARD
  0
POLYLINE
  8
1
 66
1
 70
0
  0
VERTEX
  8
1
 10
0.3226
 20
16.4300
  0
VERTEX
  8
1
 10
0.9206
 20
19.1236
  0
VERTEX
  8
1
 10
1.4857
 20
21.1075
  0
VERTEX
  8
1
 10
2.1282
 20
22.8718
  0
VERTEX
  8
1
 10
2.8481
 20
24.4170
  0
VERTEX
  8
1
 10
3.6453
 20
25.7432
  0
VERTEX
  8
1
 10
4.5202
 20
26.8517
  0
VERTEX
  8
1
 10
5.4728
 20
27.7430
  0
VERTEX
  8
1
 10
7.0148
 20
28.7421
  0
SEQEND
  8
1
  0
POLYLINE
  8
1
 66
1
 70
0
  0
VERTEX
  8
1
 10
7.0148
 20
28.7421
  0
VERTEX
  8
1
 10
9.6406
 20
27.5034
  0
VERTEX
  8
1
 10
13.7302
 20
25.5639
  0
VERTEX
  8
1
 10
15.5110
 20
24.6748
  0
SEQEND
  8
1
  0
POLYLINE
  8
1
 66
1
 70
0
  0
VERTEX
  8
1
 10
15.5110
 20
24.6748
  0
VERTEX
  8
1
 10
15.7262
 20
23.8953
  0
VERTEX
  8
1
 10
16.7580
 20
22.9514
  0
VERTEX
  8
1
 10
18.5497
 20
22.2134
  0
VERTEX
  8
1
 10
20.4852
 20
21.8690
  0
VERTEX
  8
1
 10
20.5726
 20
21.8595
  0
VERTEX
  8
1
 10
23.7759
 20
21.7842
  0
VERTEX
  8
1
 10
26.6868
 20
22.1005
  0
VERTEX
  8
1
 10
26.4391
 20
22.1006
  0
SEQEND
  8
1
  0
POLYLINE
  8
1
 66
1
 70
0
  0
VERTEX
  8
1
 10
26.4391
 20
22.1006
  0
VERTEX
  8
1
 10
26.8022
 20
21.1942
  0
SEQEND
  8
1
  0
POLYLINE
  8
1
 66
1
 70
0
  0
VERTEX
  8
1
 10
26.8022
 20
21.1942
  0
VERTEX
  8
1
 10
25.8160
 20
20.8830
  0
VERTEX
  8
1
 10
24.1912
 20
20.0085
  0
VERTEX
  8
1
 10
22.9384
 20
18.8933
  0
VERTEX
  8
1
 10
22.0872
 20
17.1438
  0
VERTEX
  8
1
 10
22.0508
 20
16.4305
  0
SEQEND
  8
1
  0
POLYLINE
  8
1
 66
1
 70
0
  0
VERTEX
  8
1
 10
22.0508
 20
16.4305
  0
VERTEX
  8
1
 10
0.3226
 20
16.4300
  0
SEQEND
  8
1
  0
LINE
  8
7
 10
7.6437
 20
21.1552
 11
19.9825
 21
21.1552
  0
LINE
  8
5
 10
7.6437
 20
21.1552
 11
19.9825
 21
21.1552
  0
LINE
  8
8
 10
4.6692
 20
26.1757
 11
4.6692
 21
16.4301
  0
LINE
  8
8
 10
11.6645
 20
25.2414
 11
11.6645
 21
16.4303
  0
LINE
  8
8
 10
14.8141
 20
24.7962
 11
14.8141
 21
16.4303
  0
POLYLINE
  8
8
 66
1
 70
0
  0
VERTEX
  8
8
 10
9.9620
 20
19.5740
  0
VERTEX
  8
8
 10
8.6921
 20
19.5740
  0
VERTEX
  8
8
 10
8.6921
 20
20.5678
  0
SEQEND
  8
8
  0
LINE
  8
8
 10
19.8787
 20
16.4305
 11
19.9074
 21
21.9615
  0
LINE
  8
8
 10
17.0818
 20
16.4304
 11
17.0831
 21
22.7874
  0
LINE
  8
8
 10
15.5883
 20
24.6822
 11
15.5683
 21
16.4304
  0
LINE
  8
6
 10
22.0508
 20
16.4305
 11
0.3226
 21
16.4300
  0
ENDBLK
  0
BLOCK
  8
0
  2
DEEP ARMHOLE RACERBK_26
 70
64
 10
0.0000
 20
0.0000
  0
TEXT
  8
1
 10
41.5091
 20
21.3752
 40
0.250
 50
0.0000
  1
Piece Name: DEEP ARMHOLE RACERBK
  7
STANDARD
  0
TEXT
  8
1
 10
41.5091
 20
21.5152
 40
0.250
 50
0.0000
  1
SIZE: 26
  7
STANDARD
  0
POLYLINE
  8
1
 66
1
 70
0
  0
VERTEX
  8
1
 10
28.5355
 20
17.1932
  0
VERTEX
  8
1
 10
28.4854
 20
18.1539
  0
VERTEX
  8
1
 10
28.5736
 20
19.6827
  0
VERTEX
  8
1
 10
28.9327
 20
21.2340
  0
VERTEX
  8
1
 10
29.3264
 20
22.3236
  0
VERTEX
  8
1
 10
29.7567
 20
23.2470
  0
VERTEX
  8
1
 10
30.2364
 20
24.1080
  0
VERTEX
  8
1
 10
30.8950
 20
25.0092
  0
VERTEX
  8
1
 10
31.5123
 20
25.7180
  0
SEQEND
  8
1
  0
POLYLINE
  8
1
 66
1
 70
0
  0
VERTEX
  8
1
 10
31.5123
 20
25.7180
  0
VERTEX
  8
1
 10
35.1169
 20
25.2328
  0
VERTEX
  8
1
 10
39.2587
 20
24.6839
  0
VERTEX
  8
1
 10
43.2985
 20
24.1810
  0
SEQEND
  8
1
  0
POLYLINE
  8
1
 66
1
 70
0
  0
VERTEX
  8
1
 10
43.2985
 20
24.1810
  0
VERTEX
  8
1
 10
43.2625
 20
22.9971
  0
VERTEX
  8
1
 10
44.1294
 20
20.4732
  0
VERTEX
  8
1
 10
46.1711
 20
18.3963
  0
VERTEX
  8
1
 10
48.5962
 20
17.7928
  0
VERTEX
  8
1
 10
50.3276
 20
17.8924
  0
VERTEX
  8
1
 10
51.9721
 20
18.6728
  0
VERTEX
  8
1
 10
52.9298
 20
20.0154
  0
VERTEX
  8
1
 10
53.8275
 20
21.5225
  0
VERTEX
  8
1
 10
53.9196
 20
24.1881
  0
SEQEND
  8
1
  0
POLYLINE
  8
1
 66
1
 70
0
  0
VERTEX
  8
1
 10
53.9196
 20
24.1881
  0
VERTEX
  8
1
 10
54.2914
 20
23.2412
  0
SEQEND
  8
1
  0
POLYLINE
  8
1
 66
1
 70
0
  0
VERTEX
  8
1
 10
54.2914
 20
23.2412
  0
VERTEX
  8
1
 10
54.5329
 20
20.4393
  0
VERTEX
  8
1
 10
54.0181
 20
19.3405
  0
VERTEX
  8
1
 10
53.8103
 20
17.8142
  0
VERTEX
  8
1
 10
53.7984
 20
17.0324
  0
SEQEND
  8
1
  0
POLYLINE
  8
1
 66
1
 70
0
  0
VERTEX
  8
1
 10
53.7984
 20
17.0324
  0
VERTEX
  8
1
 10
28.5355
 20
17.1932
  0
SEQEND
  8
1
  0
LINE
  8
7
 10
31.9328
 20
23.1789
 11
40.2141
 21
23.1789
  0
LINE
  8
5
 10
31.9328
 20
23.1789
 11
40.2141
 21
23.1789
  0
LINE
  8
8
 10
32.1682
 20
28.1994
 11
32.1682
 21
18.4538
  0
LINE
  8
8
 10
39.1593
 20
27.2341
 11
39.1618
 21
18.4540
  0
LINE
  8
8
 10
42.3114
 20
26.8203
 11
42.3114
 21
18.4540
  0
LINE
  8
8
 10
48.2255
 20
18.4425
 11
48.2304
 21
20.0607
  0
POLYLINE
  8
8
 66
1
 70
0
  0
VERTEX
  8
8
 10
36.9933
 20
20.4247
  0
VERTEX
  8
8
 10
35.7234
 20
20.4247
  0
VERTEX
  8
8
 10
35.7234
 20
21.4186
  0
SEQEND
  8
8
  0
LINE
  8
8
 10
49.5430
 20
18.4305
 11
49.5239
 21
20.0972
  0
LINE
  8
8
 10
43.0914
 20
26.7053
 11
43.0825
 21
18.4375
  0
LINE
  8
6
 10
53.7984
 20
17.0324
 11
28.5355
 21
17.1932
  0
ENDBLK
  0
BLOCK
  8
0
  2
DEEP ARMHOLE RACERBK_28
 70
64
 10
0.0000
 20
0.0000
  0
TEXT
  8
1
 10
41.5091
 20
21.6419
 40
0.250
 50
0.0000
  1
Piece Name: DEEP ARMHOLE RACERBK
  7
STANDARD
  0
TEXT
  8
1
 10
41.5091
 20
21.7819
 40
0.250
 50
0.0000
  1
SIZE: 28
  7
STANDARD
  0
POLYLINE
  8
1
 66
1
 70
0
  0
VERTEX
  8
1
 10
28.5314
 20
17.3166
  0
VERTEX
  8
1
 10
28.4913
 20
18.3104
  0
VERTEX
  8
1
 10
28.6013
 20
19.8901
  0
VERTEX
  8
1
 10
28.9916
 20
21.4894
  0
VERTEX
  8
1
 10
29.4120
 20
22.6111
  0
VERTEX
  8
1
 10
29.8682
 20
23.5607
  0
VERTEX
  8
1
 10
30.3747
 20
24.4450
  0
VERTEX
  8
1
 10
31.0667
 20
25.3685
  0
VERTEX
  8
1
 10
31.7136
 20
26.0938
  0
SEQEND
  8
1
  0
POLYLINE
  8
1
 66
1
 70
0
  0
VERTEX
  8
1
 10
31.7136
 20
26.0938
  0
VERTEX
  8
1
 10
35.2848
 20
25.6142
  0
VERTEX
  8
1
 10
39.3881
 20
25.0718
  0
VERTEX
  8
1
 10
43.3905
 20
24.5749
  0
SEQEND
  8
1
  0
POLYLINE
  8
1
 66
1
 70
0
  0
VERTEX
  8
1
 10
43.3905
 20
24.5749
  0
VERTEX
  8
1
 10
43.3401
 20
23.3880
  0
VERTEX
  8
1
 10
44.1788
 20
20.8467
  0
VERTEX
  8
1
 10
46.2010
 20
18.7393
  0
VERTEX
  8
1
 10
48.6256
 20
18.1049
  0
VERTEX
  8
1
 10
50.3630
 20
18.1837
  0
VERTEX
  8
1
 10
52.0214
 20
18.9464
  0
VERTEX
  8
1
 10
52.9981
 20
20.2811
  0
VERTEX
  8
1
 10
53.9165
 20
21.7816
  0
VERTEX
  8
1
 10
54.1258
 20
24.0272
  0
SEQEND
  8
1
  0
POLYLINE
  8
1
 66
1
 70
0
  0
VERTEX
  8
1
 10
54.1258
 20
24.0272
  0
VERTEX
  8
1
 10
54.4961
 20
23.0836
  0
SEQEND
  8
1
  0
POLYLINE
  8
1
 66
1
 70
0
  0
VERTEX
  8
1
 10
54.4961
 20
23.0836
  0
VERTEX
  8
1
 10
54.5269
 20
20.7219
  0
VERTEX
  8
1
 10
54.0033
 20
19.5805
  0
VERTEX
  8
1
 10
53.8009
 20
17.9992
  0
VERTEX
  8
1
 10
53.7951
 20
17.1901
  0
SEQEND
  8
1
  0
POLYLINE
  8
1
 66
1
 70
0
  0
VERTEX
  8
1
 10
53.7951
 20
17.1901
  0
VERTEX
  8
1
 10
28.5314
 20
17.3166
  0
SEQEND
  8
1
  0
LINE
  8
7
 10
32.1375
 20
23.0212
 11
40.4188
 21
23.0212
  0
LINE
  8
5
 10
32.1375
 20
23.0212
 11
40.4188
 21
23.0212
  0
LINE
  8
8
 10
32.3729
 20
28.0417
 11
32.3729
 21
18.2961
  0
LINE
  8
8
 10
39.3640
 20
27.0765
 11
39.3665
 21
18.2964
  0
LINE
  8
8
 10
42.5161
 20
26.6626
 11
42.5161
 21
18.2964
  0
LINE
  8
8
 10
48.4302
 20
18.2849
 11
48.4351
 21
19.9031
  0
POLYLINE
  8
8
 66
1
 70
0
  0
VERTEX
  8
8
 10
37.1980
 20
20.2670
  0
VERTEX
  8
8
 10
35.9281
 20
20.2670
  0
VERTEX
  8
8
 10
35.9281
 20
21.2609
  0
SEQEND
  8
8
  0
LINE
  8
8
 10
49.7477
 20
18.2728
 11
49.7286
 21
19.9396
  0
LINE
  8
8
 10
43.2961
 20
26.5477
 11
43.2872
 21
18.2799
  0
LINE
  8
6
 10
53.7951
 20
17.1901
 11
28.5314
 21
17.3166
  0
ENDBLK
  0
BLOCK
  8
0
  2
DEEP ARMHOLE RACERBK_30
 70
64
 10
0.0000
 20
0.0000
  0
TEXT
  8
1
 10
41.5091
 20
21.9070
 40
0.250
 50
0.0000
  1
Piece Name: DEEP ARMHOLE RACERBK
  7
STANDARD
  0
TEXT
  8
1
 10
41.5091
 20
22.0470
 40
0.250
 50
0.0000
  1
SIZE: 30
  7
STANDARD
  0
POLYLINE
  8
1
 66
1
 70
0
  0
VERTEX
  8
1
 10
28.4342
 20
17.4397
  0
VERTEX
  8
1
 10
28.4084
 20
18.4688
  0
VERTEX
  8
1
 10
28.5471
 20
20.1014
  0
VERTEX
  8
1
 10
28.9761
 20
21.7502
  0
VERTEX
  8
1
 10
29.4287
 20
22.9042
  0
VERTEX
  8
1
 10
29.9156
 20
23.8794
  0
VERTEX
  8
1
 10
30.4537
 20
24.7864
  0
VERTEX
  8
1
 10
31.1842
 20
25.7312
  0
VERTEX
  8
1
 10
31.8650
 20
26.4715
  0
SEQEND
  8
1
  0
POLYLINE
  8
1
 66
1
 70
0
  0
VERTEX
  8
1
 10
31.8650
 20
26.4715
  0
VERTEX
  8
1
 10
35.4019
 20
25.9950
  0
VERTEX
  8
1
 10
39.4658
 20
25.4559
  0
VERTEX
  8
1
 10
43.4298
 20
24.9621
  0
SEQEND
  8
1
  0
POLYLINE
  8
1
 66
1
 70
0
  0
VERTEX
  8
1
 10
43.4298
 20
24.9621
  0
VERTEX
  8
1
 10
43.3643
 20
23.7767
  0
VERTEX
  8
1
 10
44.1701
 20
21.2261
  0
VERTEX
  8
1
 10
46.1642
 20
19.0942
  0
VERTEX
  8
1
 10
48.5792
 20
18.4291
  0
VERTEX
  8
1
 10
50.3166
 20
18.4857
  0
VERTEX
  8
1
 10
51.9838
 20
19.2268
  0
VERTEX
  8
1
 10
52.9769
 20
20.5483
  0
VERTEX
  8
1
 10
53.9139
 20
22.0361
  0
VERTEX
  8
1
 10
54.2419
 20
23.8697
  0
SEQEND
  8
1
  0
POLYLINE
  8
1
 66
1
 70
0
  0
VERTEX
  8
1
 10
54.2419
 20
23.8697
  0
VERTEX
  8
1
 10
54.6098
 20
22.9311
  0
SEQEND
  8
1
  0
POLYLINE
  8
1
 66
1
 70
0
  0
VERTEX
  8
1
 10
54.6098
 20
22.9311
  0
VERTEX
  8
1
 10
54.4345
 20
20.9973
  0
VERTEX
  8
1
 10
53.8999
 20
19.8146
  0
VERTEX
  8
1
 10
53.6997
 20
18.1790
  0
VERTEX
  8
1
 10
53.6983
 20
17.3426
  0
SEQEND
  8
1
  0
POLYLINE
  8
1
 66
1
 70
0
  0
VERTEX
  8
1
 10
53.6983
 20
17.3426
  0
VERTEX
  8
1
 10
28.4342
 20
17.4397
  0
SEQEND
  8
1
  0
LINE
  8
7
 10
32.2512
 20
22.8688
 11
40.5325
 21
22.8688
  0
LINE
  8
5
 10
32.2512
 20
22.8688
 11
40.5325
 21
22.8688
  0
LINE
  8
8
 10
32.4866
 20
27.8893
 11
32.4866
 21
18.1437
  0
LINE
  8
8
 10
39.4777
 20
26.9240
 11
39.4802
 21
18.1439
  0
LINE
  8
8
 10
42.6298
 20
26.5102
 11
42.6298
 21
18.1439
  0
LINE
  8
8
 10
48.5439
 20
18.1324
 11
48.5488
 21
19.7506
  0
POLYLINE
  8
8
 66
1
 70
0
  0
VERTEX
  8
8
 10
37.3117
 20
20.1146
  0
VERTEX
  8
8
 10
36.0418
 20
20.1146
  0
VERTEX
  8
8
 10
36.0418
 20
21.1085
  0
SEQEND
  8
8
  0
LINE
  8
8
 10
49.8614
 20
18.1204
 11
49.8423
 21
19.7871
  0
LINE
  8
8
 10
43.4098
 20
26.3952
 11
43.4009
 21
18.1274
  0
LINE
  8
6
 10
53.6983
 20
17.3426
 11
28.4342
 21
17.4397
  0
ENDBLK
  0
BLOCK
  8
0
  2
DEEP ARMHOLE RACERBK_32
 70
64
 10
0.0000
 20
0.0000
  0
TEXT
  8
1
 10
41.5091
 20
22.1633
 40
0.250
 50
0.0000
  1
Piece Name: DEEP ARMHOLE RACERBK
  7
STANDARD
  0
TEXT
  8
1
 10
41.5091
 20
22.3033
 40
0.250
 50
0.0000
  1
SIZE: 32
  7
STANDARD
  0
POLYLINE
  8
1
 66
1
 70
0
  0
VERTEX
  8
1
 10
28.3169
 20
17.5548
  0
VERTEX
  8
1
 10
28.3076
 20
18.6202
  0
VERTEX
  8
1
 10
28.4790
 20
20.3073
  0
VERTEX
  8
1
 10
28.9509
 20
22.0063
  0
VERTEX
  8
1
 10
29.4390
 20
23.1929
  0
VERTEX
  8
1
 10
29.9595
 20
24.1938
  0
VERTEX
  8
1
 10
30.5318
 20
25.1233
  0
VERTEX
  8
1
 10
31.3038
 20
26.0886
  0
VERTEX
  8
1
 10
32.0210
 20
26.8431
  0
SEQEND
  8
1
  0
POLYLINE
  8
1
 66
1
 70
0
  0
VERTEX
  8
1
 10
32.0210
 20
26.8431
  0
VERTEX
  8
1
 10
35.5304
 20
26.3667
  0
VERTEX
  8
1
 10
39.5627
 20
25.8276
  0
VERTEX
  8
1
 10
43.4960
 20
25.3335
  0
SEQEND
  8
1
  0
POLYLINE
  8
1
 66
1
 70
0
  0
VERTEX
  8
1
 10
43.4960
 20
25.3335
  0
VERTEX
  8
1
 10
43.4148
 20
24.1544
  0
VERTEX
  8
1
 10
44.1824
 20
21.6046
  0
VERTEX
  8
1
 10
46.1387
 20
19.4554
  0
VERTEX
  8
1
 10
48.5336
 20
18.7608
  0
VERTEX
  8
1
 10
50.2638
 20
18.7937
  0
VERTEX
  8
1
 10
51.9334
 20
19.5089
  0
VERTEX
  8
1
 10
52.9400
 20
20.8110
  0
VERTEX
  8
1
 10
53.8928
 20
22.2793
  0
VERTEX
  8
1
 10
54.3460
 20
23.7217
  0
SEQEND
  8
1
  0
POLYLINE
  8
1
 66
1
 70
0
  0
VERTEX
  8
1
 10
54.3460
 20
23.7217
  0
VERTEX
  8
1
 10
54.7106
 20
22.7901
  0
SEQEND
  8
1
  0
POLYLINE
  8
1
 66
1
 70
0
  0
VERTEX
  8
1
 10
54.7106
 20
22.7901
  0
VERTEX
  8
1
 10
54.3408
 20
21.2559
  0
VERTEX
  8
1
 10
53.7891
 20
20.0350
  0
VERTEX
  8
1
 10
53.5826
 20
18.3468
  0
VERTEX
  8
1
 10
53.5813
 20
17.4835
  0
SEQEND
  8
1
  0
POLYLINE
  8
1
 66
1
 70
0
  0
VERTEX
  8
1
 10
53.5813
 20
17.4835
  0
VERTEX
  8
1
 10
28.3169
 20
17.5548
  0
SEQEND
  8
1
  0
LINE
  8
7
 10
32.3520
 20
22.7278
 11
40.6333
 21
22.7278
  0
LINE
  8
5
 10
32.3520
 20
22.7278
 11
40.6333
 21
22.7278
  0
LINE
  8
8
 10
32.5874
 20
27.7483
 11
32.5874
 21
18.0027
  0
LINE
  8
8
 10
39.5785
 20
26.7830
 11
39.5810
 21
18.0029
  0
LINE
  8
8
 10
42.7305
 20
26.3692
 11
42.7305
 21
18.0029
  0
LINE
  8
8
 10
48.6447
 20
17.9914
 11
48.6496
 21
19.6096
  0
POLYLINE
  8
8
 66
1
 70
0
  0
VERTEX
  8
8
 10
37.4125
 20
19.9736
  0
VERTEX
  8
8
 10
36.1426
 20
19.9736
  0
VERTEX
  8
8
 10
36.1426
 20
20.9675
  0
SEQEND
  8
8
  0
LINE
  8
8
 10
49.9621
 20
17.9794
 11
49.9431
 21
19.6461
  0
LINE
  8
8
 10
43.5105
 20
26.2542
 11
43.5017
 21
17.9864
  0
LINE
  8
6
 10
53.5813
 20
17.4835
 11
28.3169
 21
17.5548
  0
ENDBLK
  0
BLOCK
  8
0
  2
DEEP ARMHOLE RACERBK_34
 70
64
 10
0.0000
 20
0.0000
  0
TEXT
  8
1
 10
41.5091
 20
22.4083
 40
0.250
 50
0.0000
  1
Piece Name: DEEP ARMHOLE RACERBK
  7
STANDARD
  0
TEXT
  8
1
 10
41.5091
 20
22.5483
 40
0.250
 50
0.0000
  1
SIZE: 34
  7
STANDARD
  0
POLYLINE
  8
1
 66
1
 70
0
  0
VERTEX
  8
1
 10
28.1972
 20
17.6593
  0
VERTEX
  8
1
 10
28.2063
 20
18.7619
  0
VERTEX
  8
1
 10
28.4129
 20
20.5048
  0
VERTEX
  8
1
 10
28.9310
 20
22.2547
  0
VERTEX
  8
1
 10
29.4568
 20
23.4740
  0
VERTEX
  8
1
 10
30.0128
 20
24.5007
  0
VERTEX
  8
1
 10
30.6212
 20
25.4526
  0
VERTEX
  8
1
 10
31.4370
 20
26.4380
  0
VERTEX
  8
1
 10
32.1922
 20
27.2062
  0
SEQEND
  8
1
  0
POLYLINE
  8
1
 66
1
 70
0
  0
VERTEX
  8
1
 10
32.1922
 20
27.2062
  0
VERTEX
  8
1
 10
35.6763
 20
26.7278
  0
VERTEX
  8
1
 10
39.6797
 20
26.1863
  0
VERTEX
  8
1
 10
43.5846
 20
25.6898
  0
SEQEND
  8
1
  0
POLYLINE
  8
1
 66
1
 70
0
  0
VERTEX
  8
1
 10
43.5846
 20
25.6898
  0
VERTEX
  8
1
 10
43.4873
 20
24.5195
  0
VERTEX
  8
1
 10
44.2140
 20
21.9755
  0
VERTEX
  8
1
 10
46.1272
 20
19.8128
  0
VERTEX
  8
1
 10
48.4968
 20
19.0890
  0
VERTEX
  8
1
 10
50.2162
 20
19.0973
  0
VERTEX
  8
1
 10
51.8850
 20
19.7843
  0
VERTEX
  8
1
 10
52.9032
 20
21.0637
  0
VERTEX
  8
1
 10
53.8705
 20
22.5090
  0
VERTEX
  8
1
 10
54.4590
 20
23.5894
  0
SEQEND
  8
1
  0
POLYLINE
  8
1
 66
1
 70
0
  0
VERTEX
  8
1
 10
54.4590
 20
23.5894
  0
VERTEX
  8
1
 10
54.8210
 20
22.6632
  0
SEQEND
  8
1
  0
POLYLINE
  8
1
 66
1
 70
0
  0
VERTEX
  8
1
 10
54.8210
 20
22.6632
  0
VERTEX
  8
1
 10
54.2715
 20
21.4930
  0
VERTEX
  8
1
 10
53.6942
 20
20.2387
  0
VERTEX
  8
1
 10
53.4694
 20
18.5003
  0
VERTEX
  8
1
 10
53.4619
 20
17.6105
  0
SEQEND
  8
1
  0
POLYLINE
  8
1
 66
1
 70
0
  0
VERTEX
  8
1
 10
53.4619
 20
17.6105
  0
VERTEX
  8
1
 10
28.1972
 20
17.6593
  0
SEQEND
  8
1
  0
LINE
  8
7
 10
32.4624
 20
22.6009
 11
40.7437
 21
22.6009
  0
LINE
  8
5
 10
32.4624
 20
22.6009
 11
40.7437
 21
22.6009
  0
LINE
  8
8
 10
32.6978
 20
27.6214
 11
32.6978
 21
17.8758
  0
LINE
  8
8
 10
39.6889
 20
26.6561
 11
39.6914
 21
17.8760
  0
LINE
  8
8
 10
42.8410
 20
26.2423
 11
42.8410
 21
17.8760
  0
LINE
  8
8
 10
48.7551
 20
17.8645
 11
48.7600
 21
19.4827
  0
POLYLINE
  8
8
 66
1
 70
0
  0
VERTEX
  8
8
 10
37.5229
 20
19.8467
  0
VERTEX
  8
8
 10
36.2530
 20
19.8467
  0
VERTEX
  8
8
 10
36.2530
 20
20.8406
  0
SEQEND
  8
8
  0
LINE
  8
8
 10
50.0726
 20
17.8525
 11
50.0535
 21
19.5192
  0
LINE
  8
8
 10
43.6210
 20
26.1273
 11
43.6121
 21
17.8595
  0
LINE
  8
6
 10
53.4619
 20
17.6105
 11
28.1972
 21
17.6593
  0
ENDBLK
  0
BLOCK
  8
0
  2
DEEP ARMHOLE RACERBK_36
 70
64
 10
0.0000
 20
0.0000
  0
TEXT
  8
1
 10
41.5091
 20
22.6159
 40
0.250
 50
0.0000
  1
Piece Name: DEEP ARMHOLE RACERBK
  7
STANDARD
  0
TEXT
  8
1
 10
41.5091
 20
22.7559
 40
0.250
 50
0.0000
  1
Quantity: 1
  7
STANDARD
  0
TEXT
  8
1
 10
41.5091
 20
22.8959
 40
0.250
 50
0.0000
  1
ANNOTATION: 1XFABRIC
  7
STANDARD
  0
TEXT
  8
1
 10
41.5091
 20
23.0359
 40
0.250
 50
0.0000
  1
CATEGORY: BACK
  7
STANDARD
  0
TEXT
  8
1
 10
41.5091
 20
23.1759
 40
0.250
 50
0.0000
  1
Fabric: 1
  7
STANDARD
  0
TEXT
  8
1
 10
41.5091
 20
23.3159
 40
0.250
 50
0.0000
  1
SIZE: 36
  7
STANDARD
  0
POLYLINE
  8
1
 66
1
 70
0
  0
VERTEX
  8
1
 10
28.0773
 20
17.7254
  0
VERTEX
  8
1
 10
28.1050
 20
18.8657
  0
VERTEX
  8
1
 10
28.3476
 20
20.6649
  0
VERTEX
  8
1
 10
28.9124
 20
22.4662
  0
VERTEX
  8
1
 10
29.4763
 20
23.7186
  0
VERTEX
  8
1
 10
30.0685
 20
24.7713
  0
VERTEX
  8
1
 10
30.7135
 20
25.7457
  0
VERTEX
  8
1
 10
31.5735
 20
26.7514
  0
VERTEX
  8
1
 10
32.3673
 20
27.5334
  0
SEQEND
  8
1
  0
POINT
  8
4
 10
28.0773
 20
17.7254
 30
0.1574
 39
0.0000
  0
POINT
  8
2
 10
28.0773
 20
17.7254
  0
TEXT
  8
2
 10
28.0773
 20
17.7254
 40
0.250
 50
0.0000
  1
# 1
  7
STANDARD
  0
POINT
  8
3
 10
28.1050
 20
18.8657
  0
POINT
  8
3
 10
28.3476
 20
20.6649
  0
POINT
  8
3
 10
28.9124
 20
22.4662
  0
POINT
  8
3
 10
29.4763
 20
23.7186
  0
POINT
  8
3
 10
30.0685
 20
24.7713
  0
POINT
  8
3
 10
30.7135
 20
25.7457
  0
POINT
  8
3
 10
31.5735
 20
26.7514
  0
POINT
  8
2
 10
32.3673
 20
27.5334
  0
TEXT
  8
2
 10
32.3673
 20
27.5334
 40
0.250
 50
0.0000
  1
# 2
  7
STANDARD
  0
POLYLINE
  8
1
 66
1
 70
0
  0
VERTEX
  8
1
 10
32.3673
 20
27.5334
  0
VERTEX
  8
1
 10
35.8301
 20
27.0512
  0
VERTEX
  8
1
 10
39.8089
 20
26.5054
  0
VERTEX
  8
1
 10
43.6899
 20
26.0042
  0
SEQEND
  8
1
  0
POINT
  8
2
 10
32.3673
 20
27.5334
  0
TEXT
  8
2
 10
32.3673
 20
27.5334
 40
0.250
 50
0.0000
  1
# 2
  7
STANDARD
  0
POINT
  8
3
 10
35.8301
 20
27.0512
  0
POINT
  8
3
 10
39.8089
 20
26.5054
  0
POINT
  8
2
 10
43.6899
 20
26.0042
  0
TEXT
  8
2
 10
43.6899
 20
26.0042
 40
0.250
 50
0.0000
  1
# 3
  7
STANDARD
  0
POLYLINE
  8
1
 66
1
 70
0
  0
VERTEX
  8
1
 10
43.6899
 20
26.0042
  0
VERTEX
  8
1
 10
43.5765
 20
24.8447
  0
VERTEX
  8
1
 10
44.2607
 20
22.3105
  0
VERTEX
  8
1
 10
46.1274
 20
20.1374
  0
VERTEX
  8
1
 10
48.4677
 20
19.3851
  0
VERTEX
  8
1
 10
50.1735
 20
19.3685
  0
VERTEX
  8
1
 10
51.8389
 20
20.0259
  0
VERTEX
  8
1
 10
52.8675
 20
21.2804
  0
VERTEX
  8
1
 10
53.8479
 20
22.7002
  0
VERTEX
  8
1
 10
54.5797
 20
23.4373
  0
SEQEND
  8
1
  0
POINT
  8
2
 10
43.6899
 20
26.0042
  0
TEXT
  8
2
 10
43.6899
 20
26.0042
 40
0.250
 50
0.0000
  1
# 3
  7
STANDARD
  0
POINT
  8
3
 10
43.5765
 20
24.8447
  0
POINT
  8
3
 10
44.2607
 20
22.3105
  0
POINT
  8
3
 10
46.1274
 20
20.1374
  0
POINT
  8
3
 10
48.4677
 20
19.3851
  0
POINT
  8
3
 10
50.1735
 20
19.3685
  0
POINT
  8
3
 10
51.8389
 20
20.0259
  0
POINT
  8
3
 10
52.8675
 20
21.2804
  0
POINT
  8
3
 10
53.8479
 20
22.7002
  0
TEXT
  8
3
 10
53.8479
 20
22.7002
 40
0.250
 50
0.0000
  1
# 4
  7
STANDARD
  0
POINT
  8
2
 10
54.5797
 20
23.4373
  0
TEXT
  8
2
 10
54.5797
 20
23.4373
 40
0.250
 50
0.0000
  1
# 5
  7
STANDARD
  0
POLYLINE
  8
1
 66
1
 70
0
  0
VERTEX
  8
1
 10
54.5797
 20
23.4373
  0
VERTEX
  8
1
 10
54.9410
 20
22.5125
  0
SEQEND
  8
1
  0
POINT
  8
2
 10
54.5797
 20
23.4373
  0
TEXT
  8
2
 10
54.5797
 20
23.4373
 40
0.250
 50
0.0000
  1
# 5
  7
STANDARD
  0
POINT
  8
2
 10
54.9410
 20
22.5125
  0
TEXT
  8
2
 10
54.9410
 20
22.5125
 40
0.250
 50
0.0000
  1
# 6
  7
STANDARD
  0
POLYLINE
  8
1
 66
1
 70
0
  0
VERTEX
  8
1
 10
54.9410
 20
22.5125
  0
VERTEX
  8
1
 10
54.2197
 20
21.6860
  0
VERTEX
  8
1
 10
53.6112
 20
20.4014
  0
VERTEX
  8
1
 10
53.3600
 20
18.6144
  0
VERTEX
  8
1
 10
53.3421
 20
17.6985
  0
SEQEND
  8
1
  0
POINT
  8
2
 10
54.9410
 20
22.5125
  0
TEXT
  8
2
 10
54.9410
 20
22.5125
 40
0.250
 50
0.0000
  1
# 6
  7
STANDARD
  0
POINT
  8
3
 10
54.2197
 20
21.6860
  0
TEXT
  8
3
 10
54.2197
 20
21.6860
 40
0.250
 50
0.0000
  1
# 7
  7
STANDARD
  0
POINT
  8
3
 10
53.6112
 20
20.4014
  0
POINT
  8
3
 10
53.3600
 20
18.6144
  0
POINT
  8
4
 10
53.3421
 20
17.6985
 30
0.1574
 39
0.0000
  0
POINT
  8
2
 10
53.3421
 20
17.6985
  0
TEXT
  8
2
 10
53.3421
 20
17.6985
 40
0.250
 50
0.0000
  1
# 8
  7
STANDARD
  0
POLYLINE
  8
1
 66
1
 70
0
  0
VERTEX
  8
1
 10
53.3421
 20
17.6985
  0
VERTEX
  8
1
 10
28.0773
 20
17.7254
  0
SEQEND
  8
1
  0
POINT
  8
4
 10
53.3421
 20
17.6985
 30
0.1574
 39
0.0000
  0
POINT
  8
2
 10
53.3421
 20
17.6985
  0
TEXT
  8
2
 10
53.3421
 20
17.6985
 40
0.250
 50
0.0000
  1
# 8
  7
STANDARD
  0
LINE
  8
7
 10
32.5824
 20
22.4502
 11
40.8637
 21
22.4502
  0
LINE
  8
5
 10
32.5824
 20
22.4502
 11
40.8637
 21
22.4502
  0
POINT
  8
2
 10
32.5824
 20
22.4502
  0
POINT
  8
2
 10
40.8637
 20
22.4502
  0
LINE
  8
8
 10
32.8178
 20
27.4707
 11
32.8178
 21
17.7251
  0
TEXT
  8
8
 10
32.8178
 20
27.4707
 40
0.250
 50
0.0000
  1
NM
  7
STANDARD
  0
POINT
  8
2
 10
32.8178
 20
27.4707
  0
POINT
  8
2
 10
32.8178
 20
17.7251
  0
LINE
  8
8
 10
39.8089
 20
26.5054
 11
39.8114
 21
17.7253
  0
TEXT
  8
8
 10
39.8089
 20
26.5054
 40
0.250
 50
0.0000
  1
NM
  7
STANDARD
  0
POINT
  8
2
 10
39.8089
 20
26.5054
  0
POINT
  8
2
 10
39.8114
 20
17.7253
  0
LINE
  8
8
 10
42.9609
 20
26.0915
 11
42.9609
 21
17.7253
  0
TEXT
  8
8
 10
42.9609
 20
26.0915
 40
0.250
 50
0.0000
  1
NM
  7
STANDARD
  0
POINT
  8
2
 10
42.9609
 20
26.0915
  0
POINT
  8
2
 10
42.9609
 20
17.7253
  0
LINE
  8
8
 10
48.8751
 20
17.7138
 11
48.8800
 21
19.3320
  0
TEXT
  8
8
 10
48.8751
 20
17.7138
 40
0.250
 50
0.0000
  1
NM
  7
STANDARD
  0
POINT
  8
2
 10
48.8751
 20
17.7138
  0
POINT
  8
2
 10
48.8800
 20
19.3320
  0
POLYLINE
  8
8
 66
1
 70
0
  0
VERTEX
  8
8
 10
37.6429
 20
19.6960
  0
VERTEX
  8
8
 10
36.3730
 20
19.6960
  0
VERTEX
  8
8
 10
36.3730
 20
20.6899
  0
SEQEND
  8
8
  0
TEXT
  8
8
 10
37.6429
 20
19.6960
 40
0.250
 50
0.0000
  1
B
  7
STANDARD
  0
POINT
  8
2
 10
37.6429
 20
19.6960
  0
POINT
  8
2
 10
36.3730
 20
19.6960
  0
POINT
  8
2
 10
36.3730
 20
20.6899
  0
LINE
  8
8
 10
50.1926
 20
17.7018
 11
50.1735
 21
19.3685
  0
TEXT
  8
8
 10
50.1926
 20
17.7018
 40
0.250
 50
0.0000
  1
NM
  7
STANDARD
  0
POINT
  8
2
 10
50.1926
 20
17.7018
  0
POINT
  8
2
 10
50.1735
 20
19.3685
  0
LINE
  8
8
 10
43.7410
 20
25.9766
 11
43.7321
 21
17.7088
  0
TEXT
  8
8
 10
43.7410
 20
25.9766
 40
0.250
 50
0.0000
  1
NM
  7
STANDARD
  0
POINT
  8
2
 10
43.7410
 20
25.9766
  0
POINT
  8
2
 10
43.7321
 20
17.7088
  0
LINE
  8
6
 10
53.3421
 20
17.6985
 11
28.0773
 21
17.7254
  0
ENDBLK
  0
BLOCK
  8
0
  2
DEEP ARMHOLE RACERBK_38
 70
64
 10
0.0000
 20
0.0000
  0
TEXT
  8
1
 10
41.5091
 20
22.7322
 40
0.250
 50
0.0000
  1
Piece Name: DEEP ARMHOLE RACERBK
  7
STANDARD
  0
TEXT
  8
1
 10
41.5091
 20
22.8722
 40
0.250
 50
0.0000
  1
SIZE: 38
  7
STANDARD
  0
POLYLINE
  8
1
 66
1
 70
0
  0
VERTEX
  8
1
 10
27.9574
 20
17.6997
  0
VERTEX
  8
1
 10
28.0039
 20
18.8781
  0
VERTEX
  8
1
 10
28.2829
 20
20.7346
  0
VERTEX
  8
1
 10
28.8951
 20
22.5880
  0
VERTEX
  8
1
 10
29.4978
 20
23.8739
  0
VERTEX
  8
1
 10
30.1265
 20
24.9530
  0
VERTEX
  8
1
 10
30.8086
 20
25.9503
  0
VERTEX
  8
1
 10
31.7135
 20
26.9766
  0
VERTEX
  8
1
 10
32.5465
 20
27.7728
  0
SEQEND
  8
1
  0
POLYLINE
  8
1
 66
1
 70
0
  0
VERTEX
  8
1
 10
32.5465
 20
27.7728
  0
VERTEX
  8
1
 10
35.9866
 20
27.2854
  0
VERTEX
  8
1
 10
39.9393
 20
26.7336
  0
VERTEX
  8
1
 10
43.7950
 20
26.2264
  0
SEQEND
  8
1
  0
POLYLINE
  8
1
 66
1
 70
0
  0
VERTEX
  8
1
 10
43.7950
 20
26.2264
  0
VERTEX
  8
1
 10
43.6652
 20
25.0774
  0
VERTEX
  8
1
 10
44.3066
 20
22.5523
  0
VERTEX
  8
1
 10
46.1269
 20
20.3681
  0
VERTEX
  8
1
 10
48.4382
 20
19.5868
  0
VERTEX
  8
1
 10
50.1307
 20
19.5451
  0
VERTEX
  8
1
 10
51.7931
 20
20.1727
  0
VERTEX
  8
1
 10
52.8325
 20
21.4024
  0
VERTEX
  8
1
 10
53.8265
 20
22.7970
  0
VERTEX
  8
1
 10
54.7003
 20
23.1928
  0
SEQEND
  8
1
  0
POLYLINE
  8
1
 66
1
 70
0
  0
VERTEX
  8
1
 10
54.7003
 20
23.1928
  0
VERTEX
  8
1
 10
55.0608
 20
22.2697
  0
SEQEND
  8
1
  0
POLYLINE
  8
1
 66
1
 70
0
  0
VERTEX
  8
1
 10
55.0608
 20
22.2697
  0
VERTEX
  8
1
 10
54.1688
 20
21.7844
  0
VERTEX
  8
1
 10
53.5287
 20
20.4694
  0
VERTEX
  8
1
 10
53.2507
 20
18.6336
  0
VERTEX
  8
1
 10
53.2223
 20
17.6917
  0
SEQEND
  8
1
  0
POLYLINE
  8
1
 66
1
 70
0
  0
VERTEX
  8
1
 10
53.2223
 20
17.6917
  0
VERTEX
  8
1
 10
27.9574
 20
17.6997
  0
SEQEND
  8
1
  0
LINE
  8
7
 10
32.7022
 20
22.2074
 11
40.9835
 21
22.2074
  0
LINE
  8
5
 10
32.7022
 20
22.2074
 11
40.9835
 21
22.2074
  0
LINE
  8
8
 10
32.9376
 20
27.2279
 11
32.9376
 21
17.4823
  0
LINE
  8
8
 10
39.9287
 20
26.2627
 11
39.9312
 21
17.4826
  0
LINE
  8
8
 10
43.0808
 20
25.8488
 11
43.0808
 21
17.4826
  0
LINE
  8
8
 10
48.9949
 20
17.4710
 11
48.9998
 21
19.0893
  0
POLYLINE
  8
8
 66
1
 70
0
  0
VERTEX
  8
8
 10
37.7627
 20
19.4532
  0
VERTEX
  8
8
 10
36.4928
 20
19.4532
  0
VERTEX
  8
8
 10
36.4928
 20
20.4471
  0
SEQEND
  8
8
  0
LINE
  8
8
 10
50.3124
 20
17.4590
 11
50.2933
 21
19.1258
  0
LINE
  8
8
 10
43.8608
 20
25.7339
 11
43.8519
 21
17.4661
  0
LINE
  8
6
 10
53.2223
 20
17.6917
 11
27.9574
 21
17.6997
  0
ENDBLK
  0
BLOCK
  8
0
  2
DEEP ARMHOLE RACERBK_40
 70
64
 10
0.0000
 20
0.0000
  0
TEXT
  8
1
 10
41.5091
 20
22.8446
 40
0.250
 50
0.0000
  1
Piece Name: DEEP ARMHOLE RACERBK
  7
STANDARD
  0
TEXT
  8
1
 10
41.5091
 20
22.9846
 40
0.250
 50
0.0000
  1
SIZE: 40
  7
STANDARD
  0
POLYLINE
  8
1
 66
1
 70
0
  0
VERTEX
  8
1
 10
27.8375
 20
17.6742
  0
VERTEX
  8
1
 10
27.9030
 20
18.8912
  0
VERTEX
  8
1
 10
28.2188
 20
20.8053
  0
VERTEX
  8
1
 10
28.8788
 20
22.7115
  0
VERTEX
  8
1
 10
29.5206
 20
24.0314
  0
VERTEX
  8
1
 10
30.1862
 20
25.1372
  0
VERTEX
  8
1
 10
30.9058
 20
26.1576
  0
VERTEX
  8
1
 10
31.8561
 20
27.2047
  0
VERTEX
  8
1
 10
32.7286
 20
28.0150
  0
SEQEND
  8
1
  0
POLYLINE
  8
1
 66
1
 70
0
  0
VERTEX
  8
1
 10
32.7286
 20
28.0150
  0
VERTEX
  8
1
 10
36.1451
 20
27.5211
  0
VERTEX
  8
1
 10
40.0709
 20
26.9618
  0
VERTEX
  8
1
 10
43.9003
 20
26.4471
  0
SEQEND
  8
1
  0
POLYLINE
  8
1
 66
1
 70
0
  0
VERTEX
  8
1
 10
43.9003
 20
26.4471
  0
VERTEX
  8
1
 10
43.7542
 20
25.3086
  0
VERTEX
  8
1
 10
44.3528
 20
22.7927
  0
VERTEX
  8
1
 10
46.1267
 20
20.5973
  0
VERTEX
  8
1
 10
48.4091
 20
19.7870
  0
VERTEX
  8
1
 10
50.0884
 20
19.7201
  0
VERTEX
  8
1
 10
51.7479
 20
20.3181
  0
VERTEX
  8
1
 10
52.7981
 20
21.5230
  0
VERTEX
  8
1
 10
53.8057
 20
22.8922
  0
VERTEX
  8
1
 10
54.8212
 20
22.9484
  0
SEQEND
  8
1
  0
POLYLINE
  8
1
 66
1
 70
0
  0
VERTEX
  8
1
 10
54.8212
 20
22.9484
  0
VERTEX
  8
1
 10
55.1807
 20
22.0275
  0
SEQEND
  8
1
  0
POLYLINE
  8
1
 66
1
 70
0
  0
VERTEX
  8
1
 10
55.1807
 20
22.0275
  0
VERTEX
  8
1
 10
54.1185
 20
21.8816
  0
VERTEX
  8
1
 10
53.4465
 20
20.5362
  0
VERTEX
  8
1
 10
53.1414
 20
18.6516
  0
VERTEX
  8
1
 10
53.1023
 20
17.6833
  0
SEQEND
  8
1
  0
POLYLINE
  8
1
 66
1
 70
0
  0
VERTEX
  8
1
 10
53.1023
 20
17.6833
  0
VERTEX
  8
1
 10
27.8375
 20
17.6742
  0
SEQEND
  8
1
  0
LINE
  8
7
 10
32.8221
 20
21.9652
 11
41.1034
 21
21.9652
  0
LINE
  8
5
 10
32.8221
 20
21.9652
 11
41.1034
 21
21.9652
  0
LINE
  8
8
 10
33.0575
 20
26.9857
 11
33.0575
 21
17.2401
  0
LINE
  8
8
 10
40.0486
 20
26.0204
 11
40.0511
 21
17.2403
  0
LINE
  8
8
 10
43.2007
 20
25.6066
 11
43.2007
 21
17.2403
  0
LINE
  8
8
 10
49.1148
 20
17.2288
 11
49.1197
 21
18.8470
  0
POLYLINE
  8
8
 66
1
 70
0
  0
VERTEX
  8
8
 10
37.8826
 20
19.2110
  0
VERTEX
  8
8
 10
36.6127
 20
19.2110
  0
VERTEX
  8
8
 10
36.6127
 20
20.2049
  0
SEQEND
  8
8
  0
LINE
  8
8
 10
50.4323
 20
17.2168
 11
50.4132
 21
18.8835
  0
LINE
  8
8
 10
43.9807
 20
25.4916
 11
43.9718
 21
17.2238
  0
LINE
  8
6
 10
53.1023
 20
17.6833
 11
27.8375
 21
17.6742
  0
ENDBLK
  0
BLOCK
  8
0
  2
DEEP ARMHOLE RACERBK_42
 70
64
 10
0.0000
 20
0.0000
  0
TEXT
  8
1
 10
41.5091
 20
22.9530
 40
0.250
 50
0.0000
  1
Piece Name: DEEP ARMHOLE RACERBK
  7
STANDARD
  0
TEXT
  8
1
 10
41.5091
 20
23.0930
 40
0.250
 50
0.0000
  1
SIZE: 42
  7
STANDARD
  0
POLYLINE
  8
1
 66
1
 70
0
  0
VERTEX
  8
1
 10
27.7176
 20
17.6288
  0
VERTEX
  8
1
 10
27.8048
 20
18.8901
  0
VERTEX
  8
1
 10
28.1628
 20
20.8705
  0
VERTEX
  8
1
 10
28.8777
 20
22.8373
  0
VERTEX
  8
1
 10
29.5645
 20
24.1962
  0
VERTEX
  8
1
 10
30.2724
 20
25.3325
  0
VERTEX
  8
1
 10
31.0351
 20
26.3796
  0
VERTEX
  8
1
 10
32.0374
 20
27.4506
  0
VERTEX
  8
1
 10
32.9553
 20
28.2772
  0
SEQEND
  8
1
  0
POLYLINE
  8
1
 66
1
 70
0
  0
VERTEX
  8
1
 10
32.9553
 20
28.2772
  0
VERTEX
  8
1
 10
36.3344
 20
27.7739
  0
VERTEX
  8
1
 10
40.2171
 20
27.2038
  0
VERTEX
  8
1
 10
44.0047
 20
26.6782
  0
SEQEND
  8
1
  0
POLYLINE
  8
1
 66
1
 70
0
  0
VERTEX
  8
1
 10
44.0047
 20
26.6782
  0
VERTEX
  8
1
 10
43.8391
 20
25.5493
  0
VERTEX
  8
1
 10
44.3889
 20
23.0383
  0
VERTEX
  8
1
 10
46.1123
 20
20.8247
  0
VERTEX
  8
1
 10
48.3660
 20
19.9785
  0
VERTEX
  8
1
 10
50.0337
 20
19.8819
  0
VERTEX
  8
1
 10
51.6937
 20
20.4464
  0
VERTEX
  8
1
 10
52.7590
 20
21.6250
  0
VERTEX
  8
1
 10
53.7849
 20
22.9676
  0
VERTEX
  8
1
 10
54.9424
 20
22.6837
  0
SEQEND
  8
1
  0
POLYLINE
  8
1
 66
1
 70
0
  0
VERTEX
  8
1
 10
54.9424
 20
22.6837
  0
VERTEX
  8
1
 10
55.3007
 20
21.7653
  0
SEQEND
  8
1
  0
POLYLINE
  8
1
 66
1
 70
0
  0
VERTEX
  8
1
 10
55.3007
 20
21.7653
  0
VERTEX
  8
1
 10
54.0681
 20
21.9589
  0
VERTEX
  8
1
 10
53.3642
 20
20.5830
  0
VERTEX
  8
1
 10
53.0320
 20
18.6493
  0
VERTEX
  8
1
 10
52.9823
 20
17.6546
  0
SEQEND
  8
1
  0
POLYLINE
  8
1
 66
1
 70
0
  0
VERTEX
  8
1
 10
52.9823
 20
17.6546
  0
VERTEX
  8
1
 10
27.7176
 20
17.6288
  0
SEQEND
  8
1
  0
LINE
  8
7
 10
32.9421
 20
21.7030
 11
41.2234
 21
21.7030
  0
LINE
  8
5
 10
32.9421
 20
21.7030
 11
41.2234
 21
21.7030
  0
LINE
  8
8
 10
33.1775
 20
26.7235
 11
33.1775
 21
16.9779
  0
LINE
  8
8
 10
40.1686
 20
25.7582
 11
40.1711
 21
16.9781
  0
LINE
  8
8
 10
43.3207
 20
25.3444
 11
43.3207
 21
16.9781
  0
LINE
  8
8
 10
49.2348
 20
16.9666
 11
49.2397
 21
18.5848
  0
POLYLINE
  8
8
 66
1
 70
0
  0
VERTEX
  8
8
 10
38.0026
 20
18.9488
  0
VERTEX
  8
8
 10
36.7327
 20
18.9488
  0
VERTEX
  8
8
 10
36.7327
 20
19.9427
  0
SEQEND
  8
8
  0
LINE
  8
8
 10
50.5523
 20
16.9546
 11
50.5332
 21
18.6213
  0
LINE
  8
8
 10
44.1007
 20
25.2294
 11
44.0918
 21
16.9616
  0
LINE
  8
6
 10
52.9823
 20
17.6546
 11
27.7176
 21
17.6288
  0
ENDBLK
  0
BLOCK
  8
0
  2
DEEP ARMHOLE RACERBK_44
 70
64
 10
0.0000
 20
0.0000
  0
TEXT
  8
1
 10
41.5091
 20
23.0613
 40
0.250
 50
0.0000
  1
Piece Name: DEEP ARMHOLE RACERBK
  7
STANDARD
  0
TEXT
  8
1
 10
41.5091
 20
23.2013
 40
0.250
 50
0.0000
  1
SIZE: 44
  7
STANDARD
  0
POLYLINE
  8
1
 66
1
 70
0
  0
VERTEX
  8
1
 10
27.5977
 20
17.5897
  0
VERTEX
  8
1
 10
27.7058
 20
18.8935
  0
VERTEX
  8
1
 10
28.1043
 20
20.9375
  0
VERTEX
  8
1
 10
28.8718
 20
22.9622
  0
VERTEX
  8
1
 10
29.6016
 20
24.3585
  0
VERTEX
  8
1
 10
30.3502
 20
25.5242
  0
VERTEX
  8
1
 10
31.1541
 20
26.5967
  0
VERTEX
  8
1
 10
32.2063
 20
27.6906
  0
VERTEX
  8
1
 10
33.1678
 20
28.5329
  0
SEQEND
  8
1
  0
POLYLINE
  8
1
 66
1
 70
0
  0
VERTEX
  8
1
 10
33.1678
 20
28.5329
  0
VERTEX
  8
1
 10
36.5138
 20
28.0237
  0
VERTEX
  8
1
 10
40.3585
 20
27.4467
  0
VERTEX
  8
1
 10
44.1091
 20
26.9141
  0
SEQEND
  8
1
  0
POLYLINE
  8
1
 66
1
 70
0
  0
VERTEX
  8
1
 10
44.1091
 20
26.9141
  0
VERTEX
  8
1
 10
43.9239
 20
25.7948
  0
VERTEX
  8
1
 10
44.4248
 20
23.2883
  0
VERTEX
  8
1
 10
46.0981
 20
21.0562
  0
VERTEX
  8
1
 10
48.3233
 20
20.1740
  0
VERTEX
  8
1
 10
49.9796
 20
20.0476
  0
VERTEX
  8
1
 10
51.6402
 20
20.5787
  0
VERTEX
  8
1
 10
52.7207
 20
21.7310
  0
VERTEX
  8
1
 10
53.7651
 20
23.0472
  0
VERTEX
  8
1
 10
55.0636
 20
22.4253
  0
SEQEND
  8
1
  0
POLYLINE
  8
1
 66
1
 70
0
  0
VERTEX
  8
1
 10
55.0636
 20
22.4253
  0
VERTEX
  8
1
 10
55.4206
 20
21.5096
  0
SEQEND
  8
1
  0
POLYLINE
  8
1
 66
1
 70
0
  0
VERTEX
  8
1
 10
55.4206
 20
21.5096
  0
VERTEX
  8
1
 10
54.0185
 20
22.0408
  0
VERTEX
  8
1
 10
53.2824
 20
20.6342
  0
VERTEX
  8
1
 10
52.9229
 20
18.6512
  0
VERTEX
  8
1
 10
52.8623
 20
17.6300
  0
SEQEND
  8
1
  0
POLYLINE
  8
1
 66
1
 70
0
  0
VERTEX
  8
1
 10
52.8623
 20
17.6300
  0
VERTEX
  8
1
 10
27.5977
 20
17.5897
  0
SEQEND
  8
1
  0
LINE
  8
7
 10
33.0620
 20
21.4473
 11
41.3433
 21
21.4473
  0
LINE
  8
5
 10
33.0620
 20
21.4473
 11
41.3433
 21
21.4473
  0
LINE
  8
8
 10
33.2974
 20
26.4678
 11
33.2974
 21
16.7222
  0
LINE
  8
8
 10
40.2885
 20
25.5025
 11
40.2910
 21
16.7224
  0
LINE
  8
8
 10
43.4406
 20
25.0887
 11
43.4406
 21
16.7224
  0
LINE
  8
8
 10
49.3547
 20
16.7109
 11
49.3596
 21
18.3291
  0
POLYLINE
  8
8
 66
1
 70
0
  0
VERTEX
  8
8
 10
38.1225
 20
18.6931
  0
VERTEX
  8
8
 10
36.8526
 20
18.6931
  0
VERTEX
  8
8
 10
36.8526
 20
19.6870
  0
SEQEND
  8
8
  0
LINE
  8
8
 10
50.6722
 20
16.6989
 11
50.6531
 21
18.3656
  0
LINE
  8
8
 10
44.2206
 20
24.9737
 11
44.2117
 21
16.7059
  0
LINE
  8
6
 10
52.8623
 20
17.6300
 11
27.5977
 21
17.5897
  0
ENDBLK
  0
BLOCK
  8
0
  2
DEEP ARMHOLE RACERBK_46
 70
64
 10
0.0000
 20
0.0000
  0
TEXT
  8
1
 10
41.5091
 20
23.2382
 40
0.250
 50
0.0000
  1
Piece Name: DEEP ARMHOLE RACERBK
  7
STANDARD
  0
TEXT
  8
1
 10
41.5091
 20
23.3782
 40
0.250
 50
0.0000
  1
SIZE: 46
  7
STANDARD
  0
POLYLINE
  8
1
 66
1
 70
0
  0
VERTEX
  8
1
 10
27.6075
 20
17.6279
  0
VERTEX
  8
1
 10
27.7998
 20
19.0833
  0
VERTEX
  8
1
 10
28.3579
 20
21.3524
  0
VERTEX
  8
1
 10
29.3287
 20
23.5798
  0
VERTEX
  8
1
 10
30.2230
 20
25.1049
  0
VERTEX
  8
1
 10
31.1255
 20
26.3705
  0
VERTEX
  8
1
 10
32.0850
 20
27.5287
  0
VERTEX
  8
1
 10
33.3241
 20
28.6973
  0
VERTEX
  8
1
 10
34.4476
 20
29.5888
  0
SEQEND
  8
1
  0
POLYLINE
  8
1
 66
1
 70
0
  0
VERTEX
  8
1
 10
34.4476
 20
29.5888
  0
VERTEX
  8
1
 10
37.3792
 20
29.0572
  0
VERTEX
  8
1
 10
40.7480
 20
28.4535
  0
VERTEX
  8
1
 10
44.0352
 20
27.8913
  0
SEQEND
  8
1
  0
POLYLINE
  8
1
 66
1
 70
0
  0
VERTEX
  8
1
 10
44.0352
 20
27.8913
  0
VERTEX
  8
1
 10
43.6987
 20
26.6457
  0
VERTEX
  8
1
 10
43.9814
 20
23.7527
  0
VERTEX
  8
1
 10
45.6218
 20
21.0373
  0
VERTEX
  8
1
 10
48.0398
 20
19.7867
  0
VERTEX
  8
1
 10
49.8996
 20
19.4559
  0
VERTEX
  8
1
 10
51.8389
 20
19.8686
  0
VERTEX
  8
1
 10
53.1922
 20
21.0502
  0
VERTEX
  8
1
 10
54.5233
 20
22.4211
  0
VERTEX
  8
1
 10
55.0534
 20
21.3703
  0
SEQEND
  8
1
  0
POLYLINE
  8
1
 66
1
 70
0
  0
VERTEX
  8
1
 10
55.0534
 20
21.3703
  0
VERTEX
  8
1
 10
55.4107
 20
20.4537
  0
SEQEND
  8
1
  0
POLYLINE
  8
1
 66
1
 70
0
  0
VERTEX
  8
1
 10
55.4107
 20
20.4537
  0
VERTEX
  8
1
 10
54.0758
 20
20.9263
  0
VERTEX
  8
1
 10
53.3849
 20
19.6423
  0
VERTEX
  8
1
 10
53.0338
 20
17.8249
  0
VERTEX
  8
1
 10
52.9675
 20
16.8876
  0
SEQEND
  8
1
  0
POLYLINE
  8
1
 66
1
 70
0
  0
VERTEX
  8
1
 10
52.9675
 20
16.8876
  0
VERTEX
  8
1
 10
27.6075
 20
17.6279
  0
SEQEND
  8
1
  0
LINE
  8
7
 10
33.0522
 20
20.3914
 11
41.3335
 21
20.3914
  0
LINE
  8
5
 10
33.0522
 20
20.3914
 11
41.3335
 21
20.3914
  0
LINE
  8
8
 10
33.2875
 20
25.4119
 11
33.2875
 21
15.6663
  0
LINE
  8
8
 10
40.2787
 20
24.4466
 11
40.2811
 21
15.6665
  0
LINE
  8
8
 10
43.4307
 20
24.0328
 11
43.4307
 21
15.6665
  0
LINE
  8
8
 10
49.3448
 20
15.6550
 11
49.3498
 21
17.2732
  0
POLYLINE
  8
8
 66
1
 70
0
  0
VERTEX
  8
8
 10
38.1127
 20
17.6372
  0
VERTEX
  8
8
 10
36.8427
 20
17.6372
  0
VERTEX
  8
8
 10
36.8427
 20
18.6311
  0
SEQEND
  8
8
  0
LINE
  8
8
 10
50.6623
 20
15.6430
 11
50.6432
 21
17.3097
  0
LINE
  8
8
 10
44.2107
 20
23.9178
 11
44.2018
 21
15.6500
  0
LINE
  8
6
 10
52.9675
 20
16.8876
 11
27.6075
 21
17.6279
  0
ENDBLK
  0
BLOCK
  8
0
  2
DEEP ARMHOLE RACERBK_48
 70
64
 10
0.0000
 20
0.0000
  0
TEXT
  8
1
 10
52.2820
 20
22.6159
 40
0.250
 50
0.0000
  1
Piece Name: DEEP ARMHOLE RACERBK
  7
STANDARD
  0
TEXT
  8
1
 10
52.2820
 20
22.7559
 40
0.250
 50
0.0000
  1
SIZE: 48
  7
STANDARD
  0
POLYLINE
  8
1
 66
1
 70
0
  0
VERTEX
  8
1
 10
67.2884
 20
27.2583
  0
VERTEX
  8
1
 10
67.0227
 20
25.8210
  0
VERTEX
  8
1
 10
66.3518
 20
23.5934
  0
VERTEX
  8
1
 10
65.2729
 20
21.4284
  0
VERTEX
  8
1
 10
64.3060
 20
19.9577
  0
VERTEX
  8
1
 10
63.3438
 20
18.7454
  0
VERTEX
  8
1
 10
62.3306
 20
17.6429
  0
VERTEX
  8
1
 10
61.0390
 20
16.5442
  0
VERTEX
  8
1
 10
59.8766
 20
15.7153
  0
SEQEND
  8
1
  0
POLYLINE
  8
1
 66
1
 70
0
  0
VERTEX
  8
1
 10
59.8766
 20
15.7153
  0
VERTEX
  8
1
 10
59.8664
 20
15.8859
  0
VERTEX
  8
1
 10
59.8545
 20
16.0819
  0
VERTEX
  8
1
 10
59.8415
 20
16.2729
  0
SEQEND
  8
1
  0
POLYLINE
  8
1
 66
1
 70
0
  0
VERTEX
  8
1
 10
59.8415
 20
16.2729
  0
VERTEX
  8
1
 10
59.8412
 20
18.7931
  0
VERTEX
  8
1
 10
57.8340
 20
24.1049
  0
VERTEX
  8
1
 10
53.3572
 20
28.3900
  0
VERTEX
  8
1
 10
48.1601
 20
29.5165
  0
VERTEX
  8
1
 10
44.4842
 20
29.1927
  0
VERTEX
  8
1
 10
41.0372
 20
27.4264
  0
VERTEX
  8
1
 10
39.0871
 20
24.5088
  0
VERTEX
  8
1
 10
37.2757
 20
21.2455
  0
VERTEX
  8
1
 10
38.4059
 20
22.3236
  0
SEQEND
  8
1
  0
POLYLINE
  8
1
 66
1
 70
0
  0
VERTEX
  8
1
 10
38.4059
 20
22.3236
  0
VERTEX
  8
1
 10
38.0884
 20
22.8904
  0
SEQEND
  8
1
  0
POLYLINE
  8
1
 66
1
 70
0
  0
VERTEX
  8
1
 10
38.0884
 20
22.8904
  0
VERTEX
  8
1
 10
37.4365
 20
24.1866
  0
VERTEX
  8
1
 10
38.5638
 20
25.2850
  0
VERTEX
  8
1
 10
39.5143
 20
27.0427
  0
VERTEX
  8
1
 10
39.8864
 20
27.9865
  0
SEQEND
  8
1
  0
POLYLINE
  8
1
 66
1
 70
0
  0
VERTEX
  8
1
 10
39.8864
 20
27.9865
  0
VERTEX
  8
1
 10
67.2884
 20
27.2583
  0
SEQEND
  8
1
  0
LINE
  8
7
 10
15.7299
 20
22.8281
 11
24.0112
 21
22.8281
  0
LINE
  8
5
 10
15.7299
 20
22.8281
 11
24.0112
 21
22.8281
  0
LINE
  8
8
 10
15.9652
 20
27.8486
 11
15.9652
 21
18.1030
  0
LINE
  8
8
 10
22.9564
 20
26.8833
 11
22.9588
 21
18.1032
  0
LINE
  8
8
 10
26.1084
 20
26.4695
 11
26.1084
 21
18.1032
  0
LINE
  8
8
 10
32.0225
 20
18.0917
 11
32.0275
 21
19.7099
  0
POLYLINE
  8
8
 66
1
 70
0
  0
VERTEX
  8
8
 10
20.7904
 20
20.0739
  0
VERTEX
  8
8
 10
19.5204
 20
20.0739
  0
VERTEX
  8
8
 10
19.5204
 20
21.0678
  0
SEQEND
  8
8
  0
LINE
  8
8
 10
33.3400
 20
18.0797
 11
33.3209
 21
19.7464
  0
LINE
  8
8
 10
26.8884
 20
26.3545
 11
26.8795
 21
18.0867
  0
LINE
  8
6
 10
39.8864
 20
27.9865
 11
67.2884
 21
27.2583
  0
ENDBLK
  0
BLOCK
  8
0
  2
DEEP ARMHOLE RACERBK_50
 70
64
 10
0.0000
 20
0.0000
  0
TEXT
  8
1
 10
52.3486
 20
22.6159
 40
0.250
 50
0.0000
  1
Piece Name: DEEP ARMHOLE RACERBK
  7
STANDARD
  0
TEXT
  8
1
 10
52.3486
 20
22.7559
 40
0.250
 50
0.0000
  1
SIZE: 50
  7
STANDARD
  0
POLYLINE
  8
1
 66
1
 70
0
  0
VERTEX
  8
1
 10
67.4212
 20
27.5929
  0
VERTEX
  8
1
 10
67.1249
 20
26.1050
  0
VERTEX
  8
1
 10
66.3971
 20
23.8028
  0
VERTEX
  8
1
 10
65.2466
 20
21.5712
  0
VERTEX
  8
1
 10
64.2223
 20
20.0587
  0
VERTEX
  8
1
 10
63.2065
 20
18.8143
  0
VERTEX
  8
1
 10
62.1393
 20
17.6845
  0
VERTEX
  8
1
 10
60.7833
 20
16.5626
  0
VERTEX
  8
1
 10
59.5650
 20
15.7189
  0
SEQEND
  8
1
  0
POLYLINE
  8
1
 66
1
 70
0
  0
VERTEX
  8
1
 10
59.5650
 20
15.7189
  0
VERTEX
  8
1
 10
59.3832
 20
16.0949
  0
VERTEX
  8
1
 10
59.1735
 20
16.5264
  0
VERTEX
  8
1
 10
58.9659
 20
16.9453
  0
SEQEND
  8
1
  0
POLYLINE
  8
1
 66
1
 70
0
  0
VERTEX
  8
1
 10
58.9659
 20
16.9453
  0
VERTEX
  8
1
 10
58.9377
 20
19.3615
  0
VERTEX
  8
1
 10
56.9545
 20
24.4318
  0
VERTEX
  8
1
 10
52.6148
 20
28.4905
  0
VERTEX
  8
1
 10
47.6197
 20
29.5129
  0
VERTEX
  8
1
 10
44.0990
 20
29.1617
  0
VERTEX
  8
1
 10
40.8138
 20
27.4300
  0
VERTEX
  8
1
 10
38.9765
 20
24.6111
  0
VERTEX
  8
1
 10
37.2761
 20
21.4624
  0
VERTEX
  8
1
 10
37.6025
 20
24.3824
  0
SEQEND
  8
1
  0
POLYLINE
  8
1
 66
1
 70
0
  0
VERTEX
  8
1
 10
37.6025
 20
24.3824
  0
VERTEX
  8
1
 10
37.9556
 20
23.4747
  0
SEQEND
  8
1
  0
POLYLINE
  8
1
 66
1
 70
0
  0
VERTEX
  8
1
 10
37.9556
 20
23.4747
  0
VERTEX
  8
1
 10
37.4840
 20
24.4086
  0
VERTEX
  8
1
 10
38.6428
 20
25.5353
  0
VERTEX
  8
1
 10
39.6207
 20
27.3394
  0
VERTEX
  8
1
 10
40.0038
 20
28.3081
  0
SEQEND
  8
1
  0
POLYLINE
  8
1
 66
1
 70
0
  0
VERTEX
  8
1
 10
40.0038
 20
28.3081
  0
VERTEX
  8
1
 10
67.4212
 20
27.5929
  0
SEQEND
  8
1
  0
LINE
  8
7
 10
15.5970
 20
23.4124
 11
23.8783
 21
23.4124
  0
LINE
  8
5
 10
15.5970
 20
23.4124
 11
23.8783
 21
23.4124
  0
LINE
  8
8
 10
15.8324
 20
28.4329
 11
15.8324
 21
18.6873
  0
LINE
  8
8
 10
22.8235
 20
27.4676
 11
22.8260
 21
18.6875
  0
LINE
  8
8
 10
25.9756
 20
27.0538
 11
25.9756
 21
18.6875
  0
LINE
  8
8
 10
31.8897
 20
18.6760
 11
31.8947
 21
20.2942
  0
POLYLINE
  8
8
 66
1
 70
0
  0
VERTEX
  8
8
 10
20.6576
 20
20.6582
  0
VERTEX
  8
8
 10
19.3876
 20
20.6582
  0
VERTEX
  8
8
 10
19.3876
 20
21.6521
  0
SEQEND
  8
8
  0
LINE
  8
8
 10
33.2072
 20
18.6640
 11
33.1881
 21
20.3307
  0
LINE
  8
8
 10
26.7556
 20
26.9388
 11
26.7467
 21
18.6710
  0
LINE
  8
6
 10
40.0038
 20
28.3081
 11
67.4212
 21
27.5929
  0
ENDBLK
  0
BLOCK
  8
0
  2
DEEP ARMHOLE RACERBK_52
 70
64
 10
0.0000
 20
0.0000
  0
TEXT
  8
1
 10
52.4146
 20
22.6159
 40
0.250
 50
0.0000
  1
Piece Name: DEEP ARMHOLE RACERBK
  7
STANDARD
  0
TEXT
  8
1
 10
52.4146
 20
22.7559
 40
0.250
 50
0.0000
  1
SIZE: 52
  7
STANDARD
  0
POLYLINE
  8
1
 66
1
 70
0
  0
VERTEX
  8
1
 10
67.5536
 20
27.6967
  0
VERTEX
  8
1
 10
67.2272
 20
26.1584
  0
VERTEX
  8
1
 10
66.4426
 20
23.7819
  0
VERTEX
  8
1
 10
65.2209
 20
21.4841
  0
VERTEX
  8
1
 10
64.1395
 20
19.9299
  0
VERTEX
  8
1
 10
63.0704
 20
18.6534
  0
VERTEX
  8
1
 10
61.9497
 20
17.4965
  0
VERTEX
  8
1
 10
60.5296
 20
16.3515
  0
VERTEX
  8
1
 10
59.2559
 20
15.4929
  0
SEQEND
  8
1
  0
POLYLINE
  8
1
 66
1
 70
0
  0
VERTEX
  8
1
 10
59.2559
 20
15.4929
  0
VERTEX
  8
1
 10
59.2472
 20
16.0317
  0
VERTEX
  8
1
 10
59.2361
 20
16.6506
  0
VERTEX
  8
1
 10
59.2206
 20
17.2535
  0
SEQEND
  8
1
  0
POLYLINE
  8
1
 66
1
 70
0
  0
VERTEX
  8
1
 10
59.2206
 20
17.2535
  0
VERTEX
  8
1
 10
59.1524
 20
19.6894
  0
VERTEX
  8
1
 10
57.0691
 20
24.7693
  0
VERTEX
  8
1
 10
52.6265
 20
28.7903
  0
VERTEX
  8
1
 10
47.5729
 20
29.7389
  0
VERTEX
  8
1
 10
44.0285
 20
29.3268
  0
VERTEX
  8
1
 10
40.7446
 20
27.5266
  0
VERTEX
  8
1
 10
38.9384
 20
24.6540
  0
VERTEX
  8
1
 10
37.2756
 20
21.4510
  0
VERTEX
  8
1
 10
37.4728
 20
24.7311
  0
SEQEND
  8
1
  0
POLYLINE
  8
1
 66
1
 70
0
  0
VERTEX
  8
1
 10
37.4728
 20
24.7311
  0
VERTEX
  8
1
 10
37.8233
 20
23.8288
  0
SEQEND
  8
1
  0
POLYLINE
  8
1
 66
1
 70
0
  0
VERTEX
  8
1
 10
37.8233
 20
23.8288
  0
VERTEX
  8
1
 10
37.5311
 20
24.4022
  0
VERTEX
  8
1
 10
38.7218
 20
25.5572
  0
VERTEX
  8
1
 10
39.7276
 20
27.4076
  0
VERTEX
  8
1
 10
40.1221
 20
28.4014
  0
SEQEND
  8
1
  0
POLYLINE
  8
1
 66
1
 70
0
  0
VERTEX
  8
1
 10
40.1221
 20
28.4014
  0
VERTEX
  8
1
 10
67.5536
 20
27.6967
  0
SEQEND
  8
1
  0
LINE
  8
7
 10
15.4647
 20
23.7665
 11
23.7460
 21
23.7665
  0
LINE
  8
5
 10
15.4647
 20
23.7665
 11
23.7460
 21
23.7665
  0
LINE
  8
8
 10
15.7001
 20
28.7870
 11
15.7001
 21
19.0414
  0
LINE
  8
8
 10
22.6912
 20
27.8217
 11
22.6937
 21
19.0416
  0
LINE
  8
8
 10
25.8432
 20
27.4079
 11
25.8432
 21
19.0416
  0
LINE
  8
8
 10
31.7574
 20
19.0301
 11
31.7623
 21
20.6483
  0
POLYLINE
  8
8
 66
1
 70
0
  0
VERTEX
  8
8
 10
20.5252
 20
21.0123
  0
VERTEX
  8
8
 10
19.2553
 20
21.0123
  0
VERTEX
  8
8
 10
19.2553
 20
22.0062
  0
SEQEND
  8
8
  0
LINE
  8
8
 10
33.0749
 20
19.0181
 11
33.0558
 21
20.6848
  0
LINE
  8
8
 10
26.6233
 20
27.2929
 11
26.6144
 21
19.0251
  0
LINE
  8
6
 10
40.1221
 20
28.4014
 11
67.5536
 21
27.6967
  0
ENDBLK
  0
ENDSEC
  0
SECTION
  2
ENTITIES
  0
TEXT
  8
1
 10
0.0000
 20
0.0000
 40
0.250
 50
0.0000
  1
Style Name: DEEP ARMHOLE RACER
  7
STANDARD
  0
TEXT
  8
1
 10
0.0000
 20
0.1400
 40
0.250
 50
0.0000
  1
Creation Date: 25-10-2017
  7
STANDARD
  0
TEXT
  8
1
 10
0.0000
 20
0.2800
 40
0.250
 50
0.0000
  1
Creation Time: 10:12
  7
STANDARD
  0
TEXT
  8
1
 10
0.0000
 20
0.4200
 40
0.250
 50
0.0000
  1
Author: GERBER TECHNOLOGY
  7
STANDARD
  0
TEXT
  8
1
 10
0.0000
 20
0.5600
 40
0.250
 50
0.0000
  1
PRODUCT: ACCUMARK
  7
STANDARD
  0
TEXT
  8
1
 10
0.0000
 20
0.7000
 40
0.250
 50
0.0000
  1
VERSION: 10.0.1
  7
STANDARD
  0
TEXT
  8
1
 10
0.0000
 20
0.8400
 40
0.250
 50
0.0000
  1
Sample Size: 36
  7
STANDARD
  0
TEXT
  8
1
 10
0.0000
 20
0.9800
 40
0.250
 50
0.0000
  1
Units: ENGLISH
  7
STANDARD
  0
TEXT
  8
1
 10
0.0000
 20
1.1200
 40
0.250
 50
0.0000
  1
TOLERANCE: .006
  7
STANDARD
  0
INSERT
  8
1
  2
DEEP ARMHOLE RACE FR_26
 10
0.0000
 20
0.0000
  0
INSERT
  8
1
  2
DEEP ARMHOLE RACE FR_28
 10
0.0000
 20
0.0000
  0
INSERT
  8
1
  2
DEEP ARMHOLE RACE FR_30
 10
0.0000
 20
0.0000
  0
INSERT
  8
1
  2
DEEP ARMHOLE RACE FR_32
 10
0.0000
 20
0.0000
  0
INSERT
  8
1
  2
DEEP ARMHOLE RACE FR_34
 10
0.0000
 20
0.0000
  0
INSERT
  8
1
  2
DEEP ARMHOLE RACE FR_36
 10
0.0000
 20
0.0000
  0
INSERT
  8
1
  2
DEEP ARMHOLE RACE FR_38
 10
0.0000
 20
0.0000
  0
INSERT
  8
1
  2
DEEP ARMHOLE RACE FR_40
 10
0.0000
 20
0.0000
  0
INSERT
  8
1
  2
DEEP ARMHOLE RACE FR_42
 10
0.0000
 20
0.0000
  0
INSERT
  8
1
  2
DEEP ARMHOLE RACE FR_44
 10
0.0000
 20
0.0000
  0
INSERT
  8
1
  2
DEEP ARMHOLE RACE FR_46
 10
0.0000
 20
0.0000
  0
INSERT
  8
1
  2
DEEP ARMHOLE RACE FR_48
 10
0.0000
 20
0.0000
  0
INSERT
  8
1
  2
DEEP ARMHOLE RACE FR_50
 10
0.0000
 20
0.0000
  0
INSERT
  8
1
  2
DEEP ARMHOLE RACE FR_52
 10
0.0000
 20
0.0000
  0
INSERT
  8
1
  2
DEEP ARMHOLE RACERBK_26
 10
0.0000
 20
0.0000
  0
INSERT
  8
1
  2
DEEP ARMHOLE RACERBK_28
 10
0.0000
 20
0.0000
  0
INSERT
  8
1
  2
DEEP ARMHOLE RACERBK_30
 10
0.0000
 20
0.0000
  0
INSERT
  8
1
  2
DEEP ARMHOLE RACERBK_32
 10
0.0000
 20
0.0000
  0
INSERT
  8
1
  2
DEEP ARMHOLE RACERBK_34
 10
0.0000
 20
0.0000
  0
INSERT
  8
1
  2
DEEP ARMHOLE RACERBK_36
 10
0.0000
 20
0.0000
  0
INSERT
  8
1
  2
DEEP ARMHOLE RACERBK_38
 10
0.0000
 20
0.0000
  0
INSERT
  8
1
  2
DEEP ARMHOLE RACERBK_40
 10
0.0000
 20
0.0000
  0
INSERT
  8
1
  2
DEEP ARMHOLE RACERBK_42
 10
0.0000
 20
0.0000
  0
INSERT
  8
1
  2
DEEP ARMHOLE RACERBK_44
 10
0.0000
 20
0.0000
  0
INSERT
  8
1
  2
DEEP ARMHOLE RACERBK_46
 10
0.0000
 20
0.0000
  0
INSERT
  8
1
  2
DEEP ARMHOLE RACERBK_48
 10
0.0000
 20
0.0000
  0
INSERT
  8
1
  2
DEEP ARMHOLE RACERBK_50
 10
0.0000
 20
0.0000
  0
INSERT
  8
1
  2
DEEP ARMHOLE RACERBK_52
 10
0.0000
 20
0.0000
  0
ENDSEC
  0
EOF
