  0
SECTION
  2
HEADER
  0
ENDSEC
  0
SECTION
  2
BLOCKS
  0
BLOCK
  8
0
  2
GLX0926S16SBK_26
 70
64
 10
0.0000
 20
0.0000
  0
TEXT
  8
1
 10
13.6678
 20
27.1577
 40
0.250
 50
0.0000
  1
Piece Name: GLX0926S16SBK
  7
STANDARD
  0
TEXT
  8
1
 10
13.6678
 20
27.2977
 40
0.250
 50
0.0000
  1
SIZE: 26
  7
STANDARD
  0
POLYLINE
  8
1
 66
1
 70
0
  0
VERTEX
  8
1
 10
24.3238
 20
30.9474
  0
VERTEX
  8
1
 10
24.3238
 20
30.2906
  0
VERTEX
  8
1
 10
24.3369
 20
29.5716
  0
VERTEX
  8
1
 10
24.4712
 20
28.7242
  0
VERTEX
  8
1
 10
24.6807
 20
28.0418
  0
VERTEX
  8
1
 10
24.8764
 20
27.6398
  0
VERTEX
  8
1
 10
25.1978
 20
27.3847
  0
VERTEX
  8
1
 10
25.5511
 20
27.1115
  0
SEQEND
  8
1
  0
POLYLINE
  8
1
 66
1
 70
0
  0
VERTEX
  8
1
 10
25.5511
 20
27.1115
  0
VERTEX
  8
1
 10
24.8942
 20
25.3120
  0
SEQEND
  8
1
  0
POLYLINE
  8
1
 66
1
 70
0
  0
VERTEX
  8
1
 10
24.8942
 20
25.3120
  0
VERTEX
  8
1
 10
24.2101
 20
25.7865
  0
VERTEX
  8
1
 10
23.8178
 20
26.2228
  0
VERTEX
  8
1
 10
22.7785
 20
27.4946
  0
VERTEX
  8
1
 10
21.7115
 20
28.5504
  0
VERTEX
  8
1
 10
20.3036
 20
29.2180
  0
VERTEX
  8
1
 10
19.5672
 20
29.3384
  0
VERTEX
  8
1
 10
18.5190
 20
29.3266
  0
VERTEX
  8
1
 10
17.4098
 20
28.8123
  0
VERTEX
  8
1
 10
16.7325
 20
27.7386
  0
VERTEX
  8
1
 10
16.5709
 20
26.0744
  0
VERTEX
  8
1
 10
16.8082
 20
24.6738
  0
VERTEX
  8
1
 10
17.0530
 20
23.7627
  0
SEQEND
  8
1
  0
POLYLINE
  8
1
 66
1
 70
0
  0
VERTEX
  8
1
 10
17.0530
 20
23.7627
  0
VERTEX
  8
1
 10
16.2656
 20
23.7608
  0
VERTEX
  8
1
 10
9.8352
 20
24.5499
  0
SEQEND
  8
1
  0
POLYLINE
  8
1
 66
1
 70
0
  0
VERTEX
  8
1
 10
9.8352
 20
24.5499
  0
VERTEX
  8
1
 10
6.7407
 20
23.9621
  0
VERTEX
  8
1
 10
2.5252
 20
23.4129
  0
VERTEX
  8
1
 10
1.7846
 20
23.3680
  0
SEQEND
  8
1
  0
POLYLINE
  8
1
 66
1
 70
0
  0
VERTEX
  8
1
 10
1.7846
 20
23.3680
  0
VERTEX
  8
1
 10
1.7846
 20
30.9470
  0
SEQEND
  8
1
  0
POLYLINE
  8
1
 66
1
 70
0
  0
VERTEX
  8
1
 10
1.7846
 20
30.9470
  0
VERTEX
  8
1
 10
24.3238
 20
30.9474
  0
SEQEND
  8
1
  0
LINE
  8
7
 10
3.0739
 20
28.0870
 11
15.6938
 21
28.0870
  0
LINE
  8
5
 10
3.0739
 20
28.0870
 11
15.6938
 21
28.0870
  0
LINE
  8
8
 10
9.8352
 20
30.9475
 11
9.8352
 21
24.5499
  0
LINE
  8
8
 10
16.2656
 20
23.7608
 11
16.2657
 21
30.9474
  0
POLYLINE
  8
8
 66
1
 70
0
  0
VERTEX
  8
8
 10
9.4646
 20
25.0926
  0
VERTEX
  8
8
 10
12.2794
 20
25.0926
  0
VERTEX
  8
8
 10
12.2795
 20
24.8925
  0
SEQEND
  8
8
  0
LINE
  8
8
 10
19.5672
 20
29.3384
 11
19.5672
 21
30.9475
  0
LINE
  8
8
 10
25.5511
 20
27.1115
 11
24.8942
 21
25.3120
  0
POLYLINE
  8
8
 66
1
 70
0
  0
VERTEX
  8
8
 10
24.8942
 20
25.3120
  0
VERTEX
  8
8
 10
24.2101
 20
25.7865
  0
VERTEX
  8
8
 10
23.8178
 20
26.2228
  0
VERTEX
  8
8
 10
22.7785
 20
27.4946
  0
VERTEX
  8
8
 10
21.7115
 20
28.5504
  0
VERTEX
  8
8
 10
20.3036
 20
29.2180
  0
VERTEX
  8
8
 10
19.5672
 20
29.3384
  0
SEQEND
  8
8
  0
LINE
  8
8
 10
24.8764
 20
27.6398
 11
24.2101
 21
25.7865
  0
LINE
  8
8
 10
24.8793
 20
27.6425
 11
24.8793
 21
30.9474
  0
LINE
  8
8
 10
24.3277
 20
30.9474
 11
24.8793
 21
30.9474
  0
LINE
  8
6
 10
1.7846
 20
30.9470
 11
24.3238
 21
30.9474
  0
ENDBLK
  0
BLOCK
  8
0
  2
GLX0926S16SBK_28
 70
64
 10
0.0000
 20
0.0000
  0
TEXT
  8
1
 10
13.6678
 20
27.1576
 40
0.250
 50
0.0000
  1
Piece Name: GLX0926S16SBK
  7
STANDARD
  0
TEXT
  8
1
 10
13.6678
 20
27.2976
 40
0.250
 50
0.0000
  1
SIZE: 28
  7
STANDARD
  0
POLYLINE
  8
1
 66
1
 70
0
  0
VERTEX
  8
1
 10
24.4419
 20
31.0950
  0
VERTEX
  8
1
 10
24.4419
 20
30.4382
  0
VERTEX
  8
1
 10
24.4629
 20
29.7074
  0
VERTEX
  8
1
 10
24.6090
 20
28.8600
  0
VERTEX
  8
1
 10
24.8423
 20
28.1682
  0
VERTEX
  8
1
 10
25.0536
 20
27.7626
  0
VERTEX
  8
1
 10
25.3750
 20
27.5075
  0
VERTEX
  8
1
 10
25.7283
 20
27.2343
  0
SEQEND
  8
1
  0
POLYLINE
  8
1
 66
1
 70
0
  0
VERTEX
  8
1
 10
25.7283
 20
27.2343
  0
VERTEX
  8
1
 10
25.0714
 20
25.4348
  0
SEQEND
  8
1
  0
POLYLINE
  8
1
 66
1
 70
0
  0
VERTEX
  8
1
 10
25.0714
 20
25.4348
  0
VERTEX
  8
1
 10
24.3873
 20
25.9093
  0
VERTEX
  8
1
 10
23.9780
 20
26.3526
  0
VERTEX
  8
1
 10
22.8921
 20
27.6460
  0
VERTEX
  8
1
 10
21.7808
 20
28.7169
  0
VERTEX
  8
1
 10
20.3233
 20
29.3735
  0
VERTEX
  8
1
 10
19.5869
 20
29.4860
  0
VERTEX
  8
1
 10
18.5387
 20
29.4546
  0
VERTEX
  8
1
 10
17.4121
 20
28.9245
  0
VERTEX
  8
1
 10
16.7286
 20
27.8272
  0
VERTEX
  8
1
 10
16.5639
 20
26.0495
  0
VERTEX
  8
1
 10
16.8239
 20
24.5551
  0
VERTEX
  8
1
 10
17.0727
 20
23.6151
  0
SEQEND
  8
1
  0
POLYLINE
  8
1
 66
1
 70
0
  0
VERTEX
  8
1
 10
17.0727
 20
23.6151
  0
VERTEX
  8
1
 10
16.2853
 20
23.6132
  0
VERTEX
  8
1
 10
9.7958
 20
24.4022
  0
SEQEND
  8
1
  0
POLYLINE
  8
1
 66
1
 70
0
  0
VERTEX
  8
1
 10
9.7958
 20
24.4022
  0
VERTEX
  8
1
 10
6.6480
 20
23.8122
  0
VERTEX
  8
1
 10
2.3605
 20
23.2641
  0
VERTEX
  8
1
 10
1.6074
 20
23.2203
  0
SEQEND
  8
1
  0
POLYLINE
  8
1
 66
1
 70
0
  0
VERTEX
  8
1
 10
1.6074
 20
23.2203
  0
VERTEX
  8
1
 10
1.6074
 20
31.0947
  0
SEQEND
  8
1
  0
POLYLINE
  8
1
 66
1
 70
0
  0
VERTEX
  8
1
 10
1.6074
 20
31.0947
  0
VERTEX
  8
1
 10
24.4419
 20
31.0950
  0
SEQEND
  8
1
  0
LINE
  8
7
 10
3.0936
 20
28.2346
 11
15.7135
 21
28.2346
  0
LINE
  8
5
 10
3.0936
 20
28.2346
 11
15.7135
 21
28.2346
  0
LINE
  8
8
 10
9.7958
 20
31.0951
 11
9.7958
 21
24.4022
  0
LINE
  8
8
 10
16.2853
 20
23.6132
 11
16.2854
 21
31.0950
  0
POLYLINE
  8
8
 66
1
 70
0
  0
VERTEX
  8
8
 10
9.4843
 20
25.2402
  0
VERTEX
  8
8
 10
12.2991
 20
25.2402
  0
VERTEX
  8
8
 10
12.2992
 20
25.0401
  0
SEQEND
  8
8
  0
LINE
  8
8
 10
19.5869
 20
29.4860
 11
19.5869
 21
31.0951
  0
LINE
  8
8
 10
25.7283
 20
27.2343
 11
25.0714
 21
25.4348
  0
POLYLINE
  8
8
 66
1
 70
0
  0
VERTEX
  8
8
 10
25.0714
 20
25.4348
  0
VERTEX
  8
8
 10
24.3873
 20
25.9093
  0
VERTEX
  8
8
 10
23.9780
 20
26.3526
  0
VERTEX
  8
8
 10
22.8921
 20
27.6460
  0
VERTEX
  8
8
 10
21.7808
 20
28.7169
  0
VERTEX
  8
8
 10
20.3233
 20
29.3735
  0
VERTEX
  8
8
 10
19.5869
 20
29.4860
  0
SEQEND
  8
8
  0
LINE
  8
8
 10
25.0536
 20
27.7626
 11
24.3873
 21
25.9093
  0
LINE
  8
8
 10
25.0565
 20
27.7653
 11
25.0565
 21
31.0950
  0
LINE
  8
8
 10
24.4458
 20
31.0950
 11
25.0565
 21
31.0950
  0
LINE
  8
6
 10
1.6074
 20
31.0947
 11
24.4419
 21
31.0950
  0
ENDBLK
  0
BLOCK
  8
0
  2
GLX0926S16SBK_30
 70
64
 10
0.0000
 20
0.0000
  0
TEXT
  8
1
 10
13.6678
 20
27.1577
 40
0.250
 50
0.0000
  1
Piece Name: GLX0926S16SBK
  7
STANDARD
  0
TEXT
  8
1
 10
13.6678
 20
27.2977
 40
0.250
 50
0.0000
  1
SIZE: 30
  7
STANDARD
  0
POLYLINE
  8
1
 66
1
 70
0
  0
VERTEX
  8
1
 10
24.5600
 20
31.2427
  0
VERTEX
  8
1
 10
24.5600
 20
30.5859
  0
VERTEX
  8
1
 10
24.5889
 20
29.8433
  0
VERTEX
  8
1
 10
24.7468
 20
28.9959
  0
VERTEX
  8
1
 10
25.0038
 20
28.2946
  0
VERTEX
  8
1
 10
25.2308
 20
27.8855
  0
VERTEX
  8
1
 10
25.5522
 20
27.6304
  0
VERTEX
  8
1
 10
25.9055
 20
27.3572
  0
SEQEND
  8
1
  0
POLYLINE
  8
1
 66
1
 70
0
  0
VERTEX
  8
1
 10
25.9055
 20
27.3572
  0
VERTEX
  8
1
 10
25.2486
 20
25.5577
  0
SEQEND
  8
1
  0
POLYLINE
  8
1
 66
1
 70
0
  0
VERTEX
  8
1
 10
25.2486
 20
25.5577
  0
VERTEX
  8
1
 10
24.5645
 20
26.0322
  0
VERTEX
  8
1
 10
24.1383
 20
26.4824
  0
VERTEX
  8
1
 10
23.0058
 20
27.7973
  0
VERTEX
  8
1
 10
21.8500
 20
28.8834
  0
VERTEX
  8
1
 10
20.3430
 20
29.5291
  0
VERTEX
  8
1
 10
19.6066
 20
29.6337
  0
VERTEX
  8
1
 10
18.5584
 20
29.5827
  0
VERTEX
  8
1
 10
17.4145
 20
29.0368
  0
VERTEX
  8
1
 10
16.7247
 20
27.9159
  0
VERTEX
  8
1
 10
16.5570
 20
26.0246
  0
VERTEX
  8
1
 10
16.8397
 20
24.4365
  0
VERTEX
  8
1
 10
17.0924
 20
23.4676
  0
SEQEND
  8
1
  0
POLYLINE
  8
1
 66
1
 70
0
  0
VERTEX
  8
1
 10
17.0924
 20
23.4676
  0
VERTEX
  8
1
 10
16.3050
 20
23.4657
  0
VERTEX
  8
1
 10
9.7564
 20
24.2546
  0
SEQEND
  8
1
  0
POLYLINE
  8
1
 66
1
 70
0
  0
VERTEX
  8
1
 10
9.7564
 20
24.2546
  0
VERTEX
  8
1
 10
6.5553
 20
23.6624
  0
VERTEX
  8
1
 10
2.1958
 20
23.1155
  0
VERTEX
  8
1
 10
1.4302
 20
23.0727
  0
SEQEND
  8
1
  0
POLYLINE
  8
1
 66
1
 70
0
  0
VERTEX
  8
1
 10
1.4302
 20
23.0727
  0
VERTEX
  8
1
 10
1.4302
 20
31.2425
  0
SEQEND
  8
1
  0
POLYLINE
  8
1
 66
1
 70
0
  0
VERTEX
  8
1
 10
1.4302
 20
31.2425
  0
VERTEX
  8
1
 10
24.5600
 20
31.2427
  0
SEQEND
  8
1
  0
LINE
  8
7
 10
3.1133
 20
28.3823
 11
15.7332
 21
28.3823
  0
LINE
  8
5
 10
3.1133
 20
28.3823
 11
15.7332
 21
28.3823
  0
LINE
  8
8
 10
9.7564
 20
31.2428
 11
9.7564
 21
24.2546
  0
LINE
  8
8
 10
16.3050
 20
23.4657
 11
16.3051
 21
31.2427
  0
POLYLINE
  8
8
 66
1
 70
0
  0
VERTEX
  8
8
 10
9.5040
 20
25.3879
  0
VERTEX
  8
8
 10
12.3188
 20
25.3879
  0
VERTEX
  8
8
 10
12.3189
 20
25.1878
  0
SEQEND
  8
8
  0
LINE
  8
8
 10
19.6066
 20
29.6337
 11
19.6066
 21
31.2428
  0
LINE
  8
8
 10
25.9055
 20
27.3572
 11
25.2486
 21
25.5577
  0
POLYLINE
  8
8
 66
1
 70
0
  0
VERTEX
  8
8
 10
25.2486
 20
25.5577
  0
VERTEX
  8
8
 10
24.5645
 20
26.0322
  0
VERTEX
  8
8
 10
24.1383
 20
26.4824
  0
VERTEX
  8
8
 10
23.0058
 20
27.7973
  0
VERTEX
  8
8
 10
21.8500
 20
28.8834
  0
VERTEX
  8
8
 10
20.3430
 20
29.5291
  0
VERTEX
  8
8
 10
19.6066
 20
29.6337
  0
SEQEND
  8
8
  0
LINE
  8
8
 10
25.2308
 20
27.8855
 11
24.5645
 21
26.0322
  0
LINE
  8
8
 10
25.2337
 20
27.8882
 11
25.2337
 21
31.2427
  0
LINE
  8
8
 10
24.5639
 20
31.2427
 11
25.2337
 21
31.2427
  0
LINE
  8
6
 10
1.4302
 20
31.2425
 11
24.5600
 21
31.2427
  0
ENDBLK
  0
BLOCK
  8
0
  2
GLX0926S16SBK_32
 70
64
 10
0.0000
 20
0.0000
  0
TEXT
  8
1
 10
13.6678
 20
27.1576
 40
0.250
 50
0.0000
  1
Piece Name: GLX0926S16SBK
  7
STANDARD
  0
TEXT
  8
1
 10
13.6678
 20
27.2976
 40
0.250
 50
0.0000
  1
SIZE: 32
  7
STANDARD
  0
POLYLINE
  8
1
 66
1
 70
0
  0
VERTEX
  8
1
 10
24.6781
 20
31.3903
  0
VERTEX
  8
1
 10
24.6781
 20
30.7335
  0
VERTEX
  8
1
 10
24.7149
 20
29.9791
  0
VERTEX
  8
1
 10
24.8846
 20
29.1317
  0
VERTEX
  8
1
 10
25.1654
 20
28.4210
  0
VERTEX
  8
1
 10
25.4080
 20
28.0083
  0
VERTEX
  8
1
 10
25.7294
 20
27.7532
  0
VERTEX
  8
1
 10
26.0827
 20
27.4800
  0
SEQEND
  8
1
  0
POLYLINE
  8
1
 66
1
 70
0
  0
VERTEX
  8
1
 10
26.0827
 20
27.4800
  0
VERTEX
  8
1
 10
25.4258
 20
25.6805
  0
SEQEND
  8
1
  0
POLYLINE
  8
1
 66
1
 70
0
  0
VERTEX
  8
1
 10
25.4258
 20
25.6805
  0
VERTEX
  8
1
 10
24.7417
 20
26.1550
  0
VERTEX
  8
1
 10
24.2985
 20
26.6121
  0
VERTEX
  8
1
 10
23.1195
 20
27.9487
  0
VERTEX
  8
1
 10
21.9194
 20
29.0499
  0
VERTEX
  8
1
 10
20.3627
 20
29.6846
  0
VERTEX
  8
1
 10
19.6263
 20
29.7813
  0
VERTEX
  8
1
 10
18.5781
 20
29.7107
  0
VERTEX
  8
1
 10
17.4168
 20
29.1490
  0
VERTEX
  8
1
 10
16.7208
 20
28.0045
  0
VERTEX
  8
1
 10
16.5500
 20
25.9997
  0
VERTEX
  8
1
 10
16.8555
 20
24.3178
  0
VERTEX
  8
1
 10
17.1121
 20
23.3200
  0
SEQEND
  8
1
  0
POLYLINE
  8
1
 66
1
 70
0
  0
VERTEX
  8
1
 10
17.1121
 20
23.3200
  0
VERTEX
  8
1
 10
16.3247
 20
23.3181
  0
VERTEX
  8
1
 10
9.7170
 20
24.1069
  0
SEQEND
  8
1
  0
POLYLINE
  8
1
 66
1
 70
0
  0
VERTEX
  8
1
 10
9.7170
 20
24.1069
  0
VERTEX
  8
1
 10
6.4626
 20
23.5124
  0
VERTEX
  8
1
 10
2.0311
 20
22.9667
  0
VERTEX
  8
1
 10
1.2530
 20
22.9250
  0
SEQEND
  8
1
  0
POLYLINE
  8
1
 66
1
 70
0
  0
VERTEX
  8
1
 10
1.2530
 20
22.9250
  0
VERTEX
  8
1
 10
1.2530
 20
31.3902
  0
SEQEND
  8
1
  0
POLYLINE
  8
1
 66
1
 70
0
  0
VERTEX
  8
1
 10
1.2530
 20
31.3902
  0
VERTEX
  8
1
 10
24.6781
 20
31.3903
  0
SEQEND
  8
1
  0
LINE
  8
7
 10
3.1330
 20
28.5299
 11
15.7529
 21
28.5299
  0
LINE
  8
5
 10
3.1330
 20
28.5299
 11
15.7529
 21
28.5299
  0
LINE
  8
8
 10
9.7170
 20
31.3904
 11
9.7170
 21
24.1069
  0
LINE
  8
8
 10
16.3247
 20
23.3181
 11
16.3248
 21
31.3903
  0
POLYLINE
  8
8
 66
1
 70
0
  0
VERTEX
  8
8
 10
9.5237
 20
25.5355
  0
VERTEX
  8
8
 10
12.3385
 20
25.5355
  0
VERTEX
  8
8
 10
12.3386
 20
25.3354
  0
SEQEND
  8
8
  0
LINE
  8
8
 10
19.6263
 20
29.7813
 11
19.6263
 21
31.3904
  0
LINE
  8
8
 10
26.0827
 20
27.4800
 11
25.4258
 21
25.6805
  0
POLYLINE
  8
8
 66
1
 70
0
  0
VERTEX
  8
8
 10
25.4258
 20
25.6805
  0
VERTEX
  8
8
 10
24.7417
 20
26.1550
  0
VERTEX
  8
8
 10
24.2985
 20
26.6121
  0
VERTEX
  8
8
 10
23.1195
 20
27.9487
  0
VERTEX
  8
8
 10
21.9194
 20
29.0499
  0
VERTEX
  8
8
 10
20.3627
 20
29.6846
  0
VERTEX
  8
8
 10
19.6263
 20
29.7813
  0
SEQEND
  8
8
  0
LINE
  8
8
 10
25.4080
 20
28.0083
 11
24.7417
 21
26.1550
  0
LINE
  8
8
 10
25.4109
 20
28.0110
 11
25.4109
 21
31.3903
  0
LINE
  8
8
 10
24.6820
 20
31.3903
 11
25.4109
 21
31.3903
  0
LINE
  8
6
 10
1.2530
 20
31.3902
 11
24.6781
 21
31.3903
  0
ENDBLK
  0
BLOCK
  8
0
  2
GLX0926S16SBK_34
 70
64
 10
0.0000
 20
0.0000
  0
TEXT
  8
1
 10
13.6678
 20
27.1577
 40
0.250
 50
0.0000
  1
Piece Name: GLX0926S16SBK
  7
STANDARD
  0
TEXT
  8
1
 10
13.6678
 20
27.2977
 40
0.250
 50
0.0000
  1
SIZE: 34
  7
STANDARD
  0
POLYLINE
  8
1
 66
1
 70
0
  0
VERTEX
  8
1
 10
24.7961
 20
31.5380
  0
VERTEX
  8
1
 10
24.7961
 20
30.8812
  0
VERTEX
  8
1
 10
24.8409
 20
30.1150
  0
VERTEX
  8
1
 10
25.0224
 20
29.2676
  0
VERTEX
  8
1
 10
25.3269
 20
28.5474
  0
VERTEX
  8
1
 10
25.5852
 20
28.1312
  0
VERTEX
  8
1
 10
25.9066
 20
27.8761
  0
VERTEX
  8
1
 10
26.2599
 20
27.6029
  0
SEQEND
  8
1
  0
POLYLINE
  8
1
 66
1
 70
0
  0
VERTEX
  8
1
 10
26.2599
 20
27.6029
  0
VERTEX
  8
1
 10
25.6030
 20
25.8034
  0
SEQEND
  8
1
  0
POLYLINE
  8
1
 66
1
 70
0
  0
VERTEX
  8
1
 10
25.6030
 20
25.8034
  0
VERTEX
  8
1
 10
24.9189
 20
26.2779
  0
VERTEX
  8
1
 10
24.4587
 20
26.7420
  0
VERTEX
  8
1
 10
23.2332
 20
28.1001
  0
VERTEX
  8
1
 10
21.9887
 20
29.2165
  0
VERTEX
  8
1
 10
20.3824
 20
29.8402
  0
VERTEX
  8
1
 10
19.6460
 20
29.9290
  0
VERTEX
  8
1
 10
18.5977
 20
29.8388
  0
VERTEX
  8
1
 10
17.4191
 20
29.2613
  0
VERTEX
  8
1
 10
16.7169
 20
28.0932
  0
VERTEX
  8
1
 10
16.5429
 20
25.9749
  0
VERTEX
  8
1
 10
16.8712
 20
24.1993
  0
VERTEX
  8
1
 10
17.1318
 20
23.1725
  0
SEQEND
  8
1
  0
POLYLINE
  8
1
 66
1
 70
0
  0
VERTEX
  8
1
 10
17.1318
 20
23.1725
  0
VERTEX
  8
1
 10
16.3444
 20
23.1706
  0
VERTEX
  8
1
 10
9.6776
 20
23.9593
  0
SEQEND
  8
1
  0
POLYLINE
  8
1
 66
1
 70
0
  0
VERTEX
  8
1
 10
9.6776
 20
23.9593
  0
VERTEX
  8
1
 10
6.3698
 20
23.3626
  0
VERTEX
  8
1
 10
1.8663
 20
22.8180
  0
VERTEX
  8
1
 10
1.0757
 20
22.7774
  0
SEQEND
  8
1
  0
POLYLINE
  8
1
 66
1
 70
0
  0
VERTEX
  8
1
 10
1.0757
 20
22.7774
  0
VERTEX
  8
1
 10
1.0757
 20
31.5380
  0
SEQEND
  8
1
  0
POLYLINE
  8
1
 66
1
 70
0
  0
VERTEX
  8
1
 10
1.0757
 20
31.5380
  0
VERTEX
  8
1
 10
24.7961
 20
31.5380
  0
SEQEND
  8
1
  0
LINE
  8
7
 10
3.1527
 20
28.6776
 11
15.7726
 21
28.6776
  0
LINE
  8
5
 10
3.1527
 20
28.6776
 11
15.7726
 21
28.6776
  0
LINE
  8
8
 10
9.6776
 20
31.5381
 11
9.6776
 21
23.9593
  0
LINE
  8
8
 10
16.3444
 20
23.1706
 11
16.3445
 21
31.5380
  0
POLYLINE
  8
8
 66
1
 70
0
  0
VERTEX
  8
8
 10
9.5434
 20
25.6832
  0
VERTEX
  8
8
 10
12.3582
 20
25.6832
  0
VERTEX
  8
8
 10
12.3583
 20
25.4831
  0
SEQEND
  8
8
  0
LINE
  8
8
 10
19.6460
 20
29.9290
 11
19.6460
 21
31.5381
  0
LINE
  8
8
 10
26.2599
 20
27.6029
 11
25.6030
 21
25.8034
  0
POLYLINE
  8
8
 66
1
 70
0
  0
VERTEX
  8
8
 10
25.6030
 20
25.8034
  0
VERTEX
  8
8
 10
24.9189
 20
26.2779
  0
VERTEX
  8
8
 10
24.4587
 20
26.7420
  0
VERTEX
  8
8
 10
23.2332
 20
28.1001
  0
VERTEX
  8
8
 10
21.9887
 20
29.2165
  0
VERTEX
  8
8
 10
20.3824
 20
29.8402
  0
VERTEX
  8
8
 10
19.6460
 20
29.9290
  0
SEQEND
  8
8
  0
LINE
  8
8
 10
25.5852
 20
28.1312
 11
24.9189
 21
26.2779
  0
LINE
  8
8
 10
25.5881
 20
28.1339
 11
25.5881
 21
31.5380
  0
LINE
  8
8
 10
24.8001
 20
31.5380
 11
25.5881
 21
31.5380
  0
LINE
  8
6
 10
1.0757
 20
31.5380
 11
24.7961
 21
31.5380
  0
ENDBLK
  0
BLOCK
  8
0
  2
GLX0926S16SBK_36
 70
64
 10
0.0000
 20
0.0000
  0
TEXT
  8
1
 10
13.6678
 20
27.1577
 40
0.250
 50
0.0000
  1
Piece Name: GLX0926S16SBK
  7
STANDARD
  0
TEXT
  8
1
 10
13.6678
 20
27.2977
 40
0.250
 50
0.0000
  1
Quantity: 1
  7
STANDARD
  0
TEXT
  8
1
 10
13.6678
 20
27.4377
 40
0.250
 50
0.0000
  1
ANNOTATION: 1X FABRIC
  7
STANDARD
  0
TEXT
  8
1
 10
13.6678
 20
27.5777
 40
0.250
 50
0.0000
  1
CATEGORY: BACK
  7
STANDARD
  0
TEXT
  8
1
 10
13.6678
 20
27.7177
 40
0.250
 50
0.0000
  1
Fabric: 1
  7
STANDARD
  0
TEXT
  8
1
 10
13.6678
 20
27.8577
 40
0.250
 50
0.0000
  1
SIZE: 36
  7
STANDARD
  0
POLYLINE
  8
1
 66
1
 70
0
  0
VERTEX
  8
1
 10
24.9143
 20
31.6856
  0
VERTEX
  8
1
 10
24.9143
 20
31.0288
  0
VERTEX
  8
1
 10
24.9630
 20
30.2508
  0
VERTEX
  8
1
 10
25.1563
 20
29.4034
  0
VERTEX
  8
1
 10
25.4871
 20
28.6737
  0
VERTEX
  8
1
 10
25.7624
 20
28.2540
  0
VERTEX
  8
1
 10
26.0838
 20
27.9989
  0
VERTEX
  8
1
 10
26.4371
 20
27.7257
  0
SEQEND
  8
1
  0
POINT
  8
2
 10
24.9143
 20
31.6856
  0
TEXT
  8
2
 10
24.9143
 20
31.6856
 40
0.250
 50
0.0000
  1
# 1
  7
STANDARD
  0
POINT
  8
3
 10
24.9143
 20
31.0288
  0
TEXT
  8
3
 10
24.9143
 20
31.0288
 40
0.250
 50
0.0000
  1
# 1
  7
STANDARD
  0
POINT
  8
3
 10
24.9630
 20
30.2508
  0
TEXT
  8
3
 10
24.9630
 20
30.2508
 40
0.250
 50
0.0000
  1
# 2
  7
STANDARD
  0
POINT
  8
3
 10
25.1563
 20
29.4034
  0
TEXT
  8
3
 10
25.1563
 20
29.4034
 40
0.250
 50
0.0000
  1
# 3
  7
STANDARD
  0
POINT
  8
3
 10
25.4871
 20
28.6737
  0
POINT
  8
3
 10
25.7624
 20
28.2540
  0
TEXT
  8
3
 10
25.7624
 20
28.2540
 40
0.250
 50
0.0000
  1
# 4
  7
STANDARD
  0
POINT
  8
3
 10
26.0838
 20
27.9989
  0
POINT
  8
2
 10
26.4371
 20
27.7257
  0
TEXT
  8
2
 10
26.4371
 20
27.7257
 40
0.250
 50
0.0000
  1
# 4
  7
STANDARD
  0
POLYLINE
  8
1
 66
1
 70
0
  0
VERTEX
  8
1
 10
26.4371
 20
27.7257
  0
VERTEX
  8
1
 10
25.7802
 20
25.9262
  0
SEQEND
  8
1
  0
POINT
  8
2
 10
26.4371
 20
27.7257
  0
TEXT
  8
2
 10
26.4371
 20
27.7257
 40
0.250
 50
0.0000
  1
# 4
  7
STANDARD
  0
POINT
  8
2
 10
25.7802
 20
25.9262
  0
TEXT
  8
2
 10
25.7802
 20
25.9262
 40
0.250
 50
0.0000
  1
# 5
  7
STANDARD
  0
POLYLINE
  8
1
 66
1
 70
0
  0
VERTEX
  8
1
 10
25.7802
 20
25.9262
  0
VERTEX
  8
1
 10
25.0961
 20
26.4007
  0
VERTEX
  8
1
 10
24.6190
 20
26.8717
  0
VERTEX
  8
1
 10
23.3469
 20
28.2514
  0
VERTEX
  8
1
 10
22.0580
 20
29.3828
  0
VERTEX
  8
1
 10
20.4021
 20
29.9957
  0
VERTEX
  8
1
 10
19.6657
 20
30.0766
  0
VERTEX
  8
1
 10
18.6175
 20
29.9668
  0
VERTEX
  8
1
 10
17.4215
 20
29.3735
  0
VERTEX
  8
1
 10
16.7130
 20
28.1818
  0
VERTEX
  8
1
 10
16.5362
 20
25.9500
  0
VERTEX
  8
1
 10
16.8871
 20
24.0805
  0
VERTEX
  8
1
 10
17.1515
 20
23.0249
  0
SEQEND
  8
1
  0
POINT
  8
2
 10
25.7802
 20
25.9262
  0
TEXT
  8
2
 10
25.7802
 20
25.9262
 40
0.250
 50
0.0000
  1
# 5
  7
STANDARD
  0
POINT
  8
3
 10
25.0961
 20
26.4007
  0
TEXT
  8
3
 10
25.0961
 20
26.4007
 40
0.250
 50
0.0000
  1
# 5
  7
STANDARD
  0
POINT
  8
3
 10
24.6190
 20
26.8717
  0
POINT
  8
3
 10
23.3469
 20
28.2514
  0
POINT
  8
3
 10
22.0580
 20
29.3828
  0
TEXT
  8
3
 10
22.0580
 20
29.3828
 40
0.250
 50
0.0000
  1
# 6
  7
STANDARD
  0
POINT
  8
3
 10
20.4021
 20
29.9957
  0
TEXT
  8
3
 10
20.4021
 20
29.9957
 40
0.250
 50
0.0000
  1
# 7
  7
STANDARD
  0
POINT
  8
2
 10
19.6657
 20
30.0766
  0
TEXT
  8
2
 10
19.6657
 20
30.0766
 40
0.250
 50
0.0000
  1
# 8
  7
STANDARD
  0
POINT
  8
3
 10
18.6175
 20
29.9668
  0
TEXT
  8
3
 10
18.6175
 20
29.9668
 40
0.250
 50
0.0000
  1
# 9
  7
STANDARD
  0
POINT
  8
3
 10
17.4215
 20
29.3735
  0
POINT
  8
3
 10
16.7130
 20
28.1818
  0
TEXT
  8
3
 10
16.7130
 20
28.1818
 40
0.250
 50
0.0000
  1
# 10
  7
STANDARD
  0
POINT
  8
3
 10
16.5362
 20
25.9500
  0
POINT
  8
3
 10
16.8871
 20
24.0805
  0
TEXT
  8
3
 10
16.8871
 20
24.0805
 40
0.250
 50
0.0000
  1
# 11
  7
STANDARD
  0
POINT
  8
2
 10
17.1515
 20
23.0249
  0
TEXT
  8
2
 10
17.1515
 20
23.0249
 40
0.250
 50
0.0000
  1
# 12
  7
STANDARD
  0
POLYLINE
  8
1
 66
1
 70
0
  0
VERTEX
  8
1
 10
17.1515
 20
23.0249
  0
VERTEX
  8
1
 10
16.3641
 20
23.0230
  0
VERTEX
  8
1
 10
9.6382
 20
23.8116
  0
SEQEND
  8
1
  0
POINT
  8
2
 10
17.1515
 20
23.0249
  0
TEXT
  8
2
 10
17.1515
 20
23.0249
 40
0.250
 50
0.0000
  1
# 12
  7
STANDARD
  0
POINT
  8
2
 10
16.3641
 20
23.0230
  0
TEXT
  8
2
 10
16.3641
 20
23.0230
 40
0.250
 50
0.0000
  1
# 12
  7
STANDARD
  0
POINT
  8
4
 10
9.6382
 20
23.8116
 30
0.1574
 39
0.0000
  0
POINT
  8
2
 10
9.6382
 20
23.8116
  0
TEXT
  8
2
 10
9.6382
 20
23.8116
 40
0.250
 50
0.0000
  1
# 13
  7
STANDARD
  0
POLYLINE
  8
1
 66
1
 70
0
  0
VERTEX
  8
1
 10
9.6382
 20
23.8116
  0
VERTEX
  8
1
 10
6.2773
 20
23.2127
  0
VERTEX
  8
1
 10
1.7018
 20
22.6693
  0
VERTEX
  8
1
 10
0.8986
 20
22.6297
  0
SEQEND
  8
1
  0
POINT
  8
4
 10
9.6382
 20
23.8116
 30
0.1574
 39
0.0000
  0
POINT
  8
2
 10
9.6382
 20
23.8116
  0
TEXT
  8
2
 10
9.6382
 20
23.8116
 40
0.250
 50
0.0000
  1
# 13
  7
STANDARD
  0
POINT
  8
3
 10
6.2773
 20
23.2127
  0
POINT
  8
3
 10
1.7018
 20
22.6693
  0
POINT
  8
2
 10
0.8986
 20
22.6297
  0
TEXT
  8
2
 10
0.8986
 20
22.6297
 40
0.250
 50
0.0000
  1
# 14
  7
STANDARD
  0
POLYLINE
  8
1
 66
1
 70
0
  0
VERTEX
  8
1
 10
0.8986
 20
22.6297
  0
VERTEX
  8
1
 10
0.8986
 20
31.6857
  0
SEQEND
  8
1
  0
POINT
  8
2
 10
0.8986
 20
22.6297
  0
TEXT
  8
2
 10
0.8986
 20
22.6297
 40
0.250
 50
0.0000
  1
# 14
  7
STANDARD
  0
POINT
  8
4
 10
0.8986
 20
31.6857
 30
0.1574
 39
0.0000
  0
POINT
  8
2
 10
0.8986
 20
31.6857
  0
TEXT
  8
2
 10
0.8986
 20
31.6857
 40
0.250
 50
0.0000
  1
# 15
  7
STANDARD
  0
POLYLINE
  8
1
 66
1
 70
0
  0
VERTEX
  8
1
 10
0.8986
 20
31.6857
  0
VERTEX
  8
1
 10
24.9143
 20
31.6856
  0
SEQEND
  8
1
  0
POINT
  8
4
 10
0.8986
 20
31.6857
 30
0.1574
 39
0.0000
  0
POINT
  8
2
 10
0.8986
 20
31.6857
  0
TEXT
  8
2
 10
0.8986
 20
31.6857
 40
0.250
 50
0.0000
  1
# 15
  7
STANDARD
  0
LINE
  8
7
 10
3.1724
 20
28.8252
 11
15.7923
 21
28.8252
  0
LINE
  8
5
 10
3.1724
 20
28.8252
 11
15.7923
 21
28.8252
  0
POINT
  8
2
 10
3.1724
 20
28.8252
  0
POINT
  8
2
 10
15.7923
 20
28.8252
  0
LINE
  8
8
 10
9.6382
 20
31.6857
 11
9.6382
 21
23.8116
  0
TEXT
  8
8
 10
9.6382
 20
31.6857
 40
0.250
 50
0.0000
  1
O
  7
STANDARD
  0
POINT
  8
2
 10
9.6382
 20
31.6857
  0
TEXT
  8
2
 10
9.6382
 20
31.6857
 40
0.250
 50
0.0000
  1
# 16
  7
STANDARD
  0
POINT
  8
2
 10
9.6382
 20
23.8116
  0
TEXT
  8
2
 10
9.6382
 20
23.8116
 40
0.250
 50
0.0000
  1
# 13
  7
STANDARD
  0
LINE
  8
8
 10
16.3641
 20
23.0230
 11
16.3642
 21
31.6856
  0
TEXT
  8
8
 10
16.3641
 20
23.0230
 40
0.250
 50
0.0000
  1
O
  7
STANDARD
  0
POINT
  8
2
 10
16.3641
 20
23.0230
  0
TEXT
  8
2
 10
16.3641
 20
23.0230
 40
0.250
 50
0.0000
  1
# 12
  7
STANDARD
  0
POINT
  8
2
 10
16.3642
 20
31.6856
  0
TEXT
  8
2
 10
16.3642
 20
31.6856
 40
0.250
 50
0.0000
  1
# 17
  7
STANDARD
  0
POLYLINE
  8
8
 66
1
 70
0
  0
VERTEX
  8
8
 10
9.5631
 20
25.8308
  0
VERTEX
  8
8
 10
12.3779
 20
25.8308
  0
VERTEX
  8
8
 10
12.3780
 20
25.6307
  0
SEQEND
  8
8
  0
TEXT
  8
8
 10
9.5631
 20
25.8308
 40
0.250
 50
0.0000
  1
B
  7
STANDARD
  0
POINT
  8
2
 10
9.5631
 20
25.8308
  0
POINT
  8
2
 10
12.3779
 20
25.8308
  0
POINT
  8
2
 10
12.3780
 20
25.6307
  0
LINE
  8
8
 10
19.6657
 20
30.0766
 11
19.6657
 21
31.6857
  0
TEXT
  8
8
 10
19.6657
 20
30.0766
 40
0.250
 50
0.0000
  1
NM
  7
STANDARD
  0
POINT
  8
2
 10
19.6657
 20
30.0766
  0
TEXT
  8
2
 10
19.6657
 20
30.0766
 40
0.250
 50
0.0000
  1
# 8
  7
STANDARD
  0
POINT
  8
2
 10
19.6657
 20
31.6857
  0
TEXT
  8
2
 10
19.6657
 20
31.6857
 40
0.250
 50
0.0000
  1
# 18
  7
STANDARD
  0
LINE
  8
8
 10
26.4371
 20
27.7257
 11
25.7802
 21
25.9262
  0
TEXT
  8
8
 10
26.4371
 20
27.7257
 40
0.250
 50
0.0000
  1
NM
  7
STANDARD
  0
POINT
  8
2
 10
26.4371
 20
27.7257
  0
TEXT
  8
2
 10
26.4371
 20
27.7257
 40
0.250
 50
0.0000
  1
# 4
  7
STANDARD
  0
POINT
  8
2
 10
25.7802
 20
25.9262
  0
TEXT
  8
2
 10
25.7802
 20
25.9262
 40
0.250
 50
0.0000
  1
# 5
  7
STANDARD
  0
POLYLINE
  8
8
 66
1
 70
0
  0
VERTEX
  8
8
 10
25.7802
 20
25.9262
  0
VERTEX
  8
8
 10
25.0961
 20
26.4007
  0
VERTEX
  8
8
 10
24.6190
 20
26.8717
  0
VERTEX
  8
8
 10
23.3469
 20
28.2514
  0
VERTEX
  8
8
 10
22.0580
 20
29.3828
  0
VERTEX
  8
8
 10
20.4021
 20
29.9957
  0
VERTEX
  8
8
 10
19.6657
 20
30.0766
  0
SEQEND
  8
8
  0
TEXT
  8
8
 10
25.7802
 20
25.9262
 40
0.250
 50
0.0000
  1
NM
  7
STANDARD
  0
POINT
  8
2
 10
25.7802
 20
25.9262
  0
TEXT
  8
2
 10
25.7802
 20
25.9262
 40
0.250
 50
0.0000
  1
# 5
  7
STANDARD
  0
POINT
  8
2
 10
25.0961
 20
26.4007
  0
TEXT
  8
2
 10
25.0961
 20
26.4007
 40
0.250
 50
0.0000
  1
# 5
  7
STANDARD
  0
POINT
  8
3
 10
24.6190
 20
26.8717
  0
POINT
  8
3
 10
23.3469
 20
28.2514
  0
POINT
  8
3
 10
22.0580
 20
29.3828
  0
TEXT
  8
3
 10
22.0580
 20
29.3828
 40
0.250
 50
0.0000
  1
# 6
  7
STANDARD
  0
POINT
  8
3
 10
20.4021
 20
29.9957
  0
TEXT
  8
3
 10
20.4021
 20
29.9957
 40
0.250
 50
0.0000
  1
# 7
  7
STANDARD
  0
POINT
  8
2
 10
19.6657
 20
30.0766
  0
TEXT
  8
2
 10
19.6657
 20
30.0766
 40
0.250
 50
0.0000
  1
# 19
  7
STANDARD
  0
LINE
  8
8
 10
25.7624
 20
28.2540
 11
25.0961
 21
26.4007
  0
TEXT
  8
8
 10
25.7624
 20
28.2540
 40
0.250
 50
0.0000
  1
NM
  7
STANDARD
  0
POINT
  8
2
 10
25.7624
 20
28.2540
  0
TEXT
  8
2
 10
25.7624
 20
28.2540
 40
0.250
 50
0.0000
  1
# 4
  7
STANDARD
  0
POINT
  8
2
 10
25.0961
 20
26.4007
  0
TEXT
  8
2
 10
25.0961
 20
26.4007
 40
0.250
 50
0.0000
  1
# 5
  7
STANDARD
  0
LINE
  8
8
 10
25.7653
 20
28.2567
 11
25.7653
 21
31.6856
  0
TEXT
  8
8
 10
25.7653
 20
28.2567
 40
0.250
 50
0.0000
  1
NM
  7
STANDARD
  0
POINT
  8
2
 10
25.7653
 20
28.2567
  0
TEXT
  8
2
 10
25.7653
 20
28.2567
 40
0.250
 50
0.0000
  1
# 4
  7
STANDARD
  0
POINT
  8
2
 10
25.7653
 20
31.6856
  0
TEXT
  8
2
 10
25.7653
 20
31.6856
 40
0.250
 50
0.0000
  1
# 20
  7
STANDARD
  0
LINE
  8
8
 10
24.9182
 20
31.6856
 11
25.7653
 21
31.6856
  0
TEXT
  8
8
 10
24.9182
 20
31.6856
 40
0.250
 50
0.0000
  1
NM
  7
STANDARD
  0
POINT
  8
2
 10
24.9182
 20
31.6856
  0
TEXT
  8
2
 10
24.9182
 20
31.6856
 40
0.250
 50
0.0000
  1
# 1
  7
STANDARD
  0
POINT
  8
2
 10
25.7653
 20
31.6856
  0
TEXT
  8
2
 10
25.7653
 20
31.6856
 40
0.250
 50
0.0000
  1
# 20
  7
STANDARD
  0
LINE
  8
6
 10
0.8986
 20
31.6857
 11
24.9143
 21
31.6856
  0
ENDBLK
  0
BLOCK
  8
0
  2
GLX0926S16SBK_38
 70
64
 10
0.0000
 20
0.0000
  0
TEXT
  8
1
 10
13.6678
 20
27.1577
 40
0.250
 50
0.0000
  1
Piece Name: GLX0926S16SBK
  7
STANDARD
  0
TEXT
  8
1
 10
13.6678
 20
27.2977
 40
0.250
 50
0.0000
  1
SIZE: 38
  7
STANDARD
  0
POLYLINE
  8
1
 66
1
 70
0
  0
VERTEX
  8
1
 10
25.0324
 20
31.8332
  0
VERTEX
  8
1
 10
25.0324
 20
31.1764
  0
VERTEX
  8
1
 10
25.0890
 20
30.3866
  0
VERTEX
  8
1
 10
25.2902
 20
29.5392
  0
VERTEX
  8
1
 10
25.6471
 20
28.7999
  0
VERTEX
  8
1
 10
25.9396
 20
28.3768
  0
VERTEX
  8
1
 10
26.2610
 20
28.1217
  0
VERTEX
  8
1
 10
26.6143
 20
27.8485
  0
SEQEND
  8
1
  0
POLYLINE
  8
1
 66
1
 70
0
  0
VERTEX
  8
1
 10
26.6143
 20
27.8485
  0
VERTEX
  8
1
 10
25.9574
 20
26.0490
  0
SEQEND
  8
1
  0
POLYLINE
  8
1
 66
1
 70
0
  0
VERTEX
  8
1
 10
25.9574
 20
26.0490
  0
VERTEX
  8
1
 10
25.2733
 20
26.5235
  0
VERTEX
  8
1
 10
24.7791
 20
27.0013
  0
VERTEX
  8
1
 10
23.4604
 20
28.4022
  0
VERTEX
  8
1
 10
22.1271
 20
29.5485
  0
VERTEX
  8
1
 10
20.4218
 20
30.1433
  0
VERTEX
  8
1
 10
19.6854
 20
30.2242
  0
VERTEX
  8
1
 10
18.6254
 20
30.1144
  0
VERTEX
  8
1
 10
17.4322
 20
29.5097
  0
VERTEX
  8
1
 10
16.7327
 20
28.3098
  0
VERTEX
  8
1
 10
16.5374
 20
25.9447
  0
VERTEX
  8
1
 10
16.9028
 20
23.9619
  0
VERTEX
  8
1
 10
17.1712
 20
22.8773
  0
SEQEND
  8
1
  0
POLYLINE
  8
1
 66
1
 70
0
  0
VERTEX
  8
1
 10
17.1712
 20
22.8773
  0
VERTEX
  8
1
 10
16.3838
 20
22.8754
  0
VERTEX
  8
1
 10
9.5988
 20
23.6639
  0
SEQEND
  8
1
  0
POLYLINE
  8
1
 66
1
 70
0
  0
VERTEX
  8
1
 10
9.5988
 20
23.6639
  0
VERTEX
  8
1
 10
6.1846
 20
23.0627
  0
VERTEX
  8
1
 10
1.5371
 20
22.5205
  0
VERTEX
  8
1
 10
0.7214
 20
22.4820
  0
SEQEND
  8
1
  0
POLYLINE
  8
1
 66
1
 70
0
  0
VERTEX
  8
1
 10
0.7214
 20
22.4820
  0
VERTEX
  8
1
 10
0.7214
 20
31.8334
  0
SEQEND
  8
1
  0
POLYLINE
  8
1
 66
1
 70
0
  0
VERTEX
  8
1
 10
0.7214
 20
31.8334
  0
VERTEX
  8
1
 10
25.0324
 20
31.8332
  0
SEQEND
  8
1
  0
LINE
  8
7
 10
3.1921
 20
28.9728
 11
15.8120
 21
28.9728
  0
LINE
  8
5
 10
3.1921
 20
28.9728
 11
15.8120
 21
28.9728
  0
LINE
  8
8
 10
9.5988
 20
31.8333
 11
9.5988
 21
23.6639
  0
LINE
  8
8
 10
16.3838
 20
22.8754
 11
16.3839
 21
31.8332
  0
POLYLINE
  8
8
 66
1
 70
0
  0
VERTEX
  8
8
 10
9.5828
 20
25.9784
  0
VERTEX
  8
8
 10
12.3976
 20
25.9784
  0
VERTEX
  8
8
 10
12.3977
 20
25.7783
  0
SEQEND
  8
8
  0
LINE
  8
8
 10
19.6854
 20
30.2242
 11
19.6854
 21
31.8333
  0
LINE
  8
8
 10
26.6143
 20
27.8485
 11
25.9574
 21
26.0490
  0
POLYLINE
  8
8
 66
1
 70
0
  0
VERTEX
  8
8
 10
25.9574
 20
26.0490
  0
VERTEX
  8
8
 10
25.2733
 20
26.5235
  0
VERTEX
  8
8
 10
24.7791
 20
27.0013
  0
VERTEX
  8
8
 10
23.4604
 20
28.4022
  0
VERTEX
  8
8
 10
22.1271
 20
29.5485
  0
VERTEX
  8
8
 10
20.4218
 20
30.1433
  0
VERTEX
  8
8
 10
19.6854
 20
30.2242
  0
SEQEND
  8
8
  0
LINE
  8
8
 10
25.9396
 20
28.3768
 11
25.2733
 21
26.5235
  0
LINE
  8
8
 10
25.9425
 20
28.3795
 11
25.9425
 21
31.8332
  0
LINE
  8
8
 10
25.0363
 20
31.8332
 11
25.9425
 21
31.8332
  0
LINE
  8
6
 10
0.7214
 20
31.8334
 11
25.0324
 21
31.8332
  0
ENDBLK
  0
BLOCK
  8
0
  2
GLX0926S16SBK_40
 70
64
 10
0.0000
 20
0.0000
  0
TEXT
  8
1
 10
13.6678
 20
27.1577
 40
0.250
 50
0.0000
  1
Piece Name: GLX0926S16SBK
  7
STANDARD
  0
TEXT
  8
1
 10
13.6678
 20
27.2977
 40
0.250
 50
0.0000
  1
SIZE: 40
  7
STANDARD
  0
POLYLINE
  8
1
 66
1
 70
0
  0
VERTEX
  8
1
 10
25.1505
 20
31.9808
  0
VERTEX
  8
1
 10
25.1505
 20
31.3240
  0
VERTEX
  8
1
 10
25.2150
 20
30.5224
  0
VERTEX
  8
1
 10
25.4241
 20
29.6750
  0
VERTEX
  8
1
 10
25.8072
 20
28.9261
  0
VERTEX
  8
1
 10
26.1168
 20
28.4996
  0
VERTEX
  8
1
 10
26.4382
 20
28.2445
  0
VERTEX
  8
1
 10
26.7915
 20
27.9713
  0
SEQEND
  8
1
  0
POLYLINE
  8
1
 66
1
 70
0
  0
VERTEX
  8
1
 10
26.7915
 20
27.9713
  0
VERTEX
  8
1
 10
26.1346
 20
26.1718
  0
SEQEND
  8
1
  0
POLYLINE
  8
1
 66
1
 70
0
  0
VERTEX
  8
1
 10
26.1346
 20
26.1718
  0
VERTEX
  8
1
 10
25.4505
 20
26.6463
  0
VERTEX
  8
1
 10
24.9393
 20
27.1309
  0
VERTEX
  8
1
 10
23.5739
 20
28.5531
  0
VERTEX
  8
1
 10
22.1962
 20
29.7142
  0
VERTEX
  8
1
 10
20.4415
 20
30.2909
  0
VERTEX
  8
1
 10
19.7051
 20
30.3718
  0
VERTEX
  8
1
 10
18.6333
 20
30.2620
  0
VERTEX
  8
1
 10
17.4430
 20
29.6460
  0
VERTEX
  8
1
 10
16.7524
 20
28.4378
  0
VERTEX
  8
1
 10
16.5386
 20
25.9394
  0
VERTEX
  8
1
 10
16.9186
 20
23.8432
  0
VERTEX
  8
1
 10
17.1909
 20
22.7297
  0
SEQEND
  8
1
  0
POLYLINE
  8
1
 66
1
 70
0
  0
VERTEX
  8
1
 10
17.1909
 20
22.7297
  0
VERTEX
  8
1
 10
16.4035
 20
22.7278
  0
VERTEX
  8
1
 10
9.5594
 20
23.5162
  0
SEQEND
  8
1
  0
POLYLINE
  8
1
 66
1
 70
0
  0
VERTEX
  8
1
 10
9.5594
 20
23.5162
  0
VERTEX
  8
1
 10
6.0919
 20
22.9128
  0
VERTEX
  8
1
 10
1.3724
 20
22.3717
  0
VERTEX
  8
1
 10
0.5442
 20
22.3343
  0
SEQEND
  8
1
  0
POLYLINE
  8
1
 66
1
 70
0
  0
VERTEX
  8
1
 10
0.5442
 20
22.3343
  0
VERTEX
  8
1
 10
0.5442
 20
31.9811
  0
SEQEND
  8
1
  0
POLYLINE
  8
1
 66
1
 70
0
  0
VERTEX
  8
1
 10
0.5442
 20
31.9811
  0
VERTEX
  8
1
 10
25.1505
 20
31.9808
  0
SEQEND
  8
1
  0
LINE
  8
7
 10
3.2118
 20
29.1204
 11
15.8317
 21
29.1204
  0
LINE
  8
5
 10
3.2118
 20
29.1204
 11
15.8317
 21
29.1204
  0
LINE
  8
8
 10
9.5594
 20
31.9809
 11
9.5594
 21
23.5162
  0
LINE
  8
8
 10
16.4035
 20
22.7278
 11
16.4036
 21
31.9808
  0
POLYLINE
  8
8
 66
1
 70
0
  0
VERTEX
  8
8
 10
9.6025
 20
26.1260
  0
VERTEX
  8
8
 10
12.4173
 20
26.1260
  0
VERTEX
  8
8
 10
12.4174
 20
25.9259
  0
SEQEND
  8
8
  0
LINE
  8
8
 10
19.7051
 20
30.3718
 11
19.7051
 21
31.9809
  0
LINE
  8
8
 10
26.7915
 20
27.9713
 11
26.1346
 21
26.1718
  0
POLYLINE
  8
8
 66
1
 70
0
  0
VERTEX
  8
8
 10
26.1346
 20
26.1718
  0
VERTEX
  8
8
 10
25.4505
 20
26.6463
  0
VERTEX
  8
8
 10
24.9393
 20
27.1309
  0
VERTEX
  8
8
 10
23.5739
 20
28.5531
  0
VERTEX
  8
8
 10
22.1962
 20
29.7142
  0
VERTEX
  8
8
 10
20.4415
 20
30.2909
  0
VERTEX
  8
8
 10
19.7051
 20
30.3718
  0
SEQEND
  8
8
  0
LINE
  8
8
 10
26.1168
 20
28.4996
 11
25.4505
 21
26.6463
  0
LINE
  8
8
 10
26.1197
 20
28.5023
 11
26.1197
 21
31.9808
  0
LINE
  8
8
 10
25.1544
 20
31.9808
 11
26.1197
 21
31.9808
  0
LINE
  8
6
 10
0.5442
 20
31.9811
 11
25.1505
 21
31.9808
  0
ENDBLK
  0
BLOCK
  8
0
  2
GLX0926S16SBK_42
 70
64
 10
0.0000
 20
0.0000
  0
TEXT
  8
1
 10
13.6678
 20
27.1577
 40
0.250
 50
0.0000
  1
Piece Name: GLX0926S16SBK
  7
STANDARD
  0
TEXT
  8
1
 10
13.6678
 20
27.2977
 40
0.250
 50
0.0000
  1
SIZE: 42
  7
STANDARD
  0
POLYLINE
  8
1
 66
1
 70
0
  0
VERTEX
  8
1
 10
25.2686
 20
32.1530
  0
VERTEX
  8
1
 10
25.2686
 20
31.4962
  0
VERTEX
  8
1
 10
25.3410
 20
30.6828
  0
VERTEX
  8
1
 10
25.5580
 20
29.8354
  0
VERTEX
  8
1
 10
25.9673
 20
29.0769
  0
VERTEX
  8
1
 10
26.2940
 20
28.6470
  0
VERTEX
  8
1
 10
26.6154
 20
28.3919
  0
VERTEX
  8
1
 10
26.9687
 20
28.1187
  0
SEQEND
  8
1
  0
POLYLINE
  8
1
 66
1
 70
0
  0
VERTEX
  8
1
 10
26.9687
 20
28.1187
  0
VERTEX
  8
1
 10
26.3118
 20
26.3192
  0
SEQEND
  8
1
  0
POLYLINE
  8
1
 66
1
 70
0
  0
VERTEX
  8
1
 10
26.3118
 20
26.3192
  0
VERTEX
  8
1
 10
25.6277
 20
26.7937
  0
VERTEX
  8
1
 10
25.0994
 20
27.2840
  0
VERTEX
  8
1
 10
23.6874
 20
28.7247
  0
VERTEX
  8
1
 10
22.2653
 20
29.8980
  0
VERTEX
  8
1
 10
20.4612
 20
30.4631
  0
VERTEX
  8
1
 10
19.7248
 20
30.5440
  0
VERTEX
  8
1
 10
18.6412
 20
30.4342
  0
VERTEX
  8
1
 10
17.4466
 20
29.7827
  0
VERTEX
  8
1
 10
16.7721
 20
28.5412
  0
VERTEX
  8
1
 10
16.5397
 20
25.9122
  0
VERTEX
  8
1
 10
16.9335
 20
23.7048
  0
VERTEX
  8
1
 10
17.2106
 20
22.5575
  0
SEQEND
  8
1
  0
POLYLINE
  8
1
 66
1
 70
0
  0
VERTEX
  8
1
 10
17.2106
 20
22.5575
  0
VERTEX
  8
1
 10
16.4232
 20
22.5556
  0
VERTEX
  8
1
 10
9.4413
 20
23.3439
  0
SEQEND
  8
1
  0
POLYLINE
  8
1
 66
1
 70
0
  0
VERTEX
  8
1
 10
9.4413
 20
23.3439
  0
VERTEX
  8
1
 10
5.9509
 20
22.7395
  0
VERTEX
  8
1
 10
1.2006
 20
22.1990
  0
VERTEX
  8
1
 10
0.3670
 20
22.1620
  0
SEQEND
  8
1
  0
POLYLINE
  8
1
 66
1
 70
0
  0
VERTEX
  8
1
 10
0.3670
 20
22.1620
  0
VERTEX
  8
1
 10
0.3670
 20
32.1534
  0
SEQEND
  8
1
  0
POLYLINE
  8
1
 66
1
 70
0
  0
VERTEX
  8
1
 10
0.3670
 20
32.1534
  0
VERTEX
  8
1
 10
25.2686
 20
32.1530
  0
SEQEND
  8
1
  0
LINE
  8
7
 10
3.2315
 20
29.2926
 11
15.8514
 21
29.2926
  0
LINE
  8
5
 10
3.2315
 20
29.2926
 11
15.8514
 21
29.2926
  0
LINE
  8
8
 10
9.4413
 20
32.1531
 11
9.4413
 21
23.3439
  0
LINE
  8
8
 10
16.4232
 20
22.5556
 11
16.4233
 21
32.1530
  0
POLYLINE
  8
8
 66
1
 70
0
  0
VERTEX
  8
8
 10
9.6222
 20
26.2982
  0
VERTEX
  8
8
 10
12.4370
 20
26.2982
  0
VERTEX
  8
8
 10
12.4371
 20
26.0981
  0
SEQEND
  8
8
  0
LINE
  8
8
 10
19.7248
 20
30.5440
 11
19.7248
 21
32.1531
  0
LINE
  8
8
 10
26.9687
 20
28.1187
 11
26.3118
 21
26.3192
  0
POLYLINE
  8
8
 66
1
 70
0
  0
VERTEX
  8
8
 10
26.3118
 20
26.3192
  0
VERTEX
  8
8
 10
25.6277
 20
26.7937
  0
VERTEX
  8
8
 10
25.0994
 20
27.2840
  0
VERTEX
  8
8
 10
23.6874
 20
28.7247
  0
VERTEX
  8
8
 10
22.2653
 20
29.8980
  0
VERTEX
  8
8
 10
20.4612
 20
30.4631
  0
VERTEX
  8
8
 10
19.7248
 20
30.5440
  0
SEQEND
  8
8
  0
LINE
  8
8
 10
26.2940
 20
28.6470
 11
25.6277
 21
26.7937
  0
LINE
  8
8
 10
26.2969
 20
28.6497
 11
26.2969
 21
32.1530
  0
LINE
  8
8
 10
25.2725
 20
32.1530
 11
26.2969
 21
32.1530
  0
LINE
  8
6
 10
0.3670
 20
32.1534
 11
25.2686
 21
32.1530
  0
ENDBLK
  0
BLOCK
  8
0
  2
GLX0926S16SBK_44
 70
64
 10
0.0000
 20
0.0000
  0
TEXT
  8
1
 10
13.6678
 20
27.1577
 40
0.250
 50
0.0000
  1
Piece Name: GLX0926S16SBK
  7
STANDARD
  0
TEXT
  8
1
 10
13.6678
 20
27.2977
 40
0.250
 50
0.0000
  1
SIZE: 44
  7
STANDARD
  0
POLYLINE
  8
1
 66
1
 70
0
  0
VERTEX
  8
1
 10
25.3867
 20
32.3252
  0
VERTEX
  8
1
 10
25.3867
 20
31.6684
  0
VERTEX
  8
1
 10
25.4670
 20
30.8432
  0
VERTEX
  8
1
 10
25.6919
 20
29.9958
  0
VERTEX
  8
1
 10
26.1273
 20
29.2277
  0
VERTEX
  8
1
 10
26.4712
 20
28.7944
  0
VERTEX
  8
1
 10
26.7926
 20
28.5393
  0
VERTEX
  8
1
 10
27.1459
 20
28.2661
  0
SEQEND
  8
1
  0
POLYLINE
  8
1
 66
1
 70
0
  0
VERTEX
  8
1
 10
27.1459
 20
28.2661
  0
VERTEX
  8
1
 10
26.4890
 20
26.4666
  0
SEQEND
  8
1
  0
POLYLINE
  8
1
 66
1
 70
0
  0
VERTEX
  8
1
 10
26.4890
 20
26.4666
  0
VERTEX
  8
1
 10
25.8049
 20
26.9411
  0
VERTEX
  8
1
 10
25.2598
 20
27.4372
  0
VERTEX
  8
1
 10
23.8009
 20
28.8962
  0
VERTEX
  8
1
 10
22.3347
 20
30.0817
  0
VERTEX
  8
1
 10
20.4809
 20
30.6353
  0
VERTEX
  8
1
 10
19.7445
 20
30.7162
  0
VERTEX
  8
1
 10
18.6491
 20
30.5985
  0
VERTEX
  8
1
 10
17.4513
 20
29.9155
  0
VERTEX
  8
1
 10
16.7918
 20
28.6446
  0
VERTEX
  8
1
 10
16.5409
 20
25.8850
  0
VERTEX
  8
1
 10
16.9483
 20
23.5663
  0
VERTEX
  8
1
 10
17.2303
 20
22.3853
  0
SEQEND
  8
1
  0
POLYLINE
  8
1
 66
1
 70
0
  0
VERTEX
  8
1
 10
17.2303
 20
22.3853
  0
VERTEX
  8
1
 10
16.4429
 20
22.3834
  0
VERTEX
  8
1
 10
9.3232
 20
23.1716
  0
SEQEND
  8
1
  0
POLYLINE
  8
1
 66
1
 70
0
  0
VERTEX
  8
1
 10
9.3232
 20
23.1716
  0
VERTEX
  8
1
 10
5.8099
 20
22.5663
  0
VERTEX
  8
1
 10
1.0287
 20
22.0262
  0
VERTEX
  8
1
 10
0.1898
 20
21.9897
  0
SEQEND
  8
1
  0
POLYLINE
  8
1
 66
1
 70
0
  0
VERTEX
  8
1
 10
0.1898
 20
21.9897
  0
VERTEX
  8
1
 10
0.1898
 20
32.3257
  0
SEQEND
  8
1
  0
POLYLINE
  8
1
 66
1
 70
0
  0
VERTEX
  8
1
 10
0.1898
 20
32.3257
  0
VERTEX
  8
1
 10
25.3867
 20
32.3252
  0
SEQEND
  8
1
  0
LINE
  8
7
 10
3.2512
 20
29.4648
 11
15.8711
 21
29.4648
  0
LINE
  8
5
 10
3.2512
 20
29.4648
 11
15.8711
 21
29.4648
  0
LINE
  8
8
 10
9.3232
 20
32.3253
 11
9.3232
 21
23.1716
  0
LINE
  8
8
 10
16.4429
 20
22.3834
 11
16.4430
 21
32.3252
  0
POLYLINE
  8
8
 66
1
 70
0
  0
VERTEX
  8
8
 10
9.6419
 20
26.4704
  0
VERTEX
  8
8
 10
12.4567
 20
26.4704
  0
VERTEX
  8
8
 10
12.4568
 20
26.2703
  0
SEQEND
  8
8
  0
LINE
  8
8
 10
19.7445
 20
30.7162
 11
19.7445
 21
32.3253
  0
LINE
  8
8
 10
27.1459
 20
28.2661
 11
26.4890
 21
26.4666
  0
POLYLINE
  8
8
 66
1
 70
0
  0
VERTEX
  8
8
 10
26.4890
 20
26.4666
  0
VERTEX
  8
8
 10
25.8049
 20
26.9411
  0
VERTEX
  8
8
 10
25.2598
 20
27.4372
  0
VERTEX
  8
8
 10
23.8009
 20
28.8962
  0
VERTEX
  8
8
 10
22.3347
 20
30.0817
  0
VERTEX
  8
8
 10
20.4809
 20
30.6353
  0
VERTEX
  8
8
 10
19.7445
 20
30.7162
  0
SEQEND
  8
8
  0
LINE
  8
8
 10
26.4712
 20
28.7944
 11
25.8049
 21
26.9411
  0
LINE
  8
8
 10
26.4741
 20
28.7971
 11
26.4741
 21
32.3252
  0
LINE
  8
8
 10
25.3906
 20
32.3252
 11
26.4741
 21
32.3252
  0
LINE
  8
6
 10
0.1898
 20
32.3257
 11
25.3867
 21
32.3252
  0
ENDBLK
  0
BLOCK
  8
0
  2
GLX0926S16SBK_46
 70
64
 10
0.0000
 20
0.0000
  0
TEXT
  8
1
 10
13.6678
 20
27.1577
 40
0.250
 50
0.0000
  1
Piece Name: GLX0926S16SBK
  7
STANDARD
  0
TEXT
  8
1
 10
13.6678
 20
27.2977
 40
0.250
 50
0.0000
  1
SIZE: 46
  7
STANDARD
  0
POLYLINE
  8
1
 66
1
 70
0
  0
VERTEX
  8
1
 10
25.5048
 20
32.5220
  0
VERTEX
  8
1
 10
25.5048
 20
31.8652
  0
VERTEX
  8
1
 10
25.5851
 20
31.0282
  0
VERTEX
  8
1
 10
25.8258
 20
30.1808
  0
VERTEX
  8
1
 10
26.2874
 20
29.4031
  0
VERTEX
  8
1
 10
26.6484
 20
28.9664
  0
VERTEX
  8
1
 10
26.9698
 20
28.7113
  0
VERTEX
  8
1
 10
27.3231
 20
28.4381
  0
SEQEND
  8
1
  0
POLYLINE
  8
1
 66
1
 70
0
  0
VERTEX
  8
1
 10
27.3231
 20
28.4381
  0
VERTEX
  8
1
 10
26.6662
 20
26.4417
  0
SEQEND
  8
1
  0
POLYLINE
  8
1
 66
1
 70
0
  0
VERTEX
  8
1
 10
26.6662
 20
26.4417
  0
VERTEX
  8
1
 10
25.9821
 20
26.9162
  0
VERTEX
  8
1
 10
25.4067
 20
27.4183
  0
VERTEX
  8
1
 10
23.8641
 20
28.8978
  0
VERTEX
  8
1
 10
22.3197
 20
30.0940
  0
VERTEX
  8
1
 10
20.5006
 20
30.6549
  0
VERTEX
  8
1
 10
19.7641
 20
30.7161
  0
VERTEX
  8
1
 10
18.6569
 20
30.5984
  0
VERTEX
  8
1
 10
17.4823
 20
29.9715
  0
VERTEX
  8
1
 10
16.8115
 20
28.7627
  0
VERTEX
  8
1
 10
16.5394
 20
25.8432
  0
VERTEX
  8
1
 10
16.9651
 20
23.3887
  0
VERTEX
  8
1
 10
17.2500
 20
22.1884
  0
SEQEND
  8
1
  0
POLYLINE
  8
1
 66
1
 70
0
  0
VERTEX
  8
1
 10
17.2500
 20
22.1884
  0
VERTEX
  8
1
 10
16.4626
 20
22.1865
  0
VERTEX
  8
1
 10
9.2051
 20
22.9255
  0
SEQEND
  8
1
  0
POLYLINE
  8
1
 66
1
 70
0
  0
VERTEX
  8
1
 10
9.2051
 20
22.9255
  0
VERTEX
  8
1
 10
5.6682
 20
22.3382
  0
VERTEX
  8
1
 10
0.8564
 20
21.8244
  0
VERTEX
  8
1
 10
0.0125
 20
21.7928
  0
SEQEND
  8
1
  0
POLYLINE
  8
1
 66
1
 70
0
  0
VERTEX
  8
1
 10
0.0125
 20
21.7928
  0
VERTEX
  8
1
 10
0.0125
 20
32.5226
  0
SEQEND
  8
1
  0
POLYLINE
  8
1
 66
1
 70
0
  0
VERTEX
  8
1
 10
0.0125
 20
32.5226
  0
VERTEX
  8
1
 10
25.5048
 20
32.5220
  0
SEQEND
  8
1
  0
LINE
  8
7
 10
3.2708
 20
29.6616
 11
15.8908
 21
29.6616
  0
LINE
  8
5
 10
3.2708
 20
29.6616
 11
15.8908
 21
29.6616
  0
LINE
  8
8
 10
9.2051
 20
32.5221
 11
9.2051
 21
22.9255
  0
LINE
  8
8
 10
16.4626
 20
22.1865
 11
16.4627
 21
32.5220
  0
POLYLINE
  8
8
 66
1
 70
0
  0
VERTEX
  8
8
 10
9.6616
 20
26.6672
  0
VERTEX
  8
8
 10
12.4764
 20
26.6672
  0
VERTEX
  8
8
 10
12.4765
 20
26.4671
  0
SEQEND
  8
8
  0
LINE
  8
8
 10
19.7641
 20
30.7161
 11
19.7641
 21
32.5221
  0
LINE
  8
8
 10
27.3231
 20
28.4381
 11
26.6662
 21
26.4417
  0
POLYLINE
  8
8
 66
1
 70
0
  0
VERTEX
  8
8
 10
26.6662
 20
26.4417
  0
VERTEX
  8
8
 10
25.9821
 20
26.9162
  0
VERTEX
  8
8
 10
25.4067
 20
27.4183
  0
VERTEX
  8
8
 10
23.8641
 20
28.8978
  0
VERTEX
  8
8
 10
22.3197
 20
30.0940
  0
VERTEX
  8
8
 10
20.5006
 20
30.6549
  0
VERTEX
  8
8
 10
19.7641
 20
30.7161
  0
SEQEND
  8
8
  0
LINE
  8
8
 10
26.6484
 20
28.9664
 11
25.9821
 21
26.9162
  0
LINE
  8
8
 10
26.6513
 20
28.9691
 11
26.6513
 21
32.5220
  0
LINE
  8
8
 10
25.5087
 20
32.5220
 11
26.6513
 21
32.5220
  0
LINE
  8
6
 10
0.0125
 20
32.5226
 11
25.5048
 21
32.5220
  0
ENDBLK
  0
BLOCK
  8
0
  2
GLX0926S16SBK_48
 70
64
 10
0.0000
 20
0.0000
  0
TEXT
  8
1
 10
13.6678
 20
27.1577
 40
0.250
 50
0.0000
  1
Piece Name: GLX0926S16SBK
  7
STANDARD
  0
TEXT
  8
1
 10
13.6678
 20
27.2977
 40
0.250
 50
0.0000
  1
SIZE: 48
  7
STANDARD
  0
POLYLINE
  8
1
 66
1
 70
0
  0
VERTEX
  8
1
 10
25.6229
 20
32.7188
  0
VERTEX
  8
1
 10
25.6229
 20
32.0620
  0
VERTEX
  8
1
 10
25.7032
 20
31.2132
  0
VERTEX
  8
1
 10
25.9597
 20
30.3658
  0
VERTEX
  8
1
 10
26.4475
 20
29.5785
  0
VERTEX
  8
1
 10
26.8256
 20
29.1384
  0
VERTEX
  8
1
 10
27.1470
 20
28.8833
  0
VERTEX
  8
1
 10
27.5003
 20
28.6101
  0
SEQEND
  8
1
  0
POLYLINE
  8
1
 66
1
 70
0
  0
VERTEX
  8
1
 10
27.5003
 20
28.6101
  0
VERTEX
  8
1
 10
26.8434
 20
26.6137
  0
SEQEND
  8
1
  0
POLYLINE
  8
1
 66
1
 70
0
  0
VERTEX
  8
1
 10
26.8434
 20
26.6137
  0
VERTEX
  8
1
 10
26.1593
 20
27.0882
  0
VERTEX
  8
1
 10
25.5603
 20
27.5943
  0
VERTEX
  8
1
 10
23.9520
 20
29.0883
  0
VERTEX
  8
1
 10
22.3467
 20
30.2912
  0
VERTEX
  8
1
 10
20.5203
 20
30.8517
  0
VERTEX
  8
1
 10
19.7838
 20
30.9129
  0
VERTEX
  8
1
 10
18.6647
 20
30.7873
  0
VERTEX
  8
1
 10
17.4856
 20
30.1240
  0
VERTEX
  8
1
 10
16.8312
 20
28.8808
  0
VERTEX
  8
1
 10
16.5380
 20
25.8120
  0
VERTEX
  8
1
 10
16.9794
 20
23.2304
  0
VERTEX
  8
1
 10
17.2697
 20
21.9915
  0
SEQEND
  8
1
  0
POLYLINE
  8
1
 66
1
 70
0
  0
VERTEX
  8
1
 10
17.2697
 20
21.9915
  0
VERTEX
  8
1
 10
16.4823
 20
21.9896
  0
VERTEX
  8
1
 10
9.0870
 20
22.6794
  0
SEQEND
  8
1
  0
POLYLINE
  8
1
 66
1
 70
0
  0
VERTEX
  8
1
 10
9.0870
 20
22.6794
  0
VERTEX
  8
1
 10
5.5264
 20
22.1102
  0
VERTEX
  8
1
 10
0.6843
 20
21.6225
  0
VERTEX
  8
1
 10
-0.1646
 20
21.5959
  0
SEQEND
  8
1
  0
POLYLINE
  8
1
 66
1
 70
0
  0
VERTEX
  8
1
 10
-0.1646
 20
21.5959
  0
VERTEX
  8
1
 10
-0.1646
 20
32.7195
  0
SEQEND
  8
1
  0
POLYLINE
  8
1
 66
1
 70
0
  0
VERTEX
  8
1
 10
-0.1646
 20
32.7195
  0
VERTEX
  8
1
 10
25.6229
 20
32.7188
  0
SEQEND
  8
1
  0
LINE
  8
7
 10
3.2906
 20
29.8584
 11
15.9105
 21
29.8584
  0
LINE
  8
5
 10
3.2906
 20
29.8584
 11
15.9105
 21
29.8584
  0
LINE
  8
8
 10
9.0870
 20
32.7189
 11
9.0870
 21
22.6794
  0
LINE
  8
8
 10
16.4823
 20
21.9896
 11
16.4824
 21
32.7188
  0
POLYLINE
  8
8
 66
1
 70
0
  0
VERTEX
  8
8
 10
9.6813
 20
26.8640
  0
VERTEX
  8
8
 10
12.4961
 20
26.8640
  0
VERTEX
  8
8
 10
12.4962
 20
26.6639
  0
SEQEND
  8
8
  0
LINE
  8
8
 10
19.7838
 20
30.9129
 11
19.7838
 21
32.7189
  0
LINE
  8
8
 10
27.5003
 20
28.6101
 11
26.8434
 21
26.6137
  0
POLYLINE
  8
8
 66
1
 70
0
  0
VERTEX
  8
8
 10
26.8434
 20
26.6137
  0
VERTEX
  8
8
 10
26.1593
 20
27.0882
  0
VERTEX
  8
8
 10
25.5603
 20
27.5943
  0
VERTEX
  8
8
 10
23.9520
 20
29.0883
  0
VERTEX
  8
8
 10
22.3467
 20
30.2912
  0
VERTEX
  8
8
 10
20.5203
 20
30.8517
  0
VERTEX
  8
8
 10
19.7838
 20
30.9129
  0
SEQEND
  8
8
  0
LINE
  8
8
 10
26.8256
 20
29.1384
 11
26.1593
 21
27.0882
  0
LINE
  8
8
 10
26.8285
 20
29.1411
 11
26.8285
 21
32.7188
  0
LINE
  8
8
 10
25.6268
 20
32.7188
 11
26.8285
 21
32.7188
  0
LINE
  8
6
 10
-0.1646
 20
32.7195
 11
25.6229
 21
32.7188
  0
ENDBLK
  0
BLOCK
  8
0
  2
GLX0926S16SBK_50
 70
64
 10
0.0000
 20
0.0000
  0
TEXT
  8
1
 10
13.6678
 20
27.1577
 40
0.250
 50
0.0000
  1
Piece Name: GLX0926S16SBK
  7
STANDARD
  0
TEXT
  8
1
 10
13.6678
 20
27.2977
 40
0.250
 50
0.0000
  1
SIZE: 50
  7
STANDARD
  0
POLYLINE
  8
1
 66
1
 70
0
  0
VERTEX
  8
1
 10
25.7410
 20
32.9402
  0
VERTEX
  8
1
 10
25.7410
 20
32.2834
  0
VERTEX
  8
1
 10
25.8213
 20
31.4098
  0
VERTEX
  8
1
 10
26.0936
 20
30.5624
  0
VERTEX
  8
1
 10
26.6071
 20
29.7585
  0
VERTEX
  8
1
 10
27.0028
 20
29.3106
  0
VERTEX
  8
1
 10
27.3242
 20
29.0555
  0
VERTEX
  8
1
 10
27.6775
 20
28.7823
  0
SEQEND
  8
1
  0
POLYLINE
  8
1
 66
1
 70
0
  0
VERTEX
  8
1
 10
27.6775
 20
28.7823
  0
VERTEX
  8
1
 10
27.0206
 20
26.7859
  0
SEQEND
  8
1
  0
POLYLINE
  8
1
 66
1
 70
0
  0
VERTEX
  8
1
 10
27.0206
 20
26.7859
  0
VERTEX
  8
1
 10
26.3365
 20
27.2604
  0
VERTEX
  8
1
 10
25.7139
 20
27.7742
  0
VERTEX
  8
1
 10
24.0408
 20
29.2929
  0
VERTEX
  8
1
 10
22.3741
 20
30.5120
  0
VERTEX
  8
1
 10
20.5400
 20
31.0731
  0
VERTEX
  8
1
 10
19.8035
 20
31.1343
  0
VERTEX
  8
1
 10
18.6727
 20
31.0008
  0
VERTEX
  8
1
 10
17.4873
 20
30.2962
  0
VERTEX
  8
1
 10
16.8509
 20
29.0136
  0
VERTEX
  8
1
 10
16.5339
 20
25.7769
  0
VERTEX
  8
1
 10
16.9931
 20
23.0523
  0
VERTEX
  8
1
 10
17.2894
 20
21.7700
  0
SEQEND
  8
1
  0
POLYLINE
  8
1
 66
1
 70
0
  0
VERTEX
  8
1
 10
17.2894
 20
21.7700
  0
VERTEX
  8
1
 10
16.5020
 20
21.7681
  0
VERTEX
  8
1
 10
8.9689
 20
22.4087
  0
SEQEND
  8
1
  0
POLYLINE
  8
1
 66
1
 70
0
  0
VERTEX
  8
1
 10
8.9689
 20
22.4087
  0
VERTEX
  8
1
 10
5.3847
 20
21.8576
  0
VERTEX
  8
1
 10
0.5121
 20
21.3961
  0
VERTEX
  8
1
 10
-0.3418
 20
21.3744
  0
SEQEND
  8
1
  0
POLYLINE
  8
1
 66
1
 70
0
  0
VERTEX
  8
1
 10
-0.3418
 20
21.3744
  0
VERTEX
  8
1
 10
-0.3418
 20
32.9410
  0
SEQEND
  8
1
  0
POLYLINE
  8
1
 66
1
 70
0
  0
VERTEX
  8
1
 10
-0.3418
 20
32.9410
  0
VERTEX
  8
1
 10
25.7410
 20
32.9402
  0
SEQEND
  8
1
  0
LINE
  8
7
 10
3.3103
 20
30.0798
 11
15.9302
 21
30.0798
  0
LINE
  8
5
 10
3.3103
 20
30.0798
 11
15.9302
 21
30.0798
  0
LINE
  8
8
 10
8.9689
 20
32.9403
 11
8.9689
 21
22.4087
  0
LINE
  8
8
 10
16.5020
 20
21.7681
 11
16.5021
 21
32.9402
  0
POLYLINE
  8
8
 66
1
 70
0
  0
VERTEX
  8
8
 10
9.7010
 20
27.0854
  0
VERTEX
  8
8
 10
12.5158
 20
27.0854
  0
VERTEX
  8
8
 10
12.5159
 20
26.8853
  0
SEQEND
  8
8
  0
LINE
  8
8
 10
19.8035
 20
31.1343
 11
19.8035
 21
32.9403
  0
LINE
  8
8
 10
27.6775
 20
28.7823
 11
27.0206
 21
26.7859
  0
POLYLINE
  8
8
 66
1
 70
0
  0
VERTEX
  8
8
 10
27.0206
 20
26.7859
  0
VERTEX
  8
8
 10
26.3365
 20
27.2604
  0
VERTEX
  8
8
 10
25.7139
 20
27.7742
  0
VERTEX
  8
8
 10
24.0408
 20
29.2929
  0
VERTEX
  8
8
 10
22.3741
 20
30.5120
  0
VERTEX
  8
8
 10
20.5400
 20
31.0731
  0
VERTEX
  8
8
 10
19.8035
 20
31.1343
  0
SEQEND
  8
8
  0
LINE
  8
8
 10
27.0028
 20
29.3106
 11
26.3365
 21
27.2604
  0
LINE
  8
8
 10
27.0057
 20
29.3133
 11
27.0057
 21
32.9402
  0
LINE
  8
8
 10
25.7449
 20
32.9402
 11
27.0057
 21
32.9402
  0
LINE
  8
6
 10
-0.3418
 20
32.9410
 11
25.7410
 21
32.9402
  0
ENDBLK
  0
BLOCK
  8
0
  2
GLX0926S16SBK_52
 70
64
 10
0.0000
 20
0.0000
  0
TEXT
  8
1
 10
13.6678
 20
27.1577
 40
0.250
 50
0.0000
  1
Piece Name: GLX0926S16SBK
  7
STANDARD
  0
TEXT
  8
1
 10
13.6678
 20
27.2977
 40
0.250
 50
0.0000
  1
SIZE: 52
  7
STANDARD
  0
POLYLINE
  8
1
 66
1
 70
0
  0
VERTEX
  8
1
 10
25.8591
 20
33.1616
  0
VERTEX
  8
1
 10
25.8591
 20
32.5048
  0
VERTEX
  8
1
 10
25.9394
 20
31.6064
  0
VERTEX
  8
1
 10
26.2275
 20
30.7590
  0
VERTEX
  8
1
 10
26.7668
 20
29.9385
  0
VERTEX
  8
1
 10
27.1800
 20
29.4828
  0
VERTEX
  8
1
 10
27.5014
 20
29.2277
  0
VERTEX
  8
1
 10
27.8547
 20
28.9545
  0
SEQEND
  8
1
  0
POLYLINE
  8
1
 66
1
 70
0
  0
VERTEX
  8
1
 10
27.8547
 20
28.9545
  0
VERTEX
  8
1
 10
27.1978
 20
26.9581
  0
SEQEND
  8
1
  0
POLYLINE
  8
1
 66
1
 70
0
  0
VERTEX
  8
1
 10
27.1978
 20
26.9581
  0
VERTEX
  8
1
 10
26.5137
 20
27.4326
  0
VERTEX
  8
1
 10
25.8675
 20
27.9541
  0
VERTEX
  8
1
 10
24.1294
 20
29.4975
  0
VERTEX
  8
1
 10
22.4015
 20
30.7328
  0
VERTEX
  8
1
 10
20.5597
 20
31.2945
  0
VERTEX
  8
1
 10
19.8232
 20
31.3557
  0
VERTEX
  8
1
 10
18.6806
 20
31.2143
  0
VERTEX
  8
1
 10
17.4891
 20
30.4685
  0
VERTEX
  8
1
 10
16.8706
 20
29.1464
  0
VERTEX
  8
1
 10
16.5298
 20
25.7418
  0
VERTEX
  8
1
 10
17.0068
 20
22.8742
  0
VERTEX
  8
1
 10
17.3091
 20
21.5485
  0
SEQEND
  8
1
  0
POLYLINE
  8
1
 66
1
 70
0
  0
VERTEX
  8
1
 10
17.3091
 20
21.5485
  0
VERTEX
  8
1
 10
16.5217
 20
21.5466
  0
VERTEX
  8
1
 10
8.8508
 20
22.1380
  0
SEQEND
  8
1
  0
POLYLINE
  8
1
 66
1
 70
0
  0
VERTEX
  8
1
 10
8.8508
 20
22.1380
  0
VERTEX
  8
1
 10
5.2429
 20
21.6049
  0
VERTEX
  8
1
 10
0.3399
 20
21.1697
  0
VERTEX
  8
1
 10
-0.5191
 20
21.1529
  0
SEQEND
  8
1
  0
POLYLINE
  8
1
 66
1
 70
0
  0
VERTEX
  8
1
 10
-0.5191
 20
21.1529
  0
VERTEX
  8
1
 10
-0.5191
 20
33.1625
  0
SEQEND
  8
1
  0
POLYLINE
  8
1
 66
1
 70
0
  0
VERTEX
  8
1
 10
-0.5191
 20
33.1625
  0
VERTEX
  8
1
 10
25.8591
 20
33.1616
  0
SEQEND
  8
1
  0
LINE
  8
7
 10
3.3300
 20
30.3012
 11
15.9499
 21
30.3012
  0
LINE
  8
5
 10
3.3300
 20
30.3012
 11
15.9499
 21
30.3012
  0
LINE
  8
8
 10
8.8508
 20
33.1617
 11
8.8508
 21
22.1380
  0
LINE
  8
8
 10
16.5217
 20
21.5466
 11
16.5218
 21
33.1616
  0
POLYLINE
  8
8
 66
1
 70
0
  0
VERTEX
  8
8
 10
9.7207
 20
27.3068
  0
VERTEX
  8
8
 10
12.5355
 20
27.3068
  0
VERTEX
  8
8
 10
12.5356
 20
27.1067
  0
SEQEND
  8
8
  0
LINE
  8
8
 10
19.8232
 20
31.3557
 11
19.8232
 21
33.1617
  0
LINE
  8
8
 10
27.8547
 20
28.9545
 11
27.1978
 21
26.9581
  0
POLYLINE
  8
8
 66
1
 70
0
  0
VERTEX
  8
8
 10
27.1978
 20
26.9581
  0
VERTEX
  8
8
 10
26.5137
 20
27.4326
  0
VERTEX
  8
8
 10
25.8675
 20
27.9541
  0
VERTEX
  8
8
 10
24.1294
 20
29.4975
  0
VERTEX
  8
8
 10
22.4015
 20
30.7328
  0
VERTEX
  8
8
 10
20.5597
 20
31.2945
  0
VERTEX
  8
8
 10
19.8232
 20
31.3557
  0
SEQEND
  8
8
  0
LINE
  8
8
 10
27.1800
 20
29.4828
 11
26.5137
 21
27.4326
  0
LINE
  8
8
 10
27.1829
 20
29.4855
 11
27.1829
 21
33.1616
  0
LINE
  8
8
 10
25.8630
 20
33.1616
 11
27.1829
 21
33.1616
  0
LINE
  8
6
 10
-0.5191
 20
33.1625
 11
25.8591
 21
33.1616
  0
ENDBLK
  0
BLOCK
  8
0
  2
GLX0926S16SFR_26
 70
64
 10
0.0000
 20
0.0000
  0
TEXT
  8
1
 10
40.5078
 20
27.1572
 40
0.250
 50
0.0000
  1
Piece Name: GLX0926S16SFR
  7
STANDARD
  0
TEXT
  8
1
 10
40.5078
 20
27.2972
 40
0.250
 50
0.0000
  1
SIZE: 26
  7
STANDARD
  0
POLYLINE
  8
1
 66
1
 70
0
  0
VERTEX
  8
1
 10
48.0415
 20
30.9464
  0
VERTEX
  8
1
 10
48.0436
 20
30.8313
  0
VERTEX
  8
1
 10
48.0877
 20
30.1397
  0
VERTEX
  8
1
 10
48.3743
 20
29.0031
  0
VERTEX
  8
1
 10
48.7582
 20
28.4256
  0
VERTEX
  8
1
 10
49.5802
 20
27.8187
  0
VERTEX
  8
1
 10
51.2045
 20
27.2861
  0
VERTEX
  8
1
 10
51.6154
 20
27.1986
  0
VERTEX
  8
1
 10
51.8880
 20
27.1570
  0
SEQEND
  8
1
  0
POLYLINE
  8
1
 66
1
 70
0
  0
VERTEX
  8
1
 10
51.8880
 20
27.1570
  0
VERTEX
  8
1
 10
51.1265
 20
25.3992
  0
SEQEND
  8
1
  0
POLYLINE
  8
1
 66
1
 70
0
  0
VERTEX
  8
1
 10
51.1265
 20
25.3992
  0
VERTEX
  8
1
 10
50.5296
 20
25.5132
  0
VERTEX
  8
1
 10
49.1779
 20
25.7447
  0
VERTEX
  8
1
 10
47.6368
 20
25.8259
  0
VERTEX
  8
1
 10
46.8770
 20
25.7689
  0
VERTEX
  8
1
 10
45.9455
 20
25.3549
  0
VERTEX
  8
1
 10
45.5620
 20
24.9682
  0
VERTEX
  8
1
 10
45.3477
 20
24.5248
  0
VERTEX
  8
1
 10
45.2859
 20
24.2566
  0
VERTEX
  8
1
 10
45.1768
 20
23.7626
  0
SEQEND
  8
1
  0
POLYLINE
  8
1
 66
1
 70
0
  0
VERTEX
  8
1
 10
45.1768
 20
23.7626
  0
VERTEX
  8
1
 10
44.3894
 20
23.7607
  0
VERTEX
  8
1
 10
37.9660
 20
24.5493
  0
SEQEND
  8
1
  0
POLYLINE
  8
1
 66
1
 70
0
  0
VERTEX
  8
1
 10
37.9660
 20
24.5493
  0
VERTEX
  8
1
 10
34.8548
 20
23.9606
  0
VERTEX
  8
1
 10
31.7055
 20
23.5239
  0
VERTEX
  8
1
 10
29.9154
 20
23.3674
  0
SEQEND
  8
1
  0
POLYLINE
  8
1
 66
1
 70
0
  0
VERTEX
  8
1
 10
29.9154
 20
23.3674
  0
VERTEX
  8
1
 10
29.8902
 20
23.5301
  0
VERTEX
  8
1
 10
29.1277
 20
29.6458
  0
VERTEX
  8
1
 10
29.1277
 20
30.9471
  0
SEQEND
  8
1
  0
POLYLINE
  8
1
 66
1
 70
0
  0
VERTEX
  8
1
 10
29.1277
 20
30.9471
  0
VERTEX
  8
1
 10
48.0415
 20
30.9464
  0
SEQEND
  8
1
  0
LINE
  8
7
 10
34.2801
 20
26.4196
 11
46.5541
 21
26.4196
  0
LINE
  8
5
 10
34.2801
 20
26.4196
 11
46.5541
 21
26.4196
  0
LINE
  8
8
 10
29.9144
 20
23.3682
 11
29.9145
 21
30.9471
  0
LINE
  8
8
 10
37.9660
 20
30.9472
 11
37.9660
 21
24.5493
  0
LINE
  8
8
 10
44.3965
 20
30.9468
 11
44.3964
 21
23.7621
  0
LINE
  8
8
 10
45.6742
 20
27.7955
 11
45.6743
 21
29.1734
  0
LINE
  8
8
 10
45.6743
 20
29.1734
 11
46.5798
 21
29.1737
  0
LINE
  8
8
 10
46.5798
 20
29.1737
 11
46.5798
 21
27.7953
  0
LINE
  8
8
 10
46.5798
 20
27.7953
 11
45.6742
 21
27.7955
  0
POLYLINE
  8
8
 66
1
 70
0
  0
VERTEX
  8
8
 10
37.7980
 20
28.5356
  0
VERTEX
  8
8
 10
40.6130
 20
28.5355
  0
VERTEX
  8
8
 10
40.6129
 20
28.3354
  0
SEQEND
  8
8
  0
LINE
  8
6
 10
29.1277
 20
30.9471
 11
48.0415
 21
30.9464
  0
ENDBLK
  0
BLOCK
  8
0
  2
GLX0926S16SFR_28
 70
64
 10
0.0000
 20
0.0000
  0
TEXT
  8
1
 10
40.5078
 20
27.1573
 40
0.250
 50
0.0000
  1
Piece Name: GLX0926S16SFR
  7
STANDARD
  0
TEXT
  8
1
 10
40.5078
 20
27.2973
 40
0.250
 50
0.0000
  1
SIZE: 28
  7
STANDARD
  0
POLYLINE
  8
1
 66
1
 70
0
  0
VERTEX
  8
1
 10
48.1596
 20
31.0941
  0
VERTEX
  8
1
 10
48.1617
 20
30.9790
  0
VERTEX
  8
1
 10
48.2066
 20
30.2807
  0
VERTEX
  8
1
 10
48.4964
 20
29.1331
  0
VERTEX
  8
1
 10
48.9000
 20
28.5391
  0
VERTEX
  8
1
 10
49.7574
 20
27.9192
  0
VERTEX
  8
1
 10
51.3823
 20
27.4025
  0
VERTEX
  8
1
 10
51.7929
 20
27.3190
  0
VERTEX
  8
1
 10
52.0652
 20
27.2799
  0
SEQEND
  8
1
  0
POLYLINE
  8
1
 66
1
 70
0
  0
VERTEX
  8
1
 10
52.0652
 20
27.2799
  0
VERTEX
  8
1
 10
51.3037
 20
25.5221
  0
SEQEND
  8
1
  0
POLYLINE
  8
1
 66
1
 70
0
  0
VERTEX
  8
1
 10
51.3037
 20
25.5221
  0
VERTEX
  8
1
 10
50.6996
 20
25.6312
  0
VERTEX
  8
1
 10
49.3320
 20
25.8518
  0
VERTEX
  8
1
 10
47.7746
 20
25.9185
  0
VERTEX
  8
1
 10
46.9685
 20
25.8429
  0
VERTEX
  8
1
 10
45.9866
 20
25.3848
  0
VERTEX
  8
1
 10
45.5651
 20
24.9248
  0
VERTEX
  8
1
 10
45.3398
 20
24.4074
  0
VERTEX
  8
1
 10
45.2812
 20
24.0976
  0
VERTEX
  8
1
 10
45.1979
 20
23.6150
  0
SEQEND
  8
1
  0
POLYLINE
  8
1
 66
1
 70
0
  0
VERTEX
  8
1
 10
45.1979
 20
23.6150
  0
VERTEX
  8
1
 10
44.4105
 20
23.6131
  0
VERTEX
  8
1
 10
37.9266
 20
24.4017
  0
SEQEND
  8
1
  0
POLYLINE
  8
1
 66
1
 70
0
  0
VERTEX
  8
1
 10
37.9266
 20
24.4017
  0
VERTEX
  8
1
 10
34.7619
 20
23.8108
  0
VERTEX
  8
1
 10
31.5586
 20
23.3745
  0
VERTEX
  8
1
 10
29.7382
 20
23.2198
  0
SEQEND
  8
1
  0
POLYLINE
  8
1
 66
1
 70
0
  0
VERTEX
  8
1
 10
29.7382
 20
23.2198
  0
VERTEX
  8
1
 10
29.7128
 20
23.3901
  0
VERTEX
  8
1
 10
28.9505
 20
29.7936
  0
VERTEX
  8
1
 10
28.9505
 20
31.0949
  0
SEQEND
  8
1
  0
POLYLINE
  8
1
 66
1
 70
0
  0
VERTEX
  8
1
 10
28.9505
 20
31.0949
  0
VERTEX
  8
1
 10
48.1596
 20
31.0941
  0
SEQEND
  8
1
  0
LINE
  8
7
 10
34.2998
 20
26.5673
 11
46.5738
 21
26.5673
  0
LINE
  8
5
 10
34.2998
 20
26.5673
 11
46.5738
 21
26.5673
  0
LINE
  8
8
 10
29.7372
 20
23.2206
 11
29.7373
 21
31.0949
  0
LINE
  8
8
 10
37.9266
 20
31.0949
 11
37.9266
 21
24.4017
  0
LINE
  8
8
 10
44.4162
 20
31.0945
 11
44.4161
 21
23.6146
  0
LINE
  8
8
 10
45.6545
 20
27.7463
 11
45.6546
 21
29.1242
  0
LINE
  8
8
 10
45.6546
 20
29.1242
 11
46.5601
 21
29.1245
  0
LINE
  8
8
 10
46.5601
 20
29.1245
 11
46.5601
 21
27.7461
  0
LINE
  8
8
 10
46.5601
 20
27.7461
 11
45.6545
 21
27.7463
  0
POLYLINE
  8
8
 66
1
 70
0
  0
VERTEX
  8
8
 10
37.8177
 20
28.6833
  0
VERTEX
  8
8
 10
40.6327
 20
28.6832
  0
VERTEX
  8
8
 10
40.6326
 20
28.4831
  0
SEQEND
  8
8
  0
LINE
  8
6
 10
28.9505
 20
31.0949
 11
48.1596
 21
31.0941
  0
ENDBLK
  0
BLOCK
  8
0
  2
GLX0926S16SFR_30
 70
64
 10
0.0000
 20
0.0000
  0
TEXT
  8
1
 10
40.5078
 20
27.1573
 40
0.250
 50
0.0000
  1
Piece Name: GLX0926S16SFR
  7
STANDARD
  0
TEXT
  8
1
 10
40.5078
 20
27.2973
 40
0.250
 50
0.0000
  1
SIZE: 30
  7
STANDARD
  0
POLYLINE
  8
1
 66
1
 70
0
  0
VERTEX
  8
1
 10
48.2776
 20
31.2417
  0
VERTEX
  8
1
 10
48.2797
 20
31.1266
  0
VERTEX
  8
1
 10
48.3253
 20
30.4215
  0
VERTEX
  8
1
 10
48.6184
 20
29.2630
  0
VERTEX
  8
1
 10
49.0417
 20
28.6525
  0
VERTEX
  8
1
 10
49.9346
 20
28.0196
  0
VERTEX
  8
1
 10
51.5600
 20
27.5188
  0
VERTEX
  8
1
 10
51.9704
 20
27.4392
  0
VERTEX
  8
1
 10
52.2424
 20
27.4027
  0
SEQEND
  8
1
  0
POLYLINE
  8
1
 66
1
 70
0
  0
VERTEX
  8
1
 10
52.2424
 20
27.4027
  0
VERTEX
  8
1
 10
51.4808
 20
25.6449
  0
SEQEND
  8
1
  0
POLYLINE
  8
1
 66
1
 70
0
  0
VERTEX
  8
1
 10
51.4808
 20
25.6449
  0
VERTEX
  8
1
 10
50.8696
 20
25.7494
  0
VERTEX
  8
1
 10
49.4860
 20
25.9588
  0
VERTEX
  8
1
 10
47.9123
 20
26.0110
  0
VERTEX
  8
1
 10
47.0495
 20
25.9170
  0
VERTEX
  8
1
 10
46.0047
 20
25.4099
  0
VERTEX
  8
1
 10
45.5623
 20
24.8710
  0
VERTEX
  8
1
 10
45.3424
 20
24.2801
  0
VERTEX
  8
1
 10
45.2958
 20
23.9309
  0
VERTEX
  8
1
 10
45.2190
 20
23.4673
  0
SEQEND
  8
1
  0
POLYLINE
  8
1
 66
1
 70
0
  0
VERTEX
  8
1
 10
45.2190
 20
23.4673
  0
VERTEX
  8
1
 10
44.4316
 20
23.4654
  0
VERTEX
  8
1
 10
37.8872
 20
24.2540
  0
SEQEND
  8
1
  0
POLYLINE
  8
1
 66
1
 70
0
  0
VERTEX
  8
1
 10
37.8872
 20
24.2540
  0
VERTEX
  8
1
 10
34.6688
 20
23.6609
  0
VERTEX
  8
1
 10
31.4117
 20
23.2250
  0
VERTEX
  8
1
 10
29.5610
 20
23.0721
  0
SEQEND
  8
1
  0
POLYLINE
  8
1
 66
1
 70
0
  0
VERTEX
  8
1
 10
29.5610
 20
23.0721
  0
VERTEX
  8
1
 10
29.5353
 20
23.2502
  0
VERTEX
  8
1
 10
28.7733
 20
29.9413
  0
VERTEX
  8
1
 10
28.7733
 20
31.2426
  0
SEQEND
  8
1
  0
POLYLINE
  8
1
 66
1
 70
0
  0
VERTEX
  8
1
 10
28.7733
 20
31.2426
  0
VERTEX
  8
1
 10
48.2776
 20
31.2417
  0
SEQEND
  8
1
  0
LINE
  8
7
 10
34.3194
 20
26.7149
 11
46.5935
 21
26.7149
  0
LINE
  8
5
 10
34.3194
 20
26.7149
 11
46.5935
 21
26.7149
  0
LINE
  8
8
 10
29.5599
 20
23.0729
 11
29.5600
 21
31.2426
  0
LINE
  8
8
 10
37.8872
 20
31.2425
 11
37.8872
 21
24.2540
  0
LINE
  8
8
 10
44.4358
 20
31.2421
 11
44.4358
 21
23.4670
  0
LINE
  8
8
 10
45.6347
 20
27.6970
 11
45.6349
 21
29.0749
  0
LINE
  8
8
 10
45.6349
 20
29.0749
 11
46.5403
 21
29.0752
  0
LINE
  8
8
 10
46.5403
 20
29.0752
 11
46.5403
 21
27.6968
  0
LINE
  8
8
 10
46.5403
 20
27.6968
 11
45.6347
 21
27.6970
  0
POLYLINE
  8
8
 66
1
 70
0
  0
VERTEX
  8
8
 10
37.8373
 20
28.8309
  0
VERTEX
  8
8
 10
40.6524
 20
28.8308
  0
VERTEX
  8
8
 10
40.6522
 20
28.6307
  0
SEQEND
  8
8
  0
LINE
  8
6
 10
28.7733
 20
31.2426
 11
48.2776
 21
31.2417
  0
ENDBLK
  0
BLOCK
  8
0
  2
GLX0926S16SFR_32
 70
64
 10
0.0000
 20
0.0000
  0
TEXT
  8
1
 10
40.5078
 20
27.1573
 40
0.250
 50
0.0000
  1
Piece Name: GLX0926S16SFR
  7
STANDARD
  0
TEXT
  8
1
 10
40.5078
 20
27.2973
 40
0.250
 50
0.0000
  1
SIZE: 32
  7
STANDARD
  0
POLYLINE
  8
1
 66
1
 70
0
  0
VERTEX
  8
1
 10
48.3958
 20
31.3893
  0
VERTEX
  8
1
 10
48.3979
 20
31.2742
  0
VERTEX
  8
1
 10
48.4442
 20
30.5624
  0
VERTEX
  8
1
 10
48.7406
 20
29.3929
  0
VERTEX
  8
1
 10
49.1835
 20
28.7659
  0
VERTEX
  8
1
 10
50.1118
 20
28.1200
  0
VERTEX
  8
1
 10
51.7379
 20
27.6352
  0
VERTEX
  8
1
 10
52.1480
 20
27.5595
  0
VERTEX
  8
1
 10
52.4196
 20
27.5255
  0
SEQEND
  8
1
  0
POLYLINE
  8
1
 66
1
 70
0
  0
VERTEX
  8
1
 10
52.4196
 20
27.5255
  0
VERTEX
  8
1
 10
51.6581
 20
25.7677
  0
SEQEND
  8
1
  0
POLYLINE
  8
1
 66
1
 70
0
  0
VERTEX
  8
1
 10
51.6581
 20
25.7677
  0
VERTEX
  8
1
 10
51.0397
 20
25.8674
  0
VERTEX
  8
1
 10
49.6403
 20
26.0657
  0
VERTEX
  8
1
 10
48.0502
 20
26.1035
  0
VERTEX
  8
1
 10
47.1639
 20
25.9956
  0
VERTEX
  8
1
 10
46.0956
 20
25.4604
  0
VERTEX
  8
1
 10
45.5896
 20
24.8219
  0
VERTEX
  8
1
 10
45.3445
 20
24.1271
  0
VERTEX
  8
1
 10
45.2971
 20
23.7181
  0
VERTEX
  8
1
 10
45.2401
 20
23.3196
  0
SEQEND
  8
1
  0
POLYLINE
  8
1
 66
1
 70
0
  0
VERTEX
  8
1
 10
45.2401
 20
23.3196
  0
VERTEX
  8
1
 10
44.4527
 20
23.3177
  0
VERTEX
  8
1
 10
37.8478
 20
24.1063
  0
SEQEND
  8
1
  0
POLYLINE
  8
1
 66
1
 70
0
  0
VERTEX
  8
1
 10
37.8478
 20
24.1063
  0
VERTEX
  8
1
 10
34.5759
 20
23.5110
  0
VERTEX
  8
1
 10
31.2650
 20
23.0755
  0
VERTEX
  8
1
 10
29.3838
 20
22.9244
  0
SEQEND
  8
1
  0
POLYLINE
  8
1
 66
1
 70
0
  0
VERTEX
  8
1
 10
29.3838
 20
22.9244
  0
VERTEX
  8
1
 10
29.3580
 20
23.1102
  0
VERTEX
  8
1
 10
28.5961
 20
30.0890
  0
VERTEX
  8
1
 10
28.5961
 20
31.3903
  0
SEQEND
  8
1
  0
POLYLINE
  8
1
 66
1
 70
0
  0
VERTEX
  8
1
 10
28.5961
 20
31.3903
  0
VERTEX
  8
1
 10
48.3958
 20
31.3893
  0
SEQEND
  8
1
  0
LINE
  8
7
 10
34.3392
 20
26.8625
 11
46.6132
 21
26.8625
  0
LINE
  8
5
 10
34.3392
 20
26.8625
 11
46.6132
 21
26.8625
  0
LINE
  8
8
 10
29.3828
 20
22.9252
 11
29.3829
 21
31.3903
  0
LINE
  8
8
 10
37.8478
 20
31.3901
 11
37.8478
 21
24.1063
  0
LINE
  8
8
 10
44.4556
 20
31.3897
 11
44.4555
 21
23.3194
  0
LINE
  8
8
 10
45.6151
 20
27.6477
 11
45.6152
 21
29.0256
  0
LINE
  8
8
 10
45.6152
 20
29.0256
 11
46.5207
 21
29.0259
  0
LINE
  8
8
 10
46.5207
 20
29.0259
 11
46.5207
 21
27.6475
  0
LINE
  8
8
 10
46.5207
 20
27.6475
 11
45.6151
 21
27.6477
  0
POLYLINE
  8
8
 66
1
 70
0
  0
VERTEX
  8
8
 10
37.8571
 20
28.9785
  0
VERTEX
  8
8
 10
40.6721
 20
28.9784
  0
VERTEX
  8
8
 10
40.6720
 20
28.7783
  0
SEQEND
  8
8
  0
LINE
  8
6
 10
28.5961
 20
31.3903
 11
48.3958
 21
31.3893
  0
ENDBLK
  0
BLOCK
  8
0
  2
GLX0926S16SFR_34
 70
64
 10
0.0000
 20
0.0000
  0
TEXT
  8
1
 10
40.5078
 20
27.1573
 40
0.250
 50
0.0000
  1
Piece Name: GLX0926S16SFR
  7
STANDARD
  0
TEXT
  8
1
 10
40.5078
 20
27.2973
 40
0.250
 50
0.0000
  1
SIZE: 34
  7
STANDARD
  0
POLYLINE
  8
1
 66
1
 70
0
  0
VERTEX
  8
1
 10
48.5139
 20
31.5369
  0
VERTEX
  8
1
 10
48.5160
 20
31.4218
  0
VERTEX
  8
1
 10
48.5630
 20
30.7033
  0
VERTEX
  8
1
 10
48.8627
 20
29.5228
  0
VERTEX
  8
1
 10
49.3252
 20
28.8793
  0
VERTEX
  8
1
 10
50.2890
 20
28.2204
  0
VERTEX
  8
1
 10
51.9157
 20
27.7515
  0
VERTEX
  8
1
 10
52.3255
 20
27.6797
  0
VERTEX
  8
1
 10
52.5968
 20
27.6483
  0
SEQEND
  8
1
  0
POLYLINE
  8
1
 66
1
 70
0
  0
VERTEX
  8
1
 10
52.5968
 20
27.6483
  0
VERTEX
  8
1
 10
51.8353
 20
25.8905
  0
SEQEND
  8
1
  0
POLYLINE
  8
1
 66
1
 70
0
  0
VERTEX
  8
1
 10
51.8353
 20
25.8905
  0
VERTEX
  8
1
 10
51.2098
 20
25.9854
  0
VERTEX
  8
1
 10
49.7944
 20
26.1727
  0
VERTEX
  8
1
 10
48.1880
 20
26.1960
  0
VERTEX
  8
1
 10
47.2512
 20
26.0681
  0
VERTEX
  8
1
 10
46.1283
 20
25.4850
  0
VERTEX
  8
1
 10
45.5940
 20
24.7815
  0
VERTEX
  8
1
 10
45.3439
 20
24.0228
  0
VERTEX
  8
1
 10
45.3016
 20
23.5783
  0
VERTEX
  8
1
 10
45.2612
 20
23.1719
  0
SEQEND
  8
1
  0
POLYLINE
  8
1
 66
1
 70
0
  0
VERTEX
  8
1
 10
45.2612
 20
23.1719
  0
VERTEX
  8
1
 10
44.4738
 20
23.1700
  0
VERTEX
  8
1
 10
37.8084
 20
23.9586
  0
SEQEND
  8
1
  0
POLYLINE
  8
1
 66
1
 70
0
  0
VERTEX
  8
1
 10
37.8084
 20
23.9586
  0
VERTEX
  8
1
 10
34.4829
 20
23.3611
  0
VERTEX
  8
1
 10
31.1182
 20
22.9260
  0
VERTEX
  8
1
 10
29.2066
 20
22.7767
  0
SEQEND
  8
1
  0
POLYLINE
  8
1
 66
1
 70
0
  0
VERTEX
  8
1
 10
29.2066
 20
22.7767
  0
VERTEX
  8
1
 10
29.1806
 20
22.9702
  0
VERTEX
  8
1
 10
28.4189
 20
30.2367
  0
VERTEX
  8
1
 10
28.4189
 20
31.5380
  0
SEQEND
  8
1
  0
POLYLINE
  8
1
 66
1
 70
0
  0
VERTEX
  8
1
 10
28.4189
 20
31.5380
  0
VERTEX
  8
1
 10
48.5139
 20
31.5369
  0
SEQEND
  8
1
  0
LINE
  8
7
 10
34.3589
 20
27.0101
 11
46.6329
 21
27.0101
  0
LINE
  8
5
 10
34.3589
 20
27.0101
 11
46.6329
 21
27.0101
  0
LINE
  8
8
 10
29.2056
 20
22.7775
 11
29.2057
 21
31.5380
  0
LINE
  8
8
 10
37.8084
 20
31.5377
 11
37.8084
 21
23.9586
  0
LINE
  8
8
 10
44.4753
 20
31.5373
 11
44.4752
 21
23.1718
  0
LINE
  8
8
 10
45.5954
 20
27.5984
 11
45.5955
 21
28.9763
  0
LINE
  8
8
 10
45.5955
 20
28.9763
 11
46.5010
 21
28.9766
  0
LINE
  8
8
 10
46.5010
 20
28.9766
 11
46.5010
 21
27.5982
  0
LINE
  8
8
 10
46.5010
 20
27.5982
 11
45.5954
 21
27.5984
  0
POLYLINE
  8
8
 66
1
 70
0
  0
VERTEX
  8
8
 10
37.8768
 20
29.1261
  0
VERTEX
  8
8
 10
40.6918
 20
29.1260
  0
VERTEX
  8
8
 10
40.6917
 20
28.9259
  0
SEQEND
  8
8
  0
LINE
  8
6
 10
28.4189
 20
31.5380
 11
48.5139
 21
31.5369
  0
ENDBLK
  0
BLOCK
  8
0
  2
GLX0926S16SFR_36
 70
64
 10
0.0000
 20
0.0000
  0
TEXT
  8
1
 10
40.5078
 20
27.1573
 40
0.250
 50
0.0000
  1
Piece Name: GLX0926S16SFR
  7
STANDARD
  0
TEXT
  8
1
 10
40.5078
 20
27.2973
 40
0.250
 50
0.0000
  1
Quantity: 1
  7
STANDARD
  0
TEXT
  8
1
 10
40.5078
 20
27.4373
 40
0.250
 50
0.0000
  1
ANNOTATION: 1X FABRIC
  7
STANDARD
  0
TEXT
  8
1
 10
40.5078
 20
27.5773
 40
0.250
 50
0.0000
  1
CATEGORY: FRONT
  7
STANDARD
  0
TEXT
  8
1
 10
40.5078
 20
27.7173
 40
0.250
 50
0.0000
  1
Fabric: 1
  7
STANDARD
  0
TEXT
  8
1
 10
40.5078
 20
27.8573
 40
0.250
 50
0.0000
  1
SIZE: 36
  7
STANDARD
  0
POLYLINE
  8
1
 66
1
 70
0
  0
VERTEX
  8
1
 10
48.6320
 20
31.6845
  0
VERTEX
  8
1
 10
48.6341
 20
31.5694
  0
VERTEX
  8
1
 10
48.6819
 20
30.8442
  0
VERTEX
  8
1
 10
48.9848
 20
29.6527
  0
VERTEX
  8
1
 10
49.4670
 20
28.9928
  0
VERTEX
  8
1
 10
50.4662
 20
28.3208
  0
VERTEX
  8
1
 10
52.0935
 20
27.8679
  0
VERTEX
  8
1
 10
52.5031
 20
27.8000
  0
VERTEX
  8
1
 10
52.7740
 20
27.7711
  0
SEQEND
  8
1
  0
POINT
  8
4
 10
48.6320
 20
31.6845
 30
0.1574
 39
0.0000
  0
POINT
  8
2
 10
48.6320
 20
31.6845
  0
TEXT
  8
2
 10
48.6320
 20
31.6845
 40
0.250
 50
0.0000
  1
# 1
  7
STANDARD
  0
POINT
  8
3
 10
48.6341
 20
31.5694
  0
TEXT
  8
3
 10
48.6341
 20
31.5694
 40
0.250
 50
0.0000
  1
# 1
  7
STANDARD
  0
POINT
  8
3
 10
48.6819
 20
30.8442
  0
POINT
  8
3
 10
48.9848
 20
29.6527
  0
TEXT
  8
3
 10
48.9848
 20
29.6527
 40
0.250
 50
0.0000
  1
# 2
  7
STANDARD
  0
POINT
  8
3
 10
49.4670
 20
28.9928
  0
POINT
  8
3
 10
50.4662
 20
28.3208
  0
TEXT
  8
3
 10
50.4662
 20
28.3208
 40
0.250
 50
0.0000
  1
# 3
  7
STANDARD
  0
POINT
  8
3
 10
52.0935
 20
27.8679
  0
POINT
  8
3
 10
52.5031
 20
27.8000
  0
POINT
  8
2
 10
52.7740
 20
27.7711
  0
TEXT
  8
2
 10
52.7740
 20
27.7711
 40
0.250
 50
0.0000
  1
# 4
  7
STANDARD
  0
POLYLINE
  8
1
 66
1
 70
0
  0
VERTEX
  8
1
 10
52.7740
 20
27.7711
  0
VERTEX
  8
1
 10
52.0125
 20
26.0133
  0
SEQEND
  8
1
  0
POINT
  8
2
 10
52.7740
 20
27.7711
  0
TEXT
  8
2
 10
52.7740
 20
27.7711
 40
0.250
 50
0.0000
  1
# 4
  7
STANDARD
  0
POINT
  8
2
 10
52.0125
 20
26.0133
  0
TEXT
  8
2
 10
52.0125
 20
26.0133
 40
0.250
 50
0.0000
  1
# 5
  7
STANDARD
  0
POLYLINE
  8
1
 66
1
 70
0
  0
VERTEX
  8
1
 10
52.0125
 20
26.0133
  0
VERTEX
  8
1
 10
51.3799
 20
26.1035
  0
VERTEX
  8
1
 10
49.9486
 20
26.2797
  0
VERTEX
  8
1
 10
48.3258
 20
26.2885
  0
VERTEX
  8
1
 10
47.3713
 20
26.1410
  0
VERTEX
  8
1
 10
46.2348
 20
25.5251
  0
VERTEX
  8
1
 10
45.6475
 20
24.7843
  0
VERTEX
  8
1
 10
45.3630
 20
23.9780
  0
VERTEX
  8
1
 10
45.3078
 20
23.5033
  0
VERTEX
  8
1
 10
45.2823
 20
23.0242
  0
SEQEND
  8
1
  0
POINT
  8
2
 10
52.0125
 20
26.0133
  0
TEXT
  8
2
 10
52.0125
 20
26.0133
 40
0.250
 50
0.0000
  1
# 5
  7
STANDARD
  0
POINT
  8
3
 10
51.3799
 20
26.1035
  0
POINT
  8
3
 10
49.9486
 20
26.2797
  0
POINT
  8
3
 10
48.3258
 20
26.2885
  0
TEXT
  8
3
 10
48.3258
 20
26.2885
 40
0.250
 50
0.0000
  1
# 673
  7
STANDARD
  0
POINT
  8
3
 10
47.3713
 20
26.1410
  0
POINT
  8
3
 10
46.2348
 20
25.5251
  0
TEXT
  8
3
 10
46.2348
 20
25.5251
 40
0.250
 50
0.0000
  1
# 403
  7
STANDARD
  0
POINT
  8
3
 10
45.6475
 20
24.7843
  0
POINT
  8
3
 10
45.3630
 20
23.9780
  0
POINT
  8
3
 10
45.3078
 20
23.5033
  0
TEXT
  8
3
 10
45.3078
 20
23.5033
 40
0.250
 50
0.0000
  1
# 6
  7
STANDARD
  0
POINT
  8
2
 10
45.2823
 20
23.0242
  0
TEXT
  8
2
 10
45.2823
 20
23.0242
 40
0.250
 50
0.0000
  1
# 7
  7
STANDARD
  0
POLYLINE
  8
1
 66
1
 70
0
  0
VERTEX
  8
1
 10
45.2823
 20
23.0242
  0
VERTEX
  8
1
 10
44.4949
 20
23.0223
  0
VERTEX
  8
1
 10
37.7690
 20
23.8109
  0
SEQEND
  8
1
  0
POINT
  8
2
 10
45.2823
 20
23.0242
  0
TEXT
  8
2
 10
45.2823
 20
23.0242
 40
0.250
 50
0.0000
  1
# 7
  7
STANDARD
  0
POINT
  8
2
 10
44.4949
 20
23.0223
  0
TEXT
  8
2
 10
44.4949
 20
23.0223
 40
0.250
 50
0.0000
  1
# 7
  7
STANDARD
  0
POINT
  8
4
 10
37.7690
 20
23.8109
 30
0.1574
 39
0.0000
  0
POINT
  8
2
 10
37.7690
 20
23.8109
  0
TEXT
  8
2
 10
37.7690
 20
23.8109
 40
0.250
 50
0.0000
  1
# 8
  7
STANDARD
  0
POLYLINE
  8
1
 66
1
 70
0
  0
VERTEX
  8
1
 10
37.7690
 20
23.8109
  0
VERTEX
  8
1
 10
34.3900
 20
23.2112
  0
VERTEX
  8
1
 10
30.9714
 20
22.7766
  0
VERTEX
  8
1
 10
29.0294
 20
22.6290
  0
SEQEND
  8
1
  0
POINT
  8
4
 10
37.7690
 20
23.8109
 30
0.1574
 39
0.0000
  0
POINT
  8
2
 10
37.7690
 20
23.8109
  0
TEXT
  8
2
 10
37.7690
 20
23.8109
 40
0.250
 50
0.0000
  1
# 8
  7
STANDARD
  0
POINT
  8
3
 10
34.3900
 20
23.2112
  0
POINT
  8
3
 10
30.9714
 20
22.7766
  0
POINT
  8
2
 10
29.0294
 20
22.6290
  0
TEXT
  8
2
 10
29.0294
 20
22.6290
 40
0.250
 50
0.0000
  1
# 9
  7
STANDARD
  0
POLYLINE
  8
1
 66
1
 70
0
  0
VERTEX
  8
1
 10
29.0294
 20
22.6290
  0
VERTEX
  8
1
 10
29.0032
 20
22.8302
  0
VERTEX
  8
1
 10
28.2417
 20
30.3844
  0
VERTEX
  8
1
 10
28.2417
 20
31.6857
  0
SEQEND
  8
1
  0
POINT
  8
2
 10
29.0294
 20
22.6290
  0
TEXT
  8
2
 10
29.0294
 20
22.6290
 40
0.250
 50
0.0000
  1
# 9
  7
STANDARD
  0
POINT
  8
3
 10
29.0032
 20
22.8302
  0
POINT
  8
3
 10
28.2417
 20
30.3844
  0
TEXT
  8
3
 10
28.2417
 20
30.3844
 40
0.250
 50
0.0000
  1
# 10
  7
STANDARD
  0
POINT
  8
4
 10
28.2417
 20
31.6857
 30
0.1574
 39
0.0000
  0
POINT
  8
2
 10
28.2417
 20
31.6857
  0
TEXT
  8
2
 10
28.2417
 20
31.6857
 40
0.250
 50
0.0000
  1
# 10
  7
STANDARD
  0
POLYLINE
  8
1
 66
1
 70
0
  0
VERTEX
  8
1
 10
28.2417
 20
31.6857
  0
VERTEX
  8
1
 10
48.6320
 20
31.6845
  0
SEQEND
  8
1
  0
POINT
  8
4
 10
28.2417
 20
31.6857
 30
0.1574
 39
0.0000
  0
POINT
  8
2
 10
28.2417
 20
31.6857
  0
TEXT
  8
2
 10
28.2417
 20
31.6857
 40
0.250
 50
0.0000
  1
# 10
  7
STANDARD
  0
LINE
  8
7
 10
34.3786
 20
27.1577
 11
46.6526
 21
27.1577
  0
LINE
  8
5
 10
34.3786
 20
27.1577
 11
46.6526
 21
27.1577
  0
POINT
  8
2
 10
34.3786
 20
27.1577
  0
POINT
  8
2
 10
46.6526
 20
27.1577
  0
LINE
  8
8
 10
29.0284
 20
22.6298
 11
29.0285
 21
31.6857
  0
TEXT
  8
8
 10
29.0284
 20
22.6298
 40
0.250
 50
0.0000
  1
O
  7
STANDARD
  0
POINT
  8
2
 10
29.0284
 20
22.6298
  0
TEXT
  8
2
 10
29.0284
 20
22.6298
 40
0.250
 50
0.0000
  1
# 9
  7
STANDARD
  0
POINT
  8
2
 10
29.0285
 20
31.6857
  0
TEXT
  8
2
 10
29.0285
 20
31.6857
 40
0.250
 50
0.0000
  1
# 10
  7
STANDARD
  0
LINE
  8
8
 10
37.7690
 20
31.6853
 11
37.7690
 21
23.8109
  0
TEXT
  8
8
 10
37.7690
 20
31.6853
 40
0.250
 50
0.0000
  1
O
  7
STANDARD
  0
POINT
  8
2
 10
37.7690
 20
31.6853
  0
TEXT
  8
2
 10
37.7690
 20
31.6853
 40
0.250
 50
0.0000
  1
# 11
  7
STANDARD
  0
POINT
  8
2
 10
37.7690
 20
23.8109
  0
TEXT
  8
2
 10
37.7690
 20
23.8109
 40
0.250
 50
0.0000
  1
# 8
  7
STANDARD
  0
LINE
  8
8
 10
44.4950
 20
31.6849
 11
44.4949
 21
23.0242
  0
TEXT
  8
8
 10
44.4950
 20
31.6849
 40
0.250
 50
0.0000
  1
O
  7
STANDARD
  0
POINT
  8
2
 10
44.4950
 20
31.6849
  0
TEXT
  8
2
 10
44.4950
 20
31.6849
 40
0.250
 50
0.0000
  1
# 0
  7
STANDARD
  0
POINT
  8
2
 10
44.4949
 20
23.0242
  0
TEXT
  8
2
 10
44.4949
 20
23.0242
 40
0.250
 50
0.0000
  1
# 12
  7
STANDARD
  0
LINE
  8
8
 10
45.5757
 20
27.5491
 11
45.5758
 21
28.9270
  0
TEXT
  8
8
 10
45.5757
 20
27.5491
 40
0.250
 50
0.0000
  1
NM
  7
STANDARD
  0
POINT
  8
2
 10
45.5757
 20
27.5491
  0
TEXT
  8
2
 10
45.5757
 20
27.5491
 40
0.250
 50
0.0000
  1
# 13
  7
STANDARD
  0
POINT
  8
2
 10
45.5758
 20
28.9270
  0
TEXT
  8
2
 10
45.5758
 20
28.9270
 40
0.250
 50
0.0000
  1
# 13
  7
STANDARD
  0
LINE
  8
8
 10
45.5758
 20
28.9270
 11
46.4813
 21
28.9273
  0
TEXT
  8
8
 10
45.5758
 20
28.9270
 40
0.250
 50
0.0000
  1
NM
  7
STANDARD
  0
POINT
  8
2
 10
45.5758
 20
28.9270
  0
TEXT
  8
2
 10
45.5758
 20
28.9270
 40
0.250
 50
0.0000
  1
# 13
  7
STANDARD
  0
POINT
  8
2
 10
46.4813
 20
28.9273
  0
TEXT
  8
2
 10
46.4813
 20
28.9273
 40
0.250
 50
0.0000
  1
# 13
  7
STANDARD
  0
LINE
  8
8
 10
46.4813
 20
28.9273
 11
46.4813
 21
27.5489
  0
TEXT
  8
8
 10
46.4813
 20
28.9273
 40
0.250
 50
0.0000
  1
NM
  7
STANDARD
  0
POINT
  8
2
 10
46.4813
 20
28.9273
  0
TEXT
  8
2
 10
46.4813
 20
28.9273
 40
0.250
 50
0.0000
  1
# 13
  7
STANDARD
  0
POINT
  8
2
 10
46.4813
 20
27.5489
  0
TEXT
  8
2
 10
46.4813
 20
27.5489
 40
0.250
 50
0.0000
  1
# 13
  7
STANDARD
  0
LINE
  8
8
 10
46.4813
 20
27.5489
 11
45.5757
 21
27.5491
  0
TEXT
  8
8
 10
46.4813
 20
27.5489
 40
0.250
 50
0.0000
  1
NM
  7
STANDARD
  0
POINT
  8
2
 10
46.4813
 20
27.5489
  0
TEXT
  8
2
 10
46.4813
 20
27.5489
 40
0.250
 50
0.0000
  1
# 13
  7
STANDARD
  0
POINT
  8
2
 10
45.5757
 20
27.5491
  0
TEXT
  8
2
 10
45.5757
 20
27.5491
 40
0.250
 50
0.0000
  1
# 13
  7
STANDARD
  0
POLYLINE
  8
8
 66
1
 70
0
  0
VERTEX
  8
8
 10
37.8965
 20
29.2737
  0
VERTEX
  8
8
 10
40.7115
 20
29.2736
  0
VERTEX
  8
8
 10
40.7114
 20
29.0735
  0
SEQEND
  8
8
  0
TEXT
  8
8
 10
37.8965
 20
29.2737
 40
0.250
 50
0.0000
  1
B
  7
STANDARD
  0
POINT
  8
2
 10
37.8965
 20
29.2737
  0
POINT
  8
2
 10
40.7115
 20
29.2736
  0
POINT
  8
2
 10
40.7114
 20
29.0735
  0
LINE
  8
6
 10
28.2417
 20
31.6857
 11
48.6320
 21
31.6845
  0
ENDBLK
  0
BLOCK
  8
0
  2
GLX0926S16SFR_38
 70
64
 10
0.0000
 20
0.0000
  0
TEXT
  8
1
 10
40.5078
 20
27.1573
 40
0.250
 50
0.0000
  1
Piece Name: GLX0926S16SFR
  7
STANDARD
  0
TEXT
  8
1
 10
40.5078
 20
27.2973
 40
0.250
 50
0.0000
  1
SIZE: 38
  7
STANDARD
  0
POLYLINE
  8
1
 66
1
 70
0
  0
VERTEX
  8
1
 10
48.7501
 20
31.8321
  0
VERTEX
  8
1
 10
48.7522
 20
31.7170
  0
VERTEX
  8
1
 10
48.8007
 20
30.9850
  0
VERTEX
  8
1
 10
49.1069
 20
29.7826
  0
VERTEX
  8
1
 10
49.6106
 20
29.1151
  0
VERTEX
  8
1
 10
50.6434
 20
28.4436
  0
VERTEX
  8
1
 10
52.2707
 20
27.9907
  0
VERTEX
  8
1
 10
52.6803
 20
27.9228
  0
VERTEX
  8
1
 10
52.9512
 20
27.8939
  0
SEQEND
  8
1
  0
POLYLINE
  8
1
 66
1
 70
0
  0
VERTEX
  8
1
 10
52.9512
 20
27.8939
  0
VERTEX
  8
1
 10
52.1897
 20
26.1361
  0
SEQEND
  8
1
  0
POLYLINE
  8
1
 66
1
 70
0
  0
VERTEX
  8
1
 10
52.1897
 20
26.1361
  0
VERTEX
  8
1
 10
51.5403
 20
26.2146
  0
VERTEX
  8
1
 10
50.0717
 20
26.3638
  0
VERTEX
  8
1
 10
48.4108
 20
26.3375
  0
VERTEX
  8
1
 10
47.4300
 20
26.1660
  0
VERTEX
  8
1
 10
46.2713
 20
25.5083
  0
VERTEX
  8
1
 10
45.6718
 20
24.7287
  0
VERTEX
  8
1
 10
45.3882
 20
23.8857
  0
VERTEX
  8
1
 10
45.3381
 20
23.3913
  0
VERTEX
  8
1
 10
45.3034
 20
22.8764
  0
SEQEND
  8
1
  0
POLYLINE
  8
1
 66
1
 70
0
  0
VERTEX
  8
1
 10
45.3034
 20
22.8764
  0
VERTEX
  8
1
 10
44.5160
 20
22.8746
  0
VERTEX
  8
1
 10
37.7296
 20
23.6631
  0
SEQEND
  8
1
  0
POLYLINE
  8
1
 66
1
 70
0
  0
VERTEX
  8
1
 10
37.7296
 20
23.6631
  0
VERTEX
  8
1
 10
34.2970
 20
23.0611
  0
VERTEX
  8
1
 10
30.8245
 20
22.6271
  0
VERTEX
  8
1
 10
28.8522
 20
22.4813
  0
SEQEND
  8
1
  0
POLYLINE
  8
1
 66
1
 70
0
  0
VERTEX
  8
1
 10
28.8522
 20
22.4813
  0
VERTEX
  8
1
 10
28.8257
 20
22.6901
  0
VERTEX
  8
1
 10
28.0645
 20
30.5321
  0
VERTEX
  8
1
 10
28.0645
 20
31.8334
  0
SEQEND
  8
1
  0
POLYLINE
  8
1
 66
1
 70
0
  0
VERTEX
  8
1
 10
28.0645
 20
31.8334
  0
VERTEX
  8
1
 10
48.7501
 20
31.8321
  0
SEQEND
  8
1
  0
LINE
  8
7
 10
34.3983
 20
27.3053
 11
46.6723
 21
27.3053
  0
LINE
  8
5
 10
34.3983
 20
27.3053
 11
46.6723
 21
27.3053
  0
LINE
  8
8
 10
28.8512
 20
22.4820
 11
28.8513
 21
31.8334
  0
LINE
  8
8
 10
37.7296
 20
31.8329
 11
37.7296
 21
23.6631
  0
LINE
  8
8
 10
44.5147
 20
31.8325
 11
44.5146
 21
22.8765
  0
LINE
  8
8
 10
45.5560
 20
27.4998
 11
45.5561
 21
28.8777
  0
LINE
  8
8
 10
45.5561
 20
28.8777
 11
46.4616
 21
28.8780
  0
LINE
  8
8
 10
46.4616
 20
28.8780
 11
46.4616
 21
27.4996
  0
LINE
  8
8
 10
46.4616
 20
27.4996
 11
45.5560
 21
27.4998
  0
POLYLINE
  8
8
 66
1
 70
0
  0
VERTEX
  8
8
 10
37.9162
 20
29.4213
  0
VERTEX
  8
8
 10
40.7312
 20
29.4212
  0
VERTEX
  8
8
 10
40.7311
 20
29.2211
  0
SEQEND
  8
8
  0
LINE
  8
6
 10
28.0645
 20
31.8334
 11
48.7501
 21
31.8321
  0
ENDBLK
  0
BLOCK
  8
0
  2
GLX0926S16SFR_40
 70
64
 10
0.0000
 20
0.0000
  0
TEXT
  8
1
 10
40.5078
 20
27.1573
 40
0.250
 50
0.0000
  1
Piece Name: GLX0926S16SFR
  7
STANDARD
  0
TEXT
  8
1
 10
40.5078
 20
27.2973
 40
0.250
 50
0.0000
  1
SIZE: 40
  7
STANDARD
  0
POLYLINE
  8
1
 66
1
 70
0
  0
VERTEX
  8
1
 10
48.8682
 20
31.9797
  0
VERTEX
  8
1
 10
48.8703
 20
31.8646
  0
VERTEX
  8
1
 10
48.9195
 20
31.1259
  0
VERTEX
  8
1
 10
49.2290
 20
29.9125
  0
VERTEX
  8
1
 10
49.7542
 20
29.2375
  0
VERTEX
  8
1
 10
50.8206
 20
28.5664
  0
VERTEX
  8
1
 10
52.4479
 20
28.1135
  0
VERTEX
  8
1
 10
52.8575
 20
28.0456
  0
VERTEX
  8
1
 10
53.1284
 20
28.0167
  0
SEQEND
  8
1
  0
POLYLINE
  8
1
 66
1
 70
0
  0
VERTEX
  8
1
 10
53.1284
 20
28.0167
  0
VERTEX
  8
1
 10
52.3669
 20
26.2589
  0
SEQEND
  8
1
  0
POLYLINE
  8
1
 66
1
 70
0
  0
VERTEX
  8
1
 10
52.3669
 20
26.2589
  0
VERTEX
  8
1
 10
51.6997
 20
26.3272
  0
VERTEX
  8
1
 10
50.1915
 20
26.4527
  0
VERTEX
  8
1
 10
48.4895
 20
26.3947
  0
VERTEX
  8
1
 10
47.4972
 20
26.2038
  0
VERTEX
  8
1
 10
46.3327
 20
25.5162
  0
VERTEX
  8
1
 10
45.6963
 20
24.6732
  0
VERTEX
  8
1
 10
45.3999
 20
23.7650
  0
VERTEX
  8
1
 10
45.3509
 20
23.2334
  0
VERTEX
  8
1
 10
45.3245
 20
22.7288
  0
SEQEND
  8
1
  0
POLYLINE
  8
1
 66
1
 70
0
  0
VERTEX
  8
1
 10
45.3245
 20
22.7288
  0
VERTEX
  8
1
 10
44.5371
 20
22.7269
  0
VERTEX
  8
1
 10
37.6902
 20
23.5155
  0
SEQEND
  8
1
  0
POLYLINE
  8
1
 66
1
 70
0
  0
VERTEX
  8
1
 10
37.6902
 20
23.5155
  0
VERTEX
  8
1
 10
34.2040
 20
22.9113
  0
VERTEX
  8
1
 10
30.6777
 20
22.4776
  0
VERTEX
  8
1
 10
28.6750
 20
22.3336
  0
SEQEND
  8
1
  0
POLYLINE
  8
1
 66
1
 70
0
  0
VERTEX
  8
1
 10
28.6750
 20
22.3336
  0
VERTEX
  8
1
 10
28.6483
 20
22.5501
  0
VERTEX
  8
1
 10
27.8873
 20
30.6798
  0
VERTEX
  8
1
 10
27.8873
 20
31.9811
  0
SEQEND
  8
1
  0
POLYLINE
  8
1
 66
1
 70
0
  0
VERTEX
  8
1
 10
27.8873
 20
31.9811
  0
VERTEX
  8
1
 10
48.8682
 20
31.9797
  0
SEQEND
  8
1
  0
LINE
  8
7
 10
34.4180
 20
27.4529
 11
46.6920
 21
27.4529
  0
LINE
  8
5
 10
34.4180
 20
27.4529
 11
46.6920
 21
27.4529
  0
LINE
  8
8
 10
28.6740
 20
22.3344
 11
28.6741
 21
31.9811
  0
LINE
  8
8
 10
37.6902
 20
31.9805
 11
37.6902
 21
23.5155
  0
LINE
  8
8
 10
44.5344
 20
31.9801
 11
44.5343
 21
22.7290
  0
LINE
  8
8
 10
45.5363
 20
27.4505
 11
45.5364
 21
28.8284
  0
LINE
  8
8
 10
45.5364
 20
28.8284
 11
46.4419
 21
28.8287
  0
LINE
  8
8
 10
46.4419
 20
28.8287
 11
46.4419
 21
27.4503
  0
LINE
  8
8
 10
46.4419
 20
27.4503
 11
45.5363
 21
27.4505
  0
POLYLINE
  8
8
 66
1
 70
0
  0
VERTEX
  8
8
 10
37.9359
 20
29.5689
  0
VERTEX
  8
8
 10
40.7509
 20
29.5688
  0
VERTEX
  8
8
 10
40.7508
 20
29.3687
  0
SEQEND
  8
8
  0
LINE
  8
6
 10
27.8873
 20
31.9811
 11
48.8682
 21
31.9797
  0
ENDBLK
  0
BLOCK
  8
0
  2
GLX0926S16SFR_42
 70
64
 10
0.0000
 20
0.0000
  0
TEXT
  8
1
 10
40.5078
 20
27.1573
 40
0.250
 50
0.0000
  1
Piece Name: GLX0926S16SFR
  7
STANDARD
  0
TEXT
  8
1
 10
40.5078
 20
27.2973
 40
0.250
 50
0.0000
  1
SIZE: 42
  7
STANDARD
  0
POLYLINE
  8
1
 66
1
 70
0
  0
VERTEX
  8
1
 10
48.9863
 20
32.1518
  0
VERTEX
  8
1
 10
48.9884
 20
32.0368
  0
VERTEX
  8
1
 10
49.0383
 20
31.2914
  0
VERTEX
  8
1
 10
49.3511
 20
30.0670
  0
VERTEX
  8
1
 10
49.8978
 20
29.3845
  0
VERTEX
  8
1
 10
50.9978
 20
28.7138
  0
VERTEX
  8
1
 10
52.6251
 20
28.2609
  0
VERTEX
  8
1
 10
53.0347
 20
28.1930
  0
VERTEX
  8
1
 10
53.3056
 20
28.1641
  0
SEQEND
  8
1
  0
POLYLINE
  8
1
 66
1
 70
0
  0
VERTEX
  8
1
 10
53.3056
 20
28.1641
  0
VERTEX
  8
1
 10
52.5441
 20
26.4063
  0
SEQEND
  8
1
  0
POLYLINE
  8
1
 66
1
 70
0
  0
VERTEX
  8
1
 10
52.5441
 20
26.4063
  0
VERTEX
  8
1
 10
51.8530
 20
26.4600
  0
VERTEX
  8
1
 10
50.2914
 20
26.5515
  0
VERTEX
  8
1
 10
48.5341
 20
26.4485
  0
VERTEX
  8
1
 10
47.5360
 20
26.2325
  0
VERTEX
  8
1
 10
46.3755
 20
25.5108
  0
VERTEX
  8
1
 10
45.7111
 20
24.6014
  0
VERTEX
  8
1
 10
45.4103
 20
23.6284
  0
VERTEX
  8
1
 10
45.3669
 20
23.0608
  0
VERTEX
  8
1
 10
45.3459
 20
22.5565
  0
SEQEND
  8
1
  0
POLYLINE
  8
1
 66
1
 70
0
  0
VERTEX
  8
1
 10
45.3459
 20
22.5565
  0
VERTEX
  8
1
 10
44.5585
 20
22.5546
  0
VERTEX
  8
1
 10
37.5721
 20
23.3432
  0
SEQEND
  8
1
  0
POLYLINE
  8
1
 66
1
 70
0
  0
VERTEX
  8
1
 10
37.5721
 20
23.3432
  0
VERTEX
  8
1
 10
34.0629
 20
22.7381
  0
VERTEX
  8
1
 10
30.5135
 20
22.3045
  0
VERTEX
  8
1
 10
28.4978
 20
22.1613
  0
SEQEND
  8
1
  0
POLYLINE
  8
1
 66
1
 70
0
  0
VERTEX
  8
1
 10
28.4978
 20
22.1613
  0
VERTEX
  8
1
 10
28.4709
 20
22.3868
  0
VERTEX
  8
1
 10
27.7101
 20
30.8521
  0
VERTEX
  8
1
 10
27.7101
 20
32.1534
  0
SEQEND
  8
1
  0
POLYLINE
  8
1
 66
1
 70
0
  0
VERTEX
  8
1
 10
27.7101
 20
32.1534
  0
VERTEX
  8
1
 10
48.9863
 20
32.1518
  0
SEQEND
  8
1
  0
LINE
  8
7
 10
34.4377
 20
27.6251
 11
46.7117
 21
27.6251
  0
LINE
  8
5
 10
34.4377
 20
27.6251
 11
46.7117
 21
27.6251
  0
LINE
  8
8
 10
28.4968
 20
22.1621
 11
28.4969
 21
32.1534
  0
LINE
  8
8
 10
37.5721
 20
32.1527
 11
37.5721
 21
23.3432
  0
LINE
  8
8
 10
44.5541
 20
32.1522
 11
44.5540
 21
22.5568
  0
LINE
  8
8
 10
45.5166
 20
27.4258
 11
45.5167
 21
28.8037
  0
LINE
  8
8
 10
45.5167
 20
28.8037
 11
46.4222
 21
28.8040
  0
LINE
  8
8
 10
46.4222
 20
28.8040
 11
46.4222
 21
27.4256
  0
LINE
  8
8
 10
46.4222
 20
27.4256
 11
45.5166
 21
27.4258
  0
POLYLINE
  8
8
 66
1
 70
0
  0
VERTEX
  8
8
 10
37.9556
 20
29.7411
  0
VERTEX
  8
8
 10
40.7706
 20
29.7410
  0
VERTEX
  8
8
 10
40.7705
 20
29.5409
  0
SEQEND
  8
8
  0
LINE
  8
6
 10
27.7101
 20
32.1534
 11
48.9863
 21
32.1518
  0
ENDBLK
  0
BLOCK
  8
0
  2
GLX0926S16SFR_44
 70
64
 10
0.0000
 20
0.0000
  0
TEXT
  8
1
 10
40.5078
 20
27.1573
 40
0.250
 50
0.0000
  1
Piece Name: GLX0926S16SFR
  7
STANDARD
  0
TEXT
  8
1
 10
40.5078
 20
27.2973
 40
0.250
 50
0.0000
  1
SIZE: 44
  7
STANDARD
  0
POLYLINE
  8
1
 66
1
 70
0
  0
VERTEX
  8
1
 10
49.1043
 20
32.3241
  0
VERTEX
  8
1
 10
49.1064
 20
32.2090
  0
VERTEX
  8
1
 10
49.1571
 20
31.4568
  0
VERTEX
  8
1
 10
49.4731
 20
30.2215
  0
VERTEX
  8
1
 10
50.0413
 20
29.5315
  0
VERTEX
  8
1
 10
51.1750
 20
28.8612
  0
VERTEX
  8
1
 10
52.8022
 20
28.4083
  0
VERTEX
  8
1
 10
53.2119
 20
28.3404
  0
VERTEX
  8
1
 10
53.4828
 20
28.3115
  0
SEQEND
  8
1
  0
POLYLINE
  8
1
 66
1
 70
0
  0
VERTEX
  8
1
 10
53.4828
 20
28.3115
  0
VERTEX
  8
1
 10
52.7213
 20
26.5537
  0
SEQEND
  8
1
  0
POLYLINE
  8
1
 66
1
 70
0
  0
VERTEX
  8
1
 10
52.7213
 20
26.5537
  0
VERTEX
  8
1
 10
52.0009
 20
26.5953
  0
VERTEX
  8
1
 10
50.3740
 20
26.6582
  0
VERTEX
  8
1
 10
48.5476
 20
26.5147
  0
VERTEX
  8
1
 10
47.5589
 20
26.2606
  0
VERTEX
  8
1
 10
46.4275
 20
25.4952
  0
VERTEX
  8
1
 10
45.7350
 20
24.5291
  0
VERTEX
  8
1
 10
45.4270
 20
23.4993
  0
VERTEX
  8
1
 10
45.3866
 20
22.8999
  0
VERTEX
  8
1
 10
45.3673
 20
22.3842
  0
SEQEND
  8
1
  0
POLYLINE
  8
1
 66
1
 70
0
  0
VERTEX
  8
1
 10
45.3673
 20
22.3842
  0
VERTEX
  8
1
 10
44.5799
 20
22.3823
  0
VERTEX
  8
1
 10
37.4540
 20
23.1709
  0
SEQEND
  8
1
  0
POLYLINE
  8
1
 66
1
 70
0
  0
VERTEX
  8
1
 10
37.4540
 20
23.1709
  0
VERTEX
  8
1
 10
33.9217
 20
22.5648
  0
VERTEX
  8
1
 10
30.3493
 20
22.1315
  0
VERTEX
  8
1
 10
28.3206
 20
21.9890
  0
SEQEND
  8
1
  0
POLYLINE
  8
1
 66
1
 70
0
  0
VERTEX
  8
1
 10
28.3206
 20
21.9890
  0
VERTEX
  8
1
 10
28.2933
 20
22.2235
  0
VERTEX
  8
1
 10
27.5328
 20
31.0244
  0
VERTEX
  8
1
 10
27.5328
 20
32.3257
  0
SEQEND
  8
1
  0
POLYLINE
  8
1
 66
1
 70
0
  0
VERTEX
  8
1
 10
27.5328
 20
32.3257
  0
VERTEX
  8
1
 10
49.1043
 20
32.3241
  0
SEQEND
  8
1
  0
LINE
  8
7
 10
34.4574
 20
27.7973
 11
46.7314
 21
27.7973
  0
LINE
  8
5
 10
34.4574
 20
27.7973
 11
46.7314
 21
27.7973
  0
LINE
  8
8
 10
28.3195
 20
21.9898
 11
28.3196
 21
32.3257
  0
LINE
  8
8
 10
37.4540
 20
32.3249
 11
37.4540
 21
23.1709
  0
LINE
  8
8
 10
44.5737
 20
32.3245
 11
44.5737
 21
22.3846
  0
LINE
  8
8
 10
45.4968
 20
27.4011
 11
45.4970
 21
28.7790
  0
LINE
  8
8
 10
45.4970
 20
28.7790
 11
46.4024
 21
28.7793
  0
LINE
  8
8
 10
46.4024
 20
28.7793
 11
46.4024
 21
27.4009
  0
LINE
  8
8
 10
46.4024
 20
27.4009
 11
45.4968
 21
27.4011
  0
POLYLINE
  8
8
 66
1
 70
0
  0
VERTEX
  8
8
 10
37.9752
 20
29.9133
  0
VERTEX
  8
8
 10
40.7903
 20
29.9132
  0
VERTEX
  8
8
 10
40.7901
 20
29.7131
  0
SEQEND
  8
8
  0
LINE
  8
6
 10
27.5328
 20
32.3257
 11
49.1043
 21
32.3241
  0
ENDBLK
  0
BLOCK
  8
0
  2
GLX0926S16SFR_46
 70
64
 10
0.0000
 20
0.0000
  0
TEXT
  8
1
 10
40.5078
 20
27.1573
 40
0.250
 50
0.0000
  1
Piece Name: GLX0926S16SFR
  7
STANDARD
  0
TEXT
  8
1
 10
40.5078
 20
27.2973
 40
0.250
 50
0.0000
  1
SIZE: 46
  7
STANDARD
  0
POLYLINE
  8
1
 66
1
 70
0
  0
VERTEX
  8
1
 10
49.2224
 20
32.5208
  0
VERTEX
  8
1
 10
49.2245
 20
32.4058
  0
VERTEX
  8
1
 10
49.2759
 20
31.6469
  0
VERTEX
  8
1
 10
49.5953
 20
30.4006
  0
VERTEX
  8
1
 10
50.1850
 20
29.7031
  0
VERTEX
  8
1
 10
51.3522
 20
29.0332
  0
VERTEX
  8
1
 10
52.9794
 20
28.5803
  0
VERTEX
  8
1
 10
53.3891
 20
28.5124
  0
VERTEX
  8
1
 10
53.6600
 20
28.4835
  0
SEQEND
  8
1
  0
POLYLINE
  8
1
 66
1
 70
0
  0
VERTEX
  8
1
 10
53.6600
 20
28.4835
  0
VERTEX
  8
1
 10
52.8985
 20
26.5288
  0
SEQEND
  8
1
  0
POLYLINE
  8
1
 66
1
 70
0
  0
VERTEX
  8
1
 10
52.8985
 20
26.5288
  0
VERTEX
  8
1
 10
52.1511
 20
26.5735
  0
VERTEX
  8
1
 10
50.4632
 20
26.6422
  0
VERTEX
  8
1
 10
48.5679
 20
26.4972
  0
VERTEX
  8
1
 10
47.5922
 20
26.2379
  0
VERTEX
  8
1
 10
46.4797
 20
25.4718
  0
VERTEX
  8
1
 10
45.7567
 20
24.4395
  0
VERTEX
  8
1
 10
45.4420
 20
23.3441
  0
VERTEX
  8
1
 10
45.4063
 20
22.7081
  0
VERTEX
  8
1
 10
45.3889
 20
22.1873
  0
SEQEND
  8
1
  0
POLYLINE
  8
1
 66
1
 70
0
  0
VERTEX
  8
1
 10
45.3889
 20
22.1873
  0
VERTEX
  8
1
 10
44.6015
 20
22.1854
  0
VERTEX
  8
1
 10
37.3359
 20
22.9248
  0
SEQEND
  8
1
  0
POLYLINE
  8
1
 66
1
 70
0
  0
VERTEX
  8
1
 10
37.3359
 20
22.9248
  0
VERTEX
  8
1
 10
33.7800
 20
22.3368
  0
VERTEX
  8
1
 10
30.1845
 20
21.9229
  0
VERTEX
  8
1
 10
28.1434
 20
21.7921
  0
SEQEND
  8
1
  0
POLYLINE
  8
1
 66
1
 70
0
  0
VERTEX
  8
1
 10
28.1434
 20
21.7921
  0
VERTEX
  8
1
 10
28.1158
 20
22.0367
  0
VERTEX
  8
1
 10
27.3557
 20
31.2213
  0
VERTEX
  8
1
 10
27.3557
 20
32.5226
  0
SEQEND
  8
1
  0
POLYLINE
  8
1
 66
1
 70
0
  0
VERTEX
  8
1
 10
27.3557
 20
32.5226
  0
VERTEX
  8
1
 10
49.2224
 20
32.5208
  0
SEQEND
  8
1
  0
LINE
  8
7
 10
34.4771
 20
27.9941
 11
46.7511
 21
27.9941
  0
LINE
  8
5
 10
34.4771
 20
27.9941
 11
46.7511
 21
27.9941
  0
LINE
  8
8
 10
28.1423
 20
21.7928
 11
28.1424
 21
32.5226
  0
LINE
  8
8
 10
37.3359
 20
32.5217
 11
37.3359
 21
22.9248
  0
LINE
  8
8
 10
44.5935
 20
32.5212
 11
44.5934
 21
22.1877
  0
LINE
  8
8
 10
45.4771
 20
27.4010
 11
45.4773
 21
28.7789
  0
LINE
  8
8
 10
45.4773
 20
28.7789
 11
46.3827
 21
28.7792
  0
LINE
  8
8
 10
46.3827
 20
28.7792
 11
46.3827
 21
27.4008
  0
LINE
  8
8
 10
46.3827
 20
27.4008
 11
45.4771
 21
27.4010
  0
POLYLINE
  8
8
 66
1
 70
0
  0
VERTEX
  8
8
 10
37.9949
 20
30.1101
  0
VERTEX
  8
8
 10
40.8100
 20
30.1100
  0
VERTEX
  8
8
 10
40.8099
 20
29.9099
  0
SEQEND
  8
8
  0
LINE
  8
6
 10
27.3557
 20
32.5226
 11
49.2224
 21
32.5208
  0
ENDBLK
  0
BLOCK
  8
0
  2
GLX0926S16SFR_48
 70
64
 10
0.0000
 20
0.0000
  0
TEXT
  8
1
 10
40.5078
 20
27.1573
 40
0.250
 50
0.0000
  1
Piece Name: GLX0926S16SFR
  7
STANDARD
  0
TEXT
  8
1
 10
40.5078
 20
27.2973
 40
0.250
 50
0.0000
  1
SIZE: 48
  7
STANDARD
  0
POLYLINE
  8
1
 66
1
 70
0
  0
VERTEX
  8
1
 10
49.3406
 20
32.7177
  0
VERTEX
  8
1
 10
49.3427
 20
32.6026
  0
VERTEX
  8
1
 10
49.3947
 20
31.8370
  0
VERTEX
  8
1
 10
49.7174
 20
30.5797
  0
VERTEX
  8
1
 10
50.3286
 20
29.8747
  0
VERTEX
  8
1
 10
51.5294
 20
29.2052
  0
VERTEX
  8
1
 10
53.1567
 20
28.7523
  0
VERTEX
  8
1
 10
53.5663
 20
28.6844
  0
VERTEX
  8
1
 10
53.8372
 20
28.6555
  0
SEQEND
  8
1
  0
POLYLINE
  8
1
 66
1
 70
0
  0
VERTEX
  8
1
 10
53.8372
 20
28.6555
  0
VERTEX
  8
1
 10
53.0757
 20
26.7008
  0
SEQEND
  8
1
  0
POLYLINE
  8
1
 66
1
 70
0
  0
VERTEX
  8
1
 10
53.0757
 20
26.7008
  0
VERTEX
  8
1
 10
52.3076
 20
26.7296
  0
VERTEX
  8
1
 10
50.5734
 20
26.7615
  0
VERTEX
  8
1
 10
48.6312
 20
26.5693
  0
VERTEX
  8
1
 10
47.6477
 20
26.2797
  0
VERTEX
  8
1
 10
46.5388
 20
25.4717
  0
VERTEX
  8
1
 10
45.7817
 20
24.3700
  0
VERTEX
  8
1
 10
45.4580
 20
23.2050
  0
VERTEX
  8
1
 10
45.4260
 20
22.5301
  0
VERTEX
  8
1
 10
45.4105
 20
21.9904
  0
SEQEND
  8
1
  0
POLYLINE
  8
1
 66
1
 70
0
  0
VERTEX
  8
1
 10
45.4105
 20
21.9904
  0
VERTEX
  8
1
 10
44.6231
 20
21.9885
  0
VERTEX
  8
1
 10
37.2177
 20
22.6787
  0
SEQEND
  8
1
  0
POLYLINE
  8
1
 66
1
 70
0
  0
VERTEX
  8
1
 10
37.2177
 20
22.6787
  0
VERTEX
  8
1
 10
33.6380
 20
22.1090
  0
VERTEX
  8
1
 10
30.0197
 20
21.7144
  0
VERTEX
  8
1
 10
27.9662
 20
21.5952
  0
SEQEND
  8
1
  0
POLYLINE
  8
1
 66
1
 70
0
  0
VERTEX
  8
1
 10
27.9662
 20
21.5952
  0
VERTEX
  8
1
 10
27.9383
 20
21.8501
  0
VERTEX
  8
1
 10
27.1785
 20
31.4182
  0
VERTEX
  8
1
 10
27.1785
 20
32.7195
  0
SEQEND
  8
1
  0
POLYLINE
  8
1
 66
1
 70
0
  0
VERTEX
  8
1
 10
27.1785
 20
32.7195
  0
VERTEX
  8
1
 10
49.3406
 20
32.7177
  0
SEQEND
  8
1
  0
LINE
  8
7
 10
34.4968
 20
28.1909
 11
46.7708
 21
28.1909
  0
LINE
  8
5
 10
34.4968
 20
28.1909
 11
46.7708
 21
28.1909
  0
LINE
  8
8
 10
27.9652
 20
21.5960
 11
27.9653
 21
32.7195
  0
LINE
  8
8
 10
37.2177
 20
32.7185
 11
37.2177
 21
22.6787
  0
LINE
  8
8
 10
44.6132
 20
32.7181
 11
44.6131
 21
21.9908
  0
LINE
  8
8
 10
45.4574
 20
27.4009
 11
45.4576
 21
28.7788
  0
LINE
  8
8
 10
45.4576
 20
28.7788
 11
46.3630
 21
28.7791
  0
LINE
  8
8
 10
46.3630
 20
28.7791
 11
46.3630
 21
27.4007
  0
LINE
  8
8
 10
46.3630
 20
27.4007
 11
45.4574
 21
27.4009
  0
POLYLINE
  8
8
 66
1
 70
0
  0
VERTEX
  8
8
 10
38.0146
 20
30.3069
  0
VERTEX
  8
8
 10
40.8297
 20
30.3068
  0
VERTEX
  8
8
 10
40.8296
 20
30.1067
  0
SEQEND
  8
8
  0
LINE
  8
6
 10
27.1785
 20
32.7195
 11
49.3406
 21
32.7177
  0
ENDBLK
  0
BLOCK
  8
0
  2
GLX0926S16SFR_50
 70
64
 10
0.0000
 20
0.0000
  0
TEXT
  8
1
 10
40.5078
 20
27.1573
 40
0.250
 50
0.0000
  1
Piece Name: GLX0926S16SFR
  7
STANDARD
  0
TEXT
  8
1
 10
40.5078
 20
27.2973
 40
0.250
 50
0.0000
  1
SIZE: 50
  7
STANDARD
  0
POLYLINE
  8
1
 66
1
 70
0
  0
VERTEX
  8
1
 10
49.4587
 20
32.9390
  0
VERTEX
  8
1
 10
49.4608
 20
32.8239
  0
VERTEX
  8
1
 10
49.5126
 20
32.0425
  0
VERTEX
  8
1
 10
49.8395
 20
30.7586
  0
VERTEX
  8
1
 10
50.4722
 20
30.0462
  0
VERTEX
  8
1
 10
51.7066
 20
29.3774
  0
VERTEX
  8
1
 10
53.3339
 20
28.9244
  0
VERTEX
  8
1
 10
53.7435
 20
28.8566
  0
VERTEX
  8
1
 10
54.0144
 20
28.8277
  0
SEQEND
  8
1
  0
POLYLINE
  8
1
 66
1
 70
0
  0
VERTEX
  8
1
 10
54.0144
 20
28.8277
  0
VERTEX
  8
1
 10
53.2529
 20
26.8730
  0
SEQEND
  8
1
  0
POLYLINE
  8
1
 66
1
 70
0
  0
VERTEX
  8
1
 10
53.2529
 20
26.8730
  0
VERTEX
  8
1
 10
52.4618
 20
26.8848
  0
VERTEX
  8
1
 10
50.6764
 20
26.8776
  0
VERTEX
  8
1
 10
48.6821
 20
26.6349
  0
VERTEX
  8
1
 10
47.6952
 20
26.3104
  0
VERTEX
  8
1
 10
46.5979
 20
25.4569
  0
VERTEX
  8
1
 10
45.8061
 20
24.2847
  0
VERTEX
  8
1
 10
45.4737
 20
23.0493
  0
VERTEX
  8
1
 10
45.4457
 20
22.3350
  0
VERTEX
  8
1
 10
45.4322
 20
21.7688
  0
SEQEND
  8
1
  0
POLYLINE
  8
1
 66
1
 70
0
  0
VERTEX
  8
1
 10
45.4322
 20
21.7688
  0
VERTEX
  8
1
 10
44.6449
 20
21.7669
  0
VERTEX
  8
1
 10
37.0996
 20
22.4080
  0
SEQEND
  8
1
  0
POLYLINE
  8
1
 66
1
 70
0
  0
VERTEX
  8
1
 10
37.0996
 20
22.4080
  0
VERTEX
  8
1
 10
33.4962
 20
21.8565
  0
VERTEX
  8
1
 10
29.8548
 20
21.4813
  0
VERTEX
  8
1
 10
27.7890
 20
21.3737
  0
SEQEND
  8
1
  0
POLYLINE
  8
1
 66
1
 70
0
  0
VERTEX
  8
1
 10
27.7890
 20
21.3737
  0
VERTEX
  8
1
 10
27.7609
 20
21.6401
  0
VERTEX
  8
1
 10
27.0013
 20
31.6397
  0
VERTEX
  8
1
 10
27.0013
 20
32.9410
  0
SEQEND
  8
1
  0
POLYLINE
  8
1
 66
1
 70
0
  0
VERTEX
  8
1
 10
27.0013
 20
32.9410
  0
VERTEX
  8
1
 10
49.4587
 20
32.9390
  0
SEQEND
  8
1
  0
LINE
  8
7
 10
34.5165
 20
28.4123
 11
46.7905
 21
28.4123
  0
LINE
  8
5
 10
34.5165
 20
28.4123
 11
46.7905
 21
28.4123
  0
LINE
  8
8
 10
27.7880
 20
21.3745
 11
27.7881
 21
32.9410
  0
LINE
  8
8
 10
37.0996
 20
32.9399
 11
37.0996
 21
22.4080
  0
LINE
  8
8
 10
44.6329
 20
32.9394
 11
44.6328
 21
21.7693
  0
LINE
  8
8
 10
45.4378
 20
27.4254
 11
45.4379
 21
28.8033
  0
LINE
  8
8
 10
45.4379
 20
28.8033
 11
46.3434
 21
28.8036
  0
LINE
  8
8
 10
46.3434
 20
28.8036
 11
46.3434
 21
27.4252
  0
LINE
  8
8
 10
46.3434
 20
27.4252
 11
45.4378
 21
27.4254
  0
POLYLINE
  8
8
 66
1
 70
0
  0
VERTEX
  8
8
 10
38.0343
 20
30.5283
  0
VERTEX
  8
8
 10
40.8494
 20
30.5282
  0
VERTEX
  8
8
 10
40.8493
 20
30.3281
  0
SEQEND
  8
8
  0
LINE
  8
6
 10
27.0013
 20
32.9410
 11
49.4587
 21
32.9390
  0
ENDBLK
  0
BLOCK
  8
0
  2
GLX0926S16SFR_52
 70
64
 10
0.0000
 20
0.0000
  0
TEXT
  8
1
 10
40.5078
 20
27.1573
 40
0.250
 50
0.0000
  1
Piece Name: GLX0926S16SFR
  7
STANDARD
  0
TEXT
  8
1
 10
40.5078
 20
27.2973
 40
0.250
 50
0.0000
  1
SIZE: 52
  7
STANDARD
  0
POLYLINE
  8
1
 66
1
 70
0
  0
VERTEX
  8
1
 10
49.5767
 20
33.1605
  0
VERTEX
  8
1
 10
49.5788
 20
33.0454
  0
VERTEX
  8
1
 10
49.6302
 20
32.2479
  0
VERTEX
  8
1
 10
49.9616
 20
30.9375
  0
VERTEX
  8
1
 10
50.6160
 20
30.2178
  0
VERTEX
  8
1
 10
51.8838
 20
29.5496
  0
VERTEX
  8
1
 10
53.5111
 20
29.0967
  0
VERTEX
  8
1
 10
53.9207
 20
29.0288
  0
VERTEX
  8
1
 10
54.1916
 20
28.9999
  0
SEQEND
  8
1
  0
POLYLINE
  8
1
 66
1
 70
0
  0
VERTEX
  8
1
 10
54.1916
 20
28.9999
  0
VERTEX
  8
1
 10
53.4301
 20
27.0452
  0
SEQEND
  8
1
  0
POLYLINE
  8
1
 66
1
 70
0
  0
VERTEX
  8
1
 10
53.4301
 20
27.0452
  0
VERTEX
  8
1
 10
52.6149
 20
27.0402
  0
VERTEX
  8
1
 10
50.7759
 20
26.9939
  0
VERTEX
  8
1
 10
48.7267
 20
26.7005
  0
VERTEX
  8
1
 10
47.7391
 20
26.3405
  0
VERTEX
  8
1
 10
46.6570
 20
25.4421
  0
VERTEX
  8
1
 10
45.8322
 20
24.2051
  0
VERTEX
  8
1
 10
45.4904
 20
22.9047
  0
VERTEX
  8
1
 10
45.4654
 20
22.1536
  0
VERTEX
  8
1
 10
45.4541
 20
21.5474
  0
SEQEND
  8
1
  0
POLYLINE
  8
1
 66
1
 70
0
  0
VERTEX
  8
1
 10
45.4541
 20
21.5474
  0
VERTEX
  8
1
 10
44.6667
 20
21.5455
  0
VERTEX
  8
1
 10
36.9816
 20
22.1373
  0
SEQEND
  8
1
  0
POLYLINE
  8
1
 66
1
 70
0
  0
VERTEX
  8
1
 10
36.9816
 20
22.1373
  0
VERTEX
  8
1
 10
33.3543
 20
21.6040
  0
VERTEX
  8
1
 10
29.6900
 20
21.2482
  0
VERTEX
  8
1
 10
27.6118
 20
21.1522
  0
SEQEND
  8
1
  0
POLYLINE
  8
1
 66
1
 70
0
  0
VERTEX
  8
1
 10
27.6118
 20
21.1522
  0
VERTEX
  8
1
 10
27.5833
 20
21.4302
  0
VERTEX
  8
1
 10
26.8241
 20
31.8612
  0
VERTEX
  8
1
 10
26.8241
 20
33.1625
  0
SEQEND
  8
1
  0
POLYLINE
  8
1
 66
1
 70
0
  0
VERTEX
  8
1
 10
26.8241
 20
33.1625
  0
VERTEX
  8
1
 10
49.5767
 20
33.1605
  0
SEQEND
  8
1
  0
LINE
  8
7
 10
34.5362
 20
28.6337
 11
46.8102
 21
28.6337
  0
LINE
  8
5
 10
34.5362
 20
28.6337
 11
46.8102
 21
28.6337
  0
LINE
  8
8
 10
27.6108
 20
21.1530
 11
27.6109
 21
33.1625
  0
LINE
  8
8
 10
36.9816
 20
33.1613
 11
36.9816
 21
22.1373
  0
LINE
  8
8
 10
44.6526
 20
33.1608
 11
44.6525
 21
21.5478
  0
LINE
  8
8
 10
45.4181
 20
27.4499
 11
45.4182
 21
28.8278
  0
LINE
  8
8
 10
45.4182
 20
28.8278
 11
46.3237
 21
28.8281
  0
LINE
  8
8
 10
46.3237
 20
28.8281
 11
46.3237
 21
27.4497
  0
LINE
  8
8
 10
46.3237
 20
27.4497
 11
45.4181
 21
27.4499
  0
POLYLINE
  8
8
 66
1
 70
0
  0
VERTEX
  8
8
 10
38.0540
 20
30.7497
  0
VERTEX
  8
8
 10
40.8691
 20
30.7496
  0
VERTEX
  8
8
 10
40.8690
 20
30.5495
  0
SEQEND
  8
8
  0
LINE
  8
6
 10
26.8241
 20
33.1625
 11
49.5767
 21
33.1605
  0
ENDBLK
  0
BLOCK
  8
0
  2
GLX0926S16SBIN_26
 70
64
 10
0.0000
 20
0.0000
  0
TEXT
  8
1
 10
54.3275
 20
20.7566
 40
0.250
 50
0.0000
  1
Piece Name: GLX0926S16SBIN
  7
STANDARD
  0
TEXT
  8
1
 10
54.3275
 20
20.8966
 40
0.250
 50
0.0000
  1
SIZE: 26
  7
STANDARD
  0
POLYLINE
  8
1
 66
1
 70
0
  0
VERTEX
  8
1
 10
53.6937
 20
10.3952
  0
VERTEX
  8
1
 10
53.6937
 20
31.1180
  0
SEQEND
  8
1
  0
POLYLINE
  8
1
 66
1
 70
0
  0
VERTEX
  8
1
 10
53.6937
 20
31.1180
  0
VERTEX
  8
1
 10
54.9613
 20
31.1180
  0
SEQEND
  8
1
  0
POLYLINE
  8
1
 66
1
 70
0
  0
VERTEX
  8
1
 10
54.9613
 20
31.1180
  0
VERTEX
  8
1
 10
54.9613
 20
10.3952
  0
SEQEND
  8
1
  0
POLYLINE
  8
1
 66
1
 70
0
  0
VERTEX
  8
1
 10
54.9613
 20
10.3952
  0
VERTEX
  8
1
 10
53.6937
 20
10.3952
  0
SEQEND
  8
1
  0
LINE
  8
7
 10
54.0913
 20
18.5290
 11
54.8787
 21
18.5290
  0
LINE
  8
5
 10
54.0913
 20
18.5290
 11
54.8787
 21
18.5290
  0
POLYLINE
  8
8
 66
1
 70
0
  0
VERTEX
  8
8
 10
54.1117
 20
23.2397
  0
VERTEX
  8
8
 10
54.1117
 20
19.8907
  0
VERTEX
  8
8
 10
54.5054
 20
19.8907
  0
SEQEND
  8
8
  0
POLYLINE
  8
14
 66
1
 70
0
  0
VERTEX
  8
14
 10
53.6976
 20
10.3991
  0
VERTEX
  8
14
 10
53.6976
 20
31.1141
  0
SEQEND
  8
14
  0
POLYLINE
  8
14
 66
1
 70
0
  0
VERTEX
  8
14
 10
53.6976
 20
31.1141
  0
VERTEX
  8
14
 10
54.9574
 20
31.1141
  0
SEQEND
  8
14
  0
POLYLINE
  8
14
 66
1
 70
0
  0
VERTEX
  8
14
 10
54.9574
 20
31.1141
  0
VERTEX
  8
14
 10
54.9574
 20
10.3991
  0
SEQEND
  8
14
  0
POLYLINE
  8
14
 66
1
 70
0
  0
VERTEX
  8
14
 10
54.9574
 20
10.3991
  0
VERTEX
  8
14
 10
53.6976
 20
10.3991
  0
SEQEND
  8
14
  0
ENDBLK
  0
BLOCK
  8
0
  2
GLX0926S16SBIN_28
 70
64
 10
0.0000
 20
0.0000
  0
TEXT
  8
1
 10
54.3275
 20
20.7566
 40
0.250
 50
0.0000
  1
Piece Name: GLX0926S16SBIN
  7
STANDARD
  0
TEXT
  8
1
 10
54.3275
 20
20.8966
 40
0.250
 50
0.0000
  1
SIZE: 28
  7
STANDARD
  0
POLYLINE
  8
1
 66
1
 70
0
  0
VERTEX
  8
1
 10
53.6937
 20
10.2852
  0
VERTEX
  8
1
 10
53.6937
 20
31.2280
  0
SEQEND
  8
1
  0
POLYLINE
  8
1
 66
1
 70
0
  0
VERTEX
  8
1
 10
53.6937
 20
31.2280
  0
VERTEX
  8
1
 10
54.9613
 20
31.2280
  0
SEQEND
  8
1
  0
POLYLINE
  8
1
 66
1
 70
0
  0
VERTEX
  8
1
 10
54.9613
 20
31.2280
  0
VERTEX
  8
1
 10
54.9613
 20
10.2852
  0
SEQEND
  8
1
  0
POLYLINE
  8
1
 66
1
 70
0
  0
VERTEX
  8
1
 10
54.9613
 20
10.2852
  0
VERTEX
  8
1
 10
53.6937
 20
10.2852
  0
SEQEND
  8
1
  0
LINE
  8
7
 10
54.0913
 20
18.4190
 11
54.8787
 21
18.4190
  0
LINE
  8
5
 10
54.0913
 20
18.4190
 11
54.8787
 21
18.4190
  0
POLYLINE
  8
8
 66
1
 70
0
  0
VERTEX
  8
8
 10
54.1117
 20
23.1297
  0
VERTEX
  8
8
 10
54.1117
 20
19.7807
  0
VERTEX
  8
8
 10
54.5054
 20
19.7807
  0
SEQEND
  8
8
  0
POLYLINE
  8
14
 66
1
 70
0
  0
VERTEX
  8
14
 10
53.6976
 20
10.2891
  0
VERTEX
  8
14
 10
53.6976
 20
31.2241
  0
SEQEND
  8
14
  0
POLYLINE
  8
14
 66
1
 70
0
  0
VERTEX
  8
14
 10
53.6976
 20
31.2241
  0
VERTEX
  8
14
 10
54.9574
 20
31.2241
  0
SEQEND
  8
14
  0
POLYLINE
  8
14
 66
1
 70
0
  0
VERTEX
  8
14
 10
54.9574
 20
31.2241
  0
VERTEX
  8
14
 10
54.9574
 20
10.2891
  0
SEQEND
  8
14
  0
POLYLINE
  8
14
 66
1
 70
0
  0
VERTEX
  8
14
 10
54.9574
 20
10.2891
  0
VERTEX
  8
14
 10
53.6976
 20
10.2891
  0
SEQEND
  8
14
  0
ENDBLK
  0
BLOCK
  8
0
  2
GLX0926S16SBIN_30
 70
64
 10
0.0000
 20
0.0000
  0
TEXT
  8
1
 10
54.3275
 20
20.7566
 40
0.250
 50
0.0000
  1
Piece Name: GLX0926S16SBIN
  7
STANDARD
  0
TEXT
  8
1
 10
54.3275
 20
20.8966
 40
0.250
 50
0.0000
  1
SIZE: 30
  7
STANDARD
  0
POLYLINE
  8
1
 66
1
 70
0
  0
VERTEX
  8
1
 10
53.6937
 20
10.1735
  0
VERTEX
  8
1
 10
53.6937
 20
31.3397
  0
SEQEND
  8
1
  0
POLYLINE
  8
1
 66
1
 70
0
  0
VERTEX
  8
1
 10
53.6937
 20
31.3397
  0
VERTEX
  8
1
 10
54.9613
 20
31.3397
  0
SEQEND
  8
1
  0
POLYLINE
  8
1
 66
1
 70
0
  0
VERTEX
  8
1
 10
54.9613
 20
31.3397
  0
VERTEX
  8
1
 10
54.9613
 20
10.1735
  0
SEQEND
  8
1
  0
POLYLINE
  8
1
 66
1
 70
0
  0
VERTEX
  8
1
 10
54.9613
 20
10.1735
  0
VERTEX
  8
1
 10
53.6937
 20
10.1735
  0
SEQEND
  8
1
  0
LINE
  8
7
 10
54.0913
 20
18.3074
 11
54.8787
 21
18.3074
  0
LINE
  8
5
 10
54.0913
 20
18.3074
 11
54.8787
 21
18.3074
  0
POLYLINE
  8
8
 66
1
 70
0
  0
VERTEX
  8
8
 10
54.1117
 20
23.0181
  0
VERTEX
  8
8
 10
54.1117
 20
19.6691
  0
VERTEX
  8
8
 10
54.5054
 20
19.6691
  0
SEQEND
  8
8
  0
POLYLINE
  8
14
 66
1
 70
0
  0
VERTEX
  8
14
 10
53.6976
 20
10.1775
  0
VERTEX
  8
14
 10
53.6976
 20
31.3358
  0
SEQEND
  8
14
  0
POLYLINE
  8
14
 66
1
 70
0
  0
VERTEX
  8
14
 10
53.6976
 20
31.3358
  0
VERTEX
  8
14
 10
54.9574
 20
31.3358
  0
SEQEND
  8
14
  0
POLYLINE
  8
14
 66
1
 70
0
  0
VERTEX
  8
14
 10
54.9574
 20
31.3358
  0
VERTEX
  8
14
 10
54.9574
 20
10.1775
  0
SEQEND
  8
14
  0
POLYLINE
  8
14
 66
1
 70
0
  0
VERTEX
  8
14
 10
54.9574
 20
10.1775
  0
VERTEX
  8
14
 10
53.6976
 20
10.1775
  0
SEQEND
  8
14
  0
ENDBLK
  0
BLOCK
  8
0
  2
GLX0926S16SBIN_32
 70
64
 10
0.0000
 20
0.0000
  0
TEXT
  8
1
 10
54.3275
 20
20.7566
 40
0.250
 50
0.0000
  1
Piece Name: GLX0926S16SBIN
  7
STANDARD
  0
TEXT
  8
1
 10
54.3275
 20
20.8966
 40
0.250
 50
0.0000
  1
SIZE: 32
  7
STANDARD
  0
POLYLINE
  8
1
 66
1
 70
0
  0
VERTEX
  8
1
 10
53.6937
 20
10.0602
  0
VERTEX
  8
1
 10
53.6937
 20
31.4531
  0
SEQEND
  8
1
  0
POLYLINE
  8
1
 66
1
 70
0
  0
VERTEX
  8
1
 10
53.6937
 20
31.4531
  0
VERTEX
  8
1
 10
54.9613
 20
31.4531
  0
SEQEND
  8
1
  0
POLYLINE
  8
1
 66
1
 70
0
  0
VERTEX
  8
1
 10
54.9613
 20
31.4531
  0
VERTEX
  8
1
 10
54.9613
 20
10.0602
  0
SEQEND
  8
1
  0
POLYLINE
  8
1
 66
1
 70
0
  0
VERTEX
  8
1
 10
54.9613
 20
10.0602
  0
VERTEX
  8
1
 10
53.6937
 20
10.0602
  0
SEQEND
  8
1
  0
LINE
  8
7
 10
54.0913
 20
18.1940
 11
54.8787
 21
18.1940
  0
LINE
  8
5
 10
54.0913
 20
18.1940
 11
54.8787
 21
18.1940
  0
POLYLINE
  8
8
 66
1
 70
0
  0
VERTEX
  8
8
 10
54.1117
 20
22.9047
  0
VERTEX
  8
8
 10
54.1117
 20
19.5557
  0
VERTEX
  8
8
 10
54.5054
 20
19.5557
  0
SEQEND
  8
8
  0
POLYLINE
  8
14
 66
1
 70
0
  0
VERTEX
  8
14
 10
53.6976
 20
10.0641
  0
VERTEX
  8
14
 10
53.6976
 20
31.4492
  0
SEQEND
  8
14
  0
POLYLINE
  8
14
 66
1
 70
0
  0
VERTEX
  8
14
 10
53.6976
 20
31.4492
  0
VERTEX
  8
14
 10
54.9574
 20
31.4492
  0
SEQEND
  8
14
  0
POLYLINE
  8
14
 66
1
 70
0
  0
VERTEX
  8
14
 10
54.9574
 20
31.4492
  0
VERTEX
  8
14
 10
54.9574
 20
10.0641
  0
SEQEND
  8
14
  0
POLYLINE
  8
14
 66
1
 70
0
  0
VERTEX
  8
14
 10
54.9574
 20
10.0641
  0
VERTEX
  8
14
 10
53.6976
 20
10.0641
  0
SEQEND
  8
14
  0
ENDBLK
  0
BLOCK
  8
0
  2
GLX0926S16SBIN_34
 70
64
 10
0.0000
 20
0.0000
  0
TEXT
  8
1
 10
54.3275
 20
20.7566
 40
0.250
 50
0.0000
  1
Piece Name: GLX0926S16SBIN
  7
STANDARD
  0
TEXT
  8
1
 10
54.3275
 20
20.8966
 40
0.250
 50
0.0000
  1
SIZE: 34
  7
STANDARD
  0
POLYLINE
  8
1
 66
1
 70
0
  0
VERTEX
  8
1
 10
53.6937
 20
9.9453
  0
VERTEX
  8
1
 10
53.6937
 20
31.5679
  0
SEQEND
  8
1
  0
POLYLINE
  8
1
 66
1
 70
0
  0
VERTEX
  8
1
 10
53.6937
 20
31.5679
  0
VERTEX
  8
1
 10
54.9613
 20
31.5679
  0
SEQEND
  8
1
  0
POLYLINE
  8
1
 66
1
 70
0
  0
VERTEX
  8
1
 10
54.9613
 20
31.5679
  0
VERTEX
  8
1
 10
54.9613
 20
9.9453
  0
SEQEND
  8
1
  0
POLYLINE
  8
1
 66
1
 70
0
  0
VERTEX
  8
1
 10
54.9613
 20
9.9453
  0
VERTEX
  8
1
 10
53.6937
 20
9.9453
  0
SEQEND
  8
1
  0
LINE
  8
7
 10
54.0913
 20
18.0791
 11
54.8787
 21
18.0791
  0
LINE
  8
5
 10
54.0913
 20
18.0791
 11
54.8787
 21
18.0791
  0
POLYLINE
  8
8
 66
1
 70
0
  0
VERTEX
  8
8
 10
54.1117
 20
22.7898
  0
VERTEX
  8
8
 10
54.1117
 20
19.4408
  0
VERTEX
  8
8
 10
54.5054
 20
19.4408
  0
SEQEND
  8
8
  0
POLYLINE
  8
14
 66
1
 70
0
  0
VERTEX
  8
14
 10
53.6976
 20
9.9492
  0
VERTEX
  8
14
 10
53.6976
 20
31.5640
  0
SEQEND
  8
14
  0
POLYLINE
  8
14
 66
1
 70
0
  0
VERTEX
  8
14
 10
53.6976
 20
31.5640
  0
VERTEX
  8
14
 10
54.9574
 20
31.5640
  0
SEQEND
  8
14
  0
POLYLINE
  8
14
 66
1
 70
0
  0
VERTEX
  8
14
 10
54.9574
 20
31.5640
  0
VERTEX
  8
14
 10
54.9574
 20
9.9492
  0
SEQEND
  8
14
  0
POLYLINE
  8
14
 66
1
 70
0
  0
VERTEX
  8
14
 10
54.9574
 20
9.9492
  0
VERTEX
  8
14
 10
53.6976
 20
9.9492
  0
SEQEND
  8
14
  0
ENDBLK
  0
BLOCK
  8
0
  2
GLX0926S16SBIN_36
 70
64
 10
0.0000
 20
0.0000
  0
TEXT
  8
1
 10
54.3275
 20
20.7566
 40
0.250
 50
0.0000
  1
Piece Name: GLX0926S16SBIN
  7
STANDARD
  0
TEXT
  8
1
 10
54.3275
 20
20.8966
 40
0.250
 50
0.0000
  1
Quantity: 2
  7
STANDARD
  0
TEXT
  8
1
 10
54.3275
 20
21.0366
 40
0.250
 50
0.0000
  1
ANNOTATION: 2XFABRIC
  7
STANDARD
  0
TEXT
  8
1
 10
54.3275
 20
21.1766
 40
0.250
 50
0.0000
  1
CATEGORY: BINDING NECKHOLE
  7
STANDARD
  0
TEXT
  8
1
 10
54.3275
 20
21.3166
 40
0.250
 50
0.0000
  1
Fabric: 1
  7
STANDARD
  0
TEXT
  8
1
 10
54.3275
 20
21.4566
 40
0.250
 50
0.0000
  1
SIZE: 36
  7
STANDARD
  0
POLYLINE
  8
1
 66
1
 70
0
  0
VERTEX
  8
1
 10
53.6937
 20
9.8274
  0
VERTEX
  8
1
 10
53.6937
 20
31.6858
  0
SEQEND
  8
1
  0
POINT
  8
2
 10
53.6937
 20
9.8274
  0
TEXT
  8
2
 10
53.6937
 20
9.8274
 40
0.250
 50
0.0000
  1
# 0
  7
STANDARD
  0
POINT
  8
2
 10
53.6937
 20
31.6858
  0
TEXT
  8
2
 10
53.6937
 20
31.6858
 40
0.250
 50
0.0000
  1
# 1
  7
STANDARD
  0
POLYLINE
  8
1
 66
1
 70
0
  0
VERTEX
  8
1
 10
53.6937
 20
31.6858
  0
VERTEX
  8
1
 10
54.9613
 20
31.6858
  0
SEQEND
  8
1
  0
POINT
  8
2
 10
53.6937
 20
31.6858
  0
TEXT
  8
2
 10
53.6937
 20
31.6858
 40
0.250
 50
0.0000
  1
# 1
  7
STANDARD
  0
POINT
  8
2
 10
54.9613
 20
31.6858
  0
TEXT
  8
2
 10
54.9613
 20
31.6858
 40
0.250
 50
0.0000
  1
# 1
  7
STANDARD
  0
POLYLINE
  8
1
 66
1
 70
0
  0
VERTEX
  8
1
 10
54.9613
 20
31.6858
  0
VERTEX
  8
1
 10
54.9613
 20
9.8274
  0
SEQEND
  8
1
  0
POINT
  8
2
 10
54.9613
 20
31.6858
  0
TEXT
  8
2
 10
54.9613
 20
31.6858
 40
0.250
 50
0.0000
  1
# 1
  7
STANDARD
  0
POINT
  8
2
 10
54.9613
 20
9.8274
  0
TEXT
  8
2
 10
54.9613
 20
9.8274
 40
0.250
 50
0.0000
  1
# 0
  7
STANDARD
  0
POLYLINE
  8
1
 66
1
 70
0
  0
VERTEX
  8
1
 10
54.9613
 20
9.8274
  0
VERTEX
  8
1
 10
53.6937
 20
9.8274
  0
SEQEND
  8
1
  0
POINT
  8
2
 10
54.9613
 20
9.8274
  0
TEXT
  8
2
 10
54.9613
 20
9.8274
 40
0.250
 50
0.0000
  1
# 0
  7
STANDARD
  0
POINT
  8
2
 10
53.6937
 20
9.8274
  0
LINE
  8
7
 10
54.0913
 20
17.9613
 11
54.8787
 21
17.9613
  0
LINE
  8
5
 10
54.0913
 20
17.9613
 11
54.8787
 21
17.9613
  0
POINT
  8
2
 10
54.0913
 20
17.9613
  0
POINT
  8
2
 10
54.8787
 20
17.9613
  0
POLYLINE
  8
8
 66
1
 70
0
  0
VERTEX
  8
8
 10
54.1117
 20
22.6720
  0
VERTEX
  8
8
 10
54.1117
 20
19.3230
  0
VERTEX
  8
8
 10
54.5054
 20
19.3230
  0
SEQEND
  8
8
  0
TEXT
  8
8
 10
54.1117
 20
22.6720
 40
0.250
 50
0.0000
  1
NM
  7
STANDARD
  0
POINT
  8
2
 10
54.1117
 20
22.6720
  0
POINT
  8
2
 10
54.1117
 20
19.3230
  0
POINT
  8
2
 10
54.5054
 20
19.3230
  0
POLYLINE
  8
14
 66
1
 70
0
  0
VERTEX
  8
14
 10
53.6976
 20
9.8314
  0
VERTEX
  8
14
 10
53.6976
 20
31.6819
  0
SEQEND
  8
14
  0
POINT
  8
2
 10
53.6976
 20
9.8314
  0
TEXT
  8
2
 10
53.6976
 20
9.8314
 40
0.250
 50
0.0000
  1
# 0
  7
STANDARD
  0
POINT
  8
2
 10
53.6976
 20
31.6819
  0
TEXT
  8
2
 10
53.6976
 20
31.6819
 40
0.250
 50
0.0000
  1
# 1
  7
STANDARD
  0
POLYLINE
  8
14
 66
1
 70
0
  0
VERTEX
  8
14
 10
53.6976
 20
31.6819
  0
VERTEX
  8
14
 10
54.9574
 20
31.6819
  0
SEQEND
  8
14
  0
POINT
  8
2
 10
53.6976
 20
31.6819
  0
TEXT
  8
2
 10
53.6976
 20
31.6819
 40
0.250
 50
0.0000
  1
# 1
  7
STANDARD
  0
POINT
  8
2
 10
54.9574
 20
31.6819
  0
TEXT
  8
2
 10
54.9574
 20
31.6819
 40
0.250
 50
0.0000
  1
# 1
  7
STANDARD
  0
POLYLINE
  8
14
 66
1
 70
0
  0
VERTEX
  8
14
 10
54.9574
 20
31.6819
  0
VERTEX
  8
14
 10
54.9574
 20
9.8314
  0
SEQEND
  8
14
  0
POINT
  8
2
 10
54.9574
 20
31.6819
  0
TEXT
  8
2
 10
54.9574
 20
31.6819
 40
0.250
 50
0.0000
  1
# 1
  7
STANDARD
  0
POINT
  8
2
 10
54.9574
 20
9.8314
  0
TEXT
  8
2
 10
54.9574
 20
9.8314
 40
0.250
 50
0.0000
  1
# 0
  7
STANDARD
  0
POLYLINE
  8
14
 66
1
 70
0
  0
VERTEX
  8
14
 10
54.9574
 20
9.8314
  0
VERTEX
  8
14
 10
53.6976
 20
9.8314
  0
SEQEND
  8
14
  0
POINT
  8
2
 10
54.9574
 20
9.8314
  0
TEXT
  8
2
 10
54.9574
 20
9.8314
 40
0.250
 50
0.0000
  1
# 0
  7
STANDARD
  0
POINT
  8
2
 10
53.6976
 20
9.8314
  0
ENDBLK
  0
BLOCK
  8
0
  2
GLX0926S16SBIN_38
 70
64
 10
0.0000
 20
0.0000
  0
TEXT
  8
1
 10
54.3275
 20
20.7566
 40
0.250
 50
0.0000
  1
Piece Name: GLX0926S16SBIN
  7
STANDARD
  0
TEXT
  8
1
 10
54.3275
 20
20.8966
 40
0.250
 50
0.0000
  1
SIZE: 38
  7
STANDARD
  0
POLYLINE
  8
1
 66
1
 70
0
  0
VERTEX
  8
1
 10
53.6937
 20
9.7191
  0
VERTEX
  8
1
 10
53.6937
 20
31.7942
  0
SEQEND
  8
1
  0
POLYLINE
  8
1
 66
1
 70
0
  0
VERTEX
  8
1
 10
53.6937
 20
31.7942
  0
VERTEX
  8
1
 10
54.9613
 20
31.7942
  0
SEQEND
  8
1
  0
POLYLINE
  8
1
 66
1
 70
0
  0
VERTEX
  8
1
 10
54.9613
 20
31.7942
  0
VERTEX
  8
1
 10
54.9613
 20
9.7191
  0
SEQEND
  8
1
  0
POLYLINE
  8
1
 66
1
 70
0
  0
VERTEX
  8
1
 10
54.9613
 20
9.7191
  0
VERTEX
  8
1
 10
53.6937
 20
9.7191
  0
SEQEND
  8
1
  0
LINE
  8
7
 10
54.0913
 20
17.8529
 11
54.8787
 21
17.8529
  0
LINE
  8
5
 10
54.0913
 20
17.8529
 11
54.8787
 21
17.8529
  0
POLYLINE
  8
8
 66
1
 70
0
  0
VERTEX
  8
8
 10
54.1117
 20
22.5636
  0
VERTEX
  8
8
 10
54.1117
 20
19.2146
  0
VERTEX
  8
8
 10
54.5054
 20
19.2146
  0
SEQEND
  8
8
  0
POLYLINE
  8
14
 66
1
 70
0
  0
VERTEX
  8
14
 10
53.6976
 20
9.7230
  0
VERTEX
  8
14
 10
53.6976
 20
31.7903
  0
SEQEND
  8
14
  0
POLYLINE
  8
14
 66
1
 70
0
  0
VERTEX
  8
14
 10
53.6976
 20
31.7903
  0
VERTEX
  8
14
 10
54.9574
 20
31.7903
  0
SEQEND
  8
14
  0
POLYLINE
  8
14
 66
1
 70
0
  0
VERTEX
  8
14
 10
54.9574
 20
31.7903
  0
VERTEX
  8
14
 10
54.9574
 20
9.7230
  0
SEQEND
  8
14
  0
POLYLINE
  8
14
 66
1
 70
0
  0
VERTEX
  8
14
 10
54.9574
 20
9.7230
  0
VERTEX
  8
14
 10
53.6976
 20
9.7230
  0
SEQEND
  8
14
  0
ENDBLK
  0
BLOCK
  8
0
  2
GLX0926S16SBIN_40
 70
64
 10
0.0000
 20
0.0000
  0
TEXT
  8
1
 10
54.3275
 20
20.7566
 40
0.250
 50
0.0000
  1
Piece Name: GLX0926S16SBIN
  7
STANDARD
  0
TEXT
  8
1
 10
54.3275
 20
20.8966
 40
0.250
 50
0.0000
  1
SIZE: 40
  7
STANDARD
  0
POLYLINE
  8
1
 66
1
 70
0
  0
VERTEX
  8
1
 10
53.6937
 20
9.6093
  0
VERTEX
  8
1
 10
53.6937
 20
31.9040
  0
SEQEND
  8
1
  0
POLYLINE
  8
1
 66
1
 70
0
  0
VERTEX
  8
1
 10
53.6937
 20
31.9040
  0
VERTEX
  8
1
 10
54.9613
 20
31.9040
  0
SEQEND
  8
1
  0
POLYLINE
  8
1
 66
1
 70
0
  0
VERTEX
  8
1
 10
54.9613
 20
31.9040
  0
VERTEX
  8
1
 10
54.9613
 20
9.6093
  0
SEQEND
  8
1
  0
POLYLINE
  8
1
 66
1
 70
0
  0
VERTEX
  8
1
 10
54.9613
 20
9.6093
  0
VERTEX
  8
1
 10
53.6937
 20
9.6093
  0
SEQEND
  8
1
  0
LINE
  8
7
 10
54.0913
 20
17.7431
 11
54.8787
 21
17.7431
  0
LINE
  8
5
 10
54.0913
 20
17.7431
 11
54.8787
 21
17.7431
  0
POLYLINE
  8
8
 66
1
 70
0
  0
VERTEX
  8
8
 10
54.1117
 20
22.4538
  0
VERTEX
  8
8
 10
54.1117
 20
19.1048
  0
VERTEX
  8
8
 10
54.5054
 20
19.1048
  0
SEQEND
  8
8
  0
POLYLINE
  8
14
 66
1
 70
0
  0
VERTEX
  8
14
 10
53.6976
 20
9.6132
  0
VERTEX
  8
14
 10
53.6976
 20
31.9001
  0
SEQEND
  8
14
  0
POLYLINE
  8
14
 66
1
 70
0
  0
VERTEX
  8
14
 10
53.6976
 20
31.9001
  0
VERTEX
  8
14
 10
54.9574
 20
31.9001
  0
SEQEND
  8
14
  0
POLYLINE
  8
14
 66
1
 70
0
  0
VERTEX
  8
14
 10
54.9574
 20
31.9001
  0
VERTEX
  8
14
 10
54.9574
 20
9.6132
  0
SEQEND
  8
14
  0
POLYLINE
  8
14
 66
1
 70
0
  0
VERTEX
  8
14
 10
54.9574
 20
9.6132
  0
VERTEX
  8
14
 10
53.6976
 20
9.6132
  0
SEQEND
  8
14
  0
ENDBLK
  0
BLOCK
  8
0
  2
GLX0926S16SBIN_42
 70
64
 10
0.0000
 20
0.0000
  0
TEXT
  8
1
 10
54.3275
 20
20.7566
 40
0.250
 50
0.0000
  1
Piece Name: GLX0926S16SBIN
  7
STANDARD
  0
TEXT
  8
1
 10
54.3275
 20
20.8966
 40
0.250
 50
0.0000
  1
SIZE: 42
  7
STANDARD
  0
POLYLINE
  8
1
 66
1
 70
0
  0
VERTEX
  8
1
 10
53.6937
 20
9.4980
  0
VERTEX
  8
1
 10
53.6937
 20
32.0152
  0
SEQEND
  8
1
  0
POLYLINE
  8
1
 66
1
 70
0
  0
VERTEX
  8
1
 10
53.6937
 20
32.0152
  0
VERTEX
  8
1
 10
54.9613
 20
32.0152
  0
SEQEND
  8
1
  0
POLYLINE
  8
1
 66
1
 70
0
  0
VERTEX
  8
1
 10
54.9613
 20
32.0152
  0
VERTEX
  8
1
 10
54.9613
 20
9.4980
  0
SEQEND
  8
1
  0
POLYLINE
  8
1
 66
1
 70
0
  0
VERTEX
  8
1
 10
54.9613
 20
9.4980
  0
VERTEX
  8
1
 10
53.6937
 20
9.4980
  0
SEQEND
  8
1
  0
LINE
  8
7
 10
54.0913
 20
17.6318
 11
54.8787
 21
17.6318
  0
LINE
  8
5
 10
54.0913
 20
17.6318
 11
54.8787
 21
17.6318
  0
POLYLINE
  8
8
 66
1
 70
0
  0
VERTEX
  8
8
 10
54.1117
 20
22.3425
  0
VERTEX
  8
8
 10
54.1117
 20
18.9935
  0
VERTEX
  8
8
 10
54.5054
 20
18.9935
  0
SEQEND
  8
8
  0
POLYLINE
  8
14
 66
1
 70
0
  0
VERTEX
  8
14
 10
53.6976
 20
9.5019
  0
VERTEX
  8
14
 10
53.6976
 20
32.0113
  0
SEQEND
  8
14
  0
POLYLINE
  8
14
 66
1
 70
0
  0
VERTEX
  8
14
 10
53.6976
 20
32.0113
  0
VERTEX
  8
14
 10
54.9574
 20
32.0113
  0
SEQEND
  8
14
  0
POLYLINE
  8
14
 66
1
 70
0
  0
VERTEX
  8
14
 10
54.9574
 20
32.0113
  0
VERTEX
  8
14
 10
54.9574
 20
9.5019
  0
SEQEND
  8
14
  0
POLYLINE
  8
14
 66
1
 70
0
  0
VERTEX
  8
14
 10
54.9574
 20
9.5019
  0
VERTEX
  8
14
 10
53.6976
 20
9.5019
  0
SEQEND
  8
14
  0
ENDBLK
  0
BLOCK
  8
0
  2
GLX0926S16SBIN_44
 70
64
 10
0.0000
 20
0.0000
  0
TEXT
  8
1
 10
54.3275
 20
20.7566
 40
0.250
 50
0.0000
  1
Piece Name: GLX0926S16SBIN
  7
STANDARD
  0
TEXT
  8
1
 10
54.3275
 20
20.8966
 40
0.250
 50
0.0000
  1
SIZE: 44
  7
STANDARD
  0
POLYLINE
  8
1
 66
1
 70
0
  0
VERTEX
  8
1
 10
53.6937
 20
9.3854
  0
VERTEX
  8
1
 10
53.6937
 20
32.1279
  0
SEQEND
  8
1
  0
POLYLINE
  8
1
 66
1
 70
0
  0
VERTEX
  8
1
 10
53.6937
 20
32.1279
  0
VERTEX
  8
1
 10
54.9613
 20
32.1279
  0
SEQEND
  8
1
  0
POLYLINE
  8
1
 66
1
 70
0
  0
VERTEX
  8
1
 10
54.9613
 20
32.1279
  0
VERTEX
  8
1
 10
54.9613
 20
9.3854
  0
SEQEND
  8
1
  0
POLYLINE
  8
1
 66
1
 70
0
  0
VERTEX
  8
1
 10
54.9613
 20
9.3854
  0
VERTEX
  8
1
 10
53.6937
 20
9.3854
  0
SEQEND
  8
1
  0
LINE
  8
7
 10
54.0913
 20
17.5192
 11
54.8787
 21
17.5192
  0
LINE
  8
5
 10
54.0913
 20
17.5192
 11
54.8787
 21
17.5192
  0
POLYLINE
  8
8
 66
1
 70
0
  0
VERTEX
  8
8
 10
54.1117
 20
22.2299
  0
VERTEX
  8
8
 10
54.1117
 20
18.8809
  0
VERTEX
  8
8
 10
54.5054
 20
18.8809
  0
SEQEND
  8
8
  0
POLYLINE
  8
14
 66
1
 70
0
  0
VERTEX
  8
14
 10
53.6976
 20
9.3893
  0
VERTEX
  8
14
 10
53.6976
 20
32.1240
  0
SEQEND
  8
14
  0
POLYLINE
  8
14
 66
1
 70
0
  0
VERTEX
  8
14
 10
53.6976
 20
32.1240
  0
VERTEX
  8
14
 10
54.9574
 20
32.1240
  0
SEQEND
  8
14
  0
POLYLINE
  8
14
 66
1
 70
0
  0
VERTEX
  8
14
 10
54.9574
 20
32.1240
  0
VERTEX
  8
14
 10
54.9574
 20
9.3893
  0
SEQEND
  8
14
  0
POLYLINE
  8
14
 66
1
 70
0
  0
VERTEX
  8
14
 10
54.9574
 20
9.3893
  0
VERTEX
  8
14
 10
53.6976
 20
9.3893
  0
SEQEND
  8
14
  0
ENDBLK
  0
BLOCK
  8
0
  2
GLX0926S16SBIN_46
 70
64
 10
0.0000
 20
0.0000
  0
TEXT
  8
1
 10
54.3275
 20
20.7566
 40
0.250
 50
0.0000
  1
Piece Name: GLX0926S16SBIN
  7
STANDARD
  0
TEXT
  8
1
 10
54.3275
 20
20.8966
 40
0.250
 50
0.0000
  1
SIZE: 46
  7
STANDARD
  0
POLYLINE
  8
1
 66
1
 70
0
  0
VERTEX
  8
1
 10
53.6937
 20
9.2707
  0
VERTEX
  8
1
 10
53.6937
 20
32.2425
  0
SEQEND
  8
1
  0
POLYLINE
  8
1
 66
1
 70
0
  0
VERTEX
  8
1
 10
53.6937
 20
32.2425
  0
VERTEX
  8
1
 10
54.9613
 20
32.2425
  0
SEQEND
  8
1
  0
POLYLINE
  8
1
 66
1
 70
0
  0
VERTEX
  8
1
 10
54.9613
 20
32.2425
  0
VERTEX
  8
1
 10
54.9613
 20
9.2707
  0
SEQEND
  8
1
  0
POLYLINE
  8
1
 66
1
 70
0
  0
VERTEX
  8
1
 10
54.9613
 20
9.2707
  0
VERTEX
  8
1
 10
53.6937
 20
9.2707
  0
SEQEND
  8
1
  0
LINE
  8
7
 10
54.0913
 20
17.4045
 11
54.8787
 21
17.4045
  0
LINE
  8
5
 10
54.0913
 20
17.4045
 11
54.8787
 21
17.4045
  0
POLYLINE
  8
8
 66
1
 70
0
  0
VERTEX
  8
8
 10
54.1117
 20
22.1152
  0
VERTEX
  8
8
 10
54.1117
 20
18.7662
  0
VERTEX
  8
8
 10
54.5054
 20
18.7662
  0
SEQEND
  8
8
  0
POLYLINE
  8
14
 66
1
 70
0
  0
VERTEX
  8
14
 10
53.6976
 20
9.2746
  0
VERTEX
  8
14
 10
53.6976
 20
32.2386
  0
SEQEND
  8
14
  0
POLYLINE
  8
14
 66
1
 70
0
  0
VERTEX
  8
14
 10
53.6976
 20
32.2386
  0
VERTEX
  8
14
 10
54.9574
 20
32.2386
  0
SEQEND
  8
14
  0
POLYLINE
  8
14
 66
1
 70
0
  0
VERTEX
  8
14
 10
54.9574
 20
32.2386
  0
VERTEX
  8
14
 10
54.9574
 20
9.2746
  0
SEQEND
  8
14
  0
POLYLINE
  8
14
 66
1
 70
0
  0
VERTEX
  8
14
 10
54.9574
 20
9.2746
  0
VERTEX
  8
14
 10
53.6976
 20
9.2746
  0
SEQEND
  8
14
  0
ENDBLK
  0
BLOCK
  8
0
  2
GLX0926S16SBIN_48
 70
64
 10
0.0000
 20
0.0000
  0
TEXT
  8
1
 10
54.3275
 20
20.7566
 40
0.250
 50
0.0000
  1
Piece Name: GLX0926S16SBIN
  7
STANDARD
  0
TEXT
  8
1
 10
54.3275
 20
20.8966
 40
0.250
 50
0.0000
  1
SIZE: 48
  7
STANDARD
  0
POLYLINE
  8
1
 66
1
 70
0
  0
VERTEX
  8
1
 10
53.6937
 20
9.1547
  0
VERTEX
  8
1
 10
53.6937
 20
32.3585
  0
SEQEND
  8
1
  0
POLYLINE
  8
1
 66
1
 70
0
  0
VERTEX
  8
1
 10
53.6937
 20
32.3585
  0
VERTEX
  8
1
 10
54.9613
 20
32.3585
  0
SEQEND
  8
1
  0
POLYLINE
  8
1
 66
1
 70
0
  0
VERTEX
  8
1
 10
54.9613
 20
32.3585
  0
VERTEX
  8
1
 10
54.9613
 20
9.1547
  0
SEQEND
  8
1
  0
POLYLINE
  8
1
 66
1
 70
0
  0
VERTEX
  8
1
 10
54.9613
 20
9.1547
  0
VERTEX
  8
1
 10
53.6937
 20
9.1547
  0
SEQEND
  8
1
  0
LINE
  8
7
 10
54.0913
 20
17.2885
 11
54.8787
 21
17.2885
  0
LINE
  8
5
 10
54.0913
 20
17.2885
 11
54.8787
 21
17.2885
  0
POLYLINE
  8
8
 66
1
 70
0
  0
VERTEX
  8
8
 10
54.1117
 20
21.9992
  0
VERTEX
  8
8
 10
54.1117
 20
18.6502
  0
VERTEX
  8
8
 10
54.5054
 20
18.6502
  0
SEQEND
  8
8
  0
POLYLINE
  8
14
 66
1
 70
0
  0
VERTEX
  8
14
 10
53.6976
 20
9.1586
  0
VERTEX
  8
14
 10
53.6976
 20
32.3546
  0
SEQEND
  8
14
  0
POLYLINE
  8
14
 66
1
 70
0
  0
VERTEX
  8
14
 10
53.6976
 20
32.3546
  0
VERTEX
  8
14
 10
54.9574
 20
32.3546
  0
SEQEND
  8
14
  0
POLYLINE
  8
14
 66
1
 70
0
  0
VERTEX
  8
14
 10
54.9574
 20
32.3546
  0
VERTEX
  8
14
 10
54.9574
 20
9.1586
  0
SEQEND
  8
14
  0
POLYLINE
  8
14
 66
1
 70
0
  0
VERTEX
  8
14
 10
54.9574
 20
9.1586
  0
VERTEX
  8
14
 10
53.6976
 20
9.1586
  0
SEQEND
  8
14
  0
ENDBLK
  0
BLOCK
  8
0
  2
GLX0926S16SBIN_50
 70
64
 10
0.0000
 20
0.0000
  0
TEXT
  8
1
 10
54.3275
 20
20.7566
 40
0.250
 50
0.0000
  1
Piece Name: GLX0926S16SBIN
  7
STANDARD
  0
TEXT
  8
1
 10
54.3275
 20
20.8966
 40
0.250
 50
0.0000
  1
SIZE: 50
  7
STANDARD
  0
POLYLINE
  8
1
 66
1
 70
0
  0
VERTEX
  8
1
 10
53.6937
 20
8.9906
  0
VERTEX
  8
1
 10
53.6937
 20
32.5226
  0
SEQEND
  8
1
  0
POLYLINE
  8
1
 66
1
 70
0
  0
VERTEX
  8
1
 10
53.6937
 20
32.5226
  0
VERTEX
  8
1
 10
54.9613
 20
32.5226
  0
SEQEND
  8
1
  0
POLYLINE
  8
1
 66
1
 70
0
  0
VERTEX
  8
1
 10
54.9613
 20
32.5226
  0
VERTEX
  8
1
 10
54.9613
 20
8.9906
  0
SEQEND
  8
1
  0
POLYLINE
  8
1
 66
1
 70
0
  0
VERTEX
  8
1
 10
54.9613
 20
8.9906
  0
VERTEX
  8
1
 10
53.6937
 20
8.9906
  0
SEQEND
  8
1
  0
LINE
  8
7
 10
54.0913
 20
17.1244
 11
54.8787
 21
17.1244
  0
LINE
  8
5
 10
54.0913
 20
17.1244
 11
54.8787
 21
17.1244
  0
POLYLINE
  8
8
 66
1
 70
0
  0
VERTEX
  8
8
 10
54.1117
 20
21.8351
  0
VERTEX
  8
8
 10
54.1117
 20
18.4861
  0
VERTEX
  8
8
 10
54.5054
 20
18.4861
  0
SEQEND
  8
8
  0
POLYLINE
  8
14
 66
1
 70
0
  0
VERTEX
  8
14
 10
53.6976
 20
8.9945
  0
VERTEX
  8
14
 10
53.6976
 20
32.5187
  0
SEQEND
  8
14
  0
POLYLINE
  8
14
 66
1
 70
0
  0
VERTEX
  8
14
 10
53.6976
 20
32.5187
  0
VERTEX
  8
14
 10
54.9574
 20
32.5187
  0
SEQEND
  8
14
  0
POLYLINE
  8
14
 66
1
 70
0
  0
VERTEX
  8
14
 10
54.9574
 20
32.5187
  0
VERTEX
  8
14
 10
54.9574
 20
8.9945
  0
SEQEND
  8
14
  0
POLYLINE
  8
14
 66
1
 70
0
  0
VERTEX
  8
14
 10
54.9574
 20
8.9945
  0
VERTEX
  8
14
 10
53.6976
 20
8.9945
  0
SEQEND
  8
14
  0
ENDBLK
  0
BLOCK
  8
0
  2
GLX0926S16SBIN_52
 70
64
 10
0.0000
 20
0.0000
  0
TEXT
  8
1
 10
54.3275
 20
20.7566
 40
0.250
 50
0.0000
  1
Piece Name: GLX0926S16SBIN
  7
STANDARD
  0
TEXT
  8
1
 10
54.3275
 20
20.8966
 40
0.250
 50
0.0000
  1
SIZE: 52
  7
STANDARD
  0
POLYLINE
  8
1
 66
1
 70
0
  0
VERTEX
  8
1
 10
53.6937
 20
8.8265
  0
VERTEX
  8
1
 10
53.6937
 20
32.6867
  0
SEQEND
  8
1
  0
POLYLINE
  8
1
 66
1
 70
0
  0
VERTEX
  8
1
 10
53.6937
 20
32.6867
  0
VERTEX
  8
1
 10
54.9613
 20
32.6867
  0
SEQEND
  8
1
  0
POLYLINE
  8
1
 66
1
 70
0
  0
VERTEX
  8
1
 10
54.9613
 20
32.6867
  0
VERTEX
  8
1
 10
54.9613
 20
8.8265
  0
SEQEND
  8
1
  0
POLYLINE
  8
1
 66
1
 70
0
  0
VERTEX
  8
1
 10
54.9613
 20
8.8265
  0
VERTEX
  8
1
 10
53.6937
 20
8.8265
  0
SEQEND
  8
1
  0
LINE
  8
7
 10
54.0913
 20
16.9603
 11
54.8787
 21
16.9603
  0
LINE
  8
5
 10
54.0913
 20
16.9603
 11
54.8787
 21
16.9603
  0
POLYLINE
  8
8
 66
1
 70
0
  0
VERTEX
  8
8
 10
54.1117
 20
21.6710
  0
VERTEX
  8
8
 10
54.1117
 20
18.3220
  0
VERTEX
  8
8
 10
54.5054
 20
18.3220
  0
SEQEND
  8
8
  0
POLYLINE
  8
14
 66
1
 70
0
  0
VERTEX
  8
14
 10
53.6976
 20
8.8304
  0
VERTEX
  8
14
 10
53.6976
 20
32.6828
  0
SEQEND
  8
14
  0
POLYLINE
  8
14
 66
1
 70
0
  0
VERTEX
  8
14
 10
53.6976
 20
32.6828
  0
VERTEX
  8
14
 10
54.9574
 20
32.6828
  0
SEQEND
  8
14
  0
POLYLINE
  8
14
 66
1
 70
0
  0
VERTEX
  8
14
 10
54.9574
 20
32.6828
  0
VERTEX
  8
14
 10
54.9574
 20
8.8304
  0
SEQEND
  8
14
  0
POLYLINE
  8
14
 66
1
 70
0
  0
VERTEX
  8
14
 10
54.9574
 20
8.8304
  0
VERTEX
  8
14
 10
53.6976
 20
8.8304
  0
SEQEND
  8
14
  0
ENDBLK
  0
BLOCK
  8
0
  2
GLX0926S16SBIA_26
 70
64
 10
0.0000
 20
0.0000
  0
TEXT
  8
1
 10
56.0951
 20
19.2409
 40
0.250
 50
0.0000
  1
Piece Name: GLX0926S16SBIA
  7
STANDARD
  0
TEXT
  8
1
 10
56.0951
 20
19.3809
 40
0.250
 50
0.0000
  1
SIZE: 26
  7
STANDARD
  0
POLYLINE
  8
1
 66
1
 70
0
  0
VERTEX
  8
1
 10
55.4613
 20
8.6628
  0
VERTEX
  8
1
 10
55.4613
 20
29.8190
  0
SEQEND
  8
1
  0
POLYLINE
  8
1
 66
1
 70
0
  0
VERTEX
  8
1
 10
55.4613
 20
29.8190
  0
VERTEX
  8
1
 10
56.7289
 20
29.8190
  0
SEQEND
  8
1
  0
POLYLINE
  8
1
 66
1
 70
0
  0
VERTEX
  8
1
 10
56.7289
 20
29.8190
  0
VERTEX
  8
1
 10
56.7289
 20
8.6628
  0
SEQEND
  8
1
  0
POLYLINE
  8
1
 66
1
 70
0
  0
VERTEX
  8
1
 10
56.7289
 20
8.6628
  0
VERTEX
  8
1
 10
55.4613
 20
8.6628
  0
SEQEND
  8
1
  0
LINE
  8
7
 10
55.8589
 20
16.7966
 11
56.6463
 21
16.7966
  0
LINE
  8
5
 10
55.8589
 20
16.7966
 11
56.6463
 21
16.7966
  0
POLYLINE
  8
8
 66
1
 70
0
  0
VERTEX
  8
8
 10
55.8793
 20
21.5074
  0
VERTEX
  8
8
 10
55.8793
 20
18.1583
  0
VERTEX
  8
8
 10
56.2730
 20
18.1583
  0
SEQEND
  8
8
  0
POLYLINE
  8
14
 66
1
 70
0
  0
VERTEX
  8
14
 10
55.4652
 20
8.6667
  0
VERTEX
  8
14
 10
55.4652
 20
29.8150
  0
SEQEND
  8
14
  0
POLYLINE
  8
14
 66
1
 70
0
  0
VERTEX
  8
14
 10
55.4652
 20
29.8150
  0
VERTEX
  8
14
 10
56.7250
 20
29.8150
  0
SEQEND
  8
14
  0
POLYLINE
  8
14
 66
1
 70
0
  0
VERTEX
  8
14
 10
56.7250
 20
29.8150
  0
VERTEX
  8
14
 10
56.7250
 20
8.6667
  0
SEQEND
  8
14
  0
POLYLINE
  8
14
 66
1
 70
0
  0
VERTEX
  8
14
 10
56.7250
 20
8.6667
  0
VERTEX
  8
14
 10
55.4652
 20
8.6667
  0
SEQEND
  8
14
  0
ENDBLK
  0
BLOCK
  8
0
  2
GLX0926S16SBIA_28
 70
64
 10
0.0000
 20
0.0000
  0
TEXT
  8
1
 10
56.0951
 20
19.2409
 40
0.250
 50
0.0000
  1
Piece Name: GLX0926S16SBIA
  7
STANDARD
  0
TEXT
  8
1
 10
56.0951
 20
19.3809
 40
0.250
 50
0.0000
  1
SIZE: 28
  7
STANDARD
  0
POLYLINE
  8
1
 66
1
 70
0
  0
VERTEX
  8
1
 10
55.4613
 20
8.2910
  0
VERTEX
  8
1
 10
55.4613
 20
30.1908
  0
SEQEND
  8
1
  0
POLYLINE
  8
1
 66
1
 70
0
  0
VERTEX
  8
1
 10
55.4613
 20
30.1908
  0
VERTEX
  8
1
 10
56.7289
 20
30.1908
  0
SEQEND
  8
1
  0
POLYLINE
  8
1
 66
1
 70
0
  0
VERTEX
  8
1
 10
56.7289
 20
30.1908
  0
VERTEX
  8
1
 10
56.7289
 20
8.2910
  0
SEQEND
  8
1
  0
POLYLINE
  8
1
 66
1
 70
0
  0
VERTEX
  8
1
 10
56.7289
 20
8.2910
  0
VERTEX
  8
1
 10
55.4613
 20
8.2910
  0
SEQEND
  8
1
  0
LINE
  8
7
 10
55.8589
 20
16.4248
 11
56.6463
 21
16.4248
  0
LINE
  8
5
 10
55.8589
 20
16.4248
 11
56.6463
 21
16.4248
  0
POLYLINE
  8
8
 66
1
 70
0
  0
VERTEX
  8
8
 10
55.8793
 20
21.1355
  0
VERTEX
  8
8
 10
55.8793
 20
17.7865
  0
VERTEX
  8
8
 10
56.2730
 20
17.7865
  0
SEQEND
  8
8
  0
POLYLINE
  8
14
 66
1
 70
0
  0
VERTEX
  8
14
 10
55.4652
 20
8.2949
  0
VERTEX
  8
14
 10
55.4652
 20
30.1869
  0
SEQEND
  8
14
  0
POLYLINE
  8
14
 66
1
 70
0
  0
VERTEX
  8
14
 10
55.4652
 20
30.1869
  0
VERTEX
  8
14
 10
56.7250
 20
30.1869
  0
SEQEND
  8
14
  0
POLYLINE
  8
14
 66
1
 70
0
  0
VERTEX
  8
14
 10
56.7250
 20
30.1869
  0
VERTEX
  8
14
 10
56.7250
 20
8.2949
  0
SEQEND
  8
14
  0
POLYLINE
  8
14
 66
1
 70
0
  0
VERTEX
  8
14
 10
56.7250
 20
8.2949
  0
VERTEX
  8
14
 10
55.4652
 20
8.2949
  0
SEQEND
  8
14
  0
ENDBLK
  0
BLOCK
  8
0
  2
GLX0926S16SBIA_30
 70
64
 10
0.0000
 20
0.0000
  0
TEXT
  8
1
 10
56.0951
 20
19.2409
 40
0.250
 50
0.0000
  1
Piece Name: GLX0926S16SBIA
  7
STANDARD
  0
TEXT
  8
1
 10
56.0951
 20
19.3809
 40
0.250
 50
0.0000
  1
SIZE: 30
  7
STANDARD
  0
POLYLINE
  8
1
 66
1
 70
0
  0
VERTEX
  8
1
 10
55.4613
 20
7.9129
  0
VERTEX
  8
1
 10
55.4613
 20
30.5689
  0
SEQEND
  8
1
  0
POLYLINE
  8
1
 66
1
 70
0
  0
VERTEX
  8
1
 10
55.4613
 20
30.5689
  0
VERTEX
  8
1
 10
56.7289
 20
30.5689
  0
SEQEND
  8
1
  0
POLYLINE
  8
1
 66
1
 70
0
  0
VERTEX
  8
1
 10
56.7289
 20
30.5689
  0
VERTEX
  8
1
 10
56.7289
 20
7.9129
  0
SEQEND
  8
1
  0
POLYLINE
  8
1
 66
1
 70
0
  0
VERTEX
  8
1
 10
56.7289
 20
7.9129
  0
VERTEX
  8
1
 10
55.4613
 20
7.9129
  0
SEQEND
  8
1
  0
LINE
  8
7
 10
55.8589
 20
16.0468
 11
56.6463
 21
16.0468
  0
LINE
  8
5
 10
55.8589
 20
16.0468
 11
56.6463
 21
16.0468
  0
POLYLINE
  8
8
 66
1
 70
0
  0
VERTEX
  8
8
 10
55.8793
 20
20.7575
  0
VERTEX
  8
8
 10
55.8793
 20
17.4084
  0
VERTEX
  8
8
 10
56.2730
 20
17.4084
  0
SEQEND
  8
8
  0
POLYLINE
  8
14
 66
1
 70
0
  0
VERTEX
  8
14
 10
55.4652
 20
7.9169
  0
VERTEX
  8
14
 10
55.4652
 20
30.5650
  0
SEQEND
  8
14
  0
POLYLINE
  8
14
 66
1
 70
0
  0
VERTEX
  8
14
 10
55.4652
 20
30.5650
  0
VERTEX
  8
14
 10
56.7250
 20
30.5650
  0
SEQEND
  8
14
  0
POLYLINE
  8
14
 66
1
 70
0
  0
VERTEX
  8
14
 10
56.7250
 20
30.5650
  0
VERTEX
  8
14
 10
56.7250
 20
7.9169
  0
SEQEND
  8
14
  0
POLYLINE
  8
14
 66
1
 70
0
  0
VERTEX
  8
14
 10
56.7250
 20
7.9169
  0
VERTEX
  8
14
 10
55.4652
 20
7.9169
  0
SEQEND
  8
14
  0
ENDBLK
  0
BLOCK
  8
0
  2
GLX0926S16SBIA_32
 70
64
 10
0.0000
 20
0.0000
  0
TEXT
  8
1
 10
56.0951
 20
19.2409
 40
0.250
 50
0.0000
  1
Piece Name: GLX0926S16SBIA
  7
STANDARD
  0
TEXT
  8
1
 10
56.0951
 20
19.3809
 40
0.250
 50
0.0000
  1
SIZE: 32
  7
STANDARD
  0
POLYLINE
  8
1
 66
1
 70
0
  0
VERTEX
  8
1
 10
55.4613
 20
7.5420
  0
VERTEX
  8
1
 10
55.4613
 20
30.9398
  0
SEQEND
  8
1
  0
POLYLINE
  8
1
 66
1
 70
0
  0
VERTEX
  8
1
 10
55.4613
 20
30.9398
  0
VERTEX
  8
1
 10
56.7289
 20
30.9398
  0
SEQEND
  8
1
  0
POLYLINE
  8
1
 66
1
 70
0
  0
VERTEX
  8
1
 10
56.7289
 20
30.9398
  0
VERTEX
  8
1
 10
56.7289
 20
7.5420
  0
SEQEND
  8
1
  0
POLYLINE
  8
1
 66
1
 70
0
  0
VERTEX
  8
1
 10
56.7289
 20
7.5420
  0
VERTEX
  8
1
 10
55.4613
 20
7.5420
  0
SEQEND
  8
1
  0
LINE
  8
7
 10
55.8589
 20
15.6758
 11
56.6463
 21
15.6758
  0
LINE
  8
5
 10
55.8589
 20
15.6758
 11
56.6463
 21
15.6758
  0
POLYLINE
  8
8
 66
1
 70
0
  0
VERTEX
  8
8
 10
55.8793
 20
20.3865
  0
VERTEX
  8
8
 10
55.8793
 20
17.0375
  0
VERTEX
  8
8
 10
56.2730
 20
17.0375
  0
SEQEND
  8
8
  0
POLYLINE
  8
14
 66
1
 70
0
  0
VERTEX
  8
14
 10
55.4652
 20
7.5459
  0
VERTEX
  8
14
 10
55.4652
 20
30.9359
  0
SEQEND
  8
14
  0
POLYLINE
  8
14
 66
1
 70
0
  0
VERTEX
  8
14
 10
55.4652
 20
30.9359
  0
VERTEX
  8
14
 10
56.7250
 20
30.9359
  0
SEQEND
  8
14
  0
POLYLINE
  8
14
 66
1
 70
0
  0
VERTEX
  8
14
 10
56.7250
 20
30.9359
  0
VERTEX
  8
14
 10
56.7250
 20
7.5459
  0
SEQEND
  8
14
  0
POLYLINE
  8
14
 66
1
 70
0
  0
VERTEX
  8
14
 10
56.7250
 20
7.5459
  0
VERTEX
  8
14
 10
55.4652
 20
7.5459
  0
SEQEND
  8
14
  0
ENDBLK
  0
BLOCK
  8
0
  2
GLX0926S16SBIA_34
 70
64
 10
0.0000
 20
0.0000
  0
TEXT
  8
1
 10
56.0951
 20
19.2409
 40
0.250
 50
0.0000
  1
Piece Name: GLX0926S16SBIA
  7
STANDARD
  0
TEXT
  8
1
 10
56.0951
 20
19.3809
 40
0.250
 50
0.0000
  1
SIZE: 34
  7
STANDARD
  0
POLYLINE
  8
1
 66
1
 70
0
  0
VERTEX
  8
1
 10
55.4613
 20
7.1626
  0
VERTEX
  8
1
 10
55.4613
 20
31.3192
  0
SEQEND
  8
1
  0
POLYLINE
  8
1
 66
1
 70
0
  0
VERTEX
  8
1
 10
55.4613
 20
31.3192
  0
VERTEX
  8
1
 10
56.7289
 20
31.3192
  0
SEQEND
  8
1
  0
POLYLINE
  8
1
 66
1
 70
0
  0
VERTEX
  8
1
 10
56.7289
 20
31.3192
  0
VERTEX
  8
1
 10
56.7289
 20
7.1626
  0
SEQEND
  8
1
  0
POLYLINE
  8
1
 66
1
 70
0
  0
VERTEX
  8
1
 10
56.7289
 20
7.1626
  0
VERTEX
  8
1
 10
55.4613
 20
7.1626
  0
SEQEND
  8
1
  0
LINE
  8
7
 10
55.8589
 20
15.2964
 11
56.6463
 21
15.2964
  0
LINE
  8
5
 10
55.8589
 20
15.2964
 11
56.6463
 21
15.2964
  0
POLYLINE
  8
8
 66
1
 70
0
  0
VERTEX
  8
8
 10
55.8793
 20
20.0071
  0
VERTEX
  8
8
 10
55.8793
 20
16.6581
  0
VERTEX
  8
8
 10
56.2730
 20
16.6581
  0
SEQEND
  8
8
  0
POLYLINE
  8
14
 66
1
 70
0
  0
VERTEX
  8
14
 10
55.4652
 20
7.1665
  0
VERTEX
  8
14
 10
55.4652
 20
31.3153
  0
SEQEND
  8
14
  0
POLYLINE
  8
14
 66
1
 70
0
  0
VERTEX
  8
14
 10
55.4652
 20
31.3153
  0
VERTEX
  8
14
 10
56.7250
 20
31.3153
  0
SEQEND
  8
14
  0
POLYLINE
  8
14
 66
1
 70
0
  0
VERTEX
  8
14
 10
56.7250
 20
31.3153
  0
VERTEX
  8
14
 10
56.7250
 20
7.1665
  0
SEQEND
  8
14
  0
POLYLINE
  8
14
 66
1
 70
0
  0
VERTEX
  8
14
 10
56.7250
 20
7.1665
  0
VERTEX
  8
14
 10
55.4652
 20
7.1665
  0
SEQEND
  8
14
  0
ENDBLK
  0
BLOCK
  8
0
  2
GLX0926S16SBIA_36
 70
64
 10
0.0000
 20
0.0000
  0
TEXT
  8
1
 10
56.0951
 20
19.2409
 40
0.250
 50
0.0000
  1
Piece Name: GLX0926S16SBIA
  7
STANDARD
  0
TEXT
  8
1
 10
56.0951
 20
19.3809
 40
0.250
 50
0.0000
  1
Quantity: 2
  7
STANDARD
  0
TEXT
  8
1
 10
56.0951
 20
19.5209
 40
0.250
 50
0.0000
  1
ANNOTATION: 2XFABRIC
  7
STANDARD
  0
TEXT
  8
1
 10
56.0951
 20
19.6609
 40
0.250
 50
0.0000
  1
CATEGORY: BINDING ARMHOLE
  7
STANDARD
  0
TEXT
  8
1
 10
56.0951
 20
19.8009
 40
0.250
 50
0.0000
  1
Fabric: 1
  7
STANDARD
  0
TEXT
  8
1
 10
56.0951
 20
19.9409
 40
0.250
 50
0.0000
  1
SIZE: 36
  7
STANDARD
  0
POLYLINE
  8
1
 66
1
 70
0
  0
VERTEX
  8
1
 10
55.4613
 20
6.7960
  0
VERTEX
  8
1
 10
55.4613
 20
31.6858
  0
SEQEND
  8
1
  0
POINT
  8
2
 10
55.4613
 20
6.7960
  0
TEXT
  8
2
 10
55.4613
 20
6.7960
 40
0.250
 50
0.0000
  1
# 0
  7
STANDARD
  0
POINT
  8
2
 10
55.4613
 20
31.6858
  0
TEXT
  8
2
 10
55.4613
 20
31.6858
 40
0.250
 50
0.0000
  1
# 1
  7
STANDARD
  0
POLYLINE
  8
1
 66
1
 70
0
  0
VERTEX
  8
1
 10
55.4613
 20
31.6858
  0
VERTEX
  8
1
 10
56.7289
 20
31.6858
  0
SEQEND
  8
1
  0
POINT
  8
2
 10
55.4613
 20
31.6858
  0
TEXT
  8
2
 10
55.4613
 20
31.6858
 40
0.250
 50
0.0000
  1
# 1
  7
STANDARD
  0
POINT
  8
2
 10
56.7289
 20
31.6858
  0
TEXT
  8
2
 10
56.7289
 20
31.6858
 40
0.250
 50
0.0000
  1
# 1
  7
STANDARD
  0
POLYLINE
  8
1
 66
1
 70
0
  0
VERTEX
  8
1
 10
56.7289
 20
31.6858
  0
VERTEX
  8
1
 10
56.7289
 20
6.7960
  0
SEQEND
  8
1
  0
POINT
  8
2
 10
56.7289
 20
31.6858
  0
TEXT
  8
2
 10
56.7289
 20
31.6858
 40
0.250
 50
0.0000
  1
# 1
  7
STANDARD
  0
POINT
  8
2
 10
56.7289
 20
6.7960
  0
TEXT
  8
2
 10
56.7289
 20
6.7960
 40
0.250
 50
0.0000
  1
# 0
  7
STANDARD
  0
POLYLINE
  8
1
 66
1
 70
0
  0
VERTEX
  8
1
 10
56.7289
 20
6.7960
  0
VERTEX
  8
1
 10
55.4613
 20
6.7960
  0
SEQEND
  8
1
  0
POINT
  8
2
 10
56.7289
 20
6.7960
  0
TEXT
  8
2
 10
56.7289
 20
6.7960
 40
0.250
 50
0.0000
  1
# 0
  7
STANDARD
  0
POINT
  8
2
 10
55.4613
 20
6.7960
  0
LINE
  8
7
 10
55.8589
 20
14.9298
 11
56.6463
 21
14.9298
  0
LINE
  8
5
 10
55.8589
 20
14.9298
 11
56.6463
 21
14.9298
  0
POINT
  8
2
 10
55.8589
 20
14.9298
  0
POINT
  8
2
 10
56.6463
 20
14.9298
  0
POLYLINE
  8
8
 66
1
 70
0
  0
VERTEX
  8
8
 10
55.8793
 20
19.6406
  0
VERTEX
  8
8
 10
55.8793
 20
16.2915
  0
VERTEX
  8
8
 10
56.2730
 20
16.2915
  0
SEQEND
  8
8
  0
TEXT
  8
8
 10
55.8793
 20
19.6406
 40
0.250
 50
0.0000
  1
NM
  7
STANDARD
  0
POINT
  8
2
 10
55.8793
 20
19.6406
  0
POINT
  8
2
 10
55.8793
 20
16.2915
  0
POINT
  8
2
 10
56.2730
 20
16.2915
  0
POLYLINE
  8
14
 66
1
 70
0
  0
VERTEX
  8
14
 10
55.4652
 20
6.7999
  0
VERTEX
  8
14
 10
55.4652
 20
31.6819
  0
SEQEND
  8
14
  0
POINT
  8
2
 10
55.4652
 20
6.7999
  0
TEXT
  8
2
 10
55.4652
 20
6.7999
 40
0.250
 50
0.0000
  1
# 0
  7
STANDARD
  0
POINT
  8
2
 10
55.4652
 20
31.6819
  0
TEXT
  8
2
 10
55.4652
 20
31.6819
 40
0.250
 50
0.0000
  1
# 1
  7
STANDARD
  0
POLYLINE
  8
14
 66
1
 70
0
  0
VERTEX
  8
14
 10
55.4652
 20
31.6819
  0
VERTEX
  8
14
 10
56.7250
 20
31.6819
  0
SEQEND
  8
14
  0
POINT
  8
2
 10
55.4652
 20
31.6819
  0
TEXT
  8
2
 10
55.4652
 20
31.6819
 40
0.250
 50
0.0000
  1
# 1
  7
STANDARD
  0
POINT
  8
2
 10
56.7250
 20
31.6819
  0
TEXT
  8
2
 10
56.7250
 20
31.6819
 40
0.250
 50
0.0000
  1
# 1
  7
STANDARD
  0
POLYLINE
  8
14
 66
1
 70
0
  0
VERTEX
  8
14
 10
56.7250
 20
31.6819
  0
VERTEX
  8
14
 10
56.7250
 20
6.7999
  0
SEQEND
  8
14
  0
POINT
  8
2
 10
56.7250
 20
31.6819
  0
TEXT
  8
2
 10
56.7250
 20
31.6819
 40
0.250
 50
0.0000
  1
# 1
  7
STANDARD
  0
POINT
  8
2
 10
56.7250
 20
6.7999
  0
TEXT
  8
2
 10
56.7250
 20
6.7999
 40
0.250
 50
0.0000
  1
# 0
  7
STANDARD
  0
POLYLINE
  8
14
 66
1
 70
0
  0
VERTEX
  8
14
 10
56.7250
 20
6.7999
  0
VERTEX
  8
14
 10
55.4652
 20
6.7999
  0
SEQEND
  8
14
  0
POINT
  8
2
 10
56.7250
 20
6.7999
  0
TEXT
  8
2
 10
56.7250
 20
6.7999
 40
0.250
 50
0.0000
  1
# 0
  7
STANDARD
  0
POINT
  8
2
 10
55.4652
 20
6.7999
  0
ENDBLK
  0
BLOCK
  8
0
  2
GLX0926S16SBIA_38
 70
64
 10
0.0000
 20
0.0000
  0
TEXT
  8
1
 10
56.0951
 20
19.2409
 40
0.250
 50
0.0000
  1
Piece Name: GLX0926S16SBIA
  7
STANDARD
  0
TEXT
  8
1
 10
56.0951
 20
19.3809
 40
0.250
 50
0.0000
  1
SIZE: 38
  7
STANDARD
  0
POLYLINE
  8
1
 66
1
 70
0
  0
VERTEX
  8
1
 10
55.4613
 20
6.4367
  0
VERTEX
  8
1
 10
55.4613
 20
32.0451
  0
SEQEND
  8
1
  0
POLYLINE
  8
1
 66
1
 70
0
  0
VERTEX
  8
1
 10
55.4613
 20
32.0451
  0
VERTEX
  8
1
 10
56.7289
 20
32.0451
  0
SEQEND
  8
1
  0
POLYLINE
  8
1
 66
1
 70
0
  0
VERTEX
  8
1
 10
56.7289
 20
32.0451
  0
VERTEX
  8
1
 10
56.7289
 20
6.4367
  0
SEQEND
  8
1
  0
POLYLINE
  8
1
 66
1
 70
0
  0
VERTEX
  8
1
 10
56.7289
 20
6.4367
  0
VERTEX
  8
1
 10
55.4613
 20
6.4367
  0
SEQEND
  8
1
  0
LINE
  8
7
 10
55.8589
 20
14.5705
 11
56.6463
 21
14.5705
  0
LINE
  8
5
 10
55.8589
 20
14.5705
 11
56.6463
 21
14.5705
  0
POLYLINE
  8
8
 66
1
 70
0
  0
VERTEX
  8
8
 10
55.8793
 20
19.2812
  0
VERTEX
  8
8
 10
55.8793
 20
15.9322
  0
VERTEX
  8
8
 10
56.2730
 20
15.9322
  0
SEQEND
  8
8
  0
POLYLINE
  8
14
 66
1
 70
0
  0
VERTEX
  8
14
 10
55.4652
 20
6.4406
  0
VERTEX
  8
14
 10
55.4652
 20
32.0412
  0
SEQEND
  8
14
  0
POLYLINE
  8
14
 66
1
 70
0
  0
VERTEX
  8
14
 10
55.4652
 20
32.0412
  0
VERTEX
  8
14
 10
56.7250
 20
32.0412
  0
SEQEND
  8
14
  0
POLYLINE
  8
14
 66
1
 70
0
  0
VERTEX
  8
14
 10
56.7250
 20
32.0412
  0
VERTEX
  8
14
 10
56.7250
 20
6.4406
  0
SEQEND
  8
14
  0
POLYLINE
  8
14
 66
1
 70
0
  0
VERTEX
  8
14
 10
56.7250
 20
6.4406
  0
VERTEX
  8
14
 10
55.4652
 20
6.4406
  0
SEQEND
  8
14
  0
ENDBLK
  0
BLOCK
  8
0
  2
GLX0926S16SBIA_40
 70
64
 10
0.0000
 20
0.0000
  0
TEXT
  8
1
 10
56.0951
 20
19.2409
 40
0.250
 50
0.0000
  1
Piece Name: GLX0926S16SBIA
  7
STANDARD
  0
TEXT
  8
1
 10
56.0951
 20
19.3809
 40
0.250
 50
0.0000
  1
SIZE: 40
  7
STANDARD
  0
POLYLINE
  8
1
 66
1
 70
0
  0
VERTEX
  8
1
 10
55.4613
 20
6.0711
  0
VERTEX
  8
1
 10
55.4613
 20
32.4107
  0
SEQEND
  8
1
  0
POLYLINE
  8
1
 66
1
 70
0
  0
VERTEX
  8
1
 10
55.4613
 20
32.4107
  0
VERTEX
  8
1
 10
56.7289
 20
32.4107
  0
SEQEND
  8
1
  0
POLYLINE
  8
1
 66
1
 70
0
  0
VERTEX
  8
1
 10
56.7289
 20
32.4107
  0
VERTEX
  8
1
 10
56.7289
 20
6.0711
  0
SEQEND
  8
1
  0
POLYLINE
  8
1
 66
1
 70
0
  0
VERTEX
  8
1
 10
56.7289
 20
6.0711
  0
VERTEX
  8
1
 10
55.4613
 20
6.0711
  0
SEQEND
  8
1
  0
LINE
  8
7
 10
55.8589
 20
14.2049
 11
56.6463
 21
14.2049
  0
LINE
  8
5
 10
55.8589
 20
14.2049
 11
56.6463
 21
14.2049
  0
POLYLINE
  8
8
 66
1
 70
0
  0
VERTEX
  8
8
 10
55.8793
 20
18.9156
  0
VERTEX
  8
8
 10
55.8793
 20
15.5666
  0
VERTEX
  8
8
 10
56.2730
 20
15.5666
  0
SEQEND
  8
8
  0
POLYLINE
  8
14
 66
1
 70
0
  0
VERTEX
  8
14
 10
55.4652
 20
6.0750
  0
VERTEX
  8
14
 10
55.4652
 20
32.4068
  0
SEQEND
  8
14
  0
POLYLINE
  8
14
 66
1
 70
0
  0
VERTEX
  8
14
 10
55.4652
 20
32.4068
  0
VERTEX
  8
14
 10
56.7250
 20
32.4068
  0
SEQEND
  8
14
  0
POLYLINE
  8
14
 66
1
 70
0
  0
VERTEX
  8
14
 10
56.7250
 20
32.4068
  0
VERTEX
  8
14
 10
56.7250
 20
6.0750
  0
SEQEND
  8
14
  0
POLYLINE
  8
14
 66
1
 70
0
  0
VERTEX
  8
14
 10
56.7250
 20
6.0750
  0
VERTEX
  8
14
 10
55.4652
 20
6.0750
  0
SEQEND
  8
14
  0
ENDBLK
  0
BLOCK
  8
0
  2
GLX0926S16SBIA_42
 70
64
 10
0.0000
 20
0.0000
  0
TEXT
  8
1
 10
56.0951
 20
19.2409
 40
0.250
 50
0.0000
  1
Piece Name: GLX0926S16SBIA
  7
STANDARD
  0
TEXT
  8
1
 10
56.0951
 20
19.3809
 40
0.250
 50
0.0000
  1
SIZE: 42
  7
STANDARD
  0
POLYLINE
  8
1
 66
1
 70
0
  0
VERTEX
  8
1
 10
55.4613
 20
5.6739
  0
VERTEX
  8
1
 10
55.4613
 20
32.8079
  0
SEQEND
  8
1
  0
POLYLINE
  8
1
 66
1
 70
0
  0
VERTEX
  8
1
 10
55.4613
 20
32.8079
  0
VERTEX
  8
1
 10
56.7289
 20
32.8079
  0
SEQEND
  8
1
  0
POLYLINE
  8
1
 66
1
 70
0
  0
VERTEX
  8
1
 10
56.7289
 20
32.8079
  0
VERTEX
  8
1
 10
56.7289
 20
5.6739
  0
SEQEND
  8
1
  0
POLYLINE
  8
1
 66
1
 70
0
  0
VERTEX
  8
1
 10
56.7289
 20
5.6739
  0
VERTEX
  8
1
 10
55.4613
 20
5.6739
  0
SEQEND
  8
1
  0
LINE
  8
7
 10
55.8589
 20
13.8077
 11
56.6463
 21
13.8077
  0
LINE
  8
5
 10
55.8589
 20
13.8077
 11
56.6463
 21
13.8077
  0
POLYLINE
  8
8
 66
1
 70
0
  0
VERTEX
  8
8
 10
55.8793
 20
18.5184
  0
VERTEX
  8
8
 10
55.8793
 20
15.1694
  0
VERTEX
  8
8
 10
56.2730
 20
15.1694
  0
SEQEND
  8
8
  0
POLYLINE
  8
14
 66
1
 70
0
  0
VERTEX
  8
14
 10
55.4652
 20
5.6778
  0
VERTEX
  8
14
 10
55.4652
 20
32.8040
  0
SEQEND
  8
14
  0
POLYLINE
  8
14
 66
1
 70
0
  0
VERTEX
  8
14
 10
55.4652
 20
32.8040
  0
VERTEX
  8
14
 10
56.7250
 20
32.8040
  0
SEQEND
  8
14
  0
POLYLINE
  8
14
 66
1
 70
0
  0
VERTEX
  8
14
 10
56.7250
 20
32.8040
  0
VERTEX
  8
14
 10
56.7250
 20
5.6778
  0
SEQEND
  8
14
  0
POLYLINE
  8
14
 66
1
 70
0
  0
VERTEX
  8
14
 10
56.7250
 20
5.6778
  0
VERTEX
  8
14
 10
55.4652
 20
5.6778
  0
SEQEND
  8
14
  0
ENDBLK
  0
BLOCK
  8
0
  2
GLX0926S16SBIA_44
 70
64
 10
0.0000
 20
0.0000
  0
TEXT
  8
1
 10
56.0951
 20
19.2409
 40
0.250
 50
0.0000
  1
Piece Name: GLX0926S16SBIA
  7
STANDARD
  0
TEXT
  8
1
 10
56.0951
 20
19.3809
 40
0.250
 50
0.0000
  1
SIZE: 44
  7
STANDARD
  0
POLYLINE
  8
1
 66
1
 70
0
  0
VERTEX
  8
1
 10
55.4613
 20
5.2779
  0
VERTEX
  8
1
 10
55.4613
 20
33.2039
  0
SEQEND
  8
1
  0
POLYLINE
  8
1
 66
1
 70
0
  0
VERTEX
  8
1
 10
55.4613
 20
33.2039
  0
VERTEX
  8
1
 10
56.7289
 20
33.2039
  0
SEQEND
  8
1
  0
POLYLINE
  8
1
 66
1
 70
0
  0
VERTEX
  8
1
 10
56.7289
 20
33.2039
  0
VERTEX
  8
1
 10
56.7289
 20
5.2779
  0
SEQEND
  8
1
  0
POLYLINE
  8
1
 66
1
 70
0
  0
VERTEX
  8
1
 10
56.7289
 20
5.2779
  0
VERTEX
  8
1
 10
55.4613
 20
5.2779
  0
SEQEND
  8
1
  0
LINE
  8
7
 10
55.8589
 20
13.4117
 11
56.6463
 21
13.4117
  0
LINE
  8
5
 10
55.8589
 20
13.4117
 11
56.6463
 21
13.4117
  0
POLYLINE
  8
8
 66
1
 70
0
  0
VERTEX
  8
8
 10
55.8793
 20
18.1224
  0
VERTEX
  8
8
 10
55.8793
 20
14.7734
  0
VERTEX
  8
8
 10
56.2730
 20
14.7734
  0
SEQEND
  8
8
  0
POLYLINE
  8
14
 66
1
 70
0
  0
VERTEX
  8
14
 10
55.4652
 20
5.2818
  0
VERTEX
  8
14
 10
55.4652
 20
33.2000
  0
SEQEND
  8
14
  0
POLYLINE
  8
14
 66
1
 70
0
  0
VERTEX
  8
14
 10
55.4652
 20
33.2000
  0
VERTEX
  8
14
 10
56.7250
 20
33.2000
  0
SEQEND
  8
14
  0
POLYLINE
  8
14
 66
1
 70
0
  0
VERTEX
  8
14
 10
56.7250
 20
33.2000
  0
VERTEX
  8
14
 10
56.7250
 20
5.2818
  0
SEQEND
  8
14
  0
POLYLINE
  8
14
 66
1
 70
0
  0
VERTEX
  8
14
 10
56.7250
 20
5.2818
  0
VERTEX
  8
14
 10
55.4652
 20
5.2818
  0
SEQEND
  8
14
  0
ENDBLK
  0
BLOCK
  8
0
  2
GLX0926S16SBIA_46
 70
64
 10
0.0000
 20
0.0000
  0
TEXT
  8
1
 10
56.0951
 20
19.2409
 40
0.250
 50
0.0000
  1
Piece Name: GLX0926S16SBIA
  7
STANDARD
  0
TEXT
  8
1
 10
56.0951
 20
19.3809
 40
0.250
 50
0.0000
  1
SIZE: 46
  7
STANDARD
  0
POLYLINE
  8
1
 66
1
 70
0
  0
VERTEX
  8
1
 10
55.4613
 20
4.9448
  0
VERTEX
  8
1
 10
55.4613
 20
33.5371
  0
SEQEND
  8
1
  0
POLYLINE
  8
1
 66
1
 70
0
  0
VERTEX
  8
1
 10
55.4613
 20
33.5371
  0
VERTEX
  8
1
 10
56.7289
 20
33.5371
  0
SEQEND
  8
1
  0
POLYLINE
  8
1
 66
1
 70
0
  0
VERTEX
  8
1
 10
56.7289
 20
33.5371
  0
VERTEX
  8
1
 10
56.7289
 20
4.9448
  0
SEQEND
  8
1
  0
POLYLINE
  8
1
 66
1
 70
0
  0
VERTEX
  8
1
 10
56.7289
 20
4.9448
  0
VERTEX
  8
1
 10
55.4613
 20
4.9448
  0
SEQEND
  8
1
  0
LINE
  8
7
 10
55.8589
 20
13.0786
 11
56.6463
 21
13.0786
  0
LINE
  8
5
 10
55.8589
 20
13.0786
 11
56.6463
 21
13.0786
  0
POLYLINE
  8
8
 66
1
 70
0
  0
VERTEX
  8
8
 10
55.8793
 20
17.7893
  0
VERTEX
  8
8
 10
55.8793
 20
14.4403
  0
VERTEX
  8
8
 10
56.2730
 20
14.4403
  0
SEQEND
  8
8
  0
POLYLINE
  8
14
 66
1
 70
0
  0
VERTEX
  8
14
 10
55.4652
 20
4.9487
  0
VERTEX
  8
14
 10
55.4652
 20
33.5332
  0
SEQEND
  8
14
  0
POLYLINE
  8
14
 66
1
 70
0
  0
VERTEX
  8
14
 10
55.4652
 20
33.5332
  0
VERTEX
  8
14
 10
56.7250
 20
33.5332
  0
SEQEND
  8
14
  0
POLYLINE
  8
14
 66
1
 70
0
  0
VERTEX
  8
14
 10
56.7250
 20
33.5332
  0
VERTEX
  8
14
 10
56.7250
 20
4.9487
  0
SEQEND
  8
14
  0
POLYLINE
  8
14
 66
1
 70
0
  0
VERTEX
  8
14
 10
56.7250
 20
4.9487
  0
VERTEX
  8
14
 10
55.4652
 20
4.9487
  0
SEQEND
  8
14
  0
ENDBLK
  0
BLOCK
  8
0
  2
GLX0926S16SBIA_48
 70
64
 10
0.0000
 20
0.0000
  0
TEXT
  8
1
 10
56.0951
 20
19.2409
 40
0.250
 50
0.0000
  1
Piece Name: GLX0926S16SBIA
  7
STANDARD
  0
TEXT
  8
1
 10
56.0951
 20
19.3809
 40
0.250
 50
0.0000
  1
SIZE: 48
  7
STANDARD
  0
POLYLINE
  8
1
 66
1
 70
0
  0
VERTEX
  8
1
 10
55.4613
 20
4.5162
  0
VERTEX
  8
1
 10
55.4613
 20
33.9656
  0
SEQEND
  8
1
  0
POLYLINE
  8
1
 66
1
 70
0
  0
VERTEX
  8
1
 10
55.4613
 20
33.9656
  0
VERTEX
  8
1
 10
56.7289
 20
33.9656
  0
SEQEND
  8
1
  0
POLYLINE
  8
1
 66
1
 70
0
  0
VERTEX
  8
1
 10
56.7289
 20
33.9656
  0
VERTEX
  8
1
 10
56.7289
 20
4.5162
  0
SEQEND
  8
1
  0
POLYLINE
  8
1
 66
1
 70
0
  0
VERTEX
  8
1
 10
56.7289
 20
4.5162
  0
VERTEX
  8
1
 10
55.4613
 20
4.5162
  0
SEQEND
  8
1
  0
LINE
  8
7
 10
55.8589
 20
12.6500
 11
56.6463
 21
12.6500
  0
LINE
  8
5
 10
55.8589
 20
12.6500
 11
56.6463
 21
12.6500
  0
POLYLINE
  8
8
 66
1
 70
0
  0
VERTEX
  8
8
 10
55.8793
 20
17.3608
  0
VERTEX
  8
8
 10
55.8793
 20
14.0117
  0
VERTEX
  8
8
 10
56.2730
 20
14.0117
  0
SEQEND
  8
8
  0
POLYLINE
  8
14
 66
1
 70
0
  0
VERTEX
  8
14
 10
55.4652
 20
4.5201
  0
VERTEX
  8
14
 10
55.4652
 20
33.9617
  0
SEQEND
  8
14
  0
POLYLINE
  8
14
 66
1
 70
0
  0
VERTEX
  8
14
 10
55.4652
 20
33.9617
  0
VERTEX
  8
14
 10
56.7250
 20
33.9617
  0
SEQEND
  8
14
  0
POLYLINE
  8
14
 66
1
 70
0
  0
VERTEX
  8
14
 10
56.7250
 20
33.9617
  0
VERTEX
  8
14
 10
56.7250
 20
4.5201
  0
SEQEND
  8
14
  0
POLYLINE
  8
14
 66
1
 70
0
  0
VERTEX
  8
14
 10
56.7250
 20
4.5201
  0
VERTEX
  8
14
 10
55.4652
 20
4.5201
  0
SEQEND
  8
14
  0
ENDBLK
  0
BLOCK
  8
0
  2
GLX0926S16SBIA_50
 70
64
 10
0.0000
 20
0.0000
  0
TEXT
  8
1
 10
56.0951
 20
19.2409
 40
0.250
 50
0.0000
  1
Piece Name: GLX0926S16SBIA
  7
STANDARD
  0
TEXT
  8
1
 10
56.0951
 20
19.3809
 40
0.250
 50
0.0000
  1
SIZE: 50
  7
STANDARD
  0
POLYLINE
  8
1
 66
1
 70
0
  0
VERTEX
  8
1
 10
55.4613
 20
4.0441
  0
VERTEX
  8
1
 10
55.4613
 20
34.4377
  0
SEQEND
  8
1
  0
POLYLINE
  8
1
 66
1
 70
0
  0
VERTEX
  8
1
 10
55.4613
 20
34.4377
  0
VERTEX
  8
1
 10
56.7289
 20
34.4377
  0
SEQEND
  8
1
  0
POLYLINE
  8
1
 66
1
 70
0
  0
VERTEX
  8
1
 10
56.7289
 20
34.4377
  0
VERTEX
  8
1
 10
56.7289
 20
4.0441
  0
SEQEND
  8
1
  0
POLYLINE
  8
1
 66
1
 70
0
  0
VERTEX
  8
1
 10
56.7289
 20
4.0441
  0
VERTEX
  8
1
 10
55.4613
 20
4.0441
  0
SEQEND
  8
1
  0
LINE
  8
7
 10
55.8589
 20
12.1779
 11
56.6463
 21
12.1779
  0
LINE
  8
5
 10
55.8589
 20
12.1779
 11
56.6463
 21
12.1779
  0
POLYLINE
  8
8
 66
1
 70
0
  0
VERTEX
  8
8
 10
55.8793
 20
16.8886
  0
VERTEX
  8
8
 10
55.8793
 20
13.5396
  0
VERTEX
  8
8
 10
56.2730
 20
13.5396
  0
SEQEND
  8
8
  0
POLYLINE
  8
14
 66
1
 70
0
  0
VERTEX
  8
14
 10
55.4652
 20
4.0480
  0
VERTEX
  8
14
 10
55.4652
 20
34.4338
  0
SEQEND
  8
14
  0
POLYLINE
  8
14
 66
1
 70
0
  0
VERTEX
  8
14
 10
55.4652
 20
34.4338
  0
VERTEX
  8
14
 10
56.7250
 20
34.4338
  0
SEQEND
  8
14
  0
POLYLINE
  8
14
 66
1
 70
0
  0
VERTEX
  8
14
 10
56.7250
 20
34.4338
  0
VERTEX
  8
14
 10
56.7250
 20
4.0480
  0
SEQEND
  8
14
  0
POLYLINE
  8
14
 66
1
 70
0
  0
VERTEX
  8
14
 10
56.7250
 20
4.0480
  0
VERTEX
  8
14
 10
55.4652
 20
4.0480
  0
SEQEND
  8
14
  0
ENDBLK
  0
BLOCK
  8
0
  2
GLX0926S16SBIA_52
 70
64
 10
0.0000
 20
0.0000
  0
TEXT
  8
1
 10
56.0951
 20
19.2409
 40
0.250
 50
0.0000
  1
Piece Name: GLX0926S16SBIA
  7
STANDARD
  0
TEXT
  8
1
 10
56.0951
 20
19.3809
 40
0.250
 50
0.0000
  1
SIZE: 52
  7
STANDARD
  0
POLYLINE
  8
1
 66
1
 70
0
  0
VERTEX
  8
1
 10
55.4613
 20
3.5675
  0
VERTEX
  8
1
 10
55.4613
 20
34.9143
  0
SEQEND
  8
1
  0
POLYLINE
  8
1
 66
1
 70
0
  0
VERTEX
  8
1
 10
55.4613
 20
34.9143
  0
VERTEX
  8
1
 10
56.7289
 20
34.9143
  0
SEQEND
  8
1
  0
POLYLINE
  8
1
 66
1
 70
0
  0
VERTEX
  8
1
 10
56.7289
 20
34.9143
  0
VERTEX
  8
1
 10
56.7289
 20
3.5675
  0
SEQEND
  8
1
  0
POLYLINE
  8
1
 66
1
 70
0
  0
VERTEX
  8
1
 10
56.7289
 20
3.5675
  0
VERTEX
  8
1
 10
55.4613
 20
3.5675
  0
SEQEND
  8
1
  0
LINE
  8
7
 10
55.8589
 20
11.7013
 11
56.6463
 21
11.7013
  0
LINE
  8
5
 10
55.8589
 20
11.7013
 11
56.6463
 21
11.7013
  0
POLYLINE
  8
8
 66
1
 70
0
  0
VERTEX
  8
8
 10
55.8793
 20
16.4120
  0
VERTEX
  8
8
 10
55.8793
 20
13.0630
  0
VERTEX
  8
8
 10
56.2730
 20
13.0630
  0
SEQEND
  8
8
  0
POLYLINE
  8
14
 66
1
 70
0
  0
VERTEX
  8
14
 10
55.4652
 20
3.5714
  0
VERTEX
  8
14
 10
55.4652
 20
34.9104
  0
SEQEND
  8
14
  0
POLYLINE
  8
14
 66
1
 70
0
  0
VERTEX
  8
14
 10
55.4652
 20
34.9104
  0
VERTEX
  8
14
 10
56.7250
 20
34.9104
  0
SEQEND
  8
14
  0
POLYLINE
  8
14
 66
1
 70
0
  0
VERTEX
  8
14
 10
56.7250
 20
34.9104
  0
VERTEX
  8
14
 10
56.7250
 20
3.5714
  0
SEQEND
  8
14
  0
POLYLINE
  8
14
 66
1
 70
0
  0
VERTEX
  8
14
 10
56.7250
 20
3.5714
  0
VERTEX
  8
14
 10
55.4652
 20
3.5714
  0
SEQEND
  8
14
  0
ENDBLK
  0
ENDSEC
  0
SECTION
  2
ENTITIES
  0
TEXT
  8
1
 10
0.0000
 20
0.0000
 40
0.250
 50
0.0000
  1
Style Name: GLX0926S16
  7
STANDARD
  0
TEXT
  8
1
 10
0.0000
 20
0.1400
 40
0.250
 50
0.0000
  1
Creation Date: 26-10-2017
  7
STANDARD
  0
TEXT
  8
1
 10
0.0000
 20
0.2800
 40
0.250
 50
0.0000
  1
Creation Time:  9:33
  7
STANDARD
  0
TEXT
  8
1
 10
0.0000
 20
0.4200
 40
0.250
 50
0.0000
  1
Author: GERBER TECHNOLOGY
  7
STANDARD
  0
TEXT
  8
1
 10
0.0000
 20
0.5600
 40
0.250
 50
0.0000
  1
PRODUCT: ACCUMARK
  7
STANDARD
  0
TEXT
  8
1
 10
0.0000
 20
0.7000
 40
0.250
 50
0.0000
  1
VERSION: 10.0.1
  7
STANDARD
  0
TEXT
  8
1
 10
0.0000
 20
0.8400
 40
0.250
 50
0.0000
  1
Sample Size: 36
  7
STANDARD
  0
TEXT
  8
1
 10
0.0000
 20
0.9800
 40
0.250
 50
0.0000
  1
Units: ENGLISH
  7
STANDARD
  0
TEXT
  8
1
 10
0.0000
 20
1.1200
 40
0.250
 50
0.0000
  1
TOLERANCE: .006
  7
STANDARD
  0
INSERT
  8
1
  2
GLX0926S16SBK_26
 10
0.0000
 20
0.0000
  0
INSERT
  8
1
  2
GLX0926S16SBK_28
 10
0.0000
 20
0.0000
  0
INSERT
  8
1
  2
GLX0926S16SBK_30
 10
0.0000
 20
0.0000
  0
INSERT
  8
1
  2
GLX0926S16SBK_32
 10
0.0000
 20
0.0000
  0
INSERT
  8
1
  2
GLX0926S16SBK_34
 10
0.0000
 20
0.0000
  0
INSERT
  8
1
  2
GLX0926S16SBK_36
 10
0.0000
 20
0.0000
  0
INSERT
  8
1
  2
GLX0926S16SBK_38
 10
0.0000
 20
0.0000
  0
INSERT
  8
1
  2
GLX0926S16SBK_40
 10
0.0000
 20
0.0000
  0
INSERT
  8
1
  2
GLX0926S16SBK_42
 10
0.0000
 20
0.0000
  0
INSERT
  8
1
  2
GLX0926S16SBK_44
 10
0.0000
 20
0.0000
  0
INSERT
  8
1
  2
GLX0926S16SBK_46
 10
0.0000
 20
0.0000
  0
INSERT
  8
1
  2
GLX0926S16SBK_48
 10
0.0000
 20
0.0000
  0
INSERT
  8
1
  2
GLX0926S16SBK_50
 10
0.0000
 20
0.0000
  0
INSERT
  8
1
  2
GLX0926S16SBK_52
 10
0.0000
 20
0.0000
  0
INSERT
  8
1
  2
GLX0926S16SFR_26
 10
0.0000
 20
0.0000
  0
INSERT
  8
1
  2
GLX0926S16SFR_28
 10
0.0000
 20
0.0000
  0
INSERT
  8
1
  2
GLX0926S16SFR_30
 10
0.0000
 20
0.0000
  0
INSERT
  8
1
  2
GLX0926S16SFR_32
 10
0.0000
 20
0.0000
  0
INSERT
  8
1
  2
GLX0926S16SFR_34
 10
0.0000
 20
0.0000
  0
INSERT
  8
1
  2
GLX0926S16SFR_36
 10
0.0000
 20
0.0000
  0
INSERT
  8
1
  2
GLX0926S16SFR_38
 10
0.0000
 20
0.0000
  0
INSERT
  8
1
  2
GLX0926S16SFR_40
 10
0.0000
 20
0.0000
  0
INSERT
  8
1
  2
GLX0926S16SFR_42
 10
0.0000
 20
0.0000
  0
INSERT
  8
1
  2
GLX0926S16SFR_44
 10
0.0000
 20
0.0000
  0
INSERT
  8
1
  2
GLX0926S16SFR_46
 10
0.0000
 20
0.0000
  0
INSERT
  8
1
  2
GLX0926S16SFR_48
 10
0.0000
 20
0.0000
  0
INSERT
  8
1
  2
GLX0926S16SFR_50
 10
0.0000
 20
0.0000
  0
INSERT
  8
1
  2
GLX0926S16SFR_52
 10
0.0000
 20
0.0000
  0
INSERT
  8
1
  2
GLX0926S16SBIN_26
 10
0.0000
 20
0.0000
  0
INSERT
  8
1
  2
GLX0926S16SBIN_28
 10
0.0000
 20
0.0000
  0
INSERT
  8
1
  2
GLX0926S16SBIN_30
 10
0.0000
 20
0.0000
  0
INSERT
  8
1
  2
GLX0926S16SBIN_32
 10
0.0000
 20
0.0000
  0
INSERT
  8
1
  2
GLX0926S16SBIN_34
 10
0.0000
 20
0.0000
  0
INSERT
  8
1
  2
GLX0926S16SBIN_36
 10
0.0000
 20
0.0000
  0
INSERT
  8
1
  2
GLX0926S16SBIN_38
 10
0.0000
 20
0.0000
  0
INSERT
  8
1
  2
GLX0926S16SBIN_40
 10
0.0000
 20
0.0000
  0
INSERT
  8
1
  2
GLX0926S16SBIN_42
 10
0.0000
 20
0.0000
  0
INSERT
  8
1
  2
GLX0926S16SBIN_44
 10
0.0000
 20
0.0000
  0
INSERT
  8
1
  2
GLX0926S16SBIN_46
 10
0.0000
 20
0.0000
  0
INSERT
  8
1
  2
GLX0926S16SBIN_48
 10
0.0000
 20
0.0000
  0
INSERT
  8
1
  2
GLX0926S16SBIN_50
 10
0.0000
 20
0.0000
  0
INSERT
  8
1
  2
GLX0926S16SBIN_52
 10
0.0000
 20
0.0000
  0
INSERT
  8
1
  2
GLX0926S16SBIA_26
 10
0.0000
 20
0.0000
  0
INSERT
  8
1
  2
GLX0926S16SBIA_28
 10
0.0000
 20
0.0000
  0
INSERT
  8
1
  2
GLX0926S16SBIA_30
 10
0.0000
 20
0.0000
  0
INSERT
  8
1
  2
GLX0926S16SBIA_32
 10
0.0000
 20
0.0000
  0
INSERT
  8
1
  2
GLX0926S16SBIA_34
 10
0.0000
 20
0.0000
  0
INSERT
  8
1
  2
GLX0926S16SBIA_36
 10
0.0000
 20
0.0000
  0
INSERT
  8
1
  2
GLX0926S16SBIA_38
 10
0.0000
 20
0.0000
  0
INSERT
  8
1
  2
GLX0926S16SBIA_40
 10
0.0000
 20
0.0000
  0
INSERT
  8
1
  2
GLX0926S16SBIA_42
 10
0.0000
 20
0.0000
  0
INSERT
  8
1
  2
GLX0926S16SBIA_44
 10
0.0000
 20
0.0000
  0
INSERT
  8
1
  2
GLX0926S16SBIA_46
 10
0.0000
 20
0.0000
  0
INSERT
  8
1
  2
GLX0926S16SBIA_48
 10
0.0000
 20
0.0000
  0
INSERT
  8
1
  2
GLX0926S16SBIA_50
 10
0.0000
 20
0.0000
  0
INSERT
  8
1
  2
GLX0926S16SBIA_52
 10
0.0000
 20
0.0000
  0
ENDSEC
  0
EOF
