  0
SECTION
  2
HEADER
  0
ENDSEC
  0
SECTION
  2
BLOCKS
  0
BLOCK
  8
0
  2
GLX0924S16_NEW_FR_26
 70
64
 10
0.0000
 20
0.0000
  0
TEXT
  8
1
 10
13.0585
 20
28.0904
 40
0.250
 50
0.0000
  1
Piece Name: GLX0924S16_NEW_FR
  7
STANDARD
  0
TEXT
  8
1
 10
13.0585
 20
28.2304
 40
0.250
 50
0.0000
  1
SIZE: 26
  7
STANDARD
  0
POLYLINE
  8
1
 66
1
 70
0
  0
VERTEX
  8
1
 10
20.2819
 20
31.6862
  0
VERTEX
  8
1
 10
20.3143
 20
30.7810
  0
VERTEX
  8
1
 10
20.5060
 20
30.0070
  0
VERTEX
  8
1
 10
20.8037
 20
29.4054
  0
VERTEX
  8
1
 10
21.2521
 20
28.9179
  0
VERTEX
  8
1
 10
21.8514
 20
28.5447
  0
VERTEX
  8
1
 10
22.7206
 20
28.2459
  0
VERTEX
  8
1
 10
23.7644
 20
28.0797
  0
VERTEX
  8
1
 10
24.3553
 20
28.0540
  0
SEQEND
  8
1
  0
POLYLINE
  8
1
 66
1
 70
0
  0
VERTEX
  8
1
 10
24.3553
 20
28.0540
  0
VERTEX
  8
1
 10
23.7687
 20
26.4148
  0
SEQEND
  8
1
  0
POLYLINE
  8
1
 66
1
 70
0
  0
VERTEX
  8
1
 10
23.7687
 20
26.4148
  0
VERTEX
  8
1
 10
23.5283
 20
26.4422
  0
SEQEND
  8
1
  0
POLYLINE
  8
1
 66
1
 70
0
  0
VERTEX
  8
1
 10
23.5283
 20
26.4422
  0
VERTEX
  8
1
 10
22.7366
 20
26.5253
  0
VERTEX
  8
1
 10
21.4484
 20
26.5531
  0
VERTEX
  8
1
 10
20.3172
 20
26.4505
  0
VERTEX
  8
1
 10
19.4733
 20
26.2493
  0
VERTEX
  8
1
 10
18.7659
 20
25.9350
  0
VERTEX
  8
1
 10
18.2964
 20
25.5983
  0
VERTEX
  8
1
 10
18.2049
 20
25.5567
  0
VERTEX
  8
1
 10
17.7795
 20
25.2760
  0
VERTEX
  8
1
 10
17.4266
 20
24.8929
  0
SEQEND
  8
1
  0
POLYLINE
  8
1
 66
1
 70
0
  0
VERTEX
  8
1
 10
17.4266
 20
24.8929
  0
VERTEX
  8
1
 10
16.6395
 20
24.8926
  0
VERTEX
  8
1
 10
11.6875
 20
25.5576
  0
VERTEX
  8
1
 10
10.2343
 20
25.6780
  0
VERTEX
  8
1
 10
7.6141
 20
25.0651
  0
VERTEX
  8
1
 10
3.2935
 20
24.5546
  0
VERTEX
  8
1
 10
2.5514
 20
24.4946
  0
SEQEND
  8
1
  0
POLYLINE
  8
1
 66
1
 70
0
  0
VERTEX
  8
1
 10
2.5514
 20
24.4946
  0
VERTEX
  8
1
 10
1.7992
 20
30.4541
  0
VERTEX
  8
1
 10
1.7617
 20
31.6800
  0
SEQEND
  8
1
  0
POLYLINE
  8
1
 66
1
 70
0
  0
VERTEX
  8
1
 10
1.7617
 20
31.6800
  0
VERTEX
  8
1
 10
20.2819
 20
31.6862
  0
SEQEND
  8
1
  0
LINE
  8
7
 10
6.8056
 20
27.3509
 11
18.8593
 21
27.3553
  0
LINE
  8
5
 10
6.8056
 20
27.3509
 11
18.8593
 21
27.3553
  0
LINE
  8
8
 10
1.5672
 20
23.0179
 11
1.5641
 21
31.6802
  0
LINE
  8
8
 10
9.9364
 20
31.6829
 11
9.9391
 21
24.2015
  0
LINE
  8
8
 10
16.6368
 20
31.6850
 11
16.6398
 21
23.4166
  0
LINE
  8
8
 10
17.7188
 20
27.5491
 11
17.7184
 21
28.9270
  0
LINE
  8
8
 10
17.7184
 20
28.9270
 11
18.6239
 21
28.9275
  0
LINE
  8
8
 10
18.6239
 20
28.9275
 11
18.6244
 21
27.5491
  0
LINE
  8
8
 10
18.6244
 20
27.5491
 11
17.7188
 21
27.5491
  0
LINE
  8
8
 10
25.7651
 20
27.9493
 11
25.7638
 21
31.6881
  0
LINE
  8
8
 10
20.7739
 20
31.6863
 11
25.7638
 21
31.6881
  0
LINE
  8
6
 10
1.7617
 20
31.6800
 11
20.2819
 21
31.6862
  0
ENDBLK
  0
BLOCK
  8
0
  2
GLX0924S16_NEW_FR_28
 70
64
 10
0.0000
 20
0.0000
  0
TEXT
  8
1
 10
13.0388
 20
27.9427
 40
0.250
 50
0.0000
  1
Piece Name: GLX0924S16_NEW_FR
  7
STANDARD
  0
TEXT
  8
1
 10
13.0388
 20
28.0827
 40
0.250
 50
0.0000
  1
SIZE: 28
  7
STANDARD
  0
POLYLINE
  8
1
 66
1
 70
0
  0
VERTEX
  8
1
 10
20.3803
 20
31.6862
  0
VERTEX
  8
1
 10
20.4139
 20
30.7714
  0
VERTEX
  8
1
 10
20.6084
 20
29.9893
  0
VERTEX
  8
1
 10
20.9212
 20
29.3730
  0
VERTEX
  8
1
 10
21.3879
 20
28.8756
  0
VERTEX
  8
1
 10
22.0089
 20
28.4976
  0
VERTEX
  8
1
 10
22.8792
 20
28.2067
  0
VERTEX
  8
1
 10
23.9226
 20
28.0499
  0
VERTEX
  8
1
 10
24.5128
 20
28.0293
  0
SEQEND
  8
1
  0
POLYLINE
  8
1
 66
1
 70
0
  0
VERTEX
  8
1
 10
24.5128
 20
28.0293
  0
VERTEX
  8
1
 10
23.9262
 20
26.3901
  0
SEQEND
  8
1
  0
POLYLINE
  8
1
 66
1
 70
0
  0
VERTEX
  8
1
 10
23.9262
 20
26.3901
  0
VERTEX
  8
1
 10
23.6828
 20
26.4156
  0
SEQEND
  8
1
  0
POLYLINE
  8
1
 66
1
 70
0
  0
VERTEX
  8
1
 10
23.6828
 20
26.4156
  0
VERTEX
  8
1
 10
22.8814
 20
26.4926
  0
VERTEX
  8
1
 10
21.5784
 20
26.5093
  0
VERTEX
  8
1
 10
20.4353
 20
26.3955
  0
VERTEX
  8
1
 10
19.5496
 20
26.1760
  0
VERTEX
  8
1
 10
18.8085
 20
25.8390
  0
VERTEX
  8
1
 10
18.3178
 20
25.4805
  0
VERTEX
  8
1
 10
18.2205
 20
25.4240
  0
VERTEX
  8
1
 10
17.7774
 20
25.0639
  0
VERTEX
  8
1
 10
17.4267
 20
24.5977
  0
SEQEND
  8
1
  0
POLYLINE
  8
1
 66
1
 70
0
  0
VERTEX
  8
1
 10
17.4267
 20
24.5977
  0
VERTEX
  8
1
 10
16.6396
 20
24.5974
  0
VERTEX
  8
1
 10
11.6419
 20
25.2629
  0
VERTEX
  8
1
 10
10.1752
 20
25.3827
  0
VERTEX
  8
1
 10
7.5076
 20
24.7661
  0
VERTEX
  8
1
 10
3.1099
 20
24.2583
  0
VERTEX
  8
1
 10
2.3546
 20
24.1992
  0
SEQEND
  8
1
  0
POLYLINE
  8
1
 66
1
 70
0
  0
VERTEX
  8
1
 10
2.3546
 20
24.1992
  0
VERTEX
  8
1
 10
1.6023
 20
30.4541
  0
VERTEX
  8
1
 10
1.5648
 20
31.6800
  0
SEQEND
  8
1
  0
POLYLINE
  8
1
 66
1
 70
0
  0
VERTEX
  8
1
 10
1.5648
 20
31.6800
  0
VERTEX
  8
1
 10
20.3803
 20
31.6862
  0
SEQEND
  8
1
  0
LINE
  8
7
 10
6.8056
 20
27.3509
 11
18.8593
 21
27.3553
  0
LINE
  8
5
 10
6.8056
 20
27.3509
 11
18.8593
 21
27.3553
  0
LINE
  8
8
 10
1.5672
 20
23.0179
 11
1.5641
 21
31.6802
  0
LINE
  8
8
 10
9.9364
 20
31.6829
 11
9.9391
 21
24.2015
  0
LINE
  8
8
 10
16.6368
 20
31.6850
 11
16.6398
 21
23.4166
  0
LINE
  8
8
 10
17.7188
 20
27.5491
 11
17.7184
 21
28.9270
  0
LINE
  8
8
 10
17.7184
 20
28.9270
 11
18.6239
 21
28.9275
  0
LINE
  8
8
 10
18.6239
 20
28.9275
 11
18.6244
 21
27.5491
  0
LINE
  8
8
 10
18.6244
 20
27.5491
 11
17.7188
 21
27.5491
  0
LINE
  8
8
 10
25.7651
 20
27.9493
 11
25.7638
 21
31.6881
  0
LINE
  8
8
 10
20.7739
 20
31.6863
 11
25.7638
 21
31.6881
  0
LINE
  8
6
 10
1.5648
 20
31.6800
 11
20.3803
 21
31.6862
  0
ENDBLK
  0
BLOCK
  8
0
  2
GLX0924S16_NEW_FR_30
 70
64
 10
0.0000
 20
0.0000
  0
TEXT
  8
1
 10
13.1172
 20
27.7951
 40
0.250
 50
0.0000
  1
Piece Name: GLX0924S16_NEW_FR
  7
STANDARD
  0
TEXT
  8
1
 10
13.1172
 20
27.9351
 40
0.250
 50
0.0000
  1
SIZE: 30
  7
STANDARD
  0
POLYLINE
  8
1
 66
1
 70
0
  0
VERTEX
  8
1
 10
20.5768
 20
31.6863
  0
VERTEX
  8
1
 10
20.6116
 20
30.7618
  0
VERTEX
  8
1
 10
20.8089
 20
29.9716
  0
VERTEX
  8
1
 10
21.1367
 20
29.3405
  0
VERTEX
  8
1
 10
21.6218
 20
28.8334
  0
VERTEX
  8
1
 10
22.2645
 20
28.4504
  0
VERTEX
  8
1
 10
23.1359
 20
28.1676
  0
VERTEX
  8
1
 10
24.1790
 20
28.0200
  0
VERTEX
  8
1
 10
24.7684
 20
28.0045
  0
SEQEND
  8
1
  0
POLYLINE
  8
1
 66
1
 70
0
  0
VERTEX
  8
1
 10
24.7684
 20
28.0045
  0
VERTEX
  8
1
 10
24.1818
 20
26.3653
  0
SEQEND
  8
1
  0
POLYLINE
  8
1
 66
1
 70
0
  0
VERTEX
  8
1
 10
24.1818
 20
26.3653
  0
VERTEX
  8
1
 10
23.9354
 20
26.3889
  0
SEQEND
  8
1
  0
POLYLINE
  8
1
 66
1
 70
0
  0
VERTEX
  8
1
 10
23.9354
 20
26.3889
  0
VERTEX
  8
1
 10
23.1244
 20
26.4599
  0
VERTEX
  8
1
 10
21.8065
 20
26.4654
  0
VERTEX
  8
1
 10
20.6515
 20
26.3404
  0
VERTEX
  8
1
 10
19.7147
 20
26.1024
  0
VERTEX
  8
1
 10
18.9319
 20
25.7408
  0
VERTEX
  8
1
 10
18.4143
 20
25.3580
  0
VERTEX
  8
1
 10
18.3133
 20
25.2865
  0
VERTEX
  8
1
 10
17.8632
 20
24.8481
  0
VERTEX
  8
1
 10
17.5249
 20
24.3025
  0
SEQEND
  8
1
  0
POLYLINE
  8
1
 66
1
 70
0
  0
VERTEX
  8
1
 10
17.5249
 20
24.3025
  0
VERTEX
  8
1
 10
16.7378
 20
24.3022
  0
VERTEX
  8
1
 10
11.6942
 20
24.9681
  0
VERTEX
  8
1
 10
10.2143
 20
25.0874
  0
VERTEX
  8
1
 10
7.4990
 20
24.4671
  0
VERTEX
  8
1
 10
3.0243
 20
23.9621
  0
VERTEX
  8
1
 10
2.2558
 20
23.9039
  0
SEQEND
  8
1
  0
POLYLINE
  8
1
 66
1
 70
0
  0
VERTEX
  8
1
 10
2.2558
 20
23.9039
  0
VERTEX
  8
1
 10
1.5035
 20
30.4540
  0
VERTEX
  8
1
 10
1.4660
 20
31.6799
  0
SEQEND
  8
1
  0
POLYLINE
  8
1
 66
1
 70
0
  0
VERTEX
  8
1
 10
1.4660
 20
31.6799
  0
VERTEX
  8
1
 10
20.5768
 20
31.6863
  0
SEQEND
  8
1
  0
LINE
  8
7
 10
6.9037
 20
27.3509
 11
18.9574
 21
27.3553
  0
LINE
  8
5
 10
6.9037
 20
27.3509
 11
18.9574
 21
27.3553
  0
LINE
  8
8
 10
1.6653
 20
23.0179
 11
1.6622
 21
31.6802
  0
LINE
  8
8
 10
10.0345
 20
31.6829
 11
10.0372
 21
24.2015
  0
LINE
  8
8
 10
16.7349
 20
31.6850
 11
16.7379
 21
23.4166
  0
LINE
  8
8
 10
17.8169
 20
27.5491
 11
17.8165
 21
28.9270
  0
LINE
  8
8
 10
17.8165
 20
28.9270
 11
18.7220
 21
28.9275
  0
LINE
  8
8
 10
18.7220
 20
28.9275
 11
18.7225
 21
27.5491
  0
LINE
  8
8
 10
18.7225
 20
27.5491
 11
17.8169
 21
27.5491
  0
LINE
  8
8
 10
25.8632
 20
27.9493
 11
25.8619
 21
31.6881
  0
LINE
  8
8
 10
20.8720
 20
31.6863
 11
25.8619
 21
31.6881
  0
LINE
  8
6
 10
1.4660
 20
31.6799
 11
20.5768
 21
31.6863
  0
ENDBLK
  0
BLOCK
  8
0
  2
GLX0924S16_NEW_FR_32
 70
64
 10
0.0000
 20
0.0000
  0
TEXT
  8
1
 10
13.1959
 20
27.6474
 40
0.250
 50
0.0000
  1
Piece Name: GLX0924S16_NEW_FR
  7
STANDARD
  0
TEXT
  8
1
 10
13.1959
 20
27.7874
 40
0.250
 50
0.0000
  1
SIZE: 32
  7
STANDARD
  0
POLYLINE
  8
1
 66
1
 70
0
  0
VERTEX
  8
1
 10
20.7736
 20
31.6863
  0
VERTEX
  8
1
 10
20.8096
 20
30.7522
  0
VERTEX
  8
1
 10
21.0098
 20
29.9539
  0
VERTEX
  8
1
 10
21.3527
 20
29.3080
  0
VERTEX
  8
1
 10
21.8562
 20
28.7911
  0
VERTEX
  8
1
 10
22.5205
 20
28.4032
  0
VERTEX
  8
1
 10
23.3929
 20
28.1284
  0
VERTEX
  8
1
 10
24.4358
 20
27.9900
  0
VERTEX
  8
1
 10
25.0244
 20
27.9797
  0
SEQEND
  8
1
  0
POLYLINE
  8
1
 66
1
 70
0
  0
VERTEX
  8
1
 10
25.0244
 20
27.9797
  0
VERTEX
  8
1
 10
24.4378
 20
26.3405
  0
SEQEND
  8
1
  0
POLYLINE
  8
1
 66
1
 70
0
  0
VERTEX
  8
1
 10
24.4378
 20
26.3405
  0
VERTEX
  8
1
 10
24.1885
 20
26.3624
  0
SEQEND
  8
1
  0
POLYLINE
  8
1
 66
1
 70
0
  0
VERTEX
  8
1
 10
24.1885
 20
26.3624
  0
VERTEX
  8
1
 10
23.3677
 20
26.4272
  0
VERTEX
  8
1
 10
22.0350
 20
26.4215
  0
VERTEX
  8
1
 10
20.8681
 20
26.2853
  0
VERTEX
  8
1
 10
19.9103
 20
26.0339
  0
VERTEX
  8
1
 10
19.1111
 20
25.6572
  0
VERTEX
  8
1
 10
18.5840
 20
25.2609
  0
VERTEX
  8
1
 10
18.4722
 20
25.1738
  0
VERTEX
  8
1
 10
17.9811
 20
24.6489
  0
VERTEX
  8
1
 10
17.6234
 20
24.0073
  0
SEQEND
  8
1
  0
POLYLINE
  8
1
 66
1
 70
0
  0
VERTEX
  8
1
 10
17.6234
 20
24.0073
  0
VERTEX
  8
1
 10
16.8363
 20
24.0070
  0
VERTEX
  8
1
 10
11.7470
 20
24.6734
  0
VERTEX
  8
1
 10
10.2537
 20
24.7921
  0
VERTEX
  8
1
 10
7.4909
 20
24.1681
  0
VERTEX
  8
1
 10
2.9390
 20
23.6657
  0
VERTEX
  8
1
 10
2.1574
 20
23.6086
  0
SEQEND
  8
1
  0
POLYLINE
  8
1
 66
1
 70
0
  0
VERTEX
  8
1
 10
2.1574
 20
23.6086
  0
VERTEX
  8
1
 10
1.4051
 20
30.4540
  0
VERTEX
  8
1
 10
1.3675
 20
31.6799
  0
SEQEND
  8
1
  0
POLYLINE
  8
1
 66
1
 70
0
  0
VERTEX
  8
1
 10
1.3675
 20
31.6799
  0
VERTEX
  8
1
 10
20.7736
 20
31.6863
  0
SEQEND
  8
1
  0
LINE
  8
7
 10
7.0022
 20
27.3509
 11
19.0559
 21
27.3553
  0
LINE
  8
5
 10
7.0022
 20
27.3509
 11
19.0559
 21
27.3553
  0
LINE
  8
8
 10
1.7638
 20
23.0179
 11
1.7606
 21
31.6802
  0
LINE
  8
8
 10
10.1329
 20
31.6829
 11
10.1356
 21
24.2015
  0
LINE
  8
8
 10
16.8333
 20
31.6850
 11
16.8364
 21
23.4166
  0
LINE
  8
8
 10
17.9154
 20
27.5491
 11
17.9150
 21
28.9270
  0
LINE
  8
8
 10
17.9150
 20
28.9270
 11
18.8205
 21
28.9275
  0
LINE
  8
8
 10
18.8205
 20
28.9275
 11
18.8210
 21
27.5491
  0
LINE
  8
8
 10
18.8210
 20
27.5491
 11
17.9154
 21
27.5491
  0
LINE
  8
8
 10
25.9617
 20
27.9493
 11
25.9603
 21
31.6881
  0
LINE
  8
8
 10
20.9704
 20
31.6863
 11
25.9603
 21
31.6881
  0
LINE
  8
6
 10
1.3675
 20
31.6799
 11
20.7736
 21
31.6863
  0
ENDBLK
  0
BLOCK
  8
0
  2
GLX0924S16_NEW_FR_34
 70
64
 10
0.0000
 20
0.0000
  0
TEXT
  8
1
 10
13.2747
 20
27.4997
 40
0.250
 50
0.0000
  1
Piece Name: GLX0924S16_NEW_FR
  7
STANDARD
  0
TEXT
  8
1
 10
13.2747
 20
27.6397
 40
0.250
 50
0.0000
  1
SIZE: 34
  7
STANDARD
  0
POLYLINE
  8
1
 66
1
 70
0
  0
VERTEX
  8
1
 10
20.9705
 20
31.6863
  0
VERTEX
  8
1
 10
21.0077
 20
30.7426
  0
VERTEX
  8
1
 10
21.2106
 20
29.9363
  0
VERTEX
  8
1
 10
21.5687
 20
29.2755
  0
VERTEX
  8
1
 10
22.0905
 20
28.7488
  0
VERTEX
  8
1
 10
22.7764
 20
28.3561
  0
VERTEX
  8
1
 10
23.6500
 20
28.0892
  0
VERTEX
  8
1
 10
24.6925
 20
27.9601
  0
VERTEX
  8
1
 10
25.2803
 20
27.9550
  0
SEQEND
  8
1
  0
POLYLINE
  8
1
 66
1
 70
0
  0
VERTEX
  8
1
 10
25.2803
 20
27.9550
  0
VERTEX
  8
1
 10
24.6938
 20
26.3157
  0
SEQEND
  8
1
  0
POLYLINE
  8
1
 66
1
 70
0
  0
VERTEX
  8
1
 10
24.6938
 20
26.3157
  0
VERTEX
  8
1
 10
24.4414
 20
26.3358
  0
SEQEND
  8
1
  0
POLYLINE
  8
1
 66
1
 70
0
  0
VERTEX
  8
1
 10
24.4414
 20
26.3358
  0
VERTEX
  8
1
 10
23.6109
 20
26.3945
  0
VERTEX
  8
1
 10
22.2634
 20
26.3777
  0
VERTEX
  8
1
 10
21.0847
 20
26.2302
  0
VERTEX
  8
1
 10
20.0814
 20
25.9592
  0
VERTEX
  8
1
 10
19.2457
 20
25.5579
  0
VERTEX
  8
1
 10
18.6955
 20
25.1379
  0
VERTEX
  8
1
 10
18.5787
 20
25.0362
  0
VERTEX
  8
1
 10
18.0740
 20
24.4338
  0
VERTEX
  8
1
 10
17.7219
 20
23.7121
  0
SEQEND
  8
1
  0
POLYLINE
  8
1
 66
1
 70
0
  0
VERTEX
  8
1
 10
17.7219
 20
23.7121
  0
VERTEX
  8
1
 10
16.9348
 20
23.7118
  0
VERTEX
  8
1
 10
11.7997
 20
24.3786
  0
VERTEX
  8
1
 10
10.2931
 20
24.4968
  0
VERTEX
  8
1
 10
7.4827
 20
23.8691
  0
VERTEX
  8
1
 10
2.8538
 20
23.3695
  0
VERTEX
  8
1
 10
2.0590
 20
23.3132
  0
SEQEND
  8
1
  0
POLYLINE
  8
1
 66
1
 70
0
  0
VERTEX
  8
1
 10
2.0590
 20
23.3132
  0
VERTEX
  8
1
 10
1.3066
 20
30.4540
  0
VERTEX
  8
1
 10
1.2691
 20
31.6799
  0
SEQEND
  8
1
  0
POLYLINE
  8
1
 66
1
 70
0
  0
VERTEX
  8
1
 10
1.2691
 20
31.6799
  0
VERTEX
  8
1
 10
20.9705
 20
31.6863
  0
SEQEND
  8
1
  0
LINE
  8
7
 10
7.1006
 20
27.3509
 11
19.1543
 21
27.3553
  0
LINE
  8
5
 10
7.1006
 20
27.3509
 11
19.1543
 21
27.3553
  0
LINE
  8
8
 10
1.8622
 20
23.0179
 11
1.8591
 21
31.6802
  0
LINE
  8
8
 10
10.2314
 20
31.6829
 11
10.2341
 21
24.2015
  0
LINE
  8
8
 10
16.9318
 20
31.6850
 11
16.9348
 21
23.4166
  0
LINE
  8
8
 10
18.0138
 20
27.5491
 11
18.0134
 21
28.9270
  0
LINE
  8
8
 10
18.0134
 20
28.9270
 11
18.9189
 21
28.9275
  0
LINE
  8
8
 10
18.9189
 20
28.9275
 11
18.9194
 21
27.5491
  0
LINE
  8
8
 10
18.9194
 20
27.5491
 11
18.0138
 21
27.5491
  0
LINE
  8
8
 10
26.0601
 20
27.9493
 11
26.0588
 21
31.6881
  0
LINE
  8
8
 10
21.0689
 20
31.6863
 11
26.0588
 21
31.6881
  0
LINE
  8
6
 10
1.2691
 20
31.6799
 11
20.9705
 21
31.6863
  0
ENDBLK
  0
BLOCK
  8
0
  2
GLX0924S16_NEW_FR_36
 70
64
 10
0.0000
 20
0.0000
  0
TEXT
  8
1
 10
13.3534
 20
27.3521
 40
0.250
 50
0.0000
  1
Piece Name: GLX0924S16_NEW_FR
  7
STANDARD
  0
TEXT
  8
1
 10
13.3534
 20
27.4921
 40
0.250
 50
0.0000
  1
Quantity: 1
  7
STANDARD
  0
TEXT
  8
1
 10
13.3534
 20
27.6321
 40
0.250
 50
0.0000
  1
ANNOTATION: 1X FABRIC
  7
STANDARD
  0
TEXT
  8
1
 10
13.3534
 20
27.7721
 40
0.250
 50
0.0000
  1
CATEGORY: FRONT
  7
STANDARD
  0
TEXT
  8
1
 10
13.3534
 20
27.9121
 40
0.250
 50
0.0000
  1
SIZE: 36
  7
STANDARD
  0
POLYLINE
  8
1
 66
1
 70
0
  0
VERTEX
  8
1
 10
21.1673
 20
31.6863
  0
VERTEX
  8
1
 10
21.2058
 20
30.7330
  0
VERTEX
  8
1
 10
21.4115
 20
29.9186
  0
VERTEX
  8
1
 10
21.7846
 20
29.2431
  0
VERTEX
  8
1
 10
22.3248
 20
28.7066
  0
VERTEX
  8
1
 10
23.0324
 20
28.3089
  0
VERTEX
  8
1
 10
23.9072
 20
28.0501
  0
VERTEX
  8
1
 10
24.9493
 20
27.9303
  0
VERTEX
  8
1
 10
25.5363
 20
27.9302
  0
SEQEND
  8
1
  0
POINT
  8
4
 10
21.1673
 20
31.6863
 30
0.1574
 39
0.0000
  0
POINT
  8
2
 10
21.1673
 20
31.6863
  0
TEXT
  8
2
 10
21.1673
 20
31.6863
 40
0.250
 50
0.0000
  1
# 80
  7
STANDARD
  0
POINT
  8
3
 10
21.2058
 20
30.7330
  0
POINT
  8
3
 10
21.4115
 20
29.9186
  0
TEXT
  8
3
 10
21.4115
 20
29.9186
 40
0.250
 50
0.0000
  1
# 392
  7
STANDARD
  0
POINT
  8
3
 10
21.7846
 20
29.2431
  0
POINT
  8
3
 10
22.3248
 20
28.7066
  0
POINT
  8
3
 10
23.0324
 20
28.3089
  0
TEXT
  8
3
 10
23.0324
 20
28.3089
 40
0.250
 50
0.0000
  1
# 331
  7
STANDARD
  0
POINT
  8
3
 10
23.9072
 20
28.0501
  0
POINT
  8
3
 10
24.9493
 20
27.9303
  0
POINT
  8
2
 10
25.5363
 20
27.9302
  0
TEXT
  8
2
 10
25.5363
 20
27.9302
 40
0.250
 50
0.0000
  1
# 332
  7
STANDARD
  0
POLYLINE
  8
1
 66
1
 70
0
  0
VERTEX
  8
1
 10
25.5363
 20
27.9302
  0
VERTEX
  8
1
 10
24.9497
 20
26.2910
  0
SEQEND
  8
1
  0
POINT
  8
2
 10
25.5363
 20
27.9302
  0
TEXT
  8
2
 10
25.5363
 20
27.9302
 40
0.250
 50
0.0000
  1
# 332
  7
STANDARD
  0
POINT
  8
2
 10
24.9497
 20
26.2910
  0
TEXT
  8
2
 10
24.9497
 20
26.2910
 40
0.250
 50
0.0000
  1
# 333
  7
STANDARD
  0
POLYLINE
  8
1
 66
1
 70
0
  0
VERTEX
  8
1
 10
24.9497
 20
26.2910
  0
VERTEX
  8
1
 10
24.6945
 20
26.3092
  0
SEQEND
  8
1
  0
POINT
  8
2
 10
24.9497
 20
26.2910
  0
TEXT
  8
2
 10
24.9497
 20
26.2910
 40
0.250
 50
0.0000
  1
# 333
  7
STANDARD
  0
POINT
  8
2
 10
24.6945
 20
26.3092
  0
TEXT
  8
2
 10
24.6945
 20
26.3092
 40
0.250
 50
0.0000
  1
# 1
  7
STANDARD
  0
POLYLINE
  8
1
 66
1
 70
0
  0
VERTEX
  8
1
 10
24.6945
 20
26.3092
  0
VERTEX
  8
1
 10
23.8543
 20
26.3619
  0
VERTEX
  8
1
 10
22.4919
 20
26.3339
  0
VERTEX
  8
1
 10
21.3012
 20
26.1751
  0
VERTEX
  8
1
 10
20.2824
 20
25.8857
  0
VERTEX
  8
1
 10
19.4360
 20
25.4657
  0
VERTEX
  8
1
 10
18.8808
 20
25.0305
  0
VERTEX
  8
1
 10
18.7523
 20
24.9144
  0
VERTEX
  8
1
 10
18.1999
 20
24.2309
  0
VERTEX
  8
1
 10
17.8204
 20
23.4169
  0
SEQEND
  8
1
  0
POINT
  8
2
 10
24.6945
 20
26.3092
  0
POINT
  8
3
 10
23.8543
 20
26.3619
  0
POINT
  8
3
 10
22.4919
 20
26.3339
  0
POINT
  8
3
 10
21.3012
 20
26.1751
  0
TEXT
  8
3
 10
21.3012
 20
26.1751
 40
0.250
 50
0.0000
  1
# 673
  7
STANDARD
  0
POINT
  8
3
 10
20.2824
 20
25.8857
  0
POINT
  8
3
 10
19.4360
 20
25.4657
  0
POINT
  8
3
 10
18.8808
 20
25.0305
  0
TEXT
  8
3
 10
18.8808
 20
25.0305
 40
0.250
 50
0.0000
  1
# 403
  7
STANDARD
  0
POINT
  8
3
 10
18.7523
 20
24.9144
  0
POINT
  8
3
 10
18.1999
 20
24.2309
  0
POINT
  8
2
 10
17.8204
 20
23.4169
  0
TEXT
  8
2
 10
17.8204
 20
23.4169
 40
0.250
 50
0.0000
  1
# 11
  7
STANDARD
  0
POLYLINE
  8
1
 66
1
 70
0
  0
VERTEX
  8
1
 10
17.8204
 20
23.4169
  0
VERTEX
  8
1
 10
17.0333
 20
23.4166
  0
VERTEX
  8
1
 10
11.8525
 20
24.0839
  0
VERTEX
  8
1
 10
10.3325
 20
24.2015
  0
VERTEX
  8
1
 10
7.4746
 20
23.5702
  0
VERTEX
  8
1
 10
2.7686
 20
23.0732
  0
VERTEX
  8
1
 10
1.9607
 20
23.0179
  0
SEQEND
  8
1
  0
POINT
  8
2
 10
17.8204
 20
23.4169
  0
TEXT
  8
2
 10
17.8204
 20
23.4169
 40
0.250
 50
0.0000
  1
# 11
  7
STANDARD
  0
POINT
  8
2
 10
17.0333
 20
23.4166
  0
TEXT
  8
2
 10
17.0333
 20
23.4166
 40
0.250
 50
0.0000
  1
# 11
  7
STANDARD
  0
POINT
  8
3
 10
11.8525
 20
24.0839
  0
POINT
  8
4
 10
10.3325
 20
24.2015
 30
0.1574
 39
0.0000
  0
POINT
  8
2
 10
10.3325
 20
24.2015
  0
TEXT
  8
2
 10
10.3325
 20
24.2015
 40
0.250
 50
0.0000
  1
# 400
  7
STANDARD
  0
POINT
  8
3
 10
7.4746
 20
23.5702
  0
POINT
  8
3
 10
2.7686
 20
23.0732
  0
POINT
  8
2
 10
1.9607
 20
23.0179
  0
TEXT
  8
2
 10
1.9607
 20
23.0179
 40
0.250
 50
0.0000
  1
# 13
  7
STANDARD
  0
POLYLINE
  8
1
 66
1
 70
0
  0
VERTEX
  8
1
 10
1.9607
 20
23.0179
  0
VERTEX
  8
1
 10
1.2082
 20
30.4539
  0
VERTEX
  8
1
 10
1.1706
 20
31.6798
  0
SEQEND
  8
1
  0
POINT
  8
2
 10
1.9607
 20
23.0179
  0
TEXT
  8
2
 10
1.9607
 20
23.0179
 40
0.250
 50
0.0000
  1
# 13
  7
STANDARD
  0
POINT
  8
3
 10
1.2082
 20
30.4539
  0
TEXT
  8
3
 10
1.2082
 20
30.4539
 40
0.250
 50
0.0000
  1
# 14
  7
STANDARD
  0
POINT
  8
4
 10
1.1706
 20
31.6798
 30
0.1574
 39
0.0000
  0
POINT
  8
2
 10
1.1706
 20
31.6798
  0
TEXT
  8
2
 10
1.1706
 20
31.6798
 40
0.250
 50
0.0000
  1
# 14
  7
STANDARD
  0
POLYLINE
  8
1
 66
1
 70
0
  0
VERTEX
  8
1
 10
1.1706
 20
31.6798
  0
VERTEX
  8
1
 10
21.1673
 20
31.6863
  0
SEQEND
  8
1
  0
POINT
  8
4
 10
1.1706
 20
31.6798
 30
0.1574
 39
0.0000
  0
POINT
  8
2
 10
1.1706
 20
31.6798
  0
TEXT
  8
2
 10
1.1706
 20
31.6798
 40
0.250
 50
0.0000
  1
# 14
  7
STANDARD
  0
LINE
  8
7
 10
7.1991
 20
27.3509
 11
19.2528
 21
27.3553
  0
LINE
  8
5
 10
7.1991
 20
27.3509
 11
19.2528
 21
27.3553
  0
POINT
  8
2
 10
7.1991
 20
27.3509
  0
POINT
  8
2
 10
19.2528
 20
27.3553
  0
LINE
  8
8
 10
1.9607
 20
23.0179
 11
1.9575
 21
31.6802
  0
TEXT
  8
8
 10
1.9607
 20
23.0179
 40
0.250
 50
0.0000
  1
O
  7
STANDARD
  0
POINT
  8
2
 10
1.9607
 20
23.0179
  0
POINT
  8
2
 10
1.9575
 20
31.6802
  0
LINE
  8
8
 10
10.3298
 20
31.6829
 11
10.3325
 21
24.2015
  0
TEXT
  8
8
 10
10.3298
 20
31.6829
 40
0.250
 50
0.0000
  1
O
  7
STANDARD
  0
POINT
  8
2
 10
10.3298
 20
31.6829
  0
POINT
  8
2
 10
10.3325
 20
24.2015
  0
LINE
  8
8
 10
17.0302
 20
31.6850
 11
17.0333
 21
23.4166
  0
TEXT
  8
8
 10
17.0302
 20
31.6850
 40
0.250
 50
0.0000
  1
O
  7
STANDARD
  0
POINT
  8
2
 10
17.0302
 20
31.6850
  0
POINT
  8
2
 10
17.0333
 20
23.4166
  0
LINE
  8
8
 10
18.1123
 20
27.5491
 11
18.1119
 21
28.9270
  0
TEXT
  8
8
 10
18.1123
 20
27.5491
 40
0.250
 50
0.0000
  1
NM
  7
STANDARD
  0
POINT
  8
2
 10
18.1123
 20
27.5491
  0
POINT
  8
2
 10
18.1119
 20
28.9270
  0
LINE
  8
8
 10
18.1119
 20
28.9270
 11
19.0174
 21
28.9275
  0
TEXT
  8
8
 10
18.1119
 20
28.9270
 40
0.250
 50
0.0000
  1
NM
  7
STANDARD
  0
POINT
  8
2
 10
18.1119
 20
28.9270
  0
POINT
  8
2
 10
19.0174
 20
28.9275
  0
LINE
  8
8
 10
19.0174
 20
28.9275
 11
19.0179
 21
27.5491
  0
TEXT
  8
8
 10
19.0174
 20
28.9275
 40
0.250
 50
0.0000
  1
NM
  7
STANDARD
  0
POINT
  8
2
 10
19.0174
 20
28.9275
  0
POINT
  8
2
 10
19.0179
 20
27.5491
  0
LINE
  8
8
 10
19.0179
 20
27.5491
 11
18.1123
 21
27.5491
  0
TEXT
  8
8
 10
19.0179
 20
27.5491
 40
0.250
 50
0.0000
  1
NM
  7
STANDARD
  0
POINT
  8
2
 10
19.0179
 20
27.5491
  0
POINT
  8
2
 10
18.1123
 20
27.5491
  0
LINE
  8
8
 10
26.1586
 20
27.9493
 11
26.1572
 21
31.6881
  0
TEXT
  8
8
 10
26.1586
 20
27.9493
 40
0.250
 50
0.0000
  1
NM
  7
STANDARD
  0
POINT
  8
2
 10
26.1586
 20
27.9493
  0
POINT
  8
2
 10
26.1572
 20
31.6881
  0
LINE
  8
8
 10
21.1673
 20
31.6863
 11
26.1572
 21
31.6881
  0
TEXT
  8
8
 10
21.1673
 20
31.6863
 40
0.250
 50
0.0000
  1
NM
  7
STANDARD
  0
POINT
  8
2
 10
21.1673
 20
31.6863
  0
POINT
  8
2
 10
26.1572
 20
31.6881
  0
LINE
  8
6
 10
1.1706
 20
31.6798
 11
21.1673
 21
31.6863
  0
ENDBLK
  0
BLOCK
  8
0
  2
GLX0924S16_NEW_FR_38
 70
64
 10
0.0000
 20
0.0000
  0
TEXT
  8
1
 10
13.4322
 20
27.3521
 40
0.250
 50
0.0000
  1
Piece Name: GLX0924S16_NEW_FR
  7
STANDARD
  0
TEXT
  8
1
 10
13.4322
 20
27.4921
 40
0.250
 50
0.0000
  1
SIZE: 38
  7
STANDARD
  0
POLYLINE
  8
1
 66
1
 70
0
  0
VERTEX
  8
1
 10
21.3642
 20
31.8340
  0
VERTEX
  8
1
 10
21.4039
 20
30.8710
  0
VERTEX
  8
1
 10
21.6123
 20
30.0486
  0
VERTEX
  8
1
 10
22.0026
 20
29.3655
  0
VERTEX
  8
1
 10
22.5612
 20
28.8267
  0
VERTEX
  8
1
 10
23.2884
 20
28.4318
  0
VERTEX
  8
1
 10
24.1631
 20
28.1730
  0
VERTEX
  8
1
 10
25.2052
 20
28.0532
  0
VERTEX
  8
1
 10
25.7922
 20
28.0531
  0
SEQEND
  8
1
  0
POLYLINE
  8
1
 66
1
 70
0
  0
VERTEX
  8
1
 10
25.7922
 20
28.0531
  0
VERTEX
  8
1
 10
25.2057
 20
26.4139
  0
SEQEND
  8
1
  0
POLYLINE
  8
1
 66
1
 70
0
  0
VERTEX
  8
1
 10
25.2057
 20
26.4139
  0
VERTEX
  8
1
 10
24.9435
 20
26.4276
  0
SEQEND
  8
1
  0
POLYLINE
  8
1
 66
1
 70
0
  0
VERTEX
  8
1
 10
24.9435
 20
26.4276
  0
VERTEX
  8
1
 10
24.0804
 20
26.4653
  0
VERTEX
  8
1
 10
22.6834
 20
26.4102
  0
VERTEX
  8
1
 10
21.4650
 20
26.2242
  0
VERTEX
  8
1
 10
20.4230
 20
25.9122
  0
VERTEX
  8
1
 10
19.5598
 20
25.4687
  0
VERTEX
  8
1
 10
18.9960
 20
25.0137
  0
VERTEX
  8
1
 10
18.8631
 20
24.8867
  0
VERTEX
  8
1
 10
18.2973
 20
24.1447
  0
VERTEX
  8
1
 10
17.9189
 20
23.2693
  0
SEQEND
  8
1
  0
POLYLINE
  8
1
 66
1
 70
0
  0
VERTEX
  8
1
 10
17.9189
 20
23.2693
  0
VERTEX
  8
1
 10
17.1318
 20
23.2691
  0
VERTEX
  8
1
 10
11.9053
 20
23.9367
  0
VERTEX
  8
1
 10
10.3719
 20
24.0538
  0
VERTEX
  8
1
 10
7.4665
 20
23.4188
  0
VERTEX
  8
1
 10
2.6834
 20
22.9246
  0
VERTEX
  8
1
 10
1.8623
 20
22.8702
  0
SEQEND
  8
1
  0
POLYLINE
  8
1
 66
1
 70
0
  0
VERTEX
  8
1
 10
1.8623
 20
22.8702
  0
VERTEX
  8
1
 10
1.1097
 20
30.6016
  0
VERTEX
  8
1
 10
1.0722
 20
31.8275
  0
SEQEND
  8
1
  0
POLYLINE
  8
1
 66
1
 70
0
  0
VERTEX
  8
1
 10
1.0722
 20
31.8275
  0
VERTEX
  8
1
 10
21.3642
 20
31.8340
  0
SEQEND
  8
1
  0
LINE
  8
7
 10
7.2975
 20
27.4986
 11
19.3512
 21
27.5030
  0
LINE
  8
5
 10
7.2975
 20
27.4986
 11
19.3512
 21
27.5030
  0
LINE
  8
8
 10
2.0591
 20
23.1655
 11
2.0560
 21
31.8278
  0
LINE
  8
8
 10
10.4283
 20
31.8305
 11
10.4310
 21
24.3491
  0
LINE
  8
8
 10
17.1287
 20
31.8327
 11
17.1317
 21
23.5643
  0
LINE
  8
8
 10
18.2107
 20
27.6968
 11
18.2103
 21
29.0747
  0
LINE
  8
8
 10
18.2103
 20
29.0747
 11
19.1158
 21
29.0752
  0
LINE
  8
8
 10
19.1158
 20
29.0752
 11
19.1163
 21
27.6968
  0
LINE
  8
8
 10
19.1163
 20
27.6968
 11
18.2107
 21
27.6968
  0
LINE
  8
8
 10
26.2570
 20
28.0970
 11
26.2557
 21
31.8358
  0
LINE
  8
8
 10
21.2658
 20
31.8340
 11
26.2557
 21
31.8358
  0
LINE
  8
6
 10
1.0722
 20
31.8275
 11
21.3642
 21
31.8340
  0
ENDBLK
  0
BLOCK
  8
0
  2
GLX0924S16_NEW_FR_40
 70
64
 10
0.0000
 20
0.0000
  0
TEXT
  8
1
 10
13.5109
 20
27.3521
 40
0.250
 50
0.0000
  1
Piece Name: GLX0924S16_NEW_FR
  7
STANDARD
  0
TEXT
  8
1
 10
13.5109
 20
27.4921
 40
0.250
 50
0.0000
  1
SIZE: 40
  7
STANDARD
  0
POLYLINE
  8
1
 66
1
 70
0
  0
VERTEX
  8
1
 10
21.5610
 20
31.9817
  0
VERTEX
  8
1
 10
21.6019
 20
31.0091
  0
VERTEX
  8
1
 10
21.8132
 20
30.1786
  0
VERTEX
  8
1
 10
22.2206
 20
29.4880
  0
VERTEX
  8
1
 10
22.7976
 20
28.9467
  0
VERTEX
  8
1
 10
23.5443
 20
28.5547
  0
VERTEX
  8
1
 10
24.4191
 20
28.2959
  0
VERTEX
  8
1
 10
25.4612
 20
28.1761
  0
VERTEX
  8
1
 10
26.0482
 20
28.1760
  0
SEQEND
  8
1
  0
POLYLINE
  8
1
 66
1
 70
0
  0
VERTEX
  8
1
 10
26.0482
 20
28.1760
  0
VERTEX
  8
1
 10
25.4616
 20
26.5368
  0
SEQEND
  8
1
  0
POLYLINE
  8
1
 66
1
 70
0
  0
VERTEX
  8
1
 10
25.4616
 20
26.5368
  0
VERTEX
  8
1
 10
25.1920
 20
26.5466
  0
SEQEND
  8
1
  0
POLYLINE
  8
1
 66
1
 70
0
  0
VERTEX
  8
1
 10
25.1920
 20
26.5466
  0
VERTEX
  8
1
 10
24.3050
 20
26.5713
  0
VERTEX
  8
1
 10
22.8709
 20
26.4922
  0
VERTEX
  8
1
 10
21.6225
 20
26.2815
  0
VERTEX
  8
1
 10
20.5704
 20
25.9514
  0
VERTEX
  8
1
 10
19.7015
 20
25.4903
  0
VERTEX
  8
1
 10
19.1362
 20
25.0217
  0
VERTEX
  8
1
 10
18.9961
 20
24.8821
  0
VERTEX
  8
1
 10
18.4045
 20
24.0716
  0
VERTEX
  8
1
 10
18.0174
 20
23.1218
  0
SEQEND
  8
1
  0
POLYLINE
  8
1
 66
1
 70
0
  0
VERTEX
  8
1
 10
18.0174
 20
23.1218
  0
VERTEX
  8
1
 10
17.2303
 20
23.1215
  0
VERTEX
  8
1
 10
11.9580
 20
23.7896
  0
VERTEX
  8
1
 10
10.4113
 20
23.9062
  0
VERTEX
  8
1
 10
7.4583
 20
23.2675
  0
VERTEX
  8
1
 10
2.5982
 20
22.7761
  0
VERTEX
  8
1
 10
1.7639
 20
22.7225
  0
SEQEND
  8
1
  0
POLYLINE
  8
1
 66
1
 70
0
  0
VERTEX
  8
1
 10
1.7639
 20
22.7225
  0
VERTEX
  8
1
 10
1.0113
 20
30.7492
  0
VERTEX
  8
1
 10
0.9737
 20
31.9751
  0
SEQEND
  8
1
  0
POLYLINE
  8
1
 66
1
 70
0
  0
VERTEX
  8
1
 10
0.9737
 20
31.9751
  0
VERTEX
  8
1
 10
21.5610
 20
31.9817
  0
SEQEND
  8
1
  0
LINE
  8
7
 10
7.3960
 20
27.6463
 11
19.4497
 21
27.6507
  0
LINE
  8
5
 10
7.3960
 20
27.6463
 11
19.4497
 21
27.6507
  0
LINE
  8
8
 10
2.1576
 20
23.3132
 11
2.1544
 21
31.9755
  0
LINE
  8
8
 10
10.5267
 20
31.9782
 11
10.5294
 21
24.4968
  0
LINE
  8
8
 10
17.2271
 20
31.9803
 11
17.2302
 21
23.7119
  0
LINE
  8
8
 10
18.3092
 20
27.8445
 11
18.3088
 21
29.2224
  0
LINE
  8
8
 10
18.3088
 20
29.2224
 11
19.2143
 21
29.2228
  0
LINE
  8
8
 10
19.2143
 20
29.2228
 11
19.2148
 21
27.8444
  0
LINE
  8
8
 10
19.2148
 20
27.8444
 11
18.3092
 21
27.8445
  0
LINE
  8
8
 10
26.3555
 20
28.2447
 11
26.3541
 21
31.9835
  0
LINE
  8
8
 10
21.3642
 20
31.9817
 11
26.3541
 21
31.9835
  0
LINE
  8
6
 10
0.9737
 20
31.9751
 11
21.5610
 21
31.9817
  0
ENDBLK
  0
BLOCK
  8
0
  2
GLX0924S16_NEW_FR_42
 70
64
 10
0.0000
 20
0.0000
  0
TEXT
  8
1
 10
13.5897
 20
27.3521
 40
0.250
 50
0.0000
  1
Piece Name: GLX0924S16_NEW_FR
  7
STANDARD
  0
TEXT
  8
1
 10
13.5897
 20
27.4921
 40
0.250
 50
0.0000
  1
SIZE: 42
  7
STANDARD
  0
POLYLINE
  8
1
 66
1
 70
0
  0
VERTEX
  8
1
 10
21.7579
 20
32.1540
  0
VERTEX
  8
1
 10
21.8000
 20
31.1718
  0
VERTEX
  8
1
 10
22.0140
 20
30.3331
  0
VERTEX
  8
1
 10
22.4387
 20
29.6351
  0
VERTEX
  8
1
 10
23.0340
 20
29.0914
  0
VERTEX
  8
1
 10
23.8003
 20
28.7022
  0
VERTEX
  8
1
 10
24.6750
 20
28.4434
  0
VERTEX
  8
1
 10
25.7171
 20
28.3236
  0
VERTEX
  8
1
 10
26.3041
 20
28.3235
  0
SEQEND
  8
1
  0
POLYLINE
  8
1
 66
1
 70
0
  0
VERTEX
  8
1
 10
26.3041
 20
28.3235
  0
VERTEX
  8
1
 10
25.7176
 20
26.6843
  0
SEQEND
  8
1
  0
POLYLINE
  8
1
 66
1
 70
0
  0
VERTEX
  8
1
 10
25.7176
 20
26.6843
  0
VERTEX
  8
1
 10
25.4381
 20
26.6885
  0
SEQEND
  8
1
  0
POLYLINE
  8
1
 66
1
 70
0
  0
VERTEX
  8
1
 10
25.4381
 20
26.6885
  0
VERTEX
  8
1
 10
24.5186
 20
26.6947
  0
VERTEX
  8
1
 10
23.0346
 20
26.5810
  0
VERTEX
  8
1
 10
21.7458
 20
26.3354
  0
VERTEX
  8
1
 10
20.6892
 20
25.9823
  0
VERTEX
  8
1
 10
19.8202
 20
25.5003
  0
VERTEX
  8
1
 10
19.2578
 20
25.0164
  0
VERTEX
  8
1
 10
19.1119
 20
24.8629
  0
VERTEX
  8
1
 10
18.5024
 20
23.9777
  0
VERTEX
  8
1
 10
18.1159
 20
22.9497
  0
SEQEND
  8
1
  0
POLYLINE
  8
1
 66
1
 70
0
  0
VERTEX
  8
1
 10
18.1159
 20
22.9497
  0
VERTEX
  8
1
 10
17.3288
 20
22.9494
  0
VERTEX
  8
1
 10
11.9499
 20
23.6186
  0
VERTEX
  8
1
 10
10.3721
 20
23.7339
  0
VERTEX
  8
1
 10
7.3986
 20
23.0936
  0
VERTEX
  8
1
 10
2.5054
 20
22.6033
  0
VERTEX
  8
1
 10
1.6655
 20
22.5503
  0
SEQEND
  8
1
  0
POLYLINE
  8
1
 66
1
 70
0
  0
VERTEX
  8
1
 10
1.6655
 20
22.5503
  0
VERTEX
  8
1
 10
0.9128
 20
30.9214
  0
VERTEX
  8
1
 10
0.8753
 20
32.1473
  0
SEQEND
  8
1
  0
POLYLINE
  8
1
 66
1
 70
0
  0
VERTEX
  8
1
 10
0.8753
 20
32.1473
  0
VERTEX
  8
1
 10
21.7579
 20
32.1540
  0
SEQEND
  8
1
  0
LINE
  8
7
 10
7.4944
 20
27.8185
 11
19.5481
 21
27.8229
  0
LINE
  8
5
 10
7.4944
 20
27.8185
 11
19.5481
 21
27.8229
  0
LINE
  8
8
 10
2.2560
 20
23.4855
 11
2.2529
 21
32.1478
  0
LINE
  8
8
 10
10.6252
 20
32.1505
 11
10.6279
 21
24.6691
  0
LINE
  8
8
 10
17.3256
 20
32.1526
 11
17.3286
 21
23.8842
  0
LINE
  8
8
 10
18.4076
 20
28.0167
 11
18.4072
 21
29.3946
  0
LINE
  8
8
 10
18.4072
 20
29.3946
 11
19.3127
 21
29.3951
  0
LINE
  8
8
 10
19.3127
 20
29.3951
 11
19.3132
 21
28.0167
  0
LINE
  8
8
 10
19.3132
 20
28.0167
 11
18.4076
 21
28.0167
  0
LINE
  8
8
 10
26.4539
 20
28.4169
 11
26.4526
 21
32.1557
  0
LINE
  8
8
 10
21.4627
 20
32.1539
 11
26.4526
 21
32.1557
  0
LINE
  8
6
 10
0.8753
 20
32.1473
 11
21.7579
 21
32.1540
  0
ENDBLK
  0
BLOCK
  8
0
  2
GLX0924S16_NEW_FR_44
 70
64
 10
0.0000
 20
0.0000
  0
TEXT
  8
1
 10
13.6646
 20
27.3521
 40
0.250
 50
0.0000
  1
Piece Name: GLX0924S16_NEW_FR
  7
STANDARD
  0
TEXT
  8
1
 10
13.6646
 20
27.4921
 40
0.250
 50
0.0000
  1
SIZE: 44
  7
STANDARD
  0
POLYLINE
  8
1
 66
1
 70
0
  0
VERTEX
  8
1
 10
21.9509
 20
32.3263
  0
VERTEX
  8
1
 10
21.9942
 20
31.3344
  0
VERTEX
  8
1
 10
22.2110
 20
30.4877
  0
VERTEX
  8
1
 10
22.6529
 20
29.7822
  0
VERTEX
  8
1
 10
23.2666
 20
29.2361
  0
VERTEX
  8
1
 10
24.0524
 20
28.8497
  0
VERTEX
  8
1
 10
24.9271
 20
28.5909
  0
VERTEX
  8
1
 10
25.9692
 20
28.4711
  0
VERTEX
  8
1
 10
26.5562
 20
28.4710
  0
SEQEND
  8
1
  0
POLYLINE
  8
1
 66
1
 70
0
  0
VERTEX
  8
1
 10
26.5562
 20
28.4710
  0
VERTEX
  8
1
 10
25.9697
 20
26.8318
  0
SEQEND
  8
1
  0
POLYLINE
  8
1
 66
1
 70
0
  0
VERTEX
  8
1
 10
25.9697
 20
26.8318
  0
VERTEX
  8
1
 10
25.6782
 20
26.8316
  0
SEQEND
  8
1
  0
POLYLINE
  8
1
 66
1
 70
0
  0
VERTEX
  8
1
 10
25.6782
 20
26.8316
  0
VERTEX
  8
1
 10
24.7194
 20
26.8226
  0
VERTEX
  8
1
 10
23.1739
 20
26.6793
  0
VERTEX
  8
1
 10
21.8342
 20
26.4017
  0
VERTEX
  8
1
 10
20.7874
 20
26.0141
  0
VERTEX
  8
1
 10
19.9325
 20
25.5035
  0
VERTEX
  8
1
 10
19.3848
 20
25.0009
  0
VERTEX
  8
1
 10
19.2327
 20
24.8344
  0
VERTEX
  8
1
 10
18.6015
 20
23.8799
  0
VERTEX
  8
1
 10
18.2106
 20
22.7775
  0
SEQEND
  8
1
  0
POLYLINE
  8
1
 66
1
 70
0
  0
VERTEX
  8
1
 10
18.2106
 20
22.7775
  0
VERTEX
  8
1
 10
17.4235
 20
22.7773
  0
VERTEX
  8
1
 10
11.9378
 20
23.4476
  0
VERTEX
  8
1
 10
10.3289
 20
23.5617
  0
VERTEX
  8
1
 10
7.3350
 20
22.9200
  0
VERTEX
  8
1
 10
2.4088
 20
22.4307
  0
VERTEX
  8
1
 10
1.5633
 20
22.3780
  0
SEQEND
  8
1
  0
POLYLINE
  8
1
 66
1
 70
0
  0
VERTEX
  8
1
 10
1.5633
 20
22.3780
  0
VERTEX
  8
1
 10
0.8105
 20
31.0937
  0
VERTEX
  8
1
 10
0.7730
 20
32.3195
  0
SEQEND
  8
1
  0
POLYLINE
  8
1
 66
1
 70
0
  0
VERTEX
  8
1
 10
0.7730
 20
32.3195
  0
VERTEX
  8
1
 10
21.9509
 20
32.3263
  0
SEQEND
  8
1
  0
LINE
  8
7
 10
7.5890
 20
27.9908
 11
19.6427
 21
27.9952
  0
LINE
  8
5
 10
7.5890
 20
27.9908
 11
19.6427
 21
27.9952
  0
LINE
  8
8
 10
2.3506
 20
23.6578
 11
2.3475
 21
32.3201
  0
LINE
  8
8
 10
10.7198
 20
32.3227
 11
10.7225
 21
24.8413
  0
LINE
  8
8
 10
17.4202
 20
32.3249
 11
17.4232
 21
24.0565
  0
LINE
  8
8
 10
18.5022
 20
28.1890
 11
18.5018
 21
29.5669
  0
LINE
  8
8
 10
18.5018
 20
29.5669
 11
19.4073
 21
29.5674
  0
LINE
  8
8
 10
19.4073
 20
29.5674
 11
19.4078
 21
28.1890
  0
LINE
  8
8
 10
19.4078
 20
28.1890
 11
18.5022
 21
28.1890
  0
LINE
  8
8
 10
26.5485
 20
28.5892
 11
26.5472
 21
32.3280
  0
LINE
  8
8
 10
21.5573
 20
32.3262
 11
26.5472
 21
32.3280
  0
LINE
  8
6
 10
0.7730
 20
32.3195
 11
21.9509
 21
32.3263
  0
ENDBLK
  0
BLOCK
  8
0
  2
GLX0924S16_NEW_FR_46
 70
64
 10
0.0000
 20
0.0000
  0
TEXT
  8
1
 10
13.6646
 20
27.3521
 40
0.250
 50
0.0000
  1
Piece Name: GLX0924S16_NEW_FR
  7
STANDARD
  0
TEXT
  8
1
 10
13.6646
 20
27.4921
 40
0.250
 50
0.0000
  1
SIZE: 46
  7
STANDARD
  0
POLYLINE
  8
1
 66
1
 70
0
  0
VERTEX
  8
1
 10
22.0690
 20
32.5232
  0
VERTEX
  8
1
 10
22.1135
 20
31.5217
  0
VERTEX
  8
1
 10
22.3331
 20
30.6669
  0
VERTEX
  8
1
 10
22.7922
 20
29.9538
  0
VERTEX
  8
1
 10
23.4242
 20
29.4054
  0
VERTEX
  8
1
 10
24.2296
 20
29.0218
  0
VERTEX
  8
1
 10
25.1043
 20
28.7630
  0
VERTEX
  8
1
 10
26.1464
 20
28.6432
  0
VERTEX
  8
1
 10
26.7334
 20
28.6431
  0
SEQEND
  8
1
  0
POLYLINE
  8
1
 66
1
 70
0
  0
VERTEX
  8
1
 10
26.7334
 20
28.6431
  0
VERTEX
  8
1
 10
26.1469
 20
26.8070
  0
SEQEND
  8
1
  0
POLYLINE
  8
1
 66
1
 70
0
  0
VERTEX
  8
1
 10
26.1469
 20
26.8070
  0
VERTEX
  8
1
 10
25.8445
 20
26.8084
  0
SEQEND
  8
1
  0
POLYLINE
  8
1
 66
1
 70
0
  0
VERTEX
  8
1
 10
25.8445
 20
26.8084
  0
VERTEX
  8
1
 10
24.8498
 20
26.8045
  0
VERTEX
  8
1
 10
23.2458
 20
26.6647
  0
VERTEX
  8
1
 10
21.8546
 20
26.3842
  0
VERTEX
  8
1
 10
20.8198
 20
25.9923
  0
VERTEX
  8
1
 10
19.9762
 20
25.4798
  0
VERTEX
  8
1
 10
19.4370
 20
24.9775
  0
VERTEX
  8
1
 10
19.2780
 20
24.7968
  0
VERTEX
  8
1
 10
18.6244
 20
23.7651
  0
VERTEX
  8
1
 10
18.2303
 20
22.5807
  0
SEQEND
  8
1
  0
POLYLINE
  8
1
 66
1
 70
0
  0
VERTEX
  8
1
 10
18.2303
 20
22.5807
  0
VERTEX
  8
1
 10
17.4433
 20
22.5804
  0
VERTEX
  8
1
 10
11.8504
 20
23.2140
  0
VERTEX
  8
1
 10
10.2109
 20
23.3156
  0
VERTEX
  8
1
 10
7.1953
 20
22.6893
  0
VERTEX
  8
1
 10
2.2370
 20
22.2287
  0
VERTEX
  8
1
 10
1.3861
 20
22.1811
  0
SEQEND
  8
1
  0
POLYLINE
  8
1
 66
1
 70
0
  0
VERTEX
  8
1
 10
1.3861
 20
22.1811
  0
VERTEX
  8
1
 10
0.6333
 20
31.2905
  0
VERTEX
  8
1
 10
0.5958
 20
32.5164
  0
SEQEND
  8
1
  0
POLYLINE
  8
1
 66
1
 70
0
  0
VERTEX
  8
1
 10
0.5958
 20
32.5164
  0
VERTEX
  8
1
 10
22.0690
 20
32.5232
  0
SEQEND
  8
1
  0
LINE
  8
7
 10
7.6087
 20
28.1877
 11
19.6624
 21
28.1921
  0
LINE
  8
5
 10
7.6087
 20
28.1877
 11
19.6624
 21
28.1921
  0
LINE
  8
8
 10
2.3703
 20
23.8546
 11
2.3672
 21
32.5169
  0
LINE
  8
8
 10
10.7395
 20
32.5196
 11
10.7422
 21
25.0382
  0
LINE
  8
8
 10
17.4399
 20
32.5217
 11
17.4429
 21
24.2533
  0
LINE
  8
8
 10
18.5219
 20
28.3859
 11
18.5215
 21
29.7638
  0
LINE
  8
8
 10
18.5215
 20
29.7638
 11
19.4270
 21
29.7642
  0
LINE
  8
8
 10
19.4270
 20
29.7642
 11
19.4275
 21
28.3858
  0
LINE
  8
8
 10
19.4275
 20
28.3858
 11
18.5219
 21
28.3859
  0
LINE
  8
8
 10
26.5682
 20
28.7861
 11
26.5669
 21
32.5249
  0
LINE
  8
8
 10
21.5770
 20
32.5231
 11
26.5669
 21
32.5249
  0
LINE
  8
6
 10
0.5958
 20
32.5164
 11
22.0690
 21
32.5232
  0
ENDBLK
  0
BLOCK
  8
0
  2
GLX0924S16_NEW_FR_48
 70
64
 10
0.0000
 20
0.0000
  0
TEXT
  8
1
 10
13.6646
 20
27.3522
 40
0.250
 50
0.0000
  1
Piece Name: GLX0924S16_NEW_FR
  7
STANDARD
  0
TEXT
  8
1
 10
13.6646
 20
27.4922
 40
0.250
 50
0.0000
  1
SIZE: 48
  7
STANDARD
  0
POLYLINE
  8
1
 66
1
 70
0
  0
VERTEX
  8
1
 10
22.1871
 20
32.7201
  0
VERTEX
  8
1
 10
22.2328
 20
31.7090
  0
VERTEX
  8
1
 10
22.4552
 20
30.8461
  0
VERTEX
  8
1
 10
22.9315
 20
30.1255
  0
VERTEX
  8
1
 10
23.5819
 20
29.5747
  0
VERTEX
  8
1
 10
24.4068
 20
29.1939
  0
VERTEX
  8
1
 10
25.2815
 20
28.9351
  0
VERTEX
  8
1
 10
26.3236
 20
28.8153
  0
VERTEX
  8
1
 10
26.9106
 20
28.8152
  0
SEQEND
  8
1
  0
POLYLINE
  8
1
 66
1
 70
0
  0
VERTEX
  8
1
 10
26.9106
 20
28.8152
  0
VERTEX
  8
1
 10
26.3241
 20
26.9791
  0
SEQEND
  8
1
  0
POLYLINE
  8
1
 66
1
 70
0
  0
VERTEX
  8
1
 10
26.3241
 20
26.9791
  0
VERTEX
  8
1
 10
26.0131
 20
26.9744
  0
SEQEND
  8
1
  0
POLYLINE
  8
1
 66
1
 70
0
  0
VERTEX
  8
1
 10
26.0131
 20
26.9744
  0
VERTEX
  8
1
 10
24.9901
 20
26.9500
  0
VERTEX
  8
1
 10
23.3431
 20
26.7734
  0
VERTEX
  8
1
 10
21.9179
 20
26.4564
  0
VERTEX
  8
1
 10
20.8768
 20
26.0366
  0
VERTEX
  8
1
 10
20.0321
 20
25.4986
  0
VERTEX
  8
1
 10
19.4961
 20
24.9775
  0
VERTEX
  8
1
 10
19.3293
 20
24.7806
  0
VERTEX
  8
1
 10
18.6491
 20
23.6615
  0
VERTEX
  8
1
 10
18.2501
 20
22.3839
  0
SEQEND
  8
1
  0
POLYLINE
  8
1
 66
1
 70
0
  0
VERTEX
  8
1
 10
18.2501
 20
22.3839
  0
VERTEX
  8
1
 10
17.4630
 20
22.3836
  0
VERTEX
  8
1
 10
11.7631
 20
22.9803
  0
VERTEX
  8
1
 10
10.0929
 20
23.0695
  0
VERTEX
  8
1
 10
7.0556
 20
22.4586
  0
VERTEX
  8
1
 10
2.0652
 20
22.0267
  0
VERTEX
  8
1
 10
1.2090
 20
21.9843
  0
SEQEND
  8
1
  0
POLYLINE
  8
1
 66
1
 70
0
  0
VERTEX
  8
1
 10
1.2090
 20
21.9843
  0
VERTEX
  8
1
 10
0.4561
 20
31.4873
  0
VERTEX
  8
1
 10
0.4186
 20
32.7132
  0
SEQEND
  8
1
  0
POLYLINE
  8
1
 66
1
 70
0
  0
VERTEX
  8
1
 10
0.4186
 20
32.7132
  0
VERTEX
  8
1
 10
22.1871
 20
32.7201
  0
SEQEND
  8
1
  0
LINE
  8
7
 10
7.6284
 20
28.3845
 11
19.6821
 21
28.3890
  0
LINE
  8
5
 10
7.6284
 20
28.3845
 11
19.6821
 21
28.3890
  0
LINE
  8
8
 10
2.3900
 20
24.0515
 11
2.3869
 21
32.7138
  0
LINE
  8
8
 10
10.7592
 20
32.7165
 11
10.7619
 21
25.2351
  0
LINE
  8
8
 10
17.4596
 20
32.7186
 11
17.4626
 21
24.4502
  0
LINE
  8
8
 10
18.5416
 20
28.5827
 11
18.5412
 21
29.9606
  0
LINE
  8
8
 10
18.5412
 20
29.9606
 11
19.4467
 21
29.9611
  0
LINE
  8
8
 10
19.4467
 20
29.9611
 11
19.4472
 21
28.5827
  0
LINE
  8
8
 10
19.4472
 20
28.5827
 11
18.5416
 21
28.5827
  0
LINE
  8
8
 10
26.5879
 20
28.9829
 11
26.5866
 21
32.7217
  0
LINE
  8
8
 10
21.5967
 20
32.7199
 11
26.5866
 21
32.7217
  0
LINE
  8
6
 10
0.4186
 20
32.7132
 11
22.1871
 21
32.7201
  0
ENDBLK
  0
BLOCK
  8
0
  2
GLX0924S16_NEW_FR_50
 70
64
 10
0.0000
 20
0.0000
  0
TEXT
  8
1
 10
13.6646
 20
27.3521
 40
0.250
 50
0.0000
  1
Piece Name: GLX0924S16_NEW_FR
  7
STANDARD
  0
TEXT
  8
1
 10
13.6646
 20
27.4921
 40
0.250
 50
0.0000
  1
SIZE: 50
  7
STANDARD
  0
POLYLINE
  8
1
 66
1
 70
0
  0
VERTEX
  8
1
 10
22.3052
 20
32.9415
  0
VERTEX
  8
1
 10
22.3509
 20
31.9077
  0
VERTEX
  8
1
 10
22.5773
 20
31.0251
  0
VERTEX
  8
1
 10
23.0708
 20
30.2971
  0
VERTEX
  8
1
 10
23.7396
 20
29.7441
  0
VERTEX
  8
1
 10
24.5840
 20
29.3662
  0
VERTEX
  8
1
 10
25.4587
 20
29.1074
  0
VERTEX
  8
1
 10
26.5008
 20
28.9876
  0
VERTEX
  8
1
 10
27.0878
 20
28.9875
  0
SEQEND
  8
1
  0
POLYLINE
  8
1
 66
1
 70
0
  0
VERTEX
  8
1
 10
27.0878
 20
28.9875
  0
VERTEX
  8
1
 10
26.5013
 20
27.1514
  0
SEQEND
  8
1
  0
POLYLINE
  8
1
 66
1
 70
0
  0
VERTEX
  8
1
 10
26.5013
 20
27.1514
  0
VERTEX
  8
1
 10
26.1807
 20
27.1401
  0
SEQEND
  8
1
  0
POLYLINE
  8
1
 66
1
 70
0
  0
VERTEX
  8
1
 10
26.1807
 20
27.1401
  0
VERTEX
  8
1
 10
25.1264
 20
27.0941
  0
VERTEX
  8
1
 10
23.4319
 20
26.8782
  0
VERTEX
  8
1
 10
21.9688
 20
26.5221
  0
VERTEX
  8
1
 10
20.9257
 20
26.0704
  0
VERTEX
  8
1
 10
20.0844
 20
25.5041
  0
VERTEX
  8
1
 10
19.5552
 20
24.9628
  0
VERTEX
  8
1
 10
19.3804
 20
24.7489
  0
VERTEX
  8
1
 10
18.6731
 20
23.5379
  0
VERTEX
  8
1
 10
18.2699
 20
22.1624
  0
SEQEND
  8
1
  0
POLYLINE
  8
1
 66
1
 70
0
  0
VERTEX
  8
1
 10
18.2699
 20
22.1624
  0
VERTEX
  8
1
 10
17.4828
 20
22.1622
  0
VERTEX
  8
1
 10
11.6758
 20
22.7220
  0
VERTEX
  8
1
 10
9.9749
 20
22.7989
  0
VERTEX
  8
1
 10
6.9159
 20
22.2034
  0
VERTEX
  8
1
 10
1.8934
 20
21.8002
  0
VERTEX
  8
1
 10
1.0319
 20
21.7628
  0
SEQEND
  8
1
  0
POLYLINE
  8
1
 66
1
 70
0
  0
VERTEX
  8
1
 10
1.0319
 20
21.7628
  0
VERTEX
  8
1
 10
0.2789
 20
31.7087
  0
VERTEX
  8
1
 10
0.2414
 20
32.9346
  0
SEQEND
  8
1
  0
POLYLINE
  8
1
 66
1
 70
0
  0
VERTEX
  8
1
 10
0.2414
 20
32.9346
  0
VERTEX
  8
1
 10
22.3052
 20
32.9415
  0
SEQEND
  8
1
  0
LINE
  8
7
 10
7.6481
 20
28.6060
 11
19.7018
 21
28.6104
  0
LINE
  8
5
 10
7.6481
 20
28.6060
 11
19.7018
 21
28.6104
  0
LINE
  8
8
 10
2.4097
 20
24.2730
 11
2.4066
 21
32.9353
  0
LINE
  8
8
 10
10.7789
 20
32.9379
 11
10.7816
 21
25.4565
  0
LINE
  8
8
 10
17.4793
 20
32.9401
 11
17.4823
 21
24.6717
  0
LINE
  8
8
 10
18.5613
 20
28.8042
 11
18.5609
 21
30.1821
  0
LINE
  8
8
 10
18.5609
 20
30.1821
 11
19.4664
 21
30.1826
  0
LINE
  8
8
 10
19.4664
 20
30.1826
 11
19.4669
 21
28.8042
  0
LINE
  8
8
 10
19.4669
 20
28.8042
 11
18.5613
 21
28.8042
  0
LINE
  8
8
 10
26.6076
 20
29.2044
 11
26.6063
 21
32.9432
  0
LINE
  8
8
 10
21.6164
 20
32.9414
 11
26.6063
 21
32.9432
  0
LINE
  8
6
 10
0.2414
 20
32.9346
 11
22.3052
 21
32.9415
  0
ENDBLK
  0
BLOCK
  8
0
  2
GLX0924S16_NEW_FR_52
 70
64
 10
0.0000
 20
0.0000
  0
TEXT
  8
1
 10
13.6646
 20
27.3521
 40
0.250
 50
0.0000
  1
Piece Name: GLX0924S16_NEW_FR
  7
STANDARD
  0
TEXT
  8
1
 10
13.6646
 20
27.4921
 40
0.250
 50
0.0000
  1
SIZE: 52
  7
STANDARD
  0
POLYLINE
  8
1
 66
1
 70
0
  0
VERTEX
  8
1
 10
22.4232
 20
33.1630
  0
VERTEX
  8
1
 10
22.4689
 20
32.1063
  0
VERTEX
  8
1
 10
22.6994
 20
31.2041
  0
VERTEX
  8
1
 10
23.2102
 20
30.4687
  0
VERTEX
  8
1
 10
23.8973
 20
29.9135
  0
VERTEX
  8
1
 10
24.7612
 20
29.5385
  0
VERTEX
  8
1
 10
25.6359
 20
29.2797
  0
VERTEX
  8
1
 10
26.6781
 20
29.1599
  0
VERTEX
  8
1
 10
27.2651
 20
29.1598
  0
SEQEND
  8
1
  0
POLYLINE
  8
1
 66
1
 70
0
  0
VERTEX
  8
1
 10
27.2651
 20
29.1598
  0
VERTEX
  8
1
 10
26.6785
 20
27.3237
  0
SEQEND
  8
1
  0
POLYLINE
  8
1
 66
1
 70
0
  0
VERTEX
  8
1
 10
26.6785
 20
27.3237
  0
VERTEX
  8
1
 10
26.3479
 20
27.3060
  0
SEQEND
  8
1
  0
POLYLINE
  8
1
 66
1
 70
0
  0
VERTEX
  8
1
 10
26.3479
 20
27.3060
  0
VERTEX
  8
1
 10
25.2608
 20
27.2383
  0
VERTEX
  8
1
 10
23.5164
 20
26.9832
  0
VERTEX
  8
1
 10
22.0135
 20
26.5878
  0
VERTEX
  8
1
 10
20.9708
 20
26.1037
  0
VERTEX
  8
1
 10
20.1352
 20
25.5092
  0
VERTEX
  8
1
 10
19.6144
 20
24.9481
  0
VERTEX
  8
1
 10
19.4314
 20
24.7170
  0
VERTEX
  8
1
 10
18.6971
 20
23.4143
  0
VERTEX
  8
1
 10
18.2897
 20
21.9410
  0
SEQEND
  8
1
  0
POLYLINE
  8
1
 66
1
 70
0
  0
VERTEX
  8
1
 10
18.2897
 20
21.9410
  0
VERTEX
  8
1
 10
17.5026
 20
21.9408
  0
VERTEX
  8
1
 10
11.5885
 20
22.4637
  0
VERTEX
  8
1
 10
9.8569
 20
22.5282
  0
VERTEX
  8
1
 10
6.7762
 20
21.9481
  0
VERTEX
  8
1
 10
1.7216
 20
21.5736
  0
VERTEX
  8
1
 10
0.8548
 20
21.5413
  0
SEQEND
  8
1
  0
POLYLINE
  8
1
 66
1
 70
0
  0
VERTEX
  8
1
 10
0.8548
 20
21.5413
  0
VERTEX
  8
1
 10
0.1017
 20
31.9302
  0
VERTEX
  8
1
 10
0.0641
 20
33.1561
  0
SEQEND
  8
1
  0
POLYLINE
  8
1
 66
1
 70
0
  0
VERTEX
  8
1
 10
0.0641
 20
33.1561
  0
VERTEX
  8
1
 10
22.4232
 20
33.1630
  0
SEQEND
  8
1
  0
LINE
  8
7
 10
7.6678
 20
28.8275
 11
19.7215
 21
28.8319
  0
LINE
  8
5
 10
7.6678
 20
28.8275
 11
19.7215
 21
28.8319
  0
LINE
  8
8
 10
2.4294
 20
24.4944
 11
2.4262
 21
33.1567
  0
LINE
  8
8
 10
10.7985
 20
33.1594
 11
10.8012
 21
25.6780
  0
LINE
  8
8
 10
17.4989
 20
33.1616
 11
17.5020
 21
24.8932
  0
LINE
  8
8
 10
18.5810
 20
29.0257
 11
18.5806
 21
30.4036
  0
LINE
  8
8
 10
18.5806
 20
30.4036
 11
19.4861
 21
30.4040
  0
LINE
  8
8
 10
19.4861
 20
30.4040
 11
19.4866
 21
29.0256
  0
LINE
  8
8
 10
19.4866
 20
29.0256
 11
18.5810
 21
29.0257
  0
LINE
  8
8
 10
26.6273
 20
29.4259
 11
26.6259
 21
33.1647
  0
LINE
  8
8
 10
21.6360
 20
33.1629
 11
26.6259
 21
33.1647
  0
LINE
  8
6
 10
0.0641
 20
33.1561
 11
22.4232
 21
33.1630
  0
ENDBLK
  0
BLOCK
  8
0
  2
GLX0924S16_NEWSBIN_26
 70
64
 10
0.0000
 20
0.0000
  0
TEXT
  8
1
 10
27.4098
 20
20.3865
 40
0.250
 50
0.0000
  1
Piece Name: GLX0924S16_NEWSBIN
  7
STANDARD
  0
TEXT
  8
1
 10
27.4098
 20
20.5265
 40
0.250
 50
0.0000
  1
SIZE: 26
  7
STANDARD
  0
POLYLINE
  8
1
 66
1
 70
0
  0
VERTEX
  8
1
 10
26.7799
 20
10.0488
  0
VERTEX
  8
1
 10
26.7799
 20
30.7243
  0
SEQEND
  8
1
  0
POLYLINE
  8
1
 66
1
 70
0
  0
VERTEX
  8
1
 10
26.7799
 20
30.7243
  0
VERTEX
  8
1
 10
28.0397
 20
30.7243
  0
SEQEND
  8
1
  0
POLYLINE
  8
1
 66
1
 70
0
  0
VERTEX
  8
1
 10
28.0397
 20
30.7243
  0
VERTEX
  8
1
 10
28.0397
 20
10.0488
  0
SEQEND
  8
1
  0
POLYLINE
  8
1
 66
1
 70
0
  0
VERTEX
  8
1
 10
28.0397
 20
10.0488
  0
VERTEX
  8
1
 10
26.7799
 20
10.0488
  0
SEQEND
  8
1
  0
LINE
  8
7
 10
27.1736
 20
18.1787
 11
27.9610
 21
18.1787
  0
LINE
  8
5
 10
27.1736
 20
18.1787
 11
27.9610
 21
18.1787
  0
POLYLINE
  8
8
 66
1
 70
0
  0
VERTEX
  8
8
 10
27.1940
 20
22.8894
  0
VERTEX
  8
8
 10
27.1940
 20
19.5404
  0
VERTEX
  8
8
 10
27.5877
 20
19.5404
  0
SEQEND
  8
8
  0
ENDBLK
  0
BLOCK
  8
0
  2
GLX0924S16_NEWSBIN_28
 70
64
 10
0.0000
 20
0.0000
  0
TEXT
  8
1
 10
27.4098
 20
20.3865
 40
0.250
 50
0.0000
  1
Piece Name: GLX0924S16_NEWSBIN
  7
STANDARD
  0
TEXT
  8
1
 10
27.4098
 20
20.5265
 40
0.250
 50
0.0000
  1
SIZE: 28
  7
STANDARD
  0
POLYLINE
  8
1
 66
1
 70
0
  0
VERTEX
  8
1
 10
26.7799
 20
9.9388
  0
VERTEX
  8
1
 10
26.7799
 20
30.8343
  0
SEQEND
  8
1
  0
POLYLINE
  8
1
 66
1
 70
0
  0
VERTEX
  8
1
 10
26.7799
 20
30.8343
  0
VERTEX
  8
1
 10
28.0397
 20
30.8343
  0
SEQEND
  8
1
  0
POLYLINE
  8
1
 66
1
 70
0
  0
VERTEX
  8
1
 10
28.0397
 20
30.8343
  0
VERTEX
  8
1
 10
28.0397
 20
9.9388
  0
SEQEND
  8
1
  0
POLYLINE
  8
1
 66
1
 70
0
  0
VERTEX
  8
1
 10
28.0397
 20
9.9388
  0
VERTEX
  8
1
 10
26.7799
 20
9.9388
  0
SEQEND
  8
1
  0
LINE
  8
7
 10
27.1736
 20
18.0687
 11
27.9610
 21
18.0687
  0
LINE
  8
5
 10
27.1736
 20
18.0687
 11
27.9610
 21
18.0687
  0
POLYLINE
  8
8
 66
1
 70
0
  0
VERTEX
  8
8
 10
27.1940
 20
22.7794
  0
VERTEX
  8
8
 10
27.1940
 20
19.4304
  0
VERTEX
  8
8
 10
27.5877
 20
19.4304
  0
SEQEND
  8
8
  0
ENDBLK
  0
BLOCK
  8
0
  2
GLX0924S16_NEWSBIN_30
 70
64
 10
0.0000
 20
0.0000
  0
TEXT
  8
1
 10
27.4098
 20
20.3865
 40
0.250
 50
0.0000
  1
Piece Name: GLX0924S16_NEWSBIN
  7
STANDARD
  0
TEXT
  8
1
 10
27.4098
 20
20.5265
 40
0.250
 50
0.0000
  1
SIZE: 30
  7
STANDARD
  0
POLYLINE
  8
1
 66
1
 70
0
  0
VERTEX
  8
1
 10
26.7799
 20
9.8271
  0
VERTEX
  8
1
 10
26.7799
 20
30.9459
  0
SEQEND
  8
1
  0
POLYLINE
  8
1
 66
1
 70
0
  0
VERTEX
  8
1
 10
26.7799
 20
30.9459
  0
VERTEX
  8
1
 10
28.0397
 20
30.9459
  0
SEQEND
  8
1
  0
POLYLINE
  8
1
 66
1
 70
0
  0
VERTEX
  8
1
 10
28.0397
 20
30.9459
  0
VERTEX
  8
1
 10
28.0397
 20
9.8271
  0
SEQEND
  8
1
  0
POLYLINE
  8
1
 66
1
 70
0
  0
VERTEX
  8
1
 10
28.0397
 20
9.8271
  0
VERTEX
  8
1
 10
26.7799
 20
9.8271
  0
SEQEND
  8
1
  0
LINE
  8
7
 10
27.1736
 20
17.9570
 11
27.9610
 21
17.9570
  0
LINE
  8
5
 10
27.1736
 20
17.9570
 11
27.9610
 21
17.9570
  0
POLYLINE
  8
8
 66
1
 70
0
  0
VERTEX
  8
8
 10
27.1940
 20
22.6677
  0
VERTEX
  8
8
 10
27.1940
 20
19.3187
  0
VERTEX
  8
8
 10
27.5877
 20
19.3187
  0
SEQEND
  8
8
  0
ENDBLK
  0
BLOCK
  8
0
  2
GLX0924S16_NEWSBIN_32
 70
64
 10
0.0000
 20
0.0000
  0
TEXT
  8
1
 10
27.4098
 20
20.3865
 40
0.250
 50
0.0000
  1
Piece Name: GLX0924S16_NEWSBIN
  7
STANDARD
  0
TEXT
  8
1
 10
27.4098
 20
20.5265
 40
0.250
 50
0.0000
  1
SIZE: 32
  7
STANDARD
  0
POLYLINE
  8
1
 66
1
 70
0
  0
VERTEX
  8
1
 10
26.7799
 20
9.7137
  0
VERTEX
  8
1
 10
26.7799
 20
31.0593
  0
SEQEND
  8
1
  0
POLYLINE
  8
1
 66
1
 70
0
  0
VERTEX
  8
1
 10
26.7799
 20
31.0593
  0
VERTEX
  8
1
 10
28.0397
 20
31.0593
  0
SEQEND
  8
1
  0
POLYLINE
  8
1
 66
1
 70
0
  0
VERTEX
  8
1
 10
28.0397
 20
31.0593
  0
VERTEX
  8
1
 10
28.0397
 20
9.7137
  0
SEQEND
  8
1
  0
POLYLINE
  8
1
 66
1
 70
0
  0
VERTEX
  8
1
 10
28.0397
 20
9.7137
  0
VERTEX
  8
1
 10
26.7799
 20
9.7137
  0
SEQEND
  8
1
  0
LINE
  8
7
 10
27.1736
 20
17.8436
 11
27.9610
 21
17.8436
  0
LINE
  8
5
 10
27.1736
 20
17.8436
 11
27.9610
 21
17.8436
  0
POLYLINE
  8
8
 66
1
 70
0
  0
VERTEX
  8
8
 10
27.1940
 20
22.5543
  0
VERTEX
  8
8
 10
27.1940
 20
19.2053
  0
VERTEX
  8
8
 10
27.5877
 20
19.2053
  0
SEQEND
  8
8
  0
ENDBLK
  0
BLOCK
  8
0
  2
GLX0924S16_NEWSBIN_34
 70
64
 10
0.0000
 20
0.0000
  0
TEXT
  8
1
 10
27.4098
 20
20.3865
 40
0.250
 50
0.0000
  1
Piece Name: GLX0924S16_NEWSBIN
  7
STANDARD
  0
TEXT
  8
1
 10
27.4098
 20
20.5265
 40
0.250
 50
0.0000
  1
SIZE: 34
  7
STANDARD
  0
POLYLINE
  8
1
 66
1
 70
0
  0
VERTEX
  8
1
 10
26.7799
 20
9.5989
  0
VERTEX
  8
1
 10
26.7799
 20
31.1742
  0
SEQEND
  8
1
  0
POLYLINE
  8
1
 66
1
 70
0
  0
VERTEX
  8
1
 10
26.7799
 20
31.1742
  0
VERTEX
  8
1
 10
28.0397
 20
31.1742
  0
SEQEND
  8
1
  0
POLYLINE
  8
1
 66
1
 70
0
  0
VERTEX
  8
1
 10
28.0397
 20
31.1742
  0
VERTEX
  8
1
 10
28.0397
 20
9.5989
  0
SEQEND
  8
1
  0
POLYLINE
  8
1
 66
1
 70
0
  0
VERTEX
  8
1
 10
28.0397
 20
9.5989
  0
VERTEX
  8
1
 10
26.7799
 20
9.5989
  0
SEQEND
  8
1
  0
LINE
  8
7
 10
27.1736
 20
17.7288
 11
27.9610
 21
17.7288
  0
LINE
  8
5
 10
27.1736
 20
17.7288
 11
27.9610
 21
17.7288
  0
POLYLINE
  8
8
 66
1
 70
0
  0
VERTEX
  8
8
 10
27.1940
 20
22.4395
  0
VERTEX
  8
8
 10
27.1940
 20
19.0905
  0
VERTEX
  8
8
 10
27.5877
 20
19.0905
  0
SEQEND
  8
8
  0
ENDBLK
  0
BLOCK
  8
0
  2
GLX0924S16_NEWSBIN_36
 70
64
 10
0.0000
 20
0.0000
  0
TEXT
  8
1
 10
27.4098
 20
20.3865
 40
0.250
 50
0.0000
  1
Piece Name: GLX0924S16_NEWSBIN
  7
STANDARD
  0
TEXT
  8
1
 10
27.4098
 20
20.5265
 40
0.250
 50
0.0000
  1
Quantity: 1
  7
STANDARD
  0
TEXT
  8
1
 10
27.4098
 20
20.6665
 40
0.250
 50
0.0000
  1
ANNOTATION: 2XFABRIC
  7
STANDARD
  0
TEXT
  8
1
 10
27.4098
 20
20.8065
 40
0.250
 50
0.0000
  1
CATEGORY: BINDING NECKHOLE
  7
STANDARD
  0
TEXT
  8
1
 10
27.4098
 20
20.9465
 40
0.250
 50
0.0000
  1
SIZE: 36
  7
STANDARD
  0
POLYLINE
  8
1
 66
1
 70
0
  0
VERTEX
  8
1
 10
26.7799
 20
9.4810
  0
VERTEX
  8
1
 10
26.7799
 20
31.2920
  0
SEQEND
  8
1
  0
POINT
  8
2
 10
26.7799
 20
9.4810
  0
TEXT
  8
2
 10
26.7799
 20
9.4810
 40
0.250
 50
0.0000
  1
# 0
  7
STANDARD
  0
POINT
  8
2
 10
26.7799
 20
31.2920
  0
TEXT
  8
2
 10
26.7799
 20
31.2920
 40
0.250
 50
0.0000
  1
# 681
  7
STANDARD
  0
POLYLINE
  8
1
 66
1
 70
0
  0
VERTEX
  8
1
 10
26.7799
 20
31.2920
  0
VERTEX
  8
1
 10
28.0397
 20
31.2920
  0
SEQEND
  8
1
  0
POINT
  8
2
 10
26.7799
 20
31.2920
  0
TEXT
  8
2
 10
26.7799
 20
31.2920
 40
0.250
 50
0.0000
  1
# 681
  7
STANDARD
  0
POINT
  8
2
 10
28.0397
 20
31.2920
  0
TEXT
  8
2
 10
28.0397
 20
31.2920
 40
0.250
 50
0.0000
  1
# 681
  7
STANDARD
  0
POLYLINE
  8
1
 66
1
 70
0
  0
VERTEX
  8
1
 10
28.0397
 20
31.2920
  0
VERTEX
  8
1
 10
28.0397
 20
9.4810
  0
SEQEND
  8
1
  0
POINT
  8
2
 10
28.0397
 20
31.2920
  0
TEXT
  8
2
 10
28.0397
 20
31.2920
 40
0.250
 50
0.0000
  1
# 681
  7
STANDARD
  0
POINT
  8
2
 10
28.0397
 20
9.4810
  0
TEXT
  8
2
 10
28.0397
 20
9.4810
 40
0.250
 50
0.0000
  1
# 0
  7
STANDARD
  0
POLYLINE
  8
1
 66
1
 70
0
  0
VERTEX
  8
1
 10
28.0397
 20
9.4810
  0
VERTEX
  8
1
 10
26.7799
 20
9.4810
  0
SEQEND
  8
1
  0
POINT
  8
2
 10
28.0397
 20
9.4810
  0
TEXT
  8
2
 10
28.0397
 20
9.4810
 40
0.250
 50
0.0000
  1
# 0
  7
STANDARD
  0
POINT
  8
2
 10
26.7799
 20
9.4810
  0
LINE
  8
7
 10
27.1736
 20
17.6109
 11
27.9610
 21
17.6109
  0
LINE
  8
5
 10
27.1736
 20
17.6109
 11
27.9610
 21
17.6109
  0
POINT
  8
2
 10
27.1736
 20
17.6109
  0
POINT
  8
2
 10
27.9610
 20
17.6109
  0
POLYLINE
  8
8
 66
1
 70
0
  0
VERTEX
  8
8
 10
27.1940
 20
22.3216
  0
VERTEX
  8
8
 10
27.1940
 20
18.9726
  0
VERTEX
  8
8
 10
27.5877
 20
18.9726
  0
SEQEND
  8
8
  0
TEXT
  8
8
 10
27.1940
 20
22.3216
 40
0.250
 50
0.0000
  1
NM
  7
STANDARD
  0
POINT
  8
2
 10
27.1940
 20
22.3216
  0
POINT
  8
2
 10
27.1940
 20
18.9726
  0
POINT
  8
2
 10
27.5877
 20
18.9726
  0
ENDBLK
  0
BLOCK
  8
0
  2
GLX0924S16_NEWSBIN_38
 70
64
 10
0.0000
 20
0.0000
  0
TEXT
  8
1
 10
27.4098
 20
20.3865
 40
0.250
 50
0.0000
  1
Piece Name: GLX0924S16_NEWSBIN
  7
STANDARD
  0
TEXT
  8
1
 10
27.4098
 20
20.5265
 40
0.250
 50
0.0000
  1
SIZE: 38
  7
STANDARD
  0
POLYLINE
  8
1
 66
1
 70
0
  0
VERTEX
  8
1
 10
26.7799
 20
9.3726
  0
VERTEX
  8
1
 10
26.7799
 20
31.4004
  0
SEQEND
  8
1
  0
POLYLINE
  8
1
 66
1
 70
0
  0
VERTEX
  8
1
 10
26.7799
 20
31.4004
  0
VERTEX
  8
1
 10
28.0397
 20
31.4004
  0
SEQEND
  8
1
  0
POLYLINE
  8
1
 66
1
 70
0
  0
VERTEX
  8
1
 10
28.0397
 20
31.4004
  0
VERTEX
  8
1
 10
28.0397
 20
9.3726
  0
SEQEND
  8
1
  0
POLYLINE
  8
1
 66
1
 70
0
  0
VERTEX
  8
1
 10
28.0397
 20
9.3726
  0
VERTEX
  8
1
 10
26.7799
 20
9.3726
  0
SEQEND
  8
1
  0
LINE
  8
7
 10
27.1736
 20
17.5025
 11
27.9610
 21
17.5025
  0
LINE
  8
5
 10
27.1736
 20
17.5025
 11
27.9610
 21
17.5025
  0
POLYLINE
  8
8
 66
1
 70
0
  0
VERTEX
  8
8
 10
27.1940
 20
22.2132
  0
VERTEX
  8
8
 10
27.1940
 20
18.8642
  0
VERTEX
  8
8
 10
27.5877
 20
18.8642
  0
SEQEND
  8
8
  0
ENDBLK
  0
BLOCK
  8
0
  2
GLX0924S16_NEWSBIN_40
 70
64
 10
0.0000
 20
0.0000
  0
TEXT
  8
1
 10
27.4098
 20
20.3865
 40
0.250
 50
0.0000
  1
Piece Name: GLX0924S16_NEWSBIN
  7
STANDARD
  0
TEXT
  8
1
 10
27.4098
 20
20.5265
 40
0.250
 50
0.0000
  1
SIZE: 40
  7
STANDARD
  0
POLYLINE
  8
1
 66
1
 70
0
  0
VERTEX
  8
1
 10
26.7799
 20
9.2628
  0
VERTEX
  8
1
 10
26.7799
 20
31.5102
  0
SEQEND
  8
1
  0
POLYLINE
  8
1
 66
1
 70
0
  0
VERTEX
  8
1
 10
26.7799
 20
31.5102
  0
VERTEX
  8
1
 10
28.0397
 20
31.5102
  0
SEQEND
  8
1
  0
POLYLINE
  8
1
 66
1
 70
0
  0
VERTEX
  8
1
 10
28.0397
 20
31.5102
  0
VERTEX
  8
1
 10
28.0397
 20
9.2628
  0
SEQEND
  8
1
  0
POLYLINE
  8
1
 66
1
 70
0
  0
VERTEX
  8
1
 10
28.0397
 20
9.2628
  0
VERTEX
  8
1
 10
26.7799
 20
9.2628
  0
SEQEND
  8
1
  0
LINE
  8
7
 10
27.1736
 20
17.3927
 11
27.9610
 21
17.3927
  0
LINE
  8
5
 10
27.1736
 20
17.3927
 11
27.9610
 21
17.3927
  0
POLYLINE
  8
8
 66
1
 70
0
  0
VERTEX
  8
8
 10
27.1940
 20
22.1034
  0
VERTEX
  8
8
 10
27.1940
 20
18.7544
  0
VERTEX
  8
8
 10
27.5877
 20
18.7544
  0
SEQEND
  8
8
  0
ENDBLK
  0
BLOCK
  8
0
  2
GLX0924S16_NEWSBIN_42
 70
64
 10
0.0000
 20
0.0000
  0
TEXT
  8
1
 10
27.4098
 20
20.3865
 40
0.250
 50
0.0000
  1
Piece Name: GLX0924S16_NEWSBIN
  7
STANDARD
  0
TEXT
  8
1
 10
27.4098
 20
20.5265
 40
0.250
 50
0.0000
  1
SIZE: 42
  7
STANDARD
  0
POLYLINE
  8
1
 66
1
 70
0
  0
VERTEX
  8
1
 10
26.7799
 20
9.1516
  0
VERTEX
  8
1
 10
26.7799
 20
31.6215
  0
SEQEND
  8
1
  0
POLYLINE
  8
1
 66
1
 70
0
  0
VERTEX
  8
1
 10
26.7799
 20
31.6215
  0
VERTEX
  8
1
 10
28.0397
 20
31.6215
  0
SEQEND
  8
1
  0
POLYLINE
  8
1
 66
1
 70
0
  0
VERTEX
  8
1
 10
28.0397
 20
31.6215
  0
VERTEX
  8
1
 10
28.0397
 20
9.1516
  0
SEQEND
  8
1
  0
POLYLINE
  8
1
 66
1
 70
0
  0
VERTEX
  8
1
 10
28.0397
 20
9.1516
  0
VERTEX
  8
1
 10
26.7799
 20
9.1516
  0
SEQEND
  8
1
  0
LINE
  8
7
 10
27.1736
 20
17.2815
 11
27.9610
 21
17.2815
  0
LINE
  8
5
 10
27.1736
 20
17.2815
 11
27.9610
 21
17.2815
  0
POLYLINE
  8
8
 66
1
 70
0
  0
VERTEX
  8
8
 10
27.1940
 20
21.9922
  0
VERTEX
  8
8
 10
27.1940
 20
18.6432
  0
VERTEX
  8
8
 10
27.5877
 20
18.6432
  0
SEQEND
  8
8
  0
ENDBLK
  0
BLOCK
  8
0
  2
GLX0924S16_NEWSBIN_44
 70
64
 10
0.0000
 20
0.0000
  0
TEXT
  8
1
 10
27.4098
 20
20.3865
 40
0.250
 50
0.0000
  1
Piece Name: GLX0924S16_NEWSBIN
  7
STANDARD
  0
TEXT
  8
1
 10
27.4098
 20
20.5265
 40
0.250
 50
0.0000
  1
SIZE: 44
  7
STANDARD
  0
POLYLINE
  8
1
 66
1
 70
0
  0
VERTEX
  8
1
 10
26.7799
 20
9.0389
  0
VERTEX
  8
1
 10
26.7799
 20
31.7341
  0
SEQEND
  8
1
  0
POLYLINE
  8
1
 66
1
 70
0
  0
VERTEX
  8
1
 10
26.7799
 20
31.7341
  0
VERTEX
  8
1
 10
28.0397
 20
31.7341
  0
SEQEND
  8
1
  0
POLYLINE
  8
1
 66
1
 70
0
  0
VERTEX
  8
1
 10
28.0397
 20
31.7341
  0
VERTEX
  8
1
 10
28.0397
 20
9.0389
  0
SEQEND
  8
1
  0
POLYLINE
  8
1
 66
1
 70
0
  0
VERTEX
  8
1
 10
28.0397
 20
9.0389
  0
VERTEX
  8
1
 10
26.7799
 20
9.0389
  0
SEQEND
  8
1
  0
LINE
  8
7
 10
27.1736
 20
17.1688
 11
27.9610
 21
17.1688
  0
LINE
  8
5
 10
27.1736
 20
17.1688
 11
27.9610
 21
17.1688
  0
POLYLINE
  8
8
 66
1
 70
0
  0
VERTEX
  8
8
 10
27.1940
 20
21.8795
  0
VERTEX
  8
8
 10
27.1940
 20
18.5305
  0
VERTEX
  8
8
 10
27.5877
 20
18.5305
  0
SEQEND
  8
8
  0
ENDBLK
  0
BLOCK
  8
0
  2
GLX0924S16_NEWSBIN_46
 70
64
 10
0.0000
 20
0.0000
  0
TEXT
  8
1
 10
27.4098
 20
20.3865
 40
0.250
 50
0.0000
  1
Piece Name: GLX0924S16_NEWSBIN
  7
STANDARD
  0
TEXT
  8
1
 10
27.4098
 20
20.5265
 40
0.250
 50
0.0000
  1
SIZE: 46
  7
STANDARD
  0
POLYLINE
  8
1
 66
1
 70
0
  0
VERTEX
  8
1
 10
26.7799
 20
8.9243
  0
VERTEX
  8
1
 10
26.7799
 20
31.8488
  0
SEQEND
  8
1
  0
POLYLINE
  8
1
 66
1
 70
0
  0
VERTEX
  8
1
 10
26.7799
 20
31.8488
  0
VERTEX
  8
1
 10
28.0397
 20
31.8488
  0
SEQEND
  8
1
  0
POLYLINE
  8
1
 66
1
 70
0
  0
VERTEX
  8
1
 10
28.0397
 20
31.8488
  0
VERTEX
  8
1
 10
28.0397
 20
8.9243
  0
SEQEND
  8
1
  0
POLYLINE
  8
1
 66
1
 70
0
  0
VERTEX
  8
1
 10
28.0397
 20
8.9243
  0
VERTEX
  8
1
 10
26.7799
 20
8.9243
  0
SEQEND
  8
1
  0
LINE
  8
7
 10
27.1736
 20
17.0542
 11
27.9610
 21
17.0542
  0
LINE
  8
5
 10
27.1736
 20
17.0542
 11
27.9610
 21
17.0542
  0
POLYLINE
  8
8
 66
1
 70
0
  0
VERTEX
  8
8
 10
27.1940
 20
21.7649
  0
VERTEX
  8
8
 10
27.1940
 20
18.4159
  0
VERTEX
  8
8
 10
27.5877
 20
18.4159
  0
SEQEND
  8
8
  0
ENDBLK
  0
BLOCK
  8
0
  2
GLX0924S16_NEWSBIN_48
 70
64
 10
0.0000
 20
0.0000
  0
TEXT
  8
1
 10
27.4098
 20
20.3865
 40
0.250
 50
0.0000
  1
Piece Name: GLX0924S16_NEWSBIN
  7
STANDARD
  0
TEXT
  8
1
 10
27.4098
 20
20.5265
 40
0.250
 50
0.0000
  1
SIZE: 48
  7
STANDARD
  0
POLYLINE
  8
1
 66
1
 70
0
  0
VERTEX
  8
1
 10
26.7799
 20
8.8083
  0
VERTEX
  8
1
 10
26.7799
 20
31.9648
  0
SEQEND
  8
1
  0
POLYLINE
  8
1
 66
1
 70
0
  0
VERTEX
  8
1
 10
26.7799
 20
31.9648
  0
VERTEX
  8
1
 10
28.0397
 20
31.9648
  0
SEQEND
  8
1
  0
POLYLINE
  8
1
 66
1
 70
0
  0
VERTEX
  8
1
 10
28.0397
 20
31.9648
  0
VERTEX
  8
1
 10
28.0397
 20
8.8083
  0
SEQEND
  8
1
  0
POLYLINE
  8
1
 66
1
 70
0
  0
VERTEX
  8
1
 10
28.0397
 20
8.8083
  0
VERTEX
  8
1
 10
26.7799
 20
8.8083
  0
SEQEND
  8
1
  0
LINE
  8
7
 10
27.1736
 20
16.9382
 11
27.9610
 21
16.9382
  0
LINE
  8
5
 10
27.1736
 20
16.9382
 11
27.9610
 21
16.9382
  0
POLYLINE
  8
8
 66
1
 70
0
  0
VERTEX
  8
8
 10
27.1940
 20
21.6489
  0
VERTEX
  8
8
 10
27.1940
 20
18.2999
  0
VERTEX
  8
8
 10
27.5877
 20
18.2999
  0
SEQEND
  8
8
  0
ENDBLK
  0
BLOCK
  8
0
  2
GLX0924S16_NEWSBIN_50
 70
64
 10
0.0000
 20
0.0000
  0
TEXT
  8
1
 10
27.4098
 20
20.3865
 40
0.250
 50
0.0000
  1
Piece Name: GLX0924S16_NEWSBIN
  7
STANDARD
  0
TEXT
  8
1
 10
27.4098
 20
20.5265
 40
0.250
 50
0.0000
  1
SIZE: 50
  7
STANDARD
  0
POLYLINE
  8
1
 66
1
 70
0
  0
VERTEX
  8
1
 10
26.7799
 20
8.6442
  0
VERTEX
  8
1
 10
26.7799
 20
32.1289
  0
SEQEND
  8
1
  0
POLYLINE
  8
1
 66
1
 70
0
  0
VERTEX
  8
1
 10
26.7799
 20
32.1289
  0
VERTEX
  8
1
 10
28.0397
 20
32.1289
  0
SEQEND
  8
1
  0
POLYLINE
  8
1
 66
1
 70
0
  0
VERTEX
  8
1
 10
28.0397
 20
32.1289
  0
VERTEX
  8
1
 10
28.0397
 20
8.6442
  0
SEQEND
  8
1
  0
POLYLINE
  8
1
 66
1
 70
0
  0
VERTEX
  8
1
 10
28.0397
 20
8.6442
  0
VERTEX
  8
1
 10
26.7799
 20
8.6442
  0
SEQEND
  8
1
  0
LINE
  8
7
 10
27.1736
 20
16.7741
 11
27.9610
 21
16.7741
  0
LINE
  8
5
 10
27.1736
 20
16.7741
 11
27.9610
 21
16.7741
  0
POLYLINE
  8
8
 66
1
 70
0
  0
VERTEX
  8
8
 10
27.1940
 20
21.4848
  0
VERTEX
  8
8
 10
27.1940
 20
18.1358
  0
VERTEX
  8
8
 10
27.5877
 20
18.1358
  0
SEQEND
  8
8
  0
ENDBLK
  0
BLOCK
  8
0
  2
GLX0924S16_NEWSBIN_52
 70
64
 10
0.0000
 20
0.0000
  0
TEXT
  8
1
 10
27.4098
 20
20.3865
 40
0.250
 50
0.0000
  1
Piece Name: GLX0924S16_NEWSBIN
  7
STANDARD
  0
TEXT
  8
1
 10
27.4098
 20
20.5265
 40
0.250
 50
0.0000
  1
SIZE: 52
  7
STANDARD
  0
POLYLINE
  8
1
 66
1
 70
0
  0
VERTEX
  8
1
 10
26.7799
 20
8.4788
  0
VERTEX
  8
1
 10
26.7799
 20
32.2943
  0
SEQEND
  8
1
  0
POLYLINE
  8
1
 66
1
 70
0
  0
VERTEX
  8
1
 10
26.7799
 20
32.2943
  0
VERTEX
  8
1
 10
28.0397
 20
32.2943
  0
SEQEND
  8
1
  0
POLYLINE
  8
1
 66
1
 70
0
  0
VERTEX
  8
1
 10
28.0397
 20
32.2943
  0
VERTEX
  8
1
 10
28.0397
 20
8.4788
  0
SEQEND
  8
1
  0
POLYLINE
  8
1
 66
1
 70
0
  0
VERTEX
  8
1
 10
28.0397
 20
8.4788
  0
VERTEX
  8
1
 10
26.7799
 20
8.4788
  0
SEQEND
  8
1
  0
LINE
  8
7
 10
27.1736
 20
16.6087
 11
27.9610
 21
16.6087
  0
LINE
  8
5
 10
27.1736
 20
16.6087
 11
27.9610
 21
16.6087
  0
POLYLINE
  8
8
 66
1
 70
0
  0
VERTEX
  8
8
 10
27.1940
 20
21.3194
  0
VERTEX
  8
8
 10
27.1940
 20
17.9704
  0
VERTEX
  8
8
 10
27.5877
 20
17.9704
  0
SEQEND
  8
8
  0
ENDBLK
  0
BLOCK
  8
0
  2
GLX0924S16_NEW_BK_26
 70
64
 10
0.0000
 20
0.0000
  0
TEXT
  8
1
 10
42.3755
 20
27.8958
 40
0.250
 50
0.0000
  1
Piece Name: GLX0924S16_NEW_BK
  7
STANDARD
  0
TEXT
  8
1
 10
42.3755
 20
28.0358
 40
0.250
 50
0.0000
  1
SIZE: 26
  7
STANDARD
  0
POLYLINE
  8
1
 66
1
 70
0
  0
VERTEX
  8
1
 10
52.8772
 20
31.4887
  0
VERTEX
  8
1
 10
52.9099
 20
30.2385
  0
VERTEX
  8
1
 10
52.9941
 20
29.2645
  0
VERTEX
  8
1
 10
53.2123
 20
28.4263
  0
VERTEX
  8
1
 10
53.3744
 20
27.8724
  0
SEQEND
  8
1
  0
POLYLINE
  8
1
 66
1
 70
0
  0
VERTEX
  8
1
 10
53.3744
 20
27.8724
  0
VERTEX
  8
1
 10
54.0193
 20
27.3309
  0
SEQEND
  8
1
  0
POLYLINE
  8
1
 66
1
 70
0
  0
VERTEX
  8
1
 10
54.0193
 20
27.3309
  0
VERTEX
  8
1
 10
53.4451
 20
25.6825
  0
SEQEND
  8
1
  0
POLYLINE
  8
1
 66
1
 70
0
  0
VERTEX
  8
1
 10
53.4451
 20
25.6825
  0
VERTEX
  8
1
 10
52.7652
 20
26.1434
  0
VERTEX
  8
1
 10
52.7445
 20
26.1621
  0
VERTEX
  8
1
 10
51.8572
 20
27.2696
  0
VERTEX
  8
1
 10
50.8485
 20
28.5832
  0
VERTEX
  8
1
 10
50.5174
 20
28.9447
  0
VERTEX
  8
1
 10
50.3021
 20
29.1094
  0
SEQEND
  8
1
  0
POLYLINE
  8
1
 66
1
 70
0
  0
VERTEX
  8
1
 10
50.3021
 20
29.1094
  0
VERTEX
  8
1
 10
49.4636
 20
29.5722
  0
VERTEX
  8
1
 10
48.8570
 20
29.7592
  0
VERTEX
  8
1
 10
48.1206
 20
29.8796
  0
VERTEX
  8
1
 10
47.3314
 20
29.9127
  0
VERTEX
  8
1
 10
47.0912
 20
29.8790
  0
VERTEX
  8
1
 10
45.9732
 20
29.4305
  0
VERTEX
  8
1
 10
45.4085
 20
28.7022
  0
VERTEX
  8
1
 10
45.2867
 20
28.4168
  0
VERTEX
  8
1
 10
45.1276
 20
26.8731
  0
VERTEX
  8
1
 10
45.3470
 20
25.6209
  0
VERTEX
  8
1
 10
45.6087
 20
24.6965
  0
SEQEND
  8
1
  0
POLYLINE
  8
1
 66
1
 70
0
  0
VERTEX
  8
1
 10
45.6087
 20
24.6965
  0
VERTEX
  8
1
 10
44.8499
 20
24.6997
  0
VERTEX
  8
1
 10
39.5690
 20
25.4053
  0
VERTEX
  8
1
 10
38.4167
 20
25.4845
  0
VERTEX
  8
1
 10
36.5496
 20
25.0407
  0
VERTEX
  8
1
 10
35.7963
 20
24.8733
  0
VERTEX
  8
1
 10
31.4742
 20
24.3642
  0
VERTEX
  8
1
 10
30.7317
 20
24.3029
  0
SEQEND
  8
1
  0
POLYLINE
  8
1
 66
1
 70
0
  0
VERTEX
  8
1
 10
30.7317
 20
24.3029
  0
VERTEX
  8
1
 10
30.7317
 20
31.4887
  0
SEQEND
  8
1
  0
POLYLINE
  8
1
 66
1
 70
0
  0
VERTEX
  8
1
 10
30.7317
 20
31.4887
  0
VERTEX
  8
1
 10
52.8772
 20
31.4887
  0
SEQEND
  8
1
  0
LINE
  8
7
 10
36.0053
 20
27.1576
 11
48.5214
 21
27.1576
  0
LINE
  8
5
 10
36.0053
 20
27.1576
 11
48.5214
 21
27.1576
  0
LINE
  8
8
 10
54.1619
 20
27.7484
 11
53.5456
 21
25.9993
  0
LINE
  8
8
 10
53.3692
 20
31.4887
 11
54.1633
 21
31.4887
  0
LINE
  8
8
 10
44.8191
 20
23.2205
 11
44.8191
 21
31.4886
  0
LINE
  8
8
 10
48.1206
 20
29.8796
 11
48.1206
 21
31.4887
  0
LINE
  8
8
 10
38.1212
 20
31.4887
 11
38.1212
 21
24.0080
  0
LINE
  8
6
 10
30.7317
 20
31.4887
 11
52.8772
 21
31.4887
  0
ENDBLK
  0
BLOCK
  8
0
  2
GLX0924S16_NEW_BK_28
 70
64
 10
0.0000
 20
0.0000
  0
TEXT
  8
1
 10
42.4475
 20
27.7481
 40
0.250
 50
0.0000
  1
Piece Name: GLX0924S16_NEW_BK
  7
STANDARD
  0
TEXT
  8
1
 10
42.4475
 20
27.8881
 40
0.250
 50
0.0000
  1
SIZE: 28
  7
STANDARD
  0
POLYLINE
  8
1
 66
1
 70
0
  0
VERTEX
  8
1
 10
53.0673
 20
31.4887
  0
VERTEX
  8
1
 10
53.1000
 20
30.2385
  0
VERTEX
  8
1
 10
53.1960
 20
29.2512
  0
VERTEX
  8
1
 10
53.4221
 20
28.4145
  0
VERTEX
  8
1
 10
53.6236
 20
27.8476
  0
SEQEND
  8
1
  0
POLYLINE
  8
1
 66
1
 70
0
  0
VERTEX
  8
1
 10
53.6236
 20
27.8476
  0
VERTEX
  8
1
 10
54.2685
 20
27.3061
  0
SEQEND
  8
1
  0
POLYLINE
  8
1
 66
1
 70
0
  0
VERTEX
  8
1
 10
54.2685
 20
27.3061
  0
VERTEX
  8
1
 10
53.6943
 20
25.6577
  0
SEQEND
  8
1
  0
POLYLINE
  8
1
 66
1
 70
0
  0
VERTEX
  8
1
 10
53.6943
 20
25.6577
  0
VERTEX
  8
1
 10
53.0144
 20
26.1186
  0
VERTEX
  8
1
 10
52.9937
 20
26.1373
  0
VERTEX
  8
1
 10
52.0667
 20
27.2617
  0
VERTEX
  8
1
 10
51.0120
 20
28.5959
  0
VERTEX
  8
1
 10
50.6669
 20
28.9623
  0
VERTEX
  8
1
 10
50.4434
 20
29.1283
  0
SEQEND
  8
1
  0
POLYLINE
  8
1
 66
1
 70
0
  0
VERTEX
  8
1
 10
50.4434
 20
29.1283
  0
VERTEX
  8
1
 10
49.5745
 20
29.5870
  0
VERTEX
  8
1
 10
48.9487
 20
29.7671
  0
VERTEX
  8
1
 10
48.2123
 20
29.8796
  0
VERTEX
  8
1
 10
47.4231
 20
29.8931
  0
VERTEX
  8
1
 10
47.1791
 20
29.8572
  0
VERTEX
  8
1
 10
46.0456
 20
29.3933
  0
VERTEX
  8
1
 10
45.4767
 20
28.6488
  0
VERTEX
  8
1
 10
45.3548
 20
28.3578
  0
VERTEX
  8
1
 10
45.1922
 20
26.6986
  0
VERTEX
  8
1
 10
45.4347
 20
25.3546
  0
VERTEX
  8
1
 10
45.7004
 20
24.4013
  0
SEQEND
  8
1
  0
POLYLINE
  8
1
 66
1
 70
0
  0
VERTEX
  8
1
 10
45.7004
 20
24.4013
  0
VERTEX
  8
1
 10
44.9354
 20
24.4039
  0
VERTEX
  8
1
 10
39.6110
 20
25.1104
  0
VERTEX
  8
1
 10
38.4493
 20
25.1892
  0
VERTEX
  8
1
 10
36.5483
 20
24.7426
  0
VERTEX
  8
1
 10
35.7813
 20
24.5743
  0
VERTEX
  8
1
 10
31.3822
 20
24.0680
  0
VERTEX
  8
1
 10
30.6265
 20
24.0076
  0
SEQEND
  8
1
  0
POLYLINE
  8
1
 66
1
 70
0
  0
VERTEX
  8
1
 10
30.6265
 20
24.0076
  0
VERTEX
  8
1
 10
30.6265
 20
31.4887
  0
SEQEND
  8
1
  0
POLYLINE
  8
1
 66
1
 70
0
  0
VERTEX
  8
1
 10
30.6265
 20
31.4887
  0
VERTEX
  8
1
 10
53.0673
 20
31.4887
  0
SEQEND
  8
1
  0
LINE
  8
7
 10
36.0970
 20
27.1576
 11
48.6131
 21
27.1576
  0
LINE
  8
5
 10
36.0970
 20
27.1576
 11
48.6131
 21
27.1576
  0
LINE
  8
8
 10
54.2536
 20
27.7484
 11
53.6373
 21
25.9993
  0
LINE
  8
8
 10
53.4609
 20
31.4887
 11
54.2550
 21
31.4887
  0
LINE
  8
8
 10
44.9108
 20
23.2205
 11
44.9108
 21
31.4886
  0
LINE
  8
8
 10
48.2123
 20
29.8796
 11
48.2123
 21
31.4887
  0
LINE
  8
8
 10
38.2129
 20
31.4887
 11
38.2129
 21
24.0080
  0
LINE
  8
6
 10
30.6265
 20
31.4887
 11
53.0673
 21
31.4887
  0
ENDBLK
  0
BLOCK
  8
0
  2
GLX0924S16_NEW_BK_30
 70
64
 10
0.0000
 20
0.0000
  0
TEXT
  8
1
 10
42.4475
 20
27.6005
 40
0.250
 50
0.0000
  1
Piece Name: GLX0924S16_NEW_BK
  7
STANDARD
  0
TEXT
  8
1
 10
42.4475
 20
27.7405
 40
0.250
 50
0.0000
  1
SIZE: 30
  7
STANDARD
  0
POLYLINE
  8
1
 66
1
 70
0
  0
VERTEX
  8
1
 10
53.1854
 20
31.4887
  0
VERTEX
  8
1
 10
53.2181
 20
30.2385
  0
VERTEX
  8
1
 10
53.3259
 20
29.2379
  0
VERTEX
  8
1
 10
53.5599
 20
28.4027
  0
VERTEX
  8
1
 10
53.8008
 20
27.8228
  0
SEQEND
  8
1
  0
POLYLINE
  8
1
 66
1
 70
0
  0
VERTEX
  8
1
 10
53.8008
 20
27.8228
  0
VERTEX
  8
1
 10
54.4457
 20
27.2813
  0
SEQEND
  8
1
  0
POLYLINE
  8
1
 66
1
 70
0
  0
VERTEX
  8
1
 10
54.4457
 20
27.2813
  0
VERTEX
  8
1
 10
53.8715
 20
25.6329
  0
SEQEND
  8
1
  0
POLYLINE
  8
1
 66
1
 70
0
  0
VERTEX
  8
1
 10
53.8715
 20
25.6329
  0
VERTEX
  8
1
 10
53.1916
 20
26.0938
  0
VERTEX
  8
1
 10
53.1709
 20
26.1125
  0
VERTEX
  8
1
 10
52.2041
 20
27.2537
  0
VERTEX
  8
1
 10
51.1034
 20
28.6085
  0
VERTEX
  8
1
 10
50.7442
 20
28.9798
  0
VERTEX
  8
1
 10
50.5126
 20
29.1471
  0
SEQEND
  8
1
  0
POLYLINE
  8
1
 66
1
 70
0
  0
VERTEX
  8
1
 10
50.5126
 20
29.1471
  0
VERTEX
  8
1
 10
49.6134
 20
29.6016
  0
VERTEX
  8
1
 10
48.9684
 20
29.7750
  0
VERTEX
  8
1
 10
48.2320
 20
29.8796
  0
VERTEX
  8
1
 10
47.4428
 20
29.8735
  0
VERTEX
  8
1
 10
47.1951
 20
29.8353
  0
VERTEX
  8
1
 10
46.0460
 20
29.3560
  0
VERTEX
  8
1
 10
45.4728
 20
28.5955
  0
VERTEX
  8
1
 10
45.3509
 20
28.2988
  0
VERTEX
  8
1
 10
45.1849
 20
26.5241
  0
VERTEX
  8
1
 10
45.4505
 20
25.0883
  0
VERTEX
  8
1
 10
45.7201
 20
24.1061
  0
SEQEND
  8
1
  0
POLYLINE
  8
1
 66
1
 70
0
  0
VERTEX
  8
1
 10
45.7201
 20
24.1061
  0
VERTEX
  8
1
 10
44.9489
 20
24.1080
  0
VERTEX
  8
1
 10
39.5811
 20
24.8155
  0
VERTEX
  8
1
 10
38.4099
 20
24.8939
  0
VERTEX
  8
1
 10
36.4750
 20
24.4446
  0
VERTEX
  8
1
 10
35.6944
 20
24.2754
  0
VERTEX
  8
1
 10
31.2181
 20
23.7717
  0
VERTEX
  8
1
 10
30.4493
 20
23.7123
  0
SEQEND
  8
1
  0
POLYLINE
  8
1
 66
1
 70
0
  0
VERTEX
  8
1
 10
30.4493
 20
23.7123
  0
VERTEX
  8
1
 10
30.4493
 20
31.4887
  0
SEQEND
  8
1
  0
POLYLINE
  8
1
 66
1
 70
0
  0
VERTEX
  8
1
 10
30.4493
 20
31.4887
  0
VERTEX
  8
1
 10
53.1854
 20
31.4887
  0
SEQEND
  8
1
  0
LINE
  8
7
 10
36.1167
 20
27.1576
 11
48.6328
 21
27.1576
  0
LINE
  8
5
 10
36.1167
 20
27.1576
 11
48.6328
 21
27.1576
  0
LINE
  8
8
 10
54.2733
 20
27.7484
 11
53.6570
 21
25.9993
  0
LINE
  8
8
 10
53.4806
 20
31.4887
 11
54.2747
 21
31.4887
  0
LINE
  8
8
 10
44.9305
 20
23.2205
 11
44.9305
 21
31.4886
  0
LINE
  8
8
 10
48.2320
 20
29.8796
 11
48.2320
 21
31.4887
  0
LINE
  8
8
 10
38.2326
 20
31.4887
 11
38.2326
 21
24.0080
  0
LINE
  8
6
 10
30.4493
 20
31.4887
 11
53.1854
 21
31.4887
  0
ENDBLK
  0
BLOCK
  8
0
  2
GLX0924S16_NEW_BK_32
 70
64
 10
0.0000
 20
0.0000
  0
TEXT
  8
1
 10
42.4475
 20
27.4528
 40
0.250
 50
0.0000
  1
Piece Name: GLX0924S16_NEW_BK
  7
STANDARD
  0
TEXT
  8
1
 10
42.4475
 20
27.5928
 40
0.250
 50
0.0000
  1
SIZE: 32
  7
STANDARD
  0
POLYLINE
  8
1
 66
1
 70
0
  0
VERTEX
  8
1
 10
53.3035
 20
31.4887
  0
VERTEX
  8
1
 10
53.3362
 20
30.2385
  0
VERTEX
  8
1
 10
53.4558
 20
29.2246
  0
VERTEX
  8
1
 10
53.6977
 20
28.3909
  0
VERTEX
  8
1
 10
53.9780
 20
27.7980
  0
SEQEND
  8
1
  0
POLYLINE
  8
1
 66
1
 70
0
  0
VERTEX
  8
1
 10
53.9780
 20
27.7980
  0
VERTEX
  8
1
 10
54.6229
 20
27.2565
  0
SEQEND
  8
1
  0
POLYLINE
  8
1
 66
1
 70
0
  0
VERTEX
  8
1
 10
54.6229
 20
27.2565
  0
VERTEX
  8
1
 10
54.0487
 20
25.6081
  0
SEQEND
  8
1
  0
POLYLINE
  8
1
 66
1
 70
0
  0
VERTEX
  8
1
 10
54.0487
 20
25.6081
  0
VERTEX
  8
1
 10
53.3688
 20
26.0690
  0
VERTEX
  8
1
 10
53.3481
 20
26.0877
  0
VERTEX
  8
1
 10
52.3416
 20
27.2458
  0
VERTEX
  8
1
 10
51.1950
 20
28.6212
  0
VERTEX
  8
1
 10
50.8218
 20
28.9974
  0
VERTEX
  8
1
 10
50.5820
 20
29.1660
  0
SEQEND
  8
1
  0
POLYLINE
  8
1
 66
1
 70
0
  0
VERTEX
  8
1
 10
50.5820
 20
29.1660
  0
VERTEX
  8
1
 10
49.6523
 20
29.6164
  0
VERTEX
  8
1
 10
48.9881
 20
29.7829
  0
VERTEX
  8
1
 10
48.2517
 20
29.8796
  0
VERTEX
  8
1
 10
47.4625
 20
29.8539
  0
VERTEX
  8
1
 10
47.2110
 20
29.8135
  0
VERTEX
  8
1
 10
46.0464
 20
29.3188
  0
VERTEX
  8
1
 10
45.4689
 20
28.5421
  0
VERTEX
  8
1
 10
45.3470
 20
28.2398
  0
VERTEX
  8
1
 10
45.1776
 20
26.3496
  0
VERTEX
  8
1
 10
45.4663
 20
24.8220
  0
VERTEX
  8
1
 10
45.7398
 20
23.8109
  0
SEQEND
  8
1
  0
POLYLINE
  8
1
 66
1
 70
0
  0
VERTEX
  8
1
 10
45.7398
 20
23.8109
  0
VERTEX
  8
1
 10
44.9625
 20
23.8122
  0
VERTEX
  8
1
 10
39.5511
 20
24.5206
  0
VERTEX
  8
1
 10
38.3705
 20
24.5986
  0
VERTEX
  8
1
 10
36.4017
 20
24.1465
  0
VERTEX
  8
1
 10
35.6074
 20
23.9764
  0
VERTEX
  8
1
 10
31.0541
 20
23.4755
  0
VERTEX
  8
1
 10
30.2721
 20
23.4170
  0
SEQEND
  8
1
  0
POLYLINE
  8
1
 66
1
 70
0
  0
VERTEX
  8
1
 10
30.2721
 20
23.4170
  0
VERTEX
  8
1
 10
30.2721
 20
31.4887
  0
SEQEND
  8
1
  0
POLYLINE
  8
1
 66
1
 70
0
  0
VERTEX
  8
1
 10
30.2721
 20
31.4887
  0
VERTEX
  8
1
 10
53.3035
 20
31.4887
  0
SEQEND
  8
1
  0
LINE
  8
7
 10
36.1364
 20
27.1576
 11
48.6525
 21
27.1576
  0
LINE
  8
5
 10
36.1364
 20
27.1576
 11
48.6525
 21
27.1576
  0
LINE
  8
8
 10
54.2930
 20
27.7484
 11
53.6767
 21
25.9993
  0
LINE
  8
8
 10
53.5003
 20
31.4887
 11
54.2944
 21
31.4887
  0
LINE
  8
8
 10
44.9502
 20
23.2205
 11
44.9502
 21
31.4886
  0
LINE
  8
8
 10
48.2517
 20
29.8796
 11
48.2517
 21
31.4887
  0
LINE
  8
8
 10
38.2523
 20
31.4887
 11
38.2523
 21
24.0080
  0
LINE
  8
6
 10
30.2721
 20
31.4887
 11
53.3035
 21
31.4887
  0
ENDBLK
  0
BLOCK
  8
0
  2
GLX0924S16_NEW_BK_34
 70
64
 10
0.0000
 20
0.0000
  0
TEXT
  8
1
 10
42.4475
 20
27.3546
 40
0.250
 50
0.0000
  1
Piece Name: GLX0924S16_NEW_BK
  7
STANDARD
  0
TEXT
  8
1
 10
42.4475
 20
27.4946
 40
0.250
 50
0.0000
  1
SIZE: 34
  7
STANDARD
  0
POLYLINE
  8
1
 66
1
 70
0
  0
VERTEX
  8
1
 10
53.4216
 20
31.5381
  0
VERTEX
  8
1
 10
53.4543
 20
30.2879
  0
VERTEX
  8
1
 10
53.5857
 20
29.2607
  0
VERTEX
  8
1
 10
53.8355
 20
28.4285
  0
VERTEX
  8
1
 10
54.1552
 20
27.8226
  0
SEQEND
  8
1
  0
POLYLINE
  8
1
 66
1
 70
0
  0
VERTEX
  8
1
 10
54.1552
 20
27.8226
  0
VERTEX
  8
1
 10
54.8001
 20
27.2811
  0
SEQEND
  8
1
  0
POLYLINE
  8
1
 66
1
 70
0
  0
VERTEX
  8
1
 10
54.8001
 20
27.2811
  0
VERTEX
  8
1
 10
54.2259
 20
25.6327
  0
SEQEND
  8
1
  0
POLYLINE
  8
1
 66
1
 70
0
  0
VERTEX
  8
1
 10
54.2259
 20
25.6327
  0
VERTEX
  8
1
 10
53.5460
 20
26.0936
  0
VERTEX
  8
1
 10
53.5253
 20
26.1123
  0
VERTEX
  8
1
 10
52.4791
 20
27.2873
  0
VERTEX
  8
1
 10
51.2865
 20
28.6833
  0
VERTEX
  8
1
 10
50.8992
 20
29.0644
  0
VERTEX
  8
1
 10
50.6513
 20
29.2343
  0
SEQEND
  8
1
  0
POLYLINE
  8
1
 66
1
 70
0
  0
VERTEX
  8
1
 10
50.6513
 20
29.2343
  0
VERTEX
  8
1
 10
49.6912
 20
29.6805
  0
VERTEX
  8
1
 10
49.0078
 20
29.8402
  0
VERTEX
  8
1
 10
48.2714
 20
29.9290
  0
VERTEX
  8
1
 10
47.4822
 20
29.8837
  0
VERTEX
  8
1
 10
47.2269
 20
29.8410
  0
VERTEX
  8
1
 10
46.0468
 20
29.3310
  0
VERTEX
  8
1
 10
45.4650
 20
28.5381
  0
VERTEX
  8
1
 10
45.3431
 20
28.2302
  0
VERTEX
  8
1
 10
45.1702
 20
26.2245
  0
VERTEX
  8
1
 10
45.4820
 20
24.6052
  0
VERTEX
  8
1
 10
45.7595
 20
23.5651
  0
SEQEND
  8
1
  0
POLYLINE
  8
1
 66
1
 70
0
  0
VERTEX
  8
1
 10
45.7595
 20
23.5651
  0
VERTEX
  8
1
 10
44.9760
 20
23.5657
  0
VERTEX
  8
1
 10
39.5211
 20
24.2751
  0
VERTEX
  8
1
 10
38.3311
 20
24.3527
  0
VERTEX
  8
1
 10
36.3284
 20
23.8979
  0
VERTEX
  8
1
 10
35.5205
 20
23.7269
  0
VERTEX
  8
1
 10
30.8901
 20
23.2287
  0
VERTEX
  8
1
 10
30.0949
 20
23.1711
  0
SEQEND
  8
1
  0
POLYLINE
  8
1
 66
1
 70
0
  0
VERTEX
  8
1
 10
30.0949
 20
23.1711
  0
VERTEX
  8
1
 10
30.0949
 20
31.5381
  0
SEQEND
  8
1
  0
POLYLINE
  8
1
 66
1
 70
0
  0
VERTEX
  8
1
 10
30.0949
 20
31.5381
  0
VERTEX
  8
1
 10
53.4216
 20
31.5381
  0
SEQEND
  8
1
  0
LINE
  8
7
 10
36.1561
 20
27.2070
 11
48.6722
 21
27.2070
  0
LINE
  8
5
 10
36.1561
 20
27.2070
 11
48.6722
 21
27.2070
  0
LINE
  8
8
 10
54.3127
 20
27.7978
 11
53.6964
 21
26.0487
  0
LINE
  8
8
 10
53.5200
 20
31.5381
 11
54.3141
 21
31.5381
  0
LINE
  8
8
 10
44.9699
 20
23.2699
 11
44.9699
 21
31.5380
  0
LINE
  8
8
 10
48.2714
 20
29.9290
 11
48.2714
 21
31.5381
  0
LINE
  8
8
 10
38.2720
 20
31.5381
 11
38.2720
 21
24.0574
  0
LINE
  8
6
 10
30.0949
 20
31.5381
 11
53.4216
 21
31.5381
  0
ENDBLK
  0
BLOCK
  8
0
  2
GLX0924S16_NEW_BK_36
 70
64
 10
0.0000
 20
0.0000
  0
TEXT
  8
1
 10
42.4475
 20
27.3546
 40
0.250
 50
0.0000
  1
Piece Name: GLX0924S16_NEW_BK
  7
STANDARD
  0
TEXT
  8
1
 10
42.4475
 20
27.4946
 40
0.250
 50
0.0000
  1
Quantity: 1
  7
STANDARD
  0
TEXT
  8
1
 10
42.4475
 20
27.6346
 40
0.250
 50
0.0000
  1
ANNOTATION: 1X FABRIC
  7
STANDARD
  0
TEXT
  8
1
 10
42.4475
 20
27.7746
 40
0.250
 50
0.0000
  1
CATEGORY: FRONT
  7
STANDARD
  0
TEXT
  8
1
 10
42.4475
 20
27.9146
 40
0.250
 50
0.0000
  1
SIZE: 36
  7
STANDARD
  0
POLYLINE
  8
1
 66
1
 70
0
  0
VERTEX
  8
1
 10
53.5397
 20
31.6858
  0
VERTEX
  8
1
 10
53.5724
 20
30.4356
  0
VERTEX
  8
1
 10
53.7156
 20
29.3951
  0
VERTEX
  8
1
 10
53.9694
 20
28.5644
  0
VERTEX
  8
1
 10
54.3324
 20
27.9455
  0
SEQEND
  8
1
  0
POINT
  8
4
 10
53.5397
 20
31.6858
 30
0.1574
 39
0.0000
  0
POINT
  8
2
 10
53.5397
 20
31.6858
  0
TEXT
  8
2
 10
53.5397
 20
31.6858
 40
0.250
 50
0.0000
  1
# 1
  7
STANDARD
  0
POINT
  8
3
 10
53.5724
 20
30.4356
  0
TEXT
  8
3
 10
53.5724
 20
30.4356
 40
0.250
 50
0.0000
  1
# 1
  7
STANDARD
  0
POINT
  8
3
 10
53.7156
 20
29.3951
  0
TEXT
  8
3
 10
53.7156
 20
29.3951
 40
0.250
 50
0.0000
  1
# 2
  7
STANDARD
  0
POINT
  8
3
 10
53.9694
 20
28.5644
  0
TEXT
  8
3
 10
53.9694
 20
28.5644
 40
0.250
 50
0.0000
  1
# 3
  7
STANDARD
  0
POINT
  8
2
 10
54.3324
 20
27.9455
  0
TEXT
  8
2
 10
54.3324
 20
27.9455
 40
0.250
 50
0.0000
  1
# 4
  7
STANDARD
  0
POLYLINE
  8
1
 66
1
 70
0
  0
VERTEX
  8
1
 10
54.3324
 20
27.9455
  0
VERTEX
  8
1
 10
54.9773
 20
27.4040
  0
SEQEND
  8
1
  0
POINT
  8
2
 10
54.3324
 20
27.9455
  0
TEXT
  8
2
 10
54.3324
 20
27.9455
 40
0.250
 50
0.0000
  1
# 4
  7
STANDARD
  0
POINT
  8
2
 10
54.9773
 20
27.4040
  0
TEXT
  8
2
 10
54.9773
 20
27.4040
 40
0.250
 50
0.0000
  1
# 5
  7
STANDARD
  0
POLYLINE
  8
1
 66
1
 70
0
  0
VERTEX
  8
1
 10
54.9773
 20
27.4040
  0
VERTEX
  8
1
 10
54.4031
 20
25.7556
  0
SEQEND
  8
1
  0
POINT
  8
2
 10
54.9773
 20
27.4040
  0
TEXT
  8
2
 10
54.9773
 20
27.4040
 40
0.250
 50
0.0000
  1
# 5
  7
STANDARD
  0
POINT
  8
2
 10
54.4031
 20
25.7556
  0
TEXT
  8
2
 10
54.4031
 20
25.7556
 40
0.250
 50
0.0000
  1
# 6
  7
STANDARD
  0
POLYLINE
  8
1
 66
1
 70
0
  0
VERTEX
  8
1
 10
54.4031
 20
25.7556
  0
VERTEX
  8
1
 10
53.7232
 20
26.2165
  0
VERTEX
  8
1
 10
53.7025
 20
26.2352
  0
VERTEX
  8
1
 10
52.6166
 20
27.4270
  0
VERTEX
  8
1
 10
51.3781
 20
28.8436
  0
VERTEX
  8
1
 10
50.9767
 20
29.2296
  0
VERTEX
  8
1
 10
50.7206
 20
29.4007
  0
SEQEND
  8
1
  0
POINT
  8
2
 10
54.4031
 20
25.7556
  0
TEXT
  8
2
 10
54.4031
 20
25.7556
 40
0.250
 50
0.0000
  1
# 6
  7
STANDARD
  0
POINT
  8
3
 10
53.7232
 20
26.2165
  0
POINT
  8
3
 10
53.7025
 20
26.2352
  0
TEXT
  8
3
 10
53.7025
 20
26.2352
 40
0.250
 50
0.0000
  1
# 7
  7
STANDARD
  0
POINT
  8
2
 10
52.6166
 20
27.4270
  0
POINT
  8
3
 10
51.3781
 20
28.8436
  0
POINT
  8
3
 10
50.9767
 20
29.2296
  0
POINT
  8
2
 10
50.7206
 20
29.4007
  0
TEXT
  8
2
 10
50.7206
 20
29.4007
 40
0.250
 50
0.0000
  1
# 8
  7
STANDARD
  0
POLYLINE
  8
1
 66
1
 70
0
  0
VERTEX
  8
1
 10
50.7206
 20
29.4007
  0
VERTEX
  8
1
 10
49.7301
 20
29.8429
  0
VERTEX
  8
1
 10
49.0275
 20
29.9958
  0
VERTEX
  8
1
 10
48.2911
 20
30.0767
  0
VERTEX
  8
1
 10
47.5019
 20
30.0118
  0
VERTEX
  8
1
 10
47.2429
 20
29.9669
  0
VERTEX
  8
1
 10
46.0473
 20
29.4415
  0
VERTEX
  8
1
 10
45.4612
 20
28.6325
  0
VERTEX
  8
1
 10
45.3392
 20
28.3189
  0
VERTEX
  8
1
 10
45.1630
 20
26.1977
  0
VERTEX
  8
1
 10
45.4979
 20
24.4865
  0
VERTEX
  8
1
 10
45.7792
 20
23.4175
  0
SEQEND
  8
1
  0
POINT
  8
2
 10
50.7206
 20
29.4007
  0
TEXT
  8
2
 10
50.7206
 20
29.4007
 40
0.250
 50
0.0000
  1
# 8
  7
STANDARD
  0
POINT
  8
3
 10
49.7301
 20
29.8429
  0
POINT
  8
3
 10
49.0275
 20
29.9958
  0
TEXT
  8
3
 10
49.0275
 20
29.9958
 40
0.250
 50
0.0000
  1
# 9
  7
STANDARD
  0
POINT
  8
2
 10
48.2911
 20
30.0767
  0
TEXT
  8
2
 10
48.2911
 20
30.0767
 40
0.250
 50
0.0000
  1
# 10
  7
STANDARD
  0
POINT
  8
3
 10
47.5019
 20
30.0118
  0
TEXT
  8
3
 10
47.5019
 20
30.0118
 40
0.250
 50
0.0000
  1
# 11
  7
STANDARD
  0
POINT
  8
3
 10
47.2429
 20
29.9669
  0
POINT
  8
3
 10
46.0473
 20
29.4415
  0
POINT
  8
3
 10
45.4612
 20
28.6325
  0
POINT
  8
3
 10
45.3392
 20
28.3189
  0
TEXT
  8
3
 10
45.3392
 20
28.3189
 40
0.250
 50
0.0000
  1
# 12
  7
STANDARD
  0
POINT
  8
3
 10
45.1630
 20
26.1977
  0
POINT
  8
3
 10
45.4979
 20
24.4865
  0
TEXT
  8
3
 10
45.4979
 20
24.4865
 40
0.250
 50
0.0000
  1
# 13
  7
STANDARD
  0
POINT
  8
2
 10
45.7792
 20
23.4175
  0
TEXT
  8
2
 10
45.7792
 20
23.4175
 40
0.250
 50
0.0000
  1
# 14
  7
STANDARD
  0
POLYLINE
  8
1
 66
1
 70
0
  0
VERTEX
  8
1
 10
45.7792
 20
23.4175
  0
VERTEX
  8
1
 10
44.9896
 20
23.4175
  0
VERTEX
  8
1
 10
39.4912
 20
24.1279
  0
VERTEX
  8
1
 10
38.2917
 20
24.2051
  0
VERTEX
  8
1
 10
36.2552
 20
23.7476
  0
VERTEX
  8
1
 10
35.4336
 20
23.5757
  0
VERTEX
  8
1
 10
30.7261
 20
23.0802
  0
VERTEX
  8
1
 10
29.9177
 20
23.0235
  0
SEQEND
  8
1
  0
POINT
  8
2
 10
45.7792
 20
23.4175
  0
TEXT
  8
2
 10
45.7792
 20
23.4175
 40
0.250
 50
0.0000
  1
# 14
  7
STANDARD
  0
POINT
  8
2
 10
44.9896
 20
23.4175
  0
POINT
  8
3
 10
39.4912
 20
24.1279
  0
POINT
  8
4
 10
38.2917
 20
24.2051
 30
0.1574
 39
0.0000
  0
POINT
  8
2
 10
38.2917
 20
24.2051
  0
TEXT
  8
2
 10
38.2917
 20
24.2051
 40
0.250
 50
0.0000
  1
# 15
  7
STANDARD
  0
POINT
  8
3
 10
36.2552
 20
23.7476
  0
POINT
  8
3
 10
35.4336
 20
23.5757
  0
POINT
  8
3
 10
30.7261
 20
23.0802
  0
POINT
  8
2
 10
29.9177
 20
23.0235
  0
TEXT
  8
2
 10
29.9177
 20
23.0235
 40
0.250
 50
0.0000
  1
# 16
  7
STANDARD
  0
POLYLINE
  8
1
 66
1
 70
0
  0
VERTEX
  8
1
 10
29.9177
 20
23.0235
  0
VERTEX
  8
1
 10
29.9177
 20
31.6858
  0
SEQEND
  8
1
  0
POINT
  8
2
 10
29.9177
 20
23.0235
  0
TEXT
  8
2
 10
29.9177
 20
23.0235
 40
0.250
 50
0.0000
  1
# 16
  7
STANDARD
  0
POINT
  8
4
 10
29.9177
 20
31.6858
 30
0.1574
 39
0.0000
  0
POINT
  8
2
 10
29.9177
 20
31.6858
  0
TEXT
  8
2
 10
29.9177
 20
31.6858
 40
0.250
 50
0.0000
  1
# 17
  7
STANDARD
  0
POLYLINE
  8
1
 66
1
 70
0
  0
VERTEX
  8
1
 10
29.9177
 20
31.6858
  0
VERTEX
  8
1
 10
53.5397
 20
31.6858
  0
SEQEND
  8
1
  0
POINT
  8
4
 10
29.9177
 20
31.6858
 30
0.1574
 39
0.0000
  0
POINT
  8
2
 10
29.9177
 20
31.6858
  0
TEXT
  8
2
 10
29.9177
 20
31.6858
 40
0.250
 50
0.0000
  1
# 17
  7
STANDARD
  0
LINE
  8
7
 10
36.1758
 20
27.3547
 11
48.6919
 21
27.3547
  0
LINE
  8
5
 10
36.1758
 20
27.3547
 11
48.6919
 21
27.3547
  0
POINT
  8
2
 10
36.1758
 20
27.3547
  0
POINT
  8
2
 10
48.6919
 20
27.3547
  0
LINE
  8
8
 10
54.3324
 20
27.9455
 11
53.7161
 21
26.1964
  0
TEXT
  8
8
 10
54.3324
 20
27.9455
 40
0.250
 50
0.0000
  1
NM
  7
STANDARD
  0
POINT
  8
2
 10
54.3324
 20
27.9455
  0
POINT
  8
2
 10
53.7161
 20
26.1964
  0
LINE
  8
8
 10
53.5397
 20
31.6858
 11
54.3338
 21
31.6858
  0
TEXT
  8
8
 10
53.5397
 20
31.6858
 40
0.250
 50
0.0000
  1
NM
  7
STANDARD
  0
POINT
  8
2
 10
53.5397
 20
31.6858
  0
POINT
  8
2
 10
54.3338
 20
31.6858
  0
LINE
  8
8
 10
44.9896
 20
23.4175
 11
44.9896
 21
31.6857
  0
TEXT
  8
8
 10
44.9896
 20
23.4175
 40
0.250
 50
0.0000
  1
O
  7
STANDARD
  0
POINT
  8
2
 10
44.9896
 20
23.4175
  0
POINT
  8
2
 10
44.9896
 20
31.6857
  0
LINE
  8
8
 10
48.2911
 20
30.0767
 11
48.2911
 21
31.6858
  0
TEXT
  8
8
 10
48.2911
 20
30.0767
 40
0.250
 50
0.0000
  1
O
  7
STANDARD
  0
POINT
  8
2
 10
48.2911
 20
30.0767
  0
POINT
  8
2
 10
48.2911
 20
31.6858
  0
LINE
  8
8
 10
38.2917
 20
31.6858
 11
38.2917
 21
24.2051
  0
TEXT
  8
8
 10
38.2917
 20
31.6858
 40
0.250
 50
0.0000
  1
O
  7
STANDARD
  0
POINT
  8
2
 10
38.2917
 20
31.6858
  0
POINT
  8
2
 10
38.2917
 20
24.2051
  0
LINE
  8
6
 10
29.9177
 20
31.6858
 11
53.5397
 21
31.6858
  0
ENDBLK
  0
BLOCK
  8
0
  2
GLX0924S16_NEW_BK_38
 70
64
 10
0.0000
 20
0.0000
  0
TEXT
  8
1
 10
42.4475
 20
27.3546
 40
0.250
 50
0.0000
  1
Piece Name: GLX0924S16_NEW_BK
  7
STANDARD
  0
TEXT
  8
1
 10
42.4475
 20
27.4946
 40
0.250
 50
0.0000
  1
SIZE: 38
  7
STANDARD
  0
POLYLINE
  8
1
 66
1
 70
0
  0
VERTEX
  8
1
 10
53.6578
 20
31.8334
  0
VERTEX
  8
1
 10
53.6905
 20
30.5832
  0
VERTEX
  8
1
 10
53.8356
 20
29.5260
  0
VERTEX
  8
1
 10
54.1033
 20
28.7002
  0
VERTEX
  8
1
 10
54.5096
 20
28.0683
  0
SEQEND
  8
1
  0
POLYLINE
  8
1
 66
1
 70
0
  0
VERTEX
  8
1
 10
54.5096
 20
28.0683
  0
VERTEX
  8
1
 10
55.1545
 20
27.5268
  0
SEQEND
  8
1
  0
POLYLINE
  8
1
 66
1
 70
0
  0
VERTEX
  8
1
 10
55.1545
 20
27.5268
  0
VERTEX
  8
1
 10
54.5803
 20
25.8784
  0
SEQEND
  8
1
  0
POLYLINE
  8
1
 66
1
 70
0
  0
VERTEX
  8
1
 10
54.5803
 20
25.8784
  0
VERTEX
  8
1
 10
53.9004
 20
26.3393
  0
VERTEX
  8
1
 10
53.8797
 20
26.3580
  0
VERTEX
  8
1
 10
52.7539
 20
27.5663
  0
VERTEX
  8
1
 10
51.4694
 20
29.0032
  0
VERTEX
  8
1
 10
51.0539
 20
29.3940
  0
VERTEX
  8
1
 10
50.7897
 20
29.5664
  0
SEQEND
  8
1
  0
POLYLINE
  8
1
 66
1
 70
0
  0
VERTEX
  8
1
 10
50.7897
 20
29.5664
  0
VERTEX
  8
1
 10
49.7685
 20
30.0001
  0
VERTEX
  8
1
 10
49.0472
 20
30.1434
  0
VERTEX
  8
1
 10
48.3108
 20
30.2243
  0
VERTEX
  8
1
 10
47.5098
 20
30.1594
  0
VERTEX
  8
1
 10
47.2509
 20
30.1123
  0
VERTEX
  8
1
 10
46.0584
 20
29.5764
  0
VERTEX
  8
1
 10
45.4784
 20
28.7618
  0
VERTEX
  8
1
 10
45.3589
 20
28.4469
  0
VERTEX
  8
1
 10
45.1635
 20
26.1901
  0
VERTEX
  8
1
 10
45.5136
 20
24.3679
  0
VERTEX
  8
1
 10
45.7989
 20
23.2700
  0
SEQEND
  8
1
  0
POLYLINE
  8
1
 66
1
 70
0
  0
VERTEX
  8
1
 10
45.7989
 20
23.2700
  0
VERTEX
  8
1
 10
45.0031
 20
23.2693
  0
VERTEX
  8
1
 10
39.4612
 20
23.9805
  0
VERTEX
  8
1
 10
38.2523
 20
24.0574
  0
VERTEX
  8
1
 10
36.1819
 20
23.5971
  0
VERTEX
  8
1
 10
35.3466
 20
23.4243
  0
VERTEX
  8
1
 10
30.5620
 20
22.9315
  0
VERTEX
  8
1
 10
29.7405
 20
22.8758
  0
SEQEND
  8
1
  0
POLYLINE
  8
1
 66
1
 70
0
  0
VERTEX
  8
1
 10
29.7405
 20
22.8758
  0
VERTEX
  8
1
 10
29.7405
 20
31.8334
  0
SEQEND
  8
1
  0
POLYLINE
  8
1
 66
1
 70
0
  0
VERTEX
  8
1
 10
29.7405
 20
31.8334
  0
VERTEX
  8
1
 10
53.6578
 20
31.8334
  0
SEQEND
  8
1
  0
LINE
  8
7
 10
36.1955
 20
27.5023
 11
48.7116
 21
27.5023
  0
LINE
  8
5
 10
36.1955
 20
27.5023
 11
48.7116
 21
27.5023
  0
LINE
  8
8
 10
54.3521
 20
28.0931
 11
53.7358
 21
26.3440
  0
LINE
  8
8
 10
53.5594
 20
31.8334
 11
54.3535
 21
31.8334
  0
LINE
  8
8
 10
45.0093
 20
23.5652
 11
45.0093
 21
31.8333
  0
LINE
  8
8
 10
48.3108
 20
30.2243
 11
48.3108
 21
31.8334
  0
LINE
  8
8
 10
38.3114
 20
31.8334
 11
38.3114
 21
24.3527
  0
LINE
  8
6
 10
29.7405
 20
31.8334
 11
53.6578
 21
31.8334
  0
ENDBLK
  0
BLOCK
  8
0
  2
GLX0924S16_NEW_BK_40
 70
64
 10
0.0000
 20
0.0000
  0
TEXT
  8
1
 10
42.4475
 20
27.3546
 40
0.250
 50
0.0000
  1
Piece Name: GLX0924S16_NEW_BK
  7
STANDARD
  0
TEXT
  8
1
 10
42.4475
 20
27.4946
 40
0.250
 50
0.0000
  1
SIZE: 40
  7
STANDARD
  0
POLYLINE
  8
1
 66
1
 70
0
  0
VERTEX
  8
1
 10
53.7759
 20
31.9811
  0
VERTEX
  8
1
 10
53.8086
 20
30.7309
  0
VERTEX
  8
1
 10
53.9556
 20
29.6570
  0
VERTEX
  8
1
 10
54.2372
 20
28.8361
  0
VERTEX
  8
1
 10
54.6868
 20
28.1912
  0
SEQEND
  8
1
  0
POLYLINE
  8
1
 66
1
 70
0
  0
VERTEX
  8
1
 10
54.6868
 20
28.1912
  0
VERTEX
  8
1
 10
55.3317
 20
27.6497
  0
SEQEND
  8
1
  0
POLYLINE
  8
1
 66
1
 70
0
  0
VERTEX
  8
1
 10
55.3317
 20
27.6497
  0
VERTEX
  8
1
 10
54.7575
 20
26.0013
  0
SEQEND
  8
1
  0
POLYLINE
  8
1
 66
1
 70
0
  0
VERTEX
  8
1
 10
54.7575
 20
26.0013
  0
VERTEX
  8
1
 10
54.0776
 20
26.4622
  0
VERTEX
  8
1
 10
54.0569
 20
26.4809
  0
VERTEX
  8
1
 10
52.8913
 20
27.7058
  0
VERTEX
  8
1
 10
51.5607
 20
29.1630
  0
VERTEX
  8
1
 10
51.1311
 20
29.5586
  0
VERTEX
  8
1
 10
50.8588
 20
29.7322
  0
SEQEND
  8
1
  0
POLYLINE
  8
1
 66
1
 70
0
  0
VERTEX
  8
1
 10
50.8588
 20
29.7322
  0
VERTEX
  8
1
 10
49.8069
 20
30.1574
  0
VERTEX
  8
1
 10
49.0669
 20
30.2911
  0
VERTEX
  8
1
 10
48.3305
 20
30.3720
  0
VERTEX
  8
1
 10
47.5177
 20
30.3071
  0
VERTEX
  8
1
 10
47.2589
 20
30.2578
  0
VERTEX
  8
1
 10
46.0695
 20
29.7115
  0
VERTEX
  8
1
 10
45.4956
 20
28.8912
  0
VERTEX
  8
1
 10
45.3786
 20
28.5750
  0
VERTEX
  8
1
 10
45.1641
 20
26.1827
  0
VERTEX
  8
1
 10
45.5294
 20
24.2493
  0
VERTEX
  8
1
 10
45.8186
 20
23.1225
  0
SEQEND
  8
1
  0
POLYLINE
  8
1
 66
1
 70
0
  0
VERTEX
  8
1
 10
45.8186
 20
23.1225
  0
VERTEX
  8
1
 10
45.0166
 20
23.1211
  0
VERTEX
  8
1
 10
39.4312
 20
23.8333
  0
VERTEX
  8
1
 10
38.2129
 20
23.9098
  0
VERTEX
  8
1
 10
36.1086
 20
23.4468
  0
VERTEX
  8
1
 10
35.2597
 20
23.2731
  0
VERTEX
  8
1
 10
30.3980
 20
22.7831
  0
VERTEX
  8
1
 10
29.5633
 20
22.7282
  0
SEQEND
  8
1
  0
POLYLINE
  8
1
 66
1
 70
0
  0
VERTEX
  8
1
 10
29.5633
 20
22.7282
  0
VERTEX
  8
1
 10
29.5633
 20
31.9811
  0
SEQEND
  8
1
  0
POLYLINE
  8
1
 66
1
 70
0
  0
VERTEX
  8
1
 10
29.5633
 20
31.9811
  0
VERTEX
  8
1
 10
53.7759
 20
31.9811
  0
SEQEND
  8
1
  0
LINE
  8
7
 10
36.2152
 20
27.6500
 11
48.7313
 21
27.6500
  0
LINE
  8
5
 10
36.2152
 20
27.6500
 11
48.7313
 21
27.6500
  0
LINE
  8
8
 10
54.3718
 20
28.2408
 11
53.7555
 21
26.4917
  0
LINE
  8
8
 10
53.5791
 20
31.9811
 11
54.3732
 21
31.9811
  0
LINE
  8
8
 10
45.0290
 20
23.7129
 11
45.0290
 21
31.9810
  0
LINE
  8
8
 10
48.3305
 20
30.3720
 11
48.3305
 21
31.9811
  0
LINE
  8
8
 10
38.3311
 20
31.9811
 11
38.3311
 21
24.5004
  0
LINE
  8
6
 10
29.5633
 20
31.9811
 11
53.7759
 21
31.9811
  0
ENDBLK
  0
BLOCK
  8
0
  2
GLX0924S16_NEW_BK_42
 70
64
 10
0.0000
 20
0.0000
  0
TEXT
  8
1
 10
42.4475
 20
27.3546
 40
0.250
 50
0.0000
  1
Piece Name: GLX0924S16_NEW_BK
  7
STANDARD
  0
TEXT
  8
1
 10
42.4475
 20
27.4946
 40
0.250
 50
0.0000
  1
SIZE: 42
  7
STANDARD
  0
POLYLINE
  8
1
 66
1
 70
0
  0
VERTEX
  8
1
 10
53.8940
 20
32.1533
  0
VERTEX
  8
1
 10
53.9267
 20
30.9031
  0
VERTEX
  8
1
 10
54.0756
 20
29.8125
  0
VERTEX
  8
1
 10
54.3711
 20
28.9965
  0
VERTEX
  8
1
 10
54.8640
 20
28.3386
  0
SEQEND
  8
1
  0
POLYLINE
  8
1
 66
1
 70
0
  0
VERTEX
  8
1
 10
54.8640
 20
28.3386
  0
VERTEX
  8
1
 10
55.5089
 20
27.7971
  0
SEQEND
  8
1
  0
POLYLINE
  8
1
 66
1
 70
0
  0
VERTEX
  8
1
 10
55.5089
 20
27.7971
  0
VERTEX
  8
1
 10
54.9347
 20
26.1487
  0
SEQEND
  8
1
  0
POLYLINE
  8
1
 66
1
 70
0
  0
VERTEX
  8
1
 10
54.9347
 20
26.1487
  0
VERTEX
  8
1
 10
54.2548
 20
26.6096
  0
VERTEX
  8
1
 10
54.2341
 20
26.6283
  0
VERTEX
  8
1
 10
53.0287
 20
27.8673
  0
VERTEX
  8
1
 10
51.6520
 20
29.3420
  0
VERTEX
  8
1
 10
51.2084
 20
29.7416
  0
VERTEX
  8
1
 10
50.9280
 20
29.9160
  0
SEQEND
  8
1
  0
POLYLINE
  8
1
 66
1
 70
0
  0
VERTEX
  8
1
 10
50.9280
 20
29.9160
  0
VERTEX
  8
1
 10
49.8458
 20
30.3367
  0
VERTEX
  8
1
 10
49.0866
 20
30.4633
  0
VERTEX
  8
1
 10
48.3502
 20
30.5442
  0
VERTEX
  8
1
 10
47.5256
 20
30.4793
  0
VERTEX
  8
1
 10
47.2646
 20
30.4236
  0
VERTEX
  8
1
 10
46.0726
 20
29.8443
  0
VERTEX
  8
1
 10
45.5098
 20
29.0011
  0
VERTEX
  8
1
 10
45.3983
 20
28.6784
  0
VERTEX
  8
1
 10
45.1645
 20
26.1532
  0
VERTEX
  8
1
 10
45.5443
 20
24.1109
  0
VERTEX
  8
1
 10
45.8383
 20
22.9503
  0
SEQEND
  8
1
  0
POLYLINE
  8
1
 66
1
 70
0
  0
VERTEX
  8
1
 10
45.8383
 20
22.9503
  0
VERTEX
  8
1
 10
45.0220
 20
22.9475
  0
VERTEX
  8
1
 10
39.3351
 20
23.6620
  0
VERTEX
  8
1
 10
38.0948
 20
23.7375
  0
VERTEX
  8
1
 10
35.9759
 20
23.2733
  0
VERTEX
  8
1
 10
35.1212
 20
23.0992
  0
VERTEX
  8
1
 10
30.2264
 20
22.6104
  0
VERTEX
  8
1
 10
29.3861
 20
22.5559
  0
SEQEND
  8
1
  0
POLYLINE
  8
1
 66
1
 70
0
  0
VERTEX
  8
1
 10
29.3861
 20
22.5559
  0
VERTEX
  8
1
 10
29.3861
 20
32.1533
  0
SEQEND
  8
1
  0
POLYLINE
  8
1
 66
1
 70
0
  0
VERTEX
  8
1
 10
29.3861
 20
32.1533
  0
VERTEX
  8
1
 10
53.8940
 20
32.1533
  0
SEQEND
  8
1
  0
LINE
  8
7
 10
36.2349
 20
27.8222
 11
48.7510
 21
27.8222
  0
LINE
  8
5
 10
36.2349
 20
27.8222
 11
48.7510
 21
27.8222
  0
LINE
  8
8
 10
54.3915
 20
28.4130
 11
53.7752
 21
26.6639
  0
LINE
  8
8
 10
53.5988
 20
32.1533
 11
54.3929
 21
32.1533
  0
LINE
  8
8
 10
45.0487
 20
23.8851
 11
45.0487
 21
32.1532
  0
LINE
  8
8
 10
48.3502
 20
30.5442
 11
48.3502
 21
32.1533
  0
LINE
  8
8
 10
38.3508
 20
32.1533
 11
38.3508
 21
24.6726
  0
LINE
  8
6
 10
29.3861
 20
32.1533
 11
53.8940
 21
32.1533
  0
ENDBLK
  0
BLOCK
  8
0
  2
GLX0924S16_NEW_BK_44
 70
64
 10
0.0000
 20
0.0000
  0
TEXT
  8
1
 10
42.4475
 20
27.3546
 40
0.250
 50
0.0000
  1
Piece Name: GLX0924S16_NEW_BK
  7
STANDARD
  0
TEXT
  8
1
 10
42.4475
 20
27.4946
 40
0.250
 50
0.0000
  1
SIZE: 44
  7
STANDARD
  0
POLYLINE
  8
1
 66
1
 70
0
  0
VERTEX
  8
1
 10
54.0121
 20
32.3256
  0
VERTEX
  8
1
 10
54.0448
 20
31.0754
  0
VERTEX
  8
1
 10
54.1956
 20
29.9681
  0
VERTEX
  8
1
 10
54.5050
 20
29.1570
  0
VERTEX
  8
1
 10
55.0412
 20
28.4861
  0
SEQEND
  8
1
  0
POLYLINE
  8
1
 66
1
 70
0
  0
VERTEX
  8
1
 10
55.0412
 20
28.4861
  0
VERTEX
  8
1
 10
55.6861
 20
27.9446
  0
SEQEND
  8
1
  0
POLYLINE
  8
1
 66
1
 70
0
  0
VERTEX
  8
1
 10
55.6861
 20
27.9446
  0
VERTEX
  8
1
 10
55.1119
 20
26.2962
  0
SEQEND
  8
1
  0
POLYLINE
  8
1
 66
1
 70
0
  0
VERTEX
  8
1
 10
55.1119
 20
26.2962
  0
VERTEX
  8
1
 10
54.4320
 20
26.7571
  0
VERTEX
  8
1
 10
54.4113
 20
26.7758
  0
VERTEX
  8
1
 10
53.1661
 20
28.0290
  0
VERTEX
  8
1
 10
51.7434
 20
29.5210
  0
VERTEX
  8
1
 10
51.2857
 20
29.9246
  0
VERTEX
  8
1
 10
50.9973
 20
30.0998
  0
SEQEND
  8
1
  0
POLYLINE
  8
1
 66
1
 70
0
  0
VERTEX
  8
1
 10
50.9973
 20
30.0998
  0
VERTEX
  8
1
 10
49.8846
 20
30.5160
  0
VERTEX
  8
1
 10
49.1063
 20
30.6356
  0
VERTEX
  8
1
 10
48.3699
 20
30.7165
  0
VERTEX
  8
1
 10
47.5335
 20
30.6437
  0
VERTEX
  8
1
 10
47.2708
 20
30.5824
  0
VERTEX
  8
1
 10
46.0771
 20
29.9736
  0
VERTEX
  8
1
 10
45.5244
 20
29.1103
  0
VERTEX
  8
1
 10
45.4180
 20
28.7819
  0
VERTEX
  8
1
 10
45.1649
 20
26.1239
  0
VERTEX
  8
1
 10
45.5591
 20
23.9725
  0
VERTEX
  8
1
 10
45.8580
 20
22.7782
  0
SEQEND
  8
1
  0
POLYLINE
  8
1
 66
1
 70
0
  0
VERTEX
  8
1
 10
45.8580
 20
22.7782
  0
VERTEX
  8
1
 10
45.0273
 20
22.7739
  0
VERTEX
  8
1
 10
39.2390
 20
23.4907
  0
VERTEX
  8
1
 10
37.9767
 20
23.5653
  0
VERTEX
  8
1
 10
35.8433
 20
23.1000
  0
VERTEX
  8
1
 10
34.9827
 20
22.9255
  0
VERTEX
  8
1
 10
30.0549
 20
22.4378
  0
VERTEX
  8
1
 10
29.2089
 20
22.3837
  0
SEQEND
  8
1
  0
POLYLINE
  8
1
 66
1
 70
0
  0
VERTEX
  8
1
 10
29.2089
 20
22.3837
  0
VERTEX
  8
1
 10
29.2089
 20
32.3256
  0
SEQEND
  8
1
  0
POLYLINE
  8
1
 66
1
 70
0
  0
VERTEX
  8
1
 10
29.2089
 20
32.3256
  0
VERTEX
  8
1
 10
54.0121
 20
32.3256
  0
SEQEND
  8
1
  0
LINE
  8
7
 10
36.2546
 20
27.9945
 11
48.7707
 21
27.9945
  0
LINE
  8
5
 10
36.2546
 20
27.9945
 11
48.7707
 21
27.9945
  0
LINE
  8
8
 10
54.4112
 20
28.5853
 11
53.7949
 21
26.8362
  0
LINE
  8
8
 10
53.6185
 20
32.3256
 11
54.4126
 21
32.3256
  0
LINE
  8
8
 10
45.0684
 20
24.0574
 11
45.0684
 21
32.3255
  0
LINE
  8
8
 10
48.3699
 20
30.7165
 11
48.3699
 21
32.3256
  0
LINE
  8
8
 10
38.3705
 20
32.3256
 11
38.3705
 21
24.8449
  0
LINE
  8
6
 10
29.2089
 20
32.3256
 11
54.0121
 21
32.3256
  0
ENDBLK
  0
BLOCK
  8
0
  2
GLX0924S16_NEW_BK_46
 70
64
 10
0.0000
 20
0.0000
  0
TEXT
  8
1
 10
42.4475
 20
27.3546
 40
0.250
 50
0.0000
  1
Piece Name: GLX0924S16_NEW_BK
  7
STANDARD
  0
TEXT
  8
1
 10
42.4475
 20
27.4946
 40
0.250
 50
0.0000
  1
SIZE: 46
  7
STANDARD
  0
POLYLINE
  8
1
 66
1
 70
0
  0
VERTEX
  8
1
 10
54.1302
 20
32.5224
  0
VERTEX
  8
1
 10
54.1629
 20
31.2722
  0
VERTEX
  8
1
 10
54.3156
 20
30.1482
  0
VERTEX
  8
1
 10
54.6389
 20
29.3420
  0
VERTEX
  8
1
 10
55.2184
 20
28.6581
  0
SEQEND
  8
1
  0
POLYLINE
  8
1
 66
1
 70
0
  0
VERTEX
  8
1
 10
55.2184
 20
28.6581
  0
VERTEX
  8
1
 10
55.8633
 20
28.1166
  0
SEQEND
  8
1
  0
POLYLINE
  8
1
 66
1
 70
0
  0
VERTEX
  8
1
 10
55.8633
 20
28.1166
  0
VERTEX
  8
1
 10
55.2891
 20
26.2713
  0
SEQEND
  8
1
  0
POLYLINE
  8
1
 66
1
 70
0
  0
VERTEX
  8
1
 10
55.2891
 20
26.2713
  0
VERTEX
  8
1
 10
54.6092
 20
26.7322
  0
VERTEX
  8
1
 10
54.5885
 20
26.7509
  0
VERTEX
  8
1
 10
53.2723
 20
28.0190
  0
VERTEX
  8
1
 10
51.7670
 20
29.5303
  0
VERTEX
  8
1
 10
51.2845
 20
29.9374
  0
VERTEX
  8
1
 10
50.9823
 20
30.1121
  0
SEQEND
  8
1
  0
POLYLINE
  8
1
 66
1
 70
0
  0
VERTEX
  8
1
 10
50.9823
 20
30.1121
  0
VERTEX
  8
1
 10
49.8909
 20
30.5310
  0
VERTEX
  8
1
 10
49.1260
 20
30.6552
  0
VERTEX
  8
1
 10
48.3896
 20
30.7164
  0
VERTEX
  8
1
 10
47.5414
 20
30.6436
  0
VERTEX
  8
1
 10
47.2850
 20
30.5917
  0
VERTEX
  8
1
 10
46.1106
 20
30.0360
  0
VERTEX
  8
1
 10
45.5503
 20
29.2152
  0
VERTEX
  8
1
 10
45.4377
 20
28.9000
  0
VERTEX
  8
1
 10
45.1626
 20
26.0794
  0
VERTEX
  8
1
 10
45.5759
 20
23.7949
  0
VERTEX
  8
1
 10
45.8777
 20
22.5813
  0
SEQEND
  8
1
  0
POLYLINE
  8
1
 66
1
 70
0
  0
VERTEX
  8
1
 10
45.8777
 20
22.5813
  0
VERTEX
  8
1
 10
45.0331
 20
22.5703
  0
VERTEX
  8
1
 10
39.1425
 20
23.2534
  0
VERTEX
  8
1
 10
37.8586
 20
23.3192
  0
VERTEX
  8
1
 10
35.7097
 20
22.8648
  0
VERTEX
  8
1
 10
34.8429
 20
22.6948
  0
VERTEX
  8
1
 10
29.8830
 20
22.2358
  0
VERTEX
  8
1
 10
29.0317
 20
22.1868
  0
SEQEND
  8
1
  0
POLYLINE
  8
1
 66
1
 70
0
  0
VERTEX
  8
1
 10
29.0317
 20
22.1868
  0
VERTEX
  8
1
 10
29.0317
 20
32.5224
  0
SEQEND
  8
1
  0
POLYLINE
  8
1
 66
1
 70
0
  0
VERTEX
  8
1
 10
29.0317
 20
32.5224
  0
VERTEX
  8
1
 10
54.1302
 20
32.5224
  0
SEQEND
  8
1
  0
LINE
  8
7
 10
36.2743
 20
28.1913
 11
48.7904
 21
28.1913
  0
LINE
  8
5
 10
36.2743
 20
28.1913
 11
48.7904
 21
28.1913
  0
LINE
  8
8
 10
54.4309
 20
28.7821
 11
53.8146
 21
27.0330
  0
LINE
  8
8
 10
53.6382
 20
32.5224
 11
54.4323
 21
32.5224
  0
LINE
  8
8
 10
45.0881
 20
24.2542
 11
45.0881
 21
32.5223
  0
LINE
  8
8
 10
48.3896
 20
30.9133
 11
48.3896
 21
32.5224
  0
LINE
  8
8
 10
38.3902
 20
32.5224
 11
38.3902
 21
25.0417
  0
LINE
  8
6
 10
29.0317
 20
32.5224
 11
54.1302
 21
32.5224
  0
ENDBLK
  0
BLOCK
  8
0
  2
GLX0924S16_NEW_BK_48
 70
64
 10
0.0000
 20
0.0000
  0
TEXT
  8
1
 10
42.4475
 20
27.3546
 40
0.250
 50
0.0000
  1
Piece Name: GLX0924S16_NEW_BK
  7
STANDARD
  0
TEXT
  8
1
 10
42.4475
 20
27.4946
 40
0.250
 50
0.0000
  1
SIZE: 48
  7
STANDARD
  0
POLYLINE
  8
1
 66
1
 70
0
  0
VERTEX
  8
1
 10
54.2483
 20
32.7193
  0
VERTEX
  8
1
 10
54.2810
 20
31.4691
  0
VERTEX
  8
1
 10
54.4356
 20
30.3284
  0
VERTEX
  8
1
 10
54.7728
 20
29.5271
  0
VERTEX
  8
1
 10
55.3956
 20
28.8302
  0
SEQEND
  8
1
  0
POLYLINE
  8
1
 66
1
 70
0
  0
VERTEX
  8
1
 10
55.3956
 20
28.8302
  0
VERTEX
  8
1
 10
56.0405
 20
28.2887
  0
SEQEND
  8
1
  0
POLYLINE
  8
1
 66
1
 70
0
  0
VERTEX
  8
1
 10
56.0405
 20
28.2887
  0
VERTEX
  8
1
 10
55.4663
 20
26.4434
  0
SEQEND
  8
1
  0
POLYLINE
  8
1
 66
1
 70
0
  0
VERTEX
  8
1
 10
55.4663
 20
26.4434
  0
VERTEX
  8
1
 10
54.7864
 20
26.9043
  0
VERTEX
  8
1
 10
54.7657
 20
26.9230
  0
VERTEX
  8
1
 10
53.3940
 20
28.2014
  0
VERTEX
  8
1
 10
51.8242
 20
29.7260
  0
VERTEX
  8
1
 10
51.3223
 20
30.1353
  0
VERTEX
  8
1
 10
51.0093
 20
30.3094
  0
SEQEND
  8
1
  0
POLYLINE
  8
1
 66
1
 70
0
  0
VERTEX
  8
1
 10
51.0093
 20
30.3094
  0
VERTEX
  8
1
 10
49.9134
 20
30.7284
  0
VERTEX
  8
1
 10
49.1457
 20
30.8521
  0
VERTEX
  8
1
 10
48.4093
 20
30.9133
  0
VERTEX
  8
1
 10
47.5493
 20
30.8326
  0
VERTEX
  8
1
 10
47.2907
 20
30.7742
  0
VERTEX
  8
1
 10
46.1134
 20
30.1845
  0
VERTEX
  8
1
 10
45.5643
 20
29.3401
  0
VERTEX
  8
1
 10
45.4574
 20
29.0182
  0
VERTEX
  8
1
 10
45.1603
 20
26.0457
  0
VERTEX
  8
1
 10
45.5902
 20
23.6367
  0
VERTEX
  8
1
 10
45.8974
 20
22.3845
  0
SEQEND
  8
1
  0
POLYLINE
  8
1
 66
1
 70
0
  0
VERTEX
  8
1
 10
45.8974
 20
22.3845
  0
VERTEX
  8
1
 10
45.0390
 20
22.3669
  0
VERTEX
  8
1
 10
39.0461
 20
23.0161
  0
VERTEX
  8
1
 10
37.7405
 20
23.0732
  0
VERTEX
  8
1
 10
35.5760
 20
22.6298
  0
VERTEX
  8
1
 10
34.7031
 20
22.4642
  0
VERTEX
  8
1
 10
29.7111
 20
22.0339
  0
VERTEX
  8
1
 10
28.8545
 20
21.9900
  0
SEQEND
  8
1
  0
POLYLINE
  8
1
 66
1
 70
0
  0
VERTEX
  8
1
 10
28.8545
 20
21.9900
  0
VERTEX
  8
1
 10
28.8545
 20
32.7193
  0
SEQEND
  8
1
  0
POLYLINE
  8
1
 66
1
 70
0
  0
VERTEX
  8
1
 10
28.8545
 20
32.7193
  0
VERTEX
  8
1
 10
54.2483
 20
32.7193
  0
SEQEND
  8
1
  0
LINE
  8
7
 10
36.2940
 20
28.3882
 11
48.8101
 21
28.3882
  0
LINE
  8
5
 10
36.2940
 20
28.3882
 11
48.8101
 21
28.3882
  0
LINE
  8
8
 10
54.4506
 20
28.9790
 11
53.8343
 21
27.2299
  0
LINE
  8
8
 10
53.6579
 20
32.7193
 11
54.4520
 21
32.7193
  0
LINE
  8
8
 10
45.1078
 20
24.4511
 11
45.1078
 21
32.7192
  0
LINE
  8
8
 10
48.4093
 20
31.1102
 11
48.4093
 21
32.7193
  0
LINE
  8
8
 10
38.4099
 20
32.7193
 11
38.4099
 21
25.2386
  0
LINE
  8
6
 10
28.8545
 20
32.7193
 11
54.2483
 21
32.7193
  0
ENDBLK
  0
BLOCK
  8
0
  2
GLX0924S16_NEW_BK_50
 70
64
 10
0.0000
 20
0.0000
  0
TEXT
  8
1
 10
42.4475
 20
27.3546
 40
0.250
 50
0.0000
  1
Piece Name: GLX0924S16_NEW_BK
  7
STANDARD
  0
TEXT
  8
1
 10
42.4475
 20
27.4946
 40
0.250
 50
0.0000
  1
SIZE: 50
  7
STANDARD
  0
POLYLINE
  8
1
 66
1
 70
0
  0
VERTEX
  8
1
 10
54.3664
 20
32.9407
  0
VERTEX
  8
1
 10
54.3991
 20
31.6905
  0
VERTEX
  8
1
 10
54.5556
 20
30.5331
  0
VERTEX
  8
1
 10
54.9067
 20
29.7237
  0
VERTEX
  8
1
 10
55.5728
 20
29.0024
  0
SEQEND
  8
1
  0
POLYLINE
  8
1
 66
1
 70
0
  0
VERTEX
  8
1
 10
55.5728
 20
29.0024
  0
VERTEX
  8
1
 10
56.2177
 20
28.4609
  0
SEQEND
  8
1
  0
POLYLINE
  8
1
 66
1
 70
0
  0
VERTEX
  8
1
 10
56.2177
 20
28.4609
  0
VERTEX
  8
1
 10
55.6435
 20
26.6156
  0
SEQEND
  8
1
  0
POLYLINE
  8
1
 66
1
 70
0
  0
VERTEX
  8
1
 10
55.6435
 20
26.6156
  0
VERTEX
  8
1
 10
54.9636
 20
27.0765
  0
VERTEX
  8
1
 10
54.9429
 20
27.0952
  0
VERTEX
  8
1
 10
53.5160
 20
28.3925
  0
VERTEX
  8
1
 10
51.8821
 20
29.9405
  0
VERTEX
  8
1
 10
51.3608
 20
30.3551
  0
VERTEX
  8
1
 10
51.0367
 20
30.5302
  0
SEQEND
  8
1
  0
POLYLINE
  8
1
 66
1
 70
0
  0
VERTEX
  8
1
 10
51.0367
 20
30.5302
  0
VERTEX
  8
1
 10
49.9362
 20
30.9500
  0
VERTEX
  8
1
 10
49.1654
 20
31.0735
  0
VERTEX
  8
1
 10
48.4290
 20
31.1347
  0
VERTEX
  8
1
 10
47.5572
 20
31.0461
  0
VERTEX
  8
1
 10
47.2960
 20
30.9804
  0
VERTEX
  8
1
 10
46.1146
 20
30.3521
  0
VERTEX
  8
1
 10
45.5777
 20
29.4807
  0
VERTEX
  8
1
 10
45.4771
 20
29.1510
  0
VERTEX
  8
1
 10
45.1554
 20
26.0077
  0
VERTEX
  8
1
 10
45.6039
 20
23.4586
  0
VERTEX
  8
1
 10
45.9171
 20
22.1630
  0
SEQEND
  8
1
  0
POLYLINE
  8
1
 66
1
 70
0
  0
VERTEX
  8
1
 10
45.9171
 20
22.1630
  0
VERTEX
  8
1
 10
45.0449
 20
22.1388
  0
VERTEX
  8
1
 10
38.9497
 20
22.7542
  0
VERTEX
  8
1
 10
37.6224
 20
22.8025
  0
VERTEX
  8
1
 10
35.4424
 20
22.3700
  0
VERTEX
  8
1
 10
34.5633
 20
22.2090
  0
VERTEX
  8
1
 10
29.5392
 20
21.8073
  0
VERTEX
  8
1
 10
28.6773
 20
21.7685
  0
SEQEND
  8
1
  0
POLYLINE
  8
1
 66
1
 70
0
  0
VERTEX
  8
1
 10
28.6773
 20
21.7685
  0
VERTEX
  8
1
 10
28.6773
 20
32.9407
  0
SEQEND
  8
1
  0
POLYLINE
  8
1
 66
1
 70
0
  0
VERTEX
  8
1
 10
28.6773
 20
32.9407
  0
VERTEX
  8
1
 10
54.3664
 20
32.9407
  0
SEQEND
  8
1
  0
LINE
  8
7
 10
36.3137
 20
28.6096
 11
48.8298
 21
28.6096
  0
LINE
  8
5
 10
36.3137
 20
28.6096
 11
48.8298
 21
28.6096
  0
LINE
  8
8
 10
54.4703
 20
29.2004
 11
53.8540
 21
27.4513
  0
LINE
  8
8
 10
53.6776
 20
32.9407
 11
54.4717
 21
32.9407
  0
LINE
  8
8
 10
45.1275
 20
24.6725
 11
45.1275
 21
32.9406
  0
LINE
  8
8
 10
48.4290
 20
31.3316
 11
48.4290
 21
32.9407
  0
LINE
  8
8
 10
38.4296
 20
32.9407
 11
38.4296
 21
25.4600
  0
LINE
  8
6
 10
28.6773
 20
32.9407
 11
54.3664
 21
32.9407
  0
ENDBLK
  0
BLOCK
  8
0
  2
GLX0924S16_NEW_BK_52
 70
64
 10
0.0000
 20
0.0000
  0
TEXT
  8
1
 10
42.4475
 20
27.3546
 40
0.250
 50
0.0000
  1
Piece Name: GLX0924S16_NEW_BK
  7
STANDARD
  0
TEXT
  8
1
 10
42.4475
 20
27.4946
 40
0.250
 50
0.0000
  1
SIZE: 52
  7
STANDARD
  0
POLYLINE
  8
1
 66
1
 70
0
  0
VERTEX
  8
1
 10
54.4845
 20
33.1622
  0
VERTEX
  8
1
 10
54.5172
 20
31.9120
  0
VERTEX
  8
1
 10
54.6756
 20
30.7379
  0
VERTEX
  8
1
 10
55.0406
 20
29.9204
  0
VERTEX
  8
1
 10
55.7500
 20
29.1747
  0
SEQEND
  8
1
  0
POLYLINE
  8
1
 66
1
 70
0
  0
VERTEX
  8
1
 10
55.7500
 20
29.1747
  0
VERTEX
  8
1
 10
56.3949
 20
28.6332
  0
SEQEND
  8
1
  0
POLYLINE
  8
1
 66
1
 70
0
  0
VERTEX
  8
1
 10
56.3949
 20
28.6332
  0
VERTEX
  8
1
 10
55.8207
 20
26.7879
  0
SEQEND
  8
1
  0
POLYLINE
  8
1
 66
1
 70
0
  0
VERTEX
  8
1
 10
55.8207
 20
26.7879
  0
VERTEX
  8
1
 10
55.1408
 20
27.2488
  0
VERTEX
  8
1
 10
55.1201
 20
27.2675
  0
VERTEX
  8
1
 10
53.6379
 20
28.5838
  0
VERTEX
  8
1
 10
51.9400
 20
30.1552
  0
VERTEX
  8
1
 10
51.3992
 20
30.5751
  0
VERTEX
  8
1
 10
51.0639
 20
30.7511
  0
SEQEND
  8
1
  0
POLYLINE
  8
1
 66
1
 70
0
  0
VERTEX
  8
1
 10
51.0639
 20
30.7511
  0
VERTEX
  8
1
 10
49.9590
 20
31.1716
  0
VERTEX
  8
1
 10
49.1851
 20
31.2950
  0
VERTEX
  8
1
 10
48.4487
 20
31.3562
  0
VERTEX
  8
1
 10
47.5651
 20
31.2597
  0
VERTEX
  8
1
 10
47.3012
 20
31.1866
  0
VERTEX
  8
1
 10
46.1158
 20
30.5198
  0
VERTEX
  8
1
 10
45.5911
 20
29.6214
  0
VERTEX
  8
1
 10
45.4968
 20
29.2839
  0
VERTEX
  8
1
 10
45.1504
 20
25.9699
  0
VERTEX
  8
1
 10
45.6176
 20
23.2806
  0
VERTEX
  8
1
 10
45.9368
 20
21.9416
  0
SEQEND
  8
1
  0
POLYLINE
  8
1
 66
1
 70
0
  0
VERTEX
  8
1
 10
45.9368
 20
21.9416
  0
VERTEX
  8
1
 10
45.0507
 20
21.9107
  0
VERTEX
  8
1
 10
38.8532
 20
22.4923
  0
VERTEX
  8
1
 10
37.5043
 20
22.5319
  0
VERTEX
  8
1
 10
35.3088
 20
22.1103
  0
VERTEX
  8
1
 10
34.4235
 20
21.9538
  0
VERTEX
  8
1
 10
29.3674
 20
21.5808
  0
VERTEX
  8
1
 10
28.5001
 20
21.5471
  0
SEQEND
  8
1
  0
POLYLINE
  8
1
 66
1
 70
0
  0
VERTEX
  8
1
 10
28.5001
 20
21.5471
  0
VERTEX
  8
1
 10
28.5001
 20
33.1622
  0
SEQEND
  8
1
  0
POLYLINE
  8
1
 66
1
 70
0
  0
VERTEX
  8
1
 10
28.5001
 20
33.1622
  0
VERTEX
  8
1
 10
54.4845
 20
33.1622
  0
SEQEND
  8
1
  0
LINE
  8
7
 10
36.3334
 20
28.8311
 11
48.8495
 21
28.8311
  0
LINE
  8
5
 10
36.3334
 20
28.8311
 11
48.8495
 21
28.8311
  0
LINE
  8
8
 10
54.4900
 20
29.4219
 11
53.8737
 21
27.6728
  0
LINE
  8
8
 10
53.6973
 20
33.1622
 11
54.4914
 21
33.1622
  0
LINE
  8
8
 10
45.1472
 20
24.8940
 11
45.1472
 21
33.1621
  0
LINE
  8
8
 10
48.4487
 20
31.5531
 11
48.4487
 21
33.1622
  0
LINE
  8
8
 10
38.4493
 20
33.1622
 11
38.4493
 21
25.6815
  0
LINE
  8
6
 10
28.5001
 20
33.1622
 11
54.4845
 21
33.1622
  0
ENDBLK
  0
ENDSEC
  0
SECTION
  2
ENTITIES
  0
TEXT
  8
1
 10
0.0000
 20
0.0000
 40
0.250
 50
0.0000
  1
Style Name: GLX0924S16_NEW
  7
STANDARD
  0
TEXT
  8
1
 10
0.0000
 20
0.1400
 40
0.250
 50
0.0000
  1
Creation Date: 26-10-2017
  7
STANDARD
  0
TEXT
  8
1
 10
0.0000
 20
0.2800
 40
0.250
 50
0.0000
  1
Creation Time:  9:32
  7
STANDARD
  0
TEXT
  8
1
 10
0.0000
 20
0.4200
 40
0.250
 50
0.0000
  1
Author: GERBER TECHNOLOGY
  7
STANDARD
  0
TEXT
  8
1
 10
0.0000
 20
0.5600
 40
0.250
 50
0.0000
  1
PRODUCT: ACCUMARK
  7
STANDARD
  0
TEXT
  8
1
 10
0.0000
 20
0.7000
 40
0.250
 50
0.0000
  1
VERSION: 10.0.1
  7
STANDARD
  0
TEXT
  8
1
 10
0.0000
 20
0.8400
 40
0.250
 50
0.0000
  1
Sample Size: 36
  7
STANDARD
  0
TEXT
  8
1
 10
0.0000
 20
0.9800
 40
0.250
 50
0.0000
  1
Units: ENGLISH
  7
STANDARD
  0
TEXT
  8
1
 10
0.0000
 20
1.1200
 40
0.250
 50
0.0000
  1
TOLERANCE: .006
  7
STANDARD
  0
INSERT
  8
1
  2
GLX0924S16_NEW_FR_26
 10
0.0000
 20
0.0000
  0
INSERT
  8
1
  2
GLX0924S16_NEW_FR_28
 10
0.0000
 20
0.0000
  0
INSERT
  8
1
  2
GLX0924S16_NEW_FR_30
 10
0.0000
 20
0.0000
  0
INSERT
  8
1
  2
GLX0924S16_NEW_FR_32
 10
0.0000
 20
0.0000
  0
INSERT
  8
1
  2
GLX0924S16_NEW_FR_34
 10
0.0000
 20
0.0000
  0
INSERT
  8
1
  2
GLX0924S16_NEW_FR_36
 10
0.0000
 20
0.0000
  0
INSERT
  8
1
  2
GLX0924S16_NEW_FR_38
 10
0.0000
 20
0.0000
  0
INSERT
  8
1
  2
GLX0924S16_NEW_FR_40
 10
0.0000
 20
0.0000
  0
INSERT
  8
1
  2
GLX0924S16_NEW_FR_42
 10
0.0000
 20
0.0000
  0
INSERT
  8
1
  2
GLX0924S16_NEW_FR_44
 10
0.0000
 20
0.0000
  0
INSERT
  8
1
  2
GLX0924S16_NEW_FR_46
 10
0.0000
 20
0.0000
  0
INSERT
  8
1
  2
GLX0924S16_NEW_FR_48
 10
0.0000
 20
0.0000
  0
INSERT
  8
1
  2
GLX0924S16_NEW_FR_50
 10
0.0000
 20
0.0000
  0
INSERT
  8
1
  2
GLX0924S16_NEW_FR_52
 10
0.0000
 20
0.0000
  0
INSERT
  8
1
  2
GLX0924S16_NEWSBIN_26
 10
0.0000
 20
0.0000
  0
INSERT
  8
1
  2
GLX0924S16_NEWSBIN_28
 10
0.0000
 20
0.0000
  0
INSERT
  8
1
  2
GLX0924S16_NEWSBIN_30
 10
0.0000
 20
0.0000
  0
INSERT
  8
1
  2
GLX0924S16_NEWSBIN_32
 10
0.0000
 20
0.0000
  0
INSERT
  8
1
  2
GLX0924S16_NEWSBIN_34
 10
0.0000
 20
0.0000
  0
INSERT
  8
1
  2
GLX0924S16_NEWSBIN_36
 10
0.0000
 20
0.0000
  0
INSERT
  8
1
  2
GLX0924S16_NEWSBIN_38
 10
0.0000
 20
0.0000
  0
INSERT
  8
1
  2
GLX0924S16_NEWSBIN_40
 10
0.0000
 20
0.0000
  0
INSERT
  8
1
  2
GLX0924S16_NEWSBIN_42
 10
0.0000
 20
0.0000
  0
INSERT
  8
1
  2
GLX0924S16_NEWSBIN_44
 10
0.0000
 20
0.0000
  0
INSERT
  8
1
  2
GLX0924S16_NEWSBIN_46
 10
0.0000
 20
0.0000
  0
INSERT
  8
1
  2
GLX0924S16_NEWSBIN_48
 10
0.0000
 20
0.0000
  0
INSERT
  8
1
  2
GLX0924S16_NEWSBIN_50
 10
0.0000
 20
0.0000
  0
INSERT
  8
1
  2
GLX0924S16_NEWSBIN_52
 10
0.0000
 20
0.0000
  0
INSERT
  8
1
  2
GLX0924S16_NEW_BK_26
 10
0.0000
 20
0.0000
  0
INSERT
  8
1
  2
GLX0924S16_NEW_BK_28
 10
0.0000
 20
0.0000
  0
INSERT
  8
1
  2
GLX0924S16_NEW_BK_30
 10
0.0000
 20
0.0000
  0
INSERT
  8
1
  2
GLX0924S16_NEW_BK_32
 10
0.0000
 20
0.0000
  0
INSERT
  8
1
  2
GLX0924S16_NEW_BK_34
 10
0.0000
 20
0.0000
  0
INSERT
  8
1
  2
GLX0924S16_NEW_BK_36
 10
0.0000
 20
0.0000
  0
INSERT
  8
1
  2
GLX0924S16_NEW_BK_38
 10
0.0000
 20
0.0000
  0
INSERT
  8
1
  2
GLX0924S16_NEW_BK_40
 10
0.0000
 20
0.0000
  0
INSERT
  8
1
  2
GLX0924S16_NEW_BK_42
 10
0.0000
 20
0.0000
  0
INSERT
  8
1
  2
GLX0924S16_NEW_BK_44
 10
0.0000
 20
0.0000
  0
INSERT
  8
1
  2
GLX0924S16_NEW_BK_46
 10
0.0000
 20
0.0000
  0
INSERT
  8
1
  2
GLX0924S16_NEW_BK_48
 10
0.0000
 20
0.0000
  0
INSERT
  8
1
  2
GLX0924S16_NEW_BK_50
 10
0.0000
 20
0.0000
  0
INSERT
  8
1
  2
GLX0924S16_NEW_BK_52
 10
0.0000
 20
0.0000
  0
ENDSEC
  0
EOF
