  0
SECTION
  2
HEADER
  0
ENDSEC
  0
SECTION
  2
BLOCKS
  0
BLOCK
  8
0
  2
GLX4802SLS_26
 70
64
 10
0.0000
 20
0.0000
  0
TEXT
  8
1
 10
210.0961
 20
292.7401
 40
0.250
 50
0.0000
  1
Piece Name: GLX4802SLS
  7
STANDARD
  0
TEXT
  8
1
 10
210.0961
 20
296.2961
 40
0.250
 50
0.0000
  1
SIZE: 26
  7
STANDARD
  0
POLYLINE
  8
1
 66
1
 70
0
  0
VERTEX
  8
1
 10
37.0078
 20
106.9722
  0
VERTEX
  8
1
 10
45.1130
 20
187.9092
  0
VERTEX
  8
1
 10
44.8158
 20
214.2186
  0
VERTEX
  8
1
 10
40.2845
 20
282.1331
  0
VERTEX
  8
1
 10
36.6548
 20
339.4863
  0
VERTEX
  8
1
 10
34.2113
 20
384.6830
  0
VERTEX
  8
1
 10
33.2258
 20
468.9348
  0
SEQEND
  8
1
  0
POLYLINE
  8
1
 66
1
 70
0
  0
VERTEX
  8
1
 10
33.2258
 20
468.9348
  0
VERTEX
  8
1
 10
130.9244
 20
503.8548
  0
VERTEX
  8
1
 10
158.1913
 20
513.6465
  0
SEQEND
  8
1
  0
POLYLINE
  8
1
 66
1
 70
0
  0
VERTEX
  8
1
 10
158.1913
 20
513.6465
  0
VERTEX
  8
1
 10
164.9604
 20
480.8017
  0
VERTEX
  8
1
 10
173.2789
 20
466.9105
  0
VERTEX
  8
1
 10
184.4091
 20
455.1680
  0
VERTEX
  8
1
 10
195.9306
 20
449.0898
  0
VERTEX
  8
1
 10
233.9620
 20
438.6301
  0
VERTEX
  8
1
 10
375.0387
 20
399.3693
  0
VERTEX
  8
1
 10
386.9665
 20
396.0496
  0
SEQEND
  8
1
  0
POLYLINE
  8
1
 66
1
 70
0
  0
VERTEX
  8
1
 10
386.9665
 20
396.0496
  0
VERTEX
  8
1
 10
385.0895
 20
391.2007
  0
VERTEX
  8
1
 10
361.8459
 20
334.6654
  0
VERTEX
  8
1
 10
342.0822
 20
282.1331
  0
VERTEX
  8
1
 10
331.5640
 20
204.0001
  0
VERTEX
  8
1
 10
329.2831
 20
154.5413
  0
VERTEX
  8
1
 10
329.5498
 20
147.0864
  0
SEQEND
  8
1
  0
POLYLINE
  8
1
 66
1
 70
0
  0
VERTEX
  8
1
 10
329.5498
 20
147.0864
  0
VERTEX
  8
1
 10
233.9620
 20
125.6361
  0
VERTEX
  8
1
 10
200.7896
 20
115.8622
  0
VERTEX
  8
1
 10
185.0441
 20
105.8774
  0
VERTEX
  8
1
 10
179.2072
 20
98.1329
  0
VERTEX
  8
1
 10
164.9604
 20
71.8363
  0
SEQEND
  8
1
  0
POLYLINE
  8
1
 66
1
 70
0
  0
VERTEX
  8
1
 10
164.9604
 20
71.8363
  0
VERTEX
  8
1
 10
137.5588
 20
79.3573
  0
VERTEX
  8
1
 10
37.0078
 20
106.9722
  0
SEQEND
  8
1
  0
LINE
  8
7
 10
130.0404
 20
292.7427
 11
314.3200
 21
292.7427
  0
LINE
  8
5
 10
130.0404
 20
292.7427
 11
314.3200
 21
292.7427
  0
POLYLINE
  8
8
 66
1
 70
0
  0
VERTEX
  8
8
 10
342.0822
 20
282.1331
  0
VERTEX
  8
8
 10
233.9620
 20
282.1331
  0
VERTEX
  8
8
 10
39.9060
 20
282.1331
  0
SEQEND
  8
8
  0
POLYLINE
  8
8
 66
1
 70
0
  0
VERTEX
  8
8
 10
308.8209
 20
353.5223
  0
VERTEX
  8
8
 10
115.7250
 20
353.5223
  0
VERTEX
  8
8
 10
115.7250
 20
425.3510
  0
SEQEND
  8
8
  0
POLYLINE
  8
8
 66
1
 70
0
  0
VERTEX
  8
8
 10
164.9604
 20
480.8017
  0
VERTEX
  8
8
 10
164.9604
 20
282.1331
  0
VERTEX
  8
8
 10
164.9604
 20
71.8363
  0
SEQEND
  8
8
  0
LINE
  8
8
 10
233.9620
 20
438.6301
 11
233.9620
 21
125.6361
  0
LINE
  8
8
 10
96.7055
 20
251.0917
 11
73.7058
 21
251.0714
  0
LINE
  8
8
 10
96.7360
 20
216.0855
 11
96.7055
 21
251.0867
  0
LINE
  8
8
 10
73.7388
 20
216.0702
 11
96.7385
 21
216.0906
  0
LINE
  8
8
 10
73.7058
 20
251.0664
 11
73.7362
 21
216.0651
  0
ENDBLK
  0
BLOCK
  8
0
  2
GLX4802SLS_28
 70
64
 10
0.0000
 20
0.0000
  0
TEXT
  8
1
 10
210.0961
 20
292.7401
 40
0.250
 50
0.0000
  1
Piece Name: GLX4802SLS
  7
STANDARD
  0
TEXT
  8
1
 10
210.0961
 20
296.2961
 40
0.250
 50
0.0000
  1
SIZE: 28
  7
STANDARD
  0
POLYLINE
  8
1
 66
1
 70
0
  0
VERTEX
  8
1
 10
35.0571
 20
99.9922
  0
VERTEX
  8
1
 10
43.3045
 20
186.2074
  0
VERTEX
  8
1
 10
42.8651
 20
214.2186
  0
VERTEX
  8
1
 10
38.3337
 20
282.1331
  0
VERTEX
  8
1
 10
34.7041
 20
339.4863
  0
VERTEX
  8
1
 10
32.1920
 20
387.1214
  0
VERTEX
  8
1
 10
31.2751
 20
475.9148
  0
SEQEND
  8
1
  0
POLYLINE
  8
1
 66
1
 70
0
  0
VERTEX
  8
1
 10
31.2751
 20
475.9148
  0
VERTEX
  8
1
 10
128.9762
 20
511.2436
  0
VERTEX
  8
1
 10
156.2431
 20
521.1471
  0
SEQEND
  8
1
  0
POLYLINE
  8
1
 66
1
 70
0
  0
VERTEX
  8
1
 10
156.2431
 20
521.1471
  0
VERTEX
  8
1
 10
163.0122
 20
488.3023
  0
VERTEX
  8
1
 10
171.3307
 20
474.4111
  0
VERTEX
  8
1
 10
182.4610
 20
462.6687
  0
VERTEX
  8
1
 10
193.9824
 20
456.5904
  0
VERTEX
  8
1
 10
232.0138
 20
446.1307
  0
VERTEX
  8
1
 10
376.6846
 20
407.3272
  0
VERTEX
  8
1
 10
388.9172
 20
404.0505
  0
SEQEND
  8
1
  0
POLYLINE
  8
1
 66
1
 70
0
  0
VERTEX
  8
1
 10
388.9172
 20
404.0505
  0
VERTEX
  8
1
 10
387.0402
 20
398.8613
  0
VERTEX
  8
1
 10
363.7382
 20
338.3306
  0
VERTEX
  8
1
 10
344.0329
 20
282.1331
  0
VERTEX
  8
1
 10
333.3217
 20
199.3519
  0
VERTEX
  8
1
 10
331.1754
 20
146.9771
  0
VERTEX
  8
1
 10
331.5005
 20
139.0854
  0
SEQEND
  8
1
  0
POLYLINE
  8
1
 66
1
 70
0
  0
VERTEX
  8
1
 10
331.5005
 20
139.0854
  0
VERTEX
  8
1
 10
232.0138
 20
118.1355
  0
VERTEX
  8
1
 10
198.7525
 20
108.4377
  0
VERTEX
  8
1
 10
182.9664
 20
98.4758
  0
VERTEX
  8
1
 10
177.1651
 20
90.7009
  0
VERTEX
  8
1
 10
163.0122
 20
64.3357
  0
SEQEND
  8
1
  0
POLYLINE
  8
1
 66
1
 70
0
  0
VERTEX
  8
1
 10
163.0122
 20
64.3357
  0
VERTEX
  8
1
 10
135.6106
 20
71.9684
  0
VERTEX
  8
1
 10
35.0571
 20
99.9922
  0
SEQEND
  8
1
  0
LINE
  8
7
 10
128.0897
 20
292.7427
 11
312.3718
 21
292.7427
  0
LINE
  8
5
 10
128.0897
 20
292.7427
 11
312.3718
 21
292.7427
  0
POLYLINE
  8
8
 66
1
 70
0
  0
VERTEX
  8
8
 10
344.0329
 20
282.1331
  0
VERTEX
  8
8
 10
232.0138
 20
282.1331
  0
VERTEX
  8
8
 10
37.9553
 20
282.1331
  0
SEQEND
  8
8
  0
POLYLINE
  8
8
 66
1
 70
0
  0
VERTEX
  8
8
 10
306.8727
 20
353.5223
  0
VERTEX
  8
8
 10
113.7743
 20
353.5223
  0
VERTEX
  8
8
 10
113.7743
 20
425.3510
  0
SEQEND
  8
8
  0
POLYLINE
  8
8
 66
1
 70
0
  0
VERTEX
  8
8
 10
163.0122
 20
488.3023
  0
VERTEX
  8
8
 10
163.0122
 20
282.1331
  0
VERTEX
  8
8
 10
163.0122
 20
64.3357
  0
SEQEND
  8
8
  0
LINE
  8
8
 10
232.0138
 20
446.1307
 11
232.0138
 21
118.1355
  0
LINE
  8
8
 10
94.7548
 20
251.0917
 11
71.7550
 21
251.0714
  0
LINE
  8
8
 10
94.7852
 20
216.0855
 11
94.7548
 21
251.0867
  0
LINE
  8
8
 10
71.7881
 20
216.0702
 11
94.7903
 21
216.0906
  0
LINE
  8
8
 10
71.7550
 20
251.0664
 11
71.7855
 21
216.0651
  0
ENDBLK
  0
BLOCK
  8
0
  2
GLX4802SLS_30
 70
64
 10
0.0000
 20
0.0000
  0
TEXT
  8
1
 10
210.0961
 20
292.7376
 40
0.250
 50
0.0000
  1
Piece Name: GLX4802SLS
  7
STANDARD
  0
TEXT
  8
1
 10
210.0961
 20
296.2936
 40
0.250
 50
0.0000
  1
SIZE: 30
  7
STANDARD
  0
POLYLINE
  8
1
 66
1
 70
0
  0
VERTEX
  8
1
 10
33.1090
 20
93.0098
  0
VERTEX
  8
1
 10
41.4986
 20
184.5057
  0
VERTEX
  8
1
 10
40.9169
 20
214.2186
  0
VERTEX
  8
1
 10
36.3856
 20
282.1331
  0
VERTEX
  8
1
 10
32.7559
 20
339.4863
  0
VERTEX
  8
1
 10
30.1778
 20
389.5598
  0
VERTEX
  8
1
 10
29.3269
 20
482.8947
  0
SEQEND
  8
1
  0
POLYLINE
  8
1
 66
1
 70
0
  0
VERTEX
  8
1
 10
29.3269
 20
482.8947
  0
VERTEX
  8
1
 10
127.0255
 20
518.6833
  0
VERTEX
  8
1
 10
154.2924
 20
528.6452
  0
SEQEND
  8
1
  0
POLYLINE
  8
1
 66
1
 70
0
  0
VERTEX
  8
1
 10
154.2924
 20
528.6452
  0
VERTEX
  8
1
 10
161.0615
 20
495.8030
  0
VERTEX
  8
1
 10
169.3800
 20
481.9117
  0
VERTEX
  8
1
 10
180.5102
 20
470.1693
  0
VERTEX
  8
1
 10
192.0444
 20
464.1673
  0
VERTEX
  8
1
 10
230.0631
 20
453.6314
  0
VERTEX
  8
1
 10
378.3280
 20
415.2926
  0
VERTEX
  8
1
 10
390.8654
 20
412.0490
  0
SEQEND
  8
1
  0
POLYLINE
  8
1
 66
1
 70
0
  0
VERTEX
  8
1
 10
390.8654
 20
412.0490
  0
VERTEX
  8
1
 10
388.9909
 20
406.5220
  0
VERTEX
  8
1
 10
365.6305
 20
341.9984
  0
VERTEX
  8
1
 10
345.9811
 20
282.1331
  0
VERTEX
  8
1
 10
335.0768
 20
194.7038
  0
VERTEX
  8
1
 10
333.0702
 20
139.4105
  0
VERTEX
  8
1
 10
333.4487
 20
131.0818
  0
SEQEND
  8
1
  0
POLYLINE
  8
1
 66
1
 70
0
  0
VERTEX
  8
1
 10
333.4487
 20
131.0818
  0
VERTEX
  8
1
 10
230.0631
 20
110.6323
  0
VERTEX
  8
1
 10
196.7231
 20
100.9524
  0
VERTEX
  8
1
 10
180.8912
 20
91.0717
  0
VERTEX
  8
1
 10
175.1178
 20
83.2638
  0
VERTEX
  8
1
 10
161.0615
 20
56.8325
  0
SEQEND
  8
1
  0
POLYLINE
  8
1
 66
1
 70
0
  0
VERTEX
  8
1
 10
161.0615
 20
56.8325
  0
VERTEX
  8
1
 10
133.6599
 20
64.5567
  0
VERTEX
  8
1
 10
33.1090
 20
93.0098
  0
SEQEND
  8
1
  0
LINE
  8
7
 10
126.1415
 20
292.7427
 11
310.4211
 21
292.7427
  0
LINE
  8
5
 10
126.1415
 20
292.7427
 11
310.4211
 21
292.7427
  0
POLYLINE
  8
8
 66
1
 70
0
  0
VERTEX
  8
8
 10
345.9811
 20
282.1331
  0
VERTEX
  8
8
 10
230.0631
 20
282.1331
  0
VERTEX
  8
8
 10
36.0071
 20
282.1331
  0
SEQEND
  8
8
  0
POLYLINE
  8
8
 66
1
 70
0
  0
VERTEX
  8
8
 10
304.9220
 20
353.5223
  0
VERTEX
  8
8
 10
111.8261
 20
353.5223
  0
VERTEX
  8
8
 10
111.8261
 20
425.3510
  0
SEQEND
  8
8
  0
POLYLINE
  8
8
 66
1
 70
0
  0
VERTEX
  8
8
 10
161.0615
 20
495.8030
  0
VERTEX
  8
8
 10
161.0615
 20
282.1331
  0
VERTEX
  8
8
 10
161.0615
 20
56.8325
  0
SEQEND
  8
8
  0
LINE
  8
8
 10
230.0631
 20
453.6314
 11
230.0631
 21
110.6323
  0
LINE
  8
8
 10
92.8066
 20
251.0892
 11
69.8069
 21
251.0689
  0
LINE
  8
8
 10
92.8371
 20
216.0829
 11
92.8066
 21
251.0841
  0
LINE
  8
8
 10
69.8399
 20
216.0702
 11
92.8396
 21
216.0880
  0
LINE
  8
8
 10
69.8069
 20
251.0664
 11
69.8374
 21
216.0626
  0
ENDBLK
  0
BLOCK
  8
0
  2
GLX4802SLS_32
 70
64
 10
0.0000
 20
0.0000
  0
TEXT
  8
1
 10
210.0961
 20
292.7401
 40
0.250
 50
0.0000
  1
Piece Name: GLX4802SLS
  7
STANDARD
  0
TEXT
  8
1
 10
210.0961
 20
296.2961
 40
0.250
 50
0.0000
  1
SIZE: 32
  7
STANDARD
  0
POLYLINE
  8
1
 66
1
 70
0
  0
VERTEX
  8
1
 10
31.1582
 20
86.0298
  0
VERTEX
  8
1
 10
39.6926
 20
182.8039
  0
VERTEX
  8
1
 10
38.9662
 20
214.2186
  0
VERTEX
  8
1
 10
34.4348
 20
282.1331
  0
VERTEX
  8
1
 10
30.8052
 20
339.4863
  0
VERTEX
  8
1
 10
28.1585
 20
391.9957
  0
VERTEX
  8
1
 10
27.3762
 20
489.8746
  0
SEQEND
  8
1
  0
POLYLINE
  8
1
 66
1
 70
0
  0
VERTEX
  8
1
 10
27.3762
 20
489.8746
  0
VERTEX
  8
1
 10
125.0747
 20
526.0645
  0
VERTEX
  8
1
 10
152.3416
 20
536.1483
  0
SEQEND
  8
1
  0
POLYLINE
  8
1
 66
1
 70
0
  0
VERTEX
  8
1
 10
152.3416
 20
536.1483
  0
VERTEX
  8
1
 10
159.1107
 20
503.3036
  0
VERTEX
  8
1
 10
167.4292
 20
489.4123
  0
VERTEX
  8
1
 10
178.5595
 20
477.6699
  0
VERTEX
  8
1
 10
190.1063
 20
471.7492
  0
VERTEX
  8
1
 10
228.1124
 20
461.1320
  0
VERTEX
  8
1
 10
379.9739
 20
423.2555
  0
VERTEX
  8
1
 10
392.8161
 20
420.0526
  0
SEQEND
  8
1
  0
POLYLINE
  8
1
 66
1
 70
0
  0
VERTEX
  8
1
 10
392.8161
 20
420.0526
  0
VERTEX
  8
1
 10
390.9441
 20
414.1826
  0
VERTEX
  8
1
 10
367.5228
 20
345.6661
  0
VERTEX
  8
1
 10
347.9293
 20
282.1331
  0
VERTEX
  8
1
 10
336.8371
 20
190.0556
  0
VERTEX
  8
1
 10
334.9626
 20
131.8464
  0
VERTEX
  8
1
 10
335.3994
 20
123.0808
  0
SEQEND
  8
1
  0
POLYLINE
  8
1
 66
1
 70
0
  0
VERTEX
  8
1
 10
335.3994
 20
123.0808
  0
VERTEX
  8
1
 10
228.1124
 20
103.1317
  0
VERTEX
  8
1
 10
194.6936
 20
93.4670
  0
VERTEX
  8
1
 10
178.8135
 20
83.6676
  0
VERTEX
  8
1
 10
173.0731
 20
75.8292
  0
VERTEX
  8
1
 10
159.1107
 20
49.3319
  0
SEQEND
  8
1
  0
POLYLINE
  8
1
 66
1
 70
0
  0
VERTEX
  8
1
 10
159.1107
 20
49.3319
  0
VERTEX
  8
1
 10
131.7092
 20
57.1754
  0
VERTEX
  8
1
 10
31.1582
 20
86.0298
  0
SEQEND
  8
1
  0
LINE
  8
7
 10
124.1908
 20
292.7427
 11
308.4704
 21
292.7427
  0
LINE
  8
5
 10
124.1908
 20
292.7427
 11
308.4704
 21
292.7427
  0
POLYLINE
  8
8
 66
1
 70
0
  0
VERTEX
  8
8
 10
347.9293
 20
282.1331
  0
VERTEX
  8
8
 10
228.1124
 20
282.1331
  0
VERTEX
  8
8
 10
34.0564
 20
282.1331
  0
SEQEND
  8
8
  0
POLYLINE
  8
8
 66
1
 70
0
  0
VERTEX
  8
8
 10
302.9713
 20
353.5223
  0
VERTEX
  8
8
 10
109.8754
 20
353.5223
  0
VERTEX
  8
8
 10
109.8754
 20
425.3510
  0
SEQEND
  8
8
  0
POLYLINE
  8
8
 66
1
 70
0
  0
VERTEX
  8
8
 10
159.1107
 20
503.3036
  0
VERTEX
  8
8
 10
159.1107
 20
282.1331
  0
VERTEX
  8
8
 10
159.1107
 20
49.3319
  0
SEQEND
  8
8
  0
LINE
  8
8
 10
228.1124
 20
461.1320
 11
228.1124
 21
103.1317
  0
LINE
  8
8
 10
90.8559
 20
251.0892
 11
67.8562
 21
251.0689
  0
LINE
  8
8
 10
90.8863
 20
216.0829
 11
90.8559
 21
251.0841
  0
LINE
  8
8
 10
67.8892
 20
216.0702
 11
90.8889
 21
216.0880
  0
LINE
  8
8
 10
67.8562
 20
251.0664
 11
67.8866
 21
216.0626
  0
ENDBLK
  0
BLOCK
  8
0
  2
GLX4802SLS_34
 70
64
 10
0.0000
 20
0.0000
  0
TEXT
  8
1
 10
210.0961
 20
292.7401
 40
0.250
 50
0.0000
  1
Piece Name: GLX4802SLS
  7
STANDARD
  0
TEXT
  8
1
 10
210.0961
 20
296.2961
 40
0.250
 50
0.0000
  1
SIZE: 34
  7
STANDARD
  0
POLYLINE
  8
1
 66
1
 70
0
  0
VERTEX
  8
1
 10
29.2100
 20
79.0525
  0
VERTEX
  8
1
 10
37.8867
 20
181.1020
  0
VERTEX
  8
1
 10
37.0180
 20
214.2186
  0
VERTEX
  8
1
 10
32.4866
 20
282.1331
  0
VERTEX
  8
1
 10
28.8570
 20
339.4863
  0
VERTEX
  8
1
 10
26.1443
 20
394.4366
  0
VERTEX
  8
1
 10
25.4280
 20
496.8545
  0
SEQEND
  8
1
  0
POLYLINE
  8
1
 66
1
 70
0
  0
VERTEX
  8
1
 10
25.4280
 20
496.8545
  0
VERTEX
  8
1
 10
123.1265
 20
533.4458
  0
VERTEX
  8
1
 10
150.3935
 20
543.6490
  0
SEQEND
  8
1
  0
POLYLINE
  8
1
 66
1
 70
0
  0
VERTEX
  8
1
 10
150.3935
 20
543.6490
  0
VERTEX
  8
1
 10
157.1626
 20
510.8042
  0
VERTEX
  8
1
 10
165.4811
 20
496.9130
  0
VERTEX
  8
1
 10
176.6113
 20
485.1705
  0
VERTEX
  8
1
 10
188.1709
 20
479.3311
  0
VERTEX
  8
1
 10
226.1642
 20
468.6326
  0
VERTEX
  8
1
 10
381.6198
 20
430.9390
  0
VERTEX
  8
1
 10
394.7643
 20
427.7513
  0
SEQEND
  8
1
  0
POLYLINE
  8
1
 66
1
 70
0
  0
VERTEX
  8
1
 10
394.7643
 20
427.7513
  0
VERTEX
  8
1
 10
392.8949
 20
421.5562
  0
VERTEX
  8
1
 10
369.4176
 20
349.1942
  0
VERTEX
  8
1
 10
349.8800
 20
282.1331
  0
VERTEX
  8
1
 10
338.5998
 20
185.5877
  0
VERTEX
  8
1
 10
336.8599
 20
124.5693
  0
VERTEX
  8
1
 10
337.3476
 20
115.3846
  0
SEQEND
  8
1
  0
POLYLINE
  8
1
 66
1
 70
0
  0
VERTEX
  8
1
 10
337.3476
 20
115.3846
  0
VERTEX
  8
1
 10
226.1642
 20
95.6336
  0
VERTEX
  8
1
 10
192.5879
 20
85.9486
  0
VERTEX
  8
1
 10
176.6317
 20
76.2077
  0
VERTEX
  8
1
 10
170.9573
 20
68.3540
  0
VERTEX
  8
1
 10
157.1626
 20
41.8338
  0
SEQEND
  8
1
  0
POLYLINE
  8
1
 66
1
 70
0
  0
VERTEX
  8
1
 10
157.1626
 20
41.8338
  0
VERTEX
  8
1
 10
129.7610
 20
49.7968
  0
VERTEX
  8
1
 10
29.2100
 20
79.0525
  0
SEQEND
  8
1
  0
LINE
  8
7
 10
122.2426
 20
292.7427
 11
306.5222
 21
292.7427
  0
LINE
  8
5
 10
122.2426
 20
292.7427
 11
306.5222
 21
292.7427
  0
POLYLINE
  8
8
 66
1
 70
0
  0
VERTEX
  8
8
 10
349.8800
 20
282.1331
  0
VERTEX
  8
8
 10
226.1642
 20
282.1331
  0
VERTEX
  8
8
 10
32.1082
 20
282.1331
  0
SEQEND
  8
8
  0
POLYLINE
  8
8
 66
1
 70
0
  0
VERTEX
  8
8
 10
301.0231
 20
353.5223
  0
VERTEX
  8
8
 10
107.9272
 20
353.5223
  0
VERTEX
  8
8
 10
107.9272
 20
425.3510
  0
SEQEND
  8
8
  0
POLYLINE
  8
8
 66
1
 70
0
  0
VERTEX
  8
8
 10
157.1626
 20
510.8042
  0
VERTEX
  8
8
 10
157.1626
 20
282.1331
  0
VERTEX
  8
8
 10
157.1626
 20
41.8338
  0
SEQEND
  8
8
  0
LINE
  8
8
 10
226.1642
 20
468.6326
 11
226.1642
 21
95.6336
  0
LINE
  8
8
 10
88.9077
 20
251.0917
 11
65.9080
 21
251.0714
  0
LINE
  8
8
 10
88.9381
 20
216.0855
 11
88.9077
 21
251.0867
  0
LINE
  8
8
 10
65.9410
 20
216.0702
 11
88.9407
 21
216.0906
  0
LINE
  8
8
 10
65.9080
 20
251.0664
 11
65.9385
 21
216.0651
  0
ENDBLK
  0
BLOCK
  8
0
  2
GLX4802SLS_36
 70
64
 10
0.0000
 20
0.0000
  0
TEXT
  8
1
 10
210.0961
 20
292.7401
 40
0.250
 50
0.0000
  1
Piece Name: GLX4802SLS
  7
STANDARD
  0
TEXT
  8
1
 10
210.0961
 20
296.2961
 40
0.250
 50
0.0000
  1
Quantity: 2
  7
STANDARD
  0
TEXT
  8
1
 10
210.0961
 20
299.8521
 40
0.250
 50
0.0000
  1
ANNOTATION: 2X FABRIC
  7
STANDARD
  0
TEXT
  8
1
 10
210.0961
 20
303.4081
 40
0.250
 50
0.0000
  1
CATEGORY: TIGHT LEG SHORT
  7
STANDARD
  0
TEXT
  8
1
 10
210.0961
 20
306.9641
 40
0.250
 50
0.0000
  1
Fabric: 1
  7
STANDARD
  0
TEXT
  8
1
 10
210.0961
 20
310.5201
 40
0.250
 50
0.0000
  1
SIZE: 36
  7
STANDARD
  0
POLYLINE
  8
1
 66
1
 70
0
  0
VERTEX
  8
1
 10
27.2593
 20
72.0726
  0
VERTEX
  8
1
 10
36.0808
 20
179.4028
  0
VERTEX
  8
1
 10
35.0673
 20
214.2186
  0
VERTEX
  8
1
 10
30.5359
 20
282.1331
  0
VERTEX
  8
1
 10
26.9063
 20
339.4863
  0
VERTEX
  8
1
 10
24.1275
 20
396.8776
  0
VERTEX
  8
1
 10
23.4773
 20
503.8345
  0
SEQEND
  8
1
  0
POINT
  8
2
 10
27.2593
 20
72.0726
  0
TEXT
  8
2
 10
27.2593
 20
72.0726
 40
0.250
 50
0.0000
  1
# 544
  7
STANDARD
  0
POINT
  8
3
 10
36.0808
 20
179.4028
  0
POINT
  8
3
 10
35.0673
 20
214.2186
  0
TEXT
  8
3
 10
35.0673
 20
214.2186
 40
0.250
 50
0.0000
  1
# 556
  7
STANDARD
  0
POINT
  8
3
 10
30.5359
 20
282.1331
  0
TEXT
  8
3
 10
30.5359
 20
282.1331
 40
0.250
 50
0.0000
  1
# 556
  7
STANDARD
  0
POINT
  8
3
 10
26.9063
 20
339.4863
  0
TEXT
  8
3
 10
26.9063
 20
339.4863
 40
0.250
 50
0.0000
  1
# 556
  7
STANDARD
  0
POINT
  8
3
 10
24.1275
 20
396.8776
  0
POINT
  8
2
 10
23.4773
 20
503.8345
  0
TEXT
  8
2
 10
23.4773
 20
503.8345
 40
0.250
 50
0.0000
  1
# 551
  7
STANDARD
  0
POLYLINE
  8
1
 66
1
 70
0
  0
VERTEX
  8
1
 10
23.4773
 20
503.8345
  0
VERTEX
  8
1
 10
121.1758
 20
540.8270
  0
VERTEX
  8
1
 10
148.4453
 20
551.1496
  0
SEQEND
  8
1
  0
POINT
  8
2
 10
23.4773
 20
503.8345
  0
TEXT
  8
2
 10
23.4773
 20
503.8345
 40
0.250
 50
0.0000
  1
# 551
  7
STANDARD
  0
POINT
  8
3
 10
121.1758
 20
540.8270
  0
TEXT
  8
3
 10
121.1758
 20
540.8270
 40
0.250
 50
0.0000
  1
# 558
  7
STANDARD
  0
POINT
  8
2
 10
148.4453
 20
551.1496
  0
TEXT
  8
2
 10
148.4453
 20
551.1496
 40
0.250
 50
0.0000
  1
# 509
  7
STANDARD
  0
POLYLINE
  8
1
 66
1
 70
0
  0
VERTEX
  8
1
 10
148.4453
 20
551.1496
  0
VERTEX
  8
1
 10
155.2118
 20
518.3048
  0
VERTEX
  8
1
 10
163.5303
 20
504.4136
  0
VERTEX
  8
1
 10
174.6632
 20
492.6712
  0
VERTEX
  8
1
 10
186.2354
 20
486.9130
  0
VERTEX
  8
1
 10
224.2135
 20
476.1332
  0
VERTEX
  8
1
 10
383.2683
 20
438.6225
  0
VERTEX
  8
1
 10
396.7150
 20
435.4500
  0
SEQEND
  8
1
  0
POINT
  8
2
 10
148.4453
 20
551.1496
  0
TEXT
  8
2
 10
148.4453
 20
551.1496
 40
0.250
 50
0.0000
  1
# 509
  7
STANDARD
  0
POINT
  8
3
 10
155.2118
 20
518.3048
  0
POINT
  8
3
 10
163.5303
 20
504.4136
  0
TEXT
  8
3
 10
163.5303
 20
504.4136
 40
0.250
 50
0.0000
  1
# 509
  7
STANDARD
  0
POINT
  8
3
 10
174.6632
 20
492.6712
  0
TEXT
  8
3
 10
174.6632
 20
492.6712
 40
0.250
 50
0.0000
  1
# 509
  7
STANDARD
  0
POINT
  8
3
 10
186.2354
 20
486.9130
  0
TEXT
  8
3
 10
186.2354
 20
486.9130
 40
0.250
 50
0.0000
  1
# 554
  7
STANDARD
  0
POINT
  8
2
 10
224.2135
 20
476.1332
  0
TEXT
  8
2
 10
224.2135
 20
476.1332
 40
0.250
 50
0.0000
  1
# 757
  7
STANDARD
  0
POINT
  8
3
 10
383.2683
 20
438.6225
  0
POINT
  8
2
 10
396.7150
 20
435.4500
  0
TEXT
  8
2
 10
396.7150
 20
435.4500
 40
0.250
 50
0.0000
  1
# 537
  7
STANDARD
  0
POLYLINE
  8
1
 66
1
 70
0
  0
VERTEX
  8
1
 10
396.7150
 20
435.4500
  0
VERTEX
  8
1
 10
394.8481
 20
428.9298
  0
VERTEX
  8
1
 10
371.3150
 20
352.7248
  0
VERTEX
  8
1
 10
351.8307
 20
282.1331
  0
VERTEX
  8
1
 10
340.3677
 20
181.1173
  0
VERTEX
  8
1
 10
338.7573
 20
117.2922
  0
VERTEX
  8
1
 10
339.2983
 20
107.6859
  0
SEQEND
  8
1
  0
POINT
  8
2
 10
396.7150
 20
435.4500
  0
TEXT
  8
2
 10
396.7150
 20
435.4500
 40
0.250
 50
0.0000
  1
# 537
  7
STANDARD
  0
POINT
  8
2
 10
394.8481
 20
428.9298
  0
POINT
  8
3
 10
371.3150
 20
352.7248
  0
POINT
  8
4
 10
351.8307
 20
282.1331
 30
-3.9980
 39
2.9998
  0
POINT
  8
3
 10
351.8307
 20
282.1331
  0
TEXT
  8
3
 10
351.8307
 20
282.1331
 40
0.250
 50
0.0000
  1
# 538
  7
STANDARD
  0
POINT
  8
3
 10
340.3677
 20
181.1173
  0
POINT
  8
2
 10
338.7573
 20
117.2922
  0
POINT
  8
2
 10
339.2983
 20
107.6859
  0
TEXT
  8
2
 10
339.2983
 20
107.6859
 40
0.250
 50
0.0000
  1
# 539
  7
STANDARD
  0
POLYLINE
  8
1
 66
1
 70
0
  0
VERTEX
  8
1
 10
339.2983
 20
107.6859
  0
VERTEX
  8
1
 10
224.2135
 20
88.1330
  0
VERTEX
  8
1
 10
190.6347
 20
78.5038
  0
VERTEX
  8
1
 10
174.6632
 20
68.8620
  0
VERTEX
  8
1
 10
168.9888
 20
60.9651
  0
VERTEX
  8
1
 10
155.2118
 20
34.3332
  0
SEQEND
  8
1
  0
POINT
  8
2
 10
339.2983
 20
107.6859
  0
TEXT
  8
2
 10
339.2983
 20
107.6859
 40
0.250
 50
0.0000
  1
# 539
  7
STANDARD
  0
POINT
  8
2
 10
224.2135
 20
88.1330
  0
TEXT
  8
2
 10
224.2135
 20
88.1330
 40
0.250
 50
0.0000
  1
# 758
  7
STANDARD
  0
POINT
  8
3
 10
190.6347
 20
78.5038
  0
TEXT
  8
3
 10
190.6347
 20
78.5038
 40
0.250
 50
0.0000
  1
# 555
  7
STANDARD
  0
POINT
  8
3
 10
174.6632
 20
68.8620
  0
TEXT
  8
3
 10
174.6632
 20
68.8620
 40
0.250
 50
0.0000
  1
# 542
  7
STANDARD
  0
POINT
  8
3
 10
168.9888
 20
60.9651
  0
TEXT
  8
3
 10
168.9888
 20
60.9651
 40
0.250
 50
0.0000
  1
# 755
  7
STANDARD
  0
POINT
  8
2
 10
155.2118
 20
34.3332
  0
TEXT
  8
2
 10
155.2118
 20
34.3332
 40
0.250
 50
0.0000
  1
# 543
  7
STANDARD
  0
POLYLINE
  8
1
 66
1
 70
0
  0
VERTEX
  8
1
 10
155.2118
 20
34.3332
  0
VERTEX
  8
1
 10
127.8103
 20
42.4155
  0
VERTEX
  8
1
 10
27.2593
 20
72.0726
  0
SEQEND
  8
1
  0
POINT
  8
2
 10
155.2118
 20
34.3332
  0
TEXT
  8
2
 10
155.2118
 20
34.3332
 40
0.250
 50
0.0000
  1
# 543
  7
STANDARD
  0
POINT
  8
3
 10
127.8103
 20
42.4155
  0
TEXT
  8
3
 10
127.8103
 20
42.4155
 40
0.250
 50
0.0000
  1
# 557
  7
STANDARD
  0
POINT
  8
2
 10
27.2593
 20
72.0726
  0
LINE
  8
7
 10
120.2919
 20
292.7427
 11
304.5740
 21
292.7427
  0
LINE
  8
5
 10
120.2919
 20
292.7427
 11
304.5740
 21
292.7427
  0
POINT
  8
2
 10
120.2919
 20
292.7427
  0
POINT
  8
2
 10
304.5740
 20
292.7427
  0
POLYLINE
  8
8
 66
1
 70
0
  0
VERTEX
  8
8
 10
351.8307
 20
282.1331
  0
VERTEX
  8
8
 10
224.2135
 20
282.1331
  0
VERTEX
  8
8
 10
30.1575
 20
282.1331
  0
SEQEND
  8
8
  0
TEXT
  8
8
 10
351.8307
 20
282.1331
 40
0.250
 50
0.0000
  1
NM
  7
STANDARD
  0
POINT
  8
2
 10
351.8307
 20
282.1331
  0
TEXT
  8
2
 10
351.8307
 20
282.1331
 40
0.250
 50
0.0000
  1
# 538
  7
STANDARD
  0
POINT
  8
3
 10
224.2135
 20
282.1331
  0
TEXT
  8
3
 10
224.2135
 20
282.1331
 40
0.250
 50
0.0000
  1
# 0
  7
STANDARD
  0
POINT
  8
2
 10
30.1575
 20
282.1331
  0
TEXT
  8
2
 10
30.1575
 20
282.1331
 40
0.250
 50
0.0000
  1
# 556
  7
STANDARD
  0
POLYLINE
  8
8
 66
1
 70
0
  0
VERTEX
  8
8
 10
299.0749
 20
353.5223
  0
VERTEX
  8
8
 10
105.9765
 20
353.5223
  0
VERTEX
  8
8
 10
105.9765
 20
425.3510
  0
SEQEND
  8
8
  0
TEXT
  8
8
 10
299.0749
 20
353.5223
 40
0.250
 50
0.0000
  1
B
  7
STANDARD
  0
POINT
  8
2
 10
299.0749
 20
353.5223
  0
POINT
  8
2
 10
105.9765
 20
353.5223
  0
POINT
  8
2
 10
105.9765
 20
425.3510
  0
POLYLINE
  8
8
 66
1
 70
0
  0
VERTEX
  8
8
 10
155.2118
 20
518.3048
  0
VERTEX
  8
8
 10
155.2118
 20
282.1331
  0
VERTEX
  8
8
 10
155.2118
 20
34.3332
  0
SEQEND
  8
8
  0
TEXT
  8
8
 10
155.2118
 20
518.3048
 40
0.250
 50
0.0000
  1
NM
  7
STANDARD
  0
POINT
  8
2
 10
155.2118
 20
518.3048
  0
TEXT
  8
2
 10
155.2118
 20
518.3048
 40
0.250
 50
0.0000
  1
# 509
  7
STANDARD
  0
POINT
  8
3
 10
155.2118
 20
282.1331
  0
TEXT
  8
3
 10
155.2118
 20
282.1331
 40
0.250
 50
0.0000
  1
# 0
  7
STANDARD
  0
POINT
  8
2
 10
155.2118
 20
34.3332
  0
TEXT
  8
2
 10
155.2118
 20
34.3332
 40
0.250
 50
0.0000
  1
# 543
  7
STANDARD
  0
LINE
  8
8
 10
224.2135
 20
476.1332
 11
224.2135
 21
88.1330
  0
TEXT
  8
8
 10
224.2135
 20
476.1332
 40
0.250
 50
0.0000
  1
NM
  7
STANDARD
  0
POINT
  8
2
 10
224.2135
 20
476.1332
  0
TEXT
  8
2
 10
224.2135
 20
476.1332
 40
0.250
 50
0.0000
  1
# 757
  7
STANDARD
  0
POINT
  8
2
 10
224.2135
 20
88.1330
  0
TEXT
  8
2
 10
224.2135
 20
88.1330
 40
0.250
 50
0.0000
  1
# 758
  7
STANDARD
  0
LINE
  8
8
 10
86.9570
 20
251.0917
 11
63.9573
 21
251.0714
  0
TEXT
  8
8
 10
86.9570
 20
251.0917
 40
0.250
 50
0.0000
  1
NM
  7
STANDARD
  0
POINT
  8
2
 10
86.9570
 20
251.0917
  0
TEXT
  8
2
 10
86.9570
 20
251.0917
 40
0.250
 50
0.0000
  1
# 0
  7
STANDARD
  0
POINT
  8
2
 10
63.9573
 20
251.0714
  0
TEXT
  8
2
 10
63.9573
 20
251.0714
 40
0.250
 50
0.0000
  1
# 0
  7
STANDARD
  0
LINE
  8
8
 10
86.9874
 20
216.0855
 11
86.9570
 21
251.0867
  0
TEXT
  8
8
 10
86.9874
 20
216.0855
 40
0.250
 50
0.0000
  1
NM
  7
STANDARD
  0
POINT
  8
2
 10
86.9874
 20
216.0855
  0
TEXT
  8
2
 10
86.9874
 20
216.0855
 40
0.250
 50
0.0000
  1
# 0
  7
STANDARD
  0
POINT
  8
2
 10
86.9570
 20
251.0867
  0
TEXT
  8
2
 10
86.9570
 20
251.0867
 40
0.250
 50
0.0000
  1
# 0
  7
STANDARD
  0
LINE
  8
8
 10
63.9903
 20
216.0702
 11
86.9900
 21
216.0906
  0
TEXT
  8
8
 10
63.9903
 20
216.0702
 40
0.250
 50
0.0000
  1
NM
  7
STANDARD
  0
POINT
  8
2
 10
63.9903
 20
216.0702
  0
TEXT
  8
2
 10
63.9903
 20
216.0702
 40
0.250
 50
0.0000
  1
# 0
  7
STANDARD
  0
POINT
  8
2
 10
86.9900
 20
216.0906
  0
TEXT
  8
2
 10
86.9900
 20
216.0906
 40
0.250
 50
0.0000
  1
# 0
  7
STANDARD
  0
LINE
  8
8
 10
63.9573
 20
251.0664
 11
63.9877
 21
216.0651
  0
TEXT
  8
8
 10
63.9573
 20
251.0664
 40
0.250
 50
0.0000
  1
NM
  7
STANDARD
  0
POINT
  8
2
 10
63.9573
 20
251.0664
  0
TEXT
  8
2
 10
63.9573
 20
251.0664
 40
0.250
 50
0.0000
  1
# 0
  7
STANDARD
  0
POINT
  8
2
 10
63.9877
 20
216.0651
  0
TEXT
  8
2
 10
63.9877
 20
216.0651
 40
0.250
 50
0.0000
  1
# 0
  7
STANDARD
  0
ENDBLK
  0
BLOCK
  8
0
  2
GLX4802SLS_38
 70
64
 10
0.0000
 20
0.0000
  0
TEXT
  8
1
 10
210.0961
 20
292.7401
 40
0.250
 50
0.0000
  1
Piece Name: GLX4802SLS
  7
STANDARD
  0
TEXT
  8
1
 10
210.0961
 20
296.2961
 40
0.250
 50
0.0000
  1
SIZE: 38
  7
STANDARD
  0
POLYLINE
  8
1
 66
1
 70
0
  0
VERTEX
  8
1
 10
24.7600
 20
65.0799
  0
VERTEX
  8
1
 10
33.7236
 20
177.6959
  0
VERTEX
  8
1
 10
32.5679
 20
214.2186
  0
VERTEX
  8
1
 10
28.0366
 20
282.1331
  0
VERTEX
  8
1
 10
24.4069
 20
339.4863
  0
VERTEX
  8
1
 10
21.5596
 20
399.3134
  0
VERTEX
  8
1
 10
20.9779
 20
510.8118
  0
SEQEND
  8
1
  0
POLYLINE
  8
1
 66
1
 70
0
  0
VERTEX
  8
1
 10
20.9779
 20
510.8118
  0
VERTEX
  8
1
 10
118.6765
 20
548.2083
  0
VERTEX
  8
1
 10
145.9434
 20
558.6502
  0
SEQEND
  8
1
  0
POLYLINE
  8
1
 66
1
 70
0
  0
VERTEX
  8
1
 10
145.9434
 20
558.6502
  0
VERTEX
  8
1
 10
152.7125
 20
525.8054
  0
VERTEX
  8
1
 10
161.0310
 20
511.9117
  0
VERTEX
  8
1
 10
172.1613
 20
500.1718
  0
VERTEX
  8
1
 10
183.7335
 20
494.4110
  0
VERTEX
  8
1
 10
221.7141
 20
483.6338
  0
VERTEX
  8
1
 10
385.3765
 20
446.3009
  0
VERTEX
  8
1
 10
399.2144
 20
443.1488
  0
SEQEND
  8
1
  0
POLYLINE
  8
1
 66
1
 70
0
  0
VERTEX
  8
1
 10
399.2144
 20
443.1488
  0
VERTEX
  8
1
 10
397.3069
 20
436.2984
  0
VERTEX
  8
1
 10
373.2175
 20
356.2604
  0
VERTEX
  8
1
 10
353.3293
 20
282.1331
  0
VERTEX
  8
1
 10
341.6809
 20
176.6418
  0
VERTEX
  8
1
 10
340.2000
 20
110.0100
  0
VERTEX
  8
1
 10
340.7969
 20
99.9846
  0
SEQEND
  8
1
  0
POLYLINE
  8
1
 66
1
 70
0
  0
VERTEX
  8
1
 10
340.7969
 20
99.9846
  0
VERTEX
  8
1
 10
221.7141
 20
80.6298
  0
VERTEX
  8
1
 10
188.1353
 20
71.0007
  0
VERTEX
  8
1
 10
172.1613
 20
61.3588
  0
VERTEX
  8
1
 10
166.4894
 20
53.4620
  0
VERTEX
  8
1
 10
152.7125
 20
26.8301
  0
SEQEND
  8
1
  0
POLYLINE
  8
1
 66
1
 70
0
  0
VERTEX
  8
1
 10
152.7125
 20
26.8301
  0
VERTEX
  8
1
 10
125.3110
 20
35.0317
  0
VERTEX
  8
1
 10
24.7600
 20
65.0799
  0
SEQEND
  8
1
  0
LINE
  8
7
 10
117.7926
 20
292.7427
 11
302.0721
 21
292.7427
  0
LINE
  8
5
 10
117.7926
 20
292.7427
 11
302.0721
 21
292.7427
  0
POLYLINE
  8
8
 66
1
 70
0
  0
VERTEX
  8
8
 10
353.3293
 20
282.1331
  0
VERTEX
  8
8
 10
221.7141
 20
282.1331
  0
VERTEX
  8
8
 10
27.6581
 20
282.1331
  0
SEQEND
  8
8
  0
POLYLINE
  8
8
 66
1
 70
0
  0
VERTEX
  8
8
 10
296.5730
 20
353.5223
  0
VERTEX
  8
8
 10
103.4771
 20
353.5223
  0
VERTEX
  8
8
 10
103.4771
 20
425.3510
  0
SEQEND
  8
8
  0
POLYLINE
  8
8
 66
1
 70
0
  0
VERTEX
  8
8
 10
152.7125
 20
525.8054
  0
VERTEX
  8
8
 10
152.7125
 20
282.1331
  0
VERTEX
  8
8
 10
152.7125
 20
26.8301
  0
SEQEND
  8
8
  0
LINE
  8
8
 10
221.7141
 20
483.6338
 11
221.7141
 21
80.6298
  0
LINE
  8
8
 10
84.4576
 20
251.0892
 11
61.4579
 21
251.0689
  0
LINE
  8
8
 10
84.4881
 20
216.0829
 11
84.4576
 21
251.0841
  0
LINE
  8
8
 10
61.4909
 20
216.0702
 11
84.4906
 21
216.0880
  0
LINE
  8
8
 10
61.4579
 20
251.0664
 11
61.4884
 21
216.0626
  0
ENDBLK
  0
BLOCK
  8
0
  2
GLX4802SLS_40
 70
64
 10
0.0000
 20
0.0000
  0
TEXT
  8
1
 10
210.0961
 20
292.7401
 40
0.250
 50
0.0000
  1
Piece Name: GLX4802SLS
  7
STANDARD
  0
TEXT
  8
1
 10
210.0961
 20
296.2961
 40
0.250
 50
0.0000
  1
SIZE: 40
  7
STANDARD
  0
POLYLINE
  8
1
 66
1
 70
0
  0
VERTEX
  8
1
 10
22.2581
 20
58.1026
  0
VERTEX
  8
1
 10
31.3640
 20
175.9966
  0
VERTEX
  8
1
 10
30.0660
 20
214.2186
  0
VERTEX
  8
1
 10
25.5347
 20
282.1331
  0
VERTEX
  8
1
 10
21.9050
 20
339.4863
  0
VERTEX
  8
1
 10
18.9916
 20
401.7544
  0
VERTEX
  8
1
 10
18.4760
 20
517.7943
  0
SEQEND
  8
1
  0
POLYLINE
  8
1
 66
1
 70
0
  0
VERTEX
  8
1
 10
18.4760
 20
517.7943
  0
VERTEX
  8
1
 10
116.1771
 20
555.5895
  0
VERTEX
  8
1
 10
143.4440
 20
566.1508
  0
SEQEND
  8
1
  0
POLYLINE
  8
1
 66
1
 70
0
  0
VERTEX
  8
1
 10
143.4440
 20
566.1508
  0
VERTEX
  8
1
 10
150.2131
 20
533.3061
  0
VERTEX
  8
1
 10
158.5316
 20
519.4148
  0
VERTEX
  8
1
 10
169.6619
 20
507.6724
  0
VERTEX
  8
1
 10
181.2494
 20
501.9930
  0
VERTEX
  8
1
 10
219.2148
 20
491.1345
  0
VERTEX
  8
1
 10
387.4898
 20
453.9869
  0
VERTEX
  8
1
 10
401.7163
 20
450.8475
  0
SEQEND
  8
1
  0
POLYLINE
  8
1
 66
1
 70
0
  0
VERTEX
  8
1
 10
401.7163
 20
450.8475
  0
VERTEX
  8
1
 10
399.7681
 20
443.6720
  0
VERTEX
  8
1
 10
375.1225
 20
359.7961
  0
VERTEX
  8
1
 10
354.8304
 20
282.1331
  0
VERTEX
  8
1
 10
342.9966
 20
172.1739
  0
VERTEX
  8
1
 10
341.6478
 20
102.7329
  0
VERTEX
  8
1
 10
342.2981
 20
92.2884
  0
SEQEND
  8
1
  0
POLYLINE
  8
1
 66
1
 70
0
  0
VERTEX
  8
1
 10
342.2981
 20
92.2884
  0
VERTEX
  8
1
 10
219.2148
 20
73.1317
  0
VERTEX
  8
1
 10
185.6436
 20
63.4442
  0
VERTEX
  8
1
 10
169.6619
 20
53.8608
  0
VERTEX
  8
1
 10
163.9901
 20
45.9639
  0
VERTEX
  8
1
 10
150.2131
 20
19.3320
  0
SEQEND
  8
1
  0
POLYLINE
  8
1
 66
1
 70
0
  0
VERTEX
  8
1
 10
150.2131
 20
19.3320
  0
VERTEX
  8
1
 10
122.8116
 20
27.6530
  0
VERTEX
  8
1
 10
22.2581
 20
58.1026
  0
SEQEND
  8
1
  0
LINE
  8
7
 10
115.2907
 20
292.7427
 11
299.5727
 21
292.7427
  0
LINE
  8
5
 10
115.2907
 20
292.7427
 11
299.5727
 21
292.7427
  0
POLYLINE
  8
8
 66
1
 70
0
  0
VERTEX
  8
8
 10
354.8304
 20
282.1331
  0
VERTEX
  8
8
 10
219.2148
 20
282.1331
  0
VERTEX
  8
8
 10
25.1562
 20
282.1331
  0
SEQEND
  8
8
  0
POLYLINE
  8
8
 66
1
 70
0
  0
VERTEX
  8
8
 10
294.0736
 20
353.5223
  0
VERTEX
  8
8
 10
100.9752
 20
353.5223
  0
VERTEX
  8
8
 10
100.9752
 20
425.3510
  0
SEQEND
  8
8
  0
POLYLINE
  8
8
 66
1
 70
0
  0
VERTEX
  8
8
 10
150.2131
 20
533.3061
  0
VERTEX
  8
8
 10
150.2131
 20
282.1331
  0
VERTEX
  8
8
 10
150.2131
 20
19.3320
  0
SEQEND
  8
8
  0
LINE
  8
8
 10
219.2148
 20
491.1345
 11
219.2148
 21
73.1317
  0
LINE
  8
8
 10
81.9557
 20
251.0917
 11
58.9585
 21
251.0714
  0
LINE
  8
8
 10
81.9862
 20
216.0855
 11
81.9557
 21
251.0867
  0
LINE
  8
8
 10
58.9915
 20
216.0702
 11
81.9912
 21
216.0906
  0
LINE
  8
8
 10
58.9585
 20
251.0664
 11
58.9865
 21
216.0651
  0
ENDBLK
  0
BLOCK
  8
0
  2
GLX4802SLS_42
 70
64
 10
0.0000
 20
0.0000
  0
TEXT
  8
1
 10
210.0961
 20
292.7401
 40
0.250
 50
0.0000
  1
Piece Name: GLX4802SLS
  7
STANDARD
  0
TEXT
  8
1
 10
210.0961
 20
296.2961
 40
0.250
 50
0.0000
  1
SIZE: 42
  7
STANDARD
  0
POLYLINE
  8
1
 66
1
 70
0
  0
VERTEX
  8
1
 10
18.5090
 20
50.1320
  0
VERTEX
  8
1
 10
27.7800
 20
174.0536
  0
VERTEX
  8
1
 10
26.3170
 20
214.2186
  0
VERTEX
  8
1
 10
21.7856
 20
282.1331
  0
VERTEX
  8
1
 10
18.1560
 20
339.4863
  0
VERTEX
  8
1
 10
15.1639
 20
404.5382
  0
VERTEX
  8
1
 10
14.7270
 20
525.7648
  0
SEQEND
  8
1
  0
POLYLINE
  8
1
 66
1
 70
0
  0
VERTEX
  8
1
 10
14.7270
 20
525.7648
  0
VERTEX
  8
1
 10
112.4255
 20
564.2102
  0
VERTEX
  8
1
 10
139.6924
 20
574.9011
  0
SEQEND
  8
1
  0
POLYLINE
  8
1
 66
1
 70
0
  0
VERTEX
  8
1
 10
139.6924
 20
574.9011
  0
VERTEX
  8
1
 10
146.4615
 20
542.0564
  0
VERTEX
  8
1
 10
154.7800
 20
528.1651
  0
VERTEX
  8
1
 10
165.9103
 20
516.4227
  0
VERTEX
  8
1
 10
177.5130
 20
510.8423
  0
VERTEX
  8
1
 10
215.4632
 20
500.1337
  0
VERTEX
  8
1
 10
390.6520
 20
463.0802
  0
VERTEX
  8
1
 10
405.4653
 20
459.9483
  0
SEQEND
  8
1
  0
POLYLINE
  8
1
 66
1
 70
0
  0
VERTEX
  8
1
 10
405.4653
 20
459.9483
  0
VERTEX
  8
1
 10
403.4968
 20
452.3868
  0
VERTEX
  8
1
 10
378.5363
 20
363.9694
  0
VERTEX
  8
1
 10
358.0791
 20
282.1331
  0
VERTEX
  8
1
 10
345.4451
 20
166.9111
  0
VERTEX
  8
1
 10
343.8856
 20
94.1375
  0
VERTEX
  8
1
 10
344.5460
 20
83.1876
  0
SEQEND
  8
1
  0
POLYLINE
  8
1
 66
1
 70
0
  0
VERTEX
  8
1
 10
344.5460
 20
83.1876
  0
VERTEX
  8
1
 10
215.4632
 20
64.1325
  0
VERTEX
  8
1
 10
181.8056
 20
54.6964
  0
VERTEX
  8
1
 10
165.7681
 20
45.2070
  0
VERTEX
  8
1
 10
160.1318
 20
37.2771
  0
VERTEX
  8
1
 10
146.4615
 20
10.5817
  0
SEQEND
  8
1
  0
POLYLINE
  8
1
 66
1
 70
0
  0
VERTEX
  8
1
 10
146.4615
 20
10.5817
  0
VERTEX
  8
1
 10
119.0600
 20
19.0831
  0
VERTEX
  8
1
 10
18.5090
 20
50.1320
  0
SEQEND
  8
1
  0
LINE
  8
7
 10
111.5416
 20
292.7427
 11
295.8211
 21
292.7427
  0
LINE
  8
5
 10
111.5416
 20
292.7427
 11
295.8211
 21
292.7427
  0
POLYLINE
  8
8
 66
1
 70
0
  0
VERTEX
  8
8
 10
358.0791
 20
282.1331
  0
VERTEX
  8
8
 10
215.4632
 20
282.1331
  0
VERTEX
  8
8
 10
21.4072
 20
282.1331
  0
SEQEND
  8
8
  0
POLYLINE
  8
8
 66
1
 70
0
  0
VERTEX
  8
8
 10
290.3220
 20
353.5223
  0
VERTEX
  8
8
 10
97.2262
 20
353.5223
  0
VERTEX
  8
8
 10
97.2262
 20
425.3510
  0
SEQEND
  8
8
  0
POLYLINE
  8
8
 66
1
 70
0
  0
VERTEX
  8
8
 10
146.4615
 20
542.0564
  0
VERTEX
  8
8
 10
146.4615
 20
282.1331
  0
VERTEX
  8
8
 10
146.4615
 20
10.5817
  0
SEQEND
  8
8
  0
LINE
  8
8
 10
215.4632
 20
500.1337
 11
215.4632
 21
64.1325
  0
LINE
  8
8
 10
78.2066
 20
251.0917
 11
55.2069
 21
251.0714
  0
LINE
  8
8
 10
78.2371
 20
216.0855
 11
78.2066
 21
251.0867
  0
LINE
  8
8
 10
55.2400
 20
216.0702
 11
78.2397
 21
216.0906
  0
LINE
  8
8
 10
55.2069
 20
251.0664
 11
55.2374
 21
216.0651
  0
ENDBLK
  0
BLOCK
  8
0
  2
GLX4802SLS_44
 70
64
 10
0.0000
 20
0.0000
  0
TEXT
  8
1
 10
210.0961
 20
292.7401
 40
0.250
 50
0.0000
  1
Piece Name: GLX4802SLS
  7
STANDARD
  0
TEXT
  8
1
 10
210.0961
 20
296.2961
 40
0.250
 50
0.0000
  1
SIZE: 44
  7
STANDARD
  0
POLYLINE
  8
1
 66
1
 70
0
  0
VERTEX
  8
1
 10
7.2568
 20
46.8859
  0
VERTEX
  8
1
 10
16.5939
 20
173.2611
  0
VERTEX
  8
1
 10
15.0648
 20
214.2186
  0
VERTEX
  8
1
 10
10.5334
 20
282.1331
  0
VERTEX
  8
1
 10
6.9038
 20
339.4863
  0
VERTEX
  8
1
 10
3.8939
 20
405.2393
  0
VERTEX
  8
1
 10
3.4748
 20
527.7714
  0
SEQEND
  8
1
  0
POLYLINE
  8
1
 66
1
 70
0
  0
VERTEX
  8
1
 10
3.4748
 20
527.7714
  0
VERTEX
  8
1
 10
116.1746
 20
572.8107
  0
VERTEX
  8
1
 10
143.4415
 20
583.6514
  0
SEQEND
  8
1
  0
POLYLINE
  8
1
 66
1
 70
0
  0
VERTEX
  8
1
 10
143.4415
 20
583.6514
  0
VERTEX
  8
1
 10
150.2106
 20
550.8067
  0
VERTEX
  8
1
 10
158.5291
 20
536.9154
  0
VERTEX
  8
1
 10
169.6593
 20
525.1730
  0
VERTEX
  8
1
 10
181.2799
 20
519.6942
  0
VERTEX
  8
1
 10
219.2122
 20
509.1329
  0
VERTEX
  8
1
 10
401.3200
 20
472.1734
  0
VERTEX
  8
1
 10
416.7175
 20
469.0492
  0
SEQEND
  8
1
  0
POLYLINE
  8
1
 66
1
 70
0
  0
VERTEX
  8
1
 10
416.7175
 20
469.0492
  0
VERTEX
  8
1
 10
414.7287
 20
461.1015
  0
VERTEX
  8
1
 10
389.4481
 20
368.1451
  0
VERTEX
  8
1
 10
368.8309
 20
282.1331
  0
VERTEX
  8
1
 10
355.3968
 20
161.6507
  0
VERTEX
  8
1
 10
353.6265
 20
85.5396
  0
VERTEX
  8
1
 10
354.2970
 20
74.0868
  0
SEQEND
  8
1
  0
POLYLINE
  8
1
 66
1
 70
0
  0
VERTEX
  8
1
 10
354.2970
 20
74.0868
  0
VERTEX
  8
1
 10
219.2122
 20
55.1333
  0
VERTEX
  8
1
 10
185.4658
 20
45.9487
  0
VERTEX
  8
1
 10
169.3749
 20
36.5532
  0
VERTEX
  8
1
 10
163.7767
 20
28.5928
  0
VERTEX
  8
1
 10
150.2106
 20
1.8314
  0
SEQEND
  8
1
  0
POLYLINE
  8
1
 66
1
 70
0
  0
VERTEX
  8
1
 10
150.2106
 20
1.8314
  0
VERTEX
  8
1
 10
122.8091
 20
10.4623
  0
VERTEX
  8
1
 10
7.2568
 20
46.8859
  0
SEQEND
  8
1
  0
LINE
  8
7
 10
115.2907
 20
292.7427
 11
299.5702
 21
292.7427
  0
LINE
  8
5
 10
115.2907
 20
292.7427
 11
299.5702
 21
292.7427
  0
POLYLINE
  8
8
 66
1
 70
0
  0
VERTEX
  8
8
 10
368.8309
 20
282.1331
  0
VERTEX
  8
8
 10
219.2122
 20
282.1331
  0
VERTEX
  8
8
 10
10.1550
 20
282.1331
  0
SEQEND
  8
8
  0
POLYLINE
  8
8
 66
1
 70
0
  0
VERTEX
  8
8
 10
294.0711
 20
353.5223
  0
VERTEX
  8
8
 10
100.9752
 20
353.5223
  0
VERTEX
  8
8
 10
100.9752
 20
425.3510
  0
SEQEND
  8
8
  0
POLYLINE
  8
8
 66
1
 70
0
  0
VERTEX
  8
8
 10
150.2106
 20
550.8067
  0
VERTEX
  8
8
 10
150.2106
 20
282.1331
  0
VERTEX
  8
8
 10
150.2106
 20
1.8314
  0
SEQEND
  8
8
  0
LINE
  8
8
 10
219.2122
 20
509.1329
 11
219.2122
 21
55.1333
  0
LINE
  8
8
 10
81.9557
 20
251.0917
 11
58.9560
 21
251.0714
  0
LINE
  8
8
 10
81.9862
 20
216.0855
 11
81.9557
 21
251.0867
  0
LINE
  8
8
 10
58.9890
 20
216.0702
 11
81.9887
 21
216.0906
  0
LINE
  8
8
 10
58.9560
 20
251.0664
 11
58.9865
 21
216.0651
  0
ENDBLK
  0
BLOCK
  8
0
  2
GLX4802SLS_46
 70
64
 10
0.0000
 20
0.0000
  0
TEXT
  8
1
 10
210.0961
 20
292.7401
 40
0.250
 50
0.0000
  1
Piece Name: GLX4802SLS
  7
STANDARD
  0
TEXT
  8
1
 10
210.0961
 20
296.2961
 40
0.250
 50
0.0000
  1
SIZE: 46
  7
STANDARD
  0
POLYLINE
  8
1
 66
1
 70
0
  0
VERTEX
  8
1
 10
1.5063
 20
37.7876
  0
VERTEX
  8
1
 10
11.0287
 20
171.0411
  0
VERTEX
  8
1
 10
9.3142
 20
214.2186
  0
VERTEX
  8
1
 10
4.7829
 20
282.1331
  0
VERTEX
  8
1
 10
1.1532
 20
339.4863
  0
VERTEX
  8
1
 10
-1.9457
 20
408.4143
  0
VERTEX
  8
1
 10
-2.2759
 20
536.8595
  0
SEQEND
  8
1
  0
POLYLINE
  8
1
 66
1
 70
0
  0
VERTEX
  8
1
 10
-2.2759
 20
536.8595
  0
VERTEX
  8
1
 10
110.4240
 20
582.6481
  0
VERTEX
  8
1
 10
137.6909
 20
593.6514
  0
SEQEND
  8
1
  0
POLYLINE
  8
1
 66
1
 70
0
  0
VERTEX
  8
1
 10
137.6909
 20
593.6514
  0
VERTEX
  8
1
 10
144.4600
 20
560.8066
  0
VERTEX
  8
1
 10
152.7785
 20
546.9129
  0
VERTEX
  8
1
 10
163.9088
 20
535.1730
  0
VERTEX
  8
1
 10
175.4632
 20
529.2903
  0
VERTEX
  8
1
 10
213.4616
 20
518.3810
  0
VERTEX
  8
1
 10
406.1740
 20
482.8032
  0
VERTEX
  8
1
 10
422.4681
 20
479.7959
  0
SEQEND
  8
1
  0
POLYLINE
  8
1
 66
1
 70
0
  0
VERTEX
  8
1
 10
422.4681
 20
479.7959
  0
VERTEX
  8
1
 10
420.4386
 20
471.3910
  0
VERTEX
  8
1
 10
394.5814
 20
373.0778
  0
VERTEX
  8
1
 10
373.5807
 20
282.1331
  0
VERTEX
  8
1
 10
359.0163
 20
155.4404
  0
VERTEX
  8
1
 10
356.8802
 20
75.3847
  0
VERTEX
  8
1
 10
357.5457
 20
63.3349
  0
SEQEND
  8
1
  0
POLYLINE
  8
1
 66
1
 70
0
  0
VERTEX
  8
1
 10
357.5457
 20
63.3349
  0
VERTEX
  8
1
 10
213.4616
 20
45.8801
  0
VERTEX
  8
1
 10
179.0904
 20
36.6649
  0
VERTEX
  8
1
 10
162.7709
 20
27.1095
  0
VERTEX
  8
1
 10
157.3962
 20
18.9713
  0
VERTEX
  8
1
 10
144.4600
 20
-8.1712
  0
SEQEND
  8
1
  0
POLYLINE
  8
1
 66
1
 70
0
  0
VERTEX
  8
1
 10
144.4600
 20
-8.1712
  0
VERTEX
  8
1
 10
117.0585
 20
0.6300
  0
VERTEX
  8
1
 10
1.5063
 20
37.7876
  0
SEQEND
  8
1
  0
LINE
  8
7
 10
109.5401
 20
292.7427
 11
293.8196
 21
292.7427
  0
LINE
  8
5
 10
109.5401
 20
292.7427
 11
293.8196
 21
292.7427
  0
POLYLINE
  8
8
 66
1
 70
0
  0
VERTEX
  8
8
 10
373.5807
 20
282.1331
  0
VERTEX
  8
8
 10
213.4616
 20
282.1331
  0
VERTEX
  8
8
 10
4.4044
 20
282.1331
  0
SEQEND
  8
8
  0
POLYLINE
  8
8
 66
1
 70
0
  0
VERTEX
  8
8
 10
288.3205
 20
353.5223
  0
VERTEX
  8
8
 10
95.2246
 20
353.5223
  0
VERTEX
  8
8
 10
95.2246
 20
425.3510
  0
SEQEND
  8
8
  0
POLYLINE
  8
8
 66
1
 70
0
  0
VERTEX
  8
8
 10
144.4600
 20
560.8066
  0
VERTEX
  8
8
 10
144.4600
 20
282.1331
  0
VERTEX
  8
8
 10
144.4600
 20
-8.1712
  0
SEQEND
  8
8
  0
LINE
  8
8
 10
213.4616
 20
518.3810
 11
213.4616
 21
45.8801
  0
LINE
  8
8
 10
76.2051
 20
251.0892
 11
53.2054
 21
251.0689
  0
LINE
  8
8
 10
76.2356
 20
216.0829
 11
76.2051
 21
251.0841
  0
LINE
  8
8
 10
53.2385
 20
216.0702
 11
76.2382
 21
216.0880
  0
LINE
  8
8
 10
53.2054
 20
251.0664
 11
53.2359
 21
216.0626
  0
ENDBLK
  0
BLOCK
  8
0
  2
GLX4802SLS_48
 70
64
 10
0.0000
 20
0.0000
  0
TEXT
  8
1
 10
210.0961
 20
292.7401
 40
0.250
 50
0.0000
  1
Piece Name: GLX4802SLS
  7
STANDARD
  0
TEXT
  8
1
 10
210.0961
 20
296.2961
 40
0.250
 50
0.0000
  1
SIZE: 48
  7
STANDARD
  0
POLYLINE
  8
1
 66
1
 70
0
  0
VERTEX
  8
1
 10
-4.2444
 20
28.6944
  0
VERTEX
  8
1
 10
5.4661
 20
168.8262
  0
VERTEX
  8
1
 10
3.5637
 20
214.2186
  0
VERTEX
  8
1
 10
-0.9678
 20
282.1331
  0
VERTEX
  8
1
 10
-4.5975
 20
339.4863
  0
VERTEX
  8
1
 10
-7.7826
 20
411.5918
  0
VERTEX
  8
1
 10
-8.0265
 20
545.9527
  0
SEQEND
  8
1
  0
POLYLINE
  8
1
 66
1
 70
0
  0
VERTEX
  8
1
 10
-8.0265
 20
545.9527
  0
VERTEX
  8
1
 10
104.6734
 20
592.4906
  0
VERTEX
  8
1
 10
131.9404
 20
603.6514
  0
SEQEND
  8
1
  0
POLYLINE
  8
1
 66
1
 70
0
  0
VERTEX
  8
1
 10
131.9404
 20
603.6514
  0
VERTEX
  8
1
 10
138.7095
 20
570.8066
  0
VERTEX
  8
1
 10
147.0280
 20
556.9154
  0
VERTEX
  8
1
 10
158.1582
 20
545.1730
  0
VERTEX
  8
1
 10
169.6441
 20
538.8890
  0
VERTEX
  8
1
 10
207.7111
 20
527.6342
  0
VERTEX
  8
1
 10
411.0254
 20
493.4382
  0
VERTEX
  8
1
 10
428.2187
 20
490.5477
  0
SEQEND
  8
1
  0
POLYLINE
  8
1
 66
1
 70
0
  0
VERTEX
  8
1
 10
428.2187
 20
490.5477
  0
VERTEX
  8
1
 10
426.1486
 20
481.6857
  0
VERTEX
  8
1
 10
399.7122
 20
378.0130
  0
VERTEX
  8
1
 10
378.3280
 20
282.1331
  0
VERTEX
  8
1
 10
362.6359
 20
149.2352
  0
VERTEX
  8
1
 10
360.1365
 20
65.2349
  0
VERTEX
  8
1
 10
360.7944
 20
52.5882
  0
SEQEND
  8
1
  0
POLYLINE
  8
1
 66
1
 70
0
  0
VERTEX
  8
1
 10
360.7944
 20
52.5882
  0
VERTEX
  8
1
 10
207.7111
 20
36.6319
  0
VERTEX
  8
1
 10
172.7200
 20
27.3635
  0
VERTEX
  8
1
 10
156.1770
 20
17.6404
  0
VERTEX
  8
1
 10
151.0259
 20
9.3320
  0
VERTEX
  8
1
 10
138.7095
 20
-18.1687
  0
SEQEND
  8
1
  0
POLYLINE
  8
1
 66
1
 70
0
  0
VERTEX
  8
1
 10
138.7095
 20
-18.1687
  0
VERTEX
  8
1
 10
111.3079
 20
-9.1974
  0
VERTEX
  8
1
 10
-4.2444
 20
28.6944
  0
SEQEND
  8
1
  0
LINE
  8
7
 10
103.7895
 20
292.7427
 11
288.0691
 21
292.7427
  0
LINE
  8
5
 10
103.7895
 20
292.7427
 11
288.0691
 21
292.7427
  0
POLYLINE
  8
8
 66
1
 70
0
  0
VERTEX
  8
8
 10
378.3280
 20
282.1331
  0
VERTEX
  8
8
 10
207.7111
 20
282.1331
  0
VERTEX
  8
8
 10
-1.3462
 20
282.1331
  0
SEQEND
  8
8
  0
POLYLINE
  8
8
 66
1
 70
0
  0
VERTEX
  8
8
 10
282.5700
 20
353.5223
  0
VERTEX
  8
8
 10
89.4741
 20
353.5223
  0
VERTEX
  8
8
 10
89.4741
 20
425.3510
  0
SEQEND
  8
8
  0
POLYLINE
  8
8
 66
1
 70
0
  0
VERTEX
  8
8
 10
138.7095
 20
570.8066
  0
VERTEX
  8
8
 10
138.7095
 20
282.1331
  0
VERTEX
  8
8
 10
138.7095
 20
-18.1687
  0
SEQEND
  8
8
  0
LINE
  8
8
 10
207.7111
 20
527.6342
 11
207.7111
 21
36.6319
  0
LINE
  8
8
 10
70.4546
 20
251.0917
 11
47.4549
 21
251.0714
  0
LINE
  8
8
 10
70.4851
 20
216.0855
 11
70.4546
 21
251.0867
  0
LINE
  8
8
 10
47.4879
 20
216.0702
 11
70.4876
 21
216.0906
  0
LINE
  8
8
 10
47.4549
 20
251.0664
 11
47.4853
 21
216.0651
  0
ENDBLK
  0
BLOCK
  8
0
  2
GLX4802SLS_50
 70
64
 10
0.0000
 20
0.0000
  0
TEXT
  8
1
 10
210.0936
 20
292.7401
 40
0.250
 50
0.0000
  1
Piece Name: GLX4802SLS
  7
STANDARD
  0
TEXT
  8
1
 10
210.0936
 20
296.2961
 40
0.250
 50
0.0000
  1
SIZE: 50
  7
STANDARD
  0
POLYLINE
  8
1
 66
1
 70
0
  0
VERTEX
  8
1
 10
-8.4938
 20
18.6360
  0
VERTEX
  8
1
 10
1.4225
 20
166.3726
  0
VERTEX
  8
1
 10
-0.6858
 20
214.2186
  0
VERTEX
  8
1
 10
-5.2172
 20
282.1331
  0
VERTEX
  8
1
 10
-8.8469
 20
339.4863
  0
VERTEX
  8
1
 10
-12.1286
 20
415.0996
  0
VERTEX
  8
1
 10
-12.2759
 20
555.9908
  0
SEQEND
  8
1
  0
POLYLINE
  8
1
 66
1
 70
0
  0
VERTEX
  8
1
 10
-12.2759
 20
555.9908
  0
VERTEX
  8
1
 10
100.4240
 20
603.5295
  0
VERTEX
  8
1
 10
127.6909
 20
614.9010
  0
SEQEND
  8
1
  0
POLYLINE
  8
1
 66
1
 70
0
  0
VERTEX
  8
1
 10
127.6909
 20
614.9010
  0
VERTEX
  8
1
 10
134.4600
 20
582.0563
  0
VERTEX
  8
1
 10
142.7785
 20
568.1625
  0
VERTEX
  8
1
 10
153.9088
 20
556.4201
  0
VERTEX
  8
1
 10
165.3287
 20
549.7373
  0
VERTEX
  8
1
 10
203.4617
 20
538.1321
  0
VERTEX
  8
1
 10
414.6119
 20
506.0112
  0
VERTEX
  8
1
 10
432.4655
 20
503.2985
  0
SEQEND
  8
1
  0
POLYLINE
  8
1
 66
1
 70
0
  0
VERTEX
  8
1
 10
432.4655
 20
503.2985
  0
VERTEX
  8
1
 10
430.3624
 20
493.8929
  0
VERTEX
  8
1
 10
403.3317
 20
383.8626
  0
VERTEX
  8
1
 10
381.5817
 20
282.1331
  0
VERTEX
  8
1
 10
364.7110
 20
141.8641
  0
VERTEX
  8
1
 10
361.8815
 20
53.1876
  0
VERTEX
  8
1
 10
362.5444
 20
39.8349
  0
SEQEND
  8
1
  0
POLYLINE
  8
1
 66
1
 70
0
  0
VERTEX
  8
1
 10
362.5444
 20
39.8349
  0
VERTEX
  8
1
 10
203.4617
 20
26.1290
  0
VERTEX
  8
1
 10
167.7671
 20
16.8504
  0
VERTEX
  8
1
 10
150.9599
 20
6.9698
  0
VERTEX
  8
1
 10
146.0627
 20
-1.5266
  0
VERTEX
  8
1
 10
134.4600
 20
-29.4209
  0
SEQEND
  8
1
  0
POLYLINE
  8
1
 66
1
 70
0
  0
VERTEX
  8
1
 10
134.4600
 20
-29.4209
  0
VERTEX
  8
1
 10
107.0585
 20
-20.2312
  0
VERTEX
  8
1
 10
-8.4938
 20
18.6360
  0
SEQEND
  8
1
  0
LINE
  8
7
 10
99.5401
 20
292.7427
 11
283.8222
 21
292.7427
  0
LINE
  8
5
 10
99.5401
 20
292.7427
 11
283.8222
 21
292.7427
  0
POLYLINE
  8
8
 66
1
 70
0
  0
VERTEX
  8
8
 10
381.5817
 20
282.1331
  0
VERTEX
  8
8
 10
203.4617
 20
282.1331
  0
VERTEX
  8
8
 10
-5.5957
 20
282.1331
  0
SEQEND
  8
8
  0
POLYLINE
  8
8
 66
1
 70
0
  0
VERTEX
  8
8
 10
278.3231
 20
353.5223
  0
VERTEX
  8
8
 10
85.2247
 20
353.5223
  0
VERTEX
  8
8
 10
85.2247
 20
425.3510
  0
SEQEND
  8
8
  0
POLYLINE
  8
8
 66
1
 70
0
  0
VERTEX
  8
8
 10
134.4600
 20
582.0538
  0
VERTEX
  8
8
 10
134.4600
 20
282.1331
  0
VERTEX
  8
8
 10
134.4600
 20
-29.4209
  0
SEQEND
  8
8
  0
LINE
  8
8
 10
203.4617
 20
538.1321
 11
203.4617
 21
26.1290
  0
LINE
  8
8
 10
66.2052
 20
251.0892
 11
43.2054
 21
251.0689
  0
LINE
  8
8
 10
66.2356
 20
216.0829
 11
66.2052
 21
251.0841
  0
LINE
  8
8
 10
43.2385
 20
216.0702
 11
66.2382
 21
216.0880
  0
LINE
  8
8
 10
43.2054
 20
251.0664
 11
43.2359
 21
216.0626
  0
ENDBLK
  0
BLOCK
  8
0
  2
GLX4802SLS_52
 70
64
 10
0.0000
 20
0.0000
  0
TEXT
  8
1
 10
210.0961
 20
292.7401
 40
0.250
 50
0.0000
  1
Piece Name: GLX4802SLS
  7
STANDARD
  0
TEXT
  8
1
 10
210.0961
 20
296.2961
 40
0.250
 50
0.0000
  1
SIZE: 52
  7
STANDARD
  0
POLYLINE
  8
1
 66
1
 70
0
  0
VERTEX
  8
1
 10
-12.7432
 20
8.5929
  0
VERTEX
  8
1
 10
-2.6213
 20
163.9240
  0
VERTEX
  8
1
 10
-4.9353
 20
214.2186
  0
VERTEX
  8
1
 10
-9.4666
 20
282.1331
  0
VERTEX
  8
1
 10
-13.0963
 20
339.4863
  0
VERTEX
  8
1
 10
-16.4745
 20
418.6073
  0
VERTEX
  8
1
 10
-16.5253
 20
566.0289
  0
SEQEND
  8
1
  0
POLYLINE
  8
1
 66
1
 70
0
  0
VERTEX
  8
1
 10
-16.5253
 20
566.0289
  0
VERTEX
  8
1
 10
96.1746
 20
614.5683
  0
VERTEX
  8
1
 10
123.4415
 20
626.1507
  0
SEQEND
  8
1
  0
POLYLINE
  8
1
 66
1
 70
0
  0
VERTEX
  8
1
 10
123.4415
 20
626.1507
  0
VERTEX
  8
1
 10
130.2106
 20
593.3060
  0
VERTEX
  8
1
 10
138.5291
 20
579.4147
  0
VERTEX
  8
1
 10
149.6594
 20
567.6723
  0
VERTEX
  8
1
 10
161.0310
 20
560.6847
  0
VERTEX
  8
1
 10
199.2123
 20
548.6350
  0
VERTEX
  8
1
 10
418.1983
 20
518.5893
  0
VERTEX
  8
1
 10
436.7175
 20
516.0493
  0
SEQEND
  8
1
  0
POLYLINE
  8
1
 66
1
 70
0
  0
VERTEX
  8
1
 10
436.7175
 20
516.0493
  0
VERTEX
  8
1
 10
434.5686
 20
506.1052
  0
VERTEX
  8
1
 10
406.9512
 20
389.7148
  0
VERTEX
  8
1
 10
384.8329
 20
282.1331
  0
VERTEX
  8
1
 10
366.7862
 20
134.4981
  0
VERTEX
  8
1
 10
363.6214
 20
41.1455
  0
VERTEX
  8
1
 10
364.2945
 20
27.0866
  0
SEQEND
  8
1
  0
POLYLINE
  8
1
 66
1
 70
0
  0
VERTEX
  8
1
 10
364.2945
 20
27.0866
  0
VERTEX
  8
1
 10
199.2123
 20
15.6312
  0
VERTEX
  8
1
 10
162.8293
 20
6.2459
  0
VERTEX
  8
1
 10
145.7554
 20
-3.7288
  0
VERTEX
  8
1
 10
141.1123
 20
-12.4054
  0
VERTEX
  8
1
 10
130.2106
 20
-40.6680
  0
SEQEND
  8
1
  0
POLYLINE
  8
1
 66
1
 70
0
  0
VERTEX
  8
1
 10
130.2106
 20
-40.6680
  0
VERTEX
  8
1
 10
102.8091
 20
-31.2598
  0
VERTEX
  8
1
 10
-12.7432
 20
8.5929
  0
SEQEND
  8
1
  0
LINE
  8
7
 10
95.2907
 20
292.7427
 11
279.5702
 21
292.7427
  0
LINE
  8
5
 10
95.2907
 20
292.7427
 11
279.5702
 21
292.7427
  0
POLYLINE
  8
8
 66
1
 70
0
  0
VERTEX
  8
8
 10
384.8329
 20
282.1331
  0
VERTEX
  8
8
 10
199.2123
 20
282.1331
  0
VERTEX
  8
8
 10
-9.8451
 20
282.1331
  0
SEQEND
  8
8
  0
POLYLINE
  8
8
 66
1
 70
0
  0
VERTEX
  8
8
 10
274.0711
 20
353.5223
  0
VERTEX
  8
8
 10
80.9753
 20
353.5223
  0
VERTEX
  8
8
 10
80.9753
 20
425.3510
  0
SEQEND
  8
8
  0
POLYLINE
  8
8
 66
1
 70
0
  0
VERTEX
  8
8
 10
130.2106
 20
593.3060
  0
VERTEX
  8
8
 10
130.2106
 20
282.1331
  0
VERTEX
  8
8
 10
130.2106
 20
-40.6680
  0
SEQEND
  8
8
  0
LINE
  8
8
 10
199.2123
 20
548.6350
 11
199.2123
 21
15.6312
  0
LINE
  8
8
 10
61.9557
 20
251.0917
 11
38.9560
 21
251.0714
  0
LINE
  8
8
 10
61.9862
 20
216.0855
 11
61.9557
 21
251.0867
  0
LINE
  8
8
 10
38.9890
 20
216.0702
 11
61.9888
 21
216.0906
  0
LINE
  8
8
 10
38.9560
 20
251.0664
 11
38.9865
 21
216.0651
  0
ENDBLK
  0
BLOCK
  8
0
  2
GLX4802S19SLO_26
 70
64
 10
0.0000
 20
0.0000
  0
TEXT
  8
1
 10
898.6394
 20
292.7122
 40
0.250
 50
0.0000
  1
Piece Name: GLX4802S19SLO
  7
STANDARD
  0
TEXT
  8
1
 10
898.6394
 20
296.2682
 40
0.250
 50
0.0000
  1
SIZE: 26
  7
STANDARD
  0
POLYLINE
  8
1
 66
1
 70
0
  0
VERTEX
  8
1
 10
1127.8693
 20
513.6185
  0
VERTEX
  8
1
 10
1134.6358
 20
480.7738
  0
VERTEX
  8
1
 10
1143.5157
 20
466.4660
  0
VERTEX
  8
1
 10
1155.3191
 20
454.4492
  0
VERTEX
  8
1
 10
1166.5840
 20
448.6148
  0
VERTEX
  8
1
 10
1203.6400
 20
438.6022
  0
VERTEX
  8
1
 10
1344.7167
 20
399.3414
  0
VERTEX
  8
1
 10
1356.6445
 20
396.0191
  0
SEQEND
  8
1
  0
POLYLINE
  8
1
 66
1
 70
0
  0
VERTEX
  8
1
 10
1356.6445
 20
396.0191
  0
VERTEX
  8
1
 10
1331.5214
 20
334.6349
  0
VERTEX
  8
1
 10
1311.7551
 20
282.1051
  0
VERTEX
  8
1
 10
1301.2395
 20
203.9697
  0
VERTEX
  8
1
 10
1298.9611
 20
154.5108
  0
VERTEX
  8
1
 10
1299.2278
 20
147.0559
  0
SEQEND
  8
1
  0
POLYLINE
  8
1
 66
1
 70
0
  0
VERTEX
  8
1
 10
1299.2278
 20
147.0559
  0
VERTEX
  8
1
 10
1215.3342
 20
128.2294
  0
VERTEX
  8
1
 10
1203.6400
 20
125.6056
  0
VERTEX
  8
1
 10
1193.4648
 20
122.9589
  0
VERTEX
  8
1
 10
1170.4676
 20
115.8317
  0
VERTEX
  8
1
 10
1154.7222
 20
105.8469
  0
VERTEX
  8
1
 10
1148.2045
 20
96.8401
  0
VERTEX
  8
1
 10
1134.6358
 20
71.8059
  0
SEQEND
  8
1
  0
POLYLINE
  8
1
 66
1
 70
0
  0
VERTEX
  8
1
 10
1134.6358
 20
71.8059
  0
VERTEX
  8
1
 10
1105.8551
 20
79.6976
  0
VERTEX
  8
1
 10
1078.0294
 20
87.3049
  0
VERTEX
  8
1
 10
1006.6833
 20
106.9086
  0
VERTEX
  8
1
 10
894.3645
 20
135.0899
  0
VERTEX
  8
1
 10
818.6395
 20
151.8082
  0
VERTEX
  8
1
 10
737.5932
 20
160.7694
  0
VERTEX
  8
1
 10
727.9514
 20
161.6152
  0
VERTEX
  8
1
 10
648.7668
 20
168.2725
  0
VERTEX
  8
1
 10
639.5949
 20
169.0421
  0
VERTEX
  8
1
 10
639.5949
 20
169.0421
  0
VERTEX
  8
1
 10
500.0397
 20
179.8244
  0
VERTEX
  8
1
 10
440.6342
 20
182.0444
  0
SEQEND
  8
1
  0
POLYLINE
  8
1
 66
1
 70
0
  0
VERTEX
  8
1
 10
440.6342
 20
182.0444
  0
VERTEX
  8
1
 10
440.6342
 20
382.1659
  0
SEQEND
  8
1
  0
POLYLINE
  8
1
 66
1
 70
0
  0
VERTEX
  8
1
 10
440.6342
 20
382.1659
  0
VERTEX
  8
1
 10
500.0397
 20
384.3808
  0
VERTEX
  8
1
 10
639.5949
 20
395.1606
  0
VERTEX
  8
1
 10
639.5949
 20
395.1606
  0
VERTEX
  8
1
 10
648.7668
 20
395.8540
  0
VERTEX
  8
1
 10
727.9514
 20
401.8890
  0
VERTEX
  8
1
 10
737.5856
 20
402.6789
  0
VERTEX
  8
1
 10
818.6395
 20
412.3995
  0
VERTEX
  8
1
 10
894.3645
 20
433.3698
  0
VERTEX
  8
1
 10
1002.9038
 20
468.9704
  0
VERTEX
  8
1
 10
1072.7335
 20
493.7227
  0
VERTEX
  8
1
 10
1099.8328
 20
503.4662
  0
VERTEX
  8
1
 10
1127.8693
 20
513.6185
  0
SEQEND
  8
1
  0
LINE
  8
7
 10
712.3735
 20
292.7147
 11
1167.8412
 21
292.7147
  0
LINE
  8
5
 10
712.3735
 20
292.7147
 11
1167.8412
 21
292.7147
  0
POLYLINE
  8
8
 66
1
 70
0
  0
VERTEX
  8
8
 10
1311.7551
 20
282.1051
  0
VERTEX
  8
8
 10
1203.6400
 20
282.1051
  0
VERTEX
  8
8
 10
1134.6358
 20
282.1051
  0
VERTEX
  8
8
 10
818.6395
 20
282.1051
  0
VERTEX
  8
8
 10
648.7668
 20
282.1051
  0
VERTEX
  8
8
 10
639.6355
 20
282.1051
  0
VERTEX
  8
8
 10
500.0397
 20
282.1051
  0
VERTEX
  8
8
 10
440.6342
 20
282.1051
  0
SEQEND
  8
8
  0
LINE
  8
8
 10
818.6395
 20
412.3995
 11
818.6395
 21
151.8082
  0
POLYLINE
  8
8
 66
1
 70
0
  0
VERTEX
  8
8
 10
1134.6358
 20
516.1992
  0
VERTEX
  8
8
 10
1134.6358
 20
283.8222
  0
VERTEX
  8
8
 10
1134.6358
 20
71.8059
  0
SEQEND
  8
8
  0
LINE
  8
8
 10
1203.6400
 20
438.6022
 11
1203.6400
 21
125.6056
  0
POLYLINE
  8
8
 66
1
 70
0
  0
VERTEX
  8
8
 10
1091.8826
 20
188.7398
  0
VERTEX
  8
8
 10
898.7867
 20
188.7398
  0
VERTEX
  8
8
 10
898.7867
 20
260.5710
  0
SEQEND
  8
8
  0
LINE
  8
8
 10
1203.6400
 20
476.1053
 11
1203.6400
 21
88.1025
  0
LINE
  8
8
 10
1154.6510
 20
219.9056
 11
1131.6488
 21
219.8878
  0
LINE
  8
8
 10
1154.6815
 20
184.8994
 11
1154.6510
 21
219.9006
  0
LINE
  8
8
 10
1131.6844
 20
184.8867
 11
1154.6841
 21
184.9044
  0
LINE
  8
8
 10
1131.6488
 20
219.8828
 11
1131.6793
 21
184.8816
  0
POLYLINE
  8
8
 66
1
 70
0
  0
VERTEX
  8
8
 10
1006.6859
 20
106.9391
  0
VERTEX
  8
8
 10
1013.9274
 20
196.9339
  0
VERTEX
  8
8
 10
1008.7636
 20
288.0792
  0
VERTEX
  8
8
 10
1003.5998
 20
379.2373
  0
VERTEX
  8
8
 10
1002.9038
 20
468.9044
  0
SEQEND
  8
8
  0
POLYLINE
  8
8
 66
1
 70
0
  0
VERTEX
  8
8
 10
717.9514
 20
162.4585
  0
VERTEX
  8
8
 10
717.9514
 20
282.0544
  0
VERTEX
  8
8
 10
717.9514
 20
401.1245
  0
SEQEND
  8
8
  0
LINE
  8
8
 10
648.7668
 20
168.2725
 11
648.7668
 21
395.8540
  0
LINE
  8
8
 10
500.0397
 20
179.8244
 11
500.0397
 21
384.3808
  0
LINE
  8
8
 10
894.3645
 20
135.0899
 11
894.3645
 21
433.3698
  0
ENDBLK
  0
BLOCK
  8
0
  2
GLX4802S19SLO_28
 70
64
 10
0.0000
 20
0.0000
  0
TEXT
  8
1
 10
898.6394
 20
292.7122
 40
0.250
 50
0.0000
  1
Piece Name: GLX4802S19SLO
  7
STANDARD
  0
TEXT
  8
1
 10
898.6394
 20
296.2682
 40
0.250
 50
0.0000
  1
SIZE: 28
  7
STANDARD
  0
POLYLINE
  8
1
 66
1
 70
0
  0
VERTEX
  8
1
 10
1125.9211
 20
521.1191
  0
VERTEX
  8
1
 10
1132.6877
 20
488.2744
  0
VERTEX
  8
1
 10
1141.5675
 20
473.9666
  0
VERTEX
  8
1
 10
1153.3709
 20
461.9499
  0
VERTEX
  8
1
 10
1164.6332
 20
456.1155
  0
VERTEX
  8
1
 10
1201.6918
 20
446.1028
  0
VERTEX
  8
1
 10
1346.3626
 20
407.3018
  0
VERTEX
  8
1
 10
1358.5953
 20
404.0201
  0
SEQEND
  8
1
  0
POLYLINE
  8
1
 66
1
 70
0
  0
VERTEX
  8
1
 10
1358.5953
 20
404.0201
  0
VERTEX
  8
1
 10
1333.4162
 20
338.3001
  0
VERTEX
  8
1
 10
1313.7058
 20
282.1051
  0
VERTEX
  8
1
 10
1302.9972
 20
199.3215
  0
VERTEX
  8
1
 10
1300.8534
 20
146.9467
  0
VERTEX
  8
1
 10
1301.1786
 20
139.0549
  0
SEQEND
  8
1
  0
POLYLINE
  8
1
 66
1
 70
0
  0
VERTEX
  8
1
 10
1301.1786
 20
139.0549
  0
VERTEX
  8
1
 10
1213.8610
 20
120.6678
  0
VERTEX
  8
1
 10
1201.6918
 20
118.1050
  0
VERTEX
  8
1
 10
1191.4887
 20
115.4812
  0
VERTEX
  8
1
 10
1168.4305
 20
108.4073
  0
VERTEX
  8
1
 10
1152.6470
 20
98.4454
  0
VERTEX
  8
1
 10
1146.1624
 20
89.4081
  0
VERTEX
  8
1
 10
1132.6877
 20
64.3052
  0
SEQEND
  8
1
  0
POLYLINE
  8
1
 66
1
 70
0
  0
VERTEX
  8
1
 10
1132.6877
 20
64.3052
  0
VERTEX
  8
1
 10
1103.9069
 20
72.3088
  0
VERTEX
  8
1
 10
1076.0812
 20
80.0304
  0
VERTEX
  8
1
 10
1004.7352
 20
99.9287
  0
VERTEX
  8
1
 10
892.4163
 20
128.7349
  0
VERTEX
  8
1
 10
816.6888
 20
145.8672
  0
VERTEX
  8
1
 10
735.6450
 20
155.8037
  0
VERTEX
  8
1
 10
726.0032
 20
156.7663
  0
VERTEX
  8
1
 10
646.8161
 20
164.3762
  0
VERTEX
  8
1
 10
637.6544
 20
165.2550
  0
VERTEX
  8
1
 10
637.6544
 20
165.2550
  0
VERTEX
  8
1
 10
498.0890
 20
177.5156
  0
VERTEX
  8
1
 10
438.6860
 20
180.0454
  0
SEQEND
  8
1
  0
POLYLINE
  8
1
 66
1
 70
0
  0
VERTEX
  8
1
 10
438.6860
 20
180.0454
  0
VERTEX
  8
1
 10
438.6860
 20
384.1649
  0
SEQEND
  8
1
  0
POLYLINE
  8
1
 66
1
 70
0
  0
VERTEX
  8
1
 10
438.6860
 20
384.1649
  0
VERTEX
  8
1
 10
498.0890
 20
386.6896
  0
VERTEX
  8
1
 10
637.6544
 20
398.9477
  0
VERTEX
  8
1
 10
637.6544
 20
398.9477
  0
VERTEX
  8
1
 10
646.8161
 20
399.7503
  0
VERTEX
  8
1
 10
726.0032
 20
406.7353
  0
VERTEX
  8
1
 10
735.6399
 20
407.6421
  0
VERTEX
  8
1
 10
816.6888
 20
418.3406
  0
VERTEX
  8
1
 10
892.4163
 20
439.7299
  0
VERTEX
  8
1
 10
1000.9531
 20
475.9503
  0
VERTEX
  8
1
 10
1070.7853
 20
500.9973
  0
VERTEX
  8
1
 10
1097.8846
 20
510.8550
  0
VERTEX
  8
1
 10
1125.9211
 20
521.1191
  0
SEQEND
  8
1
  0
LINE
  8
7
 10
710.4253
 20
292.7147
 11
1165.8931
 21
292.7147
  0
LINE
  8
5
 10
710.4253
 20
292.7147
 11
1165.8931
 21
292.7147
  0
POLYLINE
  8
8
 66
1
 70
0
  0
VERTEX
  8
8
 10
1313.7058
 20
282.1051
  0
VERTEX
  8
8
 10
1201.6918
 20
282.1051
  0
VERTEX
  8
8
 10
1132.6877
 20
282.1051
  0
VERTEX
  8
8
 10
816.6888
 20
282.1051
  0
VERTEX
  8
8
 10
646.8161
 20
282.1051
  0
VERTEX
  8
8
 10
637.6874
 20
282.1051
  0
VERTEX
  8
8
 10
498.0890
 20
282.1051
  0
VERTEX
  8
8
 10
438.6860
 20
282.1051
  0
SEQEND
  8
8
  0
LINE
  8
8
 10
816.6888
 20
418.3406
 11
816.6888
 21
145.8672
  0
POLYLINE
  8
8
 66
1
 70
0
  0
VERTEX
  8
8
 10
1132.6877
 20
523.6998
  0
VERTEX
  8
8
 10
1132.6877
 20
283.4793
  0
VERTEX
  8
8
 10
1132.6877
 20
64.3052
  0
SEQEND
  8
8
  0
LINE
  8
8
 10
1201.6918
 20
446.1028
 11
1201.6918
 21
118.1050
  0
POLYLINE
  8
8
 66
1
 70
0
  0
VERTEX
  8
8
 10
1089.9344
 20
188.7398
  0
VERTEX
  8
8
 10
896.8360
 20
188.7398
  0
VERTEX
  8
8
 10
896.8360
 20
260.5710
  0
SEQEND
  8
8
  0
LINE
  8
8
 10
1201.6918
 20
476.1053
 11
1201.6918
 21
88.1025
  0
LINE
  8
8
 10
1152.7028
 20
219.9056
 11
1129.6981
 21
219.8878
  0
LINE
  8
8
 10
1152.7333
 20
184.8994
 11
1152.7028
 21
219.9006
  0
LINE
  8
8
 10
1129.7362
 20
184.8867
 11
1152.7333
 21
184.9044
  0
LINE
  8
8
 10
1129.6981
 20
219.8828
 11
1129.7311
 21
184.8816
  0
POLYLINE
  8
8
 66
1
 70
0
  0
VERTEX
  8
8
 10
1004.7377
 20
99.9592
  0
VERTEX
  8
8
 10
1012.2942
 20
193.4211
  0
VERTEX
  8
8
 10
1006.9653
 20
288.0818
  0
VERTEX
  8
8
 10
1001.6414
 20
382.7577
  0
VERTEX
  8
8
 10
1000.9531
 20
475.8843
  0
SEQEND
  8
8
  0
POLYLINE
  8
8
 66
1
 70
0
  0
VERTEX
  8
8
 10
716.0032
 20
157.7290
  0
VERTEX
  8
8
 10
716.0032
 20
282.0645
  0
VERTEX
  8
8
 10
716.0032
 20
405.8514
  0
SEQEND
  8
8
  0
LINE
  8
8
 10
646.8161
 20
164.3762
 11
646.8161
 21
399.7503
  0
LINE
  8
8
 10
498.0890
 20
177.5156
 11
498.0890
 21
386.6896
  0
LINE
  8
8
 10
892.4163
 20
128.7349
 11
892.4163
 21
439.7299
  0
ENDBLK
  0
BLOCK
  8
0
  2
GLX4802S19SLO_30
 70
64
 10
0.0000
 20
0.0000
  0
TEXT
  8
1
 10
898.6394
 20
292.7122
 40
0.250
 50
0.0000
  1
Piece Name: GLX4802S19SLO
  7
STANDARD
  0
TEXT
  8
1
 10
898.6394
 20
296.2682
 40
0.250
 50
0.0000
  1
SIZE: 30
  7
STANDARD
  0
POLYLINE
  8
1
 66
1
 70
0
  0
VERTEX
  8
1
 10
1123.9704
 20
528.6198
  0
VERTEX
  8
1
 10
1130.7369
 20
495.7750
  0
VERTEX
  8
1
 10
1139.6168
 20
481.4672
  0
VERTEX
  8
1
 10
1151.4201
 20
469.4505
  0
VERTEX
  8
1
 10
1162.6978
 20
463.6948
  0
VERTEX
  8
1
 10
1199.7411
 20
453.6034
  0
VERTEX
  8
1
 10
1348.0060
 20
415.2647
  0
VERTEX
  8
1
 10
1360.5434
 20
412.0211
  0
SEQEND
  8
1
  0
POLYLINE
  8
1
 66
1
 70
0
  0
VERTEX
  8
1
 10
1360.5434
 20
412.0211
  0
VERTEX
  8
1
 10
1335.3085
 20
341.9679
  0
VERTEX
  8
1
 10
1315.6540
 20
282.1051
  0
VERTEX
  8
1
 10
1304.7523
 20
194.6758
  0
VERTEX
  8
1
 10
1302.7457
 20
139.3826
  0
VERTEX
  8
1
 10
1303.1267
 20
131.0539
  0
SEQEND
  8
1
  0
POLYLINE
  8
1
 66
1
 70
0
  0
VERTEX
  8
1
 10
1303.1267
 20
131.0539
  0
VERTEX
  8
1
 10
1212.3878
 20
113.1063
  0
VERTEX
  8
1
 10
1199.7411
 20
110.6044
  0
VERTEX
  8
1
 10
1189.5151
 20
107.9882
  0
VERTEX
  8
1
 10
1166.4011
 20
100.9244
  0
VERTEX
  8
1
 10
1150.5693
 20
91.0438
  0
VERTEX
  8
1
 10
1144.1151
 20
81.9735
  0
VERTEX
  8
1
 10
1130.7369
 20
56.8046
  0
SEQEND
  8
1
  0
POLYLINE
  8
1
 66
1
 70
0
  0
VERTEX
  8
1
 10
1130.7369
 20
56.8046
  0
VERTEX
  8
1
 10
1101.9562
 20
64.8996
  0
VERTEX
  8
1
 10
1074.1305
 20
72.7431
  0
VERTEX
  8
1
 10
1002.7844
 20
92.9488
  0
VERTEX
  8
1
 10
890.4656
 20
122.3798
  0
VERTEX
  8
1
 10
814.7406
 20
139.9261
  0
VERTEX
  8
1
 10
733.6994
 20
150.8405
  0
VERTEX
  8
1
 10
724.0525
 20
151.9175
  0
VERTEX
  8
1
 10
644.8679
 20
160.4773
  0
VERTEX
  8
1
 10
635.7138
 20
161.4653
  0
VERTEX
  8
1
 10
635.7138
 20
161.4653
  0
VERTEX
  8
1
 10
496.1408
 20
175.2042
  0
VERTEX
  8
1
 10
436.7353
 20
178.0464
  0
SEQEND
  8
1
  0
POLYLINE
  8
1
 66
1
 70
0
  0
VERTEX
  8
1
 10
436.7353
 20
178.0464
  0
VERTEX
  8
1
 10
436.7353
 20
386.1639
  0
SEQEND
  8
1
  0
POLYLINE
  8
1
 66
1
 70
0
  0
VERTEX
  8
1
 10
436.7353
 20
386.1639
  0
VERTEX
  8
1
 10
496.1408
 20
389.0011
  0
VERTEX
  8
1
 10
635.7138
 20
402.7374
  0
VERTEX
  8
1
 10
635.7138
 20
402.7374
  0
VERTEX
  8
1
 10
644.8679
 20
403.6492
  0
VERTEX
  8
1
 10
724.0525
 20
411.5817
  0
VERTEX
  8
1
 10
733.6943
 20
412.6053
  0
VERTEX
  8
1
 10
814.7406
 20
424.2817
  0
VERTEX
  8
1
 10
890.4656
 20
446.0901
  0
VERTEX
  8
1
 10
999.0049
 20
482.9303
  0
VERTEX
  8
1
 10
1068.8346
 20
508.3074
  0
VERTEX
  8
1
 10
1095.9338
 20
518.2947
  0
VERTEX
  8
1
 10
1123.9704
 20
528.6198
  0
SEQEND
  8
1
  0
LINE
  8
7
 10
708.4746
 20
292.7147
 11
1163.9424
 21
292.7147
  0
LINE
  8
5
 10
708.4746
 20
292.7147
 11
1163.9424
 21
292.7147
  0
POLYLINE
  8
8
 66
1
 70
0
  0
VERTEX
  8
8
 10
1315.6540
 20
282.1051
  0
VERTEX
  8
8
 10
1199.7411
 20
282.1051
  0
VERTEX
  8
8
 10
1130.7369
 20
282.1051
  0
VERTEX
  8
8
 10
814.7406
 20
282.1051
  0
VERTEX
  8
8
 10
644.8679
 20
282.1051
  0
VERTEX
  8
8
 10
635.7367
 20
282.1051
  0
VERTEX
  8
8
 10
496.1408
 20
282.1051
  0
VERTEX
  8
8
 10
436.7353
 20
282.1051
  0
SEQEND
  8
8
  0
LINE
  8
8
 10
814.7406
 20
424.2817
 11
814.7406
 21
139.9261
  0
POLYLINE
  8
8
 66
1
 70
0
  0
VERTEX
  8
8
 10
1130.7369
 20
531.2004
  0
VERTEX
  8
8
 10
1130.7369
 20
283.1339
  0
VERTEX
  8
8
 10
1130.7369
 20
56.8046
  0
SEQEND
  8
8
  0
LINE
  8
8
 10
1199.7411
 20
453.6034
 11
1199.7411
 21
110.6044
  0
POLYLINE
  8
8
 66
1
 70
0
  0
VERTEX
  8
8
 10
1087.9836
 20
188.7398
  0
VERTEX
  8
8
 10
894.8878
 20
188.7398
  0
VERTEX
  8
8
 10
894.8878
 20
260.5710
  0
SEQEND
  8
8
  0
LINE
  8
8
 10
1199.7411
 20
476.1053
 11
1199.7411
 21
88.1025
  0
LINE
  8
8
 10
1150.7521
 20
219.9056
 11
1127.7499
 21
219.8878
  0
LINE
  8
8
 10
1150.7826
 20
184.8994
 11
1150.7521
 21
219.9006
  0
LINE
  8
8
 10
1127.7855
 20
184.8867
 11
1150.7851
 21
184.9044
  0
LINE
  8
8
 10
1127.7499
 20
219.8828
 11
1127.7804
 21
184.8816
  0
POLYLINE
  8
8
 66
1
 70
0
  0
VERTEX
  8
8
 10
1002.7870
 20
92.9793
  0
VERTEX
  8
8
 10
1010.6610
 20
189.9082
  0
VERTEX
  8
8
 10
1005.1720
 20
288.0869
  0
VERTEX
  8
8
 10
999.6806
 20
386.2807
  0
VERTEX
  8
8
 10
999.0049
 20
482.8642
  0
SEQEND
  8
8
  0
POLYLINE
  8
8
 66
1
 70
0
  0
VERTEX
  8
8
 10
714.0525
 20
152.9995
  0
VERTEX
  8
8
 10
714.0525
 20
282.0721
  0
VERTEX
  8
8
 10
714.0525
 20
410.5784
  0
SEQEND
  8
8
  0
LINE
  8
8
 10
644.8679
 20
160.4773
 11
644.8679
 21
403.6492
  0
LINE
  8
8
 10
496.1408
 20
175.2042
 11
496.1408
 21
389.0011
  0
LINE
  8
8
 10
890.4656
 20
122.3798
 11
890.4656
 21
446.0901
  0
ENDBLK
  0
BLOCK
  8
0
  2
GLX4802S19SLO_32
 70
64
 10
0.0000
 20
0.0000
  0
TEXT
  8
1
 10
898.6394
 20
292.7122
 40
0.250
 50
0.0000
  1
Piece Name: GLX4802S19SLO
  7
STANDARD
  0
TEXT
  8
1
 10
898.6394
 20
296.2682
 40
0.250
 50
0.0000
  1
SIZE: 32
  7
STANDARD
  0
POLYLINE
  8
1
 66
1
 70
0
  0
VERTEX
  8
1
 10
1122.0222
 20
536.1204
  0
VERTEX
  8
1
 10
1128.7887
 20
503.2756
  0
VERTEX
  8
1
 10
1137.6686
 20
488.9678
  0
VERTEX
  8
1
 10
1149.4720
 20
476.9511
  0
VERTEX
  8
1
 10
1160.7623
 20
471.2767
  0
VERTEX
  8
1
 10
1197.7929
 20
461.1040
  0
VERTEX
  8
1
 10
1349.6519
 20
423.2276
  0
VERTEX
  8
1
 10
1362.4942
 20
420.0221
  0
SEQEND
  8
1
  0
POLYLINE
  8
1
 66
1
 70
0
  0
VERTEX
  8
1
 10
1362.4942
 20
420.0221
  0
VERTEX
  8
1
 10
1337.2008
 20
345.6356
  0
VERTEX
  8
1
 10
1317.6047
 20
282.1051
  0
VERTEX
  8
1
 10
1306.5125
 20
190.0276
  0
VERTEX
  8
1
 10
1304.6380
 20
131.8184
  0
VERTEX
  8
1
 10
1305.0775
 20
123.0529
  0
SEQEND
  8
1
  0
POLYLINE
  8
1
 66
1
 70
0
  0
VERTEX
  8
1
 10
1305.0775
 20
123.0529
  0
VERTEX
  8
1
 10
1210.9146
 20
105.5447
  0
VERTEX
  8
1
 10
1197.7929
 20
103.1037
  0
VERTEX
  8
1
 10
1187.5440
 20
100.4926
  0
VERTEX
  8
1
 10
1164.3742
 20
93.4390
  0
VERTEX
  8
1
 10
1148.4915
 20
83.6397
  0
VERTEX
  8
1
 10
1142.0730
 20
74.5389
  0
VERTEX
  8
1
 10
1128.7887
 20
49.3040
  0
SEQEND
  8
1
  0
POLYLINE
  8
1
 66
1
 70
0
  0
VERTEX
  8
1
 10
1128.7887
 20
49.3040
  0
VERTEX
  8
1
 10
1100.0080
 20
57.5183
  0
VERTEX
  8
1
 10
1072.1823
 20
65.4736
  0
VERTEX
  8
1
 10
1000.8337
 20
85.9689
  0
VERTEX
  8
1
 10
888.5175
 20
116.0247
  0
VERTEX
  8
1
 10
812.7924
 20
133.9851
  0
VERTEX
  8
1
 10
731.7512
 20
145.8773
  0
VERTEX
  8
1
 10
722.1043
 20
147.0711
  0
VERTEX
  8
1
 10
642.9172
 20
156.5809
  0
VERTEX
  8
1
 10
633.7732
 20
157.6782
  0
VERTEX
  8
1
 10
633.7732
 20
157.6782
  0
VERTEX
  8
1
 10
494.1901
 20
172.8953
  0
VERTEX
  8
1
 10
434.7846
 20
176.0475
  0
SEQEND
  8
1
  0
POLYLINE
  8
1
 66
1
 70
0
  0
VERTEX
  8
1
 10
434.7846
 20
176.0475
  0
VERTEX
  8
1
 10
434.7846
 20
388.1628
  0
SEQEND
  8
1
  0
POLYLINE
  8
1
 66
1
 70
0
  0
VERTEX
  8
1
 10
434.7846
 20
388.1628
  0
VERTEX
  8
1
 10
494.1901
 20
391.3099
  0
VERTEX
  8
1
 10
633.7732
 20
406.5245
  0
VERTEX
  8
1
 10
633.7732
 20
406.5245
  0
VERTEX
  8
1
 10
642.9172
 20
407.5481
  0
VERTEX
  8
1
 10
722.1043
 20
416.4280
  0
VERTEX
  8
1
 10
731.7461
 20
417.5659
  0
VERTEX
  8
1
 10
812.7924
 20
430.2227
  0
VERTEX
  8
1
 10
888.5175
 20
452.4502
  0
VERTEX
  8
1
 10
997.0542
 20
489.9102
  0
VERTEX
  8
1
 10
1066.8864
 20
515.5769
  0
VERTEX
  8
1
 10
1093.9857
 20
525.6759
  0
VERTEX
  8
1
 10
1122.0222
 20
536.1204
  0
SEQEND
  8
1
  0
LINE
  8
7
 10
706.5264
 20
292.7147
 11
1161.9916
 21
292.7147
  0
LINE
  8
5
 10
706.5264
 20
292.7147
 11
1161.9916
 21
292.7147
  0
POLYLINE
  8
8
 66
1
 70
0
  0
VERTEX
  8
8
 10
1317.6047
 20
282.1051
  0
VERTEX
  8
8
 10
1197.7929
 20
282.1051
  0
VERTEX
  8
8
 10
1128.7887
 20
282.1051
  0
VERTEX
  8
8
 10
812.7924
 20
282.1051
  0
VERTEX
  8
8
 10
642.9172
 20
282.1051
  0
VERTEX
  8
8
 10
633.7885
 20
282.1051
  0
VERTEX
  8
8
 10
494.1901
 20
282.1051
  0
VERTEX
  8
8
 10
434.7846
 20
282.1051
  0
SEQEND
  8
8
  0
LINE
  8
8
 10
812.7924
 20
430.2227
 11
812.7924
 21
133.9851
  0
POLYLINE
  8
8
 66
1
 70
0
  0
VERTEX
  8
8
 10
1128.7887
 20
538.7010
  0
VERTEX
  8
8
 10
1128.7887
 20
282.7910
  0
VERTEX
  8
8
 10
1128.7887
 20
49.3040
  0
SEQEND
  8
8
  0
LINE
  8
8
 10
1197.7929
 20
461.1040
 11
1197.7929
 21
103.1037
  0
POLYLINE
  8
8
 66
1
 70
0
  0
VERTEX
  8
8
 10
1086.0355
 20
188.7398
  0
VERTEX
  8
8
 10
892.9371
 20
188.7398
  0
VERTEX
  8
8
 10
892.9371
 20
260.5710
  0
SEQEND
  8
8
  0
LINE
  8
8
 10
1197.7929
 20
476.1053
 11
1197.7929
 21
88.1025
  0
LINE
  8
8
 10
1148.8040
 20
219.9056
 11
1125.7992
 21
219.8878
  0
LINE
  8
8
 10
1148.8344
 20
184.8994
 11
1148.8040
 21
219.9006
  0
LINE
  8
8
 10
1125.8373
 20
184.8867
 11
1148.8344
 21
184.9044
  0
LINE
  8
8
 10
1125.7992
 20
219.8828
 11
1125.8322
 21
184.8816
  0
POLYLINE
  8
8
 66
1
 70
0
  0
VERTEX
  8
8
 10
1000.8388
 20
85.9994
  0
VERTEX
  8
8
 10
1009.0252
 20
186.3954
  0
VERTEX
  8
8
 10
1003.3763
 20
288.0919
  0
VERTEX
  8
8
 10
997.7222
 20
389.8012
  0
VERTEX
  8
8
 10
997.0542
 20
489.8441
  0
SEQEND
  8
8
  0
POLYLINE
  8
8
 66
1
 70
0
  0
VERTEX
  8
8
 10
712.1018
 20
148.2726
  0
VERTEX
  8
8
 10
712.1018
 20
282.0823
  0
VERTEX
  8
8
 10
712.1018
 20
415.3053
  0
SEQEND
  8
8
  0
LINE
  8
8
 10
642.9172
 20
156.5809
 11
642.9172
 21
407.5481
  0
LINE
  8
8
 10
494.1901
 20
172.8953
 11
494.1901
 21
391.3099
  0
LINE
  8
8
 10
888.5175
 20
116.0247
 11
888.5175
 21
452.4502
  0
ENDBLK
  0
BLOCK
  8
0
  2
GLX4802S19SLO_34
 70
64
 10
0.0000
 20
0.0000
  0
TEXT
  8
1
 10
898.6394
 20
292.7122
 40
0.250
 50
0.0000
  1
Piece Name: GLX4802S19SLO
  7
STANDARD
  0
TEXT
  8
1
 10
898.6394
 20
296.2682
 40
0.250
 50
0.0000
  1
SIZE: 34
  7
STANDARD
  0
POLYLINE
  8
1
 66
1
 70
0
  0
VERTEX
  8
1
 10
1120.0715
 20
543.6210
  0
VERTEX
  8
1
 10
1126.8380
 20
510.7763
  0
VERTEX
  8
1
 10
1135.7179
 20
496.4685
  0
VERTEX
  8
1
 10
1147.5213
 20
484.4517
  0
VERTEX
  8
1
 10
1158.8242
 20
478.8561
  0
VERTEX
  8
1
 10
1195.8422
 20
468.6046
  0
VERTEX
  8
1
 10
1351.2978
 20
430.9110
  0
VERTEX
  8
1
 10
1364.4423
 20
427.7208
  0
SEQEND
  8
1
  0
POLYLINE
  8
1
 66
1
 70
0
  0
VERTEX
  8
1
 10
1364.4423
 20
427.7208
  0
VERTEX
  8
1
 10
1339.0957
 20
349.1637
  0
VERTEX
  8
1
 10
1319.5529
 20
282.1051
  0
VERTEX
  8
1
 10
1308.2753
 20
185.5572
  0
VERTEX
  8
1
 10
1306.5354
 20
124.5388
  0
VERTEX
  8
1
 10
1307.0256
 20
115.3542
  0
SEQEND
  8
1
  0
POLYLINE
  8
1
 66
1
 70
0
  0
VERTEX
  8
1
 10
1307.0256
 20
115.3542
  0
VERTEX
  8
1
 10
1209.4439
 20
98.0186
  0
VERTEX
  8
1
 10
1195.8422
 20
95.6031
  0
VERTEX
  8
1
 10
1185.5450
 20
92.9869
  0
VERTEX
  8
1
 10
1162.2660
 20
85.9181
  0
VERTEX
  8
1
 10
1146.3097
 20
76.1772
  0
VERTEX
  8
1
 10
1139.9546
 20
67.0611
  0
VERTEX
  8
1
 10
1126.8380
 20
41.8034
  0
SEQEND
  8
1
  0
POLYLINE
  8
1
 66
1
 70
0
  0
VERTEX
  8
1
 10
1126.8380
 20
41.8034
  0
VERTEX
  8
1
 10
1098.0573
 20
50.1371
  0
VERTEX
  8
1
 10
1070.2316
 20
58.2041
  0
VERTEX
  8
1
 10
998.8855
 20
78.9890
  0
VERTEX
  8
1
 10
886.5667
 20
109.6696
  0
VERTEX
  8
1
 10
810.8417
 20
128.0440
  0
VERTEX
  8
1
 10
729.8056
 20
140.9142
  0
VERTEX
  8
1
 10
720.1536
 20
142.2248
  0
VERTEX
  8
1
 10
640.9691
 20
152.6820
  0
VERTEX
  8
1
 10
631.8301
 20
153.8885
  0
VERTEX
  8
1
 10
631.8301
 20
153.8885
  0
VERTEX
  8
1
 10
492.2419
 20
170.5839
  0
VERTEX
  8
1
 10
432.8364
 20
174.0485
  0
SEQEND
  8
1
  0
POLYLINE
  8
1
 66
1
 70
0
  0
VERTEX
  8
1
 10
432.8364
 20
174.0485
  0
VERTEX
  8
1
 10
432.8364
 20
390.1618
  0
SEQEND
  8
1
  0
POLYLINE
  8
1
 66
1
 70
0
  0
VERTEX
  8
1
 10
432.8364
 20
390.1618
  0
VERTEX
  8
1
 10
492.2419
 20
393.6213
  0
VERTEX
  8
1
 10
631.8301
 20
410.3142
  0
VERTEX
  8
1
 10
631.8301
 20
410.3142
  0
VERTEX
  8
1
 10
640.9691
 20
411.4445
  0
VERTEX
  8
1
 10
720.1536
 20
421.2718
  0
VERTEX
  8
1
 10
729.8030
 20
422.5265
  0
VERTEX
  8
1
 10
810.8417
 20
436.1638
  0
VERTEX
  8
1
 10
886.5667
 20
458.8104
  0
VERTEX
  8
1
 10
995.1060
 20
496.8901
  0
VERTEX
  8
1
 10
1064.9357
 20
522.8464
  0
VERTEX
  8
1
 10
1092.0350
 20
533.0571
  0
VERTEX
  8
1
 10
1120.0715
 20
543.6210
  0
SEQEND
  8
1
  0
LINE
  8
7
 10
704.5757
 20
292.7147
 11
1160.0434
 21
292.7147
  0
LINE
  8
5
 10
704.5757
 20
292.7147
 11
1160.0434
 21
292.7147
  0
POLYLINE
  8
8
 66
1
 70
0
  0
VERTEX
  8
8
 10
1319.5529
 20
282.1051
  0
VERTEX
  8
8
 10
1195.8422
 20
282.1051
  0
VERTEX
  8
8
 10
1126.8380
 20
282.1051
  0
VERTEX
  8
8
 10
810.8417
 20
282.1051
  0
VERTEX
  8
8
 10
640.9691
 20
282.1051
  0
VERTEX
  8
8
 10
631.8378
 20
282.1051
  0
VERTEX
  8
8
 10
492.2419
 20
282.1051
  0
VERTEX
  8
8
 10
432.8364
 20
282.1051
  0
SEQEND
  8
8
  0
LINE
  8
8
 10
810.8417
 20
436.1638
 11
810.8417
 21
128.0440
  0
POLYLINE
  8
8
 66
1
 70
0
  0
VERTEX
  8
8
 10
1126.8380
 20
546.2016
  0
VERTEX
  8
8
 10
1126.8380
 20
282.4481
  0
VERTEX
  8
8
 10
1126.8380
 20
41.8034
  0
SEQEND
  8
8
  0
LINE
  8
8
 10
1195.8422
 20
468.6046
 11
1195.8422
 21
95.6031
  0
POLYLINE
  8
8
 66
1
 70
0
  0
VERTEX
  8
8
 10
1084.0848
 20
188.7398
  0
VERTEX
  8
8
 10
890.9889
 20
188.7398
  0
VERTEX
  8
8
 10
890.9889
 20
260.5710
  0
SEQEND
  8
8
  0
LINE
  8
8
 10
1195.8422
 20
476.1053
 11
1195.8422
 21
88.1025
  0
LINE
  8
8
 10
1146.8532
 20
219.9056
 11
1123.8510
 21
219.8878
  0
LINE
  8
8
 10
1146.8837
 20
184.8994
 11
1146.8532
 21
219.9006
  0
LINE
  8
8
 10
1123.8865
 20
184.8867
 11
1146.8863
 21
184.9044
  0
LINE
  8
8
 10
1123.8510
 20
219.8828
 11
1123.8815
 21
184.8816
  0
POLYLINE
  8
8
 66
1
 70
0
  0
VERTEX
  8
8
 10
998.8881
 20
79.0195
  0
VERTEX
  8
8
 10
1007.3920
 20
182.8826
  0
VERTEX
  8
8
 10
1001.5779
 20
288.0970
  0
VERTEX
  8
8
 10
995.7639
 20
393.3241
  0
VERTEX
  8
8
 10
995.1060
 20
496.8241
  0
SEQEND
  8
8
  0
POLYLINE
  8
8
 66
1
 70
0
  0
VERTEX
  8
8
 10
710.1536
 20
143.5456
  0
VERTEX
  8
8
 10
710.1536
 20
282.0924
  0
VERTEX
  8
8
 10
710.1536
 20
420.0297
  0
SEQEND
  8
8
  0
LINE
  8
8
 10
640.9691
 20
152.6820
 11
640.9691
 21
411.4445
  0
LINE
  8
8
 10
492.2419
 20
170.5839
 11
492.2419
 21
393.6213
  0
LINE
  8
8
 10
886.5667
 20
109.6696
 11
886.5667
 21
458.8104
  0
ENDBLK
  0
BLOCK
  8
0
  2
GLX4802S19SLO_36
 70
64
 10
0.0000
 20
0.0000
  0
TEXT
  8
1
 10
898.6394
 20
292.7122
 40
0.250
 50
0.0000
  1
Piece Name: GLX4802S19SLO
  7
STANDARD
  0
TEXT
  8
1
 10
898.6394
 20
296.2682
 40
0.250
 50
0.0000
  1
Quantity: 2
  7
STANDARD
  0
TEXT
  8
1
 10
898.6394
 20
299.8242
 40
0.250
 50
0.0000
  1
ANNOTATION: 2X FABRIC
  7
STANDARD
  0
TEXT
  8
1
 10
898.6394
 20
303.3802
 40
0.250
 50
0.0000
  1
CATEGORY: LENGTH OPTIONS
  7
STANDARD
  0
TEXT
  8
1
 10
898.6394
 20
306.9362
 40
0.250
 50
0.0000
  1
Fabric: 1
  7
STANDARD
  0
TEXT
  8
1
 10
898.6394
 20
310.4922
 40
0.250
 50
0.0000
  1
SIZE: 36
  7
STANDARD
  0
POLYLINE
  8
1
 66
1
 70
0
  0
VERTEX
  8
1
 10
1118.1233
 20
551.1216
  0
VERTEX
  8
1
 10
1124.8899
 20
518.2769
  0
VERTEX
  8
1
 10
1133.7697
 20
503.9691
  0
VERTEX
  8
1
 10
1145.5731
 20
491.9523
  0
VERTEX
  8
1
 10
1156.8862
 20
486.4380
  0
VERTEX
  8
1
 10
1193.8940
 20
476.1053
  0
VERTEX
  8
1
 10
1352.9463
 20
438.5946
  0
VERTEX
  8
1
 10
1366.3930
 20
435.4196
  0
SEQEND
  8
1
  0
POINT
  8
2
 10
1118.1233
 20
551.1216
  0
TEXT
  8
2
 10
1118.1233
 20
551.1216
 40
0.250
 50
0.0000
  1
# 509
  7
STANDARD
  0
POINT
  8
3
 10
1124.8899
 20
518.2769
  0
POINT
  8
3
 10
1133.7697
 20
503.9691
  0
TEXT
  8
3
 10
1133.7697
 20
503.9691
 40
0.250
 50
0.0000
  1
# 509
  7
STANDARD
  0
POINT
  8
3
 10
1145.5731
 20
491.9523
  0
TEXT
  8
3
 10
1145.5731
 20
491.9523
 40
0.250
 50
0.0000
  1
# 509
  7
STANDARD
  0
POINT
  8
3
 10
1156.8862
 20
486.4380
  0
TEXT
  8
3
 10
1156.8862
 20
486.4380
 40
0.250
 50
0.0000
  1
# 554
  7
STANDARD
  0
POINT
  8
2
 10
1193.8940
 20
476.1053
  0
TEXT
  8
2
 10
1193.8940
 20
476.1053
 40
0.250
 50
0.0000
  1
# 757
  7
STANDARD
  0
POINT
  8
3
 10
1352.9463
 20
438.5946
  0
POINT
  8
2
 10
1366.3930
 20
435.4196
  0
TEXT
  8
2
 10
1366.3930
 20
435.4196
 40
0.250
 50
0.0000
  1
# 537
  7
STANDARD
  0
POLYLINE
  8
1
 66
1
 70
0
  0
VERTEX
  8
1
 10
1366.3930
 20
435.4196
  0
VERTEX
  8
1
 10
1340.9931
 20
352.6943
  0
VERTEX
  8
1
 10
1321.5036
 20
282.1051
  0
VERTEX
  8
1
 10
1310.0432
 20
181.0868
  0
VERTEX
  8
1
 10
1308.4328
 20
117.2617
  0
VERTEX
  8
1
 10
1308.9763
 20
107.6554
  0
SEQEND
  8
1
  0
POINT
  8
2
 10
1366.3930
 20
435.4196
  0
TEXT
  8
2
 10
1366.3930
 20
435.4196
 40
0.250
 50
0.0000
  1
# 537
  7
STANDARD
  0
POINT
  8
3
 10
1340.9931
 20
352.6943
  0
POINT
  8
4
 10
1321.5036
 20
282.1051
 30
-3.9980
 39
2.9998
  0
POINT
  8
3
 10
1321.5036
 20
282.1051
  0
TEXT
  8
3
 10
1321.5036
 20
282.1051
 40
0.250
 50
0.0000
  1
# 538
  7
STANDARD
  0
POINT
  8
3
 10
1310.0432
 20
181.0868
  0
POINT
  8
2
 10
1308.4328
 20
117.2617
  0
POINT
  8
2
 10
1308.9763
 20
107.6554
  0
TEXT
  8
2
 10
1308.9763
 20
107.6554
 40
0.250
 50
0.0000
  1
# 539
  7
STANDARD
  0
POLYLINE
  8
1
 66
1
 70
0
  0
VERTEX
  8
1
 10
1308.9763
 20
107.6554
  0
VERTEX
  8
1
 10
1207.9733
 20
90.4952
  0
VERTEX
  8
1
 10
1193.8940
 20
88.1025
  0
VERTEX
  8
1
 10
1183.5969
 20
85.5041
  0
VERTEX
  8
1
 10
1160.3152
 20
78.4733
  0
VERTEX
  8
1
 10
1144.3386
 20
68.8315
  0
VERTEX
  8
1
 10
1137.9886
 20
59.6723
  0
VERTEX
  8
1
 10
1124.8899
 20
34.3028
  0
SEQEND
  8
1
  0
POINT
  8
2
 10
1308.9763
 20
107.6554
  0
TEXT
  8
2
 10
1308.9763
 20
107.6554
 40
0.250
 50
0.0000
  1
# 539
  7
STANDARD
  0
POINT
  8
3
 10
1207.9733
 20
90.4952
  0
POINT
  8
2
 10
1193.8940
 20
88.1025
  0
TEXT
  8
2
 10
1193.8940
 20
88.1025
 40
0.250
 50
0.0000
  1
# 758
  7
STANDARD
  0
POINT
  8
3
 10
1183.5969
 20
85.5041
  0
POINT
  8
3
 10
1160.3152
 20
78.4733
  0
TEXT
  8
3
 10
1160.3152
 20
78.4733
 40
0.250
 50
0.0000
  1
# 555
  7
STANDARD
  0
POINT
  8
3
 10
1144.3386
 20
68.8315
  0
TEXT
  8
3
 10
1144.3386
 20
68.8315
 40
0.250
 50
0.0000
  1
# 542
  7
STANDARD
  0
POINT
  8
3
 10
1137.9886
 20
59.6723
  0
TEXT
  8
3
 10
1137.9886
 20
59.6723
 40
0.250
 50
0.0000
  1
# 755
  7
STANDARD
  0
POINT
  8
2
 10
1124.8899
 20
34.3028
  0
TEXT
  8
2
 10
1124.8899
 20
34.3028
 40
0.250
 50
0.0000
  1
# 543
  7
STANDARD
  0
POLYLINE
  8
1
 66
1
 70
0
  0
VERTEX
  8
1
 10
1124.8899
 20
34.3028
  0
VERTEX
  8
1
 10
1096.1091
 20
42.7559
  0
VERTEX
  8
1
 10
1068.2834
 20
50.9372
  0
VERTEX
  8
1
 10
996.9348
 20
72.0091
  0
VERTEX
  8
1
 10
884.6186
 20
103.3171
  0
VERTEX
  8
1
 10
808.8935
 20
122.1029
  0
VERTEX
  8
1
 10
727.8599
 20
135.9561
  0
VERTEX
  8
1
 10
718.2054
 20
137.3810
  0
VERTEX
  8
1
 10
639.0183
 20
148.7882
  0
VERTEX
  8
1
 10
629.8870
 20
150.1014
  0
VERTEX
  8
1
 10
629.8870
 20
150.1014
  0
VERTEX
  8
1
 10
490.2912
 20
168.2750
  0
VERTEX
  8
1
 10
430.8857
 20
172.0495
  0
SEQEND
  8
1
  0
POINT
  8
2
 10
1124.8899
 20
34.3028
  0
TEXT
  8
2
 10
1124.8899
 20
34.3028
 40
0.250
 50
0.0000
  1
# 543
  7
STANDARD
  0
POINT
  8
3
 10
1096.1091
 20
42.7559
  0
TEXT
  8
3
 10
1096.1091
 20
42.7559
 40
0.250
 50
0.0000
  1
# 557
  7
STANDARD
  0
POINT
  8
3
 10
1068.2834
 20
50.9372
  0
POINT
  8
3
 10
996.9348
 20
72.0091
  0
TEXT
  8
3
 10
996.9348
 20
72.0091
 40
0.250
 50
0.0000
  1
# 544
  7
STANDARD
  0
POINT
  8
3
 10
884.6186
 20
103.3171
  0
TEXT
  8
3
 10
884.6186
 20
103.3171
 40
0.250
 50
0.0000
  1
# 1
  7
STANDARD
  0
POINT
  8
4
 10
808.8935
 20
122.1029
 30
-3.9980
 39
2.9998
  0
POINT
  8
3
 10
808.8935
 20
122.1029
  0
TEXT
  8
3
 10
808.8935
 20
122.1029
 40
0.250
 50
0.0000
  1
# 751
  7
STANDARD
  0
POINT
  8
3
 10
727.8599
 20
135.9561
  0
POINT
  8
3
 10
718.2054
 20
137.3810
  0
TEXT
  8
3
 10
718.2054
 20
137.3810
 40
0.250
 50
0.0000
  1
# 2
  7
STANDARD
  0
POINT
  8
3
 10
639.0183
 20
148.7882
  0
TEXT
  8
3
 10
639.0183
 20
148.7882
 40
0.250
 50
0.0000
  1
# 3
  7
STANDARD
  0
POINT
  8
2
 10
629.8870
 20
150.1014
  0
TEXT
  8
2
 10
629.8870
 20
150.1014
 40
0.250
 50
0.0000
  1
# 752
  7
STANDARD
  0
POINT
  8
4
 10
629.8870
 20
150.1014
 30
-3.9980
 39
2.9998
  0
POINT
  8
2
 10
629.8870
 20
150.1014
  0
POINT
  8
3
 10
490.2912
 20
168.2750
  0
TEXT
  8
3
 10
490.2912
 20
168.2750
 40
0.250
 50
0.0000
  1
# 4
  7
STANDARD
  0
POINT
  8
2
 10
430.8857
 20
172.0495
  0
TEXT
  8
2
 10
430.8857
 20
172.0495
 40
0.250
 50
0.0000
  1
# 547
  7
STANDARD
  0
POLYLINE
  8
1
 66
1
 70
0
  0
VERTEX
  8
1
 10
430.8857
 20
172.0495
  0
VERTEX
  8
1
 10
430.8857
 20
392.1608
  0
SEQEND
  8
1
  0
POINT
  8
2
 10
430.8857
 20
172.0495
  0
TEXT
  8
2
 10
430.8857
 20
172.0495
 40
0.250
 50
0.0000
  1
# 547
  7
STANDARD
  0
POINT
  8
2
 10
430.8857
 20
392.1608
  0
TEXT
  8
2
 10
430.8857
 20
392.1608
 40
0.250
 50
0.0000
  1
# 548
  7
STANDARD
  0
POLYLINE
  8
1
 66
1
 70
0
  0
VERTEX
  8
1
 10
430.8857
 20
392.1608
  0
VERTEX
  8
1
 10
490.2912
 20
395.9327
  0
VERTEX
  8
1
 10
629.8870
 20
414.1039
  0
VERTEX
  8
1
 10
629.8870
 20
414.1039
  0
VERTEX
  8
1
 10
639.0183
 20
415.3459
  0
VERTEX
  8
1
 10
718.2054
 20
426.1181
  0
VERTEX
  8
1
 10
727.8599
 20
427.4897
  0
VERTEX
  8
1
 10
808.8935
 20
442.1048
  0
VERTEX
  8
1
 10
884.6186
 20
465.1731
  0
VERTEX
  8
1
 10
993.1553
 20
503.8700
  0
VERTEX
  8
1
 10
1062.9901
 20
530.1158
  0
VERTEX
  8
1
 10
1090.0868
 20
540.4384
  0
VERTEX
  8
1
 10
1118.1233
 20
551.1216
  0
SEQEND
  8
1
  0
POINT
  8
2
 10
430.8857
 20
392.1608
  0
TEXT
  8
2
 10
430.8857
 20
392.1608
 40
0.250
 50
0.0000
  1
# 548
  7
STANDARD
  0
POINT
  8
2
 10
490.2912
 20
395.9327
  0
TEXT
  8
2
 10
490.2912
 20
395.9327
 40
0.250
 50
0.0000
  1
# 5
  7
STANDARD
  0
POINT
  8
2
 10
629.8870
 20
414.1039
  0
TEXT
  8
2
 10
629.8870
 20
414.1039
 40
0.250
 50
0.0000
  1
# 753
  7
STANDARD
  0
POINT
  8
4
 10
629.8870
 20
414.1039
 30
-3.9980
 39
2.9998
  0
POINT
  8
2
 10
629.8870
 20
414.1039
  0
POINT
  8
3
 10
639.0183
 20
415.3459
  0
TEXT
  8
3
 10
639.0183
 20
415.3459
 40
0.250
 50
0.0000
  1
# 6
  7
STANDARD
  0
POINT
  8
2
 10
718.2054
 20
426.1181
  0
TEXT
  8
2
 10
718.2054
 20
426.1181
 40
0.250
 50
0.0000
  1
# 7
  7
STANDARD
  0
POINT
  8
3
 10
727.8599
 20
427.4897
  0
POINT
  8
4
 10
808.8935
 20
442.1048
 30
-3.9980
 39
2.9998
  0
POINT
  8
3
 10
808.8935
 20
442.1048
  0
TEXT
  8
3
 10
808.8935
 20
442.1048
 40
0.250
 50
0.0000
  1
# 754
  7
STANDARD
  0
POINT
  8
3
 10
884.6186
 20
465.1731
  0
TEXT
  8
3
 10
884.6186
 20
465.1731
 40
0.250
 50
0.0000
  1
# 8
  7
STANDARD
  0
POINT
  8
3
 10
993.1553
 20
503.8700
  0
TEXT
  8
3
 10
993.1553
 20
503.8700
 40
0.250
 50
0.0000
  1
# 551
  7
STANDARD
  0
POINT
  8
2
 10
1062.9901
 20
530.1158
  0
POINT
  8
3
 10
1090.0868
 20
540.4384
  0
TEXT
  8
3
 10
1090.0868
 20
540.4384
 40
0.250
 50
0.0000
  1
# 558
  7
STANDARD
  0
POINT
  8
2
 10
1118.1233
 20
551.1216
  0
LINE
  8
7
 10
702.6250
 20
292.7147
 11
1158.0927
 21
292.7147
  0
LINE
  8
5
 10
702.6250
 20
292.7147
 11
1158.0927
 21
292.7147
  0
POINT
  8
2
 10
702.6250
 20
292.7147
  0
POINT
  8
2
 10
1158.0927
 20
292.7147
  0
POLYLINE
  8
8
 66
1
 70
0
  0
VERTEX
  8
8
 10
1321.5036
 20
282.1051
  0
VERTEX
  8
8
 10
1193.8940
 20
282.1051
  0
VERTEX
  8
8
 10
1124.8899
 20
282.1051
  0
VERTEX
  8
8
 10
808.8935
 20
282.1051
  0
VERTEX
  8
8
 10
639.0183
 20
282.1051
  0
VERTEX
  8
8
 10
629.8870
 20
282.1051
  0
VERTEX
  8
8
 10
490.2912
 20
282.1051
  0
VERTEX
  8
8
 10
430.8857
 20
282.1051
  0
SEQEND
  8
8
  0
TEXT
  8
8
 10
1321.5036
 20
282.1051
 40
0.250
 50
0.0000
  1
NM
  7
STANDARD
  0
POINT
  8
2
 10
1321.5036
 20
282.1051
  0
TEXT
  8
2
 10
1321.5036
 20
282.1051
 40
0.250
 50
0.0000
  1
# 538
  7
STANDARD
  0
POINT
  8
3
 10
1193.8940
 20
282.1051
  0
TEXT
  8
3
 10
1193.8940
 20
282.1051
 40
0.250
 50
0.0000
  1
# 0
  7
STANDARD
  0
POINT
  8
3
 10
1124.8899
 20
282.1051
  0
TEXT
  8
3
 10
1124.8899
 20
282.1051
 40
0.250
 50
0.0000
  1
# 0
  7
STANDARD
  0
POINT
  8
3
 10
808.8935
 20
282.1051
  0
TEXT
  8
3
 10
808.8935
 20
282.1051
 40
0.250
 50
0.0000
  1
# 0
  7
STANDARD
  0
POINT
  8
3
 10
639.0183
 20
282.1051
  0
POINT
  8
3
 10
629.8870
 20
282.1051
  0
TEXT
  8
3
 10
629.8870
 20
282.1051
 40
0.250
 50
0.0000
  1
# 0
  7
STANDARD
  0
POINT
  8
3
 10
490.2912
 20
282.1051
  0
POINT
  8
2
 10
430.8857
 20
282.1051
  0
TEXT
  8
2
 10
430.8857
 20
282.1051
 40
0.250
 50
0.0000
  1
# 0
  7
STANDARD
  0
LINE
  8
8
 10
808.8935
 20
442.1048
 11
808.8935
 21
122.1029
  0
TEXT
  8
8
 10
808.8935
 20
442.1048
 40
0.250
 50
0.0000
  1
NM
  7
STANDARD
  0
POINT
  8
2
 10
808.8935
 20
442.1048
  0
TEXT
  8
2
 10
808.8935
 20
442.1048
 40
0.250
 50
0.0000
  1
# 754
  7
STANDARD
  0
POINT
  8
2
 10
808.8935
 20
122.1029
  0
TEXT
  8
2
 10
808.8935
 20
122.1029
 40
0.250
 50
0.0000
  1
# 751
  7
STANDARD
  0
POLYLINE
  8
8
 66
1
 70
0
  0
VERTEX
  8
8
 10
1124.8899
 20
553.7023
  0
VERTEX
  8
8
 10
1124.8899
 20
282.1051
  0
VERTEX
  8
8
 10
1124.8899
 20
34.3028
  0
SEQEND
  8
8
  0
TEXT
  8
8
 10
1124.8899
 20
553.7023
 40
0.250
 50
0.0000
  1
NM
  7
STANDARD
  0
POINT
  8
2
 10
1124.8899
 20
553.7023
  0
TEXT
  8
2
 10
1124.8899
 20
553.7023
 40
0.250
 50
0.0000
  1
# 509
  7
STANDARD
  0
POINT
  8
3
 10
1124.8899
 20
282.1051
  0
POINT
  8
2
 10
1124.8899
 20
34.3028
  0
TEXT
  8
2
 10
1124.8899
 20
34.3028
 40
0.250
 50
0.0000
  1
# 543
  7
STANDARD
  0
LINE
  8
8
 10
1193.8940
 20
476.1053
 11
1193.8940
 21
88.1025
  0
TEXT
  8
8
 10
1193.8940
 20
476.1053
 40
0.250
 50
0.0000
  1
NM
  7
STANDARD
  0
POINT
  8
2
 10
1193.8940
 20
476.1053
  0
TEXT
  8
2
 10
1193.8940
 20
476.1053
 40
0.250
 50
0.0000
  1
# 757
  7
STANDARD
  0
POINT
  8
2
 10
1193.8940
 20
88.1025
  0
TEXT
  8
2
 10
1193.8940
 20
88.1025
 40
0.250
 50
0.0000
  1
# 758
  7
STANDARD
  0
POLYLINE
  8
8
 66
1
 70
0
  0
VERTEX
  8
8
 10
1082.1366
 20
188.7398
  0
VERTEX
  8
8
 10
889.0381
 20
188.7398
  0
VERTEX
  8
8
 10
889.0381
 20
260.5710
  0
SEQEND
  8
8
  0
TEXT
  8
8
 10
1082.1366
 20
188.7398
 40
0.250
 50
0.0000
  1
B
  7
STANDARD
  0
POINT
  8
2
 10
1082.1366
 20
188.7398
  0
POINT
  8
2
 10
889.0381
 20
188.7398
  0
POINT
  8
2
 10
889.0381
 20
260.5710
  0
LINE
  8
8
 10
1193.8940
 20
476.1053
 11
1193.8940
 21
88.1025
  0
TEXT
  8
8
 10
1193.8940
 20
476.1053
 40
0.250
 50
0.0000
  1
NM
  7
STANDARD
  0
POINT
  8
2
 10
1193.8940
 20
476.1053
  0
POINT
  8
2
 10
1193.8940
 20
88.1025
  0
LINE
  8
8
 10
1144.9051
 20
219.9056
 11
1121.9003
 21
219.8878
  0
TEXT
  8
8
 10
1144.9051
 20
219.9056
 40
0.250
 50
0.0000
  1
NM
  7
STANDARD
  0
POINT
  8
2
 10
1144.9051
 20
219.9056
  0
TEXT
  8
2
 10
1144.9051
 20
219.9056
 40
0.250
 50
0.0000
  1
# 0
  7
STANDARD
  0
POINT
  8
2
 10
1121.9003
 20
219.8878
  0
TEXT
  8
2
 10
1121.9003
 20
219.8878
 40
0.250
 50
0.0000
  1
# 0
  7
STANDARD
  0
LINE
  8
8
 10
1144.9355
 20
184.8994
 11
1144.9051
 21
219.9006
  0
TEXT
  8
8
 10
1144.9355
 20
184.8994
 40
0.250
 50
0.0000
  1
NM
  7
STANDARD
  0
POINT
  8
2
 10
1144.9355
 20
184.8994
  0
TEXT
  8
2
 10
1144.9355
 20
184.8994
 40
0.250
 50
0.0000
  1
# 0
  7
STANDARD
  0
POINT
  8
2
 10
1144.9051
 20
219.9006
  0
TEXT
  8
2
 10
1144.9051
 20
219.9006
 40
0.250
 50
0.0000
  1
# 0
  7
STANDARD
  0
LINE
  8
8
 10
1121.9384
 20
184.8867
 11
1144.9355
 21
184.9044
  0
TEXT
  8
8
 10
1121.9384
 20
184.8867
 40
0.250
 50
0.0000
  1
NM
  7
STANDARD
  0
POINT
  8
2
 10
1121.9384
 20
184.8867
  0
TEXT
  8
2
 10
1121.9384
 20
184.8867
 40
0.250
 50
0.0000
  1
# 0
  7
STANDARD
  0
POINT
  8
2
 10
1144.9355
 20
184.9044
  0
TEXT
  8
2
 10
1144.9355
 20
184.9044
 40
0.250
 50
0.0000
  1
# 0
  7
STANDARD
  0
LINE
  8
8
 10
1121.9003
 20
219.8828
 11
1121.9333
 21
184.8816
  0
TEXT
  8
8
 10
1121.9003
 20
219.8828
 40
0.250
 50
0.0000
  1
NM
  7
STANDARD
  0
POINT
  8
2
 10
1121.9003
 20
219.8828
  0
TEXT
  8
2
 10
1121.9003
 20
219.8828
 40
0.250
 50
0.0000
  1
# 0
  7
STANDARD
  0
POINT
  8
2
 10
1121.9333
 20
184.8816
  0
TEXT
  8
2
 10
1121.9333
 20
184.8816
 40
0.250
 50
0.0000
  1
# 0
  7
STANDARD
  0
POLYLINE
  8
8
 66
1
 70
0
  0
VERTEX
  8
8
 10
996.9399
 20
72.0395
  0
VERTEX
  8
8
 10
1005.7588
 20
179.3723
  0
VERTEX
  8
8
 10
999.7822
 20
288.1021
  0
VERTEX
  8
8
 10
993.8081
 20
396.8471
  0
VERTEX
  8
8
 10
993.1553
 20
503.8040
  0
SEQEND
  8
8
  0
TEXT
  8
8
 10
996.9399
 20
72.0395
 40
0.250
 50
0.0000
  1
NM
  7
STANDARD
  0
POINT
  8
2
 10
996.9399
 20
72.0395
  0
TEXT
  8
2
 10
996.9399
 20
72.0395
 40
0.250
 50
0.0000
  1
# 544
  7
STANDARD
  0
POINT
  8
3
 10
1005.7588
 20
179.3723
  0
POINT
  8
3
 10
999.7822
 20
288.1021
  0
POINT
  8
3
 10
993.8081
 20
396.8471
  0
POINT
  8
2
 10
993.1553
 20
503.8040
  0
TEXT
  8
2
 10
993.1553
 20
503.8040
 40
0.250
 50
0.0000
  1
# 551
  7
STANDARD
  0
POLYLINE
  8
8
 66
1
 70
0
  0
VERTEX
  8
8
 10
708.2029
 20
138.8212
  0
VERTEX
  8
8
 10
708.2029
 20
282.1051
  0
VERTEX
  8
8
 10
708.2029
 20
424.7566
  0
SEQEND
  8
8
  0
TEXT
  8
8
 10
708.2029
 20
138.8212
 40
0.250
 50
0.0000
  1
NM
  7
STANDARD
  0
POINT
  8
2
 10
708.2029
 20
138.8212
  0
TEXT
  8
2
 10
708.2029
 20
138.8212
 40
0.250
 50
0.0000
  1
# 9
  7
STANDARD
  0
POINT
  8
3
 10
708.2029
 20
282.1051
  0
POINT
  8
2
 10
708.2029
 20
424.7566
  0
TEXT
  8
2
 10
708.2029
 20
424.7566
 40
0.250
 50
0.0000
  1
# 10
  7
STANDARD
  0
LINE
  8
8
 10
639.0183
 20
148.7882
 11
639.0183
 21
415.3459
  0
TEXT
  8
8
 10
639.0183
 20
148.7882
 40
0.250
 50
0.0000
  1
NM
  7
STANDARD
  0
POINT
  8
2
 10
639.0183
 20
148.7882
  0
TEXT
  8
2
 10
639.0183
 20
148.7882
 40
0.250
 50
0.0000
  1
# 3
  7
STANDARD
  0
POINT
  8
2
 10
639.0183
 20
415.3459
  0
TEXT
  8
2
 10
639.0183
 20
415.3459
 40
0.250
 50
0.0000
  1
# 6
  7
STANDARD
  0
LINE
  8
8
 10
490.2912
 20
168.2750
 11
490.2912
 21
395.9327
  0
TEXT
  8
8
 10
490.2912
 20
168.2750
 40
0.250
 50
0.0000
  1
NM
  7
STANDARD
  0
POINT
  8
2
 10
490.2912
 20
168.2750
  0
TEXT
  8
2
 10
490.2912
 20
168.2750
 40
0.250
 50
0.0000
  1
# 4
  7
STANDARD
  0
POINT
  8
2
 10
490.2912
 20
395.9327
  0
TEXT
  8
2
 10
490.2912
 20
395.9327
 40
0.250
 50
0.0000
  1
# 5
  7
STANDARD
  0
LINE
  8
8
 10
884.6186
 20
103.3171
 11
884.6186
 21
465.1731
  0
TEXT
  8
8
 10
884.6186
 20
103.3171
 40
0.250
 50
0.0000
  1
NM
  7
STANDARD
  0
POINT
  8
2
 10
884.6186
 20
103.3171
  0
TEXT
  8
2
 10
884.6186
 20
103.3171
 40
0.250
 50
0.0000
  1
# 1
  7
STANDARD
  0
POINT
  8
2
 10
884.6186
 20
465.1731
  0
TEXT
  8
2
 10
884.6186
 20
465.1731
 40
0.250
 50
0.0000
  1
# 8
  7
STANDARD
  0
ENDBLK
  0
BLOCK
  8
0
  2
GLX4802S19SLO_38
 70
64
 10
0.0000
 20
0.0000
  0
TEXT
  8
1
 10
898.6394
 20
292.7122
 40
0.250
 50
0.0000
  1
Piece Name: GLX4802S19SLO
  7
STANDARD
  0
TEXT
  8
1
 10
898.6394
 20
296.2682
 40
0.250
 50
0.0000
  1
SIZE: 38
  7
STANDARD
  0
POLYLINE
  8
1
 66
1
 70
0
  0
VERTEX
  8
1
 10
1115.6214
 20
558.6223
  0
VERTEX
  8
1
 10
1122.3880
 20
525.7775
  0
VERTEX
  8
1
 10
1131.2678
 20
511.4697
  0
VERTEX
  8
1
 10
1143.0712
 20
499.4529
  0
VERTEX
  8
1
 10
1154.3869
 20
493.9386
  0
VERTEX
  8
1
 10
1191.3921
 20
483.6059
  0
VERTEX
  8
1
 10
1355.0545
 20
446.2755
  0
VERTEX
  8
1
 10
1368.8924
 20
443.1183
  0
SEQEND
  8
1
  0
POLYLINE
  8
1
 66
1
 70
0
  0
VERTEX
  8
1
 10
1368.8924
 20
443.1183
  0
VERTEX
  8
1
 10
1342.8955
 20
356.2300
  0
VERTEX
  8
1
 10
1323.0022
 20
282.1051
  0
VERTEX
  8
1
 10
1311.3563
 20
176.6139
  0
VERTEX
  8
1
 10
1309.8755
 20
109.9821
  0
VERTEX
  8
1
 10
1310.4750
 20
99.9567
  0
SEQEND
  8
1
  0
POLYLINE
  8
1
 66
1
 70
0
  0
VERTEX
  8
1
 10
1310.4750
 20
99.9567
  0
VERTEX
  8
1
 10
1205.9590
 20
82.9691
  0
VERTEX
  8
1
 10
1191.3921
 20
80.6019
  0
VERTEX
  8
1
 10
1181.0950
 20
78.0035
  0
VERTEX
  8
1
 10
1157.8133
 20
70.9727
  0
VERTEX
  8
1
 10
1141.8393
 20
61.3309
  0
VERTEX
  8
1
 10
1135.4867
 20
52.1716
  0
VERTEX
  8
1
 10
1122.3880
 20
26.8021
  0
SEQEND
  8
1
  0
POLYLINE
  8
1
 66
1
 70
0
  0
VERTEX
  8
1
 10
1122.3880
 20
26.8021
  0
VERTEX
  8
1
 10
1093.6072
 20
35.3746
  0
VERTEX
  8
1
 10
1065.7790
 20
43.6652
  0
VERTEX
  8
1
 10
994.4354
 20
65.0190
  0
VERTEX
  8
1
 10
882.1167
 20
96.9569
  0
VERTEX
  8
1
 10
806.3916
 20
116.1619
  0
VERTEX
  8
1
 10
725.3580
 20
130.9904
  0
VERTEX
  8
1
 10
715.7035
 20
132.5322
  0
VERTEX
  8
1
 10
636.5190
 20
144.8867
  0
VERTEX
  8
1
 10
627.3978
 20
146.3117
  0
VERTEX
  8
1
 10
627.3978
 20
146.3117
  0
VERTEX
  8
1
 10
487.7918
 20
165.9637
  0
VERTEX
  8
1
 10
428.3863
 20
170.0505
  0
SEQEND
  8
1
  0
POLYLINE
  8
1
 66
1
 70
0
  0
VERTEX
  8
1
 10
428.3863
 20
170.0505
  0
VERTEX
  8
1
 10
428.3863
 20
394.1598
  0
SEQEND
  8
1
  0
POLYLINE
  8
1
 66
1
 70
0
  0
VERTEX
  8
1
 10
428.3863
 20
394.1598
  0
VERTEX
  8
1
 10
487.7918
 20
398.2416
  0
VERTEX
  8
1
 10
627.3978
 20
417.8910
  0
VERTEX
  8
1
 10
627.3978
 20
417.8910
  0
VERTEX
  8
1
 10
636.5190
 20
419.2372
  0
VERTEX
  8
1
 10
715.7035
 20
430.9593
  0
VERTEX
  8
1
 10
725.3605
 20
432.4452
  0
VERTEX
  8
1
 10
806.3916
 20
448.0459
  0
VERTEX
  8
1
 10
882.1167
 20
471.5307
  0
VERTEX
  8
1
 10
990.6559
 20
510.8499
  0
VERTEX
  8
1
 10
1060.4881
 20
537.3828
  0
VERTEX
  8
1
 10
1087.5849
 20
547.8196
  0
VERTEX
  8
1
 10
1115.6214
 20
558.6223
  0
SEQEND
  8
1
  0
LINE
  8
7
 10
700.1256
 20
292.7147
 11
1155.5934
 21
292.7147
  0
LINE
  8
5
 10
700.1256
 20
292.7147
 11
1155.5934
 21
292.7147
  0
POLYLINE
  8
8
 66
1
 70
0
  0
VERTEX
  8
8
 10
1323.0022
 20
282.1051
  0
VERTEX
  8
8
 10
1191.3921
 20
282.1051
  0
VERTEX
  8
8
 10
1122.3880
 20
282.1051
  0
VERTEX
  8
8
 10
806.3916
 20
282.1051
  0
VERTEX
  8
8
 10
636.5190
 20
282.1051
  0
VERTEX
  8
8
 10
627.3877
 20
282.1051
  0
VERTEX
  8
8
 10
487.7918
 20
282.1051
  0
VERTEX
  8
8
 10
428.3863
 20
282.1051
  0
SEQEND
  8
8
  0
LINE
  8
8
 10
806.3916
 20
448.0459
 11
806.3916
 21
116.1619
  0
POLYLINE
  8
8
 66
1
 70
0
  0
VERTEX
  8
8
 10
1122.3880
 20
561.2029
  0
VERTEX
  8
8
 10
1122.3880
 20
281.7597
  0
VERTEX
  8
8
 10
1122.3880
 20
26.8021
  0
SEQEND
  8
8
  0
LINE
  8
8
 10
1191.3921
 20
483.6059
 11
1191.3921
 21
80.6019
  0
POLYLINE
  8
8
 66
1
 70
0
  0
VERTEX
  8
8
 10
1079.6347
 20
188.7398
  0
VERTEX
  8
8
 10
886.5388
 20
188.7398
  0
VERTEX
  8
8
 10
886.5388
 20
260.5710
  0
SEQEND
  8
8
  0
LINE
  8
8
 10
1191.3921
 20
476.1053
 11
1191.3921
 21
88.1025
  0
LINE
  8
8
 10
1142.4032
 20
219.9056
 11
1119.4009
 21
219.8878
  0
LINE
  8
8
 10
1142.4336
 20
184.8994
 11
1142.4032
 21
219.9006
  0
LINE
  8
8
 10
1119.4365
 20
184.8867
 11
1142.4362
 21
184.9044
  0
LINE
  8
8
 10
1119.4009
 20
219.8828
 11
1119.4314
 21
184.8816
  0
POLYLINE
  8
8
 66
1
 70
0
  0
VERTEX
  8
8
 10
994.4380
 20
65.0494
  0
VERTEX
  8
8
 10
1003.5744
 20
175.8519
  0
VERTEX
  8
8
 10
997.4352
 20
288.0996
  0
VERTEX
  8
8
 10
991.2960
 20
400.3650
  0
VERTEX
  8
8
 10
990.6559
 20
510.7839
  0
SEQEND
  8
8
  0
POLYLINE
  8
8
 66
1
 70
0
  0
VERTEX
  8
8
 10
705.7035
 20
134.0917
  0
VERTEX
  8
8
 10
705.7035
 20
282.1102
  0
VERTEX
  8
8
 10
705.7035
 20
429.4785
  0
SEQEND
  8
8
  0
LINE
  8
8
 10
636.5190
 20
144.8867
 11
636.5190
 21
419.2372
  0
LINE
  8
8
 10
487.7918
 20
165.9637
 11
487.7918
 21
398.2416
  0
LINE
  8
8
 10
882.1167
 20
96.9569
 11
882.1167
 21
471.5307
  0
ENDBLK
  0
BLOCK
  8
0
  2
GLX4802S19SLO_40
 70
64
 10
0.0000
 20
0.0000
  0
TEXT
  8
1
 10
898.6394
 20
292.7122
 40
0.250
 50
0.0000
  1
Piece Name: GLX4802S19SLO
  7
STANDARD
  0
TEXT
  8
1
 10
898.6394
 20
296.2682
 40
0.250
 50
0.0000
  1
SIZE: 40
  7
STANDARD
  0
POLYLINE
  8
1
 66
1
 70
0
  0
VERTEX
  8
1
 10
1113.1220
 20
566.1229
  0
VERTEX
  8
1
 10
1119.8886
 20
533.2781
  0
VERTEX
  8
1
 10
1128.7684
 20
518.9703
  0
VERTEX
  8
1
 10
1140.5718
 20
506.9536
  0
VERTEX
  8
1
 10
1151.9002
 20
501.5180
  0
VERTEX
  8
1
 10
1188.8928
 20
491.1065
  0
VERTEX
  8
1
 10
1357.1652
 20
453.9590
  0
VERTEX
  8
1
 10
1371.3943
 20
450.8170
  0
SEQEND
  8
1
  0
POLYLINE
  8
1
 66
1
 70
0
  0
VERTEX
  8
1
 10
1371.3943
 20
450.8170
  0
VERTEX
  8
1
 10
1344.8005
 20
359.7656
  0
VERTEX
  8
1
 10
1324.5034
 20
282.1051
  0
VERTEX
  8
1
 10
1312.6720
 20
172.1435
  0
VERTEX
  8
1
 10
1311.3233
 20
102.7024
  0
VERTEX
  8
1
 10
1311.9761
 20
92.2579
  0
SEQEND
  8
1
  0
POLYLINE
  8
1
 66
1
 70
0
  0
VERTEX
  8
1
 10
1311.9761
 20
92.2579
  0
VERTEX
  8
1
 10
1203.9499
 20
75.4431
  0
VERTEX
  8
1
 10
1188.8928
 20
73.1012
  0
VERTEX
  8
1
 10
1178.5931
 20
70.4825
  0
VERTEX
  8
1
 10
1155.3216
 20
63.4137
  0
VERTEX
  8
1
 10
1139.3374
 20
53.8303
  0
VERTEX
  8
1
 10
1132.9874
 20
44.6710
  0
VERTEX
  8
1
 10
1119.8886
 20
19.3015
  0
SEQEND
  8
1
  0
POLYLINE
  8
1
 66
1
 70
0
  0
VERTEX
  8
1
 10
1119.8886
 20
19.3015
  0
VERTEX
  8
1
 10
1091.1079
 20
27.9934
  0
VERTEX
  8
1
 10
1063.2771
 20
36.3957
  0
VERTEX
  8
1
 10
991.9335
 20
58.0391
  0
VERTEX
  8
1
 10
879.6173
 20
90.6018
  0
VERTEX
  8
1
 10
803.8923
 20
110.2208
  0
VERTEX
  8
1
 10
722.8612
 20
126.0272
  0
VERTEX
  8
1
 10
713.2041
 20
127.6859
  0
VERTEX
  8
1
 10
634.0171
 20
140.9904
  0
VERTEX
  8
1
 10
624.9036
 20
142.5220
  0
VERTEX
  8
1
 10
624.9036
 20
142.5220
  0
VERTEX
  8
1
 10
485.2899
 20
163.6523
  0
VERTEX
  8
1
 10
425.8844
 20
168.0515
  0
SEQEND
  8
1
  0
POLYLINE
  8
1
 66
1
 70
0
  0
VERTEX
  8
1
 10
425.8844
 20
168.0515
  0
VERTEX
  8
1
 10
425.8844
 20
396.1588
  0
SEQEND
  8
1
  0
POLYLINE
  8
1
 66
1
 70
0
  0
VERTEX
  8
1
 10
425.8844
 20
396.1588
  0
VERTEX
  8
1
 10
485.2899
 20
400.5530
  0
VERTEX
  8
1
 10
624.9036
 20
421.6807
  0
VERTEX
  8
1
 10
624.9036
 20
421.6807
  0
VERTEX
  8
1
 10
634.0171
 20
423.1336
  0
VERTEX
  8
1
 10
713.2041
 20
435.8031
  0
VERTEX
  8
1
 10
722.8663
 20
437.4058
  0
VERTEX
  8
1
 10
803.8923
 20
453.9869
  0
VERTEX
  8
1
 10
879.6173
 20
477.8909
  0
VERTEX
  8
1
 10
988.1540
 20
517.8298
  0
VERTEX
  8
1
 10
1057.9862
 20
544.6522
  0
VERTEX
  8
1
 10
1085.0855
 20
555.2009
  0
VERTEX
  8
1
 10
1113.1220
 20
566.1229
  0
SEQEND
  8
1
  0
LINE
  8
7
 10
697.6237
 20
292.7147
 11
1153.0915
 21
292.7147
  0
LINE
  8
5
 10
697.6237
 20
292.7147
 11
1153.0915
 21
292.7147
  0
POLYLINE
  8
8
 66
1
 70
0
  0
VERTEX
  8
8
 10
1324.5034
 20
282.1051
  0
VERTEX
  8
8
 10
1188.8928
 20
282.1051
  0
VERTEX
  8
8
 10
1119.8886
 20
282.1051
  0
VERTEX
  8
8
 10
803.8923
 20
282.1051
  0
VERTEX
  8
8
 10
634.0171
 20
282.1051
  0
VERTEX
  8
8
 10
624.8883
 20
282.1051
  0
VERTEX
  8
8
 10
485.2899
 20
282.1051
  0
VERTEX
  8
8
 10
425.8844
 20
282.1051
  0
SEQEND
  8
8
  0
LINE
  8
8
 10
803.8923
 20
453.9869
 11
803.8923
 21
110.2208
  0
POLYLINE
  8
8
 66
1
 70
0
  0
VERTEX
  8
8
 10
1119.8886
 20
568.7035
  0
VERTEX
  8
8
 10
1119.8886
 20
281.4168
  0
VERTEX
  8
8
 10
1119.8886
 20
19.3015
  0
SEQEND
  8
8
  0
LINE
  8
8
 10
1188.8928
 20
491.1065
 11
1188.8928
 21
73.1012
  0
POLYLINE
  8
8
 66
1
 70
0
  0
VERTEX
  8
8
 10
1077.1353
 20
188.7398
  0
VERTEX
  8
8
 10
884.0369
 20
188.7398
  0
VERTEX
  8
8
 10
884.0369
 20
260.5710
  0
SEQEND
  8
8
  0
LINE
  8
8
 10
1188.8928
 20
476.1053
 11
1188.8928
 21
88.1025
  0
LINE
  8
8
 10
1139.9038
 20
219.9056
 11
1116.8990
 21
219.8878
  0
LINE
  8
8
 10
1139.9343
 20
184.8994
 11
1139.9038
 21
219.9006
  0
LINE
  8
8
 10
1116.9371
 20
184.8867
 11
1139.9343
 21
184.9044
  0
LINE
  8
8
 10
1116.8990
 20
219.8828
 11
1116.9320
 21
184.8816
  0
POLYLINE
  8
8
 66
1
 70
0
  0
VERTEX
  8
8
 10
991.9386
 20
58.0695
  0
VERTEX
  8
8
 10
1001.3874
 20
172.3390
  0
VERTEX
  8
8
 10
995.0857
 20
288.1046
  0
VERTEX
  8
8
 10
988.7840
 20
403.8880
  0
VERTEX
  8
8
 10
988.1540
 20
517.7638
  0
SEQEND
  8
8
  0
POLYLINE
  8
8
 66
1
 70
0
  0
VERTEX
  8
8
 10
703.2016
 20
129.3648
  0
VERTEX
  8
8
 10
703.2016
 20
282.1204
  0
VERTEX
  8
8
 10
703.2016
 20
434.2029
  0
SEQEND
  8
8
  0
LINE
  8
8
 10
634.0171
 20
140.9904
 11
634.0171
 21
423.1336
  0
LINE
  8
8
 10
485.2899
 20
163.6523
 11
485.2899
 21
400.5530
  0
LINE
  8
8
 10
879.6173
 20
90.6018
 11
879.6173
 21
477.8909
  0
ENDBLK
  0
BLOCK
  8
0
  2
GLX4802S19SLO_42
 70
64
 10
0.0000
 20
0.0000
  0
TEXT
  8
1
 10
898.6394
 20
292.7122
 40
0.250
 50
0.0000
  1
Piece Name: GLX4802S19SLO
  7
STANDARD
  0
TEXT
  8
1
 10
898.6394
 20
296.2682
 40
0.250
 50
0.0000
  1
SIZE: 42
  7
STANDARD
  0
POLYLINE
  8
1
 66
1
 70
0
  0
VERTEX
  8
1
 10
1109.3704
 20
574.8732
  0
VERTEX
  8
1
 10
1116.1370
 20
542.0284
  0
VERTEX
  8
1
 10
1125.0169
 20
527.7206
  0
VERTEX
  8
1
 10
1136.8202
 20
515.7039
  0
VERTEX
  8
1
 10
1148.1664
 20
510.3673
  0
VERTEX
  8
1
 10
1185.1412
 20
500.1057
  0
VERTEX
  8
1
 10
1360.3301
 20
463.0522
  0
VERTEX
  8
1
 10
1375.1434
 20
459.9178
  0
SEQEND
  8
1
  0
POLYLINE
  8
1
 66
1
 70
0
  0
VERTEX
  8
1
 10
1375.1434
 20
459.9178
  0
VERTEX
  8
1
 10
1348.2143
 20
363.9389
  0
VERTEX
  8
1
 10
1327.7520
 20
282.1051
  0
VERTEX
  8
1
 10
1315.1206
 20
166.8806
  0
VERTEX
  8
1
 10
1313.5611
 20
94.1071
  0
VERTEX
  8
1
 10
1314.2240
 20
83.1571
  0
SEQEND
  8
1
  0
POLYLINE
  8
1
 66
1
 70
0
  0
VERTEX
  8
1
 10
1314.2240
 20
83.1571
  0
VERTEX
  8
1
 10
1200.9324
 20
66.4338
  0
VERTEX
  8
1
 10
1185.1412
 20
64.1020
  0
VERTEX
  8
1
 10
1174.8212
 20
61.5620
  0
VERTEX
  8
1
 10
1151.4836
 20
54.6659
  0
VERTEX
  8
1
 10
1135.4461
 20
45.1765
  0
VERTEX
  8
1
 10
1129.1291
 20
35.9842
  0
VERTEX
  8
1
 10
1116.1370
 20
10.5512
  0
SEQEND
  8
1
  0
POLYLINE
  8
1
 66
1
 70
0
  0
VERTEX
  8
1
 10
1116.1370
 20
10.5512
  0
VERTEX
  8
1
 10
1087.3563
 20
19.4234
  0
VERTEX
  8
1
 10
1059.5280
 20
27.9934
  0
VERTEX
  8
1
 10
988.1845
 20
50.0685
  0
VERTEX
  8
1
 10
875.8657
 20
83.5686
  0
VERTEX
  8
1
 10
800.1407
 20
103.8099
  0
VERTEX
  8
1
 10
719.1122
 20
120.7161
  0
VERTEX
  8
1
 10
709.4525
 20
122.5043
  0
VERTEX
  8
1
 10
630.2680
 20
136.8705
  0
VERTEX
  8
1
 10
621.1647
 20
138.5215
  0
VERTEX
  8
1
 10
621.1647
 20
138.5215
  0
VERTEX
  8
1
 10
481.5409
 20
161.3053
  0
VERTEX
  8
1
 10
422.1354
 20
166.0526
  0
SEQEND
  8
1
  0
POLYLINE
  8
1
 66
1
 70
0
  0
VERTEX
  8
1
 10
422.1354
 20
166.0526
  0
VERTEX
  8
1
 10
422.1354
 20
398.1578
  0
SEQEND
  8
1
  0
POLYLINE
  8
1
 66
1
 70
0
  0
VERTEX
  8
1
 10
422.1354
 20
398.1578
  0
VERTEX
  8
1
 10
481.5409
 20
402.8999
  0
VERTEX
  8
1
 10
621.1647
 20
425.6812
  0
VERTEX
  8
1
 10
621.1647
 20
425.6812
  0
VERTEX
  8
1
 10
630.2680
 20
427.2534
  0
VERTEX
  8
1
 10
709.4525
 20
440.9847
  0
VERTEX
  8
1
 10
719.1172
 20
442.7170
  0
VERTEX
  8
1
 10
800.1407
 20
460.3979
  0
VERTEX
  8
1
 10
875.8657
 20
484.9292
  0
VERTEX
  8
1
 10
984.4050
 20
525.8004
  0
VERTEX
  8
1
 10
1054.2372
 20
553.0901
  0
VERTEX
  8
1
 10
1081.3339
 20
563.8216
  0
VERTEX
  8
1
 10
1109.3704
 20
574.8732
  0
SEQEND
  8
1
  0
LINE
  8
7
 10
693.8747
 20
292.7147
 11
1149.3424
 21
292.7147
  0
LINE
  8
5
 10
693.8747
 20
292.7147
 11
1149.3424
 21
292.7147
  0
POLYLINE
  8
8
 66
1
 70
0
  0
VERTEX
  8
8
 10
1327.7520
 20
282.1051
  0
VERTEX
  8
8
 10
1185.1412
 20
282.1051
  0
VERTEX
  8
8
 10
1116.1370
 20
282.1051
  0
VERTEX
  8
8
 10
800.1407
 20
282.1051
  0
VERTEX
  8
8
 10
630.2680
 20
282.1051
  0
VERTEX
  8
8
 10
621.1367
 20
282.1051
  0
VERTEX
  8
8
 10
481.5409
 20
282.1051
  0
VERTEX
  8
8
 10
422.1354
 20
282.1051
  0
SEQEND
  8
8
  0
LINE
  8
8
 10
800.1407
 20
460.3979
 11
800.1407
 21
103.8099
  0
POLYLINE
  8
8
 66
1
 70
0
  0
VERTEX
  8
8
 10
1116.1370
 20
577.4538
  0
VERTEX
  8
8
 10
1116.1370
 20
281.0155
  0
VERTEX
  8
8
 10
1116.1370
 20
10.5512
  0
SEQEND
  8
8
  0
LINE
  8
8
 10
1185.1412
 20
500.1057
 11
1185.1412
 21
64.1020
  0
POLYLINE
  8
8
 66
1
 70
0
  0
VERTEX
  8
8
 10
1073.3837
 20
188.7398
  0
VERTEX
  8
8
 10
880.2879
 20
188.7398
  0
VERTEX
  8
8
 10
880.2879
 20
260.5710
  0
SEQEND
  8
8
  0
LINE
  8
8
 10
1185.1412
 20
476.1053
 11
1185.1412
 21
88.1025
  0
LINE
  8
8
 10
1136.1522
 20
219.9056
 11
1113.1500
 21
219.8878
  0
LINE
  8
8
 10
1136.1827
 20
184.8994
 11
1136.1522
 21
219.9006
  0
LINE
  8
8
 10
1113.1855
 20
184.8867
 11
1136.1852
 21
184.9044
  0
LINE
  8
8
 10
1113.1500
 20
219.8828
 11
1113.1805
 21
184.8816
  0
POLYLINE
  8
8
 66
1
 70
0
  0
VERTEX
  8
8
 10
988.1871
 20
50.0990
  0
VERTEX
  8
8
 10
997.9991
 20
168.3284
  0
VERTEX
  8
8
 10
991.5119
 20
288.1097
  0
VERTEX
  8
8
 10
985.0248
 20
407.9088
  0
VERTEX
  8
8
 10
984.4050
 20
525.7343
  0
SEQEND
  8
8
  0
POLYLINE
  8
8
 66
1
 70
0
  0
VERTEX
  8
8
 10
699.4525
 20
124.3178
  0
VERTEX
  8
8
 10
699.4525
 20
282.1306
  0
VERTEX
  8
8
 10
699.4525
 20
439.2499
  0
SEQEND
  8
8
  0
LINE
  8
8
 10
630.2680
 20
136.8705
 11
630.2680
 21
427.2534
  0
LINE
  8
8
 10
481.5409
 20
161.3053
 11
481.5409
 21
402.8999
  0
LINE
  8
8
 10
875.8657
 20
83.5686
 11
875.8657
 21
484.9292
  0
ENDBLK
  0
BLOCK
  8
0
  2
GLX4802S19SLO_44
 70
64
 10
0.0000
 20
0.0000
  0
TEXT
  8
1
 10
898.6394
 20
292.7122
 40
0.250
 50
0.0000
  1
Piece Name: GLX4802S19SLO
  7
STANDARD
  0
TEXT
  8
1
 10
898.6394
 20
296.2682
 40
0.250
 50
0.0000
  1
SIZE: 44
  7
STANDARD
  0
POLYLINE
  8
1
 66
1
 70
0
  0
VERTEX
  8
1
 10
1105.6214
 20
583.6235
  0
VERTEX
  8
1
 10
1112.3880
 20
550.7787
  0
VERTEX
  8
1
 10
1121.2678
 20
536.4709
  0
VERTEX
  8
1
 10
1133.0712
 20
524.4542
  0
VERTEX
  8
1
 10
1144.4352
 20
519.2192
  0
VERTEX
  8
1
 10
1181.3921
 20
509.1049
  0
VERTEX
  8
1
 10
1363.4975
 20
472.1454
  0
VERTEX
  8
1
 10
1378.8949
 20
469.0187
  0
SEQEND
  8
1
  0
POLYLINE
  8
1
 66
1
 70
0
  0
VERTEX
  8
1
 10
1378.8949
 20
469.0187
  0
VERTEX
  8
1
 10
1351.6306
 20
368.1146
  0
VERTEX
  8
1
 10
1331.0032
 20
282.1051
  0
VERTEX
  8
1
 10
1317.5717
 20
161.6203
  0
VERTEX
  8
1
 10
1315.8013
 20
85.5092
  0
VERTEX
  8
1
 10
1316.4744
 20
74.0563
  0
SEQEND
  8
1
  0
POLYLINE
  8
1
 66
1
 70
0
  0
VERTEX
  8
1
 10
1316.4744
 20
74.0563
  0
VERTEX
  8
1
 10
1197.9174
 20
57.4218
  0
VERTEX
  8
1
 10
1181.3921
 20
55.1028
  0
VERTEX
  8
1
 10
1171.0442
 20
52.6390
  0
VERTEX
  8
1
 10
1147.6457
 20
45.9182
  0
VERTEX
  8
1
 10
1131.5523
 20
36.5227
  0
VERTEX
  8
1
 10
1125.2759
 20
27.3000
  0
VERTEX
  8
1
 10
1112.3880
 20
1.8009
  0
SEQEND
  8
1
  0
POLYLINE
  8
1
 66
1
 70
0
  0
VERTEX
  8
1
 10
1112.3880
 20
1.8009
  0
VERTEX
  8
1
 10
1083.6072
 20
10.8027
  0
VERTEX
  8
1
 10
1051.5677
 20
20.8763
  0
VERTEX
  8
1
 10
969.4317
 20
46.8224
  0
VERTEX
  8
1
 10
872.1167
 20
77.2516
  0
VERTEX
  8
1
 10
796.3917
 20
98.7095
  0
VERTEX
  8
1
 10
715.3656
 20
116.3854
  0
VERTEX
  8
1
 10
705.7035
 20
118.2650
  0
VERTEX
  8
1
 10
626.5164
 20
133.3780
  0
VERTEX
  8
1
 10
617.4207
 20
135.1154
  0
VERTEX
  8
1
 10
617.4207
 20
135.1154
  0
VERTEX
  8
1
 10
477.7918
 20
159.0625
  0
VERTEX
  8
1
 10
418.3863
 20
164.0536
  0
SEQEND
  8
1
  0
POLYLINE
  8
1
 66
1
 70
0
  0
VERTEX
  8
1
 10
418.3863
 20
164.0536
  0
VERTEX
  8
1
 10
418.3863
 20
400.1567
  0
SEQEND
  8
1
  0
POLYLINE
  8
1
 66
1
 70
0
  0
VERTEX
  8
1
 10
418.3863
 20
400.1567
  0
VERTEX
  8
1
 10
477.7918
 20
405.1427
  0
VERTEX
  8
1
 10
617.4207
 20
429.0873
  0
VERTEX
  8
1
 10
617.4207
 20
429.0873
  0
VERTEX
  8
1
 10
626.5164
 20
430.7459
  0
VERTEX
  8
1
 10
705.7035
 20
445.2189
  0
VERTEX
  8
1
 10
715.3707
 20
447.0426
  0
VERTEX
  8
1
 10
796.3917
 20
465.4982
  0
VERTEX
  8
1
 10
872.1167
 20
491.2869
  0
VERTEX
  8
1
 10
965.6522
 20
527.8070
  0
VERTEX
  8
1
 10
1046.2946
 20
559.8313
  0
VERTEX
  8
1
 10
1077.5849
 20
572.4221
  0
VERTEX
  8
1
 10
1105.6214
 20
583.6235
  0
SEQEND
  8
1
  0
LINE
  8
7
 10
690.1257
 20
292.7147
 11
1145.5934
 21
292.7147
  0
LINE
  8
5
 10
690.1257
 20
292.7147
 11
1145.5934
 21
292.7147
  0
POLYLINE
  8
8
 66
1
 70
0
  0
VERTEX
  8
8
 10
1331.0032
 20
282.1051
  0
VERTEX
  8
8
 10
1181.3921
 20
282.1051
  0
VERTEX
  8
8
 10
1112.3880
 20
282.1051
  0
VERTEX
  8
8
 10
796.3917
 20
282.1051
  0
VERTEX
  8
8
 10
626.5164
 20
282.1051
  0
VERTEX
  8
8
 10
617.3877
 20
282.1051
  0
VERTEX
  8
8
 10
477.7918
 20
282.1051
  0
VERTEX
  8
8
 10
418.3863
 20
282.1051
  0
SEQEND
  8
8
  0
LINE
  8
8
 10
796.3917
 20
465.4982
 11
796.3917
 21
98.7095
  0
POLYLINE
  8
8
 66
1
 70
0
  0
VERTEX
  8
8
 10
1112.3880
 20
586.2041
  0
VERTEX
  8
8
 10
1112.3880
 20
280.6142
  0
VERTEX
  8
8
 10
1112.3880
 20
1.8009
  0
SEQEND
  8
8
  0
LINE
  8
8
 10
1181.3921
 20
509.1049
 11
1181.3921
 21
55.1028
  0
POLYLINE
  8
8
 66
1
 70
0
  0
VERTEX
  8
8
 10
1069.6347
 20
188.7398
  0
VERTEX
  8
8
 10
876.5388
 20
188.7398
  0
VERTEX
  8
8
 10
876.5388
 20
260.5710
  0
SEQEND
  8
8
  0
LINE
  8
8
 10
1181.3921
 20
476.1053
 11
1181.3921
 21
88.1025
  0
LINE
  8
8
 10
1132.4032
 20
219.9056
 11
1109.4009
 21
219.8878
  0
LINE
  8
8
 10
1132.4336
 20
184.8994
 11
1132.4032
 21
219.9006
  0
LINE
  8
8
 10
1109.4365
 20
184.8867
 11
1132.4362
 21
184.9044
  0
LINE
  8
8
 10
1109.4009
 20
219.8828
 11
1109.4314
 21
184.8816
  0
POLYLINE
  8
8
 66
1
 70
0
  0
VERTEX
  8
8
 10
969.4368
 20
46.8529
  0
VERTEX
  8
8
 10
979.3682
 20
166.3853
  0
VERTEX
  8
8
 10
972.8175
 20
287.4925
  0
VERTEX
  8
8
 10
966.2719
 20
408.6149
  0
VERTEX
  8
8
 10
965.6522
 20
527.7409
  0
SEQEND
  8
8
  0
POLYLINE
  8
8
 66
1
 70
0
  0
VERTEX
  8
8
 10
695.7035
 20
120.1725
  0
VERTEX
  8
8
 10
695.7035
 20
282.1382
  0
VERTEX
  8
8
 10
695.7035
 20
443.3901
  0
SEQEND
  8
8
  0
LINE
  8
8
 10
626.5164
 20
133.3780
 11
626.5164
 21
430.7459
  0
LINE
  8
8
 10
477.7918
 20
159.0625
 11
477.7918
 21
405.1427
  0
LINE
  8
8
 10
872.1167
 20
77.2516
 11
872.1167
 21
491.2869
  0
ENDBLK
  0
BLOCK
  8
0
  2
GLX4802S19SLO_46
 70
64
 10
0.0000
 20
0.0000
  0
TEXT
  8
1
 10
898.6394
 20
292.7122
 40
0.250
 50
0.0000
  1
Piece Name: GLX4802S19SLO
  7
STANDARD
  0
TEXT
  8
1
 10
898.6394
 20
296.2682
 40
0.250
 50
0.0000
  1
SIZE: 46
  7
STANDARD
  0
POLYLINE
  8
1
 66
1
 70
0
  0
VERTEX
  8
1
 10
1099.8709
 20
593.6235
  0
VERTEX
  8
1
 10
1106.6374
 20
560.7787
  0
VERTEX
  8
1
 10
1115.5173
 20
546.4709
  0
VERTEX
  8
1
 10
1127.3206
 20
534.4542
  0
VERTEX
  8
1
 10
1138.6185
 20
528.8153
  0
VERTEX
  8
1
 10
1175.6416
 20
518.3556
  0
VERTEX
  8
1
 10
1368.3514
 20
482.7779
  0
VERTEX
  8
1
 10
1384.6455
 20
479.7679
  0
SEQEND
  8
1
  0
POLYLINE
  8
1
 66
1
 70
0
  0
VERTEX
  8
1
 10
1384.6455
 20
479.7679
  0
VERTEX
  8
1
 10
1356.7614
 20
373.0473
  0
VERTEX
  8
1
 10
1335.7530
 20
282.1051
  0
VERTEX
  8
1
 10
1321.1937
 20
155.4125
  0
VERTEX
  8
1
 10
1319.0576
 20
75.3568
  0
VERTEX
  8
1
 10
1319.7231
 20
63.3070
  0
SEQEND
  8
1
  0
POLYLINE
  8
1
 66
1
 70
0
  0
VERTEX
  8
1
 10
1319.7231
 20
63.3070
  0
VERTEX
  8
1
 10
1193.2667
 20
47.9883
  0
VERTEX
  8
1
 10
1175.6416
 20
45.8521
  0
VERTEX
  8
1
 10
1165.1057
 20
43.3858
  0
VERTEX
  8
1
 10
1141.2703
 20
36.6370
  0
VERTEX
  8
1
 10
1124.9508
 20
27.0815
  0
VERTEX
  8
1
 10
1118.8955
 20
17.6810
  0
VERTEX
  8
1
 10
1106.6374
 20
-8.1992
  0
SEQEND
  8
1
  0
POLYLINE
  8
1
 66
1
 70
0
  0
VERTEX
  8
1
 10
1106.6374
 20
-8.1992
  0
VERTEX
  8
1
 10
1077.8567
 20
0.9729
  0
VERTEX
  8
1
 10
1045.8196
 20
11.2523
  0
VERTEX
  8
1
 10
963.6837
 20
37.7267
  0
VERTEX
  8
1
 10
866.3661
 20
68.9890
  0
VERTEX
  8
1
 10
790.6411
 20
91.0895
  0
VERTEX
  8
1
 10
709.6176
 20
110.0379
  0
VERTEX
  8
1
 10
699.9529
 20
112.0699
  0
VERTEX
  8
1
 10
620.7684
 20
128.4174
  0
VERTEX
  8
1
 10
611.6829
 20
130.2919
  0
VERTEX
  8
1
 10
611.6829
 20
130.2919
  0
VERTEX
  8
1
 10
472.0413
 20
156.1567
  0
VERTEX
  8
1
 10
412.6357
 20
161.5542
  0
SEQEND
  8
1
  0
POLYLINE
  8
1
 66
1
 70
0
  0
VERTEX
  8
1
 10
412.6357
 20
161.5542
  0
VERTEX
  8
1
 10
412.6357
 20
402.6561
  0
SEQEND
  8
1
  0
POLYLINE
  8
1
 66
1
 70
0
  0
VERTEX
  8
1
 10
412.6357
 20
402.6561
  0
VERTEX
  8
1
 10
472.0413
 20
408.0460
  0
VERTEX
  8
1
 10
611.6829
 20
433.9108
  0
VERTEX
  8
1
 10
611.6829
 20
433.9108
  0
VERTEX
  8
1
 10
620.7684
 20
435.7091
  0
VERTEX
  8
1
 10
699.9529
 20
451.4088
  0
VERTEX
  8
1
 10
709.6253
 20
453.3850
  0
VERTEX
  8
1
 10
790.6411
 20
473.1182
  0
VERTEX
  8
1
 10
866.3661
 20
499.5546
  0
VERTEX
  8
1
 10
959.9041
 20
536.8976
  0
VERTEX
  8
1
 10
1040.5466
 20
569.4630
  0
VERTEX
  8
1
 10
1071.8343
 20
582.2620
  0
VERTEX
  8
1
 10
1099.8709
 20
593.6235
  0
SEQEND
  8
1
  0
LINE
  8
7
 10
684.3751
 20
292.7147
 11
1139.8428
 21
292.7147
  0
LINE
  8
5
 10
684.3751
 20
292.7147
 11
1139.8428
 21
292.7147
  0
POLYLINE
  8
8
 66
1
 70
0
  0
VERTEX
  8
8
 10
1335.7530
 20
282.1051
  0
VERTEX
  8
8
 10
1175.6416
 20
282.1051
  0
VERTEX
  8
8
 10
1106.6374
 20
282.1051
  0
VERTEX
  8
8
 10
790.6411
 20
282.1051
  0
VERTEX
  8
8
 10
620.7684
 20
282.1051
  0
VERTEX
  8
8
 10
611.6371
 20
282.1051
  0
VERTEX
  8
8
 10
472.0413
 20
282.1051
  0
VERTEX
  8
8
 10
412.6357
 20
282.1051
  0
SEQEND
  8
8
  0
LINE
  8
8
 10
790.6411
 20
473.1182
 11
790.6411
 21
91.0895
  0
POLYLINE
  8
8
 66
1
 70
0
  0
VERTEX
  8
8
 10
1106.6374
 20
596.2041
  0
VERTEX
  8
8
 10
1106.6374
 20
280.1570
  0
VERTEX
  8
8
 10
1106.6374
 20
-8.1992
  0
SEQEND
  8
8
  0
LINE
  8
8
 10
1175.6416
 20
518.3556
 11
1175.6416
 21
45.8521
  0
POLYLINE
  8
8
 66
1
 70
0
  0
VERTEX
  8
8
 10
1063.8841
 20
188.7398
  0
VERTEX
  8
8
 10
870.7882
 20
188.7398
  0
VERTEX
  8
8
 10
870.7882
 20
260.5710
  0
SEQEND
  8
8
  0
LINE
  8
8
 10
1175.6416
 20
476.1053
 11
1175.6416
 21
88.1025
  0
LINE
  8
8
 10
1126.6526
 20
219.9056
 11
1103.6504
 21
219.8878
  0
LINE
  8
8
 10
1126.6831
 20
184.8994
 11
1126.6526
 21
219.9006
  0
LINE
  8
8
 10
1103.6859
 20
184.8867
 11
1126.6856
 21
184.9044
  0
LINE
  8
8
 10
1103.6504
 20
219.8828
 11
1103.6809
 21
184.8816
  0
POLYLINE
  8
8
 66
1
 70
0
  0
VERTEX
  8
8
 10
963.6862
 20
37.7572
  0
VERTEX
  8
8
 10
974.0291
 20
161.8082
  0
VERTEX
  8
8
 10
967.2676
 20
287.4950
  0
VERTEX
  8
8
 10
960.5087
 20
413.1996
  0
VERTEX
  8
8
 10
959.9041
 20
536.8316
  0
SEQEND
  8
8
  0
POLYLINE
  8
8
 66
1
 70
0
  0
VERTEX
  8
8
 10
689.9529
 20
114.1324
  0
VERTEX
  8
8
 10
689.9529
 20
282.1483
  0
VERTEX
  8
8
 10
689.9529
 20
449.4251
  0
SEQEND
  8
8
  0
LINE
  8
8
 10
620.7684
 20
128.4174
 11
620.7684
 21
435.7091
  0
LINE
  8
8
 10
472.0413
 20
156.1567
 11
472.0413
 21
408.0460
  0
LINE
  8
8
 10
866.3661
 20
68.9890
 11
866.3661
 21
499.5546
  0
ENDBLK
  0
BLOCK
  8
0
  2
GLX4802S19SLO_48
 70
64
 10
0.0000
 20
0.0000
  0
TEXT
  8
1
 10
898.6394
 20
292.7122
 40
0.250
 50
0.0000
  1
Piece Name: GLX4802S19SLO
  7
STANDARD
  0
TEXT
  8
1
 10
898.6394
 20
296.2682
 40
0.250
 50
0.0000
  1
SIZE: 48
  7
STANDARD
  0
POLYLINE
  8
1
 66
1
 70
0
  0
VERTEX
  8
1
 10
1094.1203
 20
603.6234
  0
VERTEX
  8
1
 10
1100.8869
 20
570.7787
  0
VERTEX
  8
1
 10
1109.7667
 20
556.4709
  0
VERTEX
  8
1
 10
1121.5701
 20
544.4541
  0
VERTEX
  8
1
 10
1132.7969
 20
538.4140
  0
VERTEX
  8
1
 10
1169.8910
 20
527.6063
  0
VERTEX
  8
1
 10
1373.2028
 20
493.4103
  0
VERTEX
  8
1
 10
1390.3961
 20
490.5172
  0
SEQEND
  8
1
  0
POLYLINE
  8
1
 66
1
 70
0
  0
VERTEX
  8
1
 10
1390.3961
 20
490.5172
  0
VERTEX
  8
1
 10
1361.8947
 20
377.9825
  0
VERTEX
  8
1
 10
1340.5028
 20
282.1051
  0
VERTEX
  8
1
 10
1324.8107
 20
149.2047
  0
VERTEX
  8
1
 10
1322.3113
 20
65.2044
  0
VERTEX
  8
1
 10
1322.9717
 20
52.5577
  0
SEQEND
  8
1
  0
POLYLINE
  8
1
 66
1
 70
0
  0
VERTEX
  8
1
 10
1322.9717
 20
52.5577
  0
VERTEX
  8
1
 10
1188.6184
 20
38.5522
  0
VERTEX
  8
1
 10
1169.8910
 20
36.6015
  0
VERTEX
  8
1
 10
1159.1646
 20
34.1249
  0
VERTEX
  8
1
 10
1134.9000
 20
27.3330
  0
VERTEX
  8
1
 10
1118.3544
 20
17.6099
  0
VERTEX
  8
1
 10
1112.5251
 20
8.0391
  0
VERTEX
  8
1
 10
1100.8869
 20
-18.1991
  0
SEQEND
  8
1
  0
POLYLINE
  8
1
 66
1
 70
0
  0
VERTEX
  8
1
 10
1100.8869
 20
-18.1991
  0
VERTEX
  8
1
 10
1072.1061
 20
-8.8570
  0
VERTEX
  8
1
 10
1040.0666
 20
1.6282
  0
VERTEX
  8
1
 10
957.9306
 20
28.6309
  0
VERTEX
  8
1
 10
860.6155
 20
60.7264
  0
VERTEX
  8
1
 10
784.8905
 20
83.4695
  0
VERTEX
  8
1
 10
703.8696
 20
103.6930
  0
VERTEX
  8
1
 10
694.2024
 20
105.8749
  0
VERTEX
  8
1
 10
615.0153
 20
123.4517
  0
VERTEX
  8
1
 10
605.9399
 20
125.4659
  0
VERTEX
  8
1
 10
605.9399
 20
125.4659
  0
VERTEX
  8
1
 10
466.2882
 20
153.2535
  0
VERTEX
  8
1
 10
406.8827
 20
159.0548
  0
SEQEND
  8
1
  0
POLYLINE
  8
1
 66
1
 70
0
  0
VERTEX
  8
1
 10
406.8827
 20
159.0548
  0
VERTEX
  8
1
 10
406.8827
 20
405.1554
  0
SEQEND
  8
1
  0
POLYLINE
  8
1
 66
1
 70
0
  0
VERTEX
  8
1
 10
406.8827
 20
405.1554
  0
VERTEX
  8
1
 10
466.2882
 20
410.9517
  0
VERTEX
  8
1
 10
605.9399
 20
438.7368
  0
VERTEX
  8
1
 10
605.9399
 20
438.7368
  0
VERTEX
  8
1
 10
615.0153
 20
440.6723
  0
VERTEX
  8
1
 10
694.2024
 20
457.5988
  0
VERTEX
  8
1
 10
703.8772
 20
459.7274
  0
VERTEX
  8
1
 10
784.8905
 20
480.7382
  0
VERTEX
  8
1
 10
860.6155
 20
507.8223
  0
VERTEX
  8
1
 10
954.1511
 20
545.9883
  0
VERTEX
  8
1
 10
1034.7935
 20
579.0921
  0
VERTEX
  8
1
 10
1066.0838
 20
592.1020
  0
VERTEX
  8
1
 10
1094.1203
 20
603.6234
  0
SEQEND
  8
1
  0
LINE
  8
7
 10
678.6220
 20
292.7147
 11
1134.0897
 21
292.7147
  0
LINE
  8
5
 10
678.6220
 20
292.7147
 11
1134.0897
 21
292.7147
  0
POLYLINE
  8
8
 66
1
 70
0
  0
VERTEX
  8
8
 10
1340.5028
 20
282.1051
  0
VERTEX
  8
8
 10
1169.8910
 20
282.1051
  0
VERTEX
  8
8
 10
1100.8869
 20
282.1051
  0
VERTEX
  8
8
 10
784.8905
 20
282.1051
  0
VERTEX
  8
8
 10
615.0153
 20
282.1051
  0
VERTEX
  8
8
 10
605.8840
 20
282.1051
  0
VERTEX
  8
8
 10
466.2882
 20
282.1051
  0
VERTEX
  8
8
 10
406.8827
 20
282.1051
  0
SEQEND
  8
8
  0
LINE
  8
8
 10
784.8905
 20
480.7382
 11
784.8905
 21
83.4695
  0
POLYLINE
  8
8
 66
1
 70
0
  0
VERTEX
  8
8
 10
1100.8869
 20
606.2041
  0
VERTEX
  8
8
 10
1100.8869
 20
279.6998
  0
VERTEX
  8
8
 10
1100.8869
 20
-18.1991
  0
SEQEND
  8
8
  0
LINE
  8
8
 10
1169.8910
 20
527.6063
 11
1169.8910
 21
36.6015
  0
POLYLINE
  8
8
 66
1
 70
0
  0
VERTEX
  8
8
 10
1058.1336
 20
188.7398
  0
VERTEX
  8
8
 10
865.0352
 20
188.7398
  0
VERTEX
  8
8
 10
865.0352
 20
260.5710
  0
SEQEND
  8
8
  0
LINE
  8
8
 10
1169.8910
 20
476.1053
 11
1169.8910
 21
88.1025
  0
LINE
  8
8
 10
1120.9020
 20
219.9056
 11
1097.8973
 21
219.8878
  0
LINE
  8
8
 10
1120.9325
 20
184.8994
 11
1120.9020
 21
219.9006
  0
LINE
  8
8
 10
1097.9354
 20
184.8867
 11
1120.9325
 21
184.9044
  0
LINE
  8
8
 10
1097.8973
 20
219.8828
 11
1097.9303
 21
184.8816
  0
POLYLINE
  8
8
 66
1
 70
0
  0
VERTEX
  8
8
 10
957.9331
 20
28.6614
  0
VERTEX
  8
8
 10
968.6849
 20
157.2286
  0
VERTEX
  8
8
 10
961.7152
 20
287.4976
  0
VERTEX
  8
8
 10
954.7454
 20
417.7843
  0
VERTEX
  8
8
 10
954.1511
 20
545.9222
  0
SEQEND
  8
8
  0
POLYLINE
  8
8
 66
1
 70
0
  0
VERTEX
  8
8
 10
684.1998
 20
108.0923
  0
VERTEX
  8
8
 10
684.1998
 20
282.1585
  0
VERTEX
  8
8
 10
684.1998
 20
455.4602
  0
SEQEND
  8
8
  0
LINE
  8
8
 10
615.0153
 20
123.4517
 11
615.0153
 21
440.6723
  0
LINE
  8
8
 10
466.2882
 20
153.2535
 11
466.2882
 21
410.9517
  0
LINE
  8
8
 10
860.6155
 20
60.7264
 11
860.6155
 21
507.8223
  0
ENDBLK
  0
BLOCK
  8
0
  2
GLX4802S19SLO_50
 70
64
 10
0.0000
 20
0.0000
  0
TEXT
  8
1
 10
898.6394
 20
292.7122
 40
0.250
 50
0.0000
  1
Piece Name: GLX4802S19SLO
  7
STANDARD
  0
TEXT
  8
1
 10
898.6394
 20
296.2682
 40
0.250
 50
0.0000
  1
SIZE: 50
  7
STANDARD
  0
POLYLINE
  8
1
 66
1
 70
0
  0
VERTEX
  8
1
 10
1089.8709
 20
614.8731
  0
VERTEX
  8
1
 10
1096.6374
 20
582.0284
  0
VERTEX
  8
1
 10
1105.5173
 20
567.7205
  0
VERTEX
  8
1
 10
1117.3206
 20
555.7038
  0
VERTEX
  8
1
 10
1128.4840
 20
549.2623
  0
VERTEX
  8
1
 10
1165.6416
 20
538.1067
  0
VERTEX
  8
1
 10
1376.7918
 20
505.9858
  0
VERTEX
  8
1
 10
1394.6455
 20
503.2680
  0
SEQEND
  8
1
  0
POLYLINE
  8
1
 66
1
 70
0
  0
VERTEX
  8
1
 10
1394.6455
 20
503.2680
  0
VERTEX
  8
1
 10
1365.5117
 20
383.8347
  0
VERTEX
  8
1
 10
1343.7540
 20
282.1051
  0
VERTEX
  8
1
 10
1326.8859
 20
141.8362
  0
VERTEX
  8
1
 10
1324.0513
 20
53.1597
  0
VERTEX
  8
1
 10
1324.7218
 20
39.8069
  0
SEQEND
  8
1
  0
POLYLINE
  8
1
 66
1
 70
0
  0
VERTEX
  8
1
 10
1324.7218
 20
39.8069
  0
VERTEX
  8
1
 10
1185.1031
 20
27.7775
  0
VERTEX
  8
1
 10
1165.6416
 20
26.1011
  0
VERTEX
  8
1
 10
1154.7044
 20
23.6297
  0
VERTEX
  8
1
 10
1129.9470
 20
16.8225
  0
VERTEX
  8
1
 10
1113.1373
 20
6.9419
  0
VERTEX
  8
1
 10
1107.5620
 20
-2.8169
  0
VERTEX
  8
1
 10
1096.6374
 20
-29.4488
  0
SEQEND
  8
1
  0
POLYLINE
  8
1
 66
1
 70
0
  0
VERTEX
  8
1
 10
1096.6374
 20
-29.4488
  0
VERTEX
  8
1
 10
1067.8567
 20
-19.8882
  0
VERTEX
  8
1
 10
1035.8171
 20
-9.1288
  0
VERTEX
  8
1
 10
953.6812
 20
18.5751
  0
VERTEX
  8
1
 10
856.3661
 20
51.7881
  0
VERTEX
  8
1
 10
780.6411
 20
75.3898
  0
VERTEX
  8
1
 10
699.6253
 20
97.0052
  0
VERTEX
  8
1
 10
689.9529
 20
99.3521
  0
VERTEX
  8
1
 10
610.7659
 20
118.2701
  0
VERTEX
  8
1
 10
601.7057
 20
120.4342
  0
VERTEX
  8
1
 10
601.7057
 20
120.4342
  0
VERTEX
  8
1
 10
462.0387
 20
150.3147
  0
VERTEX
  8
1
 10
402.6358
 20
156.5555
  0
SEQEND
  8
1
  0
POLYLINE
  8
1
 66
1
 70
0
  0
VERTEX
  8
1
 10
402.6358
 20
156.5555
  0
VERTEX
  8
1
 10
402.6358
 20
407.6548
  0
SEQEND
  8
1
  0
POLYLINE
  8
1
 66
1
 70
0
  0
VERTEX
  8
1
 10
402.6358
 20
407.6548
  0
VERTEX
  8
1
 10
462.0387
 20
413.8905
  0
VERTEX
  8
1
 10
601.7057
 20
443.7685
  0
VERTEX
  8
1
 10
601.7057
 20
443.7685
  0
VERTEX
  8
1
 10
610.7659
 20
445.8564
  0
VERTEX
  8
1
 10
689.9529
 20
464.1190
  0
VERTEX
  8
1
 10
699.6354
 20
466.4126
  0
VERTEX
  8
1
 10
780.6411
 20
488.8180
  0
VERTEX
  8
1
 10
856.3661
 20
516.7631
  0
VERTEX
  8
1
 10
949.9016
 20
556.0264
  0
VERTEX
  8
1
 10
1030.5441
 20
589.8515
  0
VERTEX
  8
1
 10
1061.8344
 20
603.1408
  0
VERTEX
  8
1
 10
1089.8709
 20
614.8731
  0
SEQEND
  8
1
  0
LINE
  8
7
 10
674.3751
 20
292.7147
 11
1129.8429
 21
292.7147
  0
LINE
  8
5
 10
674.3751
 20
292.7147
 11
1129.8429
 21
292.7147
  0
POLYLINE
  8
8
 66
1
 70
0
  0
VERTEX
  8
8
 10
1343.7540
 20
282.1051
  0
VERTEX
  8
8
 10
1165.6416
 20
282.1051
  0
VERTEX
  8
8
 10
1096.6374
 20
282.1051
  0
VERTEX
  8
8
 10
780.6411
 20
282.1051
  0
VERTEX
  8
8
 10
610.7659
 20
282.1051
  0
VERTEX
  8
8
 10
601.6372
 20
282.1051
  0
VERTEX
  8
8
 10
462.0387
 20
282.1051
  0
VERTEX
  8
8
 10
402.6358
 20
282.1051
  0
SEQEND
  8
8
  0
LINE
  8
8
 10
780.6411
 20
488.8180
 11
780.6411
 21
75.3898
  0
POLYLINE
  8
8
 66
1
 70
0
  0
VERTEX
  8
8
 10
1096.6374
 20
617.4537
  0
VERTEX
  8
8
 10
1096.6374
 20
279.1841
  0
VERTEX
  8
8
 10
1096.6374
 20
-29.4488
  0
SEQEND
  8
8
  0
LINE
  8
8
 10
1165.6416
 20
538.1067
 11
1165.6416
 21
26.1011
  0
POLYLINE
  8
8
 66
1
 70
0
  0
VERTEX
  8
8
 10
1053.8842
 20
188.7398
  0
VERTEX
  8
8
 10
860.7857
 20
188.7398
  0
VERTEX
  8
8
 10
860.7857
 20
260.5710
  0
SEQEND
  8
8
  0
LINE
  8
8
 10
1165.6416
 20
476.1053
 11
1165.6416
 21
88.1025
  0
LINE
  8
8
 10
1116.6526
 20
219.9056
 11
1093.6479
 21
219.8878
  0
LINE
  8
8
 10
1116.6831
 20
184.8994
 11
1116.6526
 21
219.9006
  0
LINE
  8
8
 10
1093.6860
 20
184.8867
 11
1116.6831
 21
184.9044
  0
LINE
  8
8
 10
1093.6479
 20
219.8828
 11
1093.6809
 21
184.8816
  0
POLYLINE
  8
8
 66
1
 70
0
  0
VERTEX
  8
8
 10
953.6862
 20
18.6056
  0
VERTEX
  8
8
 10
964.8927
 20
152.1638
  0
VERTEX
  8
8
 10
957.6867
 20
287.4950
  0
VERTEX
  8
8
 10
950.4833
 20
422.8465
  0
VERTEX
  8
8
 10
949.9016
 20
555.9603
  0
SEQEND
  8
8
  0
POLYLINE
  8
8
 66
1
 70
0
  0
VERTEX
  8
8
 10
679.9530
 20
101.7398
  0
VERTEX
  8
8
 10
679.9530
 20
282.1737
  0
VERTEX
  8
8
 10
679.9530
 20
461.8127
  0
SEQEND
  8
8
  0
LINE
  8
8
 10
610.7659
 20
118.2701
 11
610.7659
 21
445.8564
  0
LINE
  8
8
 10
462.0387
 20
150.3147
 11
462.0387
 21
413.8905
  0
LINE
  8
8
 10
856.3661
 20
51.7881
 11
856.3661
 21
516.7631
  0
ENDBLK
  0
BLOCK
  8
0
  2
GLX4802S19SLO_52
 70
64
 10
0.0000
 20
0.0000
  0
TEXT
  8
1
 10
898.6394
 20
292.7122
 40
0.250
 50
0.0000
  1
Piece Name: GLX4802S19SLO
  7
STANDARD
  0
TEXT
  8
1
 10
898.6394
 20
296.2682
 40
0.250
 50
0.0000
  1
SIZE: 52
  7
STANDARD
  0
POLYLINE
  8
1
 66
1
 70
0
  0
VERTEX
  8
1
 10
1085.6215
 20
626.1228
  0
VERTEX
  8
1
 10
1092.3880
 20
593.2780
  0
VERTEX
  8
1
 10
1101.2679
 20
578.9702
  0
VERTEX
  8
1
 10
1113.0712
 20
566.9534
  0
VERTEX
  8
1
 10
1124.1863
 20
560.2097
  0
VERTEX
  8
1
 10
1161.3922
 20
548.6070
  0
VERTEX
  8
1
 10
1380.3783
 20
518.5614
  0
VERTEX
  8
1
 10
1398.8949
 20
516.0188
  0
SEQEND
  8
1
  0
POLYLINE
  8
1
 66
1
 70
0
  0
VERTEX
  8
1
 10
1398.8949
 20
516.0188
  0
VERTEX
  8
1
 10
1369.1312
 20
389.6843
  0
VERTEX
  8
1
 10
1347.0052
 20
282.1051
  0
VERTEX
  8
1
 10
1328.9611
 20
134.4651
  0
VERTEX
  8
1
 10
1325.7962
 20
41.1150
  0
VERTEX
  8
1
 10
1326.4719
 20
27.0561
  0
SEQEND
  8
1
  0
POLYLINE
  8
1
 66
1
 70
0
  0
VERTEX
  8
1
 10
1326.4719
 20
27.0561
  0
VERTEX
  8
1
 10
1181.5877
 20
17.0028
  0
VERTEX
  8
1
 10
1161.3922
 20
15.6007
  0
VERTEX
  8
1
 10
1150.2441
 20
13.1014
  0
VERTEX
  8
1
 10
1125.0092
 20
6.2154
  0
VERTEX
  8
1
 10
1107.9354
 20
-3.7593
  0
VERTEX
  8
1
 10
1102.6115
 20
-13.6983
  0
VERTEX
  8
1
 10
1092.3880
 20
-40.6985
  0
SEQEND
  8
1
  0
POLYLINE
  8
1
 66
1
 70
0
  0
VERTEX
  8
1
 10
1092.3880
 20
-40.6985
  0
VERTEX
  8
1
 10
1063.6073
 20
-30.9195
  0
VERTEX
  8
1
 10
1031.5703
 20
-19.8832
  0
VERTEX
  8
1
 10
949.4343
 20
8.5294
  0
VERTEX
  8
1
 10
852.1167
 20
42.8372
  0
VERTEX
  8
1
 10
776.3917
 20
67.3101
  0
VERTEX
  8
1
 10
695.3784
 20
90.3148
  0
VERTEX
  8
1
 10
685.7035
 20
92.8269
  0
VERTEX
  8
1
 10
606.5190
 20
113.0859
  0
VERTEX
  8
1
 10
597.4665
 20
115.4024
  0
VERTEX
  8
1
 10
597.4665
 20
115.4024
  0
VERTEX
  8
1
 10
457.7919
 20
147.3734
  0
VERTEX
  8
1
 10
398.3863
 20
154.0561
  0
SEQEND
  8
1
  0
POLYLINE
  8
1
 66
1
 70
0
  0
VERTEX
  8
1
 10
398.3863
 20
154.0561
  0
VERTEX
  8
1
 10
398.3863
 20
410.1542
  0
SEQEND
  8
1
  0
POLYLINE
  8
1
 66
1
 70
0
  0
VERTEX
  8
1
 10
398.3863
 20
410.1542
  0
VERTEX
  8
1
 10
457.7919
 20
416.8318
  0
VERTEX
  8
1
 10
597.4665
 20
448.8003
  0
VERTEX
  8
1
 10
597.4665
 20
448.8003
  0
VERTEX
  8
1
 10
606.5190
 20
451.0380
  0
VERTEX
  8
1
 10
685.7035
 20
470.6392
  0
VERTEX
  8
1
 10
695.3936
 20
473.0979
  0
VERTEX
  8
1
 10
776.3917
 20
496.8977
  0
VERTEX
  8
1
 10
852.1167
 20
525.7038
  0
VERTEX
  8
1
 10
945.6548
 20
566.0644
  0
VERTEX
  8
1
 10
1026.2997
 20
600.6110
  0
VERTEX
  8
1
 10
1057.5849
 20
614.1797
  0
VERTEX
  8
1
 10
1085.6215
 20
626.1228
  0
SEQEND
  8
1
  0
LINE
  8
7
 10
670.1257
 20
292.7147
 11
1125.5934
 21
292.7147
  0
LINE
  8
5
 10
670.1257
 20
292.7147
 11
1125.5934
 21
292.7147
  0
POLYLINE
  8
8
 66
1
 70
0
  0
VERTEX
  8
8
 10
1347.0052
 20
282.1051
  0
VERTEX
  8
8
 10
1161.3922
 20
282.1051
  0
VERTEX
  8
8
 10
1092.3880
 20
282.1051
  0
VERTEX
  8
8
 10
776.3917
 20
282.1051
  0
VERTEX
  8
8
 10
606.5190
 20
282.1051
  0
VERTEX
  8
8
 10
597.3877
 20
282.1051
  0
VERTEX
  8
8
 10
457.7919
 20
282.1051
  0
VERTEX
  8
8
 10
398.3863
 20
282.1051
  0
SEQEND
  8
8
  0
LINE
  8
8
 10
776.3917
 20
496.8977
 11
776.3917
 21
67.3101
  0
POLYLINE
  8
8
 66
1
 70
0
  0
VERTEX
  8
8
 10
1092.3880
 20
628.7034
  0
VERTEX
  8
8
 10
1092.3880
 20
278.6685
  0
VERTEX
  8
8
 10
1092.3880
 20
-40.6985
  0
SEQEND
  8
8
  0
LINE
  8
8
 10
1161.3922
 20
548.6070
 11
1161.3922
 21
15.6007
  0
POLYLINE
  8
8
 66
1
 70
0
  0
VERTEX
  8
8
 10
1049.6347
 20
188.7398
  0
VERTEX
  8
8
 10
856.5389
 20
188.7398
  0
VERTEX
  8
8
 10
856.5389
 20
260.5710
  0
SEQEND
  8
8
  0
LINE
  8
8
 10
1161.3922
 20
476.1053
 11
1161.3922
 21
88.1025
  0
LINE
  8
8
 10
1112.4032
 20
219.9056
 11
1089.4010
 21
219.8878
  0
LINE
  8
8
 10
1112.4337
 20
184.8994
 11
1112.4032
 21
219.9006
  0
LINE
  8
8
 10
1089.4365
 20
184.8867
 11
1112.4362
 21
184.9044
  0
LINE
  8
8
 10
1089.4010
 20
219.8828
 11
1089.4315
 21
184.8816
  0
POLYLINE
  8
8
 66
1
 70
0
  0
VERTEX
  8
8
 10
949.4368
 20
8.5599
  0
VERTEX
  8
8
 10
961.0979
 20
147.1067
  0
VERTEX
  8
8
 10
953.6583
 20
287.4976
  0
VERTEX
  8
8
 10
946.2212
 20
427.9088
  0
VERTEX
  8
8
 10
945.6548
 20
565.9984
  0
SEQEND
  8
8
  0
POLYLINE
  8
8
 66
1
 70
0
  0
VERTEX
  8
8
 10
675.7035
 20
95.3847
  0
VERTEX
  8
8
 10
675.7035
 20
282.1839
  0
VERTEX
  8
8
 10
675.7035
 20
468.1627
  0
SEQEND
  8
8
  0
LINE
  8
8
 10
606.5190
 20
113.0859
 11
606.5190
 21
451.0380
  0
LINE
  8
8
 10
457.7919
 20
147.3734
 11
457.7919
 21
416.8318
  0
LINE
  8
8
 10
852.1167
 20
42.8372
 11
852.1167
 21
525.7038
  0
ENDBLK
  0
BLOCK
  8
0
  2
GLX4802S19SLL_26
 70
64
 10
0.0000
 20
0.0000
  0
TEXT
  8
1
 10
1887.9490
 20
292.7122
 40
0.250
 50
0.0000
  1
Piece Name: GLX4802S19SLL
  7
STANDARD
  0
TEXT
  8
1
 10
1887.9490
 20
296.2682
 40
0.250
 50
0.0000
  1
SIZE: 26
  7
STANDARD
  0
POLYLINE
  8
1
 66
1
 70
0
  0
VERTEX
  8
1
 10
2116.9681
 20
513.6185
  0
VERTEX
  8
1
 10
2123.7372
 20
480.7738
  0
VERTEX
  8
1
 10
2132.6145
 20
466.4660
  0
VERTEX
  8
1
 10
2144.4179
 20
454.4492
  0
VERTEX
  8
1
 10
2155.6828
 20
448.6148
  0
VERTEX
  8
1
 10
2192.7389
 20
438.6022
  0
VERTEX
  8
1
 10
2333.8130
 20
399.3414
  0
VERTEX
  8
1
 10
2345.7434
 20
396.0191
  0
SEQEND
  8
1
  0
POLYLINE
  8
1
 66
1
 70
0
  0
VERTEX
  8
1
 10
2345.7434
 20
396.0191
  0
VERTEX
  8
1
 10
2320.6202
 20
334.6349
  0
VERTEX
  8
1
 10
2300.8565
 20
282.1051
  0
VERTEX
  8
1
 10
2290.3384
 20
203.9697
  0
VERTEX
  8
1
 10
2288.0574
 20
154.5108
  0
VERTEX
  8
1
 10
2288.3267
 20
147.0559
  0
SEQEND
  8
1
  0
POLYLINE
  8
1
 66
1
 70
0
  0
VERTEX
  8
1
 10
2288.3267
 20
147.0559
  0
VERTEX
  8
1
 10
2204.4305
 20
128.2294
  0
VERTEX
  8
1
 10
2192.7389
 20
125.6056
  0
VERTEX
  8
1
 10
2182.5636
 20
122.9589
  0
VERTEX
  8
1
 10
2159.5665
 20
115.8317
  0
VERTEX
  8
1
 10
2143.8210
 20
105.8469
  0
VERTEX
  8
1
 10
2137.3034
 20
96.8401
  0
VERTEX
  8
1
 10
2123.7372
 20
71.8059
  0
SEQEND
  8
1
  0
POLYLINE
  8
1
 66
1
 70
0
  0
VERTEX
  8
1
 10
2123.7372
 20
71.8059
  0
VERTEX
  8
1
 10
2094.9540
 20
79.6976
  0
VERTEX
  8
1
 10
2067.1308
 20
87.3049
  0
VERTEX
  8
1
 10
1995.7822
 20
106.9086
  0
VERTEX
  8
1
 10
1883.4253
 20
135.1027
  0
VERTEX
  8
1
 10
1807.7384
 20
151.8082
  0
VERTEX
  8
1
 10
1726.6133
 20
160.7770
  0
VERTEX
  8
1
 10
1687.2941
 20
164.2212
  0
VERTEX
  8
1
 10
1628.6963
 20
169.0421
  0
VERTEX
  8
1
 10
1628.6963
 20
169.0421
  0
VERTEX
  8
1
 10
1491.6557
 20
180.6855
  0
VERTEX
  8
1
 10
1430.1572
 20
181.9428
  0
SEQEND
  8
1
  0
POLYLINE
  8
1
 66
1
 70
0
  0
VERTEX
  8
1
 10
1430.1572
 20
181.9428
  0
VERTEX
  8
1
 10
1430.1572
 20
382.0643
  0
SEQEND
  8
1
  0
POLYLINE
  8
1
 66
1
 70
0
  0
VERTEX
  8
1
 10
1430.1572
 20
382.0643
  0
VERTEX
  8
1
 10
1489.3773
 20
383.3241
  0
VERTEX
  8
1
 10
1628.6963
 20
395.1606
  0
VERTEX
  8
1
 10
1628.6963
 20
395.1606
  0
VERTEX
  8
1
 10
1687.3627
 20
399.4557
  0
VERTEX
  8
1
 10
1726.5676
 20
402.6713
  0
VERTEX
  8
1
 10
1807.7384
 20
412.3995
  0
VERTEX
  8
1
 10
1882.2975
 20
433.0116
  0
VERTEX
  8
1
 10
1992.0001
 20
468.9704
  0
VERTEX
  8
1
 10
2061.8298
 20
493.7227
  0
VERTEX
  8
1
 10
2088.9342
 20
503.4662
  0
VERTEX
  8
1
 10
2116.9681
 20
513.6185
  0
SEQEND
  8
1
  0
LINE
  8
7
 10
1701.4724
 20
292.7147
 11
2156.9376
 21
292.7147
  0
LINE
  8
5
 10
1701.4724
 20
292.7147
 11
2156.9376
 21
292.7147
  0
POLYLINE
  8
8
 66
1
 70
0
  0
VERTEX
  8
8
 10
2300.8565
 20
282.1051
  0
VERTEX
  8
8
 10
2192.7389
 20
282.1051
  0
VERTEX
  8
8
 10
2123.7372
 20
282.1051
  0
VERTEX
  8
8
 10
1807.7384
 20
282.1051
  0
VERTEX
  8
8
 10
1628.7344
 20
282.1051
  0
VERTEX
  8
8
 10
1429.7356
 20
282.1051
  0
SEQEND
  8
8
  0
LINE
  8
8
 10
1628.6963
 20
395.1606
 11
1628.6963
 21
169.0421
  0
LINE
  8
8
 10
1807.7384
 20
412.3995
 11
1807.7384
 21
151.8082
  0
POLYLINE
  8
8
 66
1
 70
0
  0
VERTEX
  8
8
 10
2123.7372
 20
516.1992
  0
VERTEX
  8
8
 10
2123.7372
 20
283.8222
  0
VERTEX
  8
8
 10
2123.7372
 20
71.8059
  0
SEQEND
  8
8
  0
LINE
  8
8
 10
2192.7389
 20
438.6022
 11
2192.7389
 21
125.6056
  0
POLYLINE
  8
8
 66
1
 70
0
  0
VERTEX
  8
8
 10
2080.9814
 20
188.7398
  0
VERTEX
  8
8
 10
1887.8855
 20
188.7398
  0
VERTEX
  8
8
 10
1887.8855
 20
260.5710
  0
SEQEND
  8
8
  0
LINE
  8
8
 10
2192.7389
 20
476.1053
 11
2192.7389
 21
88.1025
  0
LINE
  8
8
 10
2143.7499
 20
219.9056
 11
2120.7502
 21
219.8878
  0
LINE
  8
8
 10
2143.7804
 20
184.8994
 11
2143.7499
 21
219.9006
  0
LINE
  8
8
 10
2120.7832
 20
184.8867
 11
2143.7804
 21
184.9044
  0
LINE
  8
8
 10
2120.7502
 20
219.8828
 11
2120.7807
 21
184.8816
  0
POLYLINE
  8
8
 66
1
 70
0
  0
VERTEX
  8
8
 10
1995.7847
 20
106.9417
  0
VERTEX
  8
8
 10
2003.0237
 20
196.9339
  0
VERTEX
  8
8
 10
1997.8599
 20
288.0792
  0
VERTEX
  8
8
 10
1992.6961
 20
379.2373
  0
VERTEX
  8
8
 10
1992.0001
 20
468.9044
  0
SEQEND
  8
8
  0
ENDBLK
  0
BLOCK
  8
0
  2
GLX4802S19SLL_28
 70
64
 10
0.0000
 20
0.0000
  0
TEXT
  8
1
 10
1887.9490
 20
292.7122
 40
0.250
 50
0.0000
  1
Piece Name: GLX4802S19SLL
  7
STANDARD
  0
TEXT
  8
1
 10
1887.9490
 20
296.2682
 40
0.250
 50
0.0000
  1
SIZE: 28
  7
STANDARD
  0
POLYLINE
  8
1
 66
1
 70
0
  0
VERTEX
  8
1
 10
2115.0174
 20
521.1191
  0
VERTEX
  8
1
 10
2121.7865
 20
488.2744
  0
VERTEX
  8
1
 10
2130.6638
 20
473.9666
  0
VERTEX
  8
1
 10
2142.4672
 20
461.9499
  0
VERTEX
  8
1
 10
2153.7321
 20
456.1155
  0
VERTEX
  8
1
 10
2190.7881
 20
446.1028
  0
VERTEX
  8
1
 10
2335.4589
 20
407.3018
  0
VERTEX
  8
1
 10
2347.6916
 20
404.0201
  0
SEQEND
  8
1
  0
POLYLINE
  8
1
 66
1
 70
0
  0
VERTEX
  8
1
 10
2347.6916
 20
404.0201
  0
VERTEX
  8
1
 10
2322.5125
 20
338.3001
  0
VERTEX
  8
1
 10
2302.8047
 20
282.1051
  0
VERTEX
  8
1
 10
2292.0961
 20
199.3215
  0
VERTEX
  8
1
 10
2289.9523
 20
146.9467
  0
VERTEX
  8
1
 10
2290.2749
 20
139.0549
  0
SEQEND
  8
1
  0
POLYLINE
  8
1
 66
1
 70
0
  0
VERTEX
  8
1
 10
2290.2749
 20
139.0549
  0
VERTEX
  8
1
 10
2202.9598
 20
120.6678
  0
VERTEX
  8
1
 10
2190.7881
 20
118.1050
  0
VERTEX
  8
1
 10
2180.5850
 20
115.4812
  0
VERTEX
  8
1
 10
2157.5269
 20
108.4073
  0
VERTEX
  8
1
 10
2141.7433
 20
98.4454
  0
VERTEX
  8
1
 10
2135.2587
 20
89.4081
  0
VERTEX
  8
1
 10
2121.7865
 20
64.3052
  0
SEQEND
  8
1
  0
POLYLINE
  8
1
 66
1
 70
0
  0
VERTEX
  8
1
 10
2121.7865
 20
64.3052
  0
VERTEX
  8
1
 10
2093.0032
 20
72.3088
  0
VERTEX
  8
1
 10
2065.1801
 20
80.0304
  0
VERTEX
  8
1
 10
1993.8315
 20
99.9287
  0
VERTEX
  8
1
 10
1881.4822
 20
128.7450
  0
VERTEX
  8
1
 10
1805.7877
 20
145.8672
  0
VERTEX
  8
1
 10
1724.6829
 20
155.8138
  0
VERTEX
  8
1
 10
1685.3586
 20
159.7305
  0
VERTEX
  8
1
 10
1626.7532
 20
165.2550
  0
VERTEX
  8
1
 10
1626.7532
 20
165.2550
  0
VERTEX
  8
1
 10
1489.7354
 20
178.1353
  0
VERTEX
  8
1
 10
1428.2090
 20
179.9438
  0
SEQEND
  8
1
  0
POLYLINE
  8
1
 66
1
 70
0
  0
VERTEX
  8
1
 10
1428.2090
 20
179.9438
  0
VERTEX
  8
1
 10
1428.2090
 20
384.0633
  0
SEQEND
  8
1
  0
POLYLINE
  8
1
 66
1
 70
0
  0
VERTEX
  8
1
 10
1428.2090
 20
384.0633
  0
VERTEX
  8
1
 10
1487.4520
 20
385.8540
  0
VERTEX
  8
1
 10
1626.7532
 20
398.9477
  0
VERTEX
  8
1
 10
1626.7532
 20
398.9477
  0
VERTEX
  8
1
 10
1685.4348
 20
403.9464
  0
VERTEX
  8
1
 10
1724.6474
 20
407.6345
  0
VERTEX
  8
1
 10
1805.7877
 20
418.3406
  0
VERTEX
  8
1
 10
1880.3621
 20
439.3693
  0
VERTEX
  8
1
 10
1990.0520
 20
475.9503
  0
VERTEX
  8
1
 10
2059.8816
 20
500.9973
  0
VERTEX
  8
1
 10
2086.9834
 20
510.8550
  0
VERTEX
  8
1
 10
2115.0174
 20
521.1191
  0
SEQEND
  8
1
  0
LINE
  8
7
 10
1699.5217
 20
292.7147
 11
2154.9894
 21
292.7147
  0
LINE
  8
5
 10
1699.5217
 20
292.7147
 11
2154.9894
 21
292.7147
  0
POLYLINE
  8
8
 66
1
 70
0
  0
VERTEX
  8
8
 10
2302.8047
 20
282.1051
  0
VERTEX
  8
8
 10
2190.7881
 20
282.1051
  0
VERTEX
  8
8
 10
2121.7865
 20
282.1051
  0
VERTEX
  8
8
 10
1805.7877
 20
282.1051
  0
VERTEX
  8
8
 10
1626.7862
 20
282.1051
  0
VERTEX
  8
8
 10
1427.7849
 20
282.1051
  0
SEQEND
  8
8
  0
LINE
  8
8
 10
1626.7532
 20
398.9477
 11
1626.7532
 21
165.2550
  0
LINE
  8
8
 10
1805.7877
 20
418.3406
 11
1805.7877
 21
145.8672
  0
POLYLINE
  8
8
 66
1
 70
0
  0
VERTEX
  8
8
 10
2121.7865
 20
523.6998
  0
VERTEX
  8
8
 10
2121.7865
 20
283.4793
  0
VERTEX
  8
8
 10
2121.7865
 20
64.3052
  0
SEQEND
  8
8
  0
LINE
  8
8
 10
2190.7881
 20
446.1028
 11
2190.7881
 21
118.1050
  0
POLYLINE
  8
8
 66
1
 70
0
  0
VERTEX
  8
8
 10
2079.0307
 20
188.7398
  0
VERTEX
  8
8
 10
1885.9348
 20
188.7398
  0
VERTEX
  8
8
 10
1885.9348
 20
260.5710
  0
SEQEND
  8
8
  0
LINE
  8
8
 10
2190.7881
 20
476.1053
 11
2190.7881
 21
88.1025
  0
LINE
  8
8
 10
2141.7992
 20
219.9056
 11
2118.7995
 21
219.8878
  0
LINE
  8
8
 10
2141.8297
 20
184.8994
 11
2141.7992
 21
219.9006
  0
LINE
  8
8
 10
2118.8325
 20
184.8867
 11
2141.8322
 21
184.9044
  0
LINE
  8
8
 10
2118.7995
 20
219.8828
 11
2118.8299
 21
184.8816
  0
POLYLINE
  8
8
 66
1
 70
0
  0
VERTEX
  8
8
 10
1993.8340
 20
99.9617
  0
VERTEX
  8
8
 10
2001.3930
 20
193.4211
  0
VERTEX
  8
8
 10
1996.0641
 20
288.0818
  0
VERTEX
  8
8
 10
1990.7378
 20
382.7577
  0
VERTEX
  8
8
 10
1990.0520
 20
475.8843
  0
SEQEND
  8
8
  0
ENDBLK
  0
BLOCK
  8
0
  2
GLX4802S19SLL_30
 70
64
 10
0.0000
 20
0.0000
  0
TEXT
  8
1
 10
1887.9516
 20
292.7122
 40
0.250
 50
0.0000
  1
Piece Name: GLX4802S19SLL
  7
STANDARD
  0
TEXT
  8
1
 10
1887.9516
 20
296.2682
 40
0.250
 50
0.0000
  1
SIZE: 30
  7
STANDARD
  0
POLYLINE
  8
1
 66
1
 70
0
  0
VERTEX
  8
1
 10
2113.0692
 20
528.6198
  0
VERTEX
  8
1
 10
2119.8383
 20
495.7750
  0
VERTEX
  8
1
 10
2128.7156
 20
481.4672
  0
VERTEX
  8
1
 10
2140.5190
 20
469.4505
  0
VERTEX
  8
1
 10
2151.7966
 20
463.6948
  0
VERTEX
  8
1
 10
2188.8400
 20
453.6034
  0
VERTEX
  8
1
 10
2337.1049
 20
415.2647
  0
VERTEX
  8
1
 10
2349.6423
 20
412.0211
  0
SEQEND
  8
1
  0
POLYLINE
  8
1
 66
1
 70
0
  0
VERTEX
  8
1
 10
2349.6423
 20
412.0211
  0
VERTEX
  8
1
 10
2324.4074
 20
341.9679
  0
VERTEX
  8
1
 10
2304.7554
 20
282.1051
  0
VERTEX
  8
1
 10
2293.8537
 20
194.6758
  0
VERTEX
  8
1
 10
2291.8471
 20
139.3826
  0
VERTEX
  8
1
 10
2292.2256
 20
131.0539
  0
SEQEND
  8
1
  0
POLYLINE
  8
1
 66
1
 70
0
  0
VERTEX
  8
1
 10
2292.2256
 20
131.0539
  0
VERTEX
  8
1
 10
2201.4866
 20
113.1063
  0
VERTEX
  8
1
 10
2188.8400
 20
110.6044
  0
VERTEX
  8
1
 10
2178.6139
 20
107.9882
  0
VERTEX
  8
1
 10
2155.4999
 20
100.9244
  0
VERTEX
  8
1
 10
2139.6681
 20
91.0438
  0
VERTEX
  8
1
 10
2133.2140
 20
81.9735
  0
VERTEX
  8
1
 10
2119.8383
 20
56.8046
  0
SEQEND
  8
1
  0
POLYLINE
  8
1
 66
1
 70
0
  0
VERTEX
  8
1
 10
2119.8383
 20
56.8046
  0
VERTEX
  8
1
 10
2091.0550
 20
64.8996
  0
VERTEX
  8
1
 10
2063.2319
 20
72.7431
  0
VERTEX
  8
1
 10
1991.8833
 20
92.9488
  0
VERTEX
  8
1
 10
1879.5416
 20
122.3874
  0
VERTEX
  8
1
 10
1803.8395
 20
139.9261
  0
VERTEX
  8
1
 10
1722.7525
 20
150.8481
  0
VERTEX
  8
1
 10
1683.4282
 20
155.2372
  0
VERTEX
  8
1
 10
1624.8152
 20
161.4653
  0
VERTEX
  8
1
 10
1624.8152
 20
161.4653
  0
VERTEX
  8
1
 10
1487.8152
 20
175.5826
  0
VERTEX
  8
1
 10
1426.2608
 20
177.9448
  0
SEQEND
  8
1
  0
POLYLINE
  8
1
 66
1
 70
0
  0
VERTEX
  8
1
 10
1426.2608
 20
177.9448
  0
VERTEX
  8
1
 10
1426.2608
 20
386.0623
  0
SEQEND
  8
1
  0
POLYLINE
  8
1
 66
1
 70
0
  0
VERTEX
  8
1
 10
1426.2608
 20
386.0623
  0
VERTEX
  8
1
 10
1485.5318
 20
388.3864
  0
VERTEX
  8
1
 10
1624.8152
 20
402.7374
  0
VERTEX
  8
1
 10
1624.8152
 20
402.7374
  0
VERTEX
  8
1
 10
1683.5095
 20
408.4397
  0
VERTEX
  8
1
 10
1722.7246
 20
412.5976
  0
VERTEX
  8
1
 10
1803.8395
 20
424.2817
  0
VERTEX
  8
1
 10
1878.4266
 20
445.7269
  0
VERTEX
  8
1
 10
1988.1038
 20
482.9303
  0
VERTEX
  8
1
 10
2057.9335
 20
508.3074
  0
VERTEX
  8
1
 10
2085.0352
 20
518.2947
  0
VERTEX
  8
1
 10
2113.0692
 20
528.6198
  0
SEQEND
  8
1
  0
LINE
  8
7
 10
1697.5735
 20
292.7147
 11
2153.0412
 21
292.7147
  0
LINE
  8
5
 10
1697.5735
 20
292.7147
 11
2153.0412
 21
292.7147
  0
POLYLINE
  8
8
 66
1
 70
0
  0
VERTEX
  8
8
 10
2304.7554
 20
282.1051
  0
VERTEX
  8
8
 10
2188.8400
 20
282.1051
  0
VERTEX
  8
8
 10
2119.8383
 20
282.1051
  0
VERTEX
  8
8
 10
1803.8395
 20
282.1051
  0
VERTEX
  8
8
 10
1624.8381
 20
282.1051
  0
VERTEX
  8
8
 10
1425.8367
 20
282.1051
  0
SEQEND
  8
8
  0
LINE
  8
8
 10
1624.8152
 20
402.7374
 11
1624.8152
 21
161.4653
  0
LINE
  8
8
 10
1803.8395
 20
424.2817
 11
1803.8395
 21
139.9261
  0
POLYLINE
  8
8
 66
1
 70
0
  0
VERTEX
  8
8
 10
2119.8383
 20
531.2004
  0
VERTEX
  8
8
 10
2119.8383
 20
283.1339
  0
VERTEX
  8
8
 10
2119.8383
 20
56.8046
  0
SEQEND
  8
8
  0
LINE
  8
8
 10
2188.8400
 20
453.6034
 11
2188.8400
 21
110.6044
  0
POLYLINE
  8
8
 66
1
 70
0
  0
VERTEX
  8
8
 10
2077.0825
 20
188.7398
  0
VERTEX
  8
8
 10
1883.9866
 20
188.7398
  0
VERTEX
  8
8
 10
1883.9866
 20
260.5710
  0
SEQEND
  8
8
  0
LINE
  8
8
 10
2188.8400
 20
476.1053
 11
2188.8400
 21
88.1025
  0
LINE
  8
8
 10
2139.8510
 20
219.9056
 11
2116.8513
 21
219.8878
  0
LINE
  8
8
 10
2139.8815
 20
184.8994
 11
2139.8510
 21
219.9006
  0
LINE
  8
8
 10
2116.8843
 20
184.8867
 11
2139.8840
 21
184.9044
  0
LINE
  8
8
 10
2116.8513
 20
219.8828
 11
2116.8818
 21
184.8816
  0
POLYLINE
  8
8
 66
1
 70
0
  0
VERTEX
  8
8
 10
1991.8858
 20
92.9818
  0
VERTEX
  8
8
 10
1999.7598
 20
189.9082
  0
VERTEX
  8
8
 10
1994.2709
 20
288.0869
  0
VERTEX
  8
8
 10
1988.7794
 20
386.2807
  0
VERTEX
  8
8
 10
1988.1038
 20
482.8642
  0
SEQEND
  8
8
  0
ENDBLK
  0
BLOCK
  8
0
  2
GLX4802S19SLL_32
 70
64
 10
0.0000
 20
0.0000
  0
TEXT
  8
1
 10
1887.9490
 20
292.7122
 40
0.250
 50
0.0000
  1
Piece Name: GLX4802S19SLL
  7
STANDARD
  0
TEXT
  8
1
 10
1887.9490
 20
296.2682
 40
0.250
 50
0.0000
  1
SIZE: 32
  7
STANDARD
  0
POLYLINE
  8
1
 66
1
 70
0
  0
VERTEX
  8
1
 10
2111.1185
 20
536.1204
  0
VERTEX
  8
1
 10
2117.8876
 20
503.2756
  0
VERTEX
  8
1
 10
2126.7649
 20
488.9678
  0
VERTEX
  8
1
 10
2138.5683
 20
476.9511
  0
VERTEX
  8
1
 10
2149.8586
 20
471.2767
  0
VERTEX
  8
1
 10
2186.8893
 20
461.1040
  0
VERTEX
  8
1
 10
2338.7508
 20
423.2276
  0
VERTEX
  8
1
 10
2351.5905
 20
420.0221
  0
SEQEND
  8
1
  0
POLYLINE
  8
1
 66
1
 70
0
  0
VERTEX
  8
1
 10
2351.5905
 20
420.0221
  0
VERTEX
  8
1
 10
2326.2971
 20
345.6356
  0
VERTEX
  8
1
 10
2306.7036
 20
282.1051
  0
VERTEX
  8
1
 10
2295.6114
 20
190.0276
  0
VERTEX
  8
1
 10
2293.7394
 20
131.8184
  0
VERTEX
  8
1
 10
2294.1738
 20
123.0529
  0
SEQEND
  8
1
  0
POLYLINE
  8
1
 66
1
 70
0
  0
VERTEX
  8
1
 10
2294.1738
 20
123.0529
  0
VERTEX
  8
1
 10
2200.0160
 20
105.5447
  0
VERTEX
  8
1
 10
2186.8893
 20
103.1037
  0
VERTEX
  8
1
 10
2176.6404
 20
100.4926
  0
VERTEX
  8
1
 10
2153.4705
 20
93.4390
  0
VERTEX
  8
1
 10
2137.5904
 20
83.6397
  0
VERTEX
  8
1
 10
2131.1693
 20
74.5389
  0
VERTEX
  8
1
 10
2117.8876
 20
49.3040
  0
SEQEND
  8
1
  0
POLYLINE
  8
1
 66
1
 70
0
  0
VERTEX
  8
1
 10
2117.8876
 20
49.3040
  0
VERTEX
  8
1
 10
2089.1043
 20
57.5183
  0
VERTEX
  8
1
 10
2061.2812
 20
65.4736
  0
VERTEX
  8
1
 10
1989.9326
 20
85.9689
  0
VERTEX
  8
1
 10
1877.5985
 20
116.0298
  0
VERTEX
  8
1
 10
1801.8888
 20
133.9851
  0
VERTEX
  8
1
 10
1720.8196
 20
145.8850
  0
VERTEX
  8
1
 10
1681.4927
 20
150.7465
  0
VERTEX
  8
1
 10
1622.8721
 20
157.6782
  0
VERTEX
  8
1
 10
1622.8721
 20
157.6782
  0
VERTEX
  8
1
 10
1485.8899
 20
173.0325
  0
VERTEX
  8
1
 10
1424.3101
 20
175.9459
  0
SEQEND
  8
1
  0
POLYLINE
  8
1
 66
1
 70
0
  0
VERTEX
  8
1
 10
1424.3101
 20
175.9459
  0
VERTEX
  8
1
 10
1424.3101
 20
388.0612
  0
SEQEND
  8
1
  0
POLYLINE
  8
1
 66
1
 70
0
  0
VERTEX
  8
1
 10
1424.3101
 20
388.0612
  0
VERTEX
  8
1
 10
1483.6064
 20
390.9162
  0
VERTEX
  8
1
 10
1622.8721
 20
406.5245
  0
VERTEX
  8
1
 10
1622.8721
 20
406.5245
  0
VERTEX
  8
1
 10
1681.5817
 20
412.9329
  0
VERTEX
  8
1
 10
1720.8018
 20
417.5608
  0
VERTEX
  8
1
 10
1801.8888
 20
430.2227
  0
VERTEX
  8
1
 10
1876.4860
 20
452.0845
  0
VERTEX
  8
1
 10
1986.1530
 20
489.9102
  0
VERTEX
  8
1
 10
2055.9827
 20
515.5769
  0
VERTEX
  8
1
 10
2083.0845
 20
525.6759
  0
VERTEX
  8
1
 10
2111.1185
 20
536.1204
  0
SEQEND
  8
1
  0
LINE
  8
7
 10
1695.6228
 20
292.7147
 11
2151.0905
 21
292.7147
  0
LINE
  8
5
 10
1695.6228
 20
292.7147
 11
2151.0905
 21
292.7147
  0
POLYLINE
  8
8
 66
1
 70
0
  0
VERTEX
  8
8
 10
2306.7036
 20
282.1051
  0
VERTEX
  8
8
 10
2186.8893
 20
282.1051
  0
VERTEX
  8
8
 10
2117.8876
 20
282.1051
  0
VERTEX
  8
8
 10
1801.8888
 20
282.1051
  0
VERTEX
  8
8
 10
1622.8873
 20
282.1051
  0
VERTEX
  8
8
 10
1423.8860
 20
282.1051
  0
SEQEND
  8
8
  0
LINE
  8
8
 10
1622.8721
 20
406.5245
 11
1622.8721
 21
157.6782
  0
LINE
  8
8
 10
1801.8888
 20
430.2227
 11
1801.8888
 21
133.9851
  0
POLYLINE
  8
8
 66
1
 70
0
  0
VERTEX
  8
8
 10
2117.8876
 20
538.7010
  0
VERTEX
  8
8
 10
2117.8876
 20
282.7910
  0
VERTEX
  8
8
 10
2117.8876
 20
49.3040
  0
SEQEND
  8
8
  0
LINE
  8
8
 10
2186.8893
 20
461.1040
 11
2186.8893
 21
103.1037
  0
POLYLINE
  8
8
 66
1
 70
0
  0
VERTEX
  8
8
 10
2075.1318
 20
188.7398
  0
VERTEX
  8
8
 10
1882.0359
 20
188.7398
  0
VERTEX
  8
8
 10
1882.0359
 20
260.5710
  0
SEQEND
  8
8
  0
LINE
  8
8
 10
2186.8893
 20
476.1053
 11
2186.8893
 21
88.1025
  0
LINE
  8
8
 10
2137.9003
 20
219.9056
 11
2114.9006
 21
219.8878
  0
LINE
  8
8
 10
2137.9308
 20
184.8994
 11
2137.9003
 21
219.9006
  0
LINE
  8
8
 10
2114.9336
 20
184.8867
 11
2137.9333
 21
184.9044
  0
LINE
  8
8
 10
2114.9006
 20
219.8828
 11
2114.9311
 21
184.8816
  0
POLYLINE
  8
8
 66
1
 70
0
  0
VERTEX
  8
8
 10
1989.9351
 20
86.0019
  0
VERTEX
  8
8
 10
1998.1241
 20
186.3954
  0
VERTEX
  8
8
 10
1992.4726
 20
288.0919
  0
VERTEX
  8
8
 10
1986.8211
 20
389.8012
  0
VERTEX
  8
8
 10
1986.1530
 20
489.8441
  0
SEQEND
  8
8
  0
ENDBLK
  0
BLOCK
  8
0
  2
GLX4802S19SLL_34
 70
64
 10
0.0000
 20
0.0000
  0
TEXT
  8
1
 10
1887.9490
 20
292.7122
 40
0.250
 50
0.0000
  1
Piece Name: GLX4802S19SLL
  7
STANDARD
  0
TEXT
  8
1
 10
1887.9490
 20
296.2682
 40
0.250
 50
0.0000
  1
SIZE: 34
  7
STANDARD
  0
POLYLINE
  8
1
 66
1
 70
0
  0
VERTEX
  8
1
 10
2109.1703
 20
543.6210
  0
VERTEX
  8
1
 10
2115.9394
 20
510.7763
  0
VERTEX
  8
1
 10
2124.8167
 20
496.4685
  0
VERTEX
  8
1
 10
2136.6201
 20
484.4517
  0
VERTEX
  8
1
 10
2147.9206
 20
478.8561
  0
VERTEX
  8
1
 10
2184.9411
 20
468.6046
  0
VERTEX
  8
1
 10
2340.3967
 20
430.9110
  0
VERTEX
  8
1
 10
2353.5412
 20
427.7208
  0
SEQEND
  8
1
  0
POLYLINE
  8
1
 66
1
 70
0
  0
VERTEX
  8
1
 10
2353.5412
 20
427.7208
  0
VERTEX
  8
1
 10
2328.1920
 20
349.1637
  0
VERTEX
  8
1
 10
2308.6543
 20
282.1051
  0
VERTEX
  8
1
 10
2297.3742
 20
185.5572
  0
VERTEX
  8
1
 10
2295.6343
 20
124.5388
  0
VERTEX
  8
1
 10
2296.1245
 20
115.3542
  0
SEQEND
  8
1
  0
POLYLINE
  8
1
 66
1
 70
0
  0
VERTEX
  8
1
 10
2296.1245
 20
115.3542
  0
VERTEX
  8
1
 10
2198.5453
 20
98.0186
  0
VERTEX
  8
1
 10
2184.9411
 20
95.6031
  0
VERTEX
  8
1
 10
2174.6439
 20
92.9869
  0
VERTEX
  8
1
 10
2151.3648
 20
85.9181
  0
VERTEX
  8
1
 10
2135.4060
 20
76.1772
  0
VERTEX
  8
1
 10
2129.0534
 20
67.0611
  0
VERTEX
  8
1
 10
2115.9394
 20
41.8034
  0
SEQEND
  8
1
  0
POLYLINE
  8
1
 66
1
 70
0
  0
VERTEX
  8
1
 10
2115.9394
 20
41.8034
  0
VERTEX
  8
1
 10
2087.1536
 20
50.1371
  0
VERTEX
  8
1
 10
2059.3330
 20
58.2041
  0
VERTEX
  8
1
 10
1987.9844
 20
78.9890
  0
VERTEX
  8
1
 10
1875.6554
 20
109.6722
  0
VERTEX
  8
1
 10
1799.9406
 20
128.0440
  0
VERTEX
  8
1
 10
1718.8866
 20
140.9193
  0
VERTEX
  8
1
 10
1679.5573
 20
146.2533
  0
VERTEX
  8
1
 10
1620.9290
 20
153.8885
  0
VERTEX
  8
1
 10
1620.9290
 20
153.8885
  0
VERTEX
  8
1
 10
1483.9671
 20
170.4798
  0
VERTEX
  8
1
 10
1422.3594
 20
173.9469
  0
SEQEND
  8
1
  0
POLYLINE
  8
1
 66
1
 70
0
  0
VERTEX
  8
1
 10
1422.3594
 20
173.9469
  0
VERTEX
  8
1
 10
1422.3594
 20
390.0602
  0
SEQEND
  8
1
  0
POLYLINE
  8
1
 66
1
 70
0
  0
VERTEX
  8
1
 10
1422.3594
 20
390.0602
  0
VERTEX
  8
1
 10
1481.6836
 20
393.4486
  0
VERTEX
  8
1
 10
1620.9290
 20
410.3142
  0
VERTEX
  8
1
 10
1620.9290
 20
410.3142
  0
VERTEX
  8
1
 10
1679.6538
 20
417.4262
  0
VERTEX
  8
1
 10
1718.8790
 20
422.5240
  0
VERTEX
  8
1
 10
1799.9406
 20
436.1638
  0
VERTEX
  8
1
 10
1874.5480
 20
458.4421
  0
VERTEX
  8
1
 10
1984.2023
 20
496.8901
  0
VERTEX
  8
1
 10
2054.0320
 20
522.8464
  0
VERTEX
  8
1
 10
2081.1364
 20
533.0571
  0
VERTEX
  8
1
 10
2109.1703
 20
543.6210
  0
SEQEND
  8
1
  0
LINE
  8
7
 10
1693.6746
 20
292.7147
 11
2149.1398
 21
292.7147
  0
LINE
  8
5
 10
1693.6746
 20
292.7147
 11
2149.1398
 21
292.7147
  0
POLYLINE
  8
8
 66
1
 70
0
  0
VERTEX
  8
8
 10
2308.6543
 20
282.1051
  0
VERTEX
  8
8
 10
2184.9411
 20
282.1051
  0
VERTEX
  8
8
 10
2115.9394
 20
282.1051
  0
VERTEX
  8
8
 10
1799.9406
 20
282.1051
  0
VERTEX
  8
8
 10
1620.9391
 20
282.1051
  0
VERTEX
  8
8
 10
1421.9378
 20
282.1051
  0
SEQEND
  8
8
  0
LINE
  8
8
 10
1620.9290
 20
410.3142
 11
1620.9290
 21
153.8885
  0
LINE
  8
8
 10
1799.9406
 20
436.1638
 11
1799.9406
 21
128.0440
  0
POLYLINE
  8
8
 66
1
 70
0
  0
VERTEX
  8
8
 10
2115.9394
 20
546.2016
  0
VERTEX
  8
8
 10
2115.9394
 20
282.4481
  0
VERTEX
  8
8
 10
2115.9394
 20
41.8034
  0
SEQEND
  8
8
  0
LINE
  8
8
 10
2184.9411
 20
468.6046
 11
2184.9411
 21
95.6031
  0
POLYLINE
  8
8
 66
1
 70
0
  0
VERTEX
  8
8
 10
2073.1811
 20
188.7398
  0
VERTEX
  8
8
 10
1880.0877
 20
188.7398
  0
VERTEX
  8
8
 10
1880.0877
 20
260.5710
  0
SEQEND
  8
8
  0
LINE
  8
8
 10
2184.9411
 20
476.1053
 11
2184.9411
 21
88.1025
  0
LINE
  8
8
 10
2135.9521
 20
219.9056
 11
2112.9524
 21
219.8878
  0
LINE
  8
8
 10
2135.9826
 20
184.8994
 11
2135.9521
 21
219.9006
  0
LINE
  8
8
 10
2112.9854
 20
184.8867
 11
2135.9826
 21
184.9044
  0
LINE
  8
8
 10
2112.9524
 20
219.8828
 11
2112.9829
 21
184.8816
  0
POLYLINE
  8
8
 66
1
 70
0
  0
VERTEX
  8
8
 10
1987.9869
 20
79.0220
  0
VERTEX
  8
8
 10
1996.4883
 20
182.8826
  0
VERTEX
  8
8
 10
1990.6743
 20
288.0970
  0
VERTEX
  8
8
 10
1984.8627
 20
393.3241
  0
VERTEX
  8
8
 10
1984.2023
 20
496.8241
  0
SEQEND
  8
8
  0
ENDBLK
  0
BLOCK
  8
0
  2
GLX4802S19SLL_36
 70
64
 10
0.0000
 20
0.0000
  0
TEXT
  8
1
 10
1887.9490
 20
292.7122
 40
0.250
 50
0.0000
  1
Piece Name: GLX4802S19SLL
  7
STANDARD
  0
TEXT
  8
1
 10
1887.9490
 20
296.2682
 40
0.250
 50
0.0000
  1
Quantity: 2
  7
STANDARD
  0
TEXT
  8
1
 10
1887.9490
 20
299.8242
 40
0.250
 50
0.0000
  1
ANNOTATION: 2X FABRIC
  7
STANDARD
  0
TEXT
  8
1
 10
1887.9490
 20
303.3802
 40
0.250
 50
0.0000
  1
CATEGORY: TIGHT LEG LONG
  7
STANDARD
  0
TEXT
  8
1
 10
1887.9490
 20
306.9362
 40
0.250
 50
0.0000
  1
Fabric: 1
  7
STANDARD
  0
TEXT
  8
1
 10
1887.9490
 20
310.4922
 40
0.250
 50
0.0000
  1
SIZE: 36
  7
STANDARD
  0
POLYLINE
  8
1
 66
1
 70
0
  0
VERTEX
  8
1
 10
2107.2196
 20
551.1216
  0
VERTEX
  8
1
 10
2113.9887
 20
518.2769
  0
VERTEX
  8
1
 10
2122.8660
 20
503.9691
  0
VERTEX
  8
1
 10
2134.6694
 20
491.9523
  0
VERTEX
  8
1
 10
2145.9851
 20
486.4380
  0
VERTEX
  8
1
 10
2182.9904
 20
476.1053
  0
VERTEX
  8
1
 10
2342.0426
 20
438.5946
  0
VERTEX
  8
1
 10
2355.4894
 20
435.4196
  0
SEQEND
  8
1
  0
POINT
  8
2
 10
2107.2196
 20
551.1216
  0
TEXT
  8
2
 10
2107.2196
 20
551.1216
 40
0.250
 50
0.0000
  1
# 509
  7
STANDARD
  0
POINT
  8
3
 10
2113.9887
 20
518.2769
  0
POINT
  8
3
 10
2122.8660
 20
503.9691
  0
TEXT
  8
3
 10
2122.8660
 20
503.9691
 40
0.250
 50
0.0000
  1
# 509
  7
STANDARD
  0
POINT
  8
3
 10
2134.6694
 20
491.9523
  0
TEXT
  8
3
 10
2134.6694
 20
491.9523
 40
0.250
 50
0.0000
  1
# 509
  7
STANDARD
  0
POINT
  8
3
 10
2145.9851
 20
486.4380
  0
TEXT
  8
3
 10
2145.9851
 20
486.4380
 40
0.250
 50
0.0000
  1
# 554
  7
STANDARD
  0
POINT
  8
2
 10
2182.9904
 20
476.1053
  0
TEXT
  8
2
 10
2182.9904
 20
476.1053
 40
0.250
 50
0.0000
  1
# 757
  7
STANDARD
  0
POINT
  8
3
 10
2342.0426
 20
438.5946
  0
POINT
  8
2
 10
2355.4894
 20
435.4196
  0
TEXT
  8
2
 10
2355.4894
 20
435.4196
 40
0.250
 50
0.0000
  1
# 537
  7
STANDARD
  0
POLYLINE
  8
1
 66
1
 70
0
  0
VERTEX
  8
1
 10
2355.4894
 20
435.4196
  0
VERTEX
  8
1
 10
2330.0894
 20
352.6943
  0
VERTEX
  8
1
 10
2310.6025
 20
282.1051
  0
VERTEX
  8
1
 10
2299.1420
 20
181.0868
  0
VERTEX
  8
1
 10
2297.5316
 20
117.2617
  0
VERTEX
  8
1
 10
2298.0727
 20
107.6554
  0
SEQEND
  8
1
  0
POINT
  8
2
 10
2355.4894
 20
435.4196
  0
TEXT
  8
2
 10
2355.4894
 20
435.4196
 40
0.250
 50
0.0000
  1
# 537
  7
STANDARD
  0
POINT
  8
3
 10
2330.0894
 20
352.6943
  0
POINT
  8
4
 10
2310.6025
 20
282.1051
 30
-3.9980
 39
2.9998
  0
POINT
  8
3
 10
2310.6025
 20
282.1051
  0
TEXT
  8
3
 10
2310.6025
 20
282.1051
 40
0.250
 50
0.0000
  1
# 538
  7
STANDARD
  0
POINT
  8
3
 10
2299.1420
 20
181.0868
  0
POINT
  8
2
 10
2297.5316
 20
117.2617
  0
POINT
  8
2
 10
2298.0727
 20
107.6554
  0
TEXT
  8
2
 10
2298.0727
 20
107.6554
 40
0.250
 50
0.0000
  1
# 539
  7
STANDARD
  0
POLYLINE
  8
1
 66
1
 70
0
  0
VERTEX
  8
1
 10
2298.0727
 20
107.6554
  0
VERTEX
  8
1
 10
2197.0721
 20
90.4952
  0
VERTEX
  8
1
 10
2182.9904
 20
88.1025
  0
VERTEX
  8
1
 10
2172.6932
 20
85.5041
  0
VERTEX
  8
1
 10
2149.4115
 20
78.4733
  0
VERTEX
  8
1
 10
2133.4375
 20
68.8315
  0
VERTEX
  8
1
 10
2127.0849
 20
59.6723
  0
VERTEX
  8
1
 10
2113.9887
 20
34.3028
  0
SEQEND
  8
1
  0
POINT
  8
2
 10
2298.0727
 20
107.6554
  0
TEXT
  8
2
 10
2298.0727
 20
107.6554
 40
0.250
 50
0.0000
  1
# 539
  7
STANDARD
  0
POINT
  8
3
 10
2197.0721
 20
90.4952
  0
POINT
  8
2
 10
2182.9904
 20
88.1025
  0
TEXT
  8
2
 10
2182.9904
 20
88.1025
 40
0.250
 50
0.0000
  1
# 758
  7
STANDARD
  0
POINT
  8
3
 10
2172.6932
 20
85.5041
  0
POINT
  8
3
 10
2149.4115
 20
78.4733
  0
TEXT
  8
3
 10
2149.4115
 20
78.4733
 40
0.250
 50
0.0000
  1
# 555
  7
STANDARD
  0
POINT
  8
3
 10
2133.4375
 20
68.8315
  0
TEXT
  8
3
 10
2133.4375
 20
68.8315
 40
0.250
 50
0.0000
  1
# 542
  7
STANDARD
  0
POINT
  8
3
 10
2127.0849
 20
59.6723
  0
TEXT
  8
3
 10
2127.0849
 20
59.6723
 40
0.250
 50
0.0000
  1
# 755
  7
STANDARD
  0
POINT
  8
2
 10
2113.9887
 20
34.3028
  0
TEXT
  8
2
 10
2113.9887
 20
34.3028
 40
0.250
 50
0.0000
  1
# 543
  7
STANDARD
  0
POLYLINE
  8
1
 66
1
 70
0
  0
VERTEX
  8
1
 10
2113.9887
 20
34.3028
  0
VERTEX
  8
1
 10
2085.2054
 20
42.7559
  0
VERTEX
  8
1
 10
2057.3823
 20
50.9372
  0
VERTEX
  8
1
 10
1986.0337
 20
72.0091
  0
VERTEX
  8
1
 10
1873.7149
 20
103.3171
  0
VERTEX
  8
1
 10
1797.9898
 20
122.1029
  0
VERTEX
  8
1
 10
1716.9562
 20
135.9561
  0
VERTEX
  8
1
 10
1677.6243
 20
141.7625
  0
VERTEX
  8
1
 10
1618.9884
 20
150.1014
  0
VERTEX
  8
1
 10
1618.9884
 20
150.1014
  0
VERTEX
  8
1
 10
1482.0469
 20
167.9296
  0
VERTEX
  8
1
 10
1420.4112
 20
171.9479
  0
SEQEND
  8
1
  0
POINT
  8
2
 10
2113.9887
 20
34.3028
  0
TEXT
  8
2
 10
2113.9887
 20
34.3028
 40
0.250
 50
0.0000
  1
# 543
  7
STANDARD
  0
POINT
  8
3
 10
2085.2054
 20
42.7559
  0
TEXT
  8
3
 10
2085.2054
 20
42.7559
 40
0.250
 50
0.0000
  1
# 557
  7
STANDARD
  0
POINT
  8
3
 10
2057.3823
 20
50.9372
  0
POINT
  8
3
 10
1986.0337
 20
72.0091
  0
TEXT
  8
3
 10
1986.0337
 20
72.0091
 40
0.250
 50
0.0000
  1
# 544
  7
STANDARD
  0
POINT
  8
3
 10
1873.7149
 20
103.3171
  0
POINT
  8
4
 10
1797.9898
 20
122.1029
 30
-3.9980
 39
2.9998
  0
POINT
  8
3
 10
1797.9898
 20
122.1029
  0
TEXT
  8
3
 10
1797.9898
 20
122.1029
 40
0.250
 50
0.0000
  1
# 751
  7
STANDARD
  0
POINT
  8
3
 10
1716.9562
 20
135.9561
  0
POINT
  8
3
 10
1677.6243
 20
141.7625
  0
POINT
  8
2
 10
1618.9884
 20
150.1014
  0
TEXT
  8
2
 10
1618.9884
 20
150.1014
 40
0.250
 50
0.0000
  1
# 752
  7
STANDARD
  0
POINT
  8
4
 10
1618.9884
 20
150.1014
 30
-3.9980
 39
2.9998
  0
POINT
  8
2
 10
1618.9884
 20
150.1014
  0
POINT
  8
3
 10
1482.0469
 20
167.9296
  0
POINT
  8
2
 10
1420.4112
 20
171.9479
  0
TEXT
  8
2
 10
1420.4112
 20
171.9479
 40
0.250
 50
0.0000
  1
# 547
  7
STANDARD
  0
POLYLINE
  8
1
 66
1
 70
0
  0
VERTEX
  8
1
 10
1420.4112
 20
171.9479
  0
VERTEX
  8
1
 10
1420.4112
 20
392.0592
  0
SEQEND
  8
1
  0
POINT
  8
2
 10
1420.4112
 20
171.9479
  0
TEXT
  8
2
 10
1420.4112
 20
171.9479
 40
0.250
 50
0.0000
  1
# 547
  7
STANDARD
  0
POINT
  8
2
 10
1420.4112
 20
392.0592
  0
TEXT
  8
2
 10
1420.4112
 20
392.0592
 40
0.250
 50
0.0000
  1
# 548
  7
STANDARD
  0
POLYLINE
  8
1
 66
1
 70
0
  0
VERTEX
  8
1
 10
1420.4112
 20
392.0592
  0
VERTEX
  8
1
 10
1479.7609
 20
395.9810
  0
VERTEX
  8
1
 10
1618.9884
 20
414.1039
  0
VERTEX
  8
1
 10
1618.9884
 20
414.1039
  0
VERTEX
  8
1
 10
1677.7259
 20
421.9194
  0
VERTEX
  8
1
 10
1716.9562
 20
427.4897
  0
VERTEX
  8
1
 10
1797.9898
 20
442.1048
  0
VERTEX
  8
1
 10
1872.6125
 20
464.8023
  0
VERTEX
  8
1
 10
1982.2542
 20
503.8700
  0
VERTEX
  8
1
 10
2052.0864
 20
530.1158
  0
VERTEX
  8
1
 10
2079.1856
 20
540.4384
  0
VERTEX
  8
1
 10
2107.2196
 20
551.1216
  0
SEQEND
  8
1
  0
POINT
  8
2
 10
1420.4112
 20
392.0592
  0
TEXT
  8
2
 10
1420.4112
 20
392.0592
 40
0.250
 50
0.0000
  1
# 548
  7
STANDARD
  0
POINT
  8
3
 10
1479.7609
 20
395.9810
  0
POINT
  8
2
 10
1618.9884
 20
414.1039
  0
TEXT
  8
2
 10
1618.9884
 20
414.1039
 40
0.250
 50
0.0000
  1
# 753
  7
STANDARD
  0
POINT
  8
4
 10
1618.9884
 20
414.1039
 30
-3.9980
 39
2.9998
  0
POINT
  8
2
 10
1618.9884
 20
414.1039
  0
POINT
  8
3
 10
1677.7259
 20
421.9194
  0
POINT
  8
3
 10
1716.9562
 20
427.4897
  0
POINT
  8
4
 10
1797.9898
 20
442.1048
 30
-3.9980
 39
2.9998
  0
POINT
  8
3
 10
1797.9898
 20
442.1048
  0
TEXT
  8
3
 10
1797.9898
 20
442.1048
 40
0.250
 50
0.0000
  1
# 754
  7
STANDARD
  0
POINT
  8
3
 10
1872.6125
 20
464.8023
  0
POINT
  8
3
 10
1982.2542
 20
503.8700
  0
TEXT
  8
3
 10
1982.2542
 20
503.8700
 40
0.250
 50
0.0000
  1
# 551
  7
STANDARD
  0
POINT
  8
2
 10
2052.0864
 20
530.1158
  0
POINT
  8
3
 10
2079.1856
 20
540.4384
  0
TEXT
  8
3
 10
2079.1856
 20
540.4384
 40
0.250
 50
0.0000
  1
# 558
  7
STANDARD
  0
POINT
  8
2
 10
2107.2196
 20
551.1216
  0
LINE
  8
7
 10
1691.7239
 20
292.7147
 11
2147.1916
 21
292.7147
  0
LINE
  8
5
 10
1691.7239
 20
292.7147
 11
2147.1916
 21
292.7147
  0
POINT
  8
2
 10
1691.7239
 20
292.7147
  0
POINT
  8
2
 10
2147.1916
 20
292.7147
  0
POLYLINE
  8
8
 66
1
 70
0
  0
VERTEX
  8
8
 10
2310.6025
 20
282.1051
  0
VERTEX
  8
8
 10
2182.9904
 20
282.1051
  0
VERTEX
  8
8
 10
2113.9887
 20
282.1051
  0
VERTEX
  8
8
 10
1797.9898
 20
282.1051
  0
VERTEX
  8
8
 10
1618.9884
 20
282.1051
  0
VERTEX
  8
8
 10
1419.9871
 20
282.1051
  0
SEQEND
  8
8
  0
TEXT
  8
8
 10
2310.6025
 20
282.1051
 40
0.250
 50
0.0000
  1
NM
  7
STANDARD
  0
POINT
  8
2
 10
2310.6025
 20
282.1051
  0
TEXT
  8
2
 10
2310.6025
 20
282.1051
 40
0.250
 50
0.0000
  1
# 538
  7
STANDARD
  0
POINT
  8
3
 10
2182.9904
 20
282.1051
  0
TEXT
  8
3
 10
2182.9904
 20
282.1051
 40
0.250
 50
0.0000
  1
# 0
  7
STANDARD
  0
POINT
  8
3
 10
2113.9887
 20
282.1051
  0
TEXT
  8
3
 10
2113.9887
 20
282.1051
 40
0.250
 50
0.0000
  1
# 0
  7
STANDARD
  0
POINT
  8
3
 10
1797.9898
 20
282.1051
  0
TEXT
  8
3
 10
1797.9898
 20
282.1051
 40
0.250
 50
0.0000
  1
# 0
  7
STANDARD
  0
POINT
  8
3
 10
1618.9884
 20
282.1051
  0
TEXT
  8
3
 10
1618.9884
 20
282.1051
 40
0.250
 50
0.0000
  1
# 0
  7
STANDARD
  0
POINT
  8
2
 10
1419.9871
 20
282.1051
  0
TEXT
  8
2
 10
1419.9871
 20
282.1051
 40
0.250
 50
0.0000
  1
# 0
  7
STANDARD
  0
LINE
  8
8
 10
1618.9884
 20
414.1039
 11
1618.9884
 21
150.1014
  0
TEXT
  8
8
 10
1618.9884
 20
414.1039
 40
0.250
 50
0.0000
  1
NM
  7
STANDARD
  0
POINT
  8
2
 10
1618.9884
 20
414.1039
  0
TEXT
  8
2
 10
1618.9884
 20
414.1039
 40
0.250
 50
0.0000
  1
# 753
  7
STANDARD
  0
POINT
  8
2
 10
1618.9884
 20
150.1014
  0
TEXT
  8
2
 10
1618.9884
 20
150.1014
 40
0.250
 50
0.0000
  1
# 752
  7
STANDARD
  0
LINE
  8
8
 10
1797.9898
 20
442.1048
 11
1797.9898
 21
122.1029
  0
TEXT
  8
8
 10
1797.9898
 20
442.1048
 40
0.250
 50
0.0000
  1
NM
  7
STANDARD
  0
POINT
  8
2
 10
1797.9898
 20
442.1048
  0
TEXT
  8
2
 10
1797.9898
 20
442.1048
 40
0.250
 50
0.0000
  1
# 754
  7
STANDARD
  0
POINT
  8
2
 10
1797.9898
 20
122.1029
  0
TEXT
  8
2
 10
1797.9898
 20
122.1029
 40
0.250
 50
0.0000
  1
# 751
  7
STANDARD
  0
POLYLINE
  8
8
 66
1
 70
0
  0
VERTEX
  8
8
 10
2113.9887
 20
553.7023
  0
VERTEX
  8
8
 10
2113.9887
 20
282.1051
  0
VERTEX
  8
8
 10
2113.9887
 20
34.3028
  0
SEQEND
  8
8
  0
TEXT
  8
8
 10
2113.9887
 20
553.7023
 40
0.250
 50
0.0000
  1
NM
  7
STANDARD
  0
POINT
  8
2
 10
2113.9887
 20
553.7023
  0
TEXT
  8
2
 10
2113.9887
 20
553.7023
 40
0.250
 50
0.0000
  1
# 509
  7
STANDARD
  0
POINT
  8
3
 10
2113.9887
 20
282.1051
  0
POINT
  8
2
 10
2113.9887
 20
34.3028
  0
TEXT
  8
2
 10
2113.9887
 20
34.3028
 40
0.250
 50
0.0000
  1
# 543
  7
STANDARD
  0
LINE
  8
8
 10
2182.9904
 20
476.1053
 11
2182.9904
 21
88.1025
  0
TEXT
  8
8
 10
2182.9904
 20
476.1053
 40
0.250
 50
0.0000
  1
NM
  7
STANDARD
  0
POINT
  8
2
 10
2182.9904
 20
476.1053
  0
TEXT
  8
2
 10
2182.9904
 20
476.1053
 40
0.250
 50
0.0000
  1
# 757
  7
STANDARD
  0
POINT
  8
2
 10
2182.9904
 20
88.1025
  0
TEXT
  8
2
 10
2182.9904
 20
88.1025
 40
0.250
 50
0.0000
  1
# 758
  7
STANDARD
  0
POLYLINE
  8
8
 66
1
 70
0
  0
VERTEX
  8
8
 10
2071.2329
 20
188.7398
  0
VERTEX
  8
8
 10
1878.1370
 20
188.7398
  0
VERTEX
  8
8
 10
1878.1370
 20
260.5710
  0
SEQEND
  8
8
  0
TEXT
  8
8
 10
2071.2329
 20
188.7398
 40
0.250
 50
0.0000
  1
B
  7
STANDARD
  0
POINT
  8
2
 10
2071.2329
 20
188.7398
  0
POINT
  8
2
 10
1878.1370
 20
188.7398
  0
POINT
  8
2
 10
1878.1370
 20
260.5710
  0
LINE
  8
8
 10
2182.9904
 20
476.1053
 11
2182.9904
 21
88.1025
  0
TEXT
  8
8
 10
2182.9904
 20
476.1053
 40
0.250
 50
0.0000
  1
NM
  7
STANDARD
  0
POINT
  8
2
 10
2182.9904
 20
476.1053
  0
POINT
  8
2
 10
2182.9904
 20
88.1025
  0
LINE
  8
8
 10
2134.0014
 20
219.9056
 11
2111.0017
 21
219.8878
  0
TEXT
  8
8
 10
2134.0014
 20
219.9056
 40
0.250
 50
0.0000
  1
NM
  7
STANDARD
  0
POINT
  8
2
 10
2134.0014
 20
219.9056
  0
TEXT
  8
2
 10
2134.0014
 20
219.9056
 40
0.250
 50
0.0000
  1
# 0
  7
STANDARD
  0
POINT
  8
2
 10
2111.0017
 20
219.8878
  0
TEXT
  8
2
 10
2111.0017
 20
219.8878
 40
0.250
 50
0.0000
  1
# 0
  7
STANDARD
  0
LINE
  8
8
 10
2134.0318
 20
184.8994
 11
2134.0014
 21
219.9006
  0
TEXT
  8
8
 10
2134.0318
 20
184.8994
 40
0.250
 50
0.0000
  1
NM
  7
STANDARD
  0
POINT
  8
2
 10
2134.0318
 20
184.8994
  0
TEXT
  8
2
 10
2134.0318
 20
184.8994
 40
0.250
 50
0.0000
  1
# 0
  7
STANDARD
  0
POINT
  8
2
 10
2134.0014
 20
219.9006
  0
TEXT
  8
2
 10
2134.0014
 20
219.9006
 40
0.250
 50
0.0000
  1
# 0
  7
STANDARD
  0
LINE
  8
8
 10
2111.0347
 20
184.8867
 11
2134.0344
 21
184.9044
  0
TEXT
  8
8
 10
2111.0347
 20
184.8867
 40
0.250
 50
0.0000
  1
NM
  7
STANDARD
  0
POINT
  8
2
 10
2111.0347
 20
184.8867
  0
TEXT
  8
2
 10
2111.0347
 20
184.8867
 40
0.250
 50
0.0000
  1
# 0
  7
STANDARD
  0
POINT
  8
2
 10
2134.0344
 20
184.9044
  0
TEXT
  8
2
 10
2134.0344
 20
184.9044
 40
0.250
 50
0.0000
  1
# 0
  7
STANDARD
  0
LINE
  8
8
 10
2111.0017
 20
219.8828
 11
2111.0322
 21
184.8816
  0
TEXT
  8
8
 10
2111.0017
 20
219.8828
 40
0.250
 50
0.0000
  1
NM
  7
STANDARD
  0
POINT
  8
2
 10
2111.0017
 20
219.8828
  0
TEXT
  8
2
 10
2111.0017
 20
219.8828
 40
0.250
 50
0.0000
  1
# 0
  7
STANDARD
  0
POINT
  8
2
 10
2111.0322
 20
184.8816
  0
TEXT
  8
2
 10
2111.0322
 20
184.8816
 40
0.250
 50
0.0000
  1
# 0
  7
STANDARD
  0
POLYLINE
  8
8
 66
1
 70
0
  0
VERTEX
  8
8
 10
1986.0362
 20
72.0421
  0
VERTEX
  8
8
 10
1994.8576
 20
179.3723
  0
VERTEX
  8
8
 10
1988.8810
 20
288.1021
  0
VERTEX
  8
8
 10
1982.9044
 20
396.8471
  0
VERTEX
  8
8
 10
1982.2542
 20
503.8040
  0
SEQEND
  8
8
  0
TEXT
  8
8
 10
1986.0362
 20
72.0421
 40
0.250
 50
0.0000
  1
NM
  7
STANDARD
  0
POINT
  8
2
 10
1986.0362
 20
72.0421
  0
TEXT
  8
2
 10
1986.0362
 20
72.0421
 40
0.250
 50
0.0000
  1
# 544
  7
STANDARD
  0
POINT
  8
3
 10
1994.8576
 20
179.3723
  0
POINT
  8
3
 10
1988.8810
 20
288.1021
  0
POINT
  8
3
 10
1982.9044
 20
396.8471
  0
POINT
  8
2
 10
1982.2542
 20
503.8040
  0
TEXT
  8
2
 10
1982.2542
 20
503.8040
 40
0.250
 50
0.0000
  1
# 551
  7
STANDARD
  0
ENDBLK
  0
BLOCK
  8
0
  2
GLX4802S19SLL_38
 70
64
 10
0.0000
 20
0.0000
  0
TEXT
  8
1
 10
1887.9516
 20
292.7122
 40
0.250
 50
0.0000
  1
Piece Name: GLX4802S19SLL
  7
STANDARD
  0
TEXT
  8
1
 10
1887.9516
 20
296.2682
 40
0.250
 50
0.0000
  1
SIZE: 38
  7
STANDARD
  0
POLYLINE
  8
1
 66
1
 70
0
  0
VERTEX
  8
1
 10
2104.7202
 20
558.6223
  0
VERTEX
  8
1
 10
2111.4893
 20
525.7775
  0
VERTEX
  8
1
 10
2120.3666
 20
511.4697
  0
VERTEX
  8
1
 10
2132.1700
 20
499.4529
  0
VERTEX
  8
1
 10
2143.4857
 20
493.9386
  0
VERTEX
  8
1
 10
2180.4910
 20
483.6059
  0
VERTEX
  8
1
 10
2344.1534
 20
446.2755
  0
VERTEX
  8
1
 10
2357.9913
 20
443.1183
  0
SEQEND
  8
1
  0
POLYLINE
  8
1
 66
1
 70
0
  0
VERTEX
  8
1
 10
2357.9913
 20
443.1183
  0
VERTEX
  8
1
 10
2331.9944
 20
356.2300
  0
VERTEX
  8
1
 10
2312.1036
 20
282.1051
  0
VERTEX
  8
1
 10
2300.4577
 20
176.6139
  0
VERTEX
  8
1
 10
2298.9769
 20
109.9821
  0
VERTEX
  8
1
 10
2299.5738
 20
99.9567
  0
SEQEND
  8
1
  0
POLYLINE
  8
1
 66
1
 70
0
  0
VERTEX
  8
1
 10
2299.5738
 20
99.9567
  0
VERTEX
  8
1
 10
2195.0604
 20
82.9691
  0
VERTEX
  8
1
 10
2180.4910
 20
80.6019
  0
VERTEX
  8
1
 10
2170.1938
 20
78.0035
  0
VERTEX
  8
1
 10
2146.9122
 20
70.9727
  0
VERTEX
  8
1
 10
2130.9381
 20
61.3309
  0
VERTEX
  8
1
 10
2124.5856
 20
52.1716
  0
VERTEX
  8
1
 10
2111.4893
 20
26.8021
  0
SEQEND
  8
1
  0
POLYLINE
  8
1
 66
1
 70
0
  0
VERTEX
  8
1
 10
2111.4893
 20
26.8021
  0
VERTEX
  8
1
 10
2082.7061
 20
35.3746
  0
VERTEX
  8
1
 10
2054.8804
 20
43.6652
  0
VERTEX
  8
1
 10
1983.5343
 20
65.0190
  0
VERTEX
  8
1
 10
1871.2206
 20
96.9544
  0
VERTEX
  8
1
 10
1795.4905
 20
116.1619
  0
VERTEX
  8
1
 10
1714.4747
 20
130.9904
  0
VERTEX
  8
1
 10
1675.1402
 20
137.2693
  0
VERTEX
  8
1
 10
1616.4992
 20
146.3117
  0
VERTEX
  8
1
 10
1616.4992
 20
146.3117
  0
VERTEX
  8
1
 10
1479.5729
 20
165.3769
  0
VERTEX
  8
1
 10
1417.9119
 20
169.9489
  0
SEQEND
  8
1
  0
POLYLINE
  8
1
 66
1
 70
0
  0
VERTEX
  8
1
 10
1417.9119
 20
169.9489
  0
VERTEX
  8
1
 10
1417.9119
 20
394.0582
  0
SEQEND
  8
1
  0
POLYLINE
  8
1
 66
1
 70
0
  0
VERTEX
  8
1
 10
1417.9119
 20
394.0582
  0
VERTEX
  8
1
 10
1477.2869
 20
398.5108
  0
VERTEX
  8
1
 10
1616.4992
 20
417.8910
  0
VERTEX
  8
1
 10
1616.4992
 20
417.8910
  0
VERTEX
  8
1
 10
1675.2494
 20
426.4102
  0
VERTEX
  8
1
 10
1714.4823
 20
432.4503
  0
VERTEX
  8
1
 10
1795.4905
 20
448.0459
  0
VERTEX
  8
1
 10
1870.1233
 20
471.1599
  0
VERTEX
  8
1
 10
1979.7548
 20
510.8499
  0
VERTEX
  8
1
 10
2049.5870
 20
537.3828
  0
VERTEX
  8
1
 10
2076.6863
 20
547.8196
  0
VERTEX
  8
1
 10
2104.7202
 20
558.6223
  0
SEQEND
  8
1
  0
LINE
  8
7
 10
1689.2245
 20
292.7147
 11
2144.6922
 21
292.7147
  0
LINE
  8
5
 10
1689.2245
 20
292.7147
 11
2144.6922
 21
292.7147
  0
POLYLINE
  8
8
 66
1
 70
0
  0
VERTEX
  8
8
 10
2312.1036
 20
282.1051
  0
VERTEX
  8
8
 10
2180.4910
 20
282.1051
  0
VERTEX
  8
8
 10
2111.4893
 20
282.1051
  0
VERTEX
  8
8
 10
1795.4905
 20
282.1051
  0
VERTEX
  8
8
 10
1616.4891
 20
282.1051
  0
VERTEX
  8
8
 10
1417.4877
 20
282.1051
  0
SEQEND
  8
8
  0
LINE
  8
8
 10
1616.4992
 20
417.8910
 11
1616.4992
 21
146.3117
  0
LINE
  8
8
 10
1795.4905
 20
448.0459
 11
1795.4905
 21
116.1619
  0
POLYLINE
  8
8
 66
1
 70
0
  0
VERTEX
  8
8
 10
2111.4893
 20
561.2029
  0
VERTEX
  8
8
 10
2111.4893
 20
281.7597
  0
VERTEX
  8
8
 10
2111.4893
 20
26.8021
  0
SEQEND
  8
8
  0
LINE
  8
8
 10
2180.4910
 20
483.6059
 11
2180.4910
 21
80.6019
  0
POLYLINE
  8
8
 66
1
 70
0
  0
VERTEX
  8
8
 10
2068.7335
 20
188.7398
  0
VERTEX
  8
8
 10
1875.6376
 20
188.7398
  0
VERTEX
  8
8
 10
1875.6376
 20
260.5710
  0
SEQEND
  8
8
  0
LINE
  8
8
 10
2180.4910
 20
476.1053
 11
2180.4910
 21
88.1025
  0
LINE
  8
8
 10
2131.5020
 20
219.9056
 11
2108.5023
 21
219.8878
  0
LINE
  8
8
 10
2131.5325
 20
184.8994
 11
2131.5020
 21
219.9006
  0
LINE
  8
8
 10
2108.5353
 20
184.8867
 11
2131.5350
 21
184.9044
  0
LINE
  8
8
 10
2108.5023
 20
219.8828
 11
2108.5328
 21
184.8816
  0
POLYLINE
  8
8
 66
1
 70
0
  0
VERTEX
  8
8
 10
1983.5369
 20
65.0520
  0
VERTEX
  8
8
 10
1992.6732
 20
175.8519
  0
VERTEX
  8
8
 10
1986.5341
 20
288.0996
  0
VERTEX
  8
8
 10
1980.3949
 20
400.3650
  0
VERTEX
  8
8
 10
1979.7548
 20
510.7839
  0
SEQEND
  8
8
  0
ENDBLK
  0
BLOCK
  8
0
  2
GLX4802S19SLL_40
 70
64
 10
0.0000
 20
0.0000
  0
TEXT
  8
1
 10
1887.9490
 20
292.7122
 40
0.250
 50
0.0000
  1
Piece Name: GLX4802S19SLL
  7
STANDARD
  0
TEXT
  8
1
 10
1887.9490
 20
296.2682
 40
0.250
 50
0.0000
  1
SIZE: 40
  7
STANDARD
  0
POLYLINE
  8
1
 66
1
 70
0
  0
VERTEX
  8
1
 10
2102.2184
 20
566.1229
  0
VERTEX
  8
1
 10
2108.9875
 20
533.2781
  0
VERTEX
  8
1
 10
2117.8648
 20
518.9703
  0
VERTEX
  8
1
 10
2129.6681
 20
506.9536
  0
VERTEX
  8
1
 10
2140.9991
 20
501.5180
  0
VERTEX
  8
1
 10
2177.9891
 20
491.1065
  0
VERTEX
  8
1
 10
2346.2641
 20
453.9590
  0
VERTEX
  8
1
 10
2360.4906
 20
450.8170
  0
SEQEND
  8
1
  0
POLYLINE
  8
1
 66
1
 70
0
  0
VERTEX
  8
1
 10
2360.4906
 20
450.8170
  0
VERTEX
  8
1
 10
2333.8968
 20
359.7656
  0
VERTEX
  8
1
 10
2313.6022
 20
282.1051
  0
VERTEX
  8
1
 10
2301.7709
 20
172.1435
  0
VERTEX
  8
1
 10
2300.4222
 20
102.7024
  0
VERTEX
  8
1
 10
2301.0724
 20
92.2579
  0
SEQEND
  8
1
  0
POLYLINE
  8
1
 66
1
 70
0
  0
VERTEX
  8
1
 10
2301.0724
 20
92.2579
  0
VERTEX
  8
1
 10
2193.0487
 20
75.4431
  0
VERTEX
  8
1
 10
2177.9891
 20
73.1012
  0
VERTEX
  8
1
 10
2167.6919
 20
70.4825
  0
VERTEX
  8
1
 10
2144.4179
 20
63.4137
  0
VERTEX
  8
1
 10
2128.4362
 20
53.8303
  0
VERTEX
  8
1
 10
2122.0837
 20
44.6710
  0
VERTEX
  8
1
 10
2108.9875
 20
19.3015
  0
SEQEND
  8
1
  0
POLYLINE
  8
1
 66
1
 70
0
  0
VERTEX
  8
1
 10
2108.9875
 20
19.3015
  0
VERTEX
  8
1
 10
2080.2042
 20
27.9934
  0
VERTEX
  8
1
 10
2052.3785
 20
36.3957
  0
VERTEX
  8
1
 10
1981.0324
 20
58.0391
  0
VERTEX
  8
1
 10
1868.7263
 20
90.5968
  0
VERTEX
  8
1
 10
1792.9886
 20
110.2208
  0
VERTEX
  8
1
 10
1711.9905
 20
126.0247
  0
VERTEX
  8
1
 10
1672.6535
 20
132.7760
  0
VERTEX
  8
1
 10
1614.0050
 20
142.5220
  0
VERTEX
  8
1
 10
1614.0050
 20
142.5220
  0
VERTEX
  8
1
 10
1477.0990
 20
162.8242
  0
VERTEX
  8
1
 10
1415.4100
 20
167.9499
  0
SEQEND
  8
1
  0
POLYLINE
  8
1
 66
1
 70
0
  0
VERTEX
  8
1
 10
1415.4100
 20
167.9499
  0
VERTEX
  8
1
 10
1415.4100
 20
396.0572
  0
SEQEND
  8
1
  0
POLYLINE
  8
1
 66
1
 70
0
  0
VERTEX
  8
1
 10
1415.4100
 20
396.0572
  0
VERTEX
  8
1
 10
1474.8104
 20
401.0407
  0
VERTEX
  8
1
 10
1614.0050
 20
421.6807
  0
VERTEX
  8
1
 10
1614.0050
 20
421.6807
  0
VERTEX
  8
1
 10
1672.7678
 20
430.9034
  0
VERTEX
  8
1
 10
1712.0083
 20
437.4135
  0
VERTEX
  8
1
 10
1792.9886
 20
453.9869
  0
VERTEX
  8
1
 10
1867.6341
 20
477.5175
  0
VERTEX
  8
1
 10
1977.2529
 20
517.8298
  0
VERTEX
  8
1
 10
2047.0851
 20
544.6522
  0
VERTEX
  8
1
 10
2074.1844
 20
555.2009
  0
VERTEX
  8
1
 10
2102.2184
 20
566.1229
  0
SEQEND
  8
1
  0
LINE
  8
7
 10
1686.7226
 20
292.7147
 11
2142.1903
 21
292.7147
  0
LINE
  8
5
 10
1686.7226
 20
292.7147
 11
2142.1903
 21
292.7147
  0
POLYLINE
  8
8
 66
1
 70
0
  0
VERTEX
  8
8
 10
2313.6022
 20
282.1051
  0
VERTEX
  8
8
 10
2177.9891
 20
282.1051
  0
VERTEX
  8
8
 10
2108.9875
 20
282.1051
  0
VERTEX
  8
8
 10
1792.9886
 20
282.1051
  0
VERTEX
  8
8
 10
1613.9872
 20
282.1051
  0
VERTEX
  8
8
 10
1414.9858
 20
282.1051
  0
SEQEND
  8
8
  0
LINE
  8
8
 10
1614.0050
 20
421.6807
 11
1614.0050
 21
142.5220
  0
LINE
  8
8
 10
1792.9886
 20
453.9869
 11
1792.9886
 21
110.2208
  0
POLYLINE
  8
8
 66
1
 70
0
  0
VERTEX
  8
8
 10
2108.9875
 20
568.7035
  0
VERTEX
  8
8
 10
2108.9875
 20
281.4168
  0
VERTEX
  8
8
 10
2108.9875
 20
19.3015
  0
SEQEND
  8
8
  0
LINE
  8
8
 10
2177.9891
 20
491.1065
 11
2177.9891
 21
73.1012
  0
POLYLINE
  8
8
 66
1
 70
0
  0
VERTEX
  8
8
 10
2066.2316
 20
188.7398
  0
VERTEX
  8
8
 10
1873.1357
 20
188.7398
  0
VERTEX
  8
8
 10
1873.1357
 20
260.5710
  0
SEQEND
  8
8
  0
LINE
  8
8
 10
2177.9891
 20
476.1053
 11
2177.9891
 21
88.1025
  0
LINE
  8
8
 10
2129.0001
 20
219.9056
 11
2106.0004
 21
219.8878
  0
LINE
  8
8
 10
2129.0306
 20
184.8994
 11
2129.0001
 21
219.9006
  0
LINE
  8
8
 10
2106.0334
 20
184.8867
 11
2129.0331
 21
184.9044
  0
LINE
  8
8
 10
2106.0004
 20
219.8828
 11
2106.0309
 21
184.8816
  0
POLYLINE
  8
8
 66
1
 70
0
  0
VERTEX
  8
8
 10
1981.0350
 20
58.0721
  0
VERTEX
  8
8
 10
1990.4863
 20
172.3390
  0
VERTEX
  8
8
 10
1984.1845
 20
288.1046
  0
VERTEX
  8
8
 10
1977.8828
 20
403.8880
  0
VERTEX
  8
8
 10
1977.2529
 20
517.7638
  0
SEQEND
  8
8
  0
ENDBLK
  0
BLOCK
  8
0
  2
GLX4802S19SLL_42
 70
64
 10
0.0000
 20
0.0000
  0
TEXT
  8
1
 10
1887.9516
 20
292.7122
 40
0.250
 50
0.0000
  1
Piece Name: GLX4802S19SLL
  7
STANDARD
  0
TEXT
  8
1
 10
1887.9516
 20
296.2682
 40
0.250
 50
0.0000
  1
SIZE: 42
  7
STANDARD
  0
POLYLINE
  8
1
 66
1
 70
0
  0
VERTEX
  8
1
 10
2098.4693
 20
574.8732
  0
VERTEX
  8
1
 10
2105.2384
 20
542.0284
  0
VERTEX
  8
1
 10
2114.1157
 20
527.7206
  0
VERTEX
  8
1
 10
2125.9191
 20
515.7039
  0
VERTEX
  8
1
 10
2137.2653
 20
510.3673
  0
VERTEX
  8
1
 10
2174.2400
 20
500.1057
  0
VERTEX
  8
1
 10
2349.4289
 20
463.0522
  0
VERTEX
  8
1
 10
2364.2422
 20
459.9178
  0
SEQEND
  8
1
  0
POLYLINE
  8
1
 66
1
 70
0
  0
VERTEX
  8
1
 10
2364.2422
 20
459.9178
  0
VERTEX
  8
1
 10
2337.3131
 20
363.9389
  0
VERTEX
  8
1
 10
2316.8534
 20
282.1051
  0
VERTEX
  8
1
 10
2304.2220
 20
166.8806
  0
VERTEX
  8
1
 10
2302.6624
 20
94.1071
  0
VERTEX
  8
1
 10
2303.3229
 20
83.1571
  0
SEQEND
  8
1
  0
POLYLINE
  8
1
 66
1
 70
0
  0
VERTEX
  8
1
 10
2303.3229
 20
83.1571
  0
VERTEX
  8
1
 10
2190.0338
 20
66.4338
  0
VERTEX
  8
1
 10
2174.2400
 20
64.1020
  0
VERTEX
  8
1
 10
2163.9200
 20
61.5620
  0
VERTEX
  8
1
 10
2140.5825
 20
54.6659
  0
VERTEX
  8
1
 10
2124.5450
 20
45.1765
  0
VERTEX
  8
1
 10
2118.2280
 20
35.9842
  0
VERTEX
  8
1
 10
2105.2384
 20
10.5512
  0
SEQEND
  8
1
  0
POLYLINE
  8
1
 66
1
 70
0
  0
VERTEX
  8
1
 10
2105.2384
 20
10.5512
  0
VERTEX
  8
1
 10
2076.4551
 20
19.4234
  0
VERTEX
  8
1
 10
2048.6294
 20
27.9934
  0
VERTEX
  8
1
 10
1977.2834
 20
50.0685
  0
VERTEX
  8
1
 10
1864.9874
 20
83.5610
  0
VERTEX
  8
1
 10
1789.2396
 20
103.8099
  0
VERTEX
  8
1
 10
1708.2593
 20
120.7085
  0
VERTEX
  8
1
 10
1668.9223
 20
127.9881
  0
VERTEX
  8
1
 10
1610.2661
 20
138.5215
  0
VERTEX
  8
1
 10
1610.2661
 20
138.5215
  0
VERTEX
  8
1
 10
1473.3804
 20
160.2080
  0
VERTEX
  8
1
 10
1411.6609
 20
165.9510
  0
SEQEND
  8
1
  0
POLYLINE
  8
1
 66
1
 70
0
  0
VERTEX
  8
1
 10
1411.6609
 20
165.9510
  0
VERTEX
  8
1
 10
1411.6609
 20
398.0562
  0
SEQEND
  8
1
  0
POLYLINE
  8
1
 66
1
 70
0
  0
VERTEX
  8
1
 10
1411.6609
 20
398.0562
  0
VERTEX
  8
1
 10
1471.0919
 20
403.6365
  0
VERTEX
  8
1
 10
1610.2661
 20
425.6812
  0
VERTEX
  8
1
 10
1610.2661
 20
425.6812
  0
VERTEX
  8
1
 10
1669.0442
 20
435.6913
  0
VERTEX
  8
1
 10
1708.2872
 20
442.7297
  0
VERTEX
  8
1
 10
1789.2396
 20
460.3979
  0
VERTEX
  8
1
 10
1863.9028
 20
484.5533
  0
VERTEX
  8
1
 10
1973.5039
 20
525.8004
  0
VERTEX
  8
1
 10
2043.3361
 20
553.0901
  0
VERTEX
  8
1
 10
2070.4353
 20
563.8216
  0
VERTEX
  8
1
 10
2098.4693
 20
574.8732
  0
SEQEND
  8
1
  0
LINE
  8
7
 10
1682.9736
 20
292.7147
 11
2138.4413
 21
292.7147
  0
LINE
  8
5
 10
1682.9736
 20
292.7147
 11
2138.4413
 21
292.7147
  0
POLYLINE
  8
8
 66
1
 70
0
  0
VERTEX
  8
8
 10
2316.8534
 20
282.1051
  0
VERTEX
  8
8
 10
2174.2400
 20
282.1051
  0
VERTEX
  8
8
 10
2105.2384
 20
282.1051
  0
VERTEX
  8
8
 10
1789.2396
 20
282.1051
  0
VERTEX
  8
8
 10
1610.2381
 20
282.1051
  0
VERTEX
  8
8
 10
1411.2368
 20
282.1051
  0
SEQEND
  8
8
  0
LINE
  8
8
 10
1610.2661
 20
425.6812
 11
1610.2661
 21
138.5215
  0
LINE
  8
8
 10
1789.2396
 20
460.3979
 11
1789.2396
 21
103.8099
  0
POLYLINE
  8
8
 66
1
 70
0
  0
VERTEX
  8
8
 10
2105.2384
 20
577.4538
  0
VERTEX
  8
8
 10
2105.2384
 20
281.0155
  0
VERTEX
  8
8
 10
2105.2384
 20
10.5512
  0
SEQEND
  8
8
  0
LINE
  8
8
 10
2174.2400
 20
500.1057
 11
2174.2400
 21
64.1020
  0
POLYLINE
  8
8
 66
1
 70
0
  0
VERTEX
  8
8
 10
2062.4826
 20
188.7398
  0
VERTEX
  8
8
 10
1869.3867
 20
188.7398
  0
VERTEX
  8
8
 10
1869.3867
 20
260.5710
  0
SEQEND
  8
8
  0
LINE
  8
8
 10
2174.2400
 20
476.1053
 11
2174.2400
 21
88.1025
  0
LINE
  8
8
 10
2125.2511
 20
219.9056
 11
2102.2514
 21
219.8878
  0
LINE
  8
8
 10
2125.2816
 20
184.8994
 11
2125.2511
 21
219.9006
  0
LINE
  8
8
 10
2102.2844
 20
184.8867
 11
2125.2841
 21
184.9044
  0
LINE
  8
8
 10
2102.2514
 20
219.8828
 11
2102.2818
 21
184.8816
  0
POLYLINE
  8
8
 66
1
 70
0
  0
VERTEX
  8
8
 10
1977.2859
 20
50.1016
  0
VERTEX
  8
8
 10
1987.0979
 20
168.3284
  0
VERTEX
  8
8
 10
1980.6108
 20
288.1097
  0
VERTEX
  8
8
 10
1974.1236
 20
407.9088
  0
VERTEX
  8
8
 10
1973.5039
 20
525.7343
  0
SEQEND
  8
8
  0
ENDBLK
  0
BLOCK
  8
0
  2
GLX4802S19SLL_44
 70
64
 10
0.0000
 20
0.0000
  0
TEXT
  8
1
 10
1887.9490
 20
292.7122
 40
0.250
 50
0.0000
  1
Piece Name: GLX4802S19SLL
  7
STANDARD
  0
TEXT
  8
1
 10
1887.9490
 20
296.2682
 40
0.250
 50
0.0000
  1
SIZE: 44
  7
STANDARD
  0
POLYLINE
  8
1
 66
1
 70
0
  0
VERTEX
  8
1
 10
2094.7177
 20
583.6235
  0
VERTEX
  8
1
 10
2101.4868
 20
550.7787
  0
VERTEX
  8
1
 10
2110.3641
 20
536.4709
  0
VERTEX
  8
1
 10
2122.1675
 20
524.4542
  0
VERTEX
  8
1
 10
2133.5315
 20
519.2192
  0
VERTEX
  8
1
 10
2170.4885
 20
509.1049
  0
VERTEX
  8
1
 10
2352.5938
 20
472.1454
  0
VERTEX
  8
1
 10
2367.9913
 20
469.0187
  0
SEQEND
  8
1
  0
POLYLINE
  8
1
 66
1
 70
0
  0
VERTEX
  8
1
 10
2367.9913
 20
469.0187
  0
VERTEX
  8
1
 10
2340.7244
 20
368.1146
  0
VERTEX
  8
1
 10
2320.1021
 20
282.1051
  0
VERTEX
  8
1
 10
2306.6731
 20
161.6203
  0
VERTEX
  8
1
 10
2304.9027
 20
85.5092
  0
VERTEX
  8
1
 10
2305.5707
 20
74.0563
  0
SEQEND
  8
1
  0
POLYLINE
  8
1
 66
1
 70
0
  0
VERTEX
  8
1
 10
2305.5707
 20
74.0563
  0
VERTEX
  8
1
 10
2187.0163
 20
57.4218
  0
VERTEX
  8
1
 10
2170.4885
 20
55.1028
  0
VERTEX
  8
1
 10
2160.1431
 20
52.6390
  0
VERTEX
  8
1
 10
2136.7420
 20
45.9182
  0
VERTEX
  8
1
 10
2120.6511
 20
36.5227
  0
VERTEX
  8
1
 10
2114.3722
 20
27.3000
  0
VERTEX
  8
1
 10
2101.4868
 20
1.8009
  0
SEQEND
  8
1
  0
POLYLINE
  8
1
 66
1
 70
0
  0
VERTEX
  8
1
 10
2101.4868
 20
1.8009
  0
VERTEX
  8
1
 10
2072.7036
 20
10.8027
  0
VERTEX
  8
1
 10
2040.6691
 20
20.8763
  0
VERTEX
  8
1
 10
1958.5305
 20
46.8224
  0
VERTEX
  8
1
 10
1855.2110
 20
79.1007
  0
VERTEX
  8
1
 10
1785.4880
 20
98.7095
  0
VERTEX
  8
1
 10
1704.5229
 20
116.3752
  0
VERTEX
  8
1
 10
1665.1809
 20
124.0283
  0
VERTEX
  8
1
 10
1606.5196
 20
135.1154
  0
VERTEX
  8
1
 10
1606.5196
 20
135.1154
  0
VERTEX
  8
1
 10
1469.6491
 20
157.7747
  0
VERTEX
  8
1
 10
1407.9093
 20
163.9520
  0
SEQEND
  8
1
  0
POLYLINE
  8
1
 66
1
 70
0
  0
VERTEX
  8
1
 10
1407.9093
 20
163.9520
  0
VERTEX
  8
1
 10
1407.9093
 20
400.0551
  0
SEQEND
  8
1
  0
POLYLINE
  8
1
 66
1
 70
0
  0
VERTEX
  8
1
 10
1407.9093
 20
400.0551
  0
VERTEX
  8
1
 10
1467.3606
 20
406.0521
  0
VERTEX
  8
1
 10
1606.5196
 20
429.0873
  0
VERTEX
  8
1
 10
1606.5196
 20
429.0873
  0
VERTEX
  8
1
 10
1665.3079
 20
439.6512
  0
VERTEX
  8
1
 10
1704.5559
 20
447.0604
  0
VERTEX
  8
1
 10
1785.4880
 20
465.4982
  0
VERTEX
  8
1
 10
1854.0959
 20
488.5818
  0
VERTEX
  8
1
 10
1954.7510
 20
527.8070
  0
VERTEX
  8
1
 10
2035.3910
 20
559.8313
  0
VERTEX
  8
1
 10
2066.6838
 20
572.4221
  0
VERTEX
  8
1
 10
2094.7177
 20
583.6235
  0
SEQEND
  8
1
  0
LINE
  8
7
 10
1679.2220
 20
292.7147
 11
2134.6897
 21
292.7147
  0
LINE
  8
5
 10
1679.2220
 20
292.7147
 11
2134.6897
 21
292.7147
  0
POLYLINE
  8
8
 66
1
 70
0
  0
VERTEX
  8
8
 10
2320.1021
 20
282.1051
  0
VERTEX
  8
8
 10
2170.4885
 20
282.1051
  0
VERTEX
  8
8
 10
2101.4868
 20
282.1051
  0
VERTEX
  8
8
 10
1785.4880
 20
282.1051
  0
VERTEX
  8
8
 10
1606.4866
 20
282.1051
  0
VERTEX
  8
8
 10
1407.4852
 20
282.1051
  0
SEQEND
  8
8
  0
LINE
  8
8
 10
1606.5196
 20
429.0873
 11
1606.5196
 21
135.1154
  0
LINE
  8
8
 10
1785.4880
 20
465.4982
 11
1785.4880
 21
98.7095
  0
POLYLINE
  8
8
 66
1
 70
0
  0
VERTEX
  8
8
 10
2101.4868
 20
586.2041
  0
VERTEX
  8
8
 10
2101.4868
 20
280.6142
  0
VERTEX
  8
8
 10
2101.4868
 20
1.8009
  0
SEQEND
  8
8
  0
LINE
  8
8
 10
2170.4885
 20
509.1049
 11
2170.4885
 21
55.1028
  0
POLYLINE
  8
8
 66
1
 70
0
  0
VERTEX
  8
8
 10
2058.7310
 20
188.7398
  0
VERTEX
  8
8
 10
1865.6351
 20
188.7398
  0
VERTEX
  8
8
 10
1865.6351
 20
260.5710
  0
SEQEND
  8
8
  0
LINE
  8
8
 10
2170.4885
 20
476.1053
 11
2170.4885
 21
88.1025
  0
LINE
  8
8
 10
2121.4995
 20
219.9056
 11
2098.4998
 21
219.8878
  0
LINE
  8
8
 10
2121.5300
 20
184.8994
 11
2121.4995
 21
219.9006
  0
LINE
  8
8
 10
2098.5328
 20
184.8867
 11
2121.5325
 21
184.9044
  0
LINE
  8
8
 10
2098.4998
 20
219.8828
 11
2098.5303
 21
184.8816
  0
POLYLINE
  8
8
 66
1
 70
0
  0
VERTEX
  8
8
 10
1958.5331
 20
46.8554
  0
VERTEX
  8
8
 10
1968.4645
 20
166.3853
  0
VERTEX
  8
8
 10
1961.9164
 20
287.4925
  0
VERTEX
  8
8
 10
1955.3683
 20
408.6149
  0
VERTEX
  8
8
 10
1954.7510
 20
527.7409
  0
SEQEND
  8
8
  0
ENDBLK
  0
BLOCK
  8
0
  2
GLX4802S19SLL_46
 70
64
 10
0.0000
 20
0.0000
  0
TEXT
  8
1
 10
1887.9490
 20
292.7122
 40
0.250
 50
0.0000
  1
Piece Name: GLX4802S19SLL
  7
STANDARD
  0
TEXT
  8
1
 10
1887.9490
 20
296.2682
 40
0.250
 50
0.0000
  1
SIZE: 46
  7
STANDARD
  0
POLYLINE
  8
1
 66
1
 70
0
  0
VERTEX
  8
1
 10
2088.9672
 20
593.6235
  0
VERTEX
  8
1
 10
2095.7363
 20
560.7787
  0
VERTEX
  8
1
 10
2104.6136
 20
546.4709
  0
VERTEX
  8
1
 10
2116.4169
 20
534.4542
  0
VERTEX
  8
1
 10
2127.7149
 20
528.8153
  0
VERTEX
  8
1
 10
2164.7379
 20
518.3556
  0
VERTEX
  8
1
 10
2357.4477
 20
482.7779
  0
VERTEX
  8
1
 10
2373.7418
 20
479.7679
  0
SEQEND
  8
1
  0
POLYLINE
  8
1
 66
1
 70
0
  0
VERTEX
  8
1
 10
2373.7418
 20
479.7679
  0
VERTEX
  8
1
 10
2345.8577
 20
373.0473
  0
VERTEX
  8
1
 10
2324.8519
 20
282.1051
  0
VERTEX
  8
1
 10
2310.2926
 20
155.4125
  0
VERTEX
  8
1
 10
2308.1565
 20
75.3568
  0
VERTEX
  8
1
 10
2308.8194
 20
63.3070
  0
SEQEND
  8
1
  0
POLYLINE
  8
1
 66
1
 70
0
  0
VERTEX
  8
1
 10
2308.8194
 20
63.3070
  0
VERTEX
  8
1
 10
2182.3681
 20
47.9857
  0
VERTEX
  8
1
 10
2164.7379
 20
45.8521
  0
VERTEX
  8
1
 10
2154.2020
 20
43.3858
  0
VERTEX
  8
1
 10
2130.3666
 20
36.6370
  0
VERTEX
  8
1
 10
2114.0471
 20
27.0815
  0
VERTEX
  8
1
 10
2107.9918
 20
17.6810
  0
VERTEX
  8
1
 10
2095.7363
 20
-8.1992
  0
SEQEND
  8
1
  0
POLYLINE
  8
1
 66
1
 70
0
  0
VERTEX
  8
1
 10
2095.7363
 20
-8.1992
  0
VERTEX
  8
1
 10
2066.9530
 20
0.9729
  0
VERTEX
  8
1
 10
2034.9185
 20
11.2523
  0
VERTEX
  8
1
 10
1952.7800
 20
37.7267
  0
VERTEX
  8
1
 10
1849.4706
 20
70.8889
  0
VERTEX
  8
1
 10
1779.7374
 20
91.0895
  0
VERTEX
  8
1
 10
1698.7952
 20
110.0252
  0
VERTEX
  8
1
 10
1659.4532
 20
118.2904
  0
VERTEX
  8
1
 10
1600.7817
 20
130.2919
  0
VERTEX
  8
1
 10
1600.7817
 20
130.2919
  0
VERTEX
  8
1
 10
1463.9341
 20
154.5565
  0
VERTEX
  8
1
 10
1402.1588
 20
161.4526
  0
SEQEND
  8
1
  0
POLYLINE
  8
1
 66
1
 70
0
  0
VERTEX
  8
1
 10
1402.1588
 20
161.4526
  0
VERTEX
  8
1
 10
1402.1588
 20
402.5545
  0
SEQEND
  8
1
  0
POLYLINE
  8
1
 66
1
 70
0
  0
VERTEX
  8
1
 10
1402.1588
 20
402.5545
  0
VERTEX
  8
1
 10
1461.6430
 20
409.2448
  0
VERTEX
  8
1
 10
1600.7817
 20
433.9108
  0
VERTEX
  8
1
 10
1600.7817
 20
433.9108
  0
VERTEX
  8
1
 10
1659.5878
 20
445.3891
  0
VERTEX
  8
1
 10
1698.8410
 20
453.4104
  0
VERTEX
  8
1
 10
1779.7374
 20
473.1182
  0
VERTEX
  8
1
 10
1848.3631
 20
496.7910
  0
VERTEX
  8
1
 10
1949.0005
 20
536.8976
  0
VERTEX
  8
1
 10
2029.6404
 20
569.4630
  0
VERTEX
  8
1
 10
2060.9332
 20
582.2620
  0
VERTEX
  8
1
 10
2088.9672
 20
593.6235
  0
SEQEND
  8
1
  0
LINE
  8
7
 10
1673.4714
 20
292.7147
 11
2128.9392
 21
292.7147
  0
LINE
  8
5
 10
1673.4714
 20
292.7147
 11
2128.9392
 21
292.7147
  0
POLYLINE
  8
8
 66
1
 70
0
  0
VERTEX
  8
8
 10
2324.8519
 20
282.1051
  0
VERTEX
  8
8
 10
2164.7379
 20
282.1051
  0
VERTEX
  8
8
 10
2095.7363
 20
282.1051
  0
VERTEX
  8
8
 10
1779.7374
 20
282.1051
  0
VERTEX
  8
8
 10
1600.7360
 20
282.1051
  0
VERTEX
  8
8
 10
1401.7346
 20
282.1051
  0
SEQEND
  8
8
  0
LINE
  8
8
 10
1600.7817
 20
433.9108
 11
1600.7817
 21
130.2919
  0
LINE
  8
8
 10
1779.7374
 20
473.1182
 11
1779.7374
 21
91.0895
  0
POLYLINE
  8
8
 66
1
 70
0
  0
VERTEX
  8
8
 10
2095.7363
 20
596.2041
  0
VERTEX
  8
8
 10
2095.7363
 20
280.1570
  0
VERTEX
  8
8
 10
2095.7363
 20
-8.1992
  0
SEQEND
  8
8
  0
LINE
  8
8
 10
2164.7379
 20
518.3556
 11
2164.7379
 21
45.8521
  0
POLYLINE
  8
8
 66
1
 70
0
  0
VERTEX
  8
8
 10
2052.9805
 20
188.7398
  0
VERTEX
  8
8
 10
1859.8846
 20
188.7398
  0
VERTEX
  8
8
 10
1859.8846
 20
260.5710
  0
SEQEND
  8
8
  0
LINE
  8
8
 10
2164.7379
 20
476.1053
 11
2164.7379
 21
88.1025
  0
LINE
  8
8
 10
2115.7489
 20
219.9056
 11
2092.7492
 21
219.8878
  0
LINE
  8
8
 10
2115.7794
 20
184.8994
 11
2115.7489
 21
219.9006
  0
LINE
  8
8
 10
2092.7823
 20
184.8867
 11
2115.7820
 21
184.9044
  0
LINE
  8
8
 10
2092.7492
 20
219.8828
 11
2092.7797
 21
184.8816
  0
POLYLINE
  8
8
 66
1
 70
0
  0
VERTEX
  8
8
 10
1952.7825
 20
37.7597
  0
VERTEX
  8
8
 10
1963.1254
 20
161.8082
  0
VERTEX
  8
8
 10
1956.3639
 20
287.4950
  0
VERTEX
  8
8
 10
1949.6050
 20
413.1996
  0
VERTEX
  8
8
 10
1949.0005
 20
536.8316
  0
SEQEND
  8
8
  0
ENDBLK
  0
BLOCK
  8
0
  2
GLX4802S19SLL_48
 70
64
 10
0.0000
 20
0.0000
  0
TEXT
  8
1
 10
1887.9490
 20
292.7122
 40
0.250
 50
0.0000
  1
Piece Name: GLX4802S19SLL
  7
STANDARD
  0
TEXT
  8
1
 10
1887.9490
 20
296.2682
 40
0.250
 50
0.0000
  1
SIZE: 48
  7
STANDARD
  0
POLYLINE
  8
1
 66
1
 70
0
  0
VERTEX
  8
1
 10
2083.2166
 20
603.6234
  0
VERTEX
  8
1
 10
2089.9857
 20
570.7787
  0
VERTEX
  8
1
 10
2098.8630
 20
556.4709
  0
VERTEX
  8
1
 10
2110.6664
 20
544.4541
  0
VERTEX
  8
1
 10
2121.8957
 20
538.4140
  0
VERTEX
  8
1
 10
2158.9873
 20
527.6063
  0
VERTEX
  8
1
 10
2362.3016
 20
493.4103
  0
VERTEX
  8
1
 10
2379.4924
 20
490.5172
  0
SEQEND
  8
1
  0
POLYLINE
  8
1
 66
1
 70
0
  0
VERTEX
  8
1
 10
2379.4924
 20
490.5172
  0
VERTEX
  8
1
 10
2350.9910
 20
377.9825
  0
VERTEX
  8
1
 10
2329.6017
 20
282.1051
  0
VERTEX
  8
1
 10
2313.9121
 20
149.2047
  0
VERTEX
  8
1
 10
2311.4128
 20
65.2044
  0
VERTEX
  8
1
 10
2312.0681
 20
52.5577
  0
SEQEND
  8
1
  0
POLYLINE
  8
1
 66
1
 70
0
  0
VERTEX
  8
1
 10
2312.0681
 20
52.5577
  0
VERTEX
  8
1
 10
2177.7173
 20
38.5522
  0
VERTEX
  8
1
 10
2158.9873
 20
36.6015
  0
VERTEX
  8
1
 10
2148.2635
 20
34.1249
  0
VERTEX
  8
1
 10
2123.9963
 20
27.3330
  0
VERTEX
  8
1
 10
2107.4533
 20
17.6099
  0
VERTEX
  8
1
 10
2101.6215
 20
8.0391
  0
VERTEX
  8
1
 10
2089.9857
 20
-18.1991
  0
SEQEND
  8
1
  0
POLYLINE
  8
1
 66
1
 70
0
  0
VERTEX
  8
1
 10
2089.9857
 20
-18.1991
  0
VERTEX
  8
1
 10
2061.2024
 20
-8.8570
  0
VERTEX
  8
1
 10
2029.1680
 20
1.6282
  0
VERTEX
  8
1
 10
1947.0294
 20
28.6309
  0
VERTEX
  8
1
 10
1843.7302
 20
62.6771
  0
VERTEX
  8
1
 10
1773.9869
 20
83.4695
  0
VERTEX
  8
1
 10
1693.0675
 20
103.6727
  0
VERTEX
  8
1
 10
1653.7204
 20
112.5500
  0
VERTEX
  8
1
 10
1595.0413
 20
125.4659
  0
VERTEX
  8
1
 10
1595.0413
 20
125.4659
  0
VERTEX
  8
1
 10
1458.2191
 20
151.3383
  0
VERTEX
  8
1
 10
1396.4082
 20
158.9533
  0
SEQEND
  8
1
  0
POLYLINE
  8
1
 66
1
 70
0
  0
VERTEX
  8
1
 10
1396.4082
 20
158.9533
  0
VERTEX
  8
1
 10
1396.4082
 20
405.0539
  0
SEQEND
  8
1
  0
POLYLINE
  8
1
 66
1
 70
0
  0
VERTEX
  8
1
 10
1396.4082
 20
405.0539
  0
VERTEX
  8
1
 10
1455.9281
 20
412.4351
  0
VERTEX
  8
1
 10
1595.0413
 20
438.7368
  0
VERTEX
  8
1
 10
1595.0413
 20
438.7368
  0
VERTEX
  8
1
 10
1653.8652
 20
451.1295
  0
VERTEX
  8
1
 10
1693.1260
 20
459.7604
  0
VERTEX
  8
1
 10
1773.9869
 20
480.7382
  0
VERTEX
  8
1
 10
1842.6303
 20
505.0029
  0
VERTEX
  8
1
 10
1943.2499
 20
545.9883
  0
VERTEX
  8
1
 10
2023.8924
 20
579.0921
  0
VERTEX
  8
1
 10
2055.1826
 20
592.1020
  0
VERTEX
  8
1
 10
2083.2166
 20
603.6234
  0
SEQEND
  8
1
  0
LINE
  8
7
 10
1667.7209
 20
292.7147
 11
2123.1886
 21
292.7147
  0
LINE
  8
5
 10
1667.7209
 20
292.7147
 11
2123.1886
 21
292.7147
  0
POLYLINE
  8
8
 66
1
 70
0
  0
VERTEX
  8
8
 10
2329.6017
 20
282.1051
  0
VERTEX
  8
8
 10
2158.9873
 20
282.1051
  0
VERTEX
  8
8
 10
2089.9857
 20
282.1051
  0
VERTEX
  8
8
 10
1773.9869
 20
282.1051
  0
VERTEX
  8
8
 10
1594.9854
 20
282.1051
  0
VERTEX
  8
8
 10
1395.9841
 20
282.1051
  0
SEQEND
  8
8
  0
LINE
  8
8
 10
1595.0413
 20
438.7368
 11
1595.0413
 21
125.4659
  0
LINE
  8
8
 10
1773.9869
 20
480.7382
 11
1773.9869
 21
83.4695
  0
POLYLINE
  8
8
 66
1
 70
0
  0
VERTEX
  8
8
 10
2089.9857
 20
606.2041
  0
VERTEX
  8
8
 10
2089.9857
 20
279.6998
  0
VERTEX
  8
8
 10
2089.9857
 20
-18.1991
  0
SEQEND
  8
8
  0
LINE
  8
8
 10
2158.9873
 20
527.6063
 11
2158.9873
 21
36.6015
  0
POLYLINE
  8
8
 66
1
 70
0
  0
VERTEX
  8
8
 10
2047.2299
 20
188.7398
  0
VERTEX
  8
8
 10
1854.1340
 20
188.7398
  0
VERTEX
  8
8
 10
1854.1340
 20
260.5710
  0
SEQEND
  8
8
  0
LINE
  8
8
 10
2158.9873
 20
476.1053
 11
2158.9873
 21
88.1025
  0
LINE
  8
8
 10
2109.9984
 20
219.9056
 11
2086.9987
 21
219.8878
  0
LINE
  8
8
 10
2110.0289
 20
184.8994
 11
2109.9984
 21
219.9006
  0
LINE
  8
8
 10
2087.0317
 20
184.8867
 11
2110.0314
 21
184.9044
  0
LINE
  8
8
 10
2086.9987
 20
219.8828
 11
2087.0291
 21
184.8816
  0
POLYLINE
  8
8
 66
1
 70
0
  0
VERTEX
  8
8
 10
1947.0320
 20
28.6640
  0
VERTEX
  8
8
 10
1957.7838
 20
157.2286
  0
VERTEX
  8
8
 10
1950.8140
 20
287.4976
  0
VERTEX
  8
8
 10
1943.8417
 20
417.7843
  0
VERTEX
  8
8
 10
1943.2499
 20
545.9222
  0
SEQEND
  8
8
  0
ENDBLK
  0
BLOCK
  8
0
  2
GLX4802S19SLL_50
 70
64
 10
0.0000
 20
0.0000
  0
TEXT
  8
1
 10
1887.9490
 20
292.7122
 40
0.250
 50
0.0000
  1
Piece Name: GLX4802S19SLL
  7
STANDARD
  0
TEXT
  8
1
 10
1887.9490
 20
296.2682
 40
0.250
 50
0.0000
  1
SIZE: 50
  7
STANDARD
  0
POLYLINE
  8
1
 66
1
 70
0
  0
VERTEX
  8
1
 10
2078.9672
 20
614.8731
  0
VERTEX
  8
1
 10
2085.7363
 20
582.0284
  0
VERTEX
  8
1
 10
2094.6136
 20
567.7205
  0
VERTEX
  8
1
 10
2106.4170
 20
555.7038
  0
VERTEX
  8
1
 10
2117.5803
 20
549.2623
  0
VERTEX
  8
1
 10
2154.7379
 20
538.1067
  0
VERTEX
  8
1
 10
2365.8881
 20
505.9858
  0
VERTEX
  8
1
 10
2383.7418
 20
503.2680
  0
SEQEND
  8
1
  0
POLYLINE
  8
1
 66
1
 70
0
  0
VERTEX
  8
1
 10
2383.7418
 20
503.2680
  0
VERTEX
  8
1
 10
2354.6080
 20
383.8347
  0
VERTEX
  8
1
 10
2332.8529
 20
282.1051
  0
VERTEX
  8
1
 10
2315.9873
 20
141.8362
  0
VERTEX
  8
1
 10
2313.1552
 20
53.1597
  0
VERTEX
  8
1
 10
2313.8181
 20
39.8069
  0
SEQEND
  8
1
  0
POLYLINE
  8
1
 66
1
 70
0
  0
VERTEX
  8
1
 10
2313.8181
 20
39.8069
  0
VERTEX
  8
1
 10
2174.2020
 20
27.7775
  0
VERTEX
  8
1
 10
2154.7379
 20
26.1011
  0
VERTEX
  8
1
 10
2143.8007
 20
23.6297
  0
VERTEX
  8
1
 10
2119.0433
 20
16.8225
  0
VERTEX
  8
1
 10
2102.2361
 20
6.9419
  0
VERTEX
  8
1
 10
2096.6583
 20
-2.8169
  0
VERTEX
  8
1
 10
2085.7363
 20
-29.4488
  0
SEQEND
  8
1
  0
POLYLINE
  8
1
 66
1
 70
0
  0
VERTEX
  8
1
 10
2085.7363
 20
-29.4488
  0
VERTEX
  8
1
 10
2056.9530
 20
-19.8882
  0
VERTEX
  8
1
 10
2024.9185
 20
-9.1288
  0
VERTEX
  8
1
 10
1942.7800
 20
18.5751
  0
VERTEX
  8
1
 10
1839.4934
 20
53.8049
  0
VERTEX
  8
1
 10
1769.7374
 20
75.3898
  0
VERTEX
  8
1
 10
1688.8435
 20
96.9747
  0
VERTEX
  8
1
 10
1649.4938
 20
106.5226
  0
VERTEX
  8
1
 10
1590.8046
 20
120.4342
  0
VERTEX
  8
1
 10
1590.8046
 20
120.4342
  0
VERTEX
  8
1
 10
1454.0104
 20
148.0566
  0
VERTEX
  8
1
 10
1392.1588
 20
156.4539
  0
SEQEND
  8
1
  0
POLYLINE
  8
1
 66
1
 70
0
  0
VERTEX
  8
1
 10
1392.1588
 20
156.4539
  0
VERTEX
  8
1
 10
1392.1588
 20
407.5532
  0
SEQEND
  8
1
  0
POLYLINE
  8
1
 66
1
 70
0
  0
VERTEX
  8
1
 10
1392.1588
 20
407.5532
  0
VERTEX
  8
1
 10
1451.7167
 20
415.6863
  0
VERTEX
  8
1
 10
1590.8046
 20
443.7685
  0
VERTEX
  8
1
 10
1590.8046
 20
443.7685
  0
VERTEX
  8
1
 10
1649.6462
 20
457.1569
  0
VERTEX
  8
1
 10
1688.9146
 20
466.4558
  0
VERTEX
  8
1
 10
1769.7374
 20
488.8180
  0
VERTEX
  8
1
 10
1838.4012
 20
513.8674
  0
VERTEX
  8
1
 10
1939.0005
 20
556.0264
  0
VERTEX
  8
1
 10
2019.6429
 20
589.8515
  0
VERTEX
  8
1
 10
2050.9332
 20
603.1408
  0
VERTEX
  8
1
 10
2078.9672
 20
614.8731
  0
SEQEND
  8
1
  0
LINE
  8
7
 10
1663.4715
 20
292.7147
 11
2118.9392
 21
292.7147
  0
LINE
  8
5
 10
1663.4715
 20
292.7147
 11
2118.9392
 21
292.7147
  0
POLYLINE
  8
8
 66
1
 70
0
  0
VERTEX
  8
8
 10
2332.8529
 20
282.1051
  0
VERTEX
  8
8
 10
2154.7379
 20
282.1051
  0
VERTEX
  8
8
 10
2085.7363
 20
282.1051
  0
VERTEX
  8
8
 10
1769.7374
 20
282.1051
  0
VERTEX
  8
8
 10
1590.7360
 20
282.1051
  0
VERTEX
  8
8
 10
1391.7346
 20
282.1051
  0
SEQEND
  8
8
  0
LINE
  8
8
 10
1590.8046
 20
443.7685
 11
1590.8046
 21
120.4342
  0
LINE
  8
8
 10
1769.7374
 20
488.8180
 11
1769.7374
 21
75.3898
  0
POLYLINE
  8
8
 66
1
 70
0
  0
VERTEX
  8
8
 10
2085.7363
 20
617.4537
  0
VERTEX
  8
8
 10
2085.7363
 20
279.1841
  0
VERTEX
  8
8
 10
2085.7363
 20
-29.4488
  0
SEQEND
  8
8
  0
LINE
  8
8
 10
2154.7379
 20
538.1067
 11
2154.7379
 21
26.1011
  0
POLYLINE
  8
8
 66
1
 70
0
  0
VERTEX
  8
8
 10
2042.9805
 20
188.7398
  0
VERTEX
  8
8
 10
1849.8846
 20
188.7398
  0
VERTEX
  8
8
 10
1849.8846
 20
260.5710
  0
SEQEND
  8
8
  0
LINE
  8
8
 10
2154.7379
 20
476.1053
 11
2154.7379
 21
88.1025
  0
LINE
  8
8
 10
2105.7490
 20
219.9056
 11
2082.7492
 21
219.8878
  0
LINE
  8
8
 10
2105.7794
 20
184.8994
 11
2105.7490
 21
219.9006
  0
LINE
  8
8
 10
2082.7823
 20
184.8867
 11
2105.7820
 21
184.9044
  0
LINE
  8
8
 10
2082.7492
 20
219.8828
 11
2082.7797
 21
184.8816
  0
POLYLINE
  8
8
 66
1
 70
0
  0
VERTEX
  8
8
 10
1942.7825
 20
18.6081
  0
VERTEX
  8
8
 10
1953.9890
 20
152.1638
  0
VERTEX
  8
8
 10
1946.7856
 20
287.4950
  0
VERTEX
  8
8
 10
1939.5796
 20
422.8465
  0
VERTEX
  8
8
 10
1939.0005
 20
555.9603
  0
SEQEND
  8
8
  0
ENDBLK
  0
BLOCK
  8
0
  2
GLX4802S19SLL_52
 70
64
 10
0.0000
 20
0.0000
  0
TEXT
  8
1
 10
1887.9490
 20
292.7122
 40
0.250
 50
0.0000
  1
Piece Name: GLX4802S19SLL
  7
STANDARD
  0
TEXT
  8
1
 10
1887.9490
 20
296.2682
 40
0.250
 50
0.0000
  1
SIZE: 52
  7
STANDARD
  0
POLYLINE
  8
1
 66
1
 70
0
  0
VERTEX
  8
1
 10
2074.7178
 20
626.1228
  0
VERTEX
  8
1
 10
2081.4869
 20
593.2780
  0
VERTEX
  8
1
 10
2090.3642
 20
578.9702
  0
VERTEX
  8
1
 10
2102.1676
 20
566.9534
  0
VERTEX
  8
1
 10
2113.2826
 20
560.2097
  0
VERTEX
  8
1
 10
2150.4885
 20
548.6070
  0
VERTEX
  8
1
 10
2369.4746
 20
518.5614
  0
VERTEX
  8
1
 10
2387.9912
 20
516.0188
  0
SEQEND
  8
1
  0
POLYLINE
  8
1
 66
1
 70
0
  0
VERTEX
  8
1
 10
2387.9912
 20
516.0188
  0
VERTEX
  8
1
 10
2358.2275
 20
389.6843
  0
VERTEX
  8
1
 10
2336.1041
 20
282.1051
  0
VERTEX
  8
1
 10
2318.0599
 20
134.4651
  0
VERTEX
  8
1
 10
2314.8976
 20
41.1150
  0
VERTEX
  8
1
 10
2315.5682
 20
27.0561
  0
SEQEND
  8
1
  0
POLYLINE
  8
1
 66
1
 70
0
  0
VERTEX
  8
1
 10
2315.5682
 20
27.0561
  0
VERTEX
  8
1
 10
2170.6866
 20
17.0003
  0
VERTEX
  8
1
 10
2150.4885
 20
15.6007
  0
VERTEX
  8
1
 10
2139.3405
 20
13.1014
  0
VERTEX
  8
1
 10
2114.1056
 20
6.2154
  0
VERTEX
  8
1
 10
2097.0317
 20
-3.7593
  0
VERTEX
  8
1
 10
2091.7078
 20
-13.6983
  0
VERTEX
  8
1
 10
2081.4869
 20
-40.6985
  0
SEQEND
  8
1
  0
POLYLINE
  8
1
 66
1
 70
0
  0
VERTEX
  8
1
 10
2081.4869
 20
-40.6985
  0
VERTEX
  8
1
 10
2052.7036
 20
-30.9195
  0
VERTEX
  8
1
 10
2020.6691
 20
-19.8832
  0
VERTEX
  8
1
 10
1938.5306
 20
8.5294
  0
VERTEX
  8
1
 10
1835.2593
 20
44.9377
  0
VERTEX
  8
1
 10
1765.4880
 20
67.3101
  0
VERTEX
  8
1
 10
1684.6170
 20
90.2793
  0
VERTEX
  8
1
 10
1645.2647
 20
100.4952
  0
VERTEX
  8
1
 10
1586.5653
 20
115.4024
  0
VERTEX
  8
1
 10
1586.5653
 20
115.4024
  0
VERTEX
  8
1
 10
1449.7965
 20
144.7750
  0
VERTEX
  8
1
 10
1387.9094
 20
153.9545
  0
SEQEND
  8
1
  0
POLYLINE
  8
1
 66
1
 70
0
  0
VERTEX
  8
1
 10
1387.9094
 20
153.9545
  0
VERTEX
  8
1
 10
1387.9094
 20
410.0526
  0
SEQEND
  8
1
  0
POLYLINE
  8
1
 66
1
 70
0
  0
VERTEX
  8
1
 10
1387.9094
 20
410.0526
  0
VERTEX
  8
1
 10
1447.5029
 20
418.9400
  0
VERTEX
  8
1
 10
1586.5653
 20
448.8003
  0
VERTEX
  8
1
 10
1586.5653
 20
448.8003
  0
VERTEX
  8
1
 10
1645.4273
 20
463.1868
  0
VERTEX
  8
1
 10
1684.7008
 20
473.1513
  0
VERTEX
  8
1
 10
1765.4880
 20
496.8977
  0
VERTEX
  8
1
 10
1834.1747
 20
522.7320
  0
VERTEX
  8
1
 10
1934.7511
 20
566.0644
  0
VERTEX
  8
1
 10
2015.3935
 20
600.6110
  0
VERTEX
  8
1
 10
2046.6838
 20
614.1797
  0
VERTEX
  8
1
 10
2074.7178
 20
626.1228
  0
SEQEND
  8
1
  0
LINE
  8
7
 10
1659.2220
 20
292.7147
 11
2114.6898
 21
292.7147
  0
LINE
  8
5
 10
1659.2220
 20
292.7147
 11
2114.6898
 21
292.7147
  0
POLYLINE
  8
8
 66
1
 70
0
  0
VERTEX
  8
8
 10
2336.1041
 20
282.1051
  0
VERTEX
  8
8
 10
2150.4885
 20
282.1051
  0
VERTEX
  8
8
 10
2081.4869
 20
282.1051
  0
VERTEX
  8
8
 10
1765.4880
 20
282.1051
  0
VERTEX
  8
8
 10
1586.4866
 20
282.1051
  0
VERTEX
  8
8
 10
1387.4852
 20
282.1051
  0
SEQEND
  8
8
  0
LINE
  8
8
 10
1586.5653
 20
448.8003
 11
1586.5653
 21
115.4024
  0
LINE
  8
8
 10
1765.4880
 20
496.8977
 11
1765.4880
 21
67.3101
  0
POLYLINE
  8
8
 66
1
 70
0
  0
VERTEX
  8
8
 10
2081.4869
 20
628.7034
  0
VERTEX
  8
8
 10
2081.4869
 20
278.6685
  0
VERTEX
  8
8
 10
2081.4869
 20
-40.6985
  0
SEQEND
  8
8
  0
LINE
  8
8
 10
2150.4885
 20
548.6070
 11
2150.4885
 21
15.6007
  0
POLYLINE
  8
8
 66
1
 70
0
  0
VERTEX
  8
8
 10
2038.7311
 20
188.7398
  0
VERTEX
  8
8
 10
1845.6352
 20
188.7398
  0
VERTEX
  8
8
 10
1845.6352
 20
260.5710
  0
SEQEND
  8
8
  0
LINE
  8
8
 10
2150.4885
 20
476.1053
 11
2150.4885
 21
88.1025
  0
LINE
  8
8
 10
2101.4995
 20
219.9056
 11
2078.4998
 21
219.8878
  0
LINE
  8
8
 10
2101.5300
 20
184.8994
 11
2101.4995
 21
219.9006
  0
LINE
  8
8
 10
2078.5329
 20
184.8867
 11
2101.5325
 21
184.9044
  0
LINE
  8
8
 10
2078.4998
 20
219.8828
 11
2078.5303
 21
184.8816
  0
POLYLINE
  8
8
 66
1
 70
0
  0
VERTEX
  8
8
 10
1938.5331
 20
8.5624
  0
VERTEX
  8
8
 10
1950.1943
 20
147.1067
  0
VERTEX
  8
8
 10
1942.7546
 20
287.4976
  0
VERTEX
  8
8
 10
1935.3175
 20
427.9088
  0
VERTEX
  8
8
 10
1934.7511
 20
565.9984
  0
SEQEND
  8
8
  0
ENDBLK
  0
ENDSEC
  0
SECTION
  2
ENTITIES
  0
TEXT
  8
1
 10
0.0000
 20
0.0000
 40
0.250
 50
0.0000
  1
Style Name: GLX4802S19
  7
STANDARD
  0
TEXT
  8
1
 10
0.0000
 20
3.5560
 40
0.250
 50
0.0000
  1
Creation Date:  4-12-2017
  7
STANDARD
  0
TEXT
  8
1
 10
0.0000
 20
7.1121
 40
0.250
 50
0.0000
  1
Creation Time: 10:20
  7
STANDARD
  0
TEXT
  8
1
 10
0.0000
 20
10.6680
 40
0.250
 50
0.0000
  1
Author: GERBER TECHNOLOGY
  7
STANDARD
  0
TEXT
  8
1
 10
0.0000
 20
14.2241
 40
0.250
 50
0.0000
  1
PRODUCT: ACCUMARK
  7
STANDARD
  0
TEXT
  8
1
 10
0.0000
 20
17.7800
 40
0.250
 50
0.0000
  1
VERSION: 10.0.1
  7
STANDARD
  0
TEXT
  8
1
 10
0.0000
 20
21.3361
 40
0.250
 50
0.0000
  1
Sample Size: 36
  7
STANDARD
  0
TEXT
  8
1
 10
0.0000
 20
24.8921
 40
0.250
 50
0.0000
  1
Units: METRIC
  7
STANDARD
  0
TEXT
  8
1
 10
0.0000
 20
28.4480
 40
0.250
 50
0.0000
  1
TOLERANCE: .152
  7
STANDARD
  0
INSERT
  8
1
  2
GLX4802SLS_26
 10
0.0000
 20
0.0000
  0
INSERT
  8
1
  2
GLX4802SLS_28
 10
0.0000
 20
0.0000
  0
INSERT
  8
1
  2
GLX4802SLS_30
 10
0.0000
 20
0.0000
  0
INSERT
  8
1
  2
GLX4802SLS_32
 10
0.0000
 20
0.0000
  0
INSERT
  8
1
  2
GLX4802SLS_34
 10
0.0000
 20
0.0000
  0
INSERT
  8
1
  2
GLX4802SLS_36
 10
0.0000
 20
0.0000
  0
INSERT
  8
1
  2
GLX4802SLS_38
 10
0.0000
 20
0.0000
  0
INSERT
  8
1
  2
GLX4802SLS_40
 10
0.0000
 20
0.0000
  0
INSERT
  8
1
  2
GLX4802SLS_42
 10
0.0000
 20
0.0000
  0
INSERT
  8
1
  2
GLX4802SLS_44
 10
0.0000
 20
0.0000
  0
INSERT
  8
1
  2
GLX4802SLS_46
 10
0.0000
 20
0.0000
  0
INSERT
  8
1
  2
GLX4802SLS_48
 10
0.0000
 20
0.0000
  0
INSERT
  8
1
  2
GLX4802SLS_50
 10
0.0000
 20
0.0000
  0
INSERT
  8
1
  2
GLX4802SLS_52
 10
0.0000
 20
0.0000
  0
INSERT
  8
1
  2
GLX4802S19SLO_26
 10
0.0000
 20
0.0000
  0
INSERT
  8
1
  2
GLX4802S19SLO_28
 10
0.0000
 20
0.0000
  0
INSERT
  8
1
  2
GLX4802S19SLO_30
 10
0.0000
 20
0.0000
  0
INSERT
  8
1
  2
GLX4802S19SLO_32
 10
0.0000
 20
0.0000
  0
INSERT
  8
1
  2
GLX4802S19SLO_34
 10
0.0000
 20
0.0000
  0
INSERT
  8
1
  2
GLX4802S19SLO_36
 10
0.0000
 20
0.0000
  0
INSERT
  8
1
  2
GLX4802S19SLO_38
 10
0.0000
 20
0.0000
  0
INSERT
  8
1
  2
GLX4802S19SLO_40
 10
0.0000
 20
0.0000
  0
INSERT
  8
1
  2
GLX4802S19SLO_42
 10
0.0000
 20
0.0000
  0
INSERT
  8
1
  2
GLX4802S19SLO_44
 10
0.0000
 20
0.0000
  0
INSERT
  8
1
  2
GLX4802S19SLO_46
 10
0.0000
 20
0.0000
  0
INSERT
  8
1
  2
GLX4802S19SLO_48
 10
0.0000
 20
0.0000
  0
INSERT
  8
1
  2
GLX4802S19SLO_50
 10
0.0000
 20
0.0000
  0
INSERT
  8
1
  2
GLX4802S19SLO_52
 10
0.0000
 20
0.0000
  0
INSERT
  8
1
  2
GLX4802S19SLL_26
 10
0.0000
 20
0.0000
  0
INSERT
  8
1
  2
GLX4802S19SLL_28
 10
0.0000
 20
0.0000
  0
INSERT
  8
1
  2
GLX4802S19SLL_30
 10
0.0000
 20
0.0000
  0
INSERT
  8
1
  2
GLX4802S19SLL_32
 10
0.0000
 20
0.0000
  0
INSERT
  8
1
  2
GLX4802S19SLL_34
 10
0.0000
 20
0.0000
  0
INSERT
  8
1
  2
GLX4802S19SLL_36
 10
0.0000
 20
0.0000
  0
INSERT
  8
1
  2
GLX4802S19SLL_38
 10
0.0000
 20
0.0000
  0
INSERT
  8
1
  2
GLX4802S19SLL_40
 10
0.0000
 20
0.0000
  0
INSERT
  8
1
  2
GLX4802S19SLL_42
 10
0.0000
 20
0.0000
  0
INSERT
  8
1
  2
GLX4802S19SLL_44
 10
0.0000
 20
0.0000
  0
INSERT
  8
1
  2
GLX4802S19SLL_46
 10
0.0000
 20
0.0000
  0
INSERT
  8
1
  2
GLX4802S19SLL_48
 10
0.0000
 20
0.0000
  0
INSERT
  8
1
  2
GLX4802S19SLL_50
 10
0.0000
 20
0.0000
  0
INSERT
  8
1
  2
GLX4802S19SLL_52
 10
0.0000
 20
0.0000
  0
ENDSEC
  0
EOF
