  0
SECTION
  2
HEADER
  0
ENDSEC
  0
SECTION
  2
BLOCKS
  0
BLOCK
  8
0
  2
RELAXED TANK FR V2_26
 70
64
 10
0.0000
 20
0.0000
  0
TEXT
  8
1
 10
13.6624
 20
24.9082
 40
0.250
 50
0.0000
  1
Piece Name: RELAXED TANK FR V2
  7
STANDARD
  0
TEXT
  8
1
 10
13.6624
 20
25.0482
 40
0.250
 50
0.0000
  1
SIZE: 26
  7
STANDARD
  0
POLYLINE
  8
1
 66
1
 70
0
  0
VERTEX
  8
1
 10
0.6047
 20
19.8371
  0
VERTEX
  8
1
 10
0.4060
 20
21.4288
  0
VERTEX
  8
1
 10
0.0971
 20
24.4811
  0
VERTEX
  8
1
 10
0.0158
 20
28.1912
  0
VERTEX
  8
1
 10
0.0295
 20
29.9794
  0
SEQEND
  8
1
  0
POLYLINE
  8
1
 66
1
 70
0
  0
VERTEX
  8
1
 10
0.0295
 20
29.9794
  0
VERTEX
  8
1
 10
18.1644
 20
27.7837
  0
SEQEND
  8
1
  0
POLYLINE
  8
1
 66
1
 70
0
  0
VERTEX
  8
1
 10
18.1644
 20
27.7837
  0
VERTEX
  8
1
 10
18.3477
 20
26.9818
  0
VERTEX
  8
1
 10
18.9003
 20
26.1690
  0
VERTEX
  8
1
 10
19.9863
 20
25.5334
  0
VERTEX
  8
1
 10
20.6439
 20
25.3492
  0
VERTEX
  8
1
 10
22.5583
 20
25.1068
  0
VERTEX
  8
1
 10
25.5674
 20
25.0459
  0
VERTEX
  8
1
 10
27.0992
 20
25.1755
  0
SEQEND
  8
1
  0
POLYLINE
  8
1
 66
1
 70
0
  0
VERTEX
  8
1
 10
27.0992
 20
25.1755
  0
VERTEX
  8
1
 10
27.3090
 20
24.2253
  0
SEQEND
  8
1
  0
POLYLINE
  8
1
 66
1
 70
0
  0
VERTEX
  8
1
 10
27.3090
 20
24.2253
  0
VERTEX
  8
1
 10
26.0804
 20
24.0583
  0
VERTEX
  8
1
 10
23.3528
 20
23.0450
  0
VERTEX
  8
1
 10
22.6364
 20
22.1751
  0
VERTEX
  8
1
 10
22.1734
 20
20.8382
  0
VERTEX
  8
1
 10
22.1361
 20
19.8376
  0
SEQEND
  8
1
  0
POLYLINE
  8
1
 66
1
 70
0
  0
VERTEX
  8
1
 10
22.1361
 20
19.8376
  0
VERTEX
  8
1
 10
0.6047
 20
19.8371
  0
SEQEND
  8
1
  0
LINE
  8
7
 10
7.9257
 20
24.5623
 11
20.2645
 21
24.5623
  0
LINE
  8
5
 10
7.9257
 20
24.5623
 11
20.2645
 21
24.5623
  0
LINE
  8
8
 10
15.0807
 20
28.4236
 11
15.0961
 21
19.8374
  0
POLYLINE
  8
8
 66
1
 70
0
  0
VERTEX
  8
8
 10
10.2440
 20
22.9811
  0
VERTEX
  8
8
 10
8.9741
 20
22.9811
  0
VERTEX
  8
8
 10
8.9741
 20
23.9749
  0
SEQEND
  8
8
  0
LINE
  8
8
 10
20.1607
 20
19.8376
 11
20.2169
 21
25.4339
  0
LINE
  8
8
 10
17.3846
 20
27.8933
 11
17.3846
 21
19.8375
  0
LINE
  8
8
 10
1.3484
 20
31.2729
 11
1.3484
 21
19.8372
  0
LINE
  8
6
 10
22.1361
 20
19.8376
 11
0.6047
 21
19.8371
  0
ENDBLK
  0
BLOCK
  8
0
  2
RELAXED TANK FR V2_28
 70
64
 10
0.0000
 20
0.0000
  0
TEXT
  8
1
 10
13.6624
 20
25.0363
 40
0.250
 50
0.0000
  1
Piece Name: RELAXED TANK FR V2
  7
STANDARD
  0
TEXT
  8
1
 10
13.6624
 20
25.1763
 40
0.250
 50
0.0000
  1
SIZE: 28
  7
STANDARD
  0
POLYLINE
  8
1
 66
1
 70
0
  0
VERTEX
  8
1
 10
0.5207
 20
19.8371
  0
VERTEX
  8
1
 10
0.3519
 20
21.4714
  0
VERTEX
  8
1
 10
0.1021
 20
24.6038
  0
VERTEX
  8
1
 10
0.0997
 20
28.4048
  0
VERTEX
  8
1
 10
0.1527
 20
30.2356
  0
SEQEND
  8
1
  0
POLYLINE
  8
1
 66
1
 70
0
  0
VERTEX
  8
1
 10
0.1527
 20
30.2356
  0
VERTEX
  8
1
 10
18.0805
 20
27.7837
  0
SEQEND
  8
1
  0
POLYLINE
  8
1
 66
1
 70
0
  0
VERTEX
  8
1
 10
18.0805
 20
27.7837
  0
VERTEX
  8
1
 10
18.2730
 20
26.9709
  0
VERTEX
  8
1
 10
18.8406
 20
26.1501
  0
VERTEX
  8
1
 10
19.9485
 20
25.5135
  0
VERTEX
  8
1
 10
20.6176
 20
25.3318
  0
VERTEX
  8
1
 10
22.5634
 20
25.1010
  0
VERTEX
  8
1
 10
25.6193
 20
25.0634
  0
VERTEX
  8
1
 10
27.0168
 20
25.1722
  0
SEQEND
  8
1
  0
POLYLINE
  8
1
 66
1
 70
0
  0
VERTEX
  8
1
 10
27.0168
 20
25.1722
  0
VERTEX
  8
1
 10
27.2251
 20
24.2254
  0
SEQEND
  8
1
  0
POLYLINE
  8
1
 66
1
 70
0
  0
VERTEX
  8
1
 10
27.2251
 20
24.2254
  0
VERTEX
  8
1
 10
25.9965
 20
24.0584
  0
VERTEX
  8
1
 10
23.2689
 20
23.0451
  0
VERTEX
  8
1
 10
22.5525
 20
22.1752
  0
VERTEX
  8
1
 10
22.0895
 20
20.8383
  0
VERTEX
  8
1
 10
22.0521
 20
19.8376
  0
SEQEND
  8
1
  0
POLYLINE
  8
1
 66
1
 70
0
  0
VERTEX
  8
1
 10
22.0521
 20
19.8376
  0
VERTEX
  8
1
 10
0.5207
 20
19.8371
  0
SEQEND
  8
1
  0
LINE
  8
7
 10
7.8418
 20
24.5623
 11
20.1805
 21
24.5623
  0
LINE
  8
5
 10
7.8418
 20
24.5623
 11
20.1805
 21
24.5623
  0
LINE
  8
8
 10
14.9968
 20
28.4236
 11
15.0122
 21
19.8374
  0
POLYLINE
  8
8
 66
1
 70
0
  0
VERTEX
  8
8
 10
10.1601
 20
22.9811
  0
VERTEX
  8
8
 10
8.8902
 20
22.9811
  0
VERTEX
  8
8
 10
8.8902
 20
23.9749
  0
SEQEND
  8
8
  0
LINE
  8
8
 10
20.0767
 20
19.8376
 11
20.1330
 21
25.4339
  0
LINE
  8
8
 10
17.3006
 20
27.8933
 11
17.3006
 21
19.8375
  0
LINE
  8
8
 10
1.2644
 20
31.2729
 11
1.2644
 21
19.8372
  0
LINE
  8
6
 10
22.0521
 20
19.8376
 11
0.5207
 21
19.8371
  0
ENDBLK
  0
BLOCK
  8
0
  2
RELAXED TANK FR V2_30
 70
64
 10
0.0000
 20
0.0000
  0
TEXT
  8
1
 10
13.6624
 20
25.1645
 40
0.250
 50
0.0000
  1
Piece Name: RELAXED TANK FR V2
  7
STANDARD
  0
TEXT
  8
1
 10
13.6624
 20
25.3045
 40
0.250
 50
0.0000
  1
SIZE: 30
  7
STANDARD
  0
POLYLINE
  8
1
 66
1
 70
0
  0
VERTEX
  8
1
 10
0.4653
 20
19.8371
  0
VERTEX
  8
1
 10
0.3332
 20
21.5144
  0
VERTEX
  8
1
 10
0.1551
 20
24.7275
  0
VERTEX
  8
1
 10
0.2471
 20
28.6190
  0
VERTEX
  8
1
 10
0.3470
 20
30.4920
  0
SEQEND
  8
1
  0
POLYLINE
  8
1
 66
1
 70
0
  0
VERTEX
  8
1
 10
0.3470
 20
30.4920
  0
VERTEX
  8
1
 10
18.0251
 20
27.7837
  0
SEQEND
  8
1
  0
POLYLINE
  8
1
 66
1
 70
0
  0
VERTEX
  8
1
 10
18.0251
 20
27.7837
  0
VERTEX
  8
1
 10
18.2269
 20
26.9601
  0
VERTEX
  8
1
 10
18.8095
 20
26.1312
  0
VERTEX
  8
1
 10
19.9391
 20
25.4936
  0
VERTEX
  8
1
 10
20.6200
 20
25.3143
  0
VERTEX
  8
1
 10
22.5972
 20
25.0952
  0
VERTEX
  8
1
 10
25.6997
 20
25.0809
  0
VERTEX
  8
1
 10
26.9638
 20
25.1672
  0
SEQEND
  8
1
  0
POLYLINE
  8
1
 66
1
 70
0
  0
VERTEX
  8
1
 10
26.9638
 20
25.1672
  0
VERTEX
  8
1
 10
27.1697
 20
24.2253
  0
SEQEND
  8
1
  0
POLYLINE
  8
1
 66
1
 70
0
  0
VERTEX
  8
1
 10
27.1697
 20
24.2253
  0
VERTEX
  8
1
 10
25.9411
 20
24.0583
  0
VERTEX
  8
1
 10
23.2134
 20
23.0450
  0
VERTEX
  8
1
 10
22.4970
 20
22.1751
  0
VERTEX
  8
1
 10
22.0341
 20
20.8382
  0
VERTEX
  8
1
 10
21.9968
 20
19.8376
  0
SEQEND
  8
1
  0
POLYLINE
  8
1
 66
1
 70
0
  0
VERTEX
  8
1
 10
21.9968
 20
19.8376
  0
VERTEX
  8
1
 10
0.4653
 20
19.8371
  0
SEQEND
  8
1
  0
LINE
  8
7
 10
7.7863
 20
24.5623
 11
20.1251
 21
24.5623
  0
LINE
  8
5
 10
7.7863
 20
24.5623
 11
20.1251
 21
24.5623
  0
LINE
  8
8
 10
14.9414
 20
28.4236
 11
14.9568
 21
19.8374
  0
POLYLINE
  8
8
 66
1
 70
0
  0
VERTEX
  8
8
 10
10.1047
 20
22.9811
  0
VERTEX
  8
8
 10
8.8348
 20
22.9811
  0
VERTEX
  8
8
 10
8.8348
 20
23.9749
  0
SEQEND
  8
8
  0
LINE
  8
8
 10
20.0213
 20
19.8376
 11
20.0776
 21
25.4339
  0
LINE
  8
8
 10
17.2453
 20
27.8933
 11
17.2453
 21
19.8375
  0
LINE
  8
8
 10
1.2090
 20
31.2729
 11
1.2090
 21
19.8372
  0
LINE
  8
6
 10
21.9968
 20
19.8376
 11
0.4653
 21
19.8371
  0
ENDBLK
  0
BLOCK
  8
0
  2
RELAXED TANK FR V2_32
 70
64
 10
0.0000
 20
0.0000
  0
TEXT
  8
1
 10
13.6624
 20
25.2935
 40
0.250
 50
0.0000
  1
Piece Name: RELAXED TANK FR V2
  7
STANDARD
  0
TEXT
  8
1
 10
13.6624
 20
25.4335
 40
0.250
 50
0.0000
  1
SIZE: 32
  7
STANDARD
  0
POLYLINE
  8
1
 66
1
 70
0
  0
VERTEX
  8
1
 10
0.4055
 20
19.8371
  0
VERTEX
  8
1
 10
0.3138
 20
21.5580
  0
VERTEX
  8
1
 10
0.2150
 20
24.8525
  0
VERTEX
  8
1
 10
0.4103
 20
28.8347
  0
VERTEX
  8
1
 10
0.5612
 20
30.7499
  0
SEQEND
  8
1
  0
POLYLINE
  8
1
 66
1
 70
0
  0
VERTEX
  8
1
 10
0.5612
 20
30.7499
  0
VERTEX
  8
1
 10
17.9652
 20
27.7837
  0
SEQEND
  8
1
  0
POLYLINE
  8
1
 66
1
 70
0
  0
VERTEX
  8
1
 10
17.9652
 20
27.7837
  0
VERTEX
  8
1
 10
18.1763
 20
26.9492
  0
VERTEX
  8
1
 10
18.7740
 20
26.1123
  0
VERTEX
  8
1
 10
19.9254
 20
25.4737
  0
VERTEX
  8
1
 10
20.6179
 20
25.2969
  0
VERTEX
  8
1
 10
22.6264
 20
25.0895
  0
VERTEX
  8
1
 10
25.7757
 20
25.0985
  0
VERTEX
  8
1
 10
26.9072
 20
25.1602
  0
SEQEND
  8
1
  0
POLYLINE
  8
1
 66
1
 70
0
  0
VERTEX
  8
1
 10
26.9072
 20
25.1602
  0
VERTEX
  8
1
 10
27.1098
 20
24.2252
  0
SEQEND
  8
1
  0
POLYLINE
  8
1
 66
1
 70
0
  0
VERTEX
  8
1
 10
27.1098
 20
24.2252
  0
VERTEX
  8
1
 10
25.8812
 20
24.0582
  0
VERTEX
  8
1
 10
23.1536
 20
23.0449
  0
VERTEX
  8
1
 10
22.4372
 20
22.1750
  0
VERTEX
  8
1
 10
21.9742
 20
20.8381
  0
VERTEX
  8
1
 10
21.9369
 20
19.8376
  0
SEQEND
  8
1
  0
POLYLINE
  8
1
 66
1
 70
0
  0
VERTEX
  8
1
 10
21.9369
 20
19.8376
  0
VERTEX
  8
1
 10
0.4055
 20
19.8371
  0
SEQEND
  8
1
  0
LINE
  8
7
 10
7.7265
 20
24.5623
 11
20.0653
 21
24.5623
  0
LINE
  8
5
 10
7.7265
 20
24.5623
 11
20.0653
 21
24.5623
  0
LINE
  8
8
 10
14.8815
 20
28.4236
 11
14.8969
 21
19.8374
  0
POLYLINE
  8
8
 66
1
 70
0
  0
VERTEX
  8
8
 10
10.0448
 20
22.9811
  0
VERTEX
  8
8
 10
8.7749
 20
22.9811
  0
VERTEX
  8
8
 10
8.7749
 20
23.9749
  0
SEQEND
  8
8
  0
LINE
  8
8
 10
19.9615
 20
19.8376
 11
20.0177
 21
25.4339
  0
LINE
  8
8
 10
17.1854
 20
27.8933
 11
17.1854
 21
19.8375
  0
LINE
  8
8
 10
1.1492
 20
31.2729
 11
1.1492
 21
19.8372
  0
LINE
  8
6
 10
21.9369
 20
19.8376
 11
0.4055
 21
19.8371
  0
ENDBLK
  0
BLOCK
  8
0
  2
RELAXED TANK FR V2_34
 70
64
 10
0.0000
 20
0.0000
  0
TEXT
  8
1
 10
13.6624
 20
25.4235
 40
0.250
 50
0.0000
  1
Piece Name: RELAXED TANK FR V2
  7
STANDARD
  0
TEXT
  8
1
 10
13.6624
 20
25.5635
 40
0.250
 50
0.0000
  1
SIZE: 34
  7
STANDARD
  0
POLYLINE
  8
1
 66
1
 70
0
  0
VERTEX
  8
1
 10
0.3417
 20
19.8371
  0
VERTEX
  8
1
 10
0.2932
 20
21.6021
  0
VERTEX
  8
1
 10
0.2788
 20
24.9790
  0
VERTEX
  8
1
 10
0.5839
 20
29.0523
  0
VERTEX
  8
1
 10
0.7890
 20
31.0099
  0
SEQEND
  8
1
  0
POLYLINE
  8
1
 66
1
 70
0
  0
VERTEX
  8
1
 10
0.7890
 20
31.0099
  0
VERTEX
  8
1
 10
17.9014
 20
27.7837
  0
SEQEND
  8
1
  0
POLYLINE
  8
1
 66
1
 70
0
  0
VERTEX
  8
1
 10
17.9014
 20
27.7837
  0
VERTEX
  8
1
 10
18.1218
 20
26.9384
  0
VERTEX
  8
1
 10
18.7345
 20
26.0935
  0
VERTEX
  8
1
 10
19.9077
 20
25.4538
  0
VERTEX
  8
1
 10
20.6117
 20
25.2794
  0
VERTEX
  8
1
 10
22.6516
 20
25.0837
  0
VERTEX
  8
1
 10
25.8476
 20
25.1160
  0
VERTEX
  8
1
 10
26.8460
 20
25.1548
  0
SEQEND
  8
1
  0
POLYLINE
  8
1
 66
1
 70
0
  0
VERTEX
  8
1
 10
26.8460
 20
25.1548
  0
VERTEX
  8
1
 10
27.0460
 20
24.2252
  0
SEQEND
  8
1
  0
POLYLINE
  8
1
 66
1
 70
0
  0
VERTEX
  8
1
 10
27.0460
 20
24.2252
  0
VERTEX
  8
1
 10
25.8174
 20
24.0582
  0
VERTEX
  8
1
 10
23.0898
 20
23.0449
  0
VERTEX
  8
1
 10
22.3734
 20
22.1750
  0
VERTEX
  8
1
 10
21.9104
 20
20.8381
  0
VERTEX
  8
1
 10
21.8731
 20
19.8376
  0
SEQEND
  8
1
  0
POLYLINE
  8
1
 66
1
 70
0
  0
VERTEX
  8
1
 10
21.8731
 20
19.8376
  0
VERTEX
  8
1
 10
0.3417
 20
19.8371
  0
SEQEND
  8
1
  0
LINE
  8
7
 10
7.6627
 20
24.5623
 11
20.0015
 21
24.5623
  0
LINE
  8
5
 10
7.6627
 20
24.5623
 11
20.0015
 21
24.5623
  0
LINE
  8
8
 10
14.8177
 20
28.4236
 11
14.8331
 21
19.8374
  0
POLYLINE
  8
8
 66
1
 70
0
  0
VERTEX
  8
8
 10
9.9810
 20
22.9811
  0
VERTEX
  8
8
 10
8.7111
 20
22.9811
  0
VERTEX
  8
8
 10
8.7111
 20
23.9749
  0
SEQEND
  8
8
  0
LINE
  8
8
 10
19.8977
 20
19.8376
 11
19.9539
 21
25.4339
  0
LINE
  8
8
 10
17.1216
 20
27.8933
 11
17.1216
 21
19.8375
  0
LINE
  8
8
 10
1.0854
 20
31.2729
 11
1.0854
 21
19.8372
  0
LINE
  8
6
 10
21.8731
 20
19.8376
 11
0.3417
 21
19.8371
  0
ENDBLK
  0
BLOCK
  8
0
  2
RELAXED TANK FR V2_36
 70
64
 10
0.0000
 20
0.0000
  0
TEXT
  8
1
 10
13.6624
 20
25.5550
 40
0.250
 50
0.0000
  1
Piece Name: RELAXED TANK FR V2
  7
STANDARD
  0
TEXT
  8
1
 10
13.6624
 20
25.6950
 40
0.250
 50
0.0000
  1
Quantity: 1
  7
STANDARD
  0
TEXT
  8
1
 10
13.6624
 20
25.8350
 40
0.250
 50
0.0000
  1
ANNOTATION: 1XFABRIC
  7
STANDARD
  0
TEXT
  8
1
 10
13.6624
 20
25.9750
 40
0.250
 50
0.0000
  1
CATEGORY: FRONT
  7
STANDARD
  0
TEXT
  8
1
 10
13.6624
 20
26.1150
 40
0.250
 50
0.0000
  1
Fabric: 1
  7
STANDARD
  0
TEXT
  8
1
 10
13.6624
 20
26.2550
 40
0.250
 50
0.0000
  1
SIZE: 36
  7
STANDARD
  0
POLYLINE
  8
1
 66
1
 70
0
  0
VERTEX
  8
1
 10
0.3125
 20
19.8371
  0
VERTEX
  8
1
 10
0.3079
 20
21.6467
  0
VERTEX
  8
1
 10
0.3795
 20
25.1069
  0
VERTEX
  8
1
 10
0.7961
 20
29.2725
  0
VERTEX
  8
1
 10
1.0562
 20
31.2729
  0
SEQEND
  8
1
  0
POINT
  8
4
 10
0.3125
 20
19.8371
 30
0.1574
 39
0.0000
  0
POINT
  8
2
 10
0.3125
 20
19.8371
  0
TEXT
  8
2
 10
0.3125
 20
19.8371
 40
0.250
 50
0.0000
  1
# 1
  7
STANDARD
  0
POINT
  8
3
 10
0.3079
 20
21.6467
  0
POINT
  8
3
 10
0.3795
 20
25.1069
  0
POINT
  8
3
 10
0.7961
 20
29.2725
  0
POINT
  8
2
 10
1.0562
 20
31.2729
  0
TEXT
  8
2
 10
1.0562
 20
31.2729
 40
0.250
 50
0.0000
  1
# 2
  7
STANDARD
  0
POLYLINE
  8
1
 66
1
 70
0
  0
VERTEX
  8
1
 10
1.0562
 20
31.2729
  0
VERTEX
  8
1
 10
17.8723
 20
27.7837
  0
SEQEND
  8
1
  0
POINT
  8
2
 10
1.0562
 20
31.2729
  0
TEXT
  8
2
 10
1.0562
 20
31.2729
 40
0.250
 50
0.0000
  1
# 2
  7
STANDARD
  0
POINT
  8
2
 10
17.8723
 20
27.7837
  0
TEXT
  8
2
 10
17.8723
 20
27.7837
 40
0.250
 50
0.0000
  1
# 1
  7
STANDARD
  0
POLYLINE
  8
1
 66
1
 70
0
  0
VERTEX
  8
1
 10
17.8723
 20
27.7837
  0
VERTEX
  8
1
 10
18.1020
 20
26.9276
  0
VERTEX
  8
1
 10
18.7298
 20
26.0746
  0
VERTEX
  8
1
 10
19.9248
 20
25.4339
  0
VERTEX
  8
1
 10
20.6404
 20
25.2620
  0
VERTEX
  8
1
 10
22.7117
 20
25.0780
  0
VERTEX
  8
1
 10
25.9544
 20
25.1335
  0
VERTEX
  8
1
 10
26.8176
 20
25.1534
  0
SEQEND
  8
1
  0
POINT
  8
2
 10
17.8723
 20
27.7837
  0
TEXT
  8
2
 10
17.8723
 20
27.7837
 40
0.250
 50
0.0000
  1
# 1
  7
STANDARD
  0
POINT
  8
3
 10
18.1020
 20
26.9276
  0
POINT
  8
3
 10
18.7298
 20
26.0746
  0
POINT
  8
3
 10
19.9248
 20
25.4339
  0
POINT
  8
3
 10
20.6404
 20
25.2620
  0
POINT
  8
3
 10
22.7117
 20
25.0780
  0
POINT
  8
2
 10
25.9544
 20
25.1335
  0
TEXT
  8
2
 10
25.9544
 20
25.1335
 40
0.250
 50
0.0000
  1
# 3
  7
STANDARD
  0
POINT
  8
2
 10
26.8176
 20
25.1534
  0
TEXT
  8
2
 10
26.8176
 20
25.1534
 40
0.250
 50
0.0000
  1
# 4
  7
STANDARD
  0
POLYLINE
  8
1
 66
1
 70
0
  0
VERTEX
  8
1
 10
26.8176
 20
25.1534
  0
VERTEX
  8
1
 10
27.0169
 20
24.2251
  0
SEQEND
  8
1
  0
POINT
  8
2
 10
26.8176
 20
25.1534
  0
TEXT
  8
2
 10
26.8176
 20
25.1534
 40
0.250
 50
0.0000
  1
# 4
  7
STANDARD
  0
POINT
  8
2
 10
27.0169
 20
24.2251
  0
TEXT
  8
2
 10
27.0169
 20
24.2251
 40
0.250
 50
0.0000
  1
# 5
  7
STANDARD
  0
POLYLINE
  8
1
 66
1
 70
0
  0
VERTEX
  8
1
 10
27.0169
 20
24.2251
  0
VERTEX
  8
1
 10
25.7883
 20
24.0581
  0
VERTEX
  8
1
 10
23.0607
 20
23.0448
  0
VERTEX
  8
1
 10
22.3443
 20
22.1749
  0
VERTEX
  8
1
 10
21.8813
 20
20.8380
  0
VERTEX
  8
1
 10
21.8440
 20
19.8376
  0
SEQEND
  8
1
  0
POINT
  8
2
 10
27.0169
 20
24.2251
  0
TEXT
  8
2
 10
27.0169
 20
24.2251
 40
0.250
 50
0.0000
  1
# 5
  7
STANDARD
  0
POINT
  8
3
 10
25.7883
 20
24.0581
  0
POINT
  8
3
 10
23.0607
 20
23.0448
  0
POINT
  8
3
 10
22.3443
 20
22.1749
  0
POINT
  8
3
 10
21.8813
 20
20.8380
  0
POINT
  8
4
 10
21.8440
 20
19.8376
 30
0.1574
 39
0.0000
  0
POINT
  8
2
 10
21.8440
 20
19.8376
  0
TEXT
  8
2
 10
21.8440
 20
19.8376
 40
0.250
 50
0.0000
  1
# 1
  7
STANDARD
  0
POLYLINE
  8
1
 66
1
 70
0
  0
VERTEX
  8
1
 10
21.8440
 20
19.8376
  0
VERTEX
  8
1
 10
0.3125
 20
19.8371
  0
SEQEND
  8
1
  0
POINT
  8
4
 10
21.8440
 20
19.8376
 30
0.1574
 39
0.0000
  0
POINT
  8
2
 10
21.8440
 20
19.8376
  0
TEXT
  8
2
 10
21.8440
 20
19.8376
 40
0.250
 50
0.0000
  1
# 1
  7
STANDARD
  0
LINE
  8
7
 10
7.6336
 20
24.5623
 11
19.9724
 21
24.5623
  0
LINE
  8
5
 10
7.6336
 20
24.5623
 11
19.9724
 21
24.5623
  0
POINT
  8
2
 10
7.6336
 20
24.5623
  0
POINT
  8
2
 10
19.9724
 20
24.5623
  0
LINE
  8
8
 10
14.7886
 20
28.4236
 11
14.8040
 21
19.8374
  0
TEXT
  8
8
 10
14.7886
 20
28.4236
 40
0.250
 50
0.0000
  1
NM
  7
STANDARD
  0
POINT
  8
2
 10
14.7886
 20
28.4236
  0
POINT
  8
2
 10
14.8040
 20
19.8374
  0
POLYLINE
  8
8
 66
1
 70
0
  0
VERTEX
  8
8
 10
9.9519
 20
22.9811
  0
VERTEX
  8
8
 10
8.6820
 20
22.9811
  0
VERTEX
  8
8
 10
8.6820
 20
23.9749
  0
SEQEND
  8
8
  0
TEXT
  8
8
 10
9.9519
 20
22.9811
 40
0.250
 50
0.0000
  1
B
  7
STANDARD
  0
POINT
  8
2
 10
9.9519
 20
22.9811
  0
POINT
  8
2
 10
8.6820
 20
22.9811
  0
POINT
  8
2
 10
8.6820
 20
23.9749
  0
LINE
  8
8
 10
19.8686
 20
19.8376
 11
19.9248
 21
25.4339
  0
TEXT
  8
8
 10
19.8686
 20
19.8376
 40
0.250
 50
0.0000
  1
NM
  7
STANDARD
  0
POINT
  8
2
 10
19.8686
 20
19.8376
  0
POINT
  8
2
 10
19.9248
 20
25.4339
  0
LINE
  8
8
 10
17.0925
 20
27.8933
 11
17.0925
 21
19.8375
  0
TEXT
  8
8
 10
17.0925
 20
27.8933
 40
0.250
 50
0.0000
  1
NM
  7
STANDARD
  0
POINT
  8
2
 10
17.0925
 20
27.8933
  0
POINT
  8
2
 10
17.0925
 20
19.8375
  0
LINE
  8
8
 10
1.0562
 20
31.2729
 11
1.0562
 21
19.8372
  0
TEXT
  8
8
 10
1.0562
 20
31.2729
 40
0.250
 50
0.0000
  1
NM
  7
STANDARD
  0
POINT
  8
2
 10
1.0562
 20
31.2729
  0
POINT
  8
2
 10
1.0562
 20
19.8372
  0
LINE
  8
6
 10
21.8440
 20
19.8376
 11
0.3125
 21
19.8371
  0
ENDBLK
  0
BLOCK
  8
0
  2
RELAXED TANK FR V2_38
 70
64
 10
0.0000
 20
0.0000
  0
TEXT
  8
1
 10
13.6624
 20
25.5550
 40
0.250
 50
0.0000
  1
Piece Name: RELAXED TANK FR V2
  7
STANDARD
  0
TEXT
  8
1
 10
13.6624
 20
25.6950
 40
0.250
 50
0.0000
  1
SIZE: 38
  7
STANDARD
  0
POLYLINE
  8
1
 66
1
 70
0
  0
VERTEX
  8
1
 10
0.3102
 20
19.7041
  0
VERTEX
  8
1
 10
0.3499
 20
21.5588
  0
VERTEX
  8
1
 10
0.5084
 20
25.1033
  0
VERTEX
  8
1
 10
1.0378
 20
29.3620
  0
VERTEX
  8
1
 10
1.3536
 20
31.4059
  0
SEQEND
  8
1
  0
POLYLINE
  8
1
 66
1
 70
0
  0
VERTEX
  8
1
 10
1.3536
 20
31.4059
  0
VERTEX
  8
1
 10
17.8700
 20
27.6508
  0
SEQEND
  8
1
  0
POLYLINE
  8
1
 66
1
 70
0
  0
VERTEX
  8
1
 10
17.8700
 20
27.6508
  0
VERTEX
  8
1
 10
18.1088
 20
26.7838
  0
VERTEX
  8
1
 10
18.7518
 20
25.9228
  0
VERTEX
  8
1
 10
19.9686
 20
25.2811
  0
VERTEX
  8
1
 10
20.6957
 20
25.1115
  0
VERTEX
  8
1
 10
22.7984
 20
24.9392
  0
VERTEX
  8
1
 10
26.0879
 20
25.0182
  0
VERTEX
  8
1
 10
26.8161
 20
25.0187
  0
SEQEND
  8
1
  0
POLYLINE
  8
1
 66
1
 70
0
  0
VERTEX
  8
1
 10
26.8161
 20
25.0187
  0
VERTEX
  8
1
 10
27.0146
 20
24.0923
  0
SEQEND
  8
1
  0
POLYLINE
  8
1
 66
1
 70
0
  0
VERTEX
  8
1
 10
27.0146
 20
24.0923
  0
VERTEX
  8
1
 10
25.7860
 20
23.9252
  0
VERTEX
  8
1
 10
23.0583
 20
22.9119
  0
VERTEX
  8
1
 10
22.3419
 20
22.0421
  0
VERTEX
  8
1
 10
21.8790
 20
20.7052
  0
VERTEX
  8
1
 10
21.8417
 20
19.7046
  0
SEQEND
  8
1
  0
POLYLINE
  8
1
 66
1
 70
0
  0
VERTEX
  8
1
 10
21.8417
 20
19.7046
  0
VERTEX
  8
1
 10
0.3102
 20
19.7041
  0
SEQEND
  8
1
  0
LINE
  8
7
 10
7.6313
 20
24.4294
 11
19.9701
 21
24.4294
  0
LINE
  8
5
 10
7.6313
 20
24.4294
 11
19.9701
 21
24.4294
  0
LINE
  8
8
 10
14.7863
 20
28.2907
 11
14.8017
 21
19.7044
  0
POLYLINE
  8
8
 66
1
 70
0
  0
VERTEX
  8
8
 10
9.9496
 20
22.8482
  0
VERTEX
  8
8
 10
8.6797
 20
22.8482
  0
VERTEX
  8
8
 10
8.6797
 20
23.8419
  0
SEQEND
  8
8
  0
LINE
  8
8
 10
19.8663
 20
19.7046
 11
19.9224
 21
25.3010
  0
LINE
  8
8
 10
17.0902
 20
27.7604
 11
17.0902
 21
19.7045
  0
LINE
  8
8
 10
1.0539
 20
31.1400
 11
1.0539
 21
19.7042
  0
LINE
  8
6
 10
21.8417
 20
19.7046
 11
0.3102
 21
19.7041
  0
ENDBLK
  0
BLOCK
  8
0
  2
RELAXED TANK FR V2_40
 70
64
 10
0.0000
 20
0.0000
  0
TEXT
  8
1
 10
13.6624
 20
25.5550
 40
0.250
 50
0.0000
  1
Piece Name: RELAXED TANK FR V2
  7
STANDARD
  0
TEXT
  8
1
 10
13.6624
 20
25.6950
 40
0.250
 50
0.0000
  1
SIZE: 40
  7
STANDARD
  0
POLYLINE
  8
1
 66
1
 70
0
  0
VERTEX
  8
1
 10
0.3102
 20
19.5698
  0
VERTEX
  8
1
 10
0.3948
 20
21.4700
  0
VERTEX
  8
1
 10
0.6411
 20
25.0995
  0
VERTEX
  8
1
 10
1.2844
 20
29.4527
  0
VERTEX
  8
1
 10
1.6565
 20
31.5402
  0
SEQEND
  8
1
  0
POLYLINE
  8
1
 66
1
 70
0
  0
VERTEX
  8
1
 10
1.6565
 20
31.5402
  0
VERTEX
  8
1
 10
17.8700
 20
27.5164
  0
SEQEND
  8
1
  0
POLYLINE
  8
1
 66
1
 70
0
  0
VERTEX
  8
1
 10
17.8700
 20
27.5164
  0
VERTEX
  8
1
 10
18.1182
 20
26.6386
  0
VERTEX
  8
1
 10
18.7760
 20
25.7695
  0
VERTEX
  8
1
 10
20.0146
 20
25.1267
  0
VERTEX
  8
1
 10
20.7535
 20
24.9598
  0
VERTEX
  8
1
 10
22.8875
 20
24.7992
  0
VERTEX
  8
1
 10
26.2237
 20
24.9013
  0
VERTEX
  8
1
 10
26.8171
 20
24.8822
  0
SEQEND
  8
1
  0
POLYLINE
  8
1
 66
1
 70
0
  0
VERTEX
  8
1
 10
26.8171
 20
24.8822
  0
VERTEX
  8
1
 10
27.0146
 20
23.9578
  0
SEQEND
  8
1
  0
POLYLINE
  8
1
 66
1
 70
0
  0
VERTEX
  8
1
 10
27.0146
 20
23.9578
  0
VERTEX
  8
1
 10
25.7860
 20
23.7908
  0
VERTEX
  8
1
 10
23.0583
 20
22.7775
  0
VERTEX
  8
1
 10
22.3419
 20
21.9076
  0
VERTEX
  8
1
 10
21.8790
 20
20.5707
  0
VERTEX
  8
1
 10
21.8417
 20
19.5703
  0
SEQEND
  8
1
  0
POLYLINE
  8
1
 66
1
 70
0
  0
VERTEX
  8
1
 10
21.8417
 20
19.5703
  0
VERTEX
  8
1
 10
0.3102
 20
19.5698
  0
SEQEND
  8
1
  0
LINE
  8
7
 10
7.6313
 20
24.2950
 11
19.9701
 21
24.2950
  0
LINE
  8
5
 10
7.6313
 20
24.2950
 11
19.9701
 21
24.2950
  0
LINE
  8
8
 10
14.7863
 20
28.1563
 11
14.8017
 21
19.5701
  0
POLYLINE
  8
8
 66
1
 70
0
  0
VERTEX
  8
8
 10
9.9496
 20
22.7138
  0
VERTEX
  8
8
 10
8.6797
 20
22.7138
  0
VERTEX
  8
8
 10
8.6797
 20
23.7076
  0
SEQEND
  8
8
  0
LINE
  8
8
 10
19.8663
 20
19.5703
 11
19.9224
 21
25.1666
  0
LINE
  8
8
 10
17.0902
 20
27.6260
 11
17.0902
 21
19.5702
  0
LINE
  8
8
 10
1.0539
 20
31.0056
 11
1.0539
 21
19.5699
  0
LINE
  8
6
 10
21.8417
 20
19.5703
 11
0.3102
 21
19.5698
  0
ENDBLK
  0
BLOCK
  8
0
  2
RELAXED TANK FR V2_42
 70
64
 10
0.0000
 20
0.0000
  0
TEXT
  8
1
 10
13.6624
 20
25.5550
 40
0.250
 50
0.0000
  1
Piece Name: RELAXED TANK FR V2
  7
STANDARD
  0
TEXT
  8
1
 10
13.6624
 20
25.6950
 40
0.250
 50
0.0000
  1
SIZE: 42
  7
STANDARD
  0
POLYLINE
  8
1
 66
1
 70
0
  0
VERTEX
  8
1
 10
0.3102
 20
19.4158
  0
VERTEX
  8
1
 10
0.4462
 20
21.3682
  0
VERTEX
  8
1
 10
0.7931
 20
25.0953
  0
VERTEX
  8
1
 10
1.5672
 20
29.5565
  0
VERTEX
  8
1
 10
2.0037
 20
31.6942
  0
SEQEND
  8
1
  0
POLYLINE
  8
1
 66
1
 70
0
  0
VERTEX
  8
1
 10
2.0037
 20
31.6942
  0
VERTEX
  8
1
 10
17.8700
 20
27.3624
  0
SEQEND
  8
1
  0
POLYLINE
  8
1
 66
1
 70
0
  0
VERTEX
  8
1
 10
17.8700
 20
27.3624
  0
VERTEX
  8
1
 10
18.1274
 20
26.4737
  0
VERTEX
  8
1
 10
18.8004
 20
25.5966
  0
VERTEX
  8
1
 10
20.0608
 20
24.9528
  0
VERTEX
  8
1
 10
20.8111
 20
24.7883
  0
VERTEX
  8
1
 10
22.9765
 20
24.6394
  0
VERTEX
  8
1
 10
26.3595
 20
24.7648
  0
VERTEX
  8
1
 10
26.8183
 20
24.7257
  0
SEQEND
  8
1
  0
POLYLINE
  8
1
 66
1
 70
0
  0
VERTEX
  8
1
 10
26.8183
 20
24.7257
  0
VERTEX
  8
1
 10
27.0146
 20
23.8038
  0
SEQEND
  8
1
  0
POLYLINE
  8
1
 66
1
 70
0
  0
VERTEX
  8
1
 10
27.0146
 20
23.8038
  0
VERTEX
  8
1
 10
25.7860
 20
23.6368
  0
VERTEX
  8
1
 10
23.0583
 20
22.6235
  0
VERTEX
  8
1
 10
22.3419
 20
21.7536
  0
VERTEX
  8
1
 10
21.8790
 20
20.4167
  0
VERTEX
  8
1
 10
21.8417
 20
19.4163
  0
SEQEND
  8
1
  0
POLYLINE
  8
1
 66
1
 70
0
  0
VERTEX
  8
1
 10
21.8417
 20
19.4163
  0
VERTEX
  8
1
 10
0.3102
 20
19.4158
  0
SEQEND
  8
1
  0
LINE
  8
7
 10
7.6313
 20
24.1410
 11
19.9701
 21
24.1410
  0
LINE
  8
5
 10
7.6313
 20
24.1410
 11
19.9701
 21
24.1410
  0
LINE
  8
8
 10
14.7863
 20
28.0023
 11
14.8017
 21
19.4161
  0
POLYLINE
  8
8
 66
1
 70
0
  0
VERTEX
  8
8
 10
9.9496
 20
22.5598
  0
VERTEX
  8
8
 10
8.6797
 20
22.5598
  0
VERTEX
  8
8
 10
8.6797
 20
23.5536
  0
SEQEND
  8
8
  0
LINE
  8
8
 10
19.8663
 20
19.4163
 11
19.9224
 21
25.0126
  0
LINE
  8
8
 10
17.0902
 20
27.4720
 11
17.0902
 21
19.4162
  0
LINE
  8
8
 10
1.0539
 20
30.8516
 11
1.0539
 21
19.4159
  0
LINE
  8
6
 10
21.8417
 20
19.4163
 11
0.3102
 21
19.4158
  0
ENDBLK
  0
BLOCK
  8
0
  2
RELAXED TANK FR V2_44
 70
64
 10
0.0000
 20
0.0000
  0
TEXT
  8
1
 10
13.6624
 20
25.5550
 40
0.250
 50
0.0000
  1
Piece Name: RELAXED TANK FR V2
  7
STANDARD
  0
TEXT
  8
1
 10
13.6624
 20
25.6950
 40
0.250
 50
0.0000
  1
SIZE: 44
  7
STANDARD
  0
POLYLINE
  8
1
 66
1
 70
0
  0
VERTEX
  8
1
 10
0.3102
 20
19.2682
  0
VERTEX
  8
1
 10
0.4955
 20
21.2707
  0
VERTEX
  8
1
 10
0.9388
 20
25.0913
  0
VERTEX
  8
1
 10
1.8381
 20
29.6560
  0
VERTEX
  8
1
 10
2.3364
 20
31.8418
  0
SEQEND
  8
1
  0
POLYLINE
  8
1
 66
1
 70
0
  0
VERTEX
  8
1
 10
2.3364
 20
31.8418
  0
VERTEX
  8
1
 10
17.8700
 20
27.2148
  0
SEQEND
  8
1
  0
POLYLINE
  8
1
 66
1
 70
0
  0
VERTEX
  8
1
 10
17.8700
 20
27.2148
  0
VERTEX
  8
1
 10
18.1368
 20
26.3153
  0
VERTEX
  8
1
 10
18.8246
 20
25.4301
  0
VERTEX
  8
1
 10
20.1069
 20
24.7854
  0
VERTEX
  8
1
 10
20.8689
 20
24.6233
  0
VERTEX
  8
1
 10
23.0656
 20
24.4861
  0
VERTEX
  8
1
 10
26.4953
 20
24.6349
  0
VERTEX
  8
1
 10
26.8196
 20
24.5754
  0
SEQEND
  8
1
  0
POLYLINE
  8
1
 66
1
 70
0
  0
VERTEX
  8
1
 10
26.8196
 20
24.5754
  0
VERTEX
  8
1
 10
27.0146
 20
23.6561
  0
SEQEND
  8
1
  0
POLYLINE
  8
1
 66
1
 70
0
  0
VERTEX
  8
1
 10
27.0146
 20
23.6561
  0
VERTEX
  8
1
 10
25.7860
 20
23.4891
  0
VERTEX
  8
1
 10
23.0583
 20
22.4758
  0
VERTEX
  8
1
 10
22.3419
 20
21.6059
  0
VERTEX
  8
1
 10
21.8790
 20
20.2690
  0
VERTEX
  8
1
 10
21.8417
 20
19.2687
  0
SEQEND
  8
1
  0
POLYLINE
  8
1
 66
1
 70
0
  0
VERTEX
  8
1
 10
21.8417
 20
19.2687
  0
VERTEX
  8
1
 10
0.3102
 20
19.2682
  0
SEQEND
  8
1
  0
LINE
  8
7
 10
7.6313
 20
23.9934
 11
19.9701
 21
23.9934
  0
LINE
  8
5
 10
7.6313
 20
23.9934
 11
19.9701
 21
23.9934
  0
LINE
  8
8
 10
14.7863
 20
27.8547
 11
14.8017
 21
19.2685
  0
POLYLINE
  8
8
 66
1
 70
0
  0
VERTEX
  8
8
 10
9.9496
 20
22.4122
  0
VERTEX
  8
8
 10
8.6797
 20
22.4122
  0
VERTEX
  8
8
 10
8.6797
 20
23.4060
  0
SEQEND
  8
8
  0
LINE
  8
8
 10
19.8663
 20
19.2687
 11
19.9224
 21
24.8650
  0
LINE
  8
8
 10
17.0902
 20
27.3244
 11
17.0902
 21
19.2686
  0
LINE
  8
8
 10
1.0539
 20
30.7040
 11
1.0539
 21
19.2683
  0
LINE
  8
6
 10
21.8417
 20
19.2687
 11
0.3102
 21
19.2682
  0
ENDBLK
  0
BLOCK
  8
0
  2
RELAXED TANK FR V2_46
 70
64
 10
0.0000
 20
0.0000
  0
TEXT
  8
1
 10
13.6624
 20
25.5550
 40
0.250
 50
0.0000
  1
Piece Name: RELAXED TANK FR V2
  7
STANDARD
  0
TEXT
  8
1
 10
13.6624
 20
25.6950
 40
0.250
 50
0.0000
  1
SIZE: 46
  7
STANDARD
  0
POLYLINE
  8
1
 66
1
 70
0
  0
VERTEX
  8
1
 10
0.3102
 20
19.1054
  0
VERTEX
  8
1
 10
0.5498
 20
21.1631
  0
VERTEX
  8
1
 10
1.0996
 20
25.0868
  0
VERTEX
  8
1
 10
2.1369
 20
29.7658
  0
VERTEX
  8
1
 10
2.7034
 20
32.0046
  0
SEQEND
  8
1
  0
POLYLINE
  8
1
 66
1
 70
0
  0
VERTEX
  8
1
 10
2.7034
 20
32.0046
  0
VERTEX
  8
1
 10
17.8700
 20
27.0520
  0
SEQEND
  8
1
  0
POLYLINE
  8
1
 66
1
 70
0
  0
VERTEX
  8
1
 10
17.8700
 20
27.0520
  0
VERTEX
  8
1
 10
18.1503
 20
26.1366
  0
VERTEX
  8
1
 10
18.8603
 20
25.2396
  0
VERTEX
  8
1
 10
20.1745
 20
24.5934
  0
VERTEX
  8
1
 10
20.9534
 20
24.4350
  0
VERTEX
  8
1
 10
23.1962
 20
24.3149
  0
VERTEX
  8
1
 10
26.6944
 20
24.4978
  0
VERTEX
  8
1
 10
26.8192
 20
24.4135
  0
SEQEND
  8
1
  0
POLYLINE
  8
1
 66
1
 70
0
  0
VERTEX
  8
1
 10
26.8192
 20
24.4135
  0
VERTEX
  8
1
 10
27.0146
 20
23.4934
  0
SEQEND
  8
1
  0
POLYLINE
  8
1
 66
1
 70
0
  0
VERTEX
  8
1
 10
27.0146
 20
23.4934
  0
VERTEX
  8
1
 10
25.7860
 20
23.3264
  0
VERTEX
  8
1
 10
23.0583
 20
22.3131
  0
VERTEX
  8
1
 10
22.3419
 20
21.4432
  0
VERTEX
  8
1
 10
21.8790
 20
20.1063
  0
VERTEX
  8
1
 10
21.8417
 20
19.1059
  0
SEQEND
  8
1
  0
POLYLINE
  8
1
 66
1
 70
0
  0
VERTEX
  8
1
 10
21.8417
 20
19.1059
  0
VERTEX
  8
1
 10
0.3102
 20
19.1054
  0
SEQEND
  8
1
  0
LINE
  8
7
 10
7.6313
 20
23.8306
 11
19.9701
 21
23.8306
  0
LINE
  8
5
 10
7.6313
 20
23.8306
 11
19.9701
 21
23.8306
  0
LINE
  8
8
 10
14.7863
 20
27.6919
 11
14.8017
 21
19.1057
  0
POLYLINE
  8
8
 66
1
 70
0
  0
VERTEX
  8
8
 10
9.9496
 20
22.2494
  0
VERTEX
  8
8
 10
8.6797
 20
22.2494
  0
VERTEX
  8
8
 10
8.6797
 20
23.2432
  0
SEQEND
  8
8
  0
LINE
  8
8
 10
19.8663
 20
19.1059
 11
19.9224
 21
24.7022
  0
LINE
  8
8
 10
17.0902
 20
27.1616
 11
17.0902
 21
19.1058
  0
LINE
  8
8
 10
1.0539
 20
30.5412
 11
1.0539
 21
19.1055
  0
LINE
  8
6
 10
21.8417
 20
19.1059
 11
0.3102
 21
19.1054
  0
ENDBLK
  0
BLOCK
  8
0
  2
RELAXED TANK FR V2_48
 70
64
 10
0.0000
 20
0.0000
  0
TEXT
  8
1
 10
13.6624
 20
25.5550
 40
0.250
 50
0.0000
  1
Piece Name: RELAXED TANK FR V2
  7
STANDARD
  0
TEXT
  8
1
 10
13.6624
 20
25.6950
 40
0.250
 50
0.0000
  1
SIZE: 48
  7
STANDARD
  0
POLYLINE
  8
1
 66
1
 70
0
  0
VERTEX
  8
1
 10
0.3102
 20
18.9440
  0
VERTEX
  8
1
 10
0.6037
 20
21.0564
  0
VERTEX
  8
1
 10
1.2589
 20
25.0824
  0
VERTEX
  8
1
 10
2.4332
 20
29.8746
  0
VERTEX
  8
1
 10
3.0672
 20
32.1660
  0
SEQEND
  8
1
  0
POLYLINE
  8
1
 66
1
 70
0
  0
VERTEX
  8
1
 10
3.0672
 20
32.1660
  0
VERTEX
  8
1
 10
17.8700
 20
26.8906
  0
SEQEND
  8
1
  0
POLYLINE
  8
1
 66
1
 70
0
  0
VERTEX
  8
1
 10
17.8700
 20
26.8906
  0
VERTEX
  8
1
 10
18.1595
 20
25.9643
  0
VERTEX
  8
1
 10
18.8847
 20
25.0594
  0
VERTEX
  8
1
 10
20.2207
 20
24.4121
  0
VERTEX
  8
1
 10
21.0112
 20
24.2561
  0
VERTEX
  8
1
 10
23.2854
 20
24.1478
  0
VERTEX
  8
1
 10
26.8303
 20
24.3540
  0
VERTEX
  8
1
 10
26.8212
 20
24.2480
  0
SEQEND
  8
1
  0
POLYLINE
  8
1
 66
1
 70
0
  0
VERTEX
  8
1
 10
26.8212
 20
24.2480
  0
VERTEX
  8
1
 10
27.0146
 20
23.3320
  0
SEQEND
  8
1
  0
POLYLINE
  8
1
 66
1
 70
0
  0
VERTEX
  8
1
 10
27.0146
 20
23.3320
  0
VERTEX
  8
1
 10
25.7860
 20
23.1650
  0
VERTEX
  8
1
 10
23.0583
 20
22.1517
  0
VERTEX
  8
1
 10
22.3419
 20
21.2818
  0
VERTEX
  8
1
 10
21.8790
 20
19.9449
  0
VERTEX
  8
1
 10
21.8417
 20
18.9445
  0
SEQEND
  8
1
  0
POLYLINE
  8
1
 66
1
 70
0
  0
VERTEX
  8
1
 10
21.8417
 20
18.9445
  0
VERTEX
  8
1
 10
0.3102
 20
18.9440
  0
SEQEND
  8
1
  0
LINE
  8
7
 10
7.6313
 20
23.6692
 11
19.9701
 21
23.6692
  0
LINE
  8
5
 10
7.6313
 20
23.6692
 11
19.9701
 21
23.6692
  0
LINE
  8
8
 10
14.7863
 20
27.5305
 11
14.8017
 21
18.9443
  0
POLYLINE
  8
8
 66
1
 70
0
  0
VERTEX
  8
8
 10
9.9496
 20
22.0880
  0
VERTEX
  8
8
 10
8.6797
 20
22.0880
  0
VERTEX
  8
8
 10
8.6797
 20
23.0818
  0
SEQEND
  8
8
  0
LINE
  8
8
 10
19.8663
 20
18.9445
 11
19.9224
 21
24.5408
  0
LINE
  8
8
 10
17.0902
 20
27.0002
 11
17.0902
 21
18.9444
  0
LINE
  8
8
 10
1.0539
 20
30.3798
 11
1.0539
 21
18.9441
  0
LINE
  8
6
 10
21.8417
 20
18.9445
 11
0.3102
 21
18.9440
  0
ENDBLK
  0
BLOCK
  8
0
  2
RELAXED TANK FR V2_50
 70
64
 10
0.0000
 20
0.0000
  0
TEXT
  8
1
 10
13.6624
 20
25.5550
 40
0.250
 50
0.0000
  1
Piece Name: RELAXED TANK FR V2
  7
STANDARD
  0
TEXT
  8
1
 10
13.6624
 20
25.6950
 40
0.250
 50
0.0000
  1
SIZE: 50
  7
STANDARD
  0
POLYLINE
  8
1
 66
1
 70
0
  0
VERTEX
  8
1
 10
0.3102
 20
18.7644
  0
VERTEX
  8
1
 10
0.6637
 20
20.9377
  0
VERTEX
  8
1
 10
1.4362
 20
25.0775
  0
VERTEX
  8
1
 10
2.7629
 20
29.9957
  0
VERTEX
  8
1
 10
3.4721
 20
32.3456
  0
SEQEND
  8
1
  0
POLYLINE
  8
1
 66
1
 70
0
  0
VERTEX
  8
1
 10
3.4721
 20
32.3456
  0
VERTEX
  8
1
 10
17.8700
 20
26.7110
  0
SEQEND
  8
1
  0
POLYLINE
  8
1
 66
1
 70
0
  0
VERTEX
  8
1
 10
17.8700
 20
26.7110
  0
VERTEX
  8
1
 10
18.1694
 20
25.7732
  0
VERTEX
  8
1
 10
18.9104
 20
24.8598
  0
VERTEX
  8
1
 10
20.2695
 20
24.2114
  0
VERTEX
  8
1
 10
21.0722
 20
24.0580
  0
VERTEX
  8
1
 10
23.3796
 20
23.9620
  0
VERTEX
  8
1
 10
26.9740
 20
24.1929
  0
VERTEX
  8
1
 10
26.8235
 20
24.0636
  0
SEQEND
  8
1
  0
POLYLINE
  8
1
 66
1
 70
0
  0
VERTEX
  8
1
 10
26.8235
 20
24.0636
  0
VERTEX
  8
1
 10
27.0146
 20
23.1523
  0
SEQEND
  8
1
  0
POLYLINE
  8
1
 66
1
 70
0
  0
VERTEX
  8
1
 10
27.0146
 20
23.1523
  0
VERTEX
  8
1
 10
25.7860
 20
22.9853
  0
VERTEX
  8
1
 10
23.0583
 20
21.9720
  0
VERTEX
  8
1
 10
22.3419
 20
21.1021
  0
VERTEX
  8
1
 10
21.8790
 20
19.7652
  0
VERTEX
  8
1
 10
21.8417
 20
18.7649
  0
SEQEND
  8
1
  0
POLYLINE
  8
1
 66
1
 70
0
  0
VERTEX
  8
1
 10
21.8417
 20
18.7649
  0
VERTEX
  8
1
 10
0.3102
 20
18.7644
  0
SEQEND
  8
1
  0
LINE
  8
7
 10
7.6313
 20
23.4896
 11
19.9701
 21
23.4896
  0
LINE
  8
5
 10
7.6313
 20
23.4896
 11
19.9701
 21
23.4896
  0
LINE
  8
8
 10
14.7863
 20
27.3509
 11
14.8017
 21
18.7647
  0
POLYLINE
  8
8
 66
1
 70
0
  0
VERTEX
  8
8
 10
9.9496
 20
21.9084
  0
VERTEX
  8
8
 10
8.6797
 20
21.9084
  0
VERTEX
  8
8
 10
8.6797
 20
22.9022
  0
SEQEND
  8
8
  0
LINE
  8
8
 10
19.8663
 20
18.7649
 11
19.9224
 21
24.3612
  0
LINE
  8
8
 10
17.0902
 20
26.8206
 11
17.0902
 21
18.7648
  0
LINE
  8
8
 10
1.0539
 20
30.2002
 11
1.0539
 21
18.7645
  0
LINE
  8
6
 10
21.8417
 20
18.7649
 11
0.3102
 21
18.7644
  0
ENDBLK
  0
BLOCK
  8
0
  2
RELAXED TANK FR V2_52
 70
64
 10
0.0000
 20
0.0000
  0
TEXT
  8
1
 10
13.6624
 20
25.5550
 40
0.250
 50
0.0000
  1
Piece Name: RELAXED TANK FR V2
  7
STANDARD
  0
TEXT
  8
1
 10
13.6624
 20
25.6950
 40
0.250
 50
0.0000
  1
SIZE: 52
  7
STANDARD
  0
POLYLINE
  8
1
 66
1
 70
0
  0
VERTEX
  8
1
 10
0.2587
 20
18.5854
  0
VERTEX
  8
1
 10
0.6719
 20
20.8194
  0
VERTEX
  8
1
 10
1.5614
 20
25.0726
  0
VERTEX
  8
1
 10
3.0399
 20
30.1163
  0
VERTEX
  8
1
 10
3.8241
 20
32.5246
  0
SEQEND
  8
1
  0
POLYLINE
  8
1
 66
1
 70
0
  0
VERTEX
  8
1
 10
3.8241
 20
32.5246
  0
VERTEX
  8
1
 10
17.8184
 20
26.5320
  0
SEQEND
  8
1
  0
POLYLINE
  8
1
 66
1
 70
0
  0
VERTEX
  8
1
 10
17.8184
 20
26.5320
  0
VERTEX
  8
1
 10
18.1277
 20
25.5828
  0
VERTEX
  8
1
 10
18.8845
 20
24.6608
  0
VERTEX
  8
1
 10
20.2667
 20
24.0113
  0
VERTEX
  8
1
 10
21.0818
 20
23.8606
  0
VERTEX
  8
1
 10
23.4223
 20
23.7770
  0
VERTEX
  8
1
 10
27.0661
 20
24.0325
  0
VERTEX
  8
1
 10
26.7745
 20
23.8792
  0
SEQEND
  8
1
  0
POLYLINE
  8
1
 66
1
 70
0
  0
VERTEX
  8
1
 10
26.7745
 20
23.8792
  0
VERTEX
  8
1
 10
26.9630
 20
22.9733
  0
SEQEND
  8
1
  0
POLYLINE
  8
1
 66
1
 70
0
  0
VERTEX
  8
1
 10
26.9630
 20
22.9733
  0
VERTEX
  8
1
 10
25.7344
 20
22.8063
  0
VERTEX
  8
1
 10
23.0068
 20
21.7930
  0
VERTEX
  8
1
 10
22.2904
 20
20.9231
  0
VERTEX
  8
1
 10
21.8274
 20
19.5862
  0
VERTEX
  8
1
 10
21.7901
 20
18.5859
  0
SEQEND
  8
1
  0
POLYLINE
  8
1
 66
1
 70
0
  0
VERTEX
  8
1
 10
21.7901
 20
18.5859
  0
VERTEX
  8
1
 10
0.2587
 20
18.5854
  0
SEQEND
  8
1
  0
LINE
  8
7
 10
7.5797
 20
23.3106
 11
19.9185
 21
23.3106
  0
LINE
  8
5
 10
7.5797
 20
23.3106
 11
19.9185
 21
23.3106
  0
LINE
  8
8
 10
14.7347
 20
27.1719
 11
14.7501
 21
18.5857
  0
POLYLINE
  8
8
 66
1
 70
0
  0
VERTEX
  8
8
 10
9.8980
 20
21.7294
  0
VERTEX
  8
8
 10
8.6281
 20
21.7294
  0
VERTEX
  8
8
 10
8.6281
 20
22.7232
  0
SEQEND
  8
8
  0
LINE
  8
8
 10
19.8147
 20
18.5859
 11
19.8709
 21
24.1822
  0
LINE
  8
8
 10
17.0386
 20
26.6416
 11
17.0386
 21
18.5858
  0
LINE
  8
8
 10
1.0024
 20
30.0212
 11
1.0024
 21
18.5855
  0
LINE
  8
6
 10
21.7901
 20
18.5859
 11
0.2587
 21
18.5854
  0
ENDBLK
  0
BLOCK
  8
0
  2
RELAXED TANK BK V2_26
 70
64
 10
0.0000
 20
0.0000
  0
TEXT
  8
1
 10
41.8240
 20
24.2120
 40
0.250
 50
0.0000
  1
Piece Name: RELAXED TANK BK V2
  7
STANDARD
  0
TEXT
  8
1
 10
41.8240
 20
24.3520
 40
0.250
 50
0.0000
  1
SIZE: 26
  7
STANDARD
  0
POLYLINE
  8
1
 66
1
 70
0
  0
VERTEX
  8
1
 10
28.9299
 20
19.2762
  0
VERTEX
  8
1
 10
28.6507
 20
22.0409
  0
VERTEX
  8
1
 10
28.5075
 20
25.3882
  0
VERTEX
  8
1
 10
28.5730
 20
27.6532
  0
VERTEX
  8
1
 10
28.7639
 20
29.3087
  0
SEQEND
  8
1
  0
POLYLINE
  8
1
 66
1
 70
0
  0
VERTEX
  8
1
 10
28.7639
 20
29.3087
  0
VERTEX
  8
1
 10
46.0574
 20
25.9152
  0
SEQEND
  8
1
  0
POLYLINE
  8
1
 66
1
 70
0
  0
VERTEX
  8
1
 10
46.0574
 20
25.9152
  0
VERTEX
  8
1
 10
45.9867
 20
24.0826
  0
VERTEX
  8
1
 10
46.6057
 20
21.5115
  0
VERTEX
  8
1
 10
49.0191
 20
19.8523
  0
VERTEX
  8
1
 10
50.7530
 20
19.8235
  0
VERTEX
  8
1
 10
51.9940
 20
20.2447
  0
VERTEX
  8
1
 10
53.0278
 20
21.2475
  0
VERTEX
  8
1
 10
53.8491
 20
22.3520
  0
VERTEX
  8
1
 10
54.1359
 20
24.0697
  0
VERTEX
  8
1
 10
54.6447
 20
25.3063
  0
SEQEND
  8
1
  0
POLYLINE
  8
1
 66
1
 70
0
  0
VERTEX
  8
1
 10
54.6447
 20
25.3063
  0
VERTEX
  8
1
 10
54.8602
 20
24.3559
  0
SEQEND
  8
1
  0
POLYLINE
  8
1
 66
1
 70
0
  0
VERTEX
  8
1
 10
54.8602
 20
24.3559
  0
VERTEX
  8
1
 10
55.1406
 20
21.9146
  0
VERTEX
  8
1
 10
54.7285
 20
21.0534
  0
VERTEX
  8
1
 10
54.5856
 20
19.8795
  0
VERTEX
  8
1
 10
54.5865
 20
19.1154
  0
SEQEND
  8
1
  0
POLYLINE
  8
1
 66
1
 70
0
  0
VERTEX
  8
1
 10
54.5865
 20
19.1154
  0
VERTEX
  8
1
 10
28.9299
 20
19.2762
  0
SEQEND
  8
1
  0
LINE
  8
7
 10
32.3272
 20
25.2619
 11
40.6085
 21
25.2619
  0
LINE
  8
5
 10
32.3272
 20
25.2619
 11
40.6085
 21
25.2619
  0
LINE
  8
8
 10
42.6888
 20
29.0929
 11
42.7058
 21
20.5370
  0
LINE
  8
8
 10
48.6199
 20
20.5255
 11
48.6248
 21
22.1437
  0
POLYLINE
  8
8
 66
1
 70
0
  0
VERTEX
  8
8
 10
37.3877
 20
22.5077
  0
VERTEX
  8
8
 10
36.1178
 20
22.5077
  0
VERTEX
  8
8
 10
36.1178
 20
23.5016
  0
SEQEND
  8
8
  0
LINE
  8
8
 10
49.9374
 20
20.5135
 11
49.9300
 21
22.0182
  0
LINE
  8
8
 10
45.0190
 20
28.5733
 11
45.0190
 21
20.5191
  0
LINE
  8
8
 10
28.9693
 20
31.8528
 11
28.9693
 21
20.5359
  0
LINE
  8
8
 10
53.9083
 20
24.8671
 11
54.2484
 21
23.9519
  0
LINE
  8
6
 10
54.5865
 20
19.1154
 11
28.9299
 21
19.2762
  0
ENDBLK
  0
BLOCK
  8
0
  2
RELAXED TANK BK V2_28
 70
64
 10
0.0000
 20
0.0000
  0
TEXT
  8
1
 10
41.8240
 20
24.4788
 40
0.250
 50
0.0000
  1
Piece Name: RELAXED TANK BK V2
  7
STANDARD
  0
TEXT
  8
1
 10
41.8240
 20
24.6188
 40
0.250
 50
0.0000
  1
SIZE: 28
  7
STANDARD
  0
POLYLINE
  8
1
 66
1
 70
0
  0
VERTEX
  8
1
 10
28.8722
 20
19.3996
  0
VERTEX
  8
1
 10
28.6438
 20
22.2387
  0
VERTEX
  8
1
 10
28.5670
 20
25.6721
  0
VERTEX
  8
1
 10
28.6814
 20
27.9920
  0
VERTEX
  8
1
 10
28.9116
 20
29.6846
  0
SEQEND
  8
1
  0
POLYLINE
  8
1
 66
1
 70
0
  0
VERTEX
  8
1
 10
28.9116
 20
29.6846
  0
VERTEX
  8
1
 10
46.0958
 20
26.3091
  0
SEQEND
  8
1
  0
POLYLINE
  8
1
 66
1
 70
0
  0
VERTEX
  8
1
 10
46.0958
 20
26.3091
  0
VERTEX
  8
1
 10
45.9982
 20
24.4661
  0
VERTEX
  8
1
 10
46.5839
 20
21.8700
  0
VERTEX
  8
1
 10
48.9883
 20
20.1657
  0
VERTEX
  8
1
 10
50.7326
 20
20.1116
  0
VERTEX
  8
1
 10
51.9873
 20
20.5175
  0
VERTEX
  8
1
 10
53.0421
 20
21.5116
  0
VERTEX
  8
1
 10
53.8845
 20
22.6111
  0
VERTEX
  8
1
 10
54.2610
 20
24.0973
  0
VERTEX
  8
1
 10
54.7973
 20
25.1454
  0
SEQEND
  8
1
  0
POLYLINE
  8
1
 66
1
 70
0
  0
VERTEX
  8
1
 10
54.7973
 20
25.1454
  0
VERTEX
  8
1
 10
55.0113
 20
24.1983
  0
SEQEND
  8
1
  0
POLYLINE
  8
1
 66
1
 70
0
  0
VERTEX
  8
1
 10
55.0113
 20
24.1983
  0
VERTEX
  8
1
 10
55.0810
 20
22.1972
  0
VERTEX
  8
1
 10
54.6594
 20
21.2953
  0
VERTEX
  8
1
 10
54.5215
 20
20.0698
  0
VERTEX
  8
1
 10
54.5296
 20
19.2731
  0
SEQEND
  8
1
  0
POLYLINE
  8
1
 66
1
 70
0
  0
VERTEX
  8
1
 10
54.5296
 20
19.2731
  0
VERTEX
  8
1
 10
28.8722
 20
19.3996
  0
SEQEND
  8
1
  0
LINE
  8
7
 10
32.4783
 20
25.1043
 11
40.7596
 21
25.1043
  0
LINE
  8
5
 10
32.4783
 20
25.1043
 11
40.7596
 21
25.1043
  0
LINE
  8
8
 10
42.8399
 20
28.9353
 11
42.8569
 21
20.3794
  0
LINE
  8
8
 10
48.7710
 20
20.3679
 11
48.7759
 21
21.9861
  0
POLYLINE
  8
8
 66
1
 70
0
  0
VERTEX
  8
8
 10
37.5388
 20
22.3501
  0
VERTEX
  8
8
 10
36.2689
 20
22.3501
  0
VERTEX
  8
8
 10
36.2689
 20
23.3440
  0
SEQEND
  8
8
  0
LINE
  8
8
 10
50.0885
 20
20.3559
 11
50.0811
 21
21.8606
  0
LINE
  8
8
 10
45.1701
 20
28.4157
 11
45.1701
 21
20.3615
  0
LINE
  8
8
 10
29.1204
 20
31.6952
 11
29.1204
 21
20.3783
  0
LINE
  8
8
 10
54.0594
 20
24.7095
 11
54.3995
 21
23.7943
  0
LINE
  8
6
 10
54.5296
 20
19.2731
 11
28.8722
 21
19.3996
  0
ENDBLK
  0
BLOCK
  8
0
  2
RELAXED TANK BK V2_30
 70
64
 10
0.0000
 20
0.0000
  0
TEXT
  8
1
 10
41.8240
 20
24.7439
 40
0.250
 50
0.0000
  1
Piece Name: RELAXED TANK BK V2
  7
STANDARD
  0
TEXT
  8
1
 10
41.8240
 20
24.8839
 40
0.250
 50
0.0000
  1
SIZE: 30
  7
STANDARD
  0
POLYLINE
  8
1
 66
1
 70
0
  0
VERTEX
  8
1
 10
28.7319
 20
19.5227
  0
VERTEX
  8
1
 10
28.5662
 20
22.4379
  0
VERTEX
  8
1
 10
28.5701
 20
25.9584
  0
VERTEX
  8
1
 10
28.7432
 20
28.3331
  0
VERTEX
  8
1
 10
29.0199
 20
30.0622
  0
SEQEND
  8
1
  0
POLYLINE
  8
1
 66
1
 70
0
  0
VERTEX
  8
1
 10
29.0199
 20
30.0622
  0
VERTEX
  8
1
 10
46.0920
 20
26.6963
  0
SEQEND
  8
1
  0
POLYLINE
  8
1
 66
1
 70
0
  0
VERTEX
  8
1
 10
46.0920
 20
26.6963
  0
VERTEX
  8
1
 10
45.9647
 20
24.8508
  0
VERTEX
  8
1
 10
46.5102
 20
22.2396
  0
VERTEX
  8
1
 10
48.8926
 20
20.4930
  0
VERTEX
  8
1
 10
50.6400
 20
20.4110
  0
VERTEX
  8
1
 10
51.9040
 20
20.7977
  0
VERTEX
  8
1
 10
52.9770
 20
21.7771
  0
VERTEX
  8
1
 10
53.8388
 20
22.8656
  0
VERTEX
  8
1
 10
54.3054
 20
24.1250
  0
VERTEX
  8
1
 10
54.8703
 20
24.9879
  0
SEQEND
  8
1
  0
POLYLINE
  8
1
 66
1
 70
0
  0
VERTEX
  8
1
 10
54.8703
 20
24.9879
  0
VERTEX
  8
1
 10
55.0819
 20
24.0458
  0
SEQEND
  8
1
  0
POLYLINE
  8
1
 66
1
 70
0
  0
VERTEX
  8
1
 10
55.0819
 20
24.0458
  0
VERTEX
  8
1
 10
54.9455
 20
22.4725
  0
VERTEX
  8
1
 10
54.5123
 20
21.5313
  0
VERTEX
  8
1
 10
54.3763
 20
20.2549
  0
VERTEX
  8
1
 10
54.3897
 20
19.4256
  0
SEQEND
  8
1
  0
POLYLINE
  8
1
 66
1
 70
0
  0
VERTEX
  8
1
 10
54.3897
 20
19.4256
  0
VERTEX
  8
1
 10
28.7319
 20
19.5227
  0
SEQEND
  8
1
  0
LINE
  8
7
 10
32.5489
 20
24.9518
 11
40.8302
 21
24.9518
  0
LINE
  8
5
 10
32.5489
 20
24.9518
 11
40.8302
 21
24.9518
  0
LINE
  8
8
 10
42.9105
 20
28.7828
 11
42.9275
 21
20.2269
  0
LINE
  8
8
 10
48.8416
 20
20.2154
 11
48.8465
 21
21.8336
  0
POLYLINE
  8
8
 66
1
 70
0
  0
VERTEX
  8
8
 10
37.6094
 20
22.1976
  0
VERTEX
  8
8
 10
36.3395
 20
22.1976
  0
VERTEX
  8
8
 10
36.3395
 20
23.1915
  0
SEQEND
  8
8
  0
LINE
  8
8
 10
50.1591
 20
20.2034
 11
50.1517
 21
21.7081
  0
LINE
  8
8
 10
45.2407
 20
28.2632
 11
45.2407
 21
20.2090
  0
LINE
  8
8
 10
29.1910
 20
31.5427
 11
29.1910
 21
20.2258
  0
LINE
  8
8
 10
54.1300
 20
24.5570
 11
54.4701
 21
23.6418
  0
LINE
  8
6
 10
54.3897
 20
19.4256
 11
28.7319
 21
19.5227
  0
ENDBLK
  0
BLOCK
  8
0
  2
RELAXED TANK BK V2_32
 70
64
 10
0.0000
 20
0.0000
  0
TEXT
  8
1
 10
41.8240
 20
25.0001
 40
0.250
 50
0.0000
  1
Piece Name: RELAXED TANK BK V2
  7
STANDARD
  0
TEXT
  8
1
 10
41.8240
 20
25.1401
 40
0.250
 50
0.0000
  1
SIZE: 32
  7
STANDARD
  0
POLYLINE
  8
1
 66
1
 70
0
  0
VERTEX
  8
1
 10
28.5881
 20
19.6378
  0
VERTEX
  8
1
 10
28.4919
 20
22.6301
  0
VERTEX
  8
1
 10
28.5847
 20
26.2386
  0
VERTEX
  8
1
 10
28.8221
 20
28.6684
  0
VERTEX
  8
1
 10
29.1494
 20
30.4338
  0
SEQEND
  8
1
  0
POLYLINE
  8
1
 66
1
 70
0
  0
VERTEX
  8
1
 10
29.1494
 20
30.4338
  0
VERTEX
  8
1
 10
46.1317
 20
27.0677
  0
SEQEND
  8
1
  0
POLYLINE
  8
1
 66
1
 70
0
  0
VERTEX
  8
1
 10
46.1317
 20
27.0677
  0
VERTEX
  8
1
 10
45.9719
 20
25.2290
  0
VERTEX
  8
1
 10
46.4696
 20
22.6146
  0
VERTEX
  8
1
 10
48.8151
 20
20.8300
  0
VERTEX
  8
1
 10
50.5567
 20
20.7171
  0
VERTEX
  8
1
 10
51.8244
 20
21.0804
  0
VERTEX
  8
1
 10
52.9122
 20
22.0384
  0
VERTEX
  8
1
 10
53.7912
 20
23.1088
  0
VERTEX
  8
1
 10
54.3504
 20
24.1535
  0
VERTEX
  8
1
 10
54.9479
 20
24.8399
  0
SEQEND
  8
1
  0
POLYLINE
  8
1
 66
1
 70
0
  0
VERTEX
  8
1
 10
54.9479
 20
24.8399
  0
VERTEX
  8
1
 10
55.1562
 20
23.9048
  0
SEQEND
  8
1
  0
POLYLINE
  8
1
 66
1
 70
0
  0
VERTEX
  8
1
 10
55.1562
 20
23.9048
  0
VERTEX
  8
1
 10
54.8253
 20
22.7312
  0
VERTEX
  8
1
 10
54.3748
 20
21.7537
  0
VERTEX
  8
1
 10
54.2328
 20
20.4279
  0
VERTEX
  8
1
 10
54.2462
 20
19.5665
  0
SEQEND
  8
1
  0
POLYLINE
  8
1
 66
1
 70
0
  0
VERTEX
  8
1
 10
54.2462
 20
19.5665
  0
VERTEX
  8
1
 10
28.5881
 20
19.6378
  0
SEQEND
  8
1
  0
LINE
  8
7
 10
32.6232
 20
24.8108
 11
40.9045
 21
24.8108
  0
LINE
  8
5
 10
32.6232
 20
24.8108
 11
40.9045
 21
24.8108
  0
LINE
  8
8
 10
42.9848
 20
28.6418
 11
43.0018
 21
20.0859
  0
LINE
  8
8
 10
48.9159
 20
20.0744
 11
48.9208
 21
21.6926
  0
POLYLINE
  8
8
 66
1
 70
0
  0
VERTEX
  8
8
 10
37.6837
 20
22.0566
  0
VERTEX
  8
8
 10
36.4138
 20
22.0566
  0
VERTEX
  8
8
 10
36.4138
 20
23.0505
  0
SEQEND
  8
8
  0
LINE
  8
8
 10
50.2334
 20
20.0624
 11
50.2260
 21
21.5671
  0
LINE
  8
8
 10
45.3150
 20
28.1222
 11
45.3150
 21
20.0680
  0
LINE
  8
8
 10
29.2653
 20
31.4017
 11
29.2653
 21
20.0848
  0
LINE
  8
8
 10
54.2043
 20
24.4160
 11
54.5444
 21
23.5008
  0
LINE
  8
6
 10
54.2462
 20
19.5665
 11
28.5881
 21
19.6378
  0
ENDBLK
  0
BLOCK
  8
0
  2
RELAXED TANK BK V2_34
 70
64
 10
0.0000
 20
0.0000
  0
TEXT
  8
1
 10
41.8240
 20
25.2452
 40
0.250
 50
0.0000
  1
Piece Name: RELAXED TANK BK V2
  7
STANDARD
  0
TEXT
  8
1
 10
41.8240
 20
25.3852
 40
0.250
 50
0.0000
  1
SIZE: 34
  7
STANDARD
  0
POLYLINE
  8
1
 66
1
 70
0
  0
VERTEX
  8
1
 10
28.4359
 20
19.7423
  0
VERTEX
  8
1
 10
28.4139
 20
22.8126
  0
VERTEX
  8
1
 10
28.6016
 20
26.5101
  0
VERTEX
  8
1
 10
28.9073
 20
28.9952
  0
VERTEX
  8
1
 10
29.2881
 20
30.7969
  0
SEQEND
  8
1
  0
POLYLINE
  8
1
 66
1
 70
0
  0
VERTEX
  8
1
 10
29.2881
 20
30.7969
  0
VERTEX
  8
1
 10
46.1878
 20
27.4240
  0
SEQEND
  8
1
  0
POLYLINE
  8
1
 66
1
 70
0
  0
VERTEX
  8
1
 10
46.1878
 20
27.4240
  0
VERTEX
  8
1
 10
45.9940
 20
25.5970
  0
VERTEX
  8
1
 10
46.4397
 20
22.9854
  0
VERTEX
  8
1
 10
48.7405
 20
21.1647
  0
VERTEX
  8
1
 10
50.4717
 20
21.0193
  0
VERTEX
  8
1
 10
51.7404
 20
21.3569
  0
VERTEX
  8
1
 10
52.8412
 20
22.2897
  0
VERTEX
  8
1
 10
53.7364
 20
23.3385
  0
VERTEX
  8
1
 10
54.3923
 20
24.1857
  0
VERTEX
  8
1
 10
55.0284
 20
24.7076
  0
SEQEND
  8
1
  0
POLYLINE
  8
1
 66
1
 70
0
  0
VERTEX
  8
1
 10
55.0284
 20
24.7076
  0
VERTEX
  8
1
 10
55.2341
 20
23.7779
  0
SEQEND
  8
1
  0
POLYLINE
  8
1
 66
1
 70
0
  0
VERTEX
  8
1
 10
55.2341
 20
23.7779
  0
VERTEX
  8
1
 10
54.7235
 20
22.9682
  0
VERTEX
  8
1
 10
54.2476
 20
21.9592
  0
VERTEX
  8
1
 10
54.0883
 20
20.5864
  0
VERTEX
  8
1
 10
54.0943
 20
19.6935
  0
SEQEND
  8
1
  0
POLYLINE
  8
1
 66
1
 70
0
  0
VERTEX
  8
1
 10
54.0943
 20
19.6935
  0
VERTEX
  8
1
 10
28.4359
 20
19.7423
  0
SEQEND
  8
1
  0
LINE
  8
7
 10
32.7011
 20
24.6839
 11
40.9824
 21
24.6839
  0
LINE
  8
5
 10
32.7011
 20
24.6839
 11
40.9824
 21
24.6839
  0
LINE
  8
8
 10
43.0627
 20
28.5149
 11
43.0797
 21
19.9590
  0
LINE
  8
8
 10
48.9938
 20
19.9475
 11
48.9987
 21
21.5657
  0
POLYLINE
  8
8
 66
1
 70
0
  0
VERTEX
  8
8
 10
37.7616
 20
21.9297
  0
VERTEX
  8
8
 10
36.4917
 20
21.9297
  0
VERTEX
  8
8
 10
36.4917
 20
22.9236
  0
SEQEND
  8
8
  0
LINE
  8
8
 10
50.3113
 20
19.9355
 11
50.3039
 21
21.4402
  0
LINE
  8
8
 10
45.3929
 20
27.9953
 11
45.3929
 21
19.9411
  0
LINE
  8
8
 10
29.3432
 20
31.2748
 11
29.3432
 21
19.9579
  0
LINE
  8
8
 10
54.2822
 20
24.2891
 11
54.6223
 21
23.3739
  0
LINE
  8
6
 10
54.0943
 20
19.6935
 11
28.4359
 21
19.7423
  0
ENDBLK
  0
BLOCK
  8
0
  2
RELAXED TANK BK V2_36
 70
64
 10
0.0000
 20
0.0000
  0
TEXT
  8
1
 10
41.8240
 20
25.4841
 40
0.250
 50
0.0000
  1
Piece Name: RELAXED TANK BK V2
  7
STANDARD
  0
TEXT
  8
1
 10
41.8240
 20
25.6241
 40
0.250
 50
0.0000
  1
Quantity: 1
  7
STANDARD
  0
TEXT
  8
1
 10
41.8240
 20
25.7641
 40
0.250
 50
0.0000
  1
ANNOTATION: 1XFABRIC
  7
STANDARD
  0
TEXT
  8
1
 10
41.8240
 20
25.9041
 40
0.250
 50
0.0000
  1
CATEGORY: BACK
  7
STANDARD
  0
TEXT
  8
1
 10
41.8240
 20
26.0441
 40
0.250
 50
0.0000
  1
Fabric: 1
  7
STANDARD
  0
TEXT
  8
1
 10
41.8240
 20
26.1841
 40
0.250
 50
0.0000
  1
SIZE: 36
  7
STANDARD
  0
POLYLINE
  8
1
 66
1
 70
0
  0
VERTEX
  8
1
 10
28.3050
 20
19.8397
  0
VERTEX
  8
1
 10
28.3584
 20
22.9891
  0
VERTEX
  8
1
 10
28.6423
 20
26.7762
  0
VERTEX
  8
1
 10
29.0172
 20
29.3172
  0
VERTEX
  8
1
 10
29.4522
 20
31.1554
  0
SEQEND
  8
1
  0
POINT
  8
4
 10
28.3050
 20
19.8397
 30
0.1574
 39
0.0000
  0
POINT
  8
2
 10
28.3050
 20
19.8397
  0
TEXT
  8
2
 10
28.3050
 20
19.8397
 40
0.250
 50
0.0000
  1
# 1
  7
STANDARD
  0
POINT
  8
3
 10
28.3584
 20
22.9891
  0
POINT
  8
3
 10
28.6423
 20
26.7762
  0
POINT
  8
3
 10
29.0172
 20
29.3172
  0
POINT
  8
2
 10
29.4522
 20
31.1554
  0
TEXT
  8
2
 10
29.4522
 20
31.1554
 40
0.250
 50
0.0000
  1
# 2
  7
STANDARD
  0
POLYLINE
  8
1
 66
1
 70
0
  0
VERTEX
  8
1
 10
29.4522
 20
31.1554
  0
VERTEX
  8
1
 10
46.2821
 20
27.7697
  0
SEQEND
  8
1
  0
POINT
  8
2
 10
29.4522
 20
31.1554
  0
TEXT
  8
2
 10
29.4522
 20
31.1554
 40
0.250
 50
0.0000
  1
# 2
  7
STANDARD
  0
POINT
  8
2
 10
46.2821
 20
27.7697
  0
TEXT
  8
2
 10
46.2821
 20
27.7697
 40
0.250
 50
0.0000
  1
# 3
  7
STANDARD
  0
POLYLINE
  8
1
 66
1
 70
0
  0
VERTEX
  8
1
 10
46.2821
 20
27.7697
  0
VERTEX
  8
1
 10
46.0535
 20
25.9580
  0
VERTEX
  8
1
 10
46.4450
 20
23.3540
  0
VERTEX
  8
1
 10
48.6954
 20
21.4994
  0
VERTEX
  8
1
 10
50.4129
 20
21.3208
  0
VERTEX
  8
1
 10
51.6803
 20
21.6312
  0
VERTEX
  8
1
 10
52.7926
 20
22.5365
  0
VERTEX
  8
1
 10
53.7028
 20
23.5610
  0
VERTEX
  8
1
 10
54.4590
 20
24.2217
  0
VERTEX
  8
1
 10
55.1381
 20
24.5868
  0
SEQEND
  8
1
  0
POINT
  8
2
 10
46.2821
 20
27.7697
  0
TEXT
  8
2
 10
46.2821
 20
27.7697
 40
0.250
 50
0.0000
  1
# 3
  7
STANDARD
  0
POINT
  8
3
 10
46.0535
 20
25.9580
  0
POINT
  8
3
 10
46.4450
 20
23.3540
  0
POINT
  8
3
 10
48.6954
 20
21.4994
  0
POINT
  8
3
 10
50.4129
 20
21.3208
  0
POINT
  8
3
 10
51.6803
 20
21.6312
  0
POINT
  8
3
 10
52.7926
 20
22.5365
  0
POINT
  8
3
 10
53.7028
 20
23.5610
  0
TEXT
  8
3
 10
53.7028
 20
23.5610
 40
0.250
 50
0.0000
  1
# 4
  7
STANDARD
  0
POINT
  8
3
 10
54.4590
 20
24.2217
  0
POINT
  8
2
 10
55.1381
 20
24.5868
  0
TEXT
  8
2
 10
55.1381
 20
24.5868
 40
0.250
 50
0.0000
  1
# 5
  7
STANDARD
  0
POLYLINE
  8
1
 66
1
 70
0
  0
VERTEX
  8
1
 10
55.1381
 20
24.5868
  0
VERTEX
  8
1
 10
55.3431
 20
23.6585
  0
SEQEND
  8
1
  0
POINT
  8
2
 10
55.1381
 20
24.5868
  0
TEXT
  8
2
 10
55.1381
 20
24.5868
 40
0.250
 50
0.0000
  1
# 5
  7
STANDARD
  0
POINT
  8
2
 10
55.3431
 20
23.6585
  0
TEXT
  8
2
 10
55.3431
 20
23.6585
 40
0.250
 50
0.0000
  1
# 6
  7
STANDARD
  0
POLYLINE
  8
1
 66
1
 70
0
  0
VERTEX
  8
1
 10
55.3431
 20
23.6585
  0
VERTEX
  8
1
 10
54.6607
 20
23.1926
  0
VERTEX
  8
1
 10
54.1541
 20
22.1552
  0
VERTEX
  8
1
 10
53.9699
 20
20.7369
  0
VERTEX
  8
1
 10
53.9635
 20
19.8128
  0
SEQEND
  8
1
  0
POINT
  8
2
 10
55.3431
 20
23.6585
  0
TEXT
  8
2
 10
55.3431
 20
23.6585
 40
0.250
 50
0.0000
  1
# 6
  7
STANDARD
  0
POINT
  8
3
 10
54.6607
 20
23.1926
  0
TEXT
  8
3
 10
54.6607
 20
23.1926
 40
0.250
 50
0.0000
  1
# 7
  7
STANDARD
  0
POINT
  8
3
 10
54.1541
 20
22.1552
  0
POINT
  8
3
 10
53.9699
 20
20.7369
  0
POINT
  8
4
 10
53.9635
 20
19.8128
 30
0.1574
 39
0.0000
  0
POINT
  8
2
 10
53.9635
 20
19.8128
  0
TEXT
  8
2
 10
53.9635
 20
19.8128
 40
0.250
 50
0.0000
  1
# 8
  7
STANDARD
  0
POLYLINE
  8
1
 66
1
 70
0
  0
VERTEX
  8
1
 10
53.9635
 20
19.8128
  0
VERTEX
  8
1
 10
28.3050
 20
19.8397
  0
SEQEND
  8
1
  0
POINT
  8
4
 10
53.9635
 20
19.8128
 30
0.1574
 39
0.0000
  0
POINT
  8
2
 10
53.9635
 20
19.8128
  0
TEXT
  8
2
 10
53.9635
 20
19.8128
 40
0.250
 50
0.0000
  1
# 8
  7
STANDARD
  0
LINE
  8
7
 10
32.8101
 20
24.5645
 11
41.0914
 21
24.5645
  0
LINE
  8
5
 10
32.8101
 20
24.5645
 11
41.0914
 21
24.5645
  0
POINT
  8
2
 10
32.8101
 20
24.5645
  0
POINT
  8
2
 10
41.0914
 20
24.5645
  0
LINE
  8
8
 10
43.1717
 20
28.3955
 11
43.1887
 21
19.8396
  0
TEXT
  8
8
 10
43.1717
 20
28.3955
 40
0.250
 50
0.0000
  1
NM
  7
STANDARD
  0
POINT
  8
2
 10
43.1717
 20
28.3955
  0
POINT
  8
2
 10
43.1887
 20
19.8396
  0
LINE
  8
8
 10
49.1028
 20
19.8281
 11
49.1077
 21
21.4463
  0
TEXT
  8
8
 10
49.1028
 20
19.8281
 40
0.250
 50
0.0000
  1
NM
  7
STANDARD
  0
POINT
  8
2
 10
49.1028
 20
19.8281
  0
POINT
  8
2
 10
49.1077
 20
21.4463
  0
POLYLINE
  8
8
 66
1
 70
0
  0
VERTEX
  8
8
 10
37.8706
 20
21.8103
  0
VERTEX
  8
8
 10
36.6007
 20
21.8103
  0
VERTEX
  8
8
 10
36.6007
 20
22.8042
  0
SEQEND
  8
8
  0
TEXT
  8
8
 10
37.8706
 20
21.8103
 40
0.250
 50
0.0000
  1
B
  7
STANDARD
  0
POINT
  8
2
 10
37.8706
 20
21.8103
  0
POINT
  8
2
 10
36.6007
 20
21.8103
  0
POINT
  8
2
 10
36.6007
 20
22.8042
  0
LINE
  8
8
 10
50.4203
 20
19.8161
 11
50.4129
 21
21.3208
  0
TEXT
  8
8
 10
50.4203
 20
19.8161
 40
0.250
 50
0.0000
  1
NM
  7
STANDARD
  0
POINT
  8
2
 10
50.4203
 20
19.8161
  0
POINT
  8
2
 10
50.4129
 20
21.3208
  0
LINE
  8
8
 10
45.5019
 20
27.8759
 11
45.5019
 21
19.8217
  0
TEXT
  8
8
 10
45.5019
 20
27.8759
 40
0.250
 50
0.0000
  1
NM
  7
STANDARD
  0
POINT
  8
2
 10
45.5019
 20
27.8759
  0
POINT
  8
2
 10
45.5019
 20
19.8217
  0
LINE
  8
8
 10
29.4522
 20
31.1554
 11
29.4522
 21
19.8385
  0
TEXT
  8
8
 10
29.4522
 20
31.1554
 40
0.250
 50
0.0000
  1
NM
  7
STANDARD
  0
POINT
  8
2
 10
29.4522
 20
31.1554
  0
POINT
  8
2
 10
29.4522
 20
19.8385
  0
LINE
  8
8
 10
54.3912
 20
24.1697
 11
54.7313
 21
23.2545
  0
TEXT
  8
8
 10
54.3912
 20
24.1697
 40
0.250
 50
0.0000
  1
NM
  7
STANDARD
  0
POINT
  8
2
 10
54.3912
 20
24.1697
  0
POINT
  8
2
 10
54.7313
 20
23.2545
  0
LINE
  8
6
 10
53.9635
 20
19.8128
 11
28.3050
 21
19.8397
  0
ENDBLK
  0
BLOCK
  8
0
  2
RELAXED TANK BK V2_38
 70
64
 10
0.0000
 20
0.0000
  0
TEXT
  8
1
 10
41.8240
 20
25.6004
 40
0.250
 50
0.0000
  1
Piece Name: RELAXED TANK BK V2
  7
STANDARD
  0
TEXT
  8
1
 10
41.8240
 20
25.7404
 40
0.250
 50
0.0000
  1
SIZE: 38
  7
STANDARD
  0
POLYLINE
  8
1
 66
1
 70
0
  0
VERTEX
  8
1
 10
28.1851
 20
19.8141
  0
VERTEX
  8
1
 10
28.3148
 20
23.0435
  0
VERTEX
  8
1
 10
28.6962
 20
26.9217
  0
VERTEX
  8
1
 10
29.1413
 20
29.5194
  0
VERTEX
  8
1
 10
29.6314
 20
31.3948
  0
SEQEND
  8
1
  0
POLYLINE
  8
1
 66
1
 70
0
  0
VERTEX
  8
1
 10
29.6314
 20
31.3948
  0
VERTEX
  8
1
 10
46.3872
 20
27.9919
  0
SEQEND
  8
1
  0
POLYLINE
  8
1
 66
1
 70
0
  0
VERTEX
  8
1
 10
46.3872
 20
27.9919
  0
VERTEX
  8
1
 10
46.1234
 20
26.1950
  0
VERTEX
  8
1
 10
46.4604
 20
23.5978
  0
VERTEX
  8
1
 10
48.6608
 20
21.7084
  0
VERTEX
  8
1
 10
50.3650
 20
21.4963
  0
VERTEX
  8
1
 10
51.6315
 20
21.7795
  0
VERTEX
  8
1
 10
52.7557
 20
22.6573
  0
VERTEX
  8
1
 10
53.6814
 20
23.6578
  0
VERTEX
  8
1
 10
54.5369
 20
24.1330
  0
VERTEX
  8
1
 10
55.2587
 20
24.3423
  0
SEQEND
  8
1
  0
POLYLINE
  8
1
 66
1
 70
0
  0
VERTEX
  8
1
 10
55.2587
 20
24.3423
  0
VERTEX
  8
1
 10
55.4629
 20
23.4158
  0
SEQEND
  8
1
  0
POLYLINE
  8
1
 66
1
 70
0
  0
VERTEX
  8
1
 10
55.4629
 20
23.4158
  0
VERTEX
  8
1
 10
54.6098
 20
23.2910
  0
VERTEX
  8
1
 10
54.0721
 20
22.2252
  0
VERTEX
  8
1
 10
53.8626
 20
20.7613
  0
VERTEX
  8
1
 10
53.8437
 20
19.8060
  0
SEQEND
  8
1
  0
POLYLINE
  8
1
 66
1
 70
0
  0
VERTEX
  8
1
 10
53.8437
 20
19.8060
  0
VERTEX
  8
1
 10
28.1851
 20
19.8141
  0
SEQEND
  8
1
  0
LINE
  8
7
 10
32.9299
 20
24.3218
 11
41.2112
 21
24.3218
  0
LINE
  8
5
 10
32.9299
 20
24.3218
 11
41.2112
 21
24.3218
  0
LINE
  8
8
 10
43.2915
 20
28.1528
 11
43.3085
 21
19.5969
  0
LINE
  8
8
 10
49.2226
 20
19.5854
 11
49.2275
 21
21.2036
  0
POLYLINE
  8
8
 66
1
 70
0
  0
VERTEX
  8
8
 10
37.9904
 20
21.5676
  0
VERTEX
  8
8
 10
36.7205
 20
21.5676
  0
VERTEX
  8
8
 10
36.7205
 20
22.5615
  0
SEQEND
  8
8
  0
LINE
  8
8
 10
50.5401
 20
19.5734
 11
50.5327
 21
21.0781
  0
LINE
  8
8
 10
45.6217
 20
27.6332
 11
45.6217
 21
19.5790
  0
LINE
  8
8
 10
29.5720
 20
30.9127
 11
29.5720
 21
19.5958
  0
LINE
  8
8
 10
54.5110
 20
23.9270
 11
54.8511
 21
23.0118
  0
LINE
  8
6
 10
53.8437
 20
19.8060
 11
28.1851
 21
19.8141
  0
ENDBLK
  0
BLOCK
  8
0
  2
RELAXED TANK BK V2_40
 70
64
 10
0.0000
 20
0.0000
  0
TEXT
  8
1
 10
41.8240
 20
25.7128
 40
0.250
 50
0.0000
  1
Piece Name: RELAXED TANK BK V2
  7
STANDARD
  0
TEXT
  8
1
 10
41.8240
 20
25.8528
 40
0.250
 50
0.0000
  1
SIZE: 40
  7
STANDARD
  0
POLYLINE
  8
1
 66
1
 70
0
  0
VERTEX
  8
1
 10
28.0652
 20
19.7886
  0
VERTEX
  8
1
 10
28.2720
 20
23.0990
  0
VERTEX
  8
1
 10
28.7519
 20
27.0692
  0
VERTEX
  8
1
 10
29.2679
 20
29.7242
  0
VERTEX
  8
1
 10
29.8135
 20
31.6371
  0
SEQEND
  8
1
  0
POLYLINE
  8
1
 66
1
 70
0
  0
VERTEX
  8
1
 10
29.8135
 20
31.6371
  0
VERTEX
  8
1
 10
46.4925
 20
28.2127
  0
SEQEND
  8
1
  0
POLYLINE
  8
1
 66
1
 70
0
  0
VERTEX
  8
1
 10
46.4925
 20
28.2127
  0
VERTEX
  8
1
 10
46.1936
 20
26.4305
  0
VERTEX
  8
1
 10
46.4761
 20
23.8401
  0
VERTEX
  8
1
 10
48.6266
 20
21.9159
  0
VERTEX
  8
1
 10
50.3176
 20
21.6703
  0
VERTEX
  8
1
 10
51.5832
 20
21.9262
  0
VERTEX
  8
1
 10
52.7194
 20
22.7767
  0
VERTEX
  8
1
 10
53.6606
 20
23.7531
  0
VERTEX
  8
1
 10
54.6152
 20
24.0438
  0
VERTEX
  8
1
 10
55.3796
 20
24.0980
  0
SEQEND
  8
1
  0
POLYLINE
  8
1
 66
1
 70
0
  0
VERTEX
  8
1
 10
55.3796
 20
24.0980
  0
VERTEX
  8
1
 10
55.5828
 20
23.1736
  0
SEQEND
  8
1
  0
POLYLINE
  8
1
 66
1
 70
0
  0
VERTEX
  8
1
 10
55.5828
 20
23.1736
  0
VERTEX
  8
1
 10
54.5595
 20
23.3883
  0
VERTEX
  8
1
 10
53.9904
 20
22.2940
  0
VERTEX
  8
1
 10
53.7554
 20
20.7844
  0
VERTEX
  8
1
 10
53.7237
 20
19.7977
  0
SEQEND
  8
1
  0
POLYLINE
  8
1
 66
1
 70
0
  0
VERTEX
  8
1
 10
53.7237
 20
19.7977
  0
VERTEX
  8
1
 10
28.0652
 20
19.7886
  0
SEQEND
  8
1
  0
LINE
  8
7
 10
33.0498
 20
24.0796
 11
41.3311
 21
24.0796
  0
LINE
  8
5
 10
33.0498
 20
24.0796
 11
41.3311
 21
24.0796
  0
LINE
  8
8
 10
43.4114
 20
27.9106
 11
43.4284
 21
19.3547
  0
LINE
  8
8
 10
49.3425
 20
19.3432
 11
49.3474
 21
20.9614
  0
POLYLINE
  8
8
 66
1
 70
0
  0
VERTEX
  8
8
 10
38.1103
 20
21.3254
  0
VERTEX
  8
8
 10
36.8404
 20
21.3254
  0
VERTEX
  8
8
 10
36.8404
 20
22.3193
  0
SEQEND
  8
8
  0
LINE
  8
8
 10
50.6600
 20
19.3312
 11
50.6526
 21
20.8359
  0
LINE
  8
8
 10
45.7416
 20
27.3910
 11
45.7416
 21
19.3368
  0
LINE
  8
8
 10
29.6919
 20
30.6705
 11
29.6919
 21
19.3536
  0
LINE
  8
8
 10
54.6309
 20
23.6848
 11
54.9710
 21
22.7696
  0
LINE
  8
6
 10
53.7237
 20
19.7977
 11
28.0652
 21
19.7886
  0
ENDBLK
  0
BLOCK
  8
0
  2
RELAXED TANK BK V2_42
 70
64
 10
0.0000
 20
0.0000
  0
TEXT
  8
1
 10
41.8240
 20
25.8212
 40
0.250
 50
0.0000
  1
Piece Name: RELAXED TANK BK V2
  7
STANDARD
  0
TEXT
  8
1
 10
41.8240
 20
25.9612
 40
0.250
 50
0.0000
  1
SIZE: 42
  7
STANDARD
  0
POLYLINE
  8
1
 66
1
 70
0
  0
VERTEX
  8
1
 10
27.9453
 20
19.7432
  0
VERTEX
  8
1
 10
28.2406
 20
23.1465
  0
VERTEX
  8
1
 10
28.8335
 20
27.2224
  0
VERTEX
  8
1
 10
29.4308
 20
29.9433
  0
VERTEX
  8
1
 10
30.0402
 20
31.8993
  0
SEQEND
  8
1
  0
POLYLINE
  8
1
 66
1
 70
0
  0
VERTEX
  8
1
 10
30.0402
 20
31.8993
  0
VERTEX
  8
1
 10
46.5969
 20
28.4438
  0
SEQEND
  8
1
  0
POLYLINE
  8
1
 66
1
 70
0
  0
VERTEX
  8
1
 10
46.5969
 20
28.4438
  0
VERTEX
  8
1
 10
46.2570
 20
26.6737
  0
VERTEX
  8
1
 10
46.4778
 20
24.0840
  0
VERTEX
  8
1
 10
48.5770
 20
22.1148
  0
VERTEX
  8
1
 10
50.2574
 20
21.8301
  0
VERTEX
  8
1
 10
51.5254
 20
22.0556
  0
VERTEX
  8
1
 10
52.6784
 20
22.8769
  0
VERTEX
  8
1
 10
53.6398
 20
23.8285
  0
VERTEX
  8
1
 10
54.6937
 20
23.9344
  0
VERTEX
  8
1
 10
55.5008
 20
23.8333
  0
SEQEND
  8
1
  0
POLYLINE
  8
1
 66
1
 70
0
  0
VERTEX
  8
1
 10
55.5008
 20
23.8333
  0
VERTEX
  8
1
 10
55.7028
 20
22.9114
  0
SEQEND
  8
1
  0
POLYLINE
  8
1
 66
1
 70
0
  0
VERTEX
  8
1
 10
55.7028
 20
22.9114
  0
VERTEX
  8
1
 10
54.5091
 20
23.4656
  0
VERTEX
  8
1
 10
53.9087
 20
22.3428
  0
VERTEX
  8
1
 10
53.6482
 20
20.7871
  0
VERTEX
  8
1
 10
53.6037
 20
19.7690
  0
SEQEND
  8
1
  0
POLYLINE
  8
1
 66
1
 70
0
  0
VERTEX
  8
1
 10
53.6037
 20
19.7690
  0
VERTEX
  8
1
 10
27.9453
 20
19.7432
  0
SEQEND
  8
1
  0
LINE
  8
7
 10
33.1698
 20
23.8174
 11
41.4511
 21
23.8174
  0
LINE
  8
5
 10
33.1698
 20
23.8174
 11
41.4511
 21
23.8174
  0
LINE
  8
8
 10
43.5314
 20
27.6484
 11
43.5484
 21
19.0925
  0
LINE
  8
8
 10
49.4625
 20
19.0810
 11
49.4674
 21
20.6992
  0
POLYLINE
  8
8
 66
1
 70
0
  0
VERTEX
  8
8
 10
38.2303
 20
21.0632
  0
VERTEX
  8
8
 10
36.9604
 20
21.0632
  0
VERTEX
  8
8
 10
36.9604
 20
22.0571
  0
SEQEND
  8
8
  0
LINE
  8
8
 10
50.7800
 20
19.0690
 11
50.7726
 21
20.5737
  0
LINE
  8
8
 10
45.8616
 20
27.1288
 11
45.8616
 21
19.0746
  0
LINE
  8
8
 10
29.8119
 20
30.4083
 11
29.8119
 21
19.0914
  0
LINE
  8
8
 10
54.7509
 20
23.4226
 11
55.0910
 21
22.5074
  0
LINE
  8
6
 10
53.6037
 20
19.7690
 11
27.9453
 21
19.7432
  0
ENDBLK
  0
BLOCK
  8
0
  2
RELAXED TANK BK V2_44
 70
64
 10
0.0000
 20
0.0000
  0
TEXT
  8
1
 10
41.8240
 20
25.9295
 40
0.250
 50
0.0000
  1
Piece Name: RELAXED TANK BK V2
  7
STANDARD
  0
TEXT
  8
1
 10
41.8240
 20
26.0695
 40
0.250
 50
0.0000
  1
SIZE: 44
  7
STANDARD
  0
POLYLINE
  8
1
 66
1
 70
0
  0
VERTEX
  8
1
 10
27.8254
 20
19.7041
  0
VERTEX
  8
1
 10
28.2056
 20
23.1965
  0
VERTEX
  8
1
 10
28.9069
 20
27.3737
  0
VERTEX
  8
1
 10
29.5822
 20
30.1577
  0
VERTEX
  8
1
 10
30.2527
 20
32.1550
  0
SEQEND
  8
1
  0
POLYLINE
  8
1
 66
1
 70
0
  0
VERTEX
  8
1
 10
30.2527
 20
32.1550
  0
VERTEX
  8
1
 10
46.7013
 20
28.6797
  0
SEQEND
  8
1
  0
POLYLINE
  8
1
 66
1
 70
0
  0
VERTEX
  8
1
 10
46.7013
 20
28.6797
  0
VERTEX
  8
1
 10
46.3203
 20
26.9215
  0
VERTEX
  8
1
 10
46.4795
 20
24.3321
  0
VERTEX
  8
1
 10
48.5277
 20
22.3176
  0
VERTEX
  8
1
 10
50.1977
 20
21.9939
  0
VERTEX
  8
1
 10
51.4684
 20
22.1890
  0
VERTEX
  8
1
 10
52.6382
 20
22.9813
  0
VERTEX
  8
1
 10
53.6200
 20
23.9081
  0
VERTEX
  8
1
 10
54.7725
 20
23.8303
  0
VERTEX
  8
1
 10
55.6220
 20
23.5749
  0
SEQEND
  8
1
  0
POLYLINE
  8
1
 66
1
 70
0
  0
VERTEX
  8
1
 10
55.6220
 20
23.5749
  0
VERTEX
  8
1
 10
55.8227
 20
22.6557
  0
SEQEND
  8
1
  0
POLYLINE
  8
1
 66
1
 70
0
  0
VERTEX
  8
1
 10
55.8227
 20
22.6557
  0
VERTEX
  8
1
 10
54.4595
 20
23.5475
  0
VERTEX
  8
1
 10
53.8274
 20
22.3960
  0
VERTEX
  8
1
 10
53.5411
 20
20.7942
  0
VERTEX
  8
1
 10
53.4837
 20
19.7444
  0
SEQEND
  8
1
  0
POLYLINE
  8
1
 66
1
 70
0
  0
VERTEX
  8
1
 10
53.4837
 20
19.7444
  0
VERTEX
  8
1
 10
27.8254
 20
19.7041
  0
SEQEND
  8
1
  0
LINE
  8
7
 10
33.2897
 20
23.5617
 11
41.5710
 21
23.5617
  0
LINE
  8
5
 10
33.2897
 20
23.5617
 11
41.5710
 21
23.5617
  0
LINE
  8
8
 10
43.6513
 20
27.3927
 11
43.6683
 21
18.8368
  0
LINE
  8
8
 10
49.5824
 20
18.8253
 11
49.5873
 21
20.4435
  0
POLYLINE
  8
8
 66
1
 70
0
  0
VERTEX
  8
8
 10
38.3502
 20
20.8075
  0
VERTEX
  8
8
 10
37.0803
 20
20.8075
  0
VERTEX
  8
8
 10
37.0803
 20
21.8014
  0
SEQEND
  8
8
  0
LINE
  8
8
 10
50.8999
 20
18.8133
 11
50.8925
 21
20.3180
  0
LINE
  8
8
 10
45.9815
 20
26.8731
 11
45.9815
 21
18.8189
  0
LINE
  8
8
 10
29.9318
 20
30.1526
 11
29.9318
 21
18.8357
  0
LINE
  8
8
 10
54.8708
 20
23.1669
 11
55.2109
 21
22.2517
  0
LINE
  8
6
 10
53.4837
 20
19.7444
 11
27.8254
 21
19.7041
  0
ENDBLK
  0
BLOCK
  8
0
  2
RELAXED TANK BK V2_46
 70
64
 10
0.0000
 20
0.0000
  0
TEXT
  8
1
 10
41.8240
 20
26.1064
 40
0.250
 50
0.0000
  1
Piece Name: RELAXED TANK BK V2
  7
STANDARD
  0
TEXT
  8
1
 10
41.8240
 20
26.2464
 40
0.250
 50
0.0000
  1
SIZE: 46
  7
STANDARD
  0
POLYLINE
  8
1
 66
1
 70
0
  0
VERTEX
  8
1
 10
27.8352
 20
19.7422
  0
VERTEX
  8
1
 10
28.5422
 20
23.5451
  0
VERTEX
  8
1
 10
29.6585
 20
28.0731
  0
VERTEX
  8
1
 10
30.6308
 20
31.0736
  0
VERTEX
  8
1
 10
31.5326
 20
33.2109
  0
SEQEND
  8
1
  0
POLYLINE
  8
1
 66
1
 70
0
  0
VERTEX
  8
1
 10
31.5326
 20
33.2109
  0
VERTEX
  8
1
 10
46.6274
 20
29.6569
  0
SEQEND
  8
1
  0
POLYLINE
  8
1
 66
1
 70
0
  0
VERTEX
  8
1
 10
46.6274
 20
29.6569
  0
VERTEX
  8
1
 10
45.9969
 20
27.6034
  0
VERTEX
  8
1
 10
45.9251
 20
24.5065
  0
VERTEX
  8
1
 10
48.1590
 20
21.9031
  0
VERTEX
  8
1
 10
50.1134
 20
21.3496
  0
VERTEX
  8
1
 10
51.6448
 20
21.4536
  0
VERTEX
  8
1
 10
53.1166
 20
22.2783
  0
VERTEX
  8
1
 10
54.3782
 20
23.2820
  0
VERTEX
  8
1
 10
55.1192
 20
22.9186
  0
VERTEX
  8
1
 10
55.6118
 20
22.5199
  0
SEQEND
  8
1
  0
POLYLINE
  8
1
 66
1
 70
0
  0
VERTEX
  8
1
 10
55.6118
 20
22.5199
  0
VERTEX
  8
1
 10
55.8129
 20
21.5998
  0
SEQEND
  8
1
  0
POLYLINE
  8
1
 66
1
 70
0
  0
VERTEX
  8
1
 10
55.8129
 20
21.5998
  0
VERTEX
  8
1
 10
54.5168
 20
22.4329
  0
VERTEX
  8
1
 10
53.9311
 20
21.3981
  0
VERTEX
  8
1
 10
53.6532
 20
19.9515
  0
VERTEX
  8
1
 10
53.5889
 20
19.0020
  0
SEQEND
  8
1
  0
POLYLINE
  8
1
 66
1
 70
0
  0
VERTEX
  8
1
 10
53.5889
 20
19.0020
  0
VERTEX
  8
1
 10
27.8352
 20
19.7422
  0
SEQEND
  8
1
  0
LINE
  8
7
 10
33.2799
 20
22.5058
 11
41.5612
 21
22.5058
  0
LINE
  8
5
 10
33.2799
 20
22.5058
 11
41.5612
 21
22.5058
  0
LINE
  8
8
 10
43.6415
 20
26.3368
 11
43.6585
 21
17.7809
  0
LINE
  8
8
 10
49.5726
 20
17.7694
 11
49.5775
 21
19.3876
  0
POLYLINE
  8
8
 66
1
 70
0
  0
VERTEX
  8
8
 10
38.3404
 20
19.7516
  0
VERTEX
  8
8
 10
37.0705
 20
19.7516
  0
VERTEX
  8
8
 10
37.0705
 20
20.7454
  0
SEQEND
  8
8
  0
LINE
  8
8
 10
50.8901
 20
17.7574
 11
50.8827
 21
19.2621
  0
LINE
  8
8
 10
45.9717
 20
25.8172
 11
45.9717
 21
17.7630
  0
LINE
  8
8
 10
29.9220
 20
29.0967
 11
29.9220
 21
17.7798
  0
LINE
  8
8
 10
54.8610
 20
22.1110
 11
55.2011
 21
21.1958
  0
LINE
  8
6
 10
53.5889
 20
19.0020
 11
27.8352
 21
19.7422
  0
ENDBLK
  0
BLOCK
  8
0
  2
RELAXED TANK BK V2_48
 70
64
 10
0.0000
 20
0.0000
  0
TEXT
  8
1
 10
54.0894
 20
25.4841
 40
0.250
 50
0.0000
  1
Piece Name: RELAXED TANK BK V2
  7
STANDARD
  0
TEXT
  8
1
 10
54.0894
 20
25.6241
 40
0.250
 50
0.0000
  1
SIZE: 48
  7
STANDARD
  0
POLYLINE
  8
1
 66
1
 70
0
  0
VERTEX
  8
1
 10
69.2822
 20
29.2575
  0
VERTEX
  8
1
 10
66.6029
 20
26.2426
  0
VERTEX
  8
1
 10
63.1677
 20
22.8006
  0
VERTEX
  8
1
 10
60.6836
 20
20.6449
  0
VERTEX
  8
1
 10
58.7276
 20
19.2222
  0
SEQEND
  8
1
  0
POLYLINE
  8
1
 66
1
 70
0
  0
VERTEX
  8
1
 10
58.7276
 20
19.2222
  0
VERTEX
  8
1
 10
64.1998
 20
17.9233
  0
SEQEND
  8
1
  0
POLYLINE
  8
1
 66
1
 70
0
  0
VERTEX
  8
1
 10
64.1998
 20
17.9233
  0
VERTEX
  8
1
 10
62.9438
 20
23.2632
  0
VERTEX
  8
1
 10
59.1115
 20
30.1834
  0
VERTEX
  8
1
 10
50.8318
 20
33.0449
  0
VERTEX
  8
1
 10
45.8095
 20
31.7470
  0
VERTEX
  8
1
 10
42.5670
 20
29.5443
  0
VERTEX
  8
1
 10
40.3849
 20
25.8296
  0
VERTEX
  8
1
 10
38.8967
 20
21.9912
  0
VERTEX
  8
1
 10
39.8596
 20
22.8671
  0
VERTEX
  8
1
 10
40.7304
 20
23.3580
  0
SEQEND
  8
1
  0
POLYLINE
  8
1
 66
1
 70
0
  0
VERTEX
  8
1
 10
40.7304
 20
23.3580
  0
VERTEX
  8
1
 10
40.2567
 20
23.9213
  0
SEQEND
  8
1
  0
POLYLINE
  8
1
 66
1
 70
0
  0
VERTEX
  8
1
 10
40.2567
 20
23.9213
  0
VERTEX
  8
1
 10
39.6437
 20
25.5781
  0
VERTEX
  8
1
 10
40.8621
 20
26.7880
  0
VERTEX
  8
1
 10
41.8136
 20
28.6905
  0
VERTEX
  8
1
 10
42.2740
 20
29.9857
  0
SEQEND
  8
1
  0
POLYLINE
  8
1
 66
1
 70
0
  0
VERTEX
  8
1
 10
42.2740
 20
29.9857
  0
VERTEX
  8
1
 10
69.2822
 20
29.2575
  0
SEQEND
  8
1
  0
LINE
  8
7
 10
17.7237
 20
24.8273
 11
26.0050
 21
24.8273
  0
LINE
  8
5
 10
17.7237
 20
24.8273
 11
26.0050
 21
24.8273
  0
LINE
  8
8
 10
28.0853
 20
28.6583
 11
28.1023
 21
20.1024
  0
LINE
  8
8
 10
34.0164
 20
20.0909
 11
34.0213
 21
21.7091
  0
POLYLINE
  8
8
 66
1
 70
0
  0
VERTEX
  8
8
 10
22.7842
 20
22.0731
  0
VERTEX
  8
8
 10
21.5143
 20
22.0731
  0
VERTEX
  8
8
 10
21.5143
 20
23.0670
  0
SEQEND
  8
8
  0
LINE
  8
8
 10
35.3339
 20
20.0789
 11
35.3265
 21
21.5836
  0
LINE
  8
8
 10
30.4155
 20
28.1387
 11
30.4155
 21
20.0845
  0
LINE
  8
8
 10
14.3658
 20
31.4182
 11
14.3658
 21
20.1013
  0
LINE
  8
8
 10
39.3048
 20
24.4325
 11
39.6449
 21
23.5173
  0
LINE
  8
6
 10
42.2740
 20
29.9857
 11
69.2822
 21
29.2575
  0
ENDBLK
  0
BLOCK
  8
0
  2
RELAXED TANK BK V2_50
 70
64
 10
0.0000
 20
0.0000
  0
TEXT
  8
1
 10
54.1560
 20
25.4841
 40
0.250
 50
0.0000
  1
Piece Name: RELAXED TANK BK V2
  7
STANDARD
  0
TEXT
  8
1
 10
54.1560
 20
25.6241
 40
0.250
 50
0.0000
  1
SIZE: 50
  7
STANDARD
  0
POLYLINE
  8
1
 66
1
 70
0
  0
VERTEX
  8
1
 10
69.4150
 20
29.2772
  0
VERTEX
  8
1
 10
66.6208
 20
26.1606
  0
VERTEX
  8
1
 10
63.0402
 20
22.6042
  0
VERTEX
  8
1
 10
60.4525
 20
20.3785
  0
VERTEX
  8
1
 10
58.4161
 20
18.9109
  0
SEQEND
  8
1
  0
POLYLINE
  8
1
 66
1
 70
0
  0
VERTEX
  8
1
 10
58.4161
 20
18.9109
  0
VERTEX
  8
1
 10
63.3243
 20
18.2808
  0
SEQEND
  8
1
  0
POLYLINE
  8
1
 66
1
 70
0
  0
VERTEX
  8
1
 10
63.3243
 20
18.2808
  0
VERTEX
  8
1
 10
62.0495
 20
23.4102
  0
VERTEX
  8
1
 10
58.2734
 20
30.0309
  0
VERTEX
  8
1
 10
50.2618
 20
32.6874
  0
VERTEX
  8
1
 10
45.4389
 20
31.3761
  0
VERTEX
  8
1
 10
42.3416
 20
29.2147
  0
VERTEX
  8
1
 10
40.2843
 20
25.6093
  0
VERTEX
  8
1
 10
38.8971
 20
21.8932
  0
VERTEX
  8
1
 10
39.3026
 20
23.7680
  0
VERTEX
  8
1
 10
39.9271
 20
25.1019
  0
SEQEND
  8
1
  0
POLYLINE
  8
1
 66
1
 70
0
  0
VERTEX
  8
1
 10
39.9271
 20
25.1019
  0
VERTEX
  8
1
 10
40.1239
 20
24.1907
  0
SEQEND
  8
1
  0
POLYLINE
  8
1
 66
1
 70
0
  0
VERTEX
  8
1
 10
40.1239
 20
24.1907
  0
VERTEX
  8
1
 10
39.6912
 20
25.4852
  0
VERTEX
  8
1
 10
40.9405
 20
26.7216
  0
VERTEX
  8
1
 10
41.9178
 20
28.6674
  0
VERTEX
  8
1
 10
42.3914
 20
29.9924
  0
SEQEND
  8
1
  0
POLYLINE
  8
1
 66
1
 70
0
  0
VERTEX
  8
1
 10
42.3914
 20
29.9924
  0
VERTEX
  8
1
 10
69.4150
 20
29.2772
  0
SEQEND
  8
1
  0
LINE
  8
7
 10
17.5909
 20
25.0967
 11
25.8722
 21
25.0967
  0
LINE
  8
5
 10
17.5909
 20
25.0967
 11
25.8722
 21
25.0967
  0
LINE
  8
8
 10
27.9525
 20
28.9277
 11
27.9695
 21
20.3718
  0
LINE
  8
8
 10
33.8836
 20
20.3603
 11
33.8885
 21
21.9785
  0
POLYLINE
  8
8
 66
1
 70
0
  0
VERTEX
  8
8
 10
22.6514
 20
22.3425
  0
VERTEX
  8
8
 10
21.3815
 20
22.3425
  0
VERTEX
  8
8
 10
21.3815
 20
23.3364
  0
SEQEND
  8
8
  0
LINE
  8
8
 10
35.2011
 20
20.3483
 11
35.1937
 21
21.8530
  0
LINE
  8
8
 10
30.2827
 20
28.4081
 11
30.2827
 21
20.3539
  0
LINE
  8
8
 10
14.2330
 20
31.6876
 11
14.2330
 21
20.3707
  0
LINE
  8
8
 10
39.1720
 20
24.7019
 11
39.5121
 21
23.7867
  0
LINE
  8
6
 10
42.3914
 20
29.9924
 11
69.4150
 21
29.2772
  0
ENDBLK
  0
BLOCK
  8
0
  2
RELAXED TANK BK V2_52
 70
64
 10
0.0000
 20
0.0000
  0
TEXT
  8
1
 10
54.2220
 20
25.4841
 40
0.250
 50
0.0000
  1
Piece Name: RELAXED TANK BK V2
  7
STANDARD
  0
TEXT
  8
1
 10
54.2220
 20
25.6241
 40
0.250
 50
0.0000
  1
SIZE: 52
  7
STANDARD
  0
POLYLINE
  8
1
 66
1
 70
0
  0
VERTEX
  8
1
 10
69.5474
 20
29.1063
  0
VERTEX
  8
1
 10
66.6390
 20
25.8885
  0
VERTEX
  8
1
 10
62.9138
 20
22.2181
  0
VERTEX
  8
1
 10
60.2232
 20
19.9225
  0
VERTEX
  8
1
 10
58.1069
 20
18.4103
  0
SEQEND
  8
1
  0
POLYLINE
  8
1
 66
1
 70
0
  0
VERTEX
  8
1
 10
58.1069
 20
18.4103
  0
VERTEX
  8
1
 10
63.5789
 20
18.3143
  0
SEQEND
  8
1
  0
POLYLINE
  8
1
 66
1
 70
0
  0
VERTEX
  8
1
 10
63.5789
 20
18.3143
  0
VERTEX
  8
1
 10
62.2201
 20
23.4681
  0
VERTEX
  8
1
 10
58.3178
 20
30.0899
  0
VERTEX
  8
1
 10
50.2014
 20
32.6539
  0
VERTEX
  8
1
 10
45.3571
 20
31.2626
  0
VERTEX
  8
1
 10
42.2650
 20
29.0388
  0
VERTEX
  8
1
 10
40.2422
 20
25.3740
  0
VERTEX
  8
1
 10
38.8966
 20
21.6071
  0
VERTEX
  8
1
 10
39.2089
 20
23.6787
  0
VERTEX
  8
1
 10
39.7973
 20
25.1759
  0
SEQEND
  8
1
  0
POLYLINE
  8
1
 66
1
 70
0
  0
VERTEX
  8
1
 10
39.7973
 20
25.1759
  0
VERTEX
  8
1
 10
39.9915
 20
24.2701
  0
SEQEND
  8
1
  0
POLYLINE
  8
1
 66
1
 70
0
  0
VERTEX
  8
1
 10
39.9915
 20
24.2701
  0
VERTEX
  8
1
 10
39.7382
 20
25.2041
  0
VERTEX
  8
1
 10
41.0188
 20
26.4669
  0
VERTEX
  8
1
 10
42.0226
 20
28.4561
  0
VERTEX
  8
1
 10
42.5096
 20
29.8110
  0
SEQEND
  8
1
  0
POLYLINE
  8
1
 66
1
 70
0
  0
VERTEX
  8
1
 10
42.5096
 20
29.8110
  0
VERTEX
  8
1
 10
69.5474
 20
29.1063
  0
SEQEND
  8
1
  0
LINE
  8
7
 10
17.4585
 20
25.1761
 11
25.7398
 21
25.1761
  0
LINE
  8
5
 10
17.4585
 20
25.1761
 11
25.7398
 21
25.1761
  0
LINE
  8
8
 10
27.8201
 20
29.0071
 11
27.8371
 21
20.4512
  0
LINE
  8
8
 10
33.7512
 20
20.4397
 11
33.7561
 21
22.0579
  0
POLYLINE
  8
8
 66
1
 70
0
  0
VERTEX
  8
8
 10
22.5190
 20
22.4219
  0
VERTEX
  8
8
 10
21.2491
 20
22.4219
  0
VERTEX
  8
8
 10
21.2491
 20
23.4158
  0
SEQEND
  8
8
  0
LINE
  8
8
 10
35.0687
 20
20.4277
 11
35.0613
 21
21.9324
  0
LINE
  8
8
 10
30.1503
 20
28.4875
 11
30.1503
 21
20.4333
  0
LINE
  8
8
 10
14.1006
 20
31.7670
 11
14.1006
 21
20.4501
  0
LINE
  8
8
 10
39.0396
 20
24.7813
 11
39.3797
 21
23.8661
  0
LINE
  8
6
 10
42.5096
 20
29.8110
 11
69.5474
 21
29.1063
  0
ENDBLK
  0
ENDSEC
  0
SECTION
  2
ENTITIES
  0
TEXT
  8
1
 10
0.0000
 20
0.0000
 40
0.250
 50
0.0000
  1
Style Name: WM LOOSE SHAPE TANK
  7
STANDARD
  0
TEXT
  8
1
 10
0.0000
 20
0.1400
 40
0.250
 50
0.0000
  1
Creation Date: 26-10-2017
  7
STANDARD
  0
TEXT
  8
1
 10
0.0000
 20
0.2800
 40
0.250
 50
0.0000
  1
Creation Time:  9:36
  7
STANDARD
  0
TEXT
  8
1
 10
0.0000
 20
0.4200
 40
0.250
 50
0.0000
  1
Author: GERBER TECHNOLOGY
  7
STANDARD
  0
TEXT
  8
1
 10
0.0000
 20
0.5600
 40
0.250
 50
0.0000
  1
PRODUCT: ACCUMARK
  7
STANDARD
  0
TEXT
  8
1
 10
0.0000
 20
0.7000
 40
0.250
 50
0.0000
  1
VERSION: 10.0.1
  7
STANDARD
  0
TEXT
  8
1
 10
0.0000
 20
0.8400
 40
0.250
 50
0.0000
  1
Sample Size: 36
  7
STANDARD
  0
TEXT
  8
1
 10
0.0000
 20
0.9800
 40
0.250
 50
0.0000
  1
Units: ENGLISH
  7
STANDARD
  0
TEXT
  8
1
 10
0.0000
 20
1.1200
 40
0.250
 50
0.0000
  1
TOLERANCE: .006
  7
STANDARD
  0
INSERT
  8
1
  2
RELAXED TANK FR V2_26
 10
0.0000
 20
0.0000
  0
INSERT
  8
1
  2
RELAXED TANK FR V2_28
 10
0.0000
 20
0.0000
  0
INSERT
  8
1
  2
RELAXED TANK FR V2_30
 10
0.0000
 20
0.0000
  0
INSERT
  8
1
  2
RELAXED TANK FR V2_32
 10
0.0000
 20
0.0000
  0
INSERT
  8
1
  2
RELAXED TANK FR V2_34
 10
0.0000
 20
0.0000
  0
INSERT
  8
1
  2
RELAXED TANK FR V2_36
 10
0.0000
 20
0.0000
  0
INSERT
  8
1
  2
RELAXED TANK FR V2_38
 10
0.0000
 20
0.0000
  0
INSERT
  8
1
  2
RELAXED TANK FR V2_40
 10
0.0000
 20
0.0000
  0
INSERT
  8
1
  2
RELAXED TANK FR V2_42
 10
0.0000
 20
0.0000
  0
INSERT
  8
1
  2
RELAXED TANK FR V2_44
 10
0.0000
 20
0.0000
  0
INSERT
  8
1
  2
RELAXED TANK FR V2_46
 10
0.0000
 20
0.0000
  0
INSERT
  8
1
  2
RELAXED TANK FR V2_48
 10
0.0000
 20
0.0000
  0
INSERT
  8
1
  2
RELAXED TANK FR V2_50
 10
0.0000
 20
0.0000
  0
INSERT
  8
1
  2
RELAXED TANK FR V2_52
 10
0.0000
 20
0.0000
  0
INSERT
  8
1
  2
RELAXED TANK BK V2_26
 10
0.0000
 20
0.0000
  0
INSERT
  8
1
  2
RELAXED TANK BK V2_28
 10
0.0000
 20
0.0000
  0
INSERT
  8
1
  2
RELAXED TANK BK V2_30
 10
0.0000
 20
0.0000
  0
INSERT
  8
1
  2
RELAXED TANK BK V2_32
 10
0.0000
 20
0.0000
  0
INSERT
  8
1
  2
RELAXED TANK BK V2_34
 10
0.0000
 20
0.0000
  0
INSERT
  8
1
  2
RELAXED TANK BK V2_36
 10
0.0000
 20
0.0000
  0
INSERT
  8
1
  2
RELAXED TANK BK V2_38
 10
0.0000
 20
0.0000
  0
INSERT
  8
1
  2
RELAXED TANK BK V2_40
 10
0.0000
 20
0.0000
  0
INSERT
  8
1
  2
RELAXED TANK BK V2_42
 10
0.0000
 20
0.0000
  0
INSERT
  8
1
  2
RELAXED TANK BK V2_44
 10
0.0000
 20
0.0000
  0
INSERT
  8
1
  2
RELAXED TANK BK V2_46
 10
0.0000
 20
0.0000
  0
INSERT
  8
1
  2
RELAXED TANK BK V2_48
 10
0.0000
 20
0.0000
  0
INSERT
  8
1
  2
RELAXED TANK BK V2_50
 10
0.0000
 20
0.0000
  0
INSERT
  8
1
  2
RELAXED TANK BK V2_52
 10
0.0000
 20
0.0000
  0
ENDSEC
  0
EOF
