  0
SECTION
  2
HEADER
  0
ENDSEC
  0
SECTION
  2
BLOCKS
  0
BLOCK
  8
0
  2
TANK_SR_BK_26
 70
64
 10
0.0000
 20
0.0000
  0
TEXT
  8
1
 10
13.4303
 20
27.4479
 40
0.250
 50
0.0000
  1
Piece Name: TANK_SR_BK
  7
STANDARD
  0
TEXT
  8
1
 10
13.4303
 20
27.5879
 40
0.250
 50
0.0000
  1
SIZE: 26
  7
STANDARD
  0
POLYLINE
  8
1
 66
1
 70
0
  0
VERTEX
  8
1
 10
24.0738
 20
31.1832
  0
VERTEX
  8
1
 10
24.0742
 20
30.6683
  0
VERTEX
  8
1
 10
24.1434
 20
29.6736
  0
VERTEX
  8
1
 10
24.4058
 20
28.7724
  0
VERTEX
  8
1
 10
24.6874
 20
28.1385
  0
VERTEX
  8
1
 10
24.9492
 20
27.7616
  0
SEQEND
  8
1
  0
POLYLINE
  8
1
 66
1
 70
0
  0
VERTEX
  8
1
 10
24.9492
 20
27.7616
  0
VERTEX
  8
1
 10
24.5561
 20
26.6454
  0
SEQEND
  8
1
  0
POLYLINE
  8
1
 66
1
 70
0
  0
VERTEX
  8
1
 10
24.5561
 20
26.6454
  0
VERTEX
  8
1
 10
23.8471
 20
27.2355
  0
VERTEX
  8
1
 10
22.9931
 20
28.0753
  0
VERTEX
  8
1
 10
22.0199
 20
29.0851
  0
VERTEX
  8
1
 10
21.3011
 20
29.5814
  0
VERTEX
  8
1
 10
20.5039
 20
29.8669
  0
VERTEX
  8
1
 10
19.6940
 20
29.9678
  0
VERTEX
  8
1
 10
18.7130
 20
29.9910
  0
VERTEX
  8
1
 10
17.9444
 20
29.7786
  0
VERTEX
  8
1
 10
17.2837
 20
29.3506
  0
VERTEX
  8
1
 10
16.7320
 20
28.5039
  0
VERTEX
  8
1
 10
16.5982
 20
27.7139
  0
VERTEX
  8
1
 10
16.6458
 20
26.6009
  0
VERTEX
  8
1
 10
16.9047
 20
25.3111
  0
VERTEX
  8
1
 10
17.3002
 20
24.3910
  0
SEQEND
  8
1
  0
POLYLINE
  8
1
 66
1
 70
0
  0
VERTEX
  8
1
 10
17.3002
 20
24.3910
  0
VERTEX
  8
1
 10
16.4273
 20
24.3946
  0
VERTEX
  8
1
 10
11.1431
 20
25.0998
  0
VERTEX
  8
1
 10
9.9901
 20
25.1789
  0
VERTEX
  8
1
 10
8.8466
 20
24.8581
  0
VERTEX
  8
1
 10
7.3585
 20
24.5597
  0
VERTEX
  8
1
 10
3.0213
 20
23.8441
  0
VERTEX
  8
1
 10
1.9131
 20
23.7127
  0
SEQEND
  8
1
  0
POLYLINE
  8
1
 66
1
 70
0
  0
VERTEX
  8
1
 10
1.9131
 20
23.7127
  0
VERTEX
  8
1
 10
1.9114
 20
31.1831
  0
SEQEND
  8
1
  0
POLYLINE
  8
1
 66
1
 70
0
  0
VERTEX
  8
1
 10
1.9114
 20
31.1831
  0
VERTEX
  8
1
 10
24.0738
 20
31.1832
  0
SEQEND
  8
1
  0
LINE
  8
7
 10
7.5321
 20
26.8521
 11
15.9770
 21
26.8521
  0
LINE
  8
5
 10
7.5321
 20
26.8521
 11
15.9770
 21
26.8521
  0
POLYLINE
  8
8
 66
1
 70
0
  0
VERTEX
  8
8
 10
2.8968
 20
27.4398
  0
VERTEX
  8
8
 10
2.8968
 20
28.5014
  0
VERTEX
  8
8
 10
6.8169
 20
28.5014
  0
SEQEND
  8
8
  0
LINE
  8
8
 10
9.9901
 20
31.1831
 11
9.9901
 21
25.1789
  0
LINE
  8
8
 10
16.3925
 20
24.3910
 11
16.3925
 21
31.1831
  0
LINE
  8
8
 10
19.6940
 20
29.9678
 11
19.6940
 21
31.1832
  0
LINE
  8
6
 10
1.9114
 20
31.1831
 11
24.0738
 21
31.1832
  0
ENDBLK
  0
BLOCK
  8
0
  2
TANK_SR_BK_28
 70
64
 10
0.0000
 20
0.0000
  0
TEXT
  8
1
 10
13.4303
 20
27.4479
 40
0.250
 50
0.0000
  1
Piece Name: TANK_SR_BK
  7
STANDARD
  0
TEXT
  8
1
 10
13.4303
 20
27.5879
 40
0.250
 50
0.0000
  1
SIZE: 28
  7
STANDARD
  0
POLYLINE
  8
1
 66
1
 70
0
  0
VERTEX
  8
1
 10
24.1919
 20
31.3308
  0
VERTEX
  8
1
 10
24.1923
 20
30.8159
  0
VERTEX
  8
1
 10
24.2733
 20
29.8079
  0
VERTEX
  8
1
 10
24.5436
 20
28.9082
  0
VERTEX
  8
1
 10
24.8484
 20
28.2647
  0
VERTEX
  8
1
 10
25.1264
 20
27.8844
  0
SEQEND
  8
1
  0
POLYLINE
  8
1
 66
1
 70
0
  0
VERTEX
  8
1
 10
25.1264
 20
27.8844
  0
VERTEX
  8
1
 10
24.7333
 20
26.7683
  0
SEQEND
  8
1
  0
POLYLINE
  8
1
 66
1
 70
0
  0
VERTEX
  8
1
 10
24.7333
 20
26.7683
  0
VERTEX
  8
1
 10
23.9953
 20
27.3678
  0
VERTEX
  8
1
 10
23.1048
 20
28.2228
  0
VERTEX
  8
1
 10
22.0892
 20
29.2516
  0
VERTEX
  8
1
 10
21.3445
 20
29.7456
  0
VERTEX
  8
1
 10
20.5236
 20
30.0224
  0
VERTEX
  8
1
 10
19.7137
 20
30.1154
  0
VERTEX
  8
1
 10
18.7327
 20
30.1190
  0
VERTEX
  8
1
 10
17.9524
 20
29.8976
  0
VERTEX
  8
1
 10
17.2834
 20
29.4576
  0
VERTEX
  8
1
 10
16.7281
 20
28.5925
  0
VERTEX
  8
1
 10
16.5877
 20
27.7508
  0
VERTEX
  8
1
 10
16.6413
 20
26.5655
  0
VERTEX
  8
1
 10
16.9204
 20
25.1924
  0
VERTEX
  8
1
 10
17.3199
 20
24.2434
  0
SEQEND
  8
1
  0
POLYLINE
  8
1
 66
1
 70
0
  0
VERTEX
  8
1
 10
17.3199
 20
24.2434
  0
VERTEX
  8
1
 10
16.4401
 20
24.2463
  0
VERTEX
  8
1
 10
11.1130
 20
24.9524
  0
VERTEX
  8
1
 10
9.9507
 20
25.0312
  0
VERTEX
  8
1
 10
8.7873
 20
24.7085
  0
VERTEX
  8
1
 10
7.2737
 20
24.4097
  0
VERTEX
  8
1
 10
2.8628
 20
23.6953
  0
VERTEX
  8
1
 10
1.7359
 20
23.5650
  0
SEQEND
  8
1
  0
POLYLINE
  8
1
 66
1
 70
0
  0
VERTEX
  8
1
 10
1.7359
 20
23.5650
  0
VERTEX
  8
1
 10
1.7342
 20
31.3307
  0
SEQEND
  8
1
  0
POLYLINE
  8
1
 66
1
 70
0
  0
VERTEX
  8
1
 10
1.7342
 20
31.3307
  0
VERTEX
  8
1
 10
24.1919
 20
31.3308
  0
SEQEND
  8
1
  0
LINE
  8
7
 10
7.5518
 20
26.9997
 11
15.9967
 21
26.9997
  0
LINE
  8
5
 10
7.5518
 20
26.9997
 11
15.9967
 21
26.9997
  0
POLYLINE
  8
8
 66
1
 70
0
  0
VERTEX
  8
8
 10
2.9165
 20
27.5874
  0
VERTEX
  8
8
 10
2.9165
 20
28.6490
  0
VERTEX
  8
8
 10
6.8366
 20
28.6490
  0
SEQEND
  8
8
  0
LINE
  8
8
 10
9.9507
 20
31.3307
 11
9.9507
 21
25.0312
  0
LINE
  8
8
 10
16.4122
 20
24.2434
 11
16.4122
 21
31.3307
  0
LINE
  8
8
 10
19.7137
 20
30.1154
 11
19.7137
 21
31.3308
  0
LINE
  8
6
 10
1.7342
 20
31.3307
 11
24.1919
 21
31.3308
  0
ENDBLK
  0
BLOCK
  8
0
  2
TANK_SR_BK_30
 70
64
 10
0.0000
 20
0.0000
  0
TEXT
  8
1
 10
13.4303
 20
27.4479
 40
0.250
 50
0.0000
  1
Piece Name: TANK_SR_BK
  7
STANDARD
  0
TEXT
  8
1
 10
13.4303
 20
27.5879
 40
0.250
 50
0.0000
  1
SIZE: 30
  7
STANDARD
  0
POLYLINE
  8
1
 66
1
 70
0
  0
VERTEX
  8
1
 10
24.3100
 20
31.4785
  0
VERTEX
  8
1
 10
24.3104
 20
30.9636
  0
VERTEX
  8
1
 10
24.4032
 20
29.9423
  0
VERTEX
  8
1
 10
24.6814
 20
29.0441
  0
VERTEX
  8
1
 10
25.0093
 20
28.3910
  0
VERTEX
  8
1
 10
25.3036
 20
28.0073
  0
SEQEND
  8
1
  0
POLYLINE
  8
1
 66
1
 70
0
  0
VERTEX
  8
1
 10
25.3036
 20
28.0073
  0
VERTEX
  8
1
 10
24.9105
 20
26.8913
  0
SEQEND
  8
1
  0
POLYLINE
  8
1
 66
1
 70
0
  0
VERTEX
  8
1
 10
24.9105
 20
26.8913
  0
VERTEX
  8
1
 10
24.1435
 20
27.5001
  0
VERTEX
  8
1
 10
23.2163
 20
28.3704
  0
VERTEX
  8
1
 10
22.1584
 20
29.4181
  0
VERTEX
  8
1
 10
21.3878
 20
29.9098
  0
VERTEX
  8
1
 10
20.5433
 20
30.1780
  0
VERTEX
  8
1
 10
19.7334
 20
30.2631
  0
VERTEX
  8
1
 10
18.7524
 20
30.2471
  0
VERTEX
  8
1
 10
17.9604
 20
30.0166
  0
VERTEX
  8
1
 10
17.2830
 20
29.5647
  0
VERTEX
  8
1
 10
16.7242
 20
28.6812
  0
VERTEX
  8
1
 10
16.5772
 20
27.7877
  0
VERTEX
  8
1
 10
16.6368
 20
26.5301
  0
VERTEX
  8
1
 10
16.9362
 20
25.0738
  0
VERTEX
  8
1
 10
17.3396
 20
24.0959
  0
SEQEND
  8
1
  0
POLYLINE
  8
1
 66
1
 70
0
  0
VERTEX
  8
1
 10
17.3396
 20
24.0959
  0
VERTEX
  8
1
 10
16.4528
 20
24.0981
  0
VERTEX
  8
1
 10
11.0829
 20
24.8052
  0
VERTEX
  8
1
 10
9.9113
 20
24.8836
  0
VERTEX
  8
1
 10
8.7281
 20
24.5591
  0
VERTEX
  8
1
 10
7.1890
 20
24.2598
  0
VERTEX
  8
1
 10
2.7043
 20
23.5465
  0
VERTEX
  8
1
 10
1.5587
 20
23.4174
  0
SEQEND
  8
1
  0
POLYLINE
  8
1
 66
1
 70
0
  0
VERTEX
  8
1
 10
1.5587
 20
23.4174
  0
VERTEX
  8
1
 10
1.5570
 20
31.4784
  0
SEQEND
  8
1
  0
POLYLINE
  8
1
 66
1
 70
0
  0
VERTEX
  8
1
 10
1.5570
 20
31.4784
  0
VERTEX
  8
1
 10
24.3100
 20
31.4785
  0
SEQEND
  8
1
  0
LINE
  8
7
 10
7.5715
 20
27.1474
 11
16.0164
 21
27.1474
  0
LINE
  8
5
 10
7.5715
 20
27.1474
 11
16.0164
 21
27.1474
  0
POLYLINE
  8
8
 66
1
 70
0
  0
VERTEX
  8
8
 10
2.9362
 20
27.7351
  0
VERTEX
  8
8
 10
2.9362
 20
28.7967
  0
VERTEX
  8
8
 10
6.8563
 20
28.7967
  0
SEQEND
  8
8
  0
LINE
  8
8
 10
9.9113
 20
31.4784
 11
9.9113
 21
24.8836
  0
LINE
  8
8
 10
16.4319
 20
24.0959
 11
16.4319
 21
31.4784
  0
LINE
  8
8
 10
19.7334
 20
30.2631
 11
19.7334
 21
31.4785
  0
LINE
  8
6
 10
1.5570
 20
31.4784
 11
24.3100
 21
31.4785
  0
ENDBLK
  0
BLOCK
  8
0
  2
TANK_SR_BK_32
 70
64
 10
0.0000
 20
0.0000
  0
TEXT
  8
1
 10
13.4303
 20
27.4479
 40
0.250
 50
0.0000
  1
Piece Name: TANK_SR_BK
  7
STANDARD
  0
TEXT
  8
1
 10
13.4303
 20
27.5879
 40
0.250
 50
0.0000
  1
SIZE: 32
  7
STANDARD
  0
POLYLINE
  8
1
 66
1
 70
0
  0
VERTEX
  8
1
 10
24.4281
 20
31.6261
  0
VERTEX
  8
1
 10
24.4285
 20
31.1112
  0
VERTEX
  8
1
 10
24.5331
 20
30.0766
  0
VERTEX
  8
1
 10
24.8192
 20
29.1799
  0
VERTEX
  8
1
 10
25.1703
 20
28.5172
  0
VERTEX
  8
1
 10
25.4808
 20
28.1301
  0
SEQEND
  8
1
  0
POLYLINE
  8
1
 66
1
 70
0
  0
VERTEX
  8
1
 10
25.4808
 20
28.1301
  0
VERTEX
  8
1
 10
25.0881
 20
27.0153
  0
SEQEND
  8
1
  0
POLYLINE
  8
1
 66
1
 70
0
  0
VERTEX
  8
1
 10
25.0881
 20
27.0153
  0
VERTEX
  8
1
 10
24.2920
 20
27.6332
  0
VERTEX
  8
1
 10
23.3282
 20
28.5183
  0
VERTEX
  8
1
 10
22.2278
 20
29.5846
  0
VERTEX
  8
1
 10
21.4313
 20
30.0739
  0
VERTEX
  8
1
 10
20.5630
 20
30.3335
  0
VERTEX
  8
1
 10
19.7531
 20
30.4107
  0
VERTEX
  8
1
 10
18.7721
 20
30.3751
  0
VERTEX
  8
1
 10
17.9684
 20
30.1356
  0
VERTEX
  8
1
 10
17.2827
 20
29.6717
  0
VERTEX
  8
1
 10
16.7203
 20
28.7698
  0
VERTEX
  8
1
 10
16.5667
 20
27.8246
  0
VERTEX
  8
1
 10
16.6324
 20
26.4947
  0
VERTEX
  8
1
 10
16.9520
 20
24.9551
  0
VERTEX
  8
1
 10
17.3593
 20
23.9483
  0
SEQEND
  8
1
  0
POLYLINE
  8
1
 66
1
 70
0
  0
VERTEX
  8
1
 10
17.3593
 20
23.9483
  0
VERTEX
  8
1
 10
16.4655
 20
23.9497
  0
VERTEX
  8
1
 10
11.0528
 20
24.6579
  0
VERTEX
  8
1
 10
9.8719
 20
24.7359
  0
VERTEX
  8
1
 10
8.6688
 20
24.4095
  0
VERTEX
  8
1
 10
7.1043
 20
24.1097
  0
VERTEX
  8
1
 10
2.5458
 20
23.3977
  0
VERTEX
  8
1
 10
1.3815
 20
23.2697
  0
SEQEND
  8
1
  0
POLYLINE
  8
1
 66
1
 70
0
  0
VERTEX
  8
1
 10
1.3815
 20
23.2697
  0
VERTEX
  8
1
 10
1.3798
 20
31.6260
  0
SEQEND
  8
1
  0
POLYLINE
  8
1
 66
1
 70
0
  0
VERTEX
  8
1
 10
1.3798
 20
31.6260
  0
VERTEX
  8
1
 10
24.4281
 20
31.6261
  0
SEQEND
  8
1
  0
LINE
  8
7
 10
7.5912
 20
27.2950
 11
16.0361
 21
27.2950
  0
LINE
  8
5
 10
7.5912
 20
27.2950
 11
16.0361
 21
27.2950
  0
POLYLINE
  8
8
 66
1
 70
0
  0
VERTEX
  8
8
 10
2.9559
 20
27.8827
  0
VERTEX
  8
8
 10
2.9559
 20
28.9443
  0
VERTEX
  8
8
 10
6.8760
 20
28.9443
  0
SEQEND
  8
8
  0
LINE
  8
8
 10
9.8719
 20
31.6260
 11
9.8719
 21
24.7359
  0
LINE
  8
8
 10
16.4516
 20
23.9483
 11
16.4516
 21
31.6260
  0
LINE
  8
8
 10
19.7531
 20
30.4107
 11
19.7531
 21
31.6261
  0
LINE
  8
6
 10
1.3798
 20
31.6260
 11
24.4281
 21
31.6261
  0
ENDBLK
  0
BLOCK
  8
0
  2
TANK_SR_BK_34
 70
64
 10
0.0000
 20
0.0000
  0
TEXT
  8
1
 10
13.4303
 20
27.4479
 40
0.250
 50
0.0000
  1
Piece Name: TANK_SR_BK
  7
STANDARD
  0
TEXT
  8
1
 10
13.4303
 20
27.5879
 40
0.250
 50
0.0000
  1
SIZE: 34
  7
STANDARD
  0
POLYLINE
  8
1
 66
1
 70
0
  0
VERTEX
  8
1
 10
24.5462
 20
31.7738
  0
VERTEX
  8
1
 10
24.5466
 20
31.2589
  0
VERTEX
  8
1
 10
24.6630
 20
30.2110
  0
VERTEX
  8
1
 10
24.9570
 20
29.3158
  0
VERTEX
  8
1
 10
25.3312
 20
28.6434
  0
VERTEX
  8
1
 10
25.6580
 20
28.2530
  0
SEQEND
  8
1
  0
POLYLINE
  8
1
 66
1
 70
0
  0
VERTEX
  8
1
 10
25.6580
 20
28.2530
  0
VERTEX
  8
1
 10
25.2653
 20
27.1382
  0
SEQEND
  8
1
  0
POLYLINE
  8
1
 66
1
 70
0
  0
VERTEX
  8
1
 10
25.2653
 20
27.1382
  0
VERTEX
  8
1
 10
24.4402
 20
27.7655
  0
VERTEX
  8
1
 10
23.4398
 20
28.6659
  0
VERTEX
  8
1
 10
22.2971
 20
29.7512
  0
VERTEX
  8
1
 10
21.4746
 20
30.2382
  0
VERTEX
  8
1
 10
20.5827
 20
30.4891
  0
VERTEX
  8
1
 10
19.7728
 20
30.5584
  0
VERTEX
  8
1
 10
18.7918
 20
30.5032
  0
VERTEX
  8
1
 10
17.9764
 20
30.2547
  0
VERTEX
  8
1
 10
17.2823
 20
29.7788
  0
VERTEX
  8
1
 10
16.7164
 20
28.8585
  0
VERTEX
  8
1
 10
16.5561
 20
27.8615
  0
VERTEX
  8
1
 10
16.6279
 20
26.4594
  0
VERTEX
  8
1
 10
16.9677
 20
24.8366
  0
VERTEX
  8
1
 10
17.3790
 20
23.8008
  0
SEQEND
  8
1
  0
POLYLINE
  8
1
 66
1
 70
0
  0
VERTEX
  8
1
 10
17.3790
 20
23.8008
  0
VERTEX
  8
1
 10
16.4782
 20
23.8015
  0
VERTEX
  8
1
 10
11.0227
 20
24.5106
  0
VERTEX
  8
1
 10
9.8325
 20
24.5883
  0
VERTEX
  8
1
 10
8.6096
 20
24.2600
  0
VERTEX
  8
1
 10
7.0196
 20
23.9598
  0
VERTEX
  8
1
 10
2.3873
 20
23.2489
  0
VERTEX
  8
1
 10
1.2043
 20
23.1221
  0
SEQEND
  8
1
  0
POLYLINE
  8
1
 66
1
 70
0
  0
VERTEX
  8
1
 10
1.2043
 20
23.1221
  0
VERTEX
  8
1
 10
1.2026
 20
31.7737
  0
SEQEND
  8
1
  0
POLYLINE
  8
1
 66
1
 70
0
  0
VERTEX
  8
1
 10
1.2026
 20
31.7737
  0
VERTEX
  8
1
 10
24.5462
 20
31.7738
  0
SEQEND
  8
1
  0
LINE
  8
7
 10
7.6109
 20
27.4427
 11
16.0558
 21
27.4427
  0
LINE
  8
5
 10
7.6109
 20
27.4427
 11
16.0558
 21
27.4427
  0
POLYLINE
  8
8
 66
1
 70
0
  0
VERTEX
  8
8
 10
2.9756
 20
28.0304
  0
VERTEX
  8
8
 10
2.9756
 20
29.0920
  0
VERTEX
  8
8
 10
6.8957
 20
29.0920
  0
SEQEND
  8
8
  0
LINE
  8
8
 10
9.8325
 20
31.7737
 11
9.8325
 21
24.5883
  0
LINE
  8
8
 10
16.4713
 20
23.8008
 11
16.4713
 21
31.7737
  0
LINE
  8
8
 10
19.7728
 20
30.5584
 11
19.7728
 21
31.7738
  0
LINE
  8
6
 10
1.2026
 20
31.7737
 11
24.5462
 21
31.7738
  0
ENDBLK
  0
BLOCK
  8
0
  2
TANK_SR_BK_36
 70
64
 10
0.0000
 20
0.0000
  0
TEXT
  8
1
 10
13.4303
 20
27.4479
 40
0.250
 50
0.0000
  1
Piece Name: TANK_SR_BK
  7
STANDARD
  0
TEXT
  8
1
 10
13.4303
 20
27.5879
 40
0.250
 50
0.0000
  1
Quantity: 1
  7
STANDARD
  0
TEXT
  8
1
 10
13.4303
 20
27.7279
 40
0.250
 50
0.0000
  1
ANNOTATION: 1X FABRIC
  7
STANDARD
  0
TEXT
  8
1
 10
13.4303
 20
27.8679
 40
0.250
 50
0.0000
  1
CATEGORY: BACK
  7
STANDARD
  0
TEXT
  8
1
 10
13.4303
 20
28.0079
 40
0.250
 50
0.0000
  1
SIZE: 36
  7
STANDARD
  0
POLYLINE
  8
1
 66
1
 70
0
  0
VERTEX
  8
1
 10
24.6643
 20
31.9214
  0
VERTEX
  8
1
 10
24.6647
 20
31.4065
  0
VERTEX
  8
1
 10
24.7929
 20
30.3453
  0
VERTEX
  8
1
 10
25.0909
 20
29.4516
  0
VERTEX
  8
1
 10
25.4907
 20
28.7695
  0
VERTEX
  8
1
 10
25.8352
 20
28.3758
  0
SEQEND
  8
1
  0
POINT
  8
4
 10
24.6643
 20
31.9214
 30
0.1574
 39
0.0000
  0
POINT
  8
2
 10
24.6643
 20
31.9214
  0
TEXT
  8
2
 10
24.6643
 20
31.9214
 40
0.250
 50
0.0000
  1
# 80
  7
STANDARD
  0
POINT
  8
3
 10
24.6647
 20
31.4065
  0
TEXT
  8
3
 10
24.6647
 20
31.4065
 40
0.250
 50
0.0000
  1
# 1
  7
STANDARD
  0
POINT
  8
3
 10
24.7929
 20
30.3453
  0
TEXT
  8
3
 10
24.7929
 20
30.3453
 40
0.250
 50
0.0000
  1
# 2
  7
STANDARD
  0
POINT
  8
3
 10
25.0909
 20
29.4516
  0
TEXT
  8
3
 10
25.0909
 20
29.4516
 40
0.250
 50
0.0000
  1
# 3
  7
STANDARD
  0
POINT
  8
3
 10
25.4907
 20
28.7695
  0
POINT
  8
2
 10
25.8352
 20
28.3758
  0
TEXT
  8
2
 10
25.8352
 20
28.3758
 40
0.250
 50
0.0000
  1
# 4
  7
STANDARD
  0
POLYLINE
  8
1
 66
1
 70
0
  0
VERTEX
  8
1
 10
25.8352
 20
28.3758
  0
VERTEX
  8
1
 10
25.4424
 20
27.2610
  0
SEQEND
  8
1
  0
POINT
  8
2
 10
25.8352
 20
28.3758
  0
TEXT
  8
2
 10
25.8352
 20
28.3758
 40
0.250
 50
0.0000
  1
# 4
  7
STANDARD
  0
POINT
  8
2
 10
25.4424
 20
27.2610
  0
TEXT
  8
2
 10
25.4424
 20
27.2610
 40
0.250
 50
0.0000
  1
# 5
  7
STANDARD
  0
POLYLINE
  8
1
 66
1
 70
0
  0
VERTEX
  8
1
 10
25.4424
 20
27.2610
  0
VERTEX
  8
1
 10
24.5883
 20
27.8977
  0
VERTEX
  8
1
 10
23.5514
 20
28.8133
  0
VERTEX
  8
1
 10
22.3664
 20
29.9175
  0
VERTEX
  8
1
 10
21.5181
 20
30.4023
  0
VERTEX
  8
1
 10
20.6024
 20
30.6446
  0
VERTEX
  8
1
 10
19.7925
 20
30.7060
  0
VERTEX
  8
1
 10
18.8115
 20
30.6312
  0
VERTEX
  8
1
 10
17.9844
 20
30.3737
  0
VERTEX
  8
1
 10
17.2820
 20
29.8859
  0
VERTEX
  8
1
 10
16.7125
 20
28.9471
  0
VERTEX
  8
1
 10
16.5457
 20
27.8984
  0
VERTEX
  8
1
 10
16.6235
 20
26.4239
  0
VERTEX
  8
1
 10
16.9836
 20
24.7178
  0
VERTEX
  8
1
 10
17.3987
 20
23.6532
  0
SEQEND
  8
1
  0
POINT
  8
2
 10
25.4424
 20
27.2610
  0
TEXT
  8
2
 10
25.4424
 20
27.2610
 40
0.250
 50
0.0000
  1
# 5
  7
STANDARD
  0
POINT
  8
3
 10
24.5883
 20
27.8977
  0
POINT
  8
3
 10
23.5514
 20
28.8133
  0
POINT
  8
3
 10
22.3664
 20
29.9175
  0
TEXT
  8
3
 10
22.3664
 20
29.9175
 40
0.250
 50
0.0000
  1
# 6
  7
STANDARD
  0
POINT
  8
3
 10
21.5181
 20
30.4023
  0
POINT
  8
3
 10
20.6024
 20
30.6446
  0
TEXT
  8
3
 10
20.6024
 20
30.6446
 40
0.250
 50
0.0000
  1
# 7
  7
STANDARD
  0
POINT
  8
2
 10
19.7925
 20
30.7060
  0
TEXT
  8
2
 10
19.7925
 20
30.7060
 40
0.250
 50
0.0000
  1
# 8
  7
STANDARD
  0
POINT
  8
3
 10
18.8115
 20
30.6312
  0
TEXT
  8
3
 10
18.8115
 20
30.6312
 40
0.250
 50
0.0000
  1
# 9
  7
STANDARD
  0
POINT
  8
3
 10
17.9844
 20
30.3737
  0
POINT
  8
3
 10
17.2820
 20
29.8859
  0
POINT
  8
3
 10
16.7125
 20
28.9471
  0
TEXT
  8
3
 10
16.7125
 20
28.9471
 40
0.250
 50
0.0000
  1
# 10
  7
STANDARD
  0
POINT
  8
3
 10
16.5457
 20
27.8984
  0
POINT
  8
3
 10
16.6235
 20
26.4239
  0
POINT
  8
3
 10
16.9836
 20
24.7178
  0
TEXT
  8
3
 10
16.9836
 20
24.7178
 40
0.250
 50
0.0000
  1
# 11
  7
STANDARD
  0
POINT
  8
2
 10
17.3987
 20
23.6532
  0
TEXT
  8
2
 10
17.3987
 20
23.6532
 40
0.250
 50
0.0000
  1
# 12
  7
STANDARD
  0
POLYLINE
  8
1
 66
1
 70
0
  0
VERTEX
  8
1
 10
17.3987
 20
23.6532
  0
VERTEX
  8
1
 10
16.4910
 20
23.6532
  0
VERTEX
  8
1
 10
10.9926
 20
24.3634
  0
VERTEX
  8
1
 10
9.7931
 20
24.4406
  0
VERTEX
  8
1
 10
8.5504
 20
24.1105
  0
VERTEX
  8
1
 10
6.9349
 20
23.8098
  0
VERTEX
  8
1
 10
2.2288
 20
23.1001
  0
VERTEX
  8
1
 10
1.0271
 20
22.9744
  0
SEQEND
  8
1
  0
POINT
  8
2
 10
17.3987
 20
23.6532
  0
TEXT
  8
2
 10
17.3987
 20
23.6532
 40
0.250
 50
0.0000
  1
# 12
  7
STANDARD
  0
POINT
  8
2
 10
16.4910
 20
23.6532
  0
POINT
  8
3
 10
10.9926
 20
24.3634
  0
POINT
  8
4
 10
9.7931
 20
24.4406
 30
0.1574
 39
0.0000
  0
POINT
  8
2
 10
9.7931
 20
24.4406
  0
TEXT
  8
2
 10
9.7931
 20
24.4406
 40
0.250
 50
0.0000
  1
# 13
  7
STANDARD
  0
POINT
  8
3
 10
8.5504
 20
24.1105
  0
POINT
  8
3
 10
6.9349
 20
23.8098
  0
POINT
  8
3
 10
2.2288
 20
23.1001
  0
POINT
  8
2
 10
1.0271
 20
22.9744
  0
TEXT
  8
2
 10
1.0271
 20
22.9744
 40
0.250
 50
0.0000
  1
# 15
  7
STANDARD
  0
POLYLINE
  8
1
 66
1
 70
0
  0
VERTEX
  8
1
 10
1.0271
 20
22.9744
  0
VERTEX
  8
1
 10
1.0254
 20
31.9213
  0
SEQEND
  8
1
  0
POINT
  8
2
 10
1.0271
 20
22.9744
  0
TEXT
  8
2
 10
1.0271
 20
22.9744
 40
0.250
 50
0.0000
  1
# 15
  7
STANDARD
  0
POINT
  8
4
 10
1.0254
 20
31.9213
 30
0.1574
 39
0.0000
  0
POINT
  8
2
 10
1.0254
 20
31.9213
  0
TEXT
  8
2
 10
1.0254
 20
31.9213
 40
0.250
 50
0.0000
  1
# 14
  7
STANDARD
  0
POLYLINE
  8
1
 66
1
 70
0
  0
VERTEX
  8
1
 10
1.0254
 20
31.9213
  0
VERTEX
  8
1
 10
24.6643
 20
31.9214
  0
SEQEND
  8
1
  0
POINT
  8
4
 10
1.0254
 20
31.9213
 30
0.1574
 39
0.0000
  0
POINT
  8
2
 10
1.0254
 20
31.9213
  0
TEXT
  8
2
 10
1.0254
 20
31.9213
 40
0.250
 50
0.0000
  1
# 14
  7
STANDARD
  0
LINE
  8
7
 10
7.6306
 20
27.5903
 11
16.0755
 21
27.5903
  0
LINE
  8
5
 10
7.6306
 20
27.5903
 11
16.0755
 21
27.5903
  0
POINT
  8
2
 10
7.6306
 20
27.5903
  0
POINT
  8
2
 10
16.0755
 20
27.5903
  0
POLYLINE
  8
8
 66
1
 70
0
  0
VERTEX
  8
8
 10
2.9953
 20
28.1780
  0
VERTEX
  8
8
 10
2.9953
 20
29.2396
  0
VERTEX
  8
8
 10
6.9154
 20
29.2396
  0
SEQEND
  8
8
  0
TEXT
  8
8
 10
2.9953
 20
28.1780
 40
0.250
 50
0.0000
  1
B
  7
STANDARD
  0
POINT
  8
2
 10
2.9953
 20
28.1780
  0
POINT
  8
2
 10
2.9953
 20
29.2396
  0
POINT
  8
2
 10
6.9154
 20
29.2396
  0
LINE
  8
8
 10
9.7931
 20
31.9213
 11
9.7931
 21
24.4406
  0
TEXT
  8
8
 10
9.7931
 20
31.9213
 40
0.250
 50
0.0000
  1
NM
  7
STANDARD
  0
POINT
  8
2
 10
9.7931
 20
31.9213
  0
TEXT
  8
2
 10
9.7931
 20
31.9213
 40
0.250
 50
0.0000
  1
# 16
  7
STANDARD
  0
POINT
  8
2
 10
9.7931
 20
24.4406
  0
TEXT
  8
2
 10
9.7931
 20
24.4406
 40
0.250
 50
0.0000
  1
# 13
  7
STANDARD
  0
LINE
  8
8
 10
16.4910
 20
23.6532
 11
16.4910
 21
31.9213
  0
TEXT
  8
8
 10
16.4910
 20
23.6532
 40
0.250
 50
0.0000
  1
NM
  7
STANDARD
  0
POINT
  8
2
 10
16.4910
 20
23.6532
  0
TEXT
  8
2
 10
16.4910
 20
23.6532
 40
0.250
 50
0.0000
  1
# 12
  7
STANDARD
  0
POINT
  8
2
 10
16.4910
 20
31.9213
  0
TEXT
  8
2
 10
16.4910
 20
31.9213
 40
0.250
 50
0.0000
  1
# 17
  7
STANDARD
  0
LINE
  8
8
 10
19.7925
 20
30.7060
 11
19.7925
 21
31.9214
  0
TEXT
  8
8
 10
19.7925
 20
30.7060
 40
0.250
 50
0.0000
  1
NM
  7
STANDARD
  0
POINT
  8
2
 10
19.7925
 20
30.7060
  0
TEXT
  8
2
 10
19.7925
 20
30.7060
 40
0.250
 50
0.0000
  1
# 8
  7
STANDARD
  0
POINT
  8
2
 10
19.7925
 20
31.9214
  0
TEXT
  8
2
 10
19.7925
 20
31.9214
 40
0.250
 50
0.0000
  1
# 17
  7
STANDARD
  0
LINE
  8
6
 10
1.0254
 20
31.9213
 11
24.6643
 21
31.9214
  0
ENDBLK
  0
BLOCK
  8
0
  2
TANK_SR_BK_38
 70
64
 10
0.0000
 20
0.0000
  0
TEXT
  8
1
 10
13.4303
 20
27.4479
 40
0.250
 50
0.0000
  1
Piece Name: TANK_SR_BK
  7
STANDARD
  0
TEXT
  8
1
 10
13.4303
 20
27.5879
 40
0.250
 50
0.0000
  1
SIZE: 38
  7
STANDARD
  0
POLYLINE
  8
1
 66
1
 70
0
  0
VERTEX
  8
1
 10
24.7824
 20
32.0691
  0
VERTEX
  8
1
 10
24.7828
 20
31.5542
  0
VERTEX
  8
1
 10
24.9129
 20
30.4763
  0
VERTEX
  8
1
 10
25.2248
 20
29.5875
  0
VERTEX
  8
1
 10
25.6501
 20
28.8956
  0
VERTEX
  8
1
 10
26.0124
 20
28.4987
  0
SEQEND
  8
1
  0
POLYLINE
  8
1
 66
1
 70
0
  0
VERTEX
  8
1
 10
26.0124
 20
28.4987
  0
VERTEX
  8
1
 10
25.6197
 20
27.3839
  0
SEQEND
  8
1
  0
POLYLINE
  8
1
 66
1
 70
0
  0
VERTEX
  8
1
 10
25.6197
 20
27.3839
  0
VERTEX
  8
1
 10
24.7365
 20
28.0297
  0
VERTEX
  8
1
 10
23.6629
 20
28.9603
  0
VERTEX
  8
1
 10
22.4355
 20
30.0833
  0
VERTEX
  8
1
 10
21.5609
 20
30.5621
  0
VERTEX
  8
1
 10
20.6221
 20
30.7923
  0
VERTEX
  8
1
 10
19.8122
 20
30.8537
  0
VERTEX
  8
1
 10
18.8194
 20
30.7789
  0
VERTEX
  8
1
 10
17.9935
 20
30.5141
  0
VERTEX
  8
1
 10
17.2944
 20
30.0198
  0
VERTEX
  8
1
 10
16.7322
 20
29.0752
  0
VERTEX
  8
1
 10
16.5508
 20
27.9664
  0
VERTEX
  8
1
 10
16.6262
 20
26.4060
  0
VERTEX
  8
1
 10
16.9993
 20
24.5993
  0
VERTEX
  8
1
 10
17.4184
 20
23.5057
  0
SEQEND
  8
1
  0
POLYLINE
  8
1
 66
1
 70
0
  0
VERTEX
  8
1
 10
17.4184
 20
23.5057
  0
VERTEX
  8
1
 10
16.5037
 20
23.5049
  0
VERTEX
  8
1
 10
10.9624
 20
24.2161
  0
VERTEX
  8
1
 10
9.7537
 20
24.2930
  0
VERTEX
  8
1
 10
8.4911
 20
23.9610
  0
VERTEX
  8
1
 10
6.8501
 20
23.6598
  0
VERTEX
  8
1
 10
2.0702
 20
22.9513
  0
VERTEX
  8
1
 10
0.8499
 20
22.8268
  0
SEQEND
  8
1
  0
POLYLINE
  8
1
 66
1
 70
0
  0
VERTEX
  8
1
 10
0.8499
 20
22.8268
  0
VERTEX
  8
1
 10
0.8482
 20
32.0690
  0
SEQEND
  8
1
  0
POLYLINE
  8
1
 66
1
 70
0
  0
VERTEX
  8
1
 10
0.8482
 20
32.0690
  0
VERTEX
  8
1
 10
24.7824
 20
32.0691
  0
SEQEND
  8
1
  0
LINE
  8
7
 10
7.6503
 20
27.7380
 11
16.0952
 21
27.7380
  0
LINE
  8
5
 10
7.6503
 20
27.7380
 11
16.0952
 21
27.7380
  0
POLYLINE
  8
8
 66
1
 70
0
  0
VERTEX
  8
8
 10
3.0150
 20
28.3257
  0
VERTEX
  8
8
 10
3.0150
 20
29.3873
  0
VERTEX
  8
8
 10
6.9351
 20
29.3873
  0
SEQEND
  8
8
  0
LINE
  8
8
 10
9.7537
 20
32.0690
 11
9.7537
 21
24.2930
  0
LINE
  8
8
 10
16.5107
 20
23.5057
 11
16.5107
 21
32.0690
  0
LINE
  8
8
 10
19.8122
 20
30.8537
 11
19.8122
 21
32.0691
  0
LINE
  8
6
 10
0.8482
 20
32.0690
 11
24.7824
 21
32.0691
  0
ENDBLK
  0
BLOCK
  8
0
  2
TANK_SR_BK_40
 70
64
 10
0.0000
 20
0.0000
  0
TEXT
  8
1
 10
13.4303
 20
27.4479
 40
0.250
 50
0.0000
  1
Piece Name: TANK_SR_BK
  7
STANDARD
  0
TEXT
  8
1
 10
13.4303
 20
27.5879
 40
0.250
 50
0.0000
  1
SIZE: 40
  7
STANDARD
  0
POLYLINE
  8
1
 66
1
 70
0
  0
VERTEX
  8
1
 10
24.9005
 20
32.2167
  0
VERTEX
  8
1
 10
24.9009
 20
31.7018
  0
VERTEX
  8
1
 10
25.0329
 20
30.6072
  0
VERTEX
  8
1
 10
25.3587
 20
29.7233
  0
VERTEX
  8
1
 10
25.8095
 20
29.0216
  0
VERTEX
  8
1
 10
26.1896
 20
28.6215
  0
SEQEND
  8
1
  0
POLYLINE
  8
1
 66
1
 70
0
  0
VERTEX
  8
1
 10
26.1896
 20
28.6215
  0
VERTEX
  8
1
 10
25.7969
 20
27.5067
  0
SEQEND
  8
1
  0
POLYLINE
  8
1
 66
1
 70
0
  0
VERTEX
  8
1
 10
25.7969
 20
27.5067
  0
VERTEX
  8
1
 10
24.8846
 20
28.1617
  0
VERTEX
  8
1
 10
23.7744
 20
29.1073
  0
VERTEX
  8
1
 10
22.5046
 20
30.2490
  0
VERTEX
  8
1
 10
21.6037
 20
30.7218
  0
VERTEX
  8
1
 10
20.6418
 20
30.9399
  0
VERTEX
  8
1
 10
19.8319
 20
31.0013
  0
VERTEX
  8
1
 10
18.8273
 20
30.9265
  0
VERTEX
  8
1
 10
18.0026
 20
30.6544
  0
VERTEX
  8
1
 10
17.3068
 20
30.1537
  0
VERTEX
  8
1
 10
16.7519
 20
29.2032
  0
VERTEX
  8
1
 10
16.5559
 20
28.0343
  0
VERTEX
  8
1
 10
16.6290
 20
26.3880
  0
VERTEX
  8
1
 10
17.0151
 20
24.4806
  0
VERTEX
  8
1
 10
17.4381
 20
23.3581
  0
SEQEND
  8
1
  0
POLYLINE
  8
1
 66
1
 70
0
  0
VERTEX
  8
1
 10
17.4381
 20
23.3581
  0
VERTEX
  8
1
 10
16.5164
 20
23.3566
  0
VERTEX
  8
1
 10
10.9323
 20
24.0688
  0
VERTEX
  8
1
 10
9.7143
 20
24.1453
  0
VERTEX
  8
1
 10
8.4319
 20
23.8114
  0
VERTEX
  8
1
 10
6.7654
 20
23.5098
  0
VERTEX
  8
1
 10
1.9117
 20
22.8024
  0
VERTEX
  8
1
 10
0.6727
 20
22.6791
  0
SEQEND
  8
1
  0
POLYLINE
  8
1
 66
1
 70
0
  0
VERTEX
  8
1
 10
0.6727
 20
22.6791
  0
VERTEX
  8
1
 10
0.6710
 20
32.2166
  0
SEQEND
  8
1
  0
POLYLINE
  8
1
 66
1
 70
0
  0
VERTEX
  8
1
 10
0.6710
 20
32.2166
  0
VERTEX
  8
1
 10
24.9005
 20
32.2167
  0
SEQEND
  8
1
  0
LINE
  8
7
 10
7.6700
 20
27.8856
 11
16.1149
 21
27.8856
  0
LINE
  8
5
 10
7.6700
 20
27.8856
 11
16.1149
 21
27.8856
  0
POLYLINE
  8
8
 66
1
 70
0
  0
VERTEX
  8
8
 10
3.0347
 20
28.4733
  0
VERTEX
  8
8
 10
3.0347
 20
29.5349
  0
VERTEX
  8
8
 10
6.9548
 20
29.5349
  0
SEQEND
  8
8
  0
LINE
  8
8
 10
9.7143
 20
32.2166
 11
9.7143
 21
24.1453
  0
LINE
  8
8
 10
16.5304
 20
23.3581
 11
16.5304
 21
32.2166
  0
LINE
  8
8
 10
19.8319
 20
31.0013
 11
19.8319
 21
32.2167
  0
LINE
  8
6
 10
0.6710
 20
32.2166
 11
24.9005
 21
32.2167
  0
ENDBLK
  0
BLOCK
  8
0
  2
TANK_SR_BK_42
 70
64
 10
0.0000
 20
0.0000
  0
TEXT
  8
1
 10
13.4303
 20
27.4479
 40
0.250
 50
0.0000
  1
Piece Name: TANK_SR_BK
  7
STANDARD
  0
TEXT
  8
1
 10
13.4303
 20
27.5879
 40
0.250
 50
0.0000
  1
SIZE: 42
  7
STANDARD
  0
POLYLINE
  8
1
 66
1
 70
0
  0
VERTEX
  8
1
 10
25.0186
 20
32.3890
  0
VERTEX
  8
1
 10
25.0190
 20
31.8741
  0
VERTEX
  8
1
 10
25.1529
 20
30.7628
  0
VERTEX
  8
1
 10
25.4926
 20
29.8838
  0
VERTEX
  8
1
 10
25.9689
 20
29.1723
  0
VERTEX
  8
1
 10
26.3668
 20
28.7690
  0
SEQEND
  8
1
  0
POLYLINE
  8
1
 66
1
 70
0
  0
VERTEX
  8
1
 10
26.3668
 20
28.7690
  0
VERTEX
  8
1
 10
25.9741
 20
27.6542
  0
SEQEND
  8
1
  0
POLYLINE
  8
1
 66
1
 70
0
  0
VERTEX
  8
1
 10
25.9741
 20
27.6542
  0
VERTEX
  8
1
 10
25.0329
 20
28.3167
  0
VERTEX
  8
1
 10
23.8861
 20
29.2751
  0
VERTEX
  8
1
 10
22.5738
 20
30.4329
  0
VERTEX
  8
1
 10
21.6470
 20
30.9031
  0
VERTEX
  8
1
 10
20.6615
 20
31.1122
  0
VERTEX
  8
1
 10
19.8516
 20
31.1736
  0
VERTEX
  8
1
 10
18.8352
 20
31.0988
  0
VERTEX
  8
1
 10
18.0059
 20
30.8047
  0
VERTEX
  8
1
 10
17.3124
 20
30.2819
  0
VERTEX
  8
1
 10
16.7716
 20
29.3067
  0
VERTEX
  8
1
 10
16.5611
 20
28.0790
  0
VERTEX
  8
1
 10
16.6316
 20
26.3484
  0
VERTEX
  8
1
 10
17.0300
 20
24.3423
  0
VERTEX
  8
1
 10
17.4578
 20
23.1860
  0
SEQEND
  8
1
  0
POLYLINE
  8
1
 66
1
 70
0
  0
VERTEX
  8
1
 10
17.4578
 20
23.1860
  0
VERTEX
  8
1
 10
16.5198
 20
23.1828
  0
VERTEX
  8
1
 10
10.8359
 20
23.8975
  0
VERTEX
  8
1
 10
9.5962
 20
23.9731
  0
VERTEX
  8
1
 10
8.3052
 20
23.6384
  0
VERTEX
  8
1
 10
6.6279
 20
23.3366
  0
VERTEX
  8
1
 10
1.7426
 20
22.6298
  0
VERTEX
  8
1
 10
0.4955
 20
22.5069
  0
SEQEND
  8
1
  0
POLYLINE
  8
1
 66
1
 70
0
  0
VERTEX
  8
1
 10
0.4955
 20
22.5069
  0
VERTEX
  8
1
 10
0.4938
 20
32.3889
  0
SEQEND
  8
1
  0
POLYLINE
  8
1
 66
1
 70
0
  0
VERTEX
  8
1
 10
0.4938
 20
32.3889
  0
VERTEX
  8
1
 10
25.0186
 20
32.3890
  0
SEQEND
  8
1
  0
LINE
  8
7
 10
7.6897
 20
28.0579
 11
16.1346
 21
28.0579
  0
LINE
  8
5
 10
7.6897
 20
28.0579
 11
16.1346
 21
28.0579
  0
POLYLINE
  8
8
 66
1
 70
0
  0
VERTEX
  8
8
 10
3.0544
 20
28.6456
  0
VERTEX
  8
8
 10
3.0544
 20
29.7072
  0
VERTEX
  8
8
 10
6.9745
 20
29.7072
  0
SEQEND
  8
8
  0
LINE
  8
8
 10
9.5962
 20
32.3889
 11
9.5962
 21
23.9731
  0
LINE
  8
8
 10
16.5501
 20
23.1860
 11
16.5501
 21
32.3889
  0
LINE
  8
8
 10
19.8516
 20
31.1736
 11
19.8516
 21
32.3890
  0
LINE
  8
6
 10
0.4938
 20
32.3889
 11
25.0186
 21
32.3890
  0
ENDBLK
  0
BLOCK
  8
0
  2
TANK_SR_BK_44
 70
64
 10
0.0000
 20
0.0000
  0
TEXT
  8
1
 10
13.4303
 20
27.4479
 40
0.250
 50
0.0000
  1
Piece Name: TANK_SR_BK
  7
STANDARD
  0
TEXT
  8
1
 10
13.4303
 20
27.5879
 40
0.250
 50
0.0000
  1
SIZE: 44
  7
STANDARD
  0
POLYLINE
  8
1
 66
1
 70
0
  0
VERTEX
  8
1
 10
25.1367
 20
32.5612
  0
VERTEX
  8
1
 10
25.1371
 20
32.0463
  0
VERTEX
  8
1
 10
25.2729
 20
30.9183
  0
VERTEX
  8
1
 10
25.6265
 20
30.0442
  0
VERTEX
  8
1
 10
26.1283
 20
29.3229
  0
VERTEX
  8
1
 10
26.5440
 20
28.9164
  0
SEQEND
  8
1
  0
POLYLINE
  8
1
 66
1
 70
0
  0
VERTEX
  8
1
 10
26.5440
 20
28.9164
  0
VERTEX
  8
1
 10
26.1513
 20
27.8016
  0
SEQEND
  8
1
  0
POLYLINE
  8
1
 66
1
 70
0
  0
VERTEX
  8
1
 10
26.1513
 20
27.8016
  0
VERTEX
  8
1
 10
25.1812
 20
28.4716
  0
VERTEX
  8
1
 10
23.9978
 20
29.4427
  0
VERTEX
  8
1
 10
22.6431
 20
30.6166
  0
VERTEX
  8
1
 10
21.6904
 20
31.0842
  0
VERTEX
  8
1
 10
20.6812
 20
31.2844
  0
VERTEX
  8
1
 10
19.8713
 20
31.3458
  0
VERTEX
  8
1
 10
18.8431
 20
31.2631
  0
VERTEX
  8
1
 10
18.0102
 20
30.9494
  0
VERTEX
  8
1
 10
17.3191
 20
30.4070
  0
VERTEX
  8
1
 10
16.7913
 20
29.4101
  0
VERTEX
  8
1
 10
16.5663
 20
28.1235
  0
VERTEX
  8
1
 10
16.6341
 20
26.3087
  0
VERTEX
  8
1
 10
17.0448
 20
24.2038
  0
VERTEX
  8
1
 10
17.4775
 20
23.0138
  0
SEQEND
  8
1
  0
POLYLINE
  8
1
 66
1
 70
0
  0
VERTEX
  8
1
 10
17.4775
 20
23.0138
  0
VERTEX
  8
1
 10
16.5233
 20
23.0089
  0
VERTEX
  8
1
 10
10.7394
 20
23.7260
  0
VERTEX
  8
1
 10
9.4781
 20
23.8008
  0
VERTEX
  8
1
 10
8.1786
 20
23.4653
  0
VERTEX
  8
1
 10
6.4903
 20
23.1633
  0
VERTEX
  8
1
 10
1.5734
 20
22.4570
  0
VERTEX
  8
1
 10
0.3183
 20
22.3346
  0
SEQEND
  8
1
  0
POLYLINE
  8
1
 66
1
 70
0
  0
VERTEX
  8
1
 10
0.3183
 20
22.3346
  0
VERTEX
  8
1
 10
0.3166
 20
32.5611
  0
SEQEND
  8
1
  0
POLYLINE
  8
1
 66
1
 70
0
  0
VERTEX
  8
1
 10
0.3166
 20
32.5611
  0
VERTEX
  8
1
 10
25.1367
 20
32.5612
  0
SEQEND
  8
1
  0
LINE
  8
7
 10
7.7094
 20
28.2301
 11
16.1543
 21
28.2301
  0
LINE
  8
5
 10
7.7094
 20
28.2301
 11
16.1543
 21
28.2301
  0
POLYLINE
  8
8
 66
1
 70
0
  0
VERTEX
  8
8
 10
3.0741
 20
28.8178
  0
VERTEX
  8
8
 10
3.0741
 20
29.8794
  0
VERTEX
  8
8
 10
6.9942
 20
29.8794
  0
SEQEND
  8
8
  0
LINE
  8
8
 10
9.4781
 20
32.5611
 11
9.4781
 21
23.8008
  0
LINE
  8
8
 10
16.5698
 20
23.0138
 11
16.5698
 21
32.5611
  0
LINE
  8
8
 10
19.8713
 20
31.3458
 11
19.8713
 21
32.5612
  0
LINE
  8
6
 10
0.3166
 20
32.5611
 11
25.1367
 21
32.5612
  0
ENDBLK
  0
BLOCK
  8
0
  2
TANK_SR_BK_46
 70
64
 10
0.0000
 20
0.0000
  0
TEXT
  8
1
 10
13.4303
 20
27.4479
 40
0.250
 50
0.0000
  1
Piece Name: TANK_SR_BK
  7
STANDARD
  0
TEXT
  8
1
 10
13.4303
 20
27.5879
 40
0.250
 50
0.0000
  1
SIZE: 46
  7
STANDARD
  0
POLYLINE
  8
1
 66
1
 70
0
  0
VERTEX
  8
1
 10
25.2548
 20
32.7581
  0
VERTEX
  8
1
 10
25.2552
 20
32.2432
  0
VERTEX
  8
1
 10
25.3929
 20
31.0985
  0
VERTEX
  8
1
 10
25.7604
 20
30.2293
  0
VERTEX
  8
1
 10
26.2877
 20
29.4982
  0
VERTEX
  8
1
 10
26.7212
 20
29.0885
  0
SEQEND
  8
1
  0
POLYLINE
  8
1
 66
1
 70
0
  0
VERTEX
  8
1
 10
26.7212
 20
29.0885
  0
VERTEX
  8
1
 10
26.3160
 20
27.7842
  0
SEQEND
  8
1
  0
POLYLINE
  8
1
 66
1
 70
0
  0
VERTEX
  8
1
 10
26.3160
 20
27.7842
  0
VERTEX
  8
1
 10
25.2983
 20
28.4586
  0
VERTEX
  8
1
 10
24.0539
 20
29.4406
  0
VERTEX
  8
1
 10
22.6281
 20
30.6290
  0
VERTEX
  8
1
 10
21.6935
 20
31.0980
  0
VERTEX
  8
1
 10
20.7009
 20
31.3041
  0
VERTEX
  8
1
 10
19.8910
 20
31.3458
  0
VERTEX
  8
1
 10
18.8510
 20
31.2631
  0
VERTEX
  8
1
 10
18.0356
 20
30.9834
  0
VERTEX
  8
1
 10
17.3507
 20
30.4782
  0
VERTEX
  8
1
 10
16.8110
 20
29.5283
  0
VERTEX
  8
1
 10
16.5690
 20
28.1696
  0
VERTEX
  8
1
 10
16.6347
 20
26.2518
  0
VERTEX
  8
1
 10
17.0616
 20
24.0263
  0
VERTEX
  8
1
 10
17.4972
 20
22.8170
  0
SEQEND
  8
1
  0
POLYLINE
  8
1
 66
1
 70
0
  0
VERTEX
  8
1
 10
17.4972
 20
22.8170
  0
VERTEX
  8
1
 10
16.5273
 20
22.8046
  0
VERTEX
  8
1
 10
10.6427
 20
23.4886
  0
VERTEX
  8
1
 10
9.3600
 20
23.5548
  0
VERTEX
  8
1
 10
8.0514
 20
23.2256
  0
VERTEX
  8
1
 10
6.3520
 20
22.9325
  0
VERTEX
  8
1
 10
1.4038
 20
22.2530
  0
VERTEX
  8
1
 10
0.1411
 20
22.1378
  0
SEQEND
  8
1
  0
POLYLINE
  8
1
 66
1
 70
0
  0
VERTEX
  8
1
 10
0.1411
 20
22.1378
  0
VERTEX
  8
1
 10
0.1394
 20
32.7580
  0
SEQEND
  8
1
  0
POLYLINE
  8
1
 66
1
 70
0
  0
VERTEX
  8
1
 10
0.1394
 20
32.7580
  0
VERTEX
  8
1
 10
25.2548
 20
32.7581
  0
SEQEND
  8
1
  0
LINE
  8
7
 10
7.7291
 20
28.4270
 11
16.1740
 21
28.4270
  0
LINE
  8
5
 10
7.7291
 20
28.4270
 11
16.1740
 21
28.4270
  0
POLYLINE
  8
8
 66
1
 70
0
  0
VERTEX
  8
8
 10
3.0938
 20
29.0147
  0
VERTEX
  8
8
 10
3.0938
 20
30.0763
  0
VERTEX
  8
8
 10
7.0139
 20
30.0763
  0
SEQEND
  8
8
  0
LINE
  8
8
 10
9.3600
 20
32.7580
 11
9.3600
 21
23.5548
  0
LINE
  8
8
 10
16.5895
 20
22.8170
 11
16.5895
 21
32.7580
  0
LINE
  8
8
 10
19.8910
 20
31.3458
 11
19.8910
 21
32.7581
  0
LINE
  8
6
 10
0.1394
 20
32.7580
 11
25.2548
 21
32.7581
  0
ENDBLK
  0
BLOCK
  8
0
  2
TANK_SR_BK_48
 70
64
 10
0.0000
 20
0.0000
  0
TEXT
  8
1
 10
13.4303
 20
27.4479
 40
0.250
 50
0.0000
  1
Piece Name: TANK_SR_BK
  7
STANDARD
  0
TEXT
  8
1
 10
13.4303
 20
27.5879
 40
0.250
 50
0.0000
  1
SIZE: 48
  7
STANDARD
  0
POLYLINE
  8
1
 66
1
 70
0
  0
VERTEX
  8
1
 10
25.3729
 20
32.9549
  0
VERTEX
  8
1
 10
25.3733
 20
32.4400
  0
VERTEX
  8
1
 10
25.5129
 20
31.2786
  0
VERTEX
  8
1
 10
25.8943
 20
30.4143
  0
VERTEX
  8
1
 10
26.4471
 20
29.6734
  0
VERTEX
  8
1
 10
26.8984
 20
29.2605
  0
SEQEND
  8
1
  0
POLYLINE
  8
1
 66
1
 70
0
  0
VERTEX
  8
1
 10
26.8984
 20
29.2605
  0
VERTEX
  8
1
 10
26.4932
 20
27.9562
  0
SEQEND
  8
1
  0
POLYLINE
  8
1
 66
1
 70
0
  0
VERTEX
  8
1
 10
26.4932
 20
27.9562
  0
VERTEX
  8
1
 10
25.4358
 20
28.6343
  0
VERTEX
  8
1
 10
24.1403
 20
29.6255
  0
VERTEX
  8
1
 10
22.6551
 20
30.8262
  0
VERTEX
  8
1
 10
21.7167
 20
31.2955
  0
VERTEX
  8
1
 10
20.7206
 20
31.5009
  0
VERTEX
  8
1
 10
19.9107
 20
31.5426
  0
VERTEX
  8
1
 10
18.8589
 20
31.4520
  0
VERTEX
  8
1
 10
18.0387
 20
31.1497
  0
VERTEX
  8
1
 10
17.3560
 20
30.6218
  0
VERTEX
  8
1
 10
16.8307
 20
29.6464
  0
VERTEX
  8
1
 10
16.5722
 20
28.2204
  0
VERTEX
  8
1
 10
16.6348
 20
26.2063
  0
VERTEX
  8
1
 10
17.0759
 20
23.8680
  0
VERTEX
  8
1
 10
17.5169
 20
22.6201
  0
SEQEND
  8
1
  0
POLYLINE
  8
1
 66
1
 70
0
  0
VERTEX
  8
1
 10
17.5169
 20
22.6201
  0
VERTEX
  8
1
 10
16.5313
 20
22.6002
  0
VERTEX
  8
1
 10
10.5459
 20
23.2511
  0
VERTEX
  8
1
 10
9.2419
 20
23.3087
  0
VERTEX
  8
1
 10
7.9241
 20
22.9858
  0
VERTEX
  8
1
 10
6.2136
 20
22.7015
  0
VERTEX
  8
1
 10
1.2342
 20
22.0489
  0
VERTEX
  8
1
 10
-0.0361
 20
21.9409
  0
SEQEND
  8
1
  0
POLYLINE
  8
1
 66
1
 70
0
  0
VERTEX
  8
1
 10
-0.0361
 20
21.9409
  0
VERTEX
  8
1
 10
-0.0378
 20
32.9548
  0
SEQEND
  8
1
  0
POLYLINE
  8
1
 66
1
 70
0
  0
VERTEX
  8
1
 10
-0.0378
 20
32.9548
  0
VERTEX
  8
1
 10
25.3729
 20
32.9549
  0
SEQEND
  8
1
  0
LINE
  8
7
 10
7.7488
 20
28.6238
 11
16.1937
 21
28.6238
  0
LINE
  8
5
 10
7.7488
 20
28.6238
 11
16.1937
 21
28.6238
  0
POLYLINE
  8
8
 66
1
 70
0
  0
VERTEX
  8
8
 10
3.1135
 20
29.2115
  0
VERTEX
  8
8
 10
3.1135
 20
30.2731
  0
VERTEX
  8
8
 10
7.0336
 20
30.2731
  0
SEQEND
  8
8
  0
LINE
  8
8
 10
9.2419
 20
32.9548
 11
9.2419
 21
23.3087
  0
LINE
  8
8
 10
16.6092
 20
22.6201
 11
16.6092
 21
32.9548
  0
LINE
  8
8
 10
19.9107
 20
31.5426
 11
19.9107
 21
32.9549
  0
LINE
  8
6
 10
-0.0378
 20
32.9548
 11
25.3729
 21
32.9549
  0
ENDBLK
  0
BLOCK
  8
0
  2
TANK_SR_BK_50
 70
64
 10
0.0000
 20
0.0000
  0
TEXT
  8
1
 10
13.4303
 20
27.4479
 40
0.250
 50
0.0000
  1
Piece Name: TANK_SR_BK
  7
STANDARD
  0
TEXT
  8
1
 10
13.4303
 20
27.5879
 40
0.250
 50
0.0000
  1
SIZE: 50
  7
STANDARD
  0
POLYLINE
  8
1
 66
1
 70
0
  0
VERTEX
  8
1
 10
25.4910
 20
33.1764
  0
VERTEX
  8
1
 10
25.4914
 20
32.6615
  0
VERTEX
  8
1
 10
25.6329
 20
31.4834
  0
VERTEX
  8
1
 10
26.0282
 20
30.6110
  0
VERTEX
  8
1
 10
26.6060
 20
29.8534
  0
VERTEX
  8
1
 10
27.0756
 20
29.4328
  0
SEQEND
  8
1
  0
POLYLINE
  8
1
 66
1
 70
0
  0
VERTEX
  8
1
 10
27.0756
 20
29.4328
  0
VERTEX
  8
1
 10
26.6704
 20
28.1285
  0
SEQEND
  8
1
  0
POLYLINE
  8
1
 66
1
 70
0
  0
VERTEX
  8
1
 10
26.6704
 20
28.1285
  0
VERTEX
  8
1
 10
25.5729
 20
28.8165
  0
VERTEX
  8
1
 10
24.2267
 20
29.8248
  0
VERTEX
  8
1
 10
22.6825
 20
31.0471
  0
VERTEX
  8
1
 10
21.7403
 20
31.5172
  0
VERTEX
  8
1
 10
20.7403
 20
31.7224
  0
VERTEX
  8
1
 10
19.9304
 20
31.7641
  0
VERTEX
  8
1
 10
18.8668
 20
31.6656
  0
VERTEX
  8
1
 10
18.0406
 20
31.3377
  0
VERTEX
  8
1
 10
17.3599
 20
30.7840
  0
VERTEX
  8
1
 10
16.8504
 20
29.7793
  0
VERTEX
  8
1
 10
16.5733
 20
28.2777
  0
VERTEX
  8
1
 10
16.6326
 20
26.1553
  0
VERTEX
  8
1
 10
17.0896
 20
23.6900
  0
VERTEX
  8
1
 10
17.5366
 20
22.3987
  0
SEQEND
  8
1
  0
POLYLINE
  8
1
 66
1
 70
0
  0
VERTEX
  8
1
 10
17.5366
 20
22.3987
  0
VERTEX
  8
1
 10
16.5353
 20
22.3713
  0
VERTEX
  8
1
 10
10.4491
 20
22.9890
  0
VERTEX
  8
1
 10
9.1238
 20
23.0380
  0
VERTEX
  8
1
 10
7.7968
 20
22.7215
  0
VERTEX
  8
1
 10
6.0752
 20
22.4461
  0
VERTEX
  8
1
 10
1.0646
 20
21.8203
  0
VERTEX
  8
1
 10
-0.2133
 20
21.7194
  0
SEQEND
  8
1
  0
POLYLINE
  8
1
 66
1
 70
0
  0
VERTEX
  8
1
 10
-0.2133
 20
21.7194
  0
VERTEX
  8
1
 10
-0.2150
 20
33.1762
  0
SEQEND
  8
1
  0
POLYLINE
  8
1
 66
1
 70
0
  0
VERTEX
  8
1
 10
-0.2150
 20
33.1762
  0
VERTEX
  8
1
 10
25.4910
 20
33.1764
  0
SEQEND
  8
1
  0
LINE
  8
7
 10
7.7685
 20
28.8453
 11
16.2134
 21
28.8453
  0
LINE
  8
5
 10
7.7685
 20
28.8453
 11
16.2134
 21
28.8453
  0
POLYLINE
  8
8
 66
1
 70
0
  0
VERTEX
  8
8
 10
3.1332
 20
29.4330
  0
VERTEX
  8
8
 10
3.1332
 20
30.4946
  0
VERTEX
  8
8
 10
7.0533
 20
30.4946
  0
SEQEND
  8
8
  0
LINE
  8
8
 10
9.1238
 20
33.1762
 11
9.1238
 21
23.0380
  0
LINE
  8
8
 10
16.6289
 20
22.3987
 11
16.6289
 21
33.1762
  0
LINE
  8
8
 10
19.9304
 20
31.7641
 11
19.9304
 21
33.1764
  0
LINE
  8
6
 10
-0.2150
 20
33.1762
 11
25.4910
 21
33.1764
  0
ENDBLK
  0
BLOCK
  8
0
  2
TANK_SR_BK_52
 70
64
 10
0.0000
 20
0.0000
  0
TEXT
  8
1
 10
13.4303
 20
27.4479
 40
0.250
 50
0.0000
  1
Piece Name: TANK_SR_BK
  7
STANDARD
  0
TEXT
  8
1
 10
13.4303
 20
27.5879
 40
0.250
 50
0.0000
  1
SIZE: 52
  7
STANDARD
  0
POLYLINE
  8
1
 66
1
 70
0
  0
VERTEX
  8
1
 10
25.6091
 20
33.3978
  0
VERTEX
  8
1
 10
25.6095
 20
32.8829
  0
VERTEX
  8
1
 10
25.7529
 20
31.6881
  0
VERTEX
  8
1
 10
26.1621
 20
30.8076
  0
VERTEX
  8
1
 10
26.7649
 20
30.0333
  0
VERTEX
  8
1
 10
27.2528
 20
29.6050
  0
SEQEND
  8
1
  0
POLYLINE
  8
1
 66
1
 70
0
  0
VERTEX
  8
1
 10
27.2528
 20
29.6050
  0
VERTEX
  8
1
 10
26.8476
 20
28.3007
  0
SEQEND
  8
1
  0
POLYLINE
  8
1
 66
1
 70
0
  0
VERTEX
  8
1
 10
26.8476
 20
28.3007
  0
VERTEX
  8
1
 10
25.7100
 20
28.9986
  0
VERTEX
  8
1
 10
24.3129
 20
30.0239
  0
VERTEX
  8
1
 10
22.7097
 20
31.2679
  0
VERTEX
  8
1
 10
21.7637
 20
31.7388
  0
VERTEX
  8
1
 10
20.7600
 20
31.9438
  0
VERTEX
  8
1
 10
19.9501
 20
31.9855
  0
VERTEX
  8
1
 10
18.8747
 20
31.8791
  0
VERTEX
  8
1
 10
18.0425
 20
31.5257
  0
VERTEX
  8
1
 10
17.3638
 20
30.9461
  0
VERTEX
  8
1
 10
16.8701
 20
29.9121
  0
VERTEX
  8
1
 10
16.5744
 20
28.3348
  0
VERTEX
  8
1
 10
16.6304
 20
26.1041
  0
VERTEX
  8
1
 10
17.1033
 20
23.5119
  0
VERTEX
  8
1
 10
17.5563
 20
22.1772
  0
SEQEND
  8
1
  0
POLYLINE
  8
1
 66
1
 70
0
  0
VERTEX
  8
1
 10
17.5563
 20
22.1772
  0
VERTEX
  8
1
 10
16.5394
 20
22.1423
  0
VERTEX
  8
1
 10
10.3524
 20
22.7269
  0
VERTEX
  8
1
 10
9.0057
 20
22.7674
  0
VERTEX
  8
1
 10
7.6695
 20
22.4570
  0
VERTEX
  8
1
 10
5.9368
 20
22.1906
  0
VERTEX
  8
1
 10
0.8950
 20
21.5917
  0
VERTEX
  8
1
 10
-0.3905
 20
21.4980
  0
SEQEND
  8
1
  0
POLYLINE
  8
1
 66
1
 70
0
  0
VERTEX
  8
1
 10
-0.3905
 20
21.4980
  0
VERTEX
  8
1
 10
-0.3922
 20
33.3977
  0
SEQEND
  8
1
  0
POLYLINE
  8
1
 66
1
 70
0
  0
VERTEX
  8
1
 10
-0.3922
 20
33.3977
  0
VERTEX
  8
1
 10
25.6091
 20
33.3978
  0
SEQEND
  8
1
  0
LINE
  8
7
 10
7.7882
 20
29.0667
 11
16.2331
 21
29.0667
  0
LINE
  8
5
 10
7.7882
 20
29.0667
 11
16.2331
 21
29.0667
  0
POLYLINE
  8
8
 66
1
 70
0
  0
VERTEX
  8
8
 10
3.1529
 20
29.6544
  0
VERTEX
  8
8
 10
3.1529
 20
30.7160
  0
VERTEX
  8
8
 10
7.0730
 20
30.7160
  0
SEQEND
  8
8
  0
LINE
  8
8
 10
9.0057
 20
33.3977
 11
9.0057
 21
22.7674
  0
LINE
  8
8
 10
16.6486
 20
22.1772
 11
16.6486
 21
33.3977
  0
LINE
  8
8
 10
19.9501
 20
31.9855
 11
19.9501
 21
33.3978
  0
LINE
  8
6
 10
-0.3922
 20
33.3977
 11
25.6091
 21
33.3978
  0
ENDBLK
  0
BLOCK
  8
0
  2
TANK_SR_FR_26
 70
64
 10
0.0000
 20
0.0000
  0
TEXT
  8
1
 10
39.8863
 20
27.2222
 40
0.250
 50
0.0000
  1
Piece Name: TANK_SR_FR
  7
STANDARD
  0
TEXT
  8
1
 10
39.8863
 20
27.3622
 40
0.250
 50
0.0000
  1
SIZE: 26
  7
STANDARD
  0
POLYLINE
  8
1
 66
1
 70
0
  0
VERTEX
  8
1
 10
45.5505
 20
30.9468
  0
VERTEX
  8
1
 10
45.5644
 20
30.4663
  0
VERTEX
  8
1
 10
45.8434
 20
29.5342
  0
VERTEX
  8
1
 10
46.4223
 20
28.7162
  0
VERTEX
  8
1
 10
47.1059
 20
28.2211
  0
VERTEX
  8
1
 10
47.8282
 20
27.8614
  0
VERTEX
  8
1
 10
49.0647
 20
27.4665
  0
VERTEX
  8
1
 10
50.4467
 20
27.1702
  0
VERTEX
  8
1
 10
51.2761
 20
27.0037
  0
SEQEND
  8
1
  0
POLYLINE
  8
1
 66
1
 70
0
  0
VERTEX
  8
1
 10
51.2761
 20
27.0037
  0
VERTEX
  8
1
 10
50.8394
 20
25.9155
  0
SEQEND
  8
1
  0
POLYLINE
  8
1
 66
1
 70
0
  0
VERTEX
  8
1
 10
50.8394
 20
25.9155
  0
VERTEX
  8
1
 10
50.1290
 20
26.0478
  0
VERTEX
  8
1
 10
48.2747
 20
26.2486
  0
VERTEX
  8
1
 10
46.6068
 20
26.0583
  0
VERTEX
  8
1
 10
45.3046
 20
25.5881
  0
VERTEX
  8
1
 10
44.6588
 20
25.0468
  0
VERTEX
  8
1
 10
44.2059
 20
24.3779
  0
VERTEX
  8
1
 10
44.1394
 20
24.5166
  0
VERTEX
  8
1
 10
43.8836
 20
24.1548
  0
SEQEND
  8
1
  0
POLYLINE
  8
1
 66
1
 70
0
  0
VERTEX
  8
1
 10
43.8836
 20
24.1548
  0
VERTEX
  8
1
 10
42.9784
 20
24.1546
  0
VERTEX
  8
1
 10
38.0267
 20
24.8215
  0
VERTEX
  8
1
 10
36.5735
 20
24.9424
  0
VERTEX
  8
1
 10
33.9419
 20
24.3244
  0
VERTEX
  8
1
 10
29.6030
 20
23.6330
  0
VERTEX
  8
1
 10
28.4965
 20
23.4970
  0
SEQEND
  8
1
  0
POLYLINE
  8
1
 66
1
 70
0
  0
VERTEX
  8
1
 10
28.4965
 20
23.4970
  0
VERTEX
  8
1
 10
28.4965
 20
30.9475
  0
SEQEND
  8
1
  0
POLYLINE
  8
1
 66
1
 70
0
  0
VERTEX
  8
1
 10
28.4965
 20
30.9475
  0
VERTEX
  8
1
 10
45.5505
 20
30.9468
  0
SEQEND
  8
1
  0
LINE
  8
7
 10
36.0812
 20
26.6158
 11
42.0145
 21
26.6158
  0
LINE
  8
5
 10
36.0812
 20
26.6158
 11
42.0145
 21
26.6158
  0
POLYLINE
  8
8
 66
1
 70
0
  0
VERTEX
  8
8
 10
29.8814
 20
26.4587
  0
VERTEX
  8
8
 10
29.8814
 20
27.5203
  0
VERTEX
  8
8
 10
34.0514
 20
27.5203
  0
SEQEND
  8
8
  0
LINE
  8
8
 10
36.5735
 20
30.9473
 11
36.5735
 21
24.9424
  0
LINE
  8
8
 10
42.9784
 20
30.9470
 11
42.9784
 21
24.1546
  0
LINE
  8
8
 10
46.2675
 20
27.6197
 11
46.2676
 21
28.9976
  0
LINE
  8
8
 10
46.2676
 20
28.9976
 11
47.1731
 21
28.9978
  0
LINE
  8
8
 10
47.1731
 20
28.9978
 11
47.1731
 21
27.6194
  0
LINE
  8
8
 10
47.1731
 20
27.6194
 11
46.2675
 21
27.6197
  0
LINE
  8
6
 10
28.4965
 20
30.9475
 11
45.5505
 21
30.9468
  0
ENDBLK
  0
BLOCK
  8
0
  2
TANK_SR_FR_28
 70
64
 10
0.0000
 20
0.0000
  0
TEXT
  8
1
 10
39.8863
 20
27.2222
 40
0.250
 50
0.0000
  1
Piece Name: TANK_SR_FR
  7
STANDARD
  0
TEXT
  8
1
 10
39.8863
 20
27.3622
 40
0.250
 50
0.0000
  1
SIZE: 28
  7
STANDARD
  0
POLYLINE
  8
1
 66
1
 70
0
  0
VERTEX
  8
1
 10
45.6686
 20
31.0944
  0
VERTEX
  8
1
 10
45.6825
 20
30.6139
  0
VERTEX
  8
1
 10
45.9620
 20
29.6727
  0
VERTEX
  8
1
 10
46.5444
 20
28.8461
  0
VERTEX
  8
1
 10
47.2550
 20
28.3337
  0
VERTEX
  8
1
 10
48.0054
 20
27.9618
  0
VERTEX
  8
1
 10
49.2424
 20
27.5751
  0
VERTEX
  8
1
 10
50.6242
 20
27.2877
  0
VERTEX
  8
1
 10
51.4533
 20
27.1265
  0
SEQEND
  8
1
  0
POLYLINE
  8
1
 66
1
 70
0
  0
VERTEX
  8
1
 10
51.4533
 20
27.1265
  0
VERTEX
  8
1
 10
51.0158
 20
26.0365
  0
SEQEND
  8
1
  0
POLYLINE
  8
1
 66
1
 70
0
  0
VERTEX
  8
1
 10
51.0158
 20
26.0365
  0
VERTEX
  8
1
 10
50.2996
 20
26.1664
  0
VERTEX
  8
1
 10
48.4310
 20
26.3599
  0
VERTEX
  8
1
 10
46.7518
 20
26.1603
  0
VERTEX
  8
1
 10
45.4424
 20
25.6806
  0
VERTEX
  8
1
 10
44.7429
 20
25.1140
  0
VERTEX
  8
1
 10
44.2470
 20
24.4078
  0
VERTEX
  8
1
 10
44.1373
 20
24.3703
  0
VERTEX
  8
1
 10
43.9033
 20
24.0072
  0
SEQEND
  8
1
  0
POLYLINE
  8
1
 66
1
 70
0
  0
VERTEX
  8
1
 10
43.9033
 20
24.0072
  0
VERTEX
  8
1
 10
42.9981
 20
24.0070
  0
VERTEX
  8
1
 10
38.0007
 20
24.6744
  0
VERTEX
  8
1
 10
36.5341
 20
24.7947
  0
VERTEX
  8
1
 10
33.8572
 20
24.1743
  0
VERTEX
  8
1
 10
29.4445
 20
23.4842
  0
VERTEX
  8
1
 10
28.3193
 20
23.3493
  0
SEQEND
  8
1
  0
POLYLINE
  8
1
 66
1
 70
0
  0
VERTEX
  8
1
 10
28.3193
 20
23.3493
  0
VERTEX
  8
1
 10
28.3193
 20
31.0951
  0
SEQEND
  8
1
  0
POLYLINE
  8
1
 66
1
 70
0
  0
VERTEX
  8
1
 10
28.3193
 20
31.0951
  0
VERTEX
  8
1
 10
45.6686
 20
31.0944
  0
SEQEND
  8
1
  0
LINE
  8
7
 10
36.1009
 20
26.7634
 11
42.0342
 21
26.7634
  0
LINE
  8
5
 10
36.1009
 20
26.7634
 11
42.0342
 21
26.7634
  0
POLYLINE
  8
8
 66
1
 70
0
  0
VERTEX
  8
8
 10
29.9011
 20
26.6063
  0
VERTEX
  8
8
 10
29.9011
 20
27.6679
  0
VERTEX
  8
8
 10
34.0711
 20
27.6679
  0
SEQEND
  8
8
  0
LINE
  8
8
 10
36.5341
 20
31.0949
 11
36.5341
 21
24.7947
  0
LINE
  8
8
 10
42.9981
 20
31.0946
 11
42.9981
 21
24.0070
  0
LINE
  8
8
 10
46.2478
 20
27.5704
 11
46.2479
 21
28.9483
  0
LINE
  8
8
 10
46.2479
 20
28.9483
 11
47.1534
 21
28.9485
  0
LINE
  8
8
 10
47.1534
 20
28.9485
 11
47.1534
 21
27.5701
  0
LINE
  8
8
 10
47.1534
 20
27.5701
 11
46.2478
 21
27.5704
  0
LINE
  8
6
 10
28.3193
 20
31.0951
 11
45.6686
 21
31.0944
  0
ENDBLK
  0
BLOCK
  8
0
  2
TANK_SR_FR_30
 70
64
 10
0.0000
 20
0.0000
  0
TEXT
  8
1
 10
39.8863
 20
27.2222
 40
0.250
 50
0.0000
  1
Piece Name: TANK_SR_FR
  7
STANDARD
  0
TEXT
  8
1
 10
39.8863
 20
27.3622
 40
0.250
 50
0.0000
  1
SIZE: 30
  7
STANDARD
  0
POLYLINE
  8
1
 66
1
 70
0
  0
VERTEX
  8
1
 10
45.7867
 20
31.2421
  0
VERTEX
  8
1
 10
45.8006
 20
30.7616
  0
VERTEX
  8
1
 10
46.0806
 20
29.8114
  0
VERTEX
  8
1
 10
46.6665
 20
28.9761
  0
VERTEX
  8
1
 10
47.4041
 20
28.4463
  0
VERTEX
  8
1
 10
48.1826
 20
28.0623
  0
VERTEX
  8
1
 10
49.4201
 20
27.6838
  0
VERTEX
  8
1
 10
50.8016
 20
27.4052
  0
VERTEX
  8
1
 10
51.6305
 20
27.2494
  0
SEQEND
  8
1
  0
POLYLINE
  8
1
 66
1
 70
0
  0
VERTEX
  8
1
 10
51.6305
 20
27.2494
  0
VERTEX
  8
1
 10
51.1923
 20
26.1577
  0
SEQEND
  8
1
  0
POLYLINE
  8
1
 66
1
 70
0
  0
VERTEX
  8
1
 10
51.1923
 20
26.1577
  0
VERTEX
  8
1
 10
50.4703
 20
26.2852
  0
VERTEX
  8
1
 10
48.5872
 20
26.4713
  0
VERTEX
  8
1
 10
46.8969
 20
26.2625
  0
VERTEX
  8
1
 10
45.5802
 20
25.7732
  0
VERTEX
  8
1
 10
44.8148
 20
25.1805
  0
VERTEX
  8
1
 10
44.2651
 20
24.4330
  0
VERTEX
  8
1
 10
44.1418
 20
24.2045
  0
VERTEX
  8
1
 10
43.9230
 20
23.8597
  0
SEQEND
  8
1
  0
POLYLINE
  8
1
 66
1
 70
0
  0
VERTEX
  8
1
 10
43.9230
 20
23.8597
  0
VERTEX
  8
1
 10
43.0178
 20
23.8595
  0
VERTEX
  8
1
 10
37.9746
 20
24.5273
  0
VERTEX
  8
1
 10
36.4947
 20
24.6471
  0
VERTEX
  8
1
 10
33.7724
 20
24.0242
  0
VERTEX
  8
1
 10
29.2860
 20
23.3356
  0
VERTEX
  8
1
 10
28.1421
 20
23.2017
  0
SEQEND
  8
1
  0
POLYLINE
  8
1
 66
1
 70
0
  0
VERTEX
  8
1
 10
28.1421
 20
23.2017
  0
VERTEX
  8
1
 10
28.1421
 20
31.2428
  0
SEQEND
  8
1
  0
POLYLINE
  8
1
 66
1
 70
0
  0
VERTEX
  8
1
 10
28.1421
 20
31.2428
  0
VERTEX
  8
1
 10
45.7867
 20
31.2421
  0
SEQEND
  8
1
  0
LINE
  8
7
 10
36.1206
 20
26.9111
 11
42.0539
 21
26.9111
  0
LINE
  8
5
 10
36.1206
 20
26.9111
 11
42.0539
 21
26.9111
  0
POLYLINE
  8
8
 66
1
 70
0
  0
VERTEX
  8
8
 10
29.9208
 20
26.7540
  0
VERTEX
  8
8
 10
29.9208
 20
27.8156
  0
VERTEX
  8
8
 10
34.0908
 20
27.8156
  0
SEQEND
  8
8
  0
LINE
  8
8
 10
36.4947
 20
31.2426
 11
36.4947
 21
24.6471
  0
LINE
  8
8
 10
43.0178
 20
31.2423
 11
43.0178
 21
23.8595
  0
LINE
  8
8
 10
46.2281
 20
27.5212
 11
46.2282
 21
28.8991
  0
LINE
  8
8
 10
46.2282
 20
28.8991
 11
47.1337
 21
28.8993
  0
LINE
  8
8
 10
47.1337
 20
28.8993
 11
47.1337
 21
27.5209
  0
LINE
  8
8
 10
47.1337
 20
27.5209
 11
46.2281
 21
27.5212
  0
LINE
  8
6
 10
28.1421
 20
31.2428
 11
45.7867
 21
31.2421
  0
ENDBLK
  0
BLOCK
  8
0
  2
TANK_SR_FR_32
 70
64
 10
0.0000
 20
0.0000
  0
TEXT
  8
1
 10
39.8863
 20
27.2222
 40
0.250
 50
0.0000
  1
Piece Name: TANK_SR_FR
  7
STANDARD
  0
TEXT
  8
1
 10
39.8863
 20
27.3622
 40
0.250
 50
0.0000
  1
SIZE: 32
  7
STANDARD
  0
POLYLINE
  8
1
 66
1
 70
0
  0
VERTEX
  8
1
 10
45.9048
 20
31.3897
  0
VERTEX
  8
1
 10
45.9187
 20
30.9092
  0
VERTEX
  8
1
 10
46.1992
 20
29.9499
  0
VERTEX
  8
1
 10
46.7886
 20
29.1060
  0
VERTEX
  8
1
 10
47.5531
 20
28.5589
  0
VERTEX
  8
1
 10
48.3598
 20
28.1627
  0
VERTEX
  8
1
 10
49.5979
 20
27.7923
  0
VERTEX
  8
1
 10
50.9791
 20
27.5227
  0
VERTEX
  8
1
 10
51.8077
 20
27.3722
  0
SEQEND
  8
1
  0
POLYLINE
  8
1
 66
1
 70
0
  0
VERTEX
  8
1
 10
51.8077
 20
27.3722
  0
VERTEX
  8
1
 10
51.3687
 20
26.2787
  0
SEQEND
  8
1
  0
POLYLINE
  8
1
 66
1
 70
0
  0
VERTEX
  8
1
 10
51.3687
 20
26.2787
  0
VERTEX
  8
1
 10
50.6409
 20
26.4038
  0
VERTEX
  8
1
 10
48.7435
 20
26.5827
  0
VERTEX
  8
1
 10
47.0419
 20
26.3646
  0
VERTEX
  8
1
 10
45.7180
 20
25.8657
  0
VERTEX
  8
1
 10
44.9257
 20
25.2549
  0
VERTEX
  8
1
 10
44.3560
 20
24.4835
  0
VERTEX
  8
1
 10
44.1201
 20
24.0037
  0
VERTEX
  8
1
 10
43.9427
 20
23.7121
  0
SEQEND
  8
1
  0
POLYLINE
  8
1
 66
1
 70
0
  0
VERTEX
  8
1
 10
43.9427
 20
23.7121
  0
VERTEX
  8
1
 10
43.0375
 20
23.7119
  0
VERTEX
  8
1
 10
37.9486
 20
24.3802
  0
VERTEX
  8
1
 10
36.4553
 20
24.4994
  0
VERTEX
  8
1
 10
33.6877
 20
23.8741
  0
VERTEX
  8
1
 10
29.1275
 20
23.1869
  0
VERTEX
  8
1
 10
27.9649
 20
23.0540
  0
SEQEND
  8
1
  0
POLYLINE
  8
1
 66
1
 70
0
  0
VERTEX
  8
1
 10
27.9649
 20
23.0540
  0
VERTEX
  8
1
 10
27.9649
 20
31.3904
  0
SEQEND
  8
1
  0
POLYLINE
  8
1
 66
1
 70
0
  0
VERTEX
  8
1
 10
27.9649
 20
31.3904
  0
VERTEX
  8
1
 10
45.9048
 20
31.3897
  0
SEQEND
  8
1
  0
LINE
  8
7
 10
36.1403
 20
27.0587
 11
42.0736
 21
27.0587
  0
LINE
  8
5
 10
36.1403
 20
27.0587
 11
42.0736
 21
27.0587
  0
POLYLINE
  8
8
 66
1
 70
0
  0
VERTEX
  8
8
 10
29.9405
 20
26.9016
  0
VERTEX
  8
8
 10
29.9405
 20
27.9632
  0
VERTEX
  8
8
 10
34.1105
 20
27.9632
  0
SEQEND
  8
8
  0
LINE
  8
8
 10
36.4553
 20
31.3902
 11
36.4553
 21
24.4994
  0
LINE
  8
8
 10
43.0375
 20
31.3899
 11
43.0375
 21
23.7119
  0
LINE
  8
8
 10
46.2084
 20
27.4719
 11
46.2085
 21
28.8498
  0
LINE
  8
8
 10
46.2085
 20
28.8498
 11
47.1140
 21
28.8500
  0
LINE
  8
8
 10
47.1140
 20
28.8500
 11
47.1140
 21
27.4716
  0
LINE
  8
8
 10
47.1140
 20
27.4716
 11
46.2084
 21
27.4719
  0
LINE
  8
6
 10
27.9649
 20
31.3904
 11
45.9048
 21
31.3897
  0
ENDBLK
  0
BLOCK
  8
0
  2
TANK_SR_FR_34
 70
64
 10
0.0000
 20
0.0000
  0
TEXT
  8
1
 10
39.8863
 20
27.2222
 40
0.250
 50
0.0000
  1
Piece Name: TANK_SR_FR
  7
STANDARD
  0
TEXT
  8
1
 10
39.8863
 20
27.3622
 40
0.250
 50
0.0000
  1
SIZE: 34
  7
STANDARD
  0
POLYLINE
  8
1
 66
1
 70
0
  0
VERTEX
  8
1
 10
46.0229
 20
31.5374
  0
VERTEX
  8
1
 10
46.0368
 20
31.0569
  0
VERTEX
  8
1
 10
46.3178
 20
30.0886
  0
VERTEX
  8
1
 10
46.9107
 20
29.2360
  0
VERTEX
  8
1
 10
47.7022
 20
28.6715
  0
VERTEX
  8
1
 10
48.5370
 20
28.2632
  0
VERTEX
  8
1
 10
49.7756
 20
27.9010
  0
VERTEX
  8
1
 10
51.1565
 20
27.6403
  0
VERTEX
  8
1
 10
51.9849
 20
27.4951
  0
SEQEND
  8
1
  0
POLYLINE
  8
1
 66
1
 70
0
  0
VERTEX
  8
1
 10
51.9849
 20
27.4951
  0
VERTEX
  8
1
 10
51.5451
 20
26.3999
  0
SEQEND
  8
1
  0
POLYLINE
  8
1
 66
1
 70
0
  0
VERTEX
  8
1
 10
51.5451
 20
26.3999
  0
VERTEX
  8
1
 10
50.8115
 20
26.5226
  0
VERTEX
  8
1
 10
48.8997
 20
26.6941
  0
VERTEX
  8
1
 10
47.1869
 20
26.4667
  0
VERTEX
  8
1
 10
45.8558
 20
25.9583
  0
VERTEX
  8
1
 10
45.0051
 20
25.3201
  0
VERTEX
  8
1
 10
44.3887
 20
24.5082
  0
VERTEX
  8
1
 10
44.1246
 20
23.8640
  0
VERTEX
  8
1
 10
43.9624
 20
23.5646
  0
SEQEND
  8
1
  0
POLYLINE
  8
1
 66
1
 70
0
  0
VERTEX
  8
1
 10
43.9624
 20
23.5646
  0
VERTEX
  8
1
 10
43.0572
 20
23.5644
  0
VERTEX
  8
1
 10
37.9225
 20
24.2331
  0
VERTEX
  8
1
 10
36.4159
 20
24.3518
  0
VERTEX
  8
1
 10
33.6030
 20
23.7240
  0
VERTEX
  8
1
 10
28.9690
 20
23.0383
  0
VERTEX
  8
1
 10
27.7877
 20
22.9064
  0
SEQEND
  8
1
  0
POLYLINE
  8
1
 66
1
 70
0
  0
VERTEX
  8
1
 10
27.7877
 20
22.9064
  0
VERTEX
  8
1
 10
27.7877
 20
31.5381
  0
SEQEND
  8
1
  0
POLYLINE
  8
1
 66
1
 70
0
  0
VERTEX
  8
1
 10
27.7877
 20
31.5381
  0
VERTEX
  8
1
 10
46.0229
 20
31.5374
  0
SEQEND
  8
1
  0
LINE
  8
7
 10
36.1600
 20
27.2064
 11
42.0933
 21
27.2064
  0
LINE
  8
5
 10
36.1600
 20
27.2064
 11
42.0933
 21
27.2064
  0
POLYLINE
  8
8
 66
1
 70
0
  0
VERTEX
  8
8
 10
29.9602
 20
27.0493
  0
VERTEX
  8
8
 10
29.9602
 20
28.1109
  0
VERTEX
  8
8
 10
34.1302
 20
28.1109
  0
SEQEND
  8
8
  0
LINE
  8
8
 10
36.4159
 20
31.5379
 11
36.4159
 21
24.3518
  0
LINE
  8
8
 10
43.0572
 20
31.5376
 11
43.0572
 21
23.5644
  0
LINE
  8
8
 10
46.1887
 20
27.4227
 11
46.1888
 21
28.8006
  0
LINE
  8
8
 10
46.1888
 20
28.8006
 11
47.0943
 21
28.8008
  0
LINE
  8
8
 10
47.0943
 20
28.8008
 11
47.0943
 21
27.4224
  0
LINE
  8
8
 10
47.0943
 20
27.4224
 11
46.1887
 21
27.4227
  0
LINE
  8
6
 10
27.7877
 20
31.5381
 11
46.0229
 21
31.5374
  0
ENDBLK
  0
BLOCK
  8
0
  2
TANK_SR_FR_36
 70
64
 10
0.0000
 20
0.0000
  0
TEXT
  8
1
 10
39.8863
 20
27.2222
 40
0.250
 50
0.0000
  1
Piece Name: TANK_SR_FR
  7
STANDARD
  0
TEXT
  8
1
 10
39.8863
 20
27.3622
 40
0.250
 50
0.0000
  1
Quantity: 1
  7
STANDARD
  0
TEXT
  8
1
 10
39.8863
 20
27.5022
 40
0.250
 50
0.0000
  1
ANNOTATION: 1X FABRIC
  7
STANDARD
  0
TEXT
  8
1
 10
39.8863
 20
27.6422
 40
0.250
 50
0.0000
  1
CATEGORY: FRONT
  7
STANDARD
  0
TEXT
  8
1
 10
39.8863
 20
27.7822
 40
0.250
 50
0.0000
  1
SIZE: 36
  7
STANDARD
  0
POLYLINE
  8
1
 66
1
 70
0
  0
VERTEX
  8
1
 10
46.1410
 20
31.6850
  0
VERTEX
  8
1
 10
46.1549
 20
31.2045
  0
VERTEX
  8
1
 10
46.4365
 20
30.2272
  0
VERTEX
  8
1
 10
47.0328
 20
29.3659
  0
VERTEX
  8
1
 10
47.8513
 20
28.7841
  0
VERTEX
  8
1
 10
48.7142
 20
28.3636
  0
VERTEX
  8
1
 10
49.9534
 20
28.0096
  0
VERTEX
  8
1
 10
51.3340
 20
27.7578
  0
VERTEX
  8
1
 10
52.1621
 20
27.6179
  0
SEQEND
  8
1
  0
POINT
  8
4
 10
46.1410
 20
31.6850
 30
0.1574
 39
0.0000
  0
POINT
  8
2
 10
46.1410
 20
31.6850
  0
TEXT
  8
2
 10
46.1410
 20
31.6850
 40
0.250
 50
0.0000
  1
# 80
  7
STANDARD
  0
POINT
  8
3
 10
46.1549
 20
31.2045
  0
TEXT
  8
3
 10
46.1549
 20
31.2045
 40
0.250
 50
0.0000
  1
# 80
  7
STANDARD
  0
POINT
  8
3
 10
46.4365
 20
30.2272
  0
POINT
  8
3
 10
47.0328
 20
29.3659
  0
TEXT
  8
3
 10
47.0328
 20
29.3659
 40
0.250
 50
0.0000
  1
# 392
  7
STANDARD
  0
POINT
  8
3
 10
47.8513
 20
28.7841
  0
POINT
  8
3
 10
48.7142
 20
28.3636
  0
TEXT
  8
3
 10
48.7142
 20
28.3636
 40
0.250
 50
0.0000
  1
# 331
  7
STANDARD
  0
POINT
  8
3
 10
49.9534
 20
28.0096
  0
POINT
  8
3
 10
51.3340
 20
27.7578
  0
POINT
  8
2
 10
52.1621
 20
27.6179
  0
TEXT
  8
2
 10
52.1621
 20
27.6179
 40
0.250
 50
0.0000
  1
# 332
  7
STANDARD
  0
POLYLINE
  8
1
 66
1
 70
0
  0
VERTEX
  8
1
 10
52.1621
 20
27.6179
  0
VERTEX
  8
1
 10
51.7216
 20
26.5211
  0
SEQEND
  8
1
  0
POINT
  8
2
 10
52.1621
 20
27.6179
  0
TEXT
  8
2
 10
52.1621
 20
27.6179
 40
0.250
 50
0.0000
  1
# 332
  7
STANDARD
  0
POINT
  8
2
 10
51.7216
 20
26.5211
  0
TEXT
  8
2
 10
51.7216
 20
26.5211
 40
0.250
 50
0.0000
  1
# 1
  7
STANDARD
  0
POLYLINE
  8
1
 66
1
 70
0
  0
VERTEX
  8
1
 10
51.7216
 20
26.5211
  0
VERTEX
  8
1
 10
50.9823
 20
26.6414
  0
VERTEX
  8
1
 10
49.0560
 20
26.8056
  0
VERTEX
  8
1
 10
47.3320
 20
26.5689
  0
VERTEX
  8
1
 10
45.9936
 20
26.0508
  0
VERTEX
  8
1
 10
45.1233
 20
25.3881
  0
VERTEX
  8
1
 10
44.4952
 20
24.5483
  0
VERTEX
  8
1
 10
44.1308
 20
23.7890
  0
VERTEX
  8
1
 10
43.9821
 20
23.4170
  0
SEQEND
  8
1
  0
POINT
  8
2
 10
51.7216
 20
26.5211
  0
TEXT
  8
2
 10
51.7216
 20
26.5211
 40
0.250
 50
0.0000
  1
# 1
  7
STANDARD
  0
POINT
  8
3
 10
50.9823
 20
26.6414
  0
POINT
  8
3
 10
49.0560
 20
26.8056
  0
POINT
  8
3
 10
47.3320
 20
26.5689
  0
POINT
  8
3
 10
45.9936
 20
26.0508
  0
TEXT
  8
3
 10
45.9936
 20
26.0508
 40
0.250
 50
0.0000
  1
# 673
  7
STANDARD
  0
POINT
  8
3
 10
45.1233
 20
25.3881
  0
POINT
  8
3
 10
44.4952
 20
24.5483
  0
TEXT
  8
3
 10
44.4952
 20
24.5483
 40
0.250
 50
0.0000
  1
# 403
  7
STANDARD
  0
POINT
  8
3
 10
44.1308
 20
23.7890
  0
TEXT
  8
3
 10
44.1308
 20
23.7890
 40
0.250
 50
0.0000
  1
# 399
  7
STANDARD
  0
POINT
  8
2
 10
43.9821
 20
23.4170
  0
TEXT
  8
2
 10
43.9821
 20
23.4170
 40
0.250
 50
0.0000
  1
# 11
  7
STANDARD
  0
POLYLINE
  8
1
 66
1
 70
0
  0
VERTEX
  8
1
 10
43.9821
 20
23.4170
  0
VERTEX
  8
1
 10
43.0769
 20
23.4168
  0
VERTEX
  8
1
 10
37.8965
 20
24.0860
  0
VERTEX
  8
1
 10
36.3765
 20
24.2041
  0
VERTEX
  8
1
 10
33.5183
 20
23.5740
  0
VERTEX
  8
1
 10
28.8105
 20
22.8896
  0
VERTEX
  8
1
 10
27.6105
 20
22.7587
  0
SEQEND
  8
1
  0
POINT
  8
2
 10
43.9821
 20
23.4170
  0
TEXT
  8
2
 10
43.9821
 20
23.4170
 40
0.250
 50
0.0000
  1
# 11
  7
STANDARD
  0
POINT
  8
2
 10
43.0769
 20
23.4168
  0
TEXT
  8
2
 10
43.0769
 20
23.4168
 40
0.250
 50
0.0000
  1
# 11
  7
STANDARD
  0
POINT
  8
3
 10
37.8965
 20
24.0860
  0
POINT
  8
4
 10
36.3765
 20
24.2041
 30
0.1574
 39
0.0000
  0
POINT
  8
2
 10
36.3765
 20
24.2041
  0
TEXT
  8
2
 10
36.3765
 20
24.2041
 40
0.250
 50
0.0000
  1
# 400
  7
STANDARD
  0
POINT
  8
3
 10
33.5183
 20
23.5740
  0
POINT
  8
3
 10
28.8105
 20
22.8896
  0
POINT
  8
2
 10
27.6105
 20
22.7587
  0
TEXT
  8
2
 10
27.6105
 20
22.7587
 40
0.250
 50
0.0000
  1
# 13
  7
STANDARD
  0
POLYLINE
  8
1
 66
1
 70
0
  0
VERTEX
  8
1
 10
27.6105
 20
22.7587
  0
VERTEX
  8
1
 10
27.6105
 20
31.6857
  0
SEQEND
  8
1
  0
POINT
  8
2
 10
27.6105
 20
22.7587
  0
TEXT
  8
2
 10
27.6105
 20
22.7587
 40
0.250
 50
0.0000
  1
# 13
  7
STANDARD
  0
POINT
  8
2
 10
27.6105
 20
31.6857
  0
TEXT
  8
2
 10
27.6105
 20
31.6857
 40
0.250
 50
0.0000
  1
# 14
  7
STANDARD
  0
POLYLINE
  8
1
 66
1
 70
0
  0
VERTEX
  8
1
 10
27.6105
 20
31.6857
  0
VERTEX
  8
1
 10
46.1410
 20
31.6850
  0
SEQEND
  8
1
  0
POINT
  8
2
 10
27.6105
 20
31.6857
  0
TEXT
  8
2
 10
27.6105
 20
31.6857
 40
0.250
 50
0.0000
  1
# 14
  7
STANDARD
  0
LINE
  8
7
 10
36.1797
 20
27.3540
 11
42.1130
 21
27.3540
  0
LINE
  8
5
 10
36.1797
 20
27.3540
 11
42.1130
 21
27.3540
  0
POINT
  8
2
 10
36.1797
 20
27.3540
  0
POINT
  8
2
 10
42.1130
 20
27.3540
  0
POLYLINE
  8
8
 66
1
 70
0
  0
VERTEX
  8
8
 10
29.9799
 20
27.1969
  0
VERTEX
  8
8
 10
29.9799
 20
28.2585
  0
VERTEX
  8
8
 10
34.1499
 20
28.2585
  0
SEQEND
  8
8
  0
TEXT
  8
8
 10
29.9799
 20
27.1969
 40
0.250
 50
0.0000
  1
B
  7
STANDARD
  0
POINT
  8
2
 10
29.9799
 20
27.1969
  0
POINT
  8
2
 10
29.9799
 20
28.2585
  0
POINT
  8
2
 10
34.1499
 20
28.2585
  0
LINE
  8
8
 10
36.3765
 20
31.6855
 11
36.3765
 21
24.2041
  0
TEXT
  8
8
 10
36.3765
 20
31.6855
 40
0.250
 50
0.0000
  1
NM
  7
STANDARD
  0
POINT
  8
2
 10
36.3765
 20
31.6855
  0
TEXT
  8
2
 10
36.3765
 20
31.6855
 40
0.250
 50
0.0000
  1
# 395
  7
STANDARD
  0
POINT
  8
2
 10
36.3765
 20
24.2041
  0
TEXT
  8
2
 10
36.3765
 20
24.2041
 40
0.250
 50
0.0000
  1
# 400
  7
STANDARD
  0
LINE
  8
8
 10
43.0769
 20
31.6852
 11
43.0769
 21
23.4168
  0
TEXT
  8
8
 10
43.0769
 20
31.6852
 40
0.250
 50
0.0000
  1
NM
  7
STANDARD
  0
POINT
  8
2
 10
43.0769
 20
31.6852
  0
TEXT
  8
2
 10
43.0769
 20
31.6852
 40
0.250
 50
0.0000
  1
# 0
  7
STANDARD
  0
POINT
  8
2
 10
43.0769
 20
23.4168
  0
TEXT
  8
2
 10
43.0769
 20
23.4168
 40
0.250
 50
0.0000
  1
# 11
  7
STANDARD
  0
LINE
  8
8
 10
46.1690
 20
27.3734
 11
46.1691
 21
28.7513
  0
TEXT
  8
8
 10
46.1690
 20
27.3734
 40
0.250
 50
0.0000
  1
NM
  7
STANDARD
  0
POINT
  8
2
 10
46.1690
 20
27.3734
  0
TEXT
  8
2
 10
46.1690
 20
27.3734
 40
0.250
 50
0.0000
  1
# 31
  7
STANDARD
  0
POINT
  8
2
 10
46.1691
 20
28.7513
  0
TEXT
  8
2
 10
46.1691
 20
28.7513
 40
0.250
 50
0.0000
  1
# 31
  7
STANDARD
  0
LINE
  8
8
 10
46.1691
 20
28.7513
 11
47.0746
 21
28.7515
  0
TEXT
  8
8
 10
46.1691
 20
28.7513
 40
0.250
 50
0.0000
  1
NM
  7
STANDARD
  0
POINT
  8
2
 10
46.1691
 20
28.7513
  0
TEXT
  8
2
 10
46.1691
 20
28.7513
 40
0.250
 50
0.0000
  1
# 31
  7
STANDARD
  0
POINT
  8
2
 10
47.0746
 20
28.7515
  0
TEXT
  8
2
 10
47.0746
 20
28.7515
 40
0.250
 50
0.0000
  1
# 31
  7
STANDARD
  0
LINE
  8
8
 10
47.0746
 20
28.7515
 11
47.0746
 21
27.3731
  0
TEXT
  8
8
 10
47.0746
 20
28.7515
 40
0.250
 50
0.0000
  1
NM
  7
STANDARD
  0
POINT
  8
2
 10
47.0746
 20
28.7515
  0
TEXT
  8
2
 10
47.0746
 20
28.7515
 40
0.250
 50
0.0000
  1
# 31
  7
STANDARD
  0
POINT
  8
2
 10
47.0746
 20
27.3731
  0
TEXT
  8
2
 10
47.0746
 20
27.3731
 40
0.250
 50
0.0000
  1
# 31
  7
STANDARD
  0
LINE
  8
8
 10
47.0746
 20
27.3731
 11
46.1690
 21
27.3734
  0
TEXT
  8
8
 10
47.0746
 20
27.3731
 40
0.250
 50
0.0000
  1
NM
  7
STANDARD
  0
POINT
  8
2
 10
47.0746
 20
27.3731
  0
TEXT
  8
2
 10
47.0746
 20
27.3731
 40
0.250
 50
0.0000
  1
# 31
  7
STANDARD
  0
POINT
  8
2
 10
46.1690
 20
27.3734
  0
TEXT
  8
2
 10
46.1690
 20
27.3734
 40
0.250
 50
0.0000
  1
# 31
  7
STANDARD
  0
LINE
  8
6
 10
27.6105
 20
31.6857
 11
46.1410
 21
31.6850
  0
ENDBLK
  0
BLOCK
  8
0
  2
TANK_SR_FR_38
 70
64
 10
0.0000
 20
0.0000
  0
TEXT
  8
1
 10
39.8863
 20
27.2222
 40
0.250
 50
0.0000
  1
Piece Name: TANK_SR_FR
  7
STANDARD
  0
TEXT
  8
1
 10
39.8863
 20
27.3622
 40
0.250
 50
0.0000
  1
SIZE: 38
  7
STANDARD
  0
POLYLINE
  8
1
 66
1
 70
0
  0
VERTEX
  8
1
 10
46.2591
 20
31.8327
  0
VERTEX
  8
1
 10
46.2730
 20
31.3522
  0
VERTEX
  8
1
 10
46.5551
 20
30.3658
  0
VERTEX
  8
1
 10
47.1549
 20
29.4959
  0
VERTEX
  8
1
 10
48.0012
 20
28.9081
  0
VERTEX
  8
1
 10
48.8914
 20
28.4865
  0
VERTEX
  8
1
 10
50.1306
 20
28.1325
  0
VERTEX
  8
1
 10
51.5112
 20
27.8807
  0
VERTEX
  8
1
 10
52.3393
 20
27.7408
  0
SEQEND
  8
1
  0
POLYLINE
  8
1
 66
1
 70
0
  0
VERTEX
  8
1
 10
52.3393
 20
27.7408
  0
VERTEX
  8
1
 10
51.8970
 20
26.6399
  0
SEQEND
  8
1
  0
POLYLINE
  8
1
 66
1
 70
0
  0
VERTEX
  8
1
 10
51.8970
 20
26.6399
  0
VERTEX
  8
1
 10
51.1440
 20
26.7542
  0
VERTEX
  8
1
 10
49.1838
 20
26.9003
  0
VERTEX
  8
1
 10
47.4337
 20
26.6410
  0
VERTEX
  8
1
 10
46.0786
 20
26.0999
  0
VERTEX
  8
1
 10
45.1789
 20
25.4069
  0
VERTEX
  8
1
 10
44.5317
 20
24.5316
  0
VERTEX
  8
1
 10
44.1611
 20
23.6771
  0
VERTEX
  8
1
 10
44.0018
 20
23.2695
  0
SEQEND
  8
1
  0
POLYLINE
  8
1
 66
1
 70
0
  0
VERTEX
  8
1
 10
44.0018
 20
23.2695
  0
VERTEX
  8
1
 10
43.0966
 20
23.2693
  0
VERTEX
  8
1
 10
37.8704
 20
23.9389
  0
VERTEX
  8
1
 10
36.3371
 20
24.0565
  0
VERTEX
  8
1
 10
33.4335
 20
23.4239
  0
VERTEX
  8
1
 10
28.6519
 20
22.7409
  0
VERTEX
  8
1
 10
27.4333
 20
22.6111
  0
SEQEND
  8
1
  0
POLYLINE
  8
1
 66
1
 70
0
  0
VERTEX
  8
1
 10
27.4333
 20
22.6111
  0
VERTEX
  8
1
 10
27.4333
 20
31.8334
  0
SEQEND
  8
1
  0
POLYLINE
  8
1
 66
1
 70
0
  0
VERTEX
  8
1
 10
27.4333
 20
31.8334
  0
VERTEX
  8
1
 10
46.2591
 20
31.8327
  0
SEQEND
  8
1
  0
LINE
  8
7
 10
36.1994
 20
27.5017
 11
42.1327
 21
27.5017
  0
LINE
  8
5
 10
36.1994
 20
27.5017
 11
42.1327
 21
27.5017
  0
POLYLINE
  8
8
 66
1
 70
0
  0
VERTEX
  8
8
 10
29.9996
 20
27.3446
  0
VERTEX
  8
8
 10
29.9996
 20
28.4062
  0
VERTEX
  8
8
 10
34.1696
 20
28.4062
  0
SEQEND
  8
8
  0
LINE
  8
8
 10
36.3371
 20
31.8332
 11
36.3371
 21
24.0565
  0
LINE
  8
8
 10
43.0966
 20
31.8329
 11
43.0966
 21
23.2693
  0
LINE
  8
8
 10
46.1493
 20
27.3242
 11
46.1494
 21
28.7021
  0
LINE
  8
8
 10
46.1494
 20
28.7021
 11
47.0549
 21
28.7023
  0
LINE
  8
8
 10
47.0549
 20
28.7023
 11
47.0549
 21
27.3239
  0
LINE
  8
8
 10
47.0549
 20
27.3239
 11
46.1493
 21
27.3242
  0
LINE
  8
6
 10
27.4333
 20
31.8334
 11
46.2591
 21
31.8327
  0
ENDBLK
  0
BLOCK
  8
0
  2
TANK_SR_FR_40
 70
64
 10
0.0000
 20
0.0000
  0
TEXT
  8
1
 10
39.8863
 20
27.2222
 40
0.250
 50
0.0000
  1
Piece Name: TANK_SR_FR
  7
STANDARD
  0
TEXT
  8
1
 10
39.8863
 20
27.3622
 40
0.250
 50
0.0000
  1
SIZE: 40
  7
STANDARD
  0
POLYLINE
  8
1
 66
1
 70
0
  0
VERTEX
  8
1
 10
46.3772
 20
31.9803
  0
VERTEX
  8
1
 10
46.3911
 20
31.4998
  0
VERTEX
  8
1
 10
46.6737
 20
30.5044
  0
VERTEX
  8
1
 10
47.2770
 20
29.6258
  0
VERTEX
  8
1
 10
48.1512
 20
29.0321
  0
VERTEX
  8
1
 10
49.0686
 20
28.6093
  0
VERTEX
  8
1
 10
50.3078
 20
28.2553
  0
VERTEX
  8
1
 10
51.6884
 20
28.0035
  0
VERTEX
  8
1
 10
52.5165
 20
27.8636
  0
SEQEND
  8
1
  0
POLYLINE
  8
1
 66
1
 70
0
  0
VERTEX
  8
1
 10
52.5165
 20
27.8636
  0
VERTEX
  8
1
 10
52.0727
 20
26.7593
  0
SEQEND
  8
1
  0
POLYLINE
  8
1
 66
1
 70
0
  0
VERTEX
  8
1
 10
52.0727
 20
26.7593
  0
VERTEX
  8
1
 10
51.3055
 20
26.8687
  0
VERTEX
  8
1
 10
49.3097
 20
26.9997
  0
VERTEX
  8
1
 10
47.5312
 20
26.7200
  0
VERTEX
  8
1
 10
46.1573
 20
26.1571
  0
VERTEX
  8
1
 10
45.2453
 20
25.4402
  0
VERTEX
  8
1
 10
44.5931
 20
24.5395
  0
VERTEX
  8
1
 10
44.1739
 20
23.5192
  0
VERTEX
  8
1
 10
44.0215
 20
23.1219
  0
SEQEND
  8
1
  0
POLYLINE
  8
1
 66
1
 70
0
  0
VERTEX
  8
1
 10
44.0215
 20
23.1219
  0
VERTEX
  8
1
 10
43.1163
 20
23.1217
  0
VERTEX
  8
1
 10
37.8443
 20
23.7917
  0
VERTEX
  8
1
 10
36.2977
 20
23.9088
  0
VERTEX
  8
1
 10
33.3488
 20
23.2738
  0
VERTEX
  8
1
 10
28.4934
 20
22.5922
  0
VERTEX
  8
1
 10
27.2561
 20
22.4634
  0
SEQEND
  8
1
  0
POLYLINE
  8
1
 66
1
 70
0
  0
VERTEX
  8
1
 10
27.2561
 20
22.4634
  0
VERTEX
  8
1
 10
27.2561
 20
31.9810
  0
SEQEND
  8
1
  0
POLYLINE
  8
1
 66
1
 70
0
  0
VERTEX
  8
1
 10
27.2561
 20
31.9810
  0
VERTEX
  8
1
 10
46.3772
 20
31.9803
  0
SEQEND
  8
1
  0
LINE
  8
7
 10
36.2191
 20
27.6493
 11
42.1524
 21
27.6493
  0
LINE
  8
5
 10
36.2191
 20
27.6493
 11
42.1524
 21
27.6493
  0
POLYLINE
  8
8
 66
1
 70
0
  0
VERTEX
  8
8
 10
30.0193
 20
27.4922
  0
VERTEX
  8
8
 10
30.0193
 20
28.5538
  0
VERTEX
  8
8
 10
34.1893
 20
28.5538
  0
SEQEND
  8
8
  0
LINE
  8
8
 10
36.2977
 20
31.9808
 11
36.2977
 21
23.9088
  0
LINE
  8
8
 10
43.1163
 20
31.9805
 11
43.1163
 21
23.1217
  0
LINE
  8
8
 10
46.1296
 20
27.2749
 11
46.1297
 21
28.6528
  0
LINE
  8
8
 10
46.1297
 20
28.6528
 11
47.0352
 21
28.6530
  0
LINE
  8
8
 10
47.0352
 20
28.6530
 11
47.0352
 21
27.2746
  0
LINE
  8
8
 10
47.0352
 20
27.2746
 11
46.1296
 21
27.2749
  0
LINE
  8
6
 10
27.2561
 20
31.9810
 11
46.3772
 21
31.9803
  0
ENDBLK
  0
BLOCK
  8
0
  2
TANK_SR_FR_42
 70
64
 10
0.0000
 20
0.0000
  0
TEXT
  8
1
 10
39.8863
 20
27.2222
 40
0.250
 50
0.0000
  1
Piece Name: TANK_SR_FR
  7
STANDARD
  0
TEXT
  8
1
 10
39.8863
 20
27.3622
 40
0.250
 50
0.0000
  1
SIZE: 42
  7
STANDARD
  0
POLYLINE
  8
1
 66
1
 70
0
  0
VERTEX
  8
1
 10
46.4953
 20
32.1526
  0
VERTEX
  8
1
 10
46.5092
 20
31.6721
  0
VERTEX
  8
1
 10
46.7923
 20
30.6676
  0
VERTEX
  8
1
 10
47.3991
 20
29.7804
  0
VERTEX
  8
1
 10
48.3012
 20
29.1808
  0
VERTEX
  8
1
 10
49.2458
 20
28.7568
  0
VERTEX
  8
1
 10
50.4850
 20
28.4028
  0
VERTEX
  8
1
 10
51.8656
 20
28.1510
  0
VERTEX
  8
1
 10
52.6937
 20
28.0111
  0
SEQEND
  8
1
  0
POLYLINE
  8
1
 66
1
 70
0
  0
VERTEX
  8
1
 10
52.6937
 20
28.0111
  0
VERTEX
  8
1
 10
52.2478
 20
26.9021
  0
SEQEND
  8
1
  0
POLYLINE
  8
1
 66
1
 70
0
  0
VERTEX
  8
1
 10
52.2478
 20
26.9021
  0
VERTEX
  8
1
 10
51.4613
 20
27.0044
  0
VERTEX
  8
1
 10
49.4172
 20
27.1131
  0
VERTEX
  8
1
 10
47.6007
 20
26.8044
  0
VERTEX
  8
1
 10
46.2019
 20
26.2110
  0
VERTEX
  8
1
 10
45.2848
 20
25.4639
  0
VERTEX
  8
1
 10
44.6359
 20
24.5342
  0
VERTEX
  8
1
 10
44.1899
 20
23.3467
  0
VERTEX
  8
1
 10
44.0412
 20
22.9498
  0
SEQEND
  8
1
  0
POLYLINE
  8
1
 66
1
 70
0
  0
VERTEX
  8
1
 10
44.0412
 20
22.9498
  0
VERTEX
  8
1
 10
43.1360
 20
22.9496
  0
VERTEX
  8
1
 10
37.7574
 20
23.6208
  0
VERTEX
  8
1
 10
36.1796
 20
23.7366
  0
VERTEX
  8
1
 10
33.2112
 20
23.1005
  0
VERTEX
  8
1
 10
28.3243
 20
22.4196
  0
VERTEX
  8
1
 10
27.0789
 20
22.2912
  0
SEQEND
  8
1
  0
POLYLINE
  8
1
 66
1
 70
0
  0
VERTEX
  8
1
 10
27.0789
 20
22.2912
  0
VERTEX
  8
1
 10
27.0789
 20
32.1533
  0
SEQEND
  8
1
  0
POLYLINE
  8
1
 66
1
 70
0
  0
VERTEX
  8
1
 10
27.0789
 20
32.1533
  0
VERTEX
  8
1
 10
46.4953
 20
32.1526
  0
SEQEND
  8
1
  0
LINE
  8
7
 10
36.2388
 20
27.8216
 11
42.1721
 21
27.8216
  0
LINE
  8
5
 10
36.2388
 20
27.8216
 11
42.1721
 21
27.8216
  0
POLYLINE
  8
8
 66
1
 70
0
  0
VERTEX
  8
8
 10
30.0390
 20
27.6645
  0
VERTEX
  8
8
 10
30.0390
 20
28.7261
  0
VERTEX
  8
8
 10
34.2090
 20
28.7261
  0
SEQEND
  8
8
  0
LINE
  8
8
 10
36.1796
 20
32.1531
 11
36.1796
 21
23.7366
  0
LINE
  8
8
 10
43.1360
 20
32.1528
 11
43.1360
 21
22.9496
  0
LINE
  8
8
 10
46.1099
 20
27.2503
 11
46.1100
 21
28.6282
  0
LINE
  8
8
 10
46.1100
 20
28.6282
 11
47.0155
 21
28.6284
  0
LINE
  8
8
 10
47.0155
 20
28.6284
 11
47.0155
 21
27.2500
  0
LINE
  8
8
 10
47.0155
 20
27.2500
 11
46.1099
 21
27.2503
  0
LINE
  8
6
 10
27.0789
 20
32.1533
 11
46.4953
 21
32.1526
  0
ENDBLK
  0
BLOCK
  8
0
  2
TANK_SR_FR_44
 70
64
 10
0.0000
 20
0.0000
  0
TEXT
  8
1
 10
39.8863
 20
27.2222
 40
0.250
 50
0.0000
  1
Piece Name: TANK_SR_FR
  7
STANDARD
  0
TEXT
  8
1
 10
39.8863
 20
27.3622
 40
0.250
 50
0.0000
  1
SIZE: 44
  7
STANDARD
  0
POLYLINE
  8
1
 66
1
 70
0
  0
VERTEX
  8
1
 10
46.6134
 20
32.3248
  0
VERTEX
  8
1
 10
46.6273
 20
31.8443
  0
VERTEX
  8
1
 10
46.9109
 20
30.8308
  0
VERTEX
  8
1
 10
47.5212
 20
29.9349
  0
VERTEX
  8
1
 10
48.4512
 20
29.3294
  0
VERTEX
  8
1
 10
49.4230
 20
28.9042
  0
VERTEX
  8
1
 10
50.6622
 20
28.5502
  0
VERTEX
  8
1
 10
52.0428
 20
28.2984
  0
VERTEX
  8
1
 10
52.8709
 20
28.1585
  0
SEQEND
  8
1
  0
POLYLINE
  8
1
 66
1
 70
0
  0
VERTEX
  8
1
 10
52.8709
 20
28.1585
  0
VERTEX
  8
1
 10
52.4233
 20
27.0457
  0
SEQEND
  8
1
  0
POLYLINE
  8
1
 66
1
 70
0
  0
VERTEX
  8
1
 10
52.4233
 20
27.0457
  0
VERTEX
  8
1
 10
51.6139
 20
27.1433
  0
VERTEX
  8
1
 10
49.5117
 20
27.2354
  0
VERTEX
  8
1
 10
47.6476
 20
26.9006
  0
VERTEX
  8
1
 10
46.2154
 20
26.2772
  0
VERTEX
  8
1
 10
45.3123
 20
25.4857
  0
VERTEX
  8
1
 10
44.6880
 20
24.5186
  0
VERTEX
  8
1
 10
44.2096
 20
23.1858
  0
VERTEX
  8
1
 10
44.0609
 20
22.7776
  0
SEQEND
  8
1
  0
POLYLINE
  8
1
 66
1
 70
0
  0
VERTEX
  8
1
 10
44.0609
 20
22.7776
  0
VERTEX
  8
1
 10
43.1557
 20
22.7774
  0
VERTEX
  8
1
 10
37.6704
 20
23.4497
  0
VERTEX
  8
1
 10
36.0615
 20
23.5643
  0
VERTEX
  8
1
 10
33.0737
 20
22.9272
  0
VERTEX
  8
1
 10
28.1551
 20
22.2468
  0
VERTEX
  8
1
 10
26.9017
 20
22.1189
  0
SEQEND
  8
1
  0
POLYLINE
  8
1
 66
1
 70
0
  0
VERTEX
  8
1
 10
26.9017
 20
22.1189
  0
VERTEX
  8
1
 10
26.9017
 20
32.3255
  0
SEQEND
  8
1
  0
POLYLINE
  8
1
 66
1
 70
0
  0
VERTEX
  8
1
 10
26.9017
 20
32.3255
  0
VERTEX
  8
1
 10
46.6134
 20
32.3248
  0
SEQEND
  8
1
  0
LINE
  8
7
 10
36.2585
 20
27.9938
 11
42.1918
 21
27.9938
  0
LINE
  8
5
 10
36.2585
 20
27.9938
 11
42.1918
 21
27.9938
  0
POLYLINE
  8
8
 66
1
 70
0
  0
VERTEX
  8
8
 10
30.0587
 20
27.8367
  0
VERTEX
  8
8
 10
30.0587
 20
28.8983
  0
VERTEX
  8
8
 10
34.2287
 20
28.8983
  0
SEQEND
  8
8
  0
LINE
  8
8
 10
36.0615
 20
32.3253
 11
36.0615
 21
23.5643
  0
LINE
  8
8
 10
43.1557
 20
32.3250
 11
43.1557
 21
22.7774
  0
LINE
  8
8
 10
46.0902
 20
27.2256
 11
46.0903
 21
28.6035
  0
LINE
  8
8
 10
46.0903
 20
28.6035
 11
46.9958
 21
28.6037
  0
LINE
  8
8
 10
46.9958
 20
28.6037
 11
46.9958
 21
27.2253
  0
LINE
  8
8
 10
46.9958
 20
27.2253
 11
46.0902
 21
27.2256
  0
LINE
  8
6
 10
26.9017
 20
32.3255
 11
46.6134
 21
32.3248
  0
ENDBLK
  0
BLOCK
  8
0
  2
TANK_SR_FR_46
 70
64
 10
0.0000
 20
0.0000
  0
TEXT
  8
1
 10
39.8863
 20
27.2222
 40
0.250
 50
0.0000
  1
Piece Name: TANK_SR_FR
  7
STANDARD
  0
TEXT
  8
1
 10
39.8863
 20
27.3622
 40
0.250
 50
0.0000
  1
SIZE: 46
  7
STANDARD
  0
POLYLINE
  8
1
 66
1
 70
0
  0
VERTEX
  8
1
 10
46.7315
 20
32.5217
  0
VERTEX
  8
1
 10
46.7454
 20
32.0412
  0
VERTEX
  8
1
 10
47.0295
 20
31.0186
  0
VERTEX
  8
1
 10
47.6433
 20
30.1141
  0
VERTEX
  8
1
 10
48.6012
 20
29.5027
  0
VERTEX
  8
1
 10
49.6002
 20
29.0763
  0
VERTEX
  8
1
 10
50.8394
 20
28.7223
  0
VERTEX
  8
1
 10
52.2200
 20
28.4705
  0
VERTEX
  8
1
 10
53.0481
 20
28.3306
  0
SEQEND
  8
1
  0
POLYLINE
  8
1
 66
1
 70
0
  0
VERTEX
  8
1
 10
53.0481
 20
28.3306
  0
VERTEX
  8
1
 10
52.5762
 20
27.0220
  0
SEQEND
  8
1
  0
POLYLINE
  8
1
 66
1
 70
0
  0
VERTEX
  8
1
 10
52.5762
 20
27.0220
  0
VERTEX
  8
1
 10
51.7502
 20
27.1246
  0
VERTEX
  8
1
 10
49.6044
 20
27.2262
  0
VERTEX
  8
1
 10
47.7001
 20
26.8911
  0
VERTEX
  8
1
 10
46.2357
 20
26.2598
  0
VERTEX
  8
1
 10
45.3485
 20
25.4630
  0
VERTEX
  8
1
 10
44.7401
 20
24.4953
  0
VERTEX
  8
1
 10
44.2293
 20
22.9941
  0
VERTEX
  8
1
 10
44.0806
 20
22.5808
  0
SEQEND
  8
1
  0
POLYLINE
  8
1
 66
1
 70
0
  0
VERTEX
  8
1
 10
44.0806
 20
22.5808
  0
VERTEX
  8
1
 10
43.1754
 20
22.5806
  0
VERTEX
  8
1
 10
37.5829
 20
23.2161
  0
VERTEX
  8
1
 10
35.9434
 20
23.3183
  0
VERTEX
  8
1
 10
32.9353
 20
22.6963
  0
VERTEX
  8
1
 10
27.9855
 20
22.0429
  0
VERTEX
  8
1
 10
26.7245
 20
21.9221
  0
SEQEND
  8
1
  0
POLYLINE
  8
1
 66
1
 70
0
  0
VERTEX
  8
1
 10
26.7245
 20
21.9221
  0
VERTEX
  8
1
 10
26.7245
 20
32.5224
  0
SEQEND
  8
1
  0
POLYLINE
  8
1
 66
1
 70
0
  0
VERTEX
  8
1
 10
26.7245
 20
32.5224
  0
VERTEX
  8
1
 10
46.7315
 20
32.5217
  0
SEQEND
  8
1
  0
LINE
  8
7
 10
36.2782
 20
28.1907
 11
42.2115
 21
28.1907
  0
LINE
  8
5
 10
36.2782
 20
28.1907
 11
42.2115
 21
28.1907
  0
POLYLINE
  8
8
 66
1
 70
0
  0
VERTEX
  8
8
 10
30.0784
 20
28.0336
  0
VERTEX
  8
8
 10
30.0784
 20
29.0952
  0
VERTEX
  8
8
 10
34.2484
 20
29.0952
  0
SEQEND
  8
8
  0
LINE
  8
8
 10
35.9434
 20
32.5221
 11
35.9434
 21
23.3183
  0
LINE
  8
8
 10
43.1754
 20
32.5219
 11
43.1754
 21
22.5806
  0
LINE
  8
8
 10
46.0705
 20
27.2256
 11
46.0706
 21
28.6035
  0
LINE
  8
8
 10
46.0706
 20
28.6035
 11
46.9761
 21
28.6037
  0
LINE
  8
8
 10
46.9761
 20
28.6037
 11
46.9761
 21
27.2253
  0
LINE
  8
8
 10
46.9761
 20
27.2253
 11
46.0705
 21
27.2256
  0
LINE
  8
6
 10
26.7245
 20
32.5224
 11
46.7315
 21
32.5217
  0
ENDBLK
  0
BLOCK
  8
0
  2
TANK_SR_FR_48
 70
64
 10
0.0000
 20
0.0000
  0
TEXT
  8
1
 10
39.8863
 20
27.2222
 40
0.250
 50
0.0000
  1
Piece Name: TANK_SR_FR
  7
STANDARD
  0
TEXT
  8
1
 10
39.8863
 20
27.3622
 40
0.250
 50
0.0000
  1
SIZE: 48
  7
STANDARD
  0
POLYLINE
  8
1
 66
1
 70
0
  0
VERTEX
  8
1
 10
46.8496
 20
32.7185
  0
VERTEX
  8
1
 10
46.8635
 20
32.2380
  0
VERTEX
  8
1
 10
47.1482
 20
31.2064
  0
VERTEX
  8
1
 10
47.7654
 20
30.2932
  0
VERTEX
  8
1
 10
48.7511
 20
29.6759
  0
VERTEX
  8
1
 10
49.7774
 20
29.2483
  0
VERTEX
  8
1
 10
51.0166
 20
28.8943
  0
VERTEX
  8
1
 10
52.3972
 20
28.6425
  0
VERTEX
  8
1
 10
53.2253
 20
28.5026
  0
SEQEND
  8
1
  0
POLYLINE
  8
1
 66
1
 70
0
  0
VERTEX
  8
1
 10
53.2253
 20
28.5026
  0
VERTEX
  8
1
 10
52.7514
 20
27.1890
  0
SEQEND
  8
1
  0
POLYLINE
  8
1
 66
1
 70
0
  0
VERTEX
  8
1
 10
52.7514
 20
27.1890
  0
VERTEX
  8
1
 10
51.9083
 20
27.2831
  0
VERTEX
  8
1
 10
49.7201
 20
27.3595
  0
VERTEX
  8
1
 10
47.7834
 20
26.9939
  0
VERTEX
  8
1
 10
46.2990
 20
26.3319
  0
VERTEX
  8
1
 10
45.4046
 20
25.4986
  0
VERTEX
  8
1
 10
44.7992
 20
24.4952
  0
VERTEX
  8
1
 10
44.2490
 20
22.8161
  0
VERTEX
  8
1
 10
44.1003
 20
22.3839
  0
SEQEND
  8
1
  0
POLYLINE
  8
1
 66
1
 70
0
  0
VERTEX
  8
1
 10
44.1003
 20
22.3839
  0
VERTEX
  8
1
 10
43.1951
 20
22.3837
  0
VERTEX
  8
1
 10
37.4955
 20
22.9823
  0
VERTEX
  8
1
 10
35.8253
 20
23.0722
  0
VERTEX
  8
1
 10
32.7969
 20
22.4654
  0
VERTEX
  8
1
 10
27.8160
 20
21.8389
  0
VERTEX
  8
1
 10
26.5473
 20
21.7252
  0
SEQEND
  8
1
  0
POLYLINE
  8
1
 66
1
 70
0
  0
VERTEX
  8
1
 10
26.5473
 20
21.7252
  0
VERTEX
  8
1
 10
26.5473
 20
32.7192
  0
SEQEND
  8
1
  0
POLYLINE
  8
1
 66
1
 70
0
  0
VERTEX
  8
1
 10
26.5473
 20
32.7192
  0
VERTEX
  8
1
 10
46.8496
 20
32.7185
  0
SEQEND
  8
1
  0
LINE
  8
7
 10
36.2979
 20
28.3875
 11
42.2312
 21
28.3875
  0
LINE
  8
5
 10
36.2979
 20
28.3875
 11
42.2312
 21
28.3875
  0
POLYLINE
  8
8
 66
1
 70
0
  0
VERTEX
  8
8
 10
30.0981
 20
28.2304
  0
VERTEX
  8
8
 10
30.0981
 20
29.2920
  0
VERTEX
  8
8
 10
34.2681
 20
29.2920
  0
SEQEND
  8
8
  0
LINE
  8
8
 10
35.8253
 20
32.7190
 11
35.8253
 21
23.0722
  0
LINE
  8
8
 10
43.1951
 20
32.7187
 11
43.1951
 21
22.3837
  0
LINE
  8
8
 10
46.0508
 20
27.2255
 11
46.0509
 21
28.6034
  0
LINE
  8
8
 10
46.0509
 20
28.6034
 11
46.9564
 21
28.6036
  0
LINE
  8
8
 10
46.9564
 20
28.6036
 11
46.9564
 21
27.2252
  0
LINE
  8
8
 10
46.9564
 20
27.2252
 11
46.0508
 21
27.2255
  0
LINE
  8
6
 10
26.5473
 20
32.7192
 11
46.8496
 21
32.7185
  0
ENDBLK
  0
BLOCK
  8
0
  2
TANK_SR_FR_50
 70
64
 10
0.0000
 20
0.0000
  0
TEXT
  8
1
 10
39.8863
 20
27.2222
 40
0.250
 50
0.0000
  1
Piece Name: TANK_SR_FR
  7
STANDARD
  0
TEXT
  8
1
 10
39.8863
 20
27.3622
 40
0.250
 50
0.0000
  1
SIZE: 50
  7
STANDARD
  0
POLYLINE
  8
1
 66
1
 70
0
  0
VERTEX
  8
1
 10
46.9677
 20
32.9399
  0
VERTEX
  8
1
 10
46.9816
 20
32.4594
  0
VERTEX
  8
1
 10
47.2648
 20
31.4066
  0
VERTEX
  8
1
 10
47.8875
 20
30.4722
  0
VERTEX
  8
1
 10
48.9011
 20
29.8493
  0
VERTEX
  8
1
 10
49.9546
 20
29.4206
  0
VERTEX
  8
1
 10
51.1938
 20
29.0666
  0
VERTEX
  8
1
 10
52.5744
 20
28.8147
  0
VERTEX
  8
1
 10
53.4025
 20
28.6749
  0
SEQEND
  8
1
  0
POLYLINE
  8
1
 66
1
 70
0
  0
VERTEX
  8
1
 10
53.4025
 20
28.6749
  0
VERTEX
  8
1
 10
52.9266
 20
27.3561
  0
SEQEND
  8
1
  0
POLYLINE
  8
1
 66
1
 70
0
  0
VERTEX
  8
1
 10
52.9266
 20
27.3561
  0
VERTEX
  8
1
 10
52.0646
 20
27.4412
  0
VERTEX
  8
1
 10
49.8295
 20
27.4909
  0
VERTEX
  8
1
 10
47.8569
 20
27.0926
  0
VERTEX
  8
1
 10
46.3499
 20
26.3976
  0
VERTEX
  8
1
 10
45.4541
 20
25.5226
  0
VERTEX
  8
1
 10
44.8583
 20
24.4804
  0
VERTEX
  8
1
 10
44.2687
 20
22.6210
  0
VERTEX
  8
1
 10
44.1200
 20
22.1625
  0
SEQEND
  8
1
  0
POLYLINE
  8
1
 66
1
 70
0
  0
VERTEX
  8
1
 10
44.1200
 20
22.1625
  0
VERTEX
  8
1
 10
43.2148
 20
22.1623
  0
VERTEX
  8
1
 10
37.4081
 20
22.7240
  0
VERTEX
  8
1
 10
35.7072
 20
22.8016
  0
VERTEX
  8
1
 10
32.6585
 20
22.2099
  0
VERTEX
  8
1
 10
27.6464
 20
21.6103
  0
VERTEX
  8
1
 10
26.3701
 20
21.5038
  0
SEQEND
  8
1
  0
POLYLINE
  8
1
 66
1
 70
0
  0
VERTEX
  8
1
 10
26.3701
 20
21.5038
  0
VERTEX
  8
1
 10
26.3701
 20
32.9407
  0
SEQEND
  8
1
  0
POLYLINE
  8
1
 66
1
 70
0
  0
VERTEX
  8
1
 10
26.3701
 20
32.9407
  0
VERTEX
  8
1
 10
46.9677
 20
32.9399
  0
SEQEND
  8
1
  0
LINE
  8
7
 10
36.3176
 20
28.6090
 11
42.2509
 21
28.6090
  0
LINE
  8
5
 10
36.3176
 20
28.6090
 11
42.2509
 21
28.6090
  0
POLYLINE
  8
8
 66
1
 70
0
  0
VERTEX
  8
8
 10
30.1178
 20
28.4519
  0
VERTEX
  8
8
 10
30.1178
 20
29.5135
  0
VERTEX
  8
8
 10
34.2878
 20
29.5135
  0
SEQEND
  8
8
  0
LINE
  8
8
 10
35.7072
 20
32.9405
 11
35.7072
 21
22.8016
  0
LINE
  8
8
 10
43.2148
 20
32.9402
 11
43.2148
 21
22.1623
  0
LINE
  8
8
 10
46.0311
 20
27.2501
 11
46.0312
 21
28.6280
  0
LINE
  8
8
 10
46.0312
 20
28.6280
 11
46.9367
 21
28.6282
  0
LINE
  8
8
 10
46.9367
 20
28.6282
 11
46.9367
 21
27.2498
  0
LINE
  8
8
 10
46.9367
 20
27.2498
 11
46.0311
 21
27.2501
  0
LINE
  8
6
 10
26.3701
 20
32.9407
 11
46.9677
 21
32.9399
  0
ENDBLK
  0
BLOCK
  8
0
  2
TANK_SR_FR_52
 70
64
 10
0.0000
 20
0.0000
  0
TEXT
  8
1
 10
39.8863
 20
27.2222
 40
0.250
 50
0.0000
  1
Piece Name: TANK_SR_FR
  7
STANDARD
  0
TEXT
  8
1
 10
39.8863
 20
27.3622
 40
0.250
 50
0.0000
  1
SIZE: 52
  7
STANDARD
  0
POLYLINE
  8
1
 66
1
 70
0
  0
VERTEX
  8
1
 10
47.0858
 20
33.1614
  0
VERTEX
  8
1
 10
47.0997
 20
32.6809
  0
VERTEX
  8
1
 10
47.3813
 20
31.6068
  0
VERTEX
  8
1
 10
48.0096
 20
30.6511
  0
VERTEX
  8
1
 10
49.0511
 20
30.0225
  0
VERTEX
  8
1
 10
50.1318
 20
29.5928
  0
VERTEX
  8
1
 10
51.3710
 20
29.2388
  0
VERTEX
  8
1
 10
52.7516
 20
28.9870
  0
VERTEX
  8
1
 10
53.5797
 20
28.8471
  0
SEQEND
  8
1
  0
POLYLINE
  8
1
 66
1
 70
0
  0
VERTEX
  8
1
 10
53.5797
 20
28.8471
  0
VERTEX
  8
1
 10
53.1019
 20
27.5233
  0
SEQEND
  8
1
  0
POLYLINE
  8
1
 66
1
 70
0
  0
VERTEX
  8
1
 10
53.1019
 20
27.5233
  0
VERTEX
  8
1
 10
52.2202
 20
27.5997
  0
VERTEX
  8
1
 10
49.9360
 20
27.6230
  0
VERTEX
  8
1
 10
47.9256
 20
27.1918
  0
VERTEX
  8
1
 10
46.3945
 20
26.4632
  0
VERTEX
  8
1
 10
45.5004
 20
25.5461
  0
VERTEX
  8
1
 10
44.9174
 20
24.4657
  0
VERTEX
  8
1
 10
44.2884
 20
22.4397
  0
VERTEX
  8
1
 10
44.1397
 20
21.9410
  0
SEQEND
  8
1
  0
POLYLINE
  8
1
 66
1
 70
0
  0
VERTEX
  8
1
 10
44.1397
 20
21.9410
  0
VERTEX
  8
1
 10
43.2345
 20
21.9408
  0
VERTEX
  8
1
 10
37.3207
 20
22.4657
  0
VERTEX
  8
1
 10
35.5891
 20
22.5309
  0
VERTEX
  8
1
 10
32.5201
 20
21.9544
  0
VERTEX
  8
1
 10
27.4769
 20
21.3818
  0
VERTEX
  8
1
 10
26.1929
 20
21.2823
  0
SEQEND
  8
1
  0
POLYLINE
  8
1
 66
1
 70
0
  0
VERTEX
  8
1
 10
26.1929
 20
21.2823
  0
VERTEX
  8
1
 10
26.1929
 20
33.1621
  0
SEQEND
  8
1
  0
POLYLINE
  8
1
 66
1
 70
0
  0
VERTEX
  8
1
 10
26.1929
 20
33.1621
  0
VERTEX
  8
1
 10
47.0858
 20
33.1614
  0
SEQEND
  8
1
  0
LINE
  8
7
 10
36.3373
 20
28.8304
 11
42.2706
 21
28.8304
  0
LINE
  8
5
 10
36.3373
 20
28.8304
 11
42.2706
 21
28.8304
  0
POLYLINE
  8
8
 66
1
 70
0
  0
VERTEX
  8
8
 10
30.1375
 20
28.6733
  0
VERTEX
  8
8
 10
30.1375
 20
29.7349
  0
VERTEX
  8
8
 10
34.3075
 20
29.7349
  0
SEQEND
  8
8
  0
LINE
  8
8
 10
35.5891
 20
33.1619
 11
35.5891
 21
22.5309
  0
LINE
  8
8
 10
43.2345
 20
33.1616
 11
43.2345
 21
21.9408
  0
LINE
  8
8
 10
46.0114
 20
27.2746
 11
46.0115
 21
28.6525
  0
LINE
  8
8
 10
46.0115
 20
28.6525
 11
46.9170
 21
28.6527
  0
LINE
  8
8
 10
46.9170
 20
28.6527
 11
46.9170
 21
27.2743
  0
LINE
  8
8
 10
46.9170
 20
27.2743
 11
46.0114
 21
27.2746
  0
LINE
  8
6
 10
26.1929
 20
33.1621
 11
47.0858
 21
33.1614
  0
ENDBLK
  0
ENDSEC
  0
SECTION
  2
ENTITIES
  0
TEXT
  8
1
 10
0.0000
 20
0.0000
 40
0.250
 50
0.0000
  1
Style Name: WM SLIM TANK
  7
STANDARD
  0
TEXT
  8
1
 10
0.0000
 20
0.1400
 40
0.250
 50
0.0000
  1
Creation Date: 26-10-2017
  7
STANDARD
  0
TEXT
  8
1
 10
0.0000
 20
0.2800
 40
0.250
 50
0.0000
  1
Creation Time:  9:38
  7
STANDARD
  0
TEXT
  8
1
 10
0.0000
 20
0.4200
 40
0.250
 50
0.0000
  1
Author: GERBER TECHNOLOGY
  7
STANDARD
  0
TEXT
  8
1
 10
0.0000
 20
0.5600
 40
0.250
 50
0.0000
  1
PRODUCT: ACCUMARK
  7
STANDARD
  0
TEXT
  8
1
 10
0.0000
 20
0.7000
 40
0.250
 50
0.0000
  1
VERSION: 10.0.1
  7
STANDARD
  0
TEXT
  8
1
 10
0.0000
 20
0.8400
 40
0.250
 50
0.0000
  1
Sample Size: 36
  7
STANDARD
  0
TEXT
  8
1
 10
0.0000
 20
0.9800
 40
0.250
 50
0.0000
  1
Units: ENGLISH
  7
STANDARD
  0
TEXT
  8
1
 10
0.0000
 20
1.1200
 40
0.250
 50
0.0000
  1
TOLERANCE: .006
  7
STANDARD
  0
INSERT
  8
1
  2
TANK_SR_BK_26
 10
0.0000
 20
0.0000
  0
INSERT
  8
1
  2
TANK_SR_BK_28
 10
0.0000
 20
0.0000
  0
INSERT
  8
1
  2
TANK_SR_BK_30
 10
0.0000
 20
0.0000
  0
INSERT
  8
1
  2
TANK_SR_BK_32
 10
0.0000
 20
0.0000
  0
INSERT
  8
1
  2
TANK_SR_BK_34
 10
0.0000
 20
0.0000
  0
INSERT
  8
1
  2
TANK_SR_BK_36
 10
0.0000
 20
0.0000
  0
INSERT
  8
1
  2
TANK_SR_BK_38
 10
0.0000
 20
0.0000
  0
INSERT
  8
1
  2
TANK_SR_BK_40
 10
0.0000
 20
0.0000
  0
INSERT
  8
1
  2
TANK_SR_BK_42
 10
0.0000
 20
0.0000
  0
INSERT
  8
1
  2
TANK_SR_BK_44
 10
0.0000
 20
0.0000
  0
INSERT
  8
1
  2
TANK_SR_BK_46
 10
0.0000
 20
0.0000
  0
INSERT
  8
1
  2
TANK_SR_BK_48
 10
0.0000
 20
0.0000
  0
INSERT
  8
1
  2
TANK_SR_BK_50
 10
0.0000
 20
0.0000
  0
INSERT
  8
1
  2
TANK_SR_BK_52
 10
0.0000
 20
0.0000
  0
INSERT
  8
1
  2
TANK_SR_FR_26
 10
0.0000
 20
0.0000
  0
INSERT
  8
1
  2
TANK_SR_FR_28
 10
0.0000
 20
0.0000
  0
INSERT
  8
1
  2
TANK_SR_FR_30
 10
0.0000
 20
0.0000
  0
INSERT
  8
1
  2
TANK_SR_FR_32
 10
0.0000
 20
0.0000
  0
INSERT
  8
1
  2
TANK_SR_FR_34
 10
0.0000
 20
0.0000
  0
INSERT
  8
1
  2
TANK_SR_FR_36
 10
0.0000
 20
0.0000
  0
INSERT
  8
1
  2
TANK_SR_FR_38
 10
0.0000
 20
0.0000
  0
INSERT
  8
1
  2
TANK_SR_FR_40
 10
0.0000
 20
0.0000
  0
INSERT
  8
1
  2
TANK_SR_FR_42
 10
0.0000
 20
0.0000
  0
INSERT
  8
1
  2
TANK_SR_FR_44
 10
0.0000
 20
0.0000
  0
INSERT
  8
1
  2
TANK_SR_FR_46
 10
0.0000
 20
0.0000
  0
INSERT
  8
1
  2
TANK_SR_FR_48
 10
0.0000
 20
0.0000
  0
INSERT
  8
1
  2
TANK_SR_FR_50
 10
0.0000
 20
0.0000
  0
INSERT
  8
1
  2
TANK_SR_FR_52
 10
0.0000
 20
0.0000
  0
ENDSEC
  0
EOF
